<?xml version="1.0" encoding="UTF-8"?>
<svg id="Layer_2" data-name="Layer 2" xmlns="http://www.w3.org/2000/svg" viewBox="0 0 58.18 54.49">
  <defs>
    <style>
      .cls-1 {
        fill: #55236e;
      }

      .cls-2 {
        fill: #a20025;
      }

      .cls-3 {
        fill: #fff;
      }

      .cls-4 {
        fill: #7cff00;
      }

      .cls-5 {
        fill: #ffd285;
      }

      .cls-6 {
        fill: #fd003a;
      }

      .cls-7 {
        fill: #4d4d4d;
      }

      .cls-8 {
        fill: #333;
      }

      .cls-9 {
        fill: #ff6e4c;
      }

      .cls-10 {
        fill: #999;
      }

      .cls-11 {
        fill: #434343;
      }

      .cls-12 {
        fill: #1a1a1a;
      }

      .cls-13 {
        fill: #74001b;
      }

      .cls-14 {
        fill: #666;
      }
    </style>
  </defs>
  <g id="dead">
    <g id="dead3">
      <g>
        <g>
          <path class="cls-12" d="m23.51,12.42l-.42.75-.05.1-2.52,4.49c-.65,1.15-.23,2.62.92,3.27h0c1.15.65,2.62.23,3.27-.92l2.52-4.49.05-.1.42-.75c.65-1.15.23-2.62-.92-3.27h0c-1.15-.65-2.62-.23-3.27.92Z"/>
          <path class="cls-13" d="m24.49,10.67l-.85,1.51c-.65,1.15-.23,2.62.92,3.27h0c1.15.65,2.62.23,3.27-.92l.85-1.51c.65-1.15.23-2.62-.92-3.27h0c-1.15-.65-2.62-.23-3.27.92Z"/>
        </g>
        <g>
          <path id="ArmOne" class="cls-12" d="m23.42,18.12h0c1.02.84,1.17,2.36.33,3.38l-7.12,8.68c-.84,1.02-2.36,1.17-3.37.33h0c-1.02-.84-1.17-2.36-.33-3.38l7.12-8.68c.84-1.02,2.36-1.17,3.38-.33Z"/>
          <path class="cls-7" d="m21.37,20.58h0c.22.18.25.51.07.74l-1.97,2.4c-.18.22-.51.25-.74.07h0c-.22-.18-.25-.51-.07-.74l1.97-2.4c.18-.22.51-.25.74-.07Z"/>
          <path class="cls-3" d="m13.51,22.94c-1.6,1.96-1.32,4.84.63,6.45,1.96,1.6,4.84,1.32,6.45-.63,1.6-1.96.73-4.12-1.23-5.72s-4.25-2.05-5.85-.09Z"/>
          <path class="cls-2" d="m11.99,24.31c-1.71,2.09-1.41,5.16.68,6.88,2.09,1.71,5.16,1.41,6.88-.68,1.71-2.09.77-4.39-1.31-6.1-2.09-1.71-4.53-2.18-6.24-.1Z"/>
          <path class="cls-6" d="m12.71,25.54c-1.06,1.29-.87,3.2.42,4.26,1.29,1.06,3.2.87,4.26-.42,1.06-1.29.87-3.2-.42-4.26s-3.2-.87-4.26.42Z"/>
          <path class="cls-12" d="m13.11,25.87c-1.06,1.29-.87,3.2.42,4.26,1.29,1.06,3.2.87,4.26-.42,1.06-1.29.87-3.2-.42-4.26-1.29-1.06-3.2-.87-4.26.42Z"/>
          <path class="cls-7" d="m13.97,26.57c-.67.82-.55,2.03.27,2.7.82.67,2.03.55,2.7-.27s.55-2.03-.27-2.7-2.03-.55-2.7.27Z"/>
          <path class="cls-12" d="m14.81,27.26c-.29.36-.24.88.12,1.17.36.29.88.24,1.17-.12.29-.36.24-.88-.12-1.17-.36-.29-.88-.24-1.17.12Z"/>
        </g>
      </g>
      <g>
        <g>
          <path class="cls-8" d="m33.24,24.67l-.68-2.18c-.16-.53-.73-.82-1.25-.66h0c-.53.16-.82.73-.66,1.25l.68,2.18c.16.53.73.82,1.25.66h0c.53-.16.82-.73.66-1.25Z"/>
          <path class="cls-8" d="m41,22.26l-.68-2.18c-.16-.53-.73-.82-1.25-.66h0c-.53.16-.82.73-.66,1.25l.68,2.18c.16.53.73.82,1.25.66h0c.53-.16.82-.73.66-1.25Z"/>
          <path class="cls-7" d="m40.25,19.84h0c-.12-.39-.54-.61-.93-.49l-8.25,2.55c-.39.12-.61.54-.49.93h0c.12.39.54.61.93.49l8.25-2.55c.39-.12.61-.54.49-.93Z"/>
          <path class="cls-10" d="m34.57,21.6h0c-.12-.39-.54-.61-.93-.49l-1.2.37c-.39.12-.61.54-.49.93h0c.12.39.54.61.93.49l1.2-.37c.39-.12.61-.54.49-.93Z"/>
          <path class="cls-10" d="m38.12,20.5h0c-.12-.39-.54-.61-.93-.49l-.35.11c-.39.12-.61.54-.49.93h0c.12.39.54.61.93.49l.35-.11c.39-.12.61-.54.49-.93Z"/>
        </g>
        <path class="cls-6" d="m43.75,23.2h0c.46,1.49-.38,3.09-1.87,3.55l-8.24,2.55c-1.49.46-3.09-.38-3.55-1.87h0c-.46-1.49.38-3.09,1.87-3.55l8.24-2.55c1.49-.46,3.09.38,3.55,1.87Z"/>
        <path class="cls-2" d="m45.07,24.71h0c.61,1.97-.5,4.09-2.48,4.7l-8.26,2.56c-1.97.61-4.09-.5-4.7-2.48h0c-.61-1.97.5-4.09,2.48-4.7l8.26-2.56c1.97-.61,4.09.5,4.7,2.48Z"/>
        <path class="cls-12" d="m45.52,26.16h0c.61,1.97-.5,4.09-2.48,4.7l-8.26,2.56c-1.97.61-4.09-.5-4.7-2.48h0c-.61-1.97.5-4.09,2.48-4.7l8.26-2.56c1.97-.61,4.09.5,4.7,2.48Z"/>
        <path class="cls-7" d="m44.34,28.33h0c.12.39-.1.81-.49.93l-6.05,1.87c-.39.12-.81-.1-.93-.49h0c-.12-.39.1-.81.49-.93l6.05-1.87c.39-.12.81.1.93.49Z"/>
        <path class="cls-10" d="m39.48,29.83h0c.12.39-.1.81-.49.93l-1.2.37c-.39.12-.81-.1-.93-.49h0c-.12-.39.1-.81.49-.93l1.2-.37c.39-.12.81.1.93.49Z"/>
        <path class="cls-10" d="m43.02,28.74h0c.12.39-.1.81-.49.93l-.35.11c-.39.12-.81-.1-.93-.49h0c-.12-.39.1-.81.49-.93l.35-.11c.39-.12.81.1.93.49Z"/>
        <path class="cls-7" d="m42.98,25.02h0c.12.39-.1.81-.49.93l-5.78,1.79c-.39.12-.81-.1-.93-.49h0c-.12-.39.1-.81.49-.93l5.78-1.79c.39-.12.81.1.93.49Z"/>
        <path class="cls-10" d="m39.77,26.02h0c.12.39-.1.81-.49.93l-1.2.37c-.39.12-.81-.1-.93-.49h0c-.12-.39.1-.81.49-.93l1.2-.37c.39-.12.81.1.93.49Z"/>
        <path class="cls-10" d="m42.43,25.19h0c.12.39-.1.81-.49.93l-.35.11c-.39.12-.81-.1-.93-.49h0c-.12-.39.1-.81.49-.93l.35-.11c.39-.12.81.1.93.49Z"/>
        <path class="cls-3" d="m31.37,25.38c-.33.1-.67-.08-.78-.41-.1-.33.08-.67.41-.78.33-.1.67.08.78.41.1.33-.08.67-.41.78Z"/>
        <path class="cls-7" d="m32.66,27.62c-1.27.39-1.98,1.74-1.59,3.02.39,1.27,1.74,1.98,3.02,1.59,1.27-.39,1.98-1.74,1.59-3.02-.39-1.27-1.74-1.98-3.02-1.59Z"/>
        <path class="cls-12" d="m32.99,28.68c-.69.21-1.07.94-.86,1.62.21.69.94,1.07,1.62.86.69-.21,1.07-.94.86-1.62-.21-.69-.94-1.07-1.62-.86Z"/>
        <path class="cls-3" d="m41.05,22.38c-.33.1-.67-.08-.78-.41-.1-.33.08-.67.41-.78.33-.1.67.08.78.41.1.33-.08.67-.41.78Z"/>
      </g>
      <g>
        <g id="ShinTwo">
          <path class="cls-12" d="m55.93,27.56h0c-.09,1.28-1.21,2.25-2.49,2.16l-10.32-.72c-1.28-.09-2.25-1.21-2.16-2.49h0c.09-1.28,1.21-2.25,2.49-2.16l10.32.72c1.28.09,2.25,1.21,2.16,2.49Z"/>
        </g>
        <path class="cls-11" d="m43.38,25.55c-.62-.04-1.16.43-1.21,1.05-.04.62.43,1.16,1.05,1.21s1.16-.43,1.21-1.05c.04-.62-.43-1.16-1.05-1.21Z"/>
      </g>
      <g>
        <g id="ShinTwo-2" data-name="ShinTwo">
          <path class="cls-8" d="m47.43,50.14h0c-.79,1.01-2.26,1.18-3.27.39l-8.13-6.4c-1.01-.79-1.18-2.26-.39-3.27h0c.79-1.01,2.26-1.18,3.27-.39l8.13,6.4c1.01.79,1.18,2.26.39,3.27Z"/>
        </g>
        <path class="cls-7" d="m45.56,49.34h0c-.18.23-.51.27-.74.09l-8.19-6.45c-.23-.18-.27-.51-.09-.74h0c.18-.23.51-.27.74-.09l8.19,6.45c.23.18.27.51.09.74Z"/>
        <path class="cls-3" d="m40.06,45.01h0c-.18.23-.51.27-.74.09l-1.4-1.1c-.23-.18-.27-.51-.09-.74h0c.18-.23.51-.27.74-.09l1.4,1.1c.23.18.27.51.09.74Z"/>
        <path class="cls-3" d="m43.81,48h0c-.19.24-.54.28-.78.09l-.74-.58c-.24-.19-.28-.54-.09-.78h0c.19-.24.54-.28.78-.09l.74.58c.24.19.28.54.09.78Z"/>
      </g>
      <g>
        <path class="cls-6" d="m56.23,22.2c-2.89.27-4.82,2.82-4.54,5.7.27,2.89,2.65,5.02,5.53,4.75l-.99-10.45Z"/>
        <path class="cls-2" d="m56.42,24.22c-.35-.08-.72-.13-1.11-.09-1.88.18-3.25,1.84-3.08,3.72.18,1.88,1.84,3.25,3.72,3.08.38-.04.74-.15,1.07-.3l-.61-6.41Z"/>
        <path class="cls-12" d="m57.39,23.16l.79,8.34c.06.58-.37,1.1-.96,1.16h-.03c-.58.06-1.1-.37-1.16-.95l-.79-8.34c-.06-.58.37-1.1.96-1.16h.03c.58-.06,1.1.37,1.16.95Z"/>
        <path class="cls-3" d="m53.74,24.23c.68-.06,1.29.44,1.35,1.12.06.68-.44,1.29-1.12,1.35-.68.06-1.29-.44-1.35-1.12-.06-.68.44-1.29,1.12-1.35Z"/>
        <path class="cls-3" d="m52.87,28.2c-.35.03-.66-.22-.7-.57-.03-.35.22-.66.57-.7.35-.03.66.22.7.57.03.35-.22.66-.57.7Z"/>
        <path class="cls-7" d="m56.63,30.86h0c.04.38-.24.71-.62.75h0c-.38.04-.71-.24-.75-.62h0c-.04-.38.24-.71.62-.75h0c.38-.04.71.24.75.62Z"/>
        <path class="cls-7" d="m55.97,23.85h0c.04.38-.24.71-.62.75h0c-.38.04-.71-.24-.75-.62h0c-.04-.38.24-.71.62-.75h0c.38-.04.71.24.75.62Z"/>
        <path class="cls-7" d="m56.19,26.19h0c.04.38-.24.71-.62.75h0c-.38.04-.71-.24-.75-.62h0c-.04-.38.24-.71.62-.75h0c.38-.04.71.24.75.62Z"/>
        <path class="cls-7" d="m56.41,28.52h0c.04.38-.24.71-.62.75h0c-.38.04-.71-.24-.75-.62h0c-.04-.38.24-.71.62-.75h0c.38-.04.71.24.75.62Z"/>
      </g>
      <g>
        <path class="cls-6" d="m50.33,44.55c-2.73-.98-5.56.49-6.54,3.22-.98,2.73.25,5.67,2.98,6.65l3.56-9.87Z"/>
        <path class="cls-2" d="m49.64,46.46c-.28-.23-.6-.42-.96-.55-1.77-.64-3.73.28-4.37,2.05-.64,1.77.28,3.73,2.05,4.37.36.13.73.18,1.09.19l2.19-6.05Z"/>
        <path class="cls-12" d="m50.97,45.91l-2.84,7.88c-.2.55-.81.84-1.36.64h-.03c-.55-.21-.84-.82-.64-1.37l2.84-7.88c.2-.55.81-.84,1.36-.64h.03c.55.21.84.82.64,1.37Z"/>
        <path class="cls-3" d="m47.21,45.32c.64.23.98.94.74,1.59-.23.64-.94.98-1.59.74-.64-.23-.98-.94-.74-1.59.23-.64.94-.98,1.59-.74Z"/>
        <path class="cls-3" d="m44.72,48.54c-.33-.12-.5-.49-.38-.82.12-.33.49-.5.82-.38s.5.49.38.82c-.12.33-.49.5-.82.38Z"/>
        <path class="cls-7" d="m46.99,52.55h0c-.13.36-.52.54-.88.41h0c-.36-.13-.54-.52-.41-.88h0c.13-.36.52-.54.88-.41h0c.36.13.54.52.41.88Z"/>
        <path class="cls-7" d="m49.38,45.93h0c-.13.36-.52.54-.88.41h0c-.36-.13-.54-.52-.41-.88h0c.13-.36.52-.54.88-.41h0c.36.13.54.52.41.88Z"/>
        <path class="cls-7" d="m48.59,48.14h0c-.13.36-.52.54-.88.41h0c-.36-.13-.54-.52-.41-.88h0c.13-.36.52-.54.88-.41h0c.36.13.54.52.41.88Z"/>
        <path class="cls-7" d="m47.79,50.35h0c-.13.36-.52.54-.88.41h0c-.36-.13-.54-.52-.41-.88h0c.13-.36.52-.54.88-.41h0c.36.13.54.52.41.88Z"/>
      </g>
      <g>
        <path class="cls-12" d="m15.45,36.16c-.07.15-.21.26-.39.29-.23.03-5.77.69-7.46-2.34-1.29-2.3.08-5.98,4.05-10.95.17-.22.49-.25.7-.08.22.17.25.49.08.7-3.64,4.55-5.01,7.95-3.96,9.84,1.37,2.44,6.41,1.84,6.47,1.83.27-.03.52.16.56.43.01.1,0,.19-.04.27Z"/>
        <g>
          <g>
            <path class="cls-12" d="m22.34,43.54l-.95,2.07c-.23.5,0,1.1.49,1.33h0c.5.23,1.1,0,1.33-.49l.95-2.07c.23-.5,0-1.1-.49-1.33h0c-.5-.23-1.1,0-1.33.49Z"/>
            <path class="cls-12" d="m14.96,40.14l-.95,2.07c-.23.5,0,1.1.49,1.33h0c.5.23,1.1,0,1.33-.49l.95-2.07c.23-.5,0-1.1-.49-1.33h0c-.5-.23-1.1,0-1.33.49Z"/>
            <path class="cls-7" d="m13.9,42.45h0c-.17.37,0,.82.37.99l7.84,3.61c.37.17.82,0,.99-.37h0c.17-.37,0-.82-.37-.99l-7.84-3.61c-.37-.17-.82,0-.99.37Z"/>
            <path class="cls-10" d="m19.3,44.93h0c-.17.37,0,.82.37.99l1.14.52c.37.17.82,0,.99-.37h0c.17-.37,0-.82-.37-.99l-1.14-.52c-.37-.17-.82,0-.99.37Z"/>
            <path class="cls-10" d="m15.93,43.38h0c-.17.37,0,.82.37.99l.33.15c.37.17.82,0,.99-.37h0c.17-.37,0-.82-.37-.99l-.33-.15c-.37-.17-.82,0-.99.37Z"/>
          </g>
          <path class="cls-12" d="m29.65,39.41h0c.39-.85.01-1.86-.83-2.25l-9.73-4.47c-1.88-.86-4.12-.03-4.98,1.84h0c-.86,1.88-.03,4.12,1.84,4.98l5.98,2.75c2.91,1.34,6.38.05,7.72-2.86Z"/>
          <path class="cls-3" d="m27.67,41.75h0c.33-.72.01-1.57-.7-1.9l-9.12-4.19c-1.42-.65-3.11-.03-3.77,1.39h0c-.65,1.42-.03,3.11,1.39,3.77l6.56,3.02c2.12.98,4.66.04,5.63-2.09Z"/>
          <path class="cls-14" d="m28.06,40.89h0c.33-.72.01-1.57-.7-1.9l-9.12-4.19c-1.42-.65-3.11-.03-3.77,1.39h0c-.65,1.42-.03,3.11,1.39,3.77l6.56,3.02c2.12.98,4.66.04,5.63-2.08Z"/>
          <path class="cls-3" d="m15.96,37.23c-.31-.14-.68,0-.82.3s0,.68.3.82c.31.14.68,0,.82-.3s0-.68-.3-.82Z"/>
          <path class="cls-3" d="m24.78,40.44c-.76-.35-1.65-.02-2,.74-.35.76-.02,1.65.74,2,.76.35,1.65.02,2-.74.35-.76.02-1.65-.74-2Z"/>
          <path class="cls-12" d="m24.61,40.81c-.76-.35-1.65-.02-2,.74-.35.76-.02,1.65.74,2,.76.35,1.65.02,2-.74.35-.76.02-1.65-.74-2Z"/>
          <path class="cls-4" d="m24.33,41.41c-.53-.25-1.17-.01-1.41.52-.25.53-.01,1.17.52,1.41.53.25,1.17.01,1.41-.52.25-.53.01-1.17-.52-1.41Z"/>
          <path class="cls-12" d="m21.19,33.43l-2.3,5c-.22.47-.78.68-1.26.46h0c-.47-.22-.68-.78-.46-1.26l2.3-5c.22-.47.78-.68,1.26-.46h0c.47.22.68.78.46,1.26Z"/>
          <path class="cls-12" d="m24.74,35.06l-2.3,5c-.22.47-.78.68-1.26.46h0c-.47-.22-.68-.78-.46-1.26l2.3-5c.22-.47.78-.68,1.26-.46h0c.47.22.68.78.46,1.26Z"/>
          <path class="cls-7" d="m21.86,39.07c-.28-.13-.61,0-.74.27-.13.28,0,.61.27.74.28.13.61,0,.74-.27s0-.61-.27-.74Z"/>
          <path class="cls-7" d="m18.31,37.44c-.28-.13-.61,0-.74.27s0,.61.27.74c.28.13.61,0,.74-.27.13-.28,0-.61-.27-.74Z"/>
          <path class="cls-10" d="m17.87,38.39c-.28-.13-.61,0-.74.27-.13.28,0,.61.27.74.28.13.61,0,.74-.27.13-.28,0-.61-.27-.74Z"/>
          <path class="cls-10" d="m21.42,40.02c-.28-.13-.61,0-.74.27-.13.28,0,.61.27.74.28.13.61,0,.74-.27.13-.28,0-.61-.27-.74Z"/>
        </g>
        <g>
          <path class="cls-12" d="m34.11,34.91h0c-1.92,4.18-6.91,6.02-11.08,4.1l-6.03-2.77c-2.36-1.09-3.41-3.91-2.32-6.28l3.03-6.59c1.09-2.36,3.91-3.41,6.28-2.32l6.03,2.77c4.18,1.92,6.02,6.91,4.1,11.08Z"/>
          <path class="cls-7" d="m26.01,33.12h0c-.3.65-1.07.93-1.71.63l-3.67-1.69c-.65-.3-.93-1.07-.63-1.71h0c.3-.65,1.07-.93,1.71-.63l3.67,1.69c.65.3.93,1.07.63,1.71Z"/>
          <path class="cls-7" d="m28.67,27.35h0c-.3.65-1.07.93-1.71.63l-3.67-1.69c-.65-.3-.93-1.07-.63-1.71h0c.3-.65,1.07-.93,1.71-.63l3.67,1.69c.65.3.93,1.07.63,1.71Z"/>
          <path class="cls-2" d="m22.54,30.76l-1.25,2.72c-.45.97-1.6,1.4-2.57.95h0c-2.01-.93-2.9-3.33-1.98-5.34l.38-.83c.45-.97,1.6-1.4,2.57-.95l1.9.87c.97.45,1.4,1.6.95,2.57Z"/>
          <path class="cls-2" d="m25.88,23.49l-1.25,2.72c-.45.97-1.6,1.4-2.57.95l-1.9-.87c-.97-.45-1.4-1.6-.95-2.57l.66-1.43c.77-1.68,2.78-2.42,4.46-1.65l.6.28c.97.45,1.4,1.6.95,2.57Z"/>
          <path class="cls-6" d="m24.47,24.31l-3.68,1.36c-.28.11-.6-.04-.71-.32h0c-.1-.28.04-.6.32-.71l3.68-1.36c.28-.11.6.04.71.32h0c.1.28-.04.6-.32.71Z"/>
          <path class="cls-6" d="m23.25,22.32l-1.64.61c-.28.1-.6-.04-.71-.32h0c-.1-.28.04-.6.32-.71l1.64-.61c.28-.1.6.04.71.32h0c.1.28-.04.6-.32.71Z"/>
          <path class="cls-6" d="m21.21,31.41l-2.83,1.05c-.28.1-.6-.04-.71-.32h0c-.1-.28.04-.6.32-.71l2.83-1.05c.28-.1.6.04.71.32h0c.1.28-.04.6-.32.71Z"/>
          <path class="cls-6" d="m19.99,29.41l-1.64.61c-.28.1-.6-.04-.71-.32h0c-.1-.28.04-.6.32-.71l1.64-.61c.28-.1.6.04.71.32h0c.1.28-.04.6-.32.71Z"/>
          <path class="cls-2" d="m29.64,26.33l-4.08,8.87c-.2.44-.72.63-1.16.43h0c-.44-.2-.63-.72-.43-1.16l4.08-8.87c.2-.44.72-.63,1.16-.43h0c.44.2.63.72.43,1.16Z"/>
          <path class="cls-7" d="m28.2,34.43h0c-.17.37-.62.54-.99.37l-1.78-.82c-.37-.17-.54-.62-.37-.99h0c.17-.37.62-.54.99-.37l1.78.82c.37.17.54.62.37.99Z"/>
          <path class="cls-7" d="m30.64,29.13h0c-.17.37-.62.54-.99.37l-1.78-.82c-.37-.17-.54-.62-.37-.99h0c.17-.37.62-.54.99-.37l1.78.82c.37.17.54.62.37.99Z"/>
          <path class="cls-7" d="m30.37,35.43c.56.26.81.92.55,1.48-.26.56-.92.81-1.48.55s-.81-.92-.55-1.48c.26-.56.92-.81,1.48-.55Z"/>
          <path class="cls-7" d="m33.16,28.41c.36.17.52.59.35.96-.17.36-.59.52-.96.35-.36-.17-.52-.59-.35-.96.17-.36.59-.52.96-.35Z"/>
          <path class="cls-3" d="m18.4,31.37c.33.15.47.54.32.87-.15.33-.54.47-.87.32-.33-.15-.47-.54-.32-.87.15-.33.54-.47.87-.32Z"/>
          <path class="cls-3" d="m18.45,28.88c.32.15.47.53.32.86-.15.32-.53.47-.86.32-.32-.15-.47-.53-.32-.86s.53-.47.86-.32Z"/>
          <path class="cls-2" d="m32.79,29.61c-1.34-.62-3.04.22-3.79,1.86s-.28,3.47,1.06,4.09c1.34.62,3.04-.22,3.79-1.86.75-1.64.28-3.47-1.06-4.09Z"/>
          <path class="cls-3" d="m20.77,24.55c.33.15.47.54.32.87-.15.33-.54.47-.87.32-.33-.15-.47-.54-.32-.87.15-.33.54-.47.87-.32Z"/>
          <path class="cls-3" d="m21.7,21.82c.32.15.47.53.32.86-.15.32-.53.47-.86.32-.32-.15-.47-.53-.32-.86.15-.32.53-.47.86-.32Z"/>
          <path class="cls-2" d="m32.29,26.74l-5.25,11.41c-.15.33-.54.47-.86.32h0c-.33-.15-.47-.54-.32-.86l5.25-11.41c.15-.33.54-.47.86-.32h0c.33.15.47.54.32.86Z"/>
          <path class="cls-6" d="m31.15,29.21l-.94,2.05c-.15.33-.54.47-.86.32h0c-.33-.15-.47-.54-.32-.86l.94-2.05c.15-.33.54-.47.86-.32h0c.33.15.47.54.32.86Z"/>
          <path class="cls-6" d="m28.52,34.94l-.22.48c-.15.33-.54.47-.86.32h0c-.33-.15-.47-.54-.32-.86l.22-.48c.15-.33.54-.47.86-.32h0c.33.15.47.54.32.86Z"/>
          <path class="cls-3" d="m30.83,28.34c.33.15.47.54.32.86-.15.33-.54.47-.86.32-.33-.15-.47-.54-.32-.86.15-.33.54-.47.86-.32Z"/>
          <path class="cls-3" d="m28.27,33.91c.33.15.47.54.32.86-.15.33-.54.47-.86.32-.33-.15-.47-.54-.32-.86.15-.33.54-.47.86-.32Z"/>
          <path class="cls-6" d="m32.89,31.57c-.64-.3-1.47.13-1.85.96-.38.82-.16,1.73.48,2.03.64.3,1.47-.13,1.85-.96.38-.82.16-1.73-.48-2.03Z"/>
          <path class="cls-6" d="m31.84,30.76c.25.12.36.42.25.67s-.42.36-.67.25-.36-.42-.25-.67c.12-.25.42-.36.67-.25Z"/>
        </g>
      </g>
      <g>
        <path class="cls-12" d="m1.24,23.19s-1.81.71-1.05,3.72c.07.26.4.36.58.17.47-.5,1.5-1.18,3.58-1.3l-3.12-2.59Z"/>
        <path class="cls-12" d="m2.34,25.38s-1.84.63-1.21,3.67c.05.26.38.38.57.19.5-.48,1.55-1.11,3.64-1.14l-3-2.72Z"/>
        <path class="cls-12" d="m5.75,18.37s-.12-1.94-3.21-2.14c-.27-.02-.47.26-.34.5.33.6.66,1.79.13,3.81l3.42-2.17Z"/>
        <path class="cls-12" d="m.73,23.96s3.05-6.92,3.06-9.81c0-.39.38-.67.74-.52,1.11.44,2.93,1.36,3.28,2.71L.73,23.96Z"/>
        <path class="cls-5" d="m13.62,25.56h0c-1.28,2.78-4.59,4.01-7.37,2.73l-2.7-1.24c-1.7-.78-2.45-2.81-1.67-4.5l1.9-4.13c.78-1.7,2.81-2.45,4.5-1.67l2.5,1.15c2.89,1.33,4.16,4.77,2.83,7.66Z"/>
        <path class="cls-12" d="m6.77,28.77h0c-.35.75-1.25,1.09-2,.74l-2.25-1.04c-.75-.35-1.09-1.25-.74-2h0c.35-.75,1.25-1.09,2-.74l2.25,1.04c.75.35,1.09,1.25.74,2Z"/>
        <path class="cls-1" d="m8.77,19.89c-1.82-.84-3.97-.04-4.81,1.78-.84,1.82-.04,3.97,1.78,4.81,1.82.84,3.97.04,4.81-1.78s.04-3.97-1.78-4.81Z"/>
        <path class="cls-12" d="m7.74,17.66l-3.61,7.86c-.43.93-1.54,1.34-2.47.92h0c-.93-.43-1.34-1.54-.92-2.47l3.61-7.86c.43-.93,1.54-1.34,2.47-.92h0c.93.43,1.34,1.54.92,2.47Z"/>
        <g>
          <path class="cls-5" d="m5.51,25.64c.77.36,1.17,1.14.82,1.91-.36.77-1.33,1.24-2.1.89s-1.11-1.27-.76-2.04c.36-.77,1.27-1.11,2.04-.76Z"/>
          <path class="cls-9" d="m5.2,26.31c.4.18.58.66.39,1.06-.18.4-.66.58-1.06.39-.4-.18-.58-.66-.39-1.06.18-.4.66-.58,1.06-.39Z"/>
        </g>
        <path class="cls-9" d="m11.2,22.46h0c-.26.56-.93.81-1.49.55l-1.01-.47c-.56-.26-.81-.93-.55-1.49h0c.26-.56.93-.81,1.49-.55l1.01.47c.56.26.81.93.55,1.49Z"/>
        <path class="cls-14" d="m6.21,16.84l-1.56,3.39c-.14.31-.52.45-.83.31h0c-.31-.14-.45-.52-.31-.83l1.56-3.39c.14-.31.52-.45.83-.31h0c.31.14.45.52.31.83Z"/>
        <path class="cls-3" d="m5.48,16.92c-.31-.14-.69,0-.83.31-.14.31,0,.69.31.83.31.14.69,0,.83-.31.14-.31,0-.69-.31-.83Z"/>
        <path class="cls-14" d="m3.53,22.67l-.49,1.06c-.14.31-.52.45-.83.31h0c-.31-.14-.45-.52-.31-.83l.49-1.06c.14-.31.52-.45.83-.31h0c.31.14.45.52.31.83Z"/>
        <g>
          <path class="cls-2" d="m11.57,19.71l-4.07,5.91c-.62.89-1.85,1.12-2.75.51h0c-.89-.62-1.12-1.85-.51-2.75l4.07-5.91c.62-.89,1.85-1.12,2.75-.51h0c.89.62,1.12,1.85.51,2.75Z"/>
          <path class="cls-6" d="m7.5,24.4c-.4.58-1.19.73-1.77.33-.58-.4-.72-1.19-.33-1.77l3.5-5.08c.4-.58,1.19-.73,1.77-.33.58.4.73,1.19.33,1.77l-3.5,5.08Z"/>
        </g>
        <path class="cls-12" d="m16.64,27c1.53-3.33.33-7.22-2.66-9.15-.46-.3-1.09-.11-1.32.39l-5.25,11.43c-.23.5.03,1.1.56,1.26,3.41,1.02,7.14-.61,8.67-3.94Z"/>
        <path class="cls-3" d="m15.36,25.18c.91-1.98.2-4.3-1.59-5.45-.28-.18-.65-.06-.79.23l-3.13,6.81c-.14.3.02.66.33.75,2.03.61,4.26-.36,5.17-2.35Z"/>
        <path class="cls-7" d="m15.89,25.42c.91-1.98.2-4.3-1.59-5.45-.28-.18-.65-.06-.79.23l-3.13,6.81c-.14.3.02.66.33.75,2.03.61,4.26-.36,5.17-2.35Z"/>
        <path class="cls-12" d="m12.39,25.38c.23.1.33.37.22.6-.1.23-.37.33-.6.22-.23-.1-.33-.37-.22-.6.1-.23.37-.33.6-.22Z"/>
        <path class="cls-12" d="m12.96,24.15c.23.1.33.37.22.6-.1.23-.37.33-.6.22-.23-.1-.33-.37-.22-.6s.37-.33.6-.22Z"/>
        <path class="cls-12" d="m13.52,22.92c.23.1.33.37.22.6-.1.23-.37.33-.6.22-.23-.1-.33-.37-.22-.6.1-.23.37-.33.6-.22Z"/>
        <path class="cls-12" d="m14.09,21.68c.23.1.33.37.22.6-.1.23-.37.33-.6.22-.23-.1-.33-.37-.22-.6.1-.23.37-.33.6-.22Z"/>
        <path class="cls-12" d="m14.2,24.72c.23.1.33.37.22.6s-.37.33-.6.22c-.23-.1-.33-.37-.22-.6.1-.23.37-.33.6-.22Z"/>
        <path class="cls-12" d="m14.77,23.49c.23.1.33.37.22.6-.1.23-.37.33-.6.22-.23-.1-.33-.37-.22-.6.1-.23.37-.33.6-.22Z"/>
        <path class="cls-7" d="m9.75,28.92l-.46,1c-.09.2-.33.29-.53.2h0c-.2-.09-.29-.33-.2-.53l.46-1c.09-.2.33-.29.53-.2h0c.2.09.29.33.2.53Z"/>
        <path class="cls-7" d="m11.53,29.42l-.16.35c-.1.23-.37.33-.6.22h0c-.23-.1-.33-.37-.22-.6l.16-.35c.1-.23.37-.33.6-.22h0c.23.1.33.37.22.6Z"/>
        <polygon class="cls-12" points="4.36 22.68 7.83 23.78 8.54 20.39 10.78 20.04 7.98 19.63 7.33 22.72 4.52 21.26 4.36 22.68"/>
      </g>
      <g>
        <path class="cls-12" d="m14.51,15.62h0c-.22.49,0,1.07.5,1.29l3,1.32c.49.22,1.07,0,1.29-.5h0c.22-.49,0-1.07-.5-1.29l-3-1.32c-.49-.22-1.07,0-1.29.5Z"/>
        <path class="cls-12" d="m18.24,14.33h0c-.49-.22-1.07,0-1.29.5l-1.32,3c-.22.49,0,1.07.5,1.29h0c.49.22,1.07,0,1.29-.5l1.32-3c.22-.49,0-1.07-.5-1.29Z"/>
        <path class="cls-4" d="m19.86,3.92l-2.08,4.71c-.36.82.01,1.78.83,2.14h0c.82.36,1.78-.01,2.14-.83l2.08-4.71c.36-.82-.01-1.78-.83-2.14h0c-.82-.36-1.78.01-2.14.83Z"/>
        <path class="cls-3" d="m18.67,6.61l-.22.5c-.12.27,0,.58.27.69h0c.27.12.58,0,.69-.27l.22-.5c.12-.27,0-.58-.27-.69h0c-.27-.12-.58,0-.69.27Z"/>
        <path class="cls-3" d="m19.22,5.35h0c-.12.27,0,.58.27.69h0c.27.12.58,0,.69-.27h0c.12-.27,0-.58-.27-.69h0c-.27-.12-.58,0-.69.27Z"/>
        <path class="cls-12" d="m21.65,2.44l-3.66,8.3c-.31.71.01,1.54.72,1.85h0c.71.31,1.54-.01,1.85-.72l3.66-8.3c.31-.71-.01-1.54-.72-1.85h0c-.71-.31-1.54.01-1.85.72Z"/>
        <path class="cls-12" d="m19.5,9.95h0c-.23.53-.86.77-1.39.54h0c-.53-.23-.77-.86-.54-1.39h0c.23-.53.86-.77,1.39-.54h0c.53.23.77.86.54,1.39Z"/>
        <path class="cls-12" d="m22.17,3.9h0c-.23.53-.86.77-1.39.54h0c-.53-.23-.77-.86-.54-1.39h0c.23-.53.86-.77,1.39-.54h0c.53.23.77.86.54,1.39Z"/>
        <path class="cls-12" d="m28.69,16.8l-5.58,12.65c-.54,1.22-1.98,1.78-3.2,1.24l-2.61-1.15c-2.66-1.17-3.87-4.31-2.7-6.96l4.43-10.04c1.17-2.66,4.31-3.87,6.96-2.7h0c2.66,1.17,3.87,4.31,2.7,6.96Z"/>
        <path class="cls-12" d="m24.63,1.56h0c-.37.85.01,1.85.86,2.23l3.8,1.67c.85.37,1.85-.01,2.23-.86h0c.37-.85-.01-1.85-.86-2.23l-3.8-1.67c-.85-.37-1.85.01-2.23.86Z"/>
        <path class="cls-3" d="m31.07,5.06l-7.98,18.1-4.61-2.03c-1.66-.73-2.42-2.68-1.68-4.34l6.32-14.34c.18-.42.67-.61,1.09-.42l6.87,3.03Z"/>
        <path class="cls-12" d="m32.16,5.26l-7.8,17.69-4.61-2.03c-1.66-.73-2.42-2.68-1.68-4.34l5.65-12.81c.46-1.03,1.66-1.5,2.7-1.05l5.75,2.54Z"/>
        <path class="cls-6" d="m31.9,5.17l-5.86,13.29-4.61-2.03c-1.66-.73-2.42-2.68-1.68-4.34l4.2-9.52c.18-.42.67-.61,1.09-.42l6.87,3.03Z"/>
        <path class="cls-12" d="m29.33,6.57l-2.72,6.16c-.52,1.17.02,2.55,1.19,3.06h0c1.17.52,2.55-.02,3.06-1.19l2.72-6.16c.52-1.17-.02-2.55-1.19-3.06h0c-1.17-.52-2.55.02-3.06,1.19Z"/>
        <path class="cls-12" d="m19.76,16.27h0c-1.24,1.44-1.08,3.64.36,4.88l2.33,2.01c1.44,1.24,3.64,1.08,4.88-.36h0c1.24-1.44,1.08-3.64-.36-4.88l-2.33-2.01c-1.44-1.24-3.64-1.08-4.88.36Z"/>
        <path class="cls-12" d="m28.51,14.47l-2.37,5.37c-.88,1.99-3.22,2.9-5.2,2.02h0c-1.99-.88-2.9-3.22-2.02-5.2l2.37-5.37c.88-1.99,3.22-2.9,5.2-2.02h0c1.99.88,2.9,3.22,2.02,5.2Z"/>
        <path class="cls-7" d="m27.34,13.9l-.92,2.09c-.27.6-.97.88-1.58.61h0c-.6-.27-.88-.97-.61-1.58l.92-2.09c.27-.6.97-.88,1.58-.61h0c.6.27.88.97.61,1.58Z"/>
        <path class="cls-12" d="m19.23,17.49h0c-1.24,1.44-1.08,3.64.36,4.88l2.33,2.01c1.44,1.24,3.64,1.08,4.88-.36h0c1.24-1.44,1.08-3.64-.36-4.88l-2.33-2.01c-1.44-1.24-3.64-1.08-4.88.36Z"/>
        <path class="cls-7" d="m20.04,18.34h0c-.84.97-.62,2.55.48,3.5l1.78,1.54c1.1.95,2.69.94,3.53-.04h0c.84-.97.62-2.55-.48-3.5l-1.78-1.54c-1.1-.95-2.69-.94-3.53.04Z"/>
        <path class="cls-3" d="m22.95,23.68l-1.78-1.54c-1.1-.95-1.32-2.53-.48-3.5.6-.69,1.57-.89,2.48-.61-1.06-.65-2.39-.54-3.14.32-.84.97-.62,2.55.48,3.5l1.78,1.54c.32.28.68.46,1.05.58-.14-.08-.27-.18-.4-.29Z"/>
        <path class="cls-12" d="m22.2,19.01c-.44-.19-.95,0-1.15.44-.19.44,0,.95.44,1.15s.95,0,1.15-.44c.19-.44,0-.95-.44-1.15Z"/>
        <path class="cls-12" d="m24.56,21.3c-.38-.17-.82,0-.98.38-.17.38,0,.82.38.98s.82,0,.98-.38c.17-.38,0-.82-.38-.98Z"/>
        <path class="cls-3" d="m24.47,15.17h0c-.2.46,0,1.01.47,1.21h0c.46.2,1.01,0,1.21-.47h0c.2-.46,0-1.01-.47-1.21h0c-.46-.2-1.01,0-1.21.47Z"/>
        <g>
          <path class="cls-6" d="m30.1,7.48l-1.85,4.2c-.7,1.59.03,3.46,1.61,4.16h0c1.59.7,3.46-.03,4.16-1.61l1.39-3.16c.7-1.59-.03-3.46-1.61-4.16l-1.04-.46c-1.01-.45-2.21.02-2.66,1.03Z"/>
          <path class="cls-2" d="m30.61,9.45l-1.03,2.33c-.42.95.02,2.07.97,2.49h0c.95.42,2.07-.02,2.49-.97l1.03-2.33c.42-.95-.02-2.07-.97-2.49h0c-.95-.42-2.07.02-2.49.97Z"/>
          <path class="cls-3" d="m31.68,8.24c-.63-.28-1.37,0-1.65.64-.28.63,0,1.37.64,1.65.63.28,1.37,0,1.65-.64.28-.63,0-1.37-.64-1.65Z"/>
          <path class="cls-3" d="m32.01,12.75c-.44-.19-.95,0-1.14.44s0,.95.44,1.14c.44.19.95,0,1.14-.44.19-.44,0-.95-.44-1.14Z"/>
        </g>
        <path class="cls-7" d="m22.9,12.05l-1.65,3.73c-.11.25,0,.55.25.66h0c.25.11.55,0,.66-.25l1.65-3.73c.11-.25,0-.55-.25-.66h0c-.25-.11-.55,0-.66.25Z"/>
        <path class="cls-7" d="m16.93,26.54h0c-.34.77.01,1.68.78,2.02l2.06.91c.77.34,1.68-.01,2.02-.78h0c.34-.77-.01-1.68-.78-2.02l-2.06-.91c-.77-.34-1.68.01-2.02.78Z"/>
        <path class="cls-7" d="m15.71,22.93h0c-.28.65.01,1.41.66,1.69h0c.65.28,1.41-.01,1.69-.66h0c.28-.65-.01-1.41-.66-1.69h0c-.65-.28-1.41.01-1.69.66Z"/>
        <path class="cls-12" d="m26.53.55h0c-.21.47,0,1.02.47,1.22l1.41.62c.47.21,1.02,0,1.22-.47h0c.21-.47,0-1.02-.47-1.22l-1.41-.62c-.47-.21-1.02,0-1.22.47Z"/>
        <path class="cls-7" d="m28.78,2.59h0c-.12.28-.45.41-.73.28l-1.62-.72c-.28-.12-.41-.45-.28-.73h0c.12-.28.45-.41.73-.28l1.62.72c.28.12.41.45.28.73Z"/>
        <path class="cls-7" d="m30.24,3.24h0c-.1.23,0,.5.23.6h0c.23.1.5,0,.6-.23h0c.1-.23,0-.5-.23-.6h0c-.23-.1-.5,0-.6.23Z"/>
        <path class="cls-3" d="m27.08,1.24h0c-.15.35,0,.75.35.91h0c.35.15.75,0,.9-.35h0c.15-.35,0-.75-.35-.91h0c-.35-.15-.75,0-.91.35Z"/>
        <g>
          <path class="cls-12" d="m23.97,11.04h0c-.95-.42-1.38-1.55-.96-2.5l1.29-2.89c.42-.95,1.55-1.38,2.5-.96h0c.95.42,1.38,1.55.96,2.5l-1.29,2.89c-.42.95-1.55,1.38-2.5.96Z"/>
          <path class="cls-4" d="m24.97,8.8h0c-.65-.29-.94-1.05-.65-1.7l.42-.95c.29-.65,1.05-.94,1.7-.65h0c.65.29.94,1.05.65,1.7l-.42.95c-.29.65-1.05.94-1.7.65Z"/>
          <path class="cls-3" d="m26.81,6.71c.03-.49-.33-.91-.82-.94-.49-.03-.91.33-.94.82-.03.49.33.91.82.94.49.03.91-.33.94-.82Z"/>
          <path class="cls-7" d="m24.93,9.81c.02-.26-.18-.48-.43-.5-.26-.02-.48.18-.5.43-.02.26.18.48.43.5.26.02.48-.18.5-.43Z"/>
        </g>
      </g>
      <g>
        <path class="cls-8" d="m23.02,24.92l.29.81.04.11.99,2.7c.45,1.24,1.84,1.88,3.08,1.43h0c1.24-.45,1.88-1.84,1.43-3.08l-.99-2.7-.04-.11-.29-.81c-.45-1.24-1.84-1.88-3.08-1.43h0c-1.24.45-1.88,1.84-1.43,3.08Z"/>
        <path class="cls-2" d="m22.33,23.04l.59,1.63c.45,1.24,1.84,1.88,3.08,1.43h0c1.24-.45,1.88-1.84,1.43-3.08l-.59-1.63c-.45-1.24-1.84-1.88-3.08-1.43h0c-1.24.45-1.88,1.84-1.43,3.08Z"/>
      </g>
      <g>
        <path class="cls-6" d="m27.07,15.84l-1.5,3.41c-.39.89-1.43,1.29-2.32.9h0c-.89-.39-1.29-1.43-.9-2.32l1.5-3.41c.39-.89,1.43-1.29,2.32-.9h0c.89.39,1.29,1.43.9,2.32Z"/>
        <path class="cls-6" d="m21.98,18.65l-.14.31c-.91,2.06.03,4.49,2.09,5.39h0c2.06.91,4.49-.03,5.39-2.09l.13-.31c.91-2.06-.03-4.49-2.09-5.39h0c-2.06-.91-4.49.03-5.39,2.09Z"/>
        <path class="cls-2" d="m28.9,21.13h0c-.56,1.28-2.07,1.86-3.34,1.3l-1.3-.57c-1.28-.56-1.86-2.07-1.3-3.34h0c.56-1.28,2.07-1.86,3.34-1.3l1.3.57c1.28.56,1.86,2.07,1.3,3.34Z"/>
        <path class="cls-2" d="m25.71,16.84l-.97,2.21c-.21.47-.75.68-1.22.47h0c-.47-.21-.68-.75-.47-1.22l.97-2.21c.21-.47.75-.68,1.22-.47h0c.47.21.68.75.47,1.22Z"/>
        <path class="cls-3" d="m25.93,19.82h0c-.31.7-1.14,1.03-1.85.72h0c-.7-.31-1.03-1.14-.72-1.85h0c.31-.7,1.14-1.03,1.85-.72h0c.7.31,1.03,1.14.72,1.85Z"/>
        <path class="cls-3" d="m26.95,22.3h0c-.21.47-.77.69-1.24.48h0c-.47-.21-.69-.77-.48-1.24h0c.21-.47.77-.69,1.24-.48h0c.47.21.69.77.48,1.24Z"/>
      </g>
      <g>
        <path id="ArmOne-2" data-name="ArmOne" class="cls-8" d="m28.85,27.16h0c.35,1.27-.4,2.6-1.67,2.95l-10.82,3c-1.27.35-2.6-.4-2.95-1.67h0c-.35-1.27.4-2.6,1.67-2.95l10.82-3c1.27-.35,2.6.4,2.95,1.67Z"/>
        <path class="cls-12" d="m25.12,28.16h0c.08.28-.09.57-.36.64l-2.99.83c-.28.08-.57-.09-.64-.36h0c-.08-.28.09-.57.36-.64l2.99-.83c.28-.08.57.09.64.36Z"/>
        <path class="cls-3" d="m17.96,25.4c-2.44.68-3.87,3.2-3.19,5.64.68,2.44,3.2,3.87,5.64,3.19,2.44-.68,2.96-2.95,2.29-5.39-.68-2.44-2.3-4.12-4.73-3.44Z"/>
        <path class="cls-2" d="m15.94,25.64c-2.6.72-4.12,3.41-3.4,6.01.72,2.6,3.41,4.12,6.01,3.4,2.6-.72,3.16-3.15,2.44-5.75-.72-2.6-2.45-4.39-5.05-3.67Z"/>
        <path class="cls-6" d="m16.41,27.74c-2.04.57-3.29,2.46-2.8,4.24s2.54,2.76,4.58,2.19c2.04-.57,2.54-2.25,2.04-4.03-.49-1.78-1.79-2.97-3.83-2.4Z"/>
        <path class="cls-4" d="m24.84,27.16c-.56.15-.88.73-.73,1.28.15.56.73.88,1.28.73.56-.15.88-.73.73-1.28-.15-.56-.73-.88-1.28-.73Z"/>
        <g>
          <path class="cls-2" d="m19.5,30.82h0c-.07.12-.22.16-.34.09l-2.34-1.32c-.12-.07-.16-.22-.09-.34h0c.07-.12.22-.16.34-.09l2.34,1.32c.12.07.16.22.09.34Z"/>
          <path class="cls-2" d="m17.93,31.87h0c-.07.12-.22.16-.34.09l-2.34-1.32c-.12-.07-.16-.22-.09-.34h0c.07-.12.22-.16.34-.09l2.34,1.32c.12.07.16.22.09.34Z"/>
          <path class="cls-2" d="m18.33,33.44h0c-.07.12-.22.16-.34.09l-2.34-1.32c-.12-.07-.16-.22-.09-.34h0c.07-.12.22-.16.34-.09l2.34,1.32c.12.07.16.22.09.34Z"/>
        </g>
        <path class="cls-3" d="m14.83,30.16c.99-.28,2.02.31,2.3,1.3.28.99-.31,2.02-1.3,2.3-.99.28-2.02-.31-2.3-1.3-.28-.99.31-2.02,1.3-2.3Z"/>
        <path class="cls-3" d="m16.28,28.66c-.33.09-.67-.1-.76-.43-.09-.33.1-.67.43-.76.33-.09.67.1.76.43s-.1.67-.43.76Z"/>
      </g>
      <g>
        <path class="cls-8" d="m39.9,44.32h0c1.28-1.62,1-4-.63-5.28l-6.79-5.35c-1.62-1.28-4-1-5.28.63h0c-1.28,1.62-1,4,.63,5.28l6.79,5.35c1.62,1.28,4,1,5.28-.63Z"/>
        <path class="cls-2" d="m38.67,45.9h0c1.28-1.62,1-4-.63-5.28l-6.79-5.35c-1.62-1.28-4-1-5.28.63h0c-1.28,1.62-1,4,.63,5.28l6.79,5.35c1.62,1.28,4,1,5.28-.63Z"/>
        <path class="cls-3" d="m37.73,45.76h0c.97-1.23.75-3.02-.47-3.99l-6.78-5.34c-1.23-.97-3.02-.75-3.99.47h0c-.97,1.23-.75,3.02.47,3.99l6.78,5.34c1.23.97,3.02.75,3.99-.47Z"/>
        <path class="cls-6" d="m37.18,46.45h0c.97-1.23.75-3.02-.47-3.99l-6.78-5.34c-1.23-.97-3.02-.75-3.99.47h0c-.97,1.23-.75,3.02.47,3.99l6.78,5.34c1.23.97,3.02.75,3.99-.47Z"/>
        <path class="cls-8" d="m30.49,37.95l1.41-1.79c.34-.43.27-1.06-.17-1.4h0c-.43-.34-1.06-.27-1.4.17l-1.41,1.79c-.34.43-.27,1.06.17,1.4h0c.43.34,1.06.27,1.4-.17Z"/>
        <path class="cls-8" d="m36.87,42.98l1.41-1.79c.34-.43.27-1.06-.17-1.4h0c-.43-.34-1.06-.27-1.4.17l-1.41,1.79c-.34.43-.27,1.06.17,1.4h0c.43.34,1.06.27,1.4-.17Z"/>
        <path class="cls-7" d="m38.44,40.98h0c.25-.32.2-.79-.12-1.05l-6.78-5.34c-.32-.25-.79-.2-1.05.12h0c-.25.32-.2.79.12,1.05l6.78,5.34c.32.25.79.2,1.05-.12Z"/>
        <path class="cls-10" d="m33.78,37.31h0c.25-.32.2-.79-.12-1.05l-.98-.78c-.32-.25-.79-.2-1.05.12h0c-.25.32-.2.79.12,1.05l.98.78c.32.25.79.2,1.05-.12Z"/>
        <path class="cls-10" d="m36.69,39.6h0c.25-.32.2-.79-.12-1.05l-.29-.22c-.32-.25-.79-.2-1.05.12h0c-.25.32-.2.79.12,1.05l.29.22c.32.25.79.2,1.05-.12Z"/>
        <g>
          <path class="cls-2" d="m32.54,39.95h0c-.14.02-.23.14-.22.28l.32,2.67c.02.14.14.23.28.22h0c.14-.02.23-.14.22-.28l-.32-2.67c-.02-.14-.14-.23-.28-.22Z"/>
          <path class="cls-2" d="m30.96,40.99h0c-.14.02-.23.14-.22.28l.32,2.67c.02.14.14.23.28.22h0c.14-.02.23-.14.22-.28l-.32-2.67c-.02-.14-.14-.23-.28-.22Z"/>
          <path class="cls-2" d="m29.67,40.02h0c-.14.02-.23.14-.22.28l.32,2.67c.02.14.14.23.28.22h0c.14-.02.23-.14.22-.28l-.32-2.67c-.02-.14-.14-.23-.28-.22Z"/>
        </g>
        <path class="cls-3" d="m27.15,38.96c-.27-.21-.66-.17-.87.1-.21.27-.17.66.1.87.27.21.66.17.87-.1.21-.27.17-.66-.1-.87Z"/>
      </g>
    </g>
  </g>
</svg>