<?xml version="1.0" encoding="UTF-8"?>
<svg id="Layer_2" data-name="Layer 2" xmlns="http://www.w3.org/2000/svg" viewBox="0 0 66.32 36">
  <defs>
    <style>
      .cls-1 {
        fill: #55236e;
      }

      .cls-2 {
        fill: #a20025;
      }

      .cls-3 {
        fill: #fff;
      }

      .cls-4 {
        fill: #7cff00;
      }

      .cls-5 {
        fill: #e71e00;
      }

      .cls-6 {
        fill: #ffd285;
      }

      .cls-7 {
        fill: #fd003a;
      }

      .cls-8 {
        fill: #4d4d4d;
      }

      .cls-9 {
        fill: #333;
      }

      .cls-10 {
        fill: #ff6e4c;
      }

      .cls-11 {
        fill: #999;
      }

      .cls-12 {
        fill: #434343;
      }

      .cls-13 {
        fill: #1a1a1a;
      }

      .cls-14 {
        fill: #74001b;
      }

      .cls-15 {
        fill: #666;
      }
    </style>
  </defs>
  <g id="dead">
    <g id="dead7">
      <g>
        <g>
          <path class="cls-13" d="m34.68,12.49l-.41.76-.05.1-2.43,4.54c-.62,1.16-.18,2.62.98,3.25h0c1.16.62,2.62.18,3.25-.98l2.43-4.54.05-.1.41-.76c.62-1.16.18-2.62-.98-3.25h0c-1.16-.62-2.62-.18-3.25.98Z"/>
          <path class="cls-14" d="m35.63,10.73l-.82,1.53c-.62,1.16-.18,2.62.98,3.25h0c1.16.62,2.62.18,3.25-.98l.82-1.53c.62-1.16.18-2.62-.98-3.25h0c-1.16-.62-2.62-.18-3.25.98Z"/>
        </g>
        <g>
          <path id="ArmOne" class="cls-13" d="m34.71,18.2h0c1.04.82,1.22,2.33.4,3.37l-6.95,8.82c-.82,1.04-2.33,1.22-3.37.4h0c-1.04-.82-1.22-2.33-.4-3.37l6.95-8.82c.82-1.04,2.33-1.22,3.37-.4Z"/>
          <path class="cls-8" d="m32.7,20.69h0c.23.18.26.51.09.73l-1.92,2.44c-.18.23-.51.26-.73.09h0c-.23-.18-.26-.51-.09-.73l1.92-2.44c.18-.23.51-.26.73-.09Z"/>
          <path class="cls-3" d="m24.89,23.21c-1.57,1.99-1.23,4.87.76,6.43,1.99,1.57,4.87,1.23,6.43-.76,1.57-1.99.65-4.13-1.34-5.7-1.99-1.57-4.29-1.96-5.85.02Z"/>
          <path class="cls-2" d="m23.4,24.6c-1.67,2.12-1.31,5.19.81,6.86,2.12,1.67,5.19,1.31,6.86-.81,1.67-2.12.69-4.41-1.43-6.08-2.12-1.67-4.57-2.09-6.24.03Z"/>
          <path class="cls-7" d="m24.14,25.82c-1.03,1.31-.81,3.22.5,4.25,1.31,1.03,3.22.81,4.25-.5,1.03-1.31.81-3.22-.5-4.25-1.31-1.03-3.22-.81-4.25.5Z"/>
          <path class="cls-13" d="m24.55,26.15c-1.03,1.31-.81,3.22.5,4.25,1.31,1.03,3.22.81,4.25-.5,1.03-1.31.81-3.22-.5-4.25-1.31-1.03-3.22-.81-4.25.5Z"/>
          <path class="cls-8" d="m25.42,26.83c-.66.83-.51,2.04.32,2.7.83.66,2.04.51,2.7-.32.66-.83.51-2.04-.32-2.7-.83-.66-2.04-.51-2.7.32Z"/>
          <path class="cls-13" d="m26.27,27.51c-.28.36-.22.89.14,1.17.36.28.89.22,1.17-.14s.22-.89-.14-1.17c-.36-.28-.89-.22-1.17.14Z"/>
        </g>
      </g>
      <g>
        <g id="ShinTwo">
          <path class="cls-9" d="m63.43,33.43h0c-.23,1.26-1.45,2.1-2.71,1.87l-10.18-1.85c-1.26-.23-2.1-1.45-1.87-2.71h0c.23-1.26,1.45-2.1,2.71-1.87l10.18,1.85c1.26.23,2.1,1.45,1.87,2.71Z"/>
        </g>
        <path class="cls-8" d="m61.4,33.6h0c-.05.29-.33.48-.61.42l-10.26-1.87c-.29-.05-.48-.33-.42-.61h0c.05-.29.33-.48.61-.42l10.26,1.87c.29.05.48.33.42.61Z"/>
        <path class="cls-3" d="m54.52,32.34h0c-.05.29-.33.48-.61.42l-1.75-.32c-.29-.05-.48-.33-.42-.61h0c.05-.29.33-.48.61-.42l1.75.32c.29.05.48.33.42.61Z"/>
        <path class="cls-3" d="m59.23,33.23h0c-.05.3-.34.5-.64.45l-.92-.17c-.3-.05-.5-.34-.45-.64h0c.05-.3.34-.5.64-.44l.92.17c.3.05.5.34.44.64Z"/>
      </g>
      <g>
        <path class="cls-7" d="m65.69,26.31c-2.65-1.17-5.58.11-6.75,2.76-1.17,2.65-.14,5.67,2.51,6.84l4.24-9.6Z"/>
        <path class="cls-2" d="m64.87,28.16c-.27-.25-.57-.46-.92-.62-1.72-.76-3.74.02-4.5,1.75-.76,1.72.02,3.74,1.75,4.5.35.16.71.23,1.08.26l2.6-5.89Z"/>
        <path class="cls-13" d="m66.23,27.7l-3.38,7.66c-.24.53-.86.78-1.4.54h-.03c-.53-.25-.78-.88-.54-1.41l3.38-7.66c.24-.53.86-.78,1.4-.54h.03c.53.25.78.88.54,1.41Z"/>
        <path class="cls-3" d="m62.52,26.86c.63.28.91,1.01.63,1.63-.28.63-1.01.91-1.63.63-.63-.28-.91-1.01-.63-1.63s1.01-.91,1.63-.63Z"/>
        <path class="cls-3" d="m59.82,29.9c-.32-.14-.47-.52-.33-.84.14-.32.52-.47.84-.33s.47.52.33.84c-.14.32-.52.47-.84.33Z"/>
        <path class="cls-8" d="m61.81,34.06h0c-.15.35-.56.5-.91.35h0c-.35-.15-.5-.56-.35-.91h0c.15-.35.56-.5.91-.35h0c.35.15.5.56.35.91Z"/>
        <path class="cls-8" d="m64.65,27.62h0c-.15.35-.56.5-.91.35h0c-.35-.15-.5-.56-.35-.91h0c.15-.35.56-.5.91-.35h0c.35.15.5.56.35.91Z"/>
        <path class="cls-8" d="m63.7,29.76h0c-.15.35-.56.5-.91.35h0c-.35-.15-.5-.56-.35-.91h0c.15-.35.56-.5.91-.35h0c.35.15.5.56.35.91Z"/>
        <path class="cls-8" d="m62.75,31.91h0c-.15.35-.56.5-.91.35h0c-.35-.15-.5-.56-.35-.91h0c.15-.35.56-.5.91-.35h0c.35.15.5.56.35.91Z"/>
      </g>
      <g>
        <g>
          <path class="cls-9" d="m39.34,19.54l-.98-2.06c-.24-.5-.84-.71-1.33-.47h0c-.5.24-.71.84-.47,1.33l.98,2.06c.24.5.84.71,1.33.47h0c.5-.24.71-.84.47-1.33Z"/>
          <path class="cls-9" d="m46.68,16.04l-.98-2.06c-.24-.5-.84-.71-1.33-.47h0c-.5.24-.71.84-.47,1.33l.98,2.06c.24.5.84.71,1.33.47h0c.5-.24.71-.84.47-1.33Z"/>
          <path class="cls-8" d="m45.58,13.75h0c-.18-.37-.62-.53-.99-.35l-7.8,3.71c-.37.18-.53.62-.35.99h0c.18.37.62.53.99.35l7.8-3.71c.37-.18.53-.62.35-.99Z"/>
          <path class="cls-11" d="m40.22,16.31h0c-.18-.37-.62-.53-.99-.35l-1.13.54c-.37.18-.53.62-.35.99h0c.18.37.62.53.99.35l1.13-.54c.37-.18.53-.62.35-.99Z"/>
          <path class="cls-11" d="m43.57,14.71h0c-.18-.37-.62-.53-.99-.35l-.33.16c-.37.18-.53.62-.35.99h0c.18.37.62.53.99.35l.33-.16c.37-.18.53-.62.35-.99Z"/>
        </g>
        <path class="cls-7" d="m49.53,16.58h0c.67,1.41.07,3.11-1.34,3.78l-7.79,3.71c-1.41.67-3.11.07-3.78-1.34h0c-.67-1.41-.07-3.11,1.34-3.78l7.79-3.71c1.41-.67,3.11-.07,3.78,1.34Z"/>
        <path class="cls-2" d="m51.06,17.88h0c.89,1.87.09,4.12-1.78,5.01l-7.81,3.72c-1.87.89-4.12.09-5.01-1.78h0c-.89-1.87-.09-4.12,1.78-5.01l7.81-3.72c1.87-.89,4.12-.09,5.01,1.78Z"/>
        <path class="cls-13" d="m51.71,19.25h0c.89,1.87.09,4.12-1.78,5.01l-7.81,3.72c-1.87.89-4.12.09-5.01-1.78h0c-.89-1.87-.09-4.12,1.78-5.01l7.81-3.72c1.87-.89,4.12-.09,5.01,1.78Z"/>
        <path class="cls-8" d="m50.85,21.57h0c.18.37.02.82-.35.99l-5.72,2.72c-.37.18-.82.02-.99-.35h0c-.18-.37-.02-.82.35-.99l5.72-2.72c.37-.18.82-.02.99.35Z"/>
        <path class="cls-11" d="m46.26,23.76h0c.18.37.02.82-.35.99l-1.13.54c-.37.18-.82.02-.99-.35h0c-.18-.37-.02-.82.35-.99l1.13-.54c.37-.18.82-.02.99.35Z"/>
        <path class="cls-11" d="m49.61,22.16h0c.18.37.02.82-.35.99l-.33.16c-.37.18-.82.02-.99-.35h0c-.18-.37-.02-.82.35-.99l.33-.16c.37-.18.82-.02.99.35Z"/>
        <path class="cls-8" d="m49.03,18.49h0c.18.37.02.82-.35.99l-5.46,2.6c-.37.18-.82.02-.99-.35h0c-.18-.37-.02-.82.35-.99l5.46-2.6c.37-.18.82-.02.99.35Z"/>
        <path class="cls-11" d="m46,19.94h0c.18.37.02.82-.35.99l-1.13.54c-.37.18-.82.02-.99-.35h0c-.18-.37-.02-.82.35-.99l1.13-.54c.37-.18.82-.02.99.35Z"/>
        <path class="cls-11" d="m48.51,18.74h0c.18.37.02.82-.35.99l-.33.16c-.37.18-.82.02-.99-.35h0c-.18-.37-.02-.82.35-.99l.33-.16c.37-.18.82-.02.99.35Z"/>
        <path class="cls-3" d="m37.59,20.51c-.31.15-.68.02-.83-.29-.15-.31-.02-.68.29-.83.31-.15.68-.02.83.29.15.31.02.68-.29.83Z"/>
        <path class="cls-8" d="m39.19,22.54c-1.2.57-1.71,2.01-1.14,3.21.57,1.2,2.01,1.71,3.21,1.14,1.2-.57,1.71-2.01,1.14-3.21-.57-1.2-2.01-1.71-3.21-1.14Z"/>
        <path class="cls-13" d="m39.67,23.55c-.65.31-.92,1.08-.61,1.73.31.65,1.08.92,1.73.61.65-.31.92-1.08.61-1.73-.31-.65-1.08-.92-1.73-.61Z"/>
        <path class="cls-3" d="m46.74,16.15c-.31.15-.68.02-.83-.29-.15-.31-.02-.68.29-.83s.68-.02.83.29c.15.31.02.68-.29.83Z"/>
      </g>
      <g>
        <g id="ShinTwo-2" data-name="ShinTwo">
          <path class="cls-13" d="m60.59,15.24h0c.51,1.17-.02,2.55-1.2,3.07l-9.47,4.16c-1.17.51-2.55-.02-3.07-1.2h0c-.51-1.17.02-2.55,1.2-3.07l9.47-4.16c1.17-.51,2.55.02,3.07,1.2Z"/>
        </g>
        <path class="cls-12" d="m48.54,19.29c-.57.25-.83.92-.58,1.49.25.57.92.83,1.49.58.57-.25.83-.92.58-1.49-.25-.57-.92-.83-1.49-.58Z"/>
      </g>
      <g>
        <path class="cls-7" d="m58.36,10.35c-2.43,1.58-2.95,4.73-1.37,7.16,1.58,2.43,4.68,3.22,7.1,1.63l-5.73-8.79Z"/>
        <path class="cls-2" d="m59.47,12.05c-.35.09-.7.22-1.02.43-1.58,1.03-2.02,3.14-.99,4.72,1.03,1.58,3.14,2.02,4.72.99.32-.21.58-.47.81-.76l-3.52-5.39Z"/>
        <path class="cls-13" d="m61.2,9.51h.03c.59,0,1.06.48,1.06,1.06v8.38c0,.59-.48,1.06-1.06,1.06h-.03c-.59,0-1.06-.48-1.06-1.06v-8.37c0-.59.48-1.06,1.06-1.06Z" transform="translate(1.88 35.84) rotate(-33.11)"/>
        <path class="cls-3" d="m57.1,13.31c.57-.37,1.34-.21,1.71.36.37.57.21,1.34-.36,1.71-.57.37-1.34.21-1.71-.36-.37-.57-.21-1.34.36-1.71Z"/>
        <path class="cls-3" d="m58.18,17.23c-.29.19-.69.11-.88-.19-.19-.3-.11-.69.19-.88.29-.19.69-.11.88.19s.11.69-.19.88Z"/>
        <path class="cls-8" d="m62.74,17.84h0c.21.32.12.74-.2.95h0c-.32.21-.74.12-.95-.2h0c-.21-.32-.12-.74.2-.95h0c.32-.21.74-.12.95.2Z"/>
        <path class="cls-8" d="m58.89,11.94h0c.21.32.12.74-.2.95h0c-.32.21-.74.12-.95-.2h0c-.21-.32-.12-.74.2-.95h0c.32-.21.74-.12.95.2Z"/>
        <path class="cls-8" d="m60.18,13.9h0c.21.32.12.74-.2.95h0c-.32.21-.74.12-.95-.2h0c-.21-.32-.12-.74.2-.95h0c.32-.21.74-.12.95.2Z"/>
        <path class="cls-8" d="m61.46,15.87h0c.21.32.12.74-.2.95h0c-.32.21-.74.12-.95-.2h0c-.21-.32-.12-.74.2-.95h0c.32-.21.74-.12.95.2Z"/>
      </g>
      <g>
        <path class="cls-13" d="m44.78,26.27h0c.16,4.59-3.47,8.48-8.07,8.64l-6.64.23c-2.6.09-4.8-1.97-4.89-4.57l-.25-7.24c-.09-2.6,1.97-4.8,4.57-4.89l6.64-.23c4.59-.16,8.48,3.47,8.64,8.07Z"/>
        <path class="cls-8" d="m36.74,28.3h0c.02.71-.54,1.31-1.25,1.34l-4.03.14c-.71.02-1.31-.54-1.34-1.25h0c-.02-.71.54-1.31,1.25-1.34l4.03-.14c.71-.02,1.31.54,1.34,1.25Z"/>
        <path class="cls-8" d="m36.53,21.95h0c.02.71-.54,1.31-1.25,1.34l-4.03.14c-.71.02-1.31-.54-1.34-1.25h0c-.02-.71.54-1.31,1.25-1.34l4.03-.14c.71-.02,1.31.54,1.34,1.25Z"/>
        <path class="cls-2" d="m32.58,27.74l.1,2.99c.04,1.07-.81,1.97-1.87,2.01h0c-2.21.08-4.09-1.67-4.16-3.89l-.03-.91c-.04-1.07.81-1.97,1.87-2.01l2.09-.07c1.07-.04,1.97.81,2.01,1.87Z"/>
        <path class="cls-2" d="m32.3,19.75l.1,2.99c.04,1.07-.81,1.97-1.87,2.01l-2.09.07c-1.07.04-1.97-.81-2.01-1.87l-.05-1.57c-.06-1.85,1.4-3.41,3.25-3.48l.66-.02c1.07-.04,1.97.81,2.01,1.87Z"/>
        <path class="cls-7" d="m31.41,21.12l-2.68,2.87c-.21.22-.56.23-.78.03h0c-.22-.21-.23-.56-.03-.78l2.68-2.87c.21-.22.56-.23.78-.03h0c.22.21.23.56.03.78Z"/>
        <path class="cls-7" d="m29.43,19.88l-1.19,1.27c-.21.22-.56.23-.78.03h0c-.22-.21-.23-.56-.03-.78l1.19-1.27c.21-.22.56-.23.78-.03h0c.22.21.23.56.03.78Z"/>
        <path class="cls-7" d="m31.68,28.93l-2.06,2.21c-.21.22-.56.23-.78.03h0c-.22-.21-.23-.56-.03-.78l2.06-2.21c.21-.22.56-.23.78-.03h0c.22.21.23.56.03.78Z"/>
        <path class="cls-7" d="m29.69,27.69l-1.19,1.27c-.21.22-.56.23-.78.03h0c-.22-.21-.23-.56-.03-.78l1.19-1.27c.21-.22.56-.23.78-.03h0c.22.21.23.56.03.78Z"/>
        <path class="cls-2" d="m36.94,20.61l.33,9.76c.02.48-.36.89-.84.9h0c-.48.02-.89-.36-.9-.84l-.33-9.76c-.02-.48.36-.89.84-.9h0c.48-.02.89.36.9.84Z"/>
        <path class="cls-8" d="m39.29,28.49h0c.01.41-.31.76-.72.77l-1.95.07c-.41.01-.76-.31-.77-.72h0c-.01-.41.31-.76.72-.77l1.95-.07c.41-.01.76.31.77.72Z"/>
        <path class="cls-8" d="m39.09,22.66h0c.01.41-.31.76-.72.77l-1.95.07c-.41.01-.76-.31-.77-.72h0c-.01-.41.31-.76.72-.77l1.95-.07c.41-.01.76.31.77.72Z"/>
        <path class="cls-8" d="m41.67,28.41c.62-.02,1.14.46,1.16,1.08.02.62-.46,1.14-1.08,1.16-.62.02-1.14-.46-1.16-1.08-.02-.62.46-1.14,1.08-1.16Z"/>
        <path class="cls-8" d="m41.01,20.88c.4-.01.73.3.74.7s-.3.73-.7.74c-.4.01-.73-.3-.74-.7-.01-.4.3-.73.7-.74Z"/>
        <path class="cls-3" d="m29.15,30.14c.36-.01.67.27.68.63.01.36-.27.67-.63.68s-.67-.27-.68-.63c-.01-.36.27-.67.63-.68Z"/>
        <path class="cls-3" d="m28.08,27.9c.36-.01.66.27.67.62.01.36-.27.66-.62.67-.36.01-.66-.27-.67-.62-.01-.36.27-.66.62-.67Z"/>
        <path class="cls-2" d="m41.23,22.13c-1.47.05-2.62,1.55-2.55,3.36s1.3,3.23,2.78,3.18c1.47-.05,2.62-1.55,2.55-3.36s-1.3-3.23-2.78-3.18Z"/>
        <path class="cls-3" d="m28.21,23c.36-.01.67.27.68.63.01.36-.27.67-.63.68s-.67-.27-.68-.63c-.01-.36.27-.67.63-.68Z"/>
        <path class="cls-3" d="m27.82,20.13c.36-.01.66.27.67.62.01.36-.27.66-.62.67-.36.01-.66-.27-.67-.62-.01-.36.27-.66.62-.67Z"/>
        <path class="cls-2" d="m39.49,19.78l.43,12.56c.01.36-.27.66-.63.67h0c-.36.01-.66-.27-.67-.63l-.43-12.56c-.01-.36.27-.66.63-.67h0c.36-.01.66.27.67.63Z"/>
        <path class="cls-7" d="m39.58,22.5l.08,2.25c.01.36-.27.66-.63.67h0c-.36.01-.66-.27-.67-.63l-.08-2.25c-.01-.36.27-.66.63-.67h0c.36-.01.66.27.67.63Z"/>
        <path class="cls-7" d="m39.8,28.8l.02.53c.01.36-.27.66-.63.67h0c-.36.01-.66-.27-.67-.63l-.02-.53c-.01-.36.27-.66.63-.67h0c.36-.01.66.27.67.63Z"/>
        <path class="cls-3" d="m38.91,21.87c.36-.01.66.27.67.63.01.36-.27.66-.63.67-.36.01-.66-.27-.67-.63-.01-.36.27-.66.63-.67Z"/>
        <path class="cls-3" d="m39.12,27.99c.36-.01.66.27.67.63.01.36-.27.66-.63.67-.36.01-.66-.27-.67-.63-.01-.36.27-.66.63-.67Z"/>
        <path class="cls-7" d="m42.19,23.83c-.71.02-1.26.78-1.23,1.68.03.91.63,1.62,1.34,1.6s1.26-.78,1.23-1.68c-.03-.91-.63-1.62-1.34-1.6Z"/>
        <path class="cls-7" d="m40.89,23.58c.28,0,.51.21.52.49s-.21.51-.49.52-.51-.21-.52-.49c0-.28.21-.51.49-.52Z"/>
      </g>
      <g>
        <path class="cls-13" d="m10.14,30.54s-1.3,1.44.73,3.79c.18.2.52.15.6-.11.2-.66.81-1.73,2.62-2.77l-3.95-.92Z"/>
        <path class="cls-13" d="m12.01,24.21s-.97-1.68-3.83-.47c-.25.11-.3.45-.08.6.56.39,1.39,1.3,1.83,3.35l2.09-3.47Z"/>
        <path class="cls-13" d="m10.04,31.45s-.37-7.55-1.66-10.14c-.18-.35.04-.77.43-.8,1.19-.1,3.23-.1,4.14.95l-2.91,9.99Z"/>
        <path class="cls-6" d="m22.28,27.1h0c.1,3.06-2.31,5.64-5.37,5.74l-2.97.1c-1.87.06-3.44-1.41-3.51-3.28l-.15-4.54c-.06-1.87,1.41-3.44,3.28-3.51l2.75-.09c3.17-.11,5.86,2.4,5.97,5.57Z"/>
        <path class="cls-13" d="m17.59,33.04h0c.03.83-.63,1.53-1.45,1.56l-2.48.08c-.83.03-1.53-.63-1.56-1.45h0c-.03-.83.63-1.53,1.45-1.56l2.48-.08c.83-.03,1.53.63,1.56,1.45Z"/>
        <path class="cls-1" d="m15.4,24.2c-2,.07-3.57,1.75-3.5,3.75.07,2,1.75,3.57,3.75,3.5s3.57-1.75,3.5-3.75c-.07-2-1.75-3.57-3.75-3.5Z"/>
        <path class="cls-13" d="m13.47,22.68l.29,8.64c.03,1.03-.78,1.89-1.8,1.93h0c-1.03.03-1.89-.78-1.93-1.8l-.29-8.64c-.03-1.03.78-1.89,1.8-1.93h0c1.03-.03,1.89.78,1.93,1.8Z"/>
        <g>
          <path class="cls-6" d="m15.06,30.81c.85-.03,1.56.49,1.59,1.34.03.85-.63,1.71-1.48,1.74-.85.03-1.56-.64-1.59-1.49-.03-.85.64-1.56,1.49-1.59Z"/>
          <path class="cls-10" d="m15.08,31.55c.44-.01.81.33.82.77.01.44-.33.81-.77.82-.44.01-.81-.33-.82-.77s.33-.81.77-.82Z"/>
        </g>
        <path class="cls-10" d="m18.72,25.42h0c.02.62-.47,1.14-1.09,1.16l-1.11.04c-.62.02-1.14-.47-1.16-1.09h0c-.02-.62.47-1.14,1.09-1.16l1.11-.04c.62-.02,1.14.47,1.16,1.09Z"/>
        <path class="cls-15" d="m11.74,22.63l.13,3.73c.01.34-.26.64-.61.65h0c-.34.01-.64-.26-.65-.61l-.13-3.73c-.01-.34.26-.64.61-.65h0c.34-.01.64.26.65.61Z"/>
        <path class="cls-3" d="m11.12,23.02c-.35.01-.62.3-.61.65.01.35.3.62.65.61.35-.01.62-.3.61-.65s-.3-.62-.65-.61Z"/>
        <path class="cls-15" d="m11.96,29.04l.04,1.16c.01.34-.26.64-.61.65h0c-.34.01-.64-.26-.65-.61l-.04-1.16c-.01-.34.26-.64.61-.65h0c.34-.01.64.26.65.61Z"/>
        <g>
          <path class="cls-2" d="m17.82,22.79l-.99,7.1c-.15,1.08-1.15,1.83-2.23,1.68h0c-1.08-.15-1.83-1.15-1.68-2.23l.99-7.1c.15-1.08,1.15-1.83,2.23-1.68h0c1.08.15,1.83,1.15,1.68,2.23Z"/>
          <path class="cls-7" d="m16.28,28.81c-.1.7-.74,1.18-1.44,1.09-.7-.1-1.18-.74-1.09-1.44l.85-6.11c.1-.7.74-1.18,1.44-1.09.7.1,1.18.74,1.09,1.44l-.85,6.11Z"/>
        </g>
        <path class="cls-13" d="m25.62,27.04c-.12-3.66-2.94-6.6-6.48-6.98-.55-.06-1.02.39-1,.94l.43,12.57c.02.55.52.97,1.07.87,3.51-.62,6.11-3.74,5.99-7.41Z"/>
        <path class="cls-3" d="m23.66,25.98c-.07-2.18-1.75-3.93-3.86-4.16-.33-.04-.61.23-.6.56l.26,7.49c.01.33.31.58.64.52,2.09-.37,3.64-2.23,3.57-4.42Z"/>
        <path class="cls-8" d="m24.24,25.96c-.07-2.18-1.75-3.93-3.86-4.16-.33-.04-.61.23-.6.56l.26,7.49c.01.33.31.58.64.52,2.09-.37,3.64-2.23,3.57-4.42Z"/>
        <path class="cls-13" d="m21.09,27.49c.25,0,.46.19.47.44,0,.25-.19.46-.44.47-.25,0-.46-.19-.47-.44s.19-.46.44-.47Z"/>
        <path class="cls-13" d="m21.05,26.14c.25,0,.46.19.47.44s-.19.46-.44.47-.46-.19-.47-.44c0-.25.19-.46.44-.47Z"/>
        <path class="cls-13" d="m21,24.78c.25,0,.46.19.47.44,0,.25-.19.46-.44.47-.25,0-.46-.19-.47-.44,0-.25.19-.46.44-.47Z"/>
        <path class="cls-13" d="m20.96,23.43c.25,0,.46.19.47.44,0,.25-.19.46-.44.47s-.46-.19-.47-.44c0-.25.19-.46.44-.47Z"/>
        <path class="cls-13" d="m22.42,26.09c.25,0,.46.19.47.44,0,.25-.19.46-.44.47-.25,0-.46-.19-.47-.44s.19-.46.44-.47Z"/>
        <path class="cls-13" d="m22.37,24.74c.25,0,.46.19.47.44s-.19.46-.44.47-.46-.19-.47-.44.19-.46.44-.47Z"/>
        <path class="cls-8" d="m20.32,31.84l.04,1.1c0,.22-.17.4-.38.41h0c-.22,0-.4-.17-.41-.38l-.04-1.1c0-.22.17-.4.38-.41h0c.22,0,.4.17.41.38Z"/>
        <path class="cls-8" d="m22.13,31.49v.39c.02.25-.17.46-.42.47h0c-.25,0-.46-.19-.47-.44v-.39c-.02-.25.17-.46.42-.47h0c.25,0,.46.19.47.44Z"/>
        <polygon class="cls-13" points="12.7 28.68 16.3 28.11 15.42 24.75 17.26 23.44 14.57 24.33 15.37 27.39 12.21 27.34 12.7 28.68"/>
      </g>
      <path class="cls-5" d="m5.73,30.73v3.23c0,1.03.85,1.88,1.88,1.88h0c1.03,0,1.88-.85,1.88-1.88v-3.23c0-1.03-.85-1.88-1.88-1.88h0c-1.03,0-1.88.85-1.88,1.88Z"/>
      <g>
        <path class="cls-9" d="m54.05,31.81h0c.37-2.03-.99-4-3.02-4.37l-8.51-1.55c-2.03-.37-4,.99-4.37,3.02h0c-.37,2.03.99,4,3.02,4.37l8.51,1.55c2.03.37,4-.99,4.37-3.02Z"/>
        <path class="cls-2" d="m53.66,33.89s.02-.07.03-.11c.37-2.03-.99-4-3.02-4.37l-8.51-1.55c-2.03-.37-4,.99-4.37,3.02-.2,1.11.12,2.19.78,3.01h15.09Z"/>
        <path class="cls-3" d="m52.84,33.64c.02-1.36-.94-2.59-2.32-2.84l-8.49-1.55c-1.54-.28-3.02.75-3.3,2.28-.14.76.04,1.51.45,2.1h13.66Z"/>
        <path class="cls-7" d="m52.64,34.03c-.18-1.16-1.07-2.15-2.28-2.37l-8.49-1.55c-1.54-.28-3.02.75-3.3,2.28-.1.57-.03,1.14.19,1.63h13.89Z"/>
        <path class="cls-9" d="m42.75,30.58l.41-2.25c.1-.54-.26-1.06-.8-1.16h0c-.54-.1-1.06.26-1.16.8l-.41,2.25c-.1.54.26,1.06.8,1.16h0c.54.1,1.06-.26,1.16-.8Z"/>
        <path class="cls-9" d="m50.74,32.04l.41-2.25c.1-.54-.26-1.06-.8-1.16h0c-.54-.1-1.06.26-1.16.8l-.41,2.25c-.1.54.26,1.06.8,1.16h0c.54.1,1.06-.26,1.16-.8Z"/>
        <path class="cls-8" d="m51.2,29.54h0c.07-.4-.2-.79-.6-.87l-8.49-1.55c-.4-.07-.79.2-.87.6h0c-.07.4.2.79.6.87l8.49,1.55c.4.07.79-.2.87-.6Z"/>
        <path class="cls-11" d="m45.35,28.47h0c.07-.4-.2-.79-.6-.87l-1.23-.22c-.4-.07-.79.2-.87.6h0c-.07.4.2.79.6.87l1.23.22c.4.07.79-.2.87-.6Z"/>
        <path class="cls-11" d="m49,29.14h0c.07-.4-.2-.79-.6-.87l-.36-.07c-.4-.07-.79.2-.87.6h0c-.07.4.2.79.6.87l.36.07c.4.07.79-.2.87-.6Z"/>
        <path class="cls-2" d="m45.5,31.39h0c-.11.08-.14.23-.06.35l1.53,2.21c.08.11.23.14.35.06h0c.11-.08.14-.23.06-.35l-1.53-2.21c-.08-.11-.23-.14-.35-.06Z"/>
      </g>
      <g>
        <path class="cls-13" d="m25.75,15.87h0c-.21.5.03,1.07.52,1.28l3.03,1.27c.5.21,1.07-.03,1.28-.52h0c.21-.5-.03-1.07-.52-1.28l-3.03-1.27c-.5-.21-1.07.03-1.28.52Z"/>
        <path class="cls-13" d="m29.45,14.51h0c-.5-.21-1.07.03-1.28.52l-1.27,3.03c-.21.5.03,1.07.52,1.28h0c.5.21,1.07-.03,1.28-.52l1.27-3.03c.21-.5-.03-1.07-.52-1.28Z"/>
        <path class="cls-4" d="m30.86,4.06l-1.98,4.75c-.34.82.05,1.78.87,2.13h0c.82.34,1.78-.05,2.13-.87l1.98-4.75c.34-.82-.05-1.78-.87-2.13h0c-.82-.34-1.78.05-2.13.87Z"/>
        <path class="cls-3" d="m29.73,6.78l-.21.51c-.11.27.02.58.28.69h0c.27.11.58-.02.69-.28l.21-.51c.11-.27-.02-.58-.28-.69h0c-.27-.11-.58.02-.69.28Z"/>
        <path class="cls-3" d="m30.26,5.51h0c-.11.27.02.58.28.69h0c.27.11.58-.02.69-.28h0c.11-.27-.02-.58-.28-.69h0c-.27-.11-.58.02-.69.28Z"/>
        <path class="cls-13" d="m32.63,2.55l-3.5,8.37c-.3.71.04,1.54.75,1.84h0c.71.3,1.54-.04,1.84-.75l3.5-8.37c.3-.71-.04-1.54-.75-1.84h0c-.71-.3-1.54.04-1.84.75Z"/>
        <path class="cls-13" d="m30.62,10.1h0c-.22.53-.84.79-1.38.57h0c-.53-.22-.79-.84-.57-1.38h0c.22-.53.84-.79,1.38-.57h0c.53.22.79.84.57,1.38Z"/>
        <path class="cls-13" d="m33.17,4h0c-.22.53-.84.79-1.38.57h0c-.53-.22-.79-.84-.57-1.38h0c.22-.53.84-.79,1.38-.57h0c.53.22.79.84.57,1.38Z"/>
        <path class="cls-13" d="m39.95,16.77l-5.33,12.76c-.51,1.23-1.94,1.82-3.17,1.3l-2.63-1.1c-2.68-1.12-3.96-4.23-2.84-6.91l4.23-10.12c1.12-2.68,4.23-3.96,6.91-2.84h0c2.68,1.12,3.96,4.23,2.84,6.91Z"/>
        <path class="cls-13" d="m35.59,1.61h0c-.36.86.05,1.85.91,2.21l3.83,1.6c.86.36,1.85-.05,2.21-.91h0c.36-.86-.05-1.85-.91-2.21l-3.83-1.6c-.86-.36-1.85.05-2.21.91Z"/>
        <path class="cls-3" d="m42.1,4.99l-7.62,18.25-4.65-1.94c-1.68-.7-2.47-2.63-1.77-4.3l6.04-14.46c.18-.42.66-.62,1.08-.44l6.92,2.89Z"/>
        <path class="cls-13" d="m43.19,5.17l-7.45,17.84-4.65-1.94c-1.68-.7-2.47-2.63-1.77-4.3l5.39-12.92c.44-1.04,1.63-1.53,2.68-1.1l5.8,2.42Z"/>
        <path class="cls-7" d="m42.93,5.08l-5.6,13.4-4.65-1.94c-1.68-.7-2.47-2.63-1.77-4.3l4.01-9.6c.18-.42.66-.62,1.08-.44l6.92,2.89Z"/>
        <path class="cls-13" d="m40.38,6.54l-2.6,6.22c-.49,1.18.07,2.55,1.25,3.04h0c1.18.49,2.55-.07,3.04-1.25l2.6-6.22c.49-1.18-.07-2.55-1.25-3.04h0c-1.18-.49-2.55.07-3.04,1.25Z"/>
        <path class="cls-13" d="m31.01,16.41h0c-1.22,1.47-1.01,3.66.45,4.87l2.37,1.97c1.47,1.22,3.66,1.01,4.87-.45h0c1.22-1.47,1.01-3.66-.45-4.87l-2.37-1.97c-1.47-1.22-3.66-1.01-4.87.45Z"/>
        <path class="cls-13" d="m39.73,14.45l-2.26,5.41c-.84,2-3.16,2.96-5.16,2.12h0c-2-.84-2.96-3.16-2.12-5.16l2.26-5.41c.84-2,3.16-2.96,5.16-2.12h0c2,.84,2.96,3.16,2.12,5.16Z"/>
        <path class="cls-8" d="m38.54,13.9l-.88,2.1c-.25.61-.96.9-1.56.64h0c-.61-.25-.9-.96-.64-1.56l.88-2.1c.25-.61.96-.9,1.56-.64h0c.61.25.9.96.64,1.56Z"/>
        <path class="cls-13" d="m30.5,17.64h0c-1.22,1.47-1.01,3.66.45,4.87l2.37,1.97c1.47,1.22,3.66,1.01,4.87-.45h0c1.22-1.47,1.01-3.66-.45-4.87l-2.37-1.97c-1.47-1.22-3.66-1.01-4.87.45Z"/>
        <path class="cls-8" d="m31.32,18.48h0c-.82.99-.57,2.56.55,3.49l1.81,1.51c1.12.93,2.71.88,3.53-.1h0c.82-.99.57-2.56-.55-3.49l-1.81-1.51c-1.12-.93-2.71-.88-3.53.11Z"/>
        <path class="cls-3" d="m34.35,23.76l-1.81-1.51c-1.12-.93-1.37-2.5-.55-3.49.58-.7,1.55-.92,2.47-.66-1.07-.63-2.4-.49-3.13.38-.82.99-.57,2.56.55,3.49l1.81,1.51c.33.27.69.45,1.06.55-.14-.08-.27-.17-.4-.28Z"/>
        <path class="cls-13" d="m33.5,19.11c-.44-.18-.95.02-1.14.47s.02.95.47,1.14.95-.02,1.14-.47-.02-.95-.47-1.14Z"/>
        <path class="cls-13" d="m35.91,21.35c-.38-.16-.82.02-.97.4-.16.38.02.82.4.97s.82-.02.97-.4-.02-.82-.4-.97Z"/>
        <path class="cls-3" d="m35.69,15.22h0c-.2.47.03,1.01.49,1.2h0c.47.2,1.01-.03,1.2-.49h0c.2-.47-.03-1.01-.49-1.2h0c-.47-.2-1.01.03-1.2.49Z"/>
        <g>
          <path class="cls-7" d="m41.17,7.43l-1.77,4.24c-.67,1.6.09,3.46,1.69,4.12h0c1.6.67,3.45-.09,4.12-1.69l1.33-3.19c.67-1.6-.09-3.45-1.69-4.12l-1.05-.44c-1.02-.43-2.21.06-2.64,1.08Z"/>
          <path class="cls-2" d="m41.72,9.38l-.98,2.35c-.4.96.06,2.07,1.02,2.47h0c.96.4,2.07-.06,2.47-1.02l.98-2.35c.4-.96-.06-2.07-1.02-2.47h0c-.96-.4-2.07.06-2.47,1.02Z"/>
          <path class="cls-3" d="m42.77,8.16c-.64-.27-1.37.03-1.64.67-.27.64.03,1.37.67,1.64.64.27,1.37-.03,1.64-.67.27-.64-.03-1.37-.67-1.64Z"/>
          <path class="cls-3" d="m43.19,12.66c-.44-.18-.95.02-1.13.46-.18.44.02.95.46,1.13.44.18.95-.02,1.13-.46.18-.44-.02-.95-.46-1.13Z"/>
        </g>
        <path class="cls-8" d="m34.06,12.14l-1.57,3.76c-.11.25.01.55.27.65h0c.25.11.55-.01.65-.27l1.57-3.76c.11-.25-.01-.55-.27-.65h0c-.25-.11-.55.01-.65.27Z"/>
        <path class="cls-8" d="m28.38,26.74h0c-.32.78.05,1.68.82,2l2.08.87c.78.32,1.68-.05,2-.82h0c.32-.78-.05-1.68-.82-2l-2.08-.87c-.78-.32-1.68.05-2,.82Z"/>
        <path class="cls-8" d="m27.09,23.15h0c-.27.65.04,1.41.69,1.68h0c.65.27,1.41-.04,1.68-.69h0c.27-.65-.04-1.41-.69-1.68h0c-.65-.27-1.41.04-1.68.69Z"/>
        <path class="cls-13" d="m37.47.57h0c-.2.47.03,1.02.5,1.21l1.42.59c.47.2,1.02-.03,1.21-.5h0c.2-.47-.03-1.02-.5-1.21l-1.42-.59c-.47-.2-1.02.03-1.21.5Z"/>
        <path class="cls-8" d="m39.76,2.57h0c-.12.28-.45.42-.73.3l-1.64-.68c-.28-.12-.42-.45-.3-.73h0c.12-.28.45-.42.73-.3l1.64.68c.28.12.42.45.3.73Z"/>
        <path class="cls-8" d="m41.23,3.18h0c-.1.23.01.5.25.6h0c.23.1.5-.01.6-.25h0c.1-.23-.01-.5-.25-.6h0c-.23-.1-.5.01-.6.25Z"/>
        <path class="cls-3" d="m38.03,1.24h0c-.15.35.02.75.37.9h0c.35.15.75-.02.9-.37h0c.15-.35-.02-.75-.37-.9h0c-.35-.15-.75.02-.9.37Z"/>
        <g>
          <path class="cls-13" d="m35.12,11.1h0c-.96-.4-1.41-1.52-1.01-2.48l1.23-2.91c.4-.96,1.52-1.41,2.48-1.01h0c.96.4,1.41,1.52,1.01,2.48l-1.23,2.91c-.4.96-1.52,1.41-2.48,1.01Z"/>
          <path class="cls-4" d="m36.07,8.84h0c-.65-.28-.96-1.04-.69-1.69l.41-.96c.28-.65,1.04-.96,1.69-.69h0c.65.28.96,1.04.69,1.69l-.41.96c-.28.65-1.04.96-1.69.69Z"/>
          <path class="cls-3" d="m37.87,6.72c.02-.49-.35-.9-.84-.93s-.9.35-.93.84c-.02.49.35.9.84.93s.9-.35.93-.84Z"/>
          <path class="cls-8" d="m36.05,9.86c.01-.26-.19-.48-.44-.49-.26-.01-.48.19-.49.44-.01.26.19.48.44.49.26.01.48-.19.49-.44Z"/>
        </g>
      </g>
      <g>
        <path class="cls-9" d="m34.44,25l.31.8.04.1,1.04,2.68c.48,1.23,1.87,1.85,3.1,1.37h0c1.23-.48,1.85-1.87,1.37-3.1l-1.04-2.68-.04-.1-.31-.8c-.48-1.23-1.87-1.85-3.1-1.37h0c-1.23.48-1.85,1.87-1.37,3.1Z"/>
        <path class="cls-2" d="m33.71,23.13l.63,1.62c.48,1.23,1.87,1.85,3.1,1.37h0c1.23-.48,1.85-1.87,1.37-3.1l-.63-1.62c-.48-1.23-1.87-1.85-3.1-1.37h0c-1.23.48-1.85,1.87-1.37,3.1Z"/>
      </g>
      <g>
        <path class="cls-7" d="m38.31,15.84l-1.44,3.44c-.37.89-1.41,1.32-2.3.95h0c-.89-.37-1.32-1.41-.95-2.3l1.44-3.44c.37-.89,1.41-1.32,2.3-.95h0c.89.37,1.32,1.41.95,2.3Z"/>
        <path class="cls-7" d="m33.27,18.76l-.13.31c-.87,2.08.12,4.49,2.2,5.35h0c2.08.87,4.49-.12,5.35-2.2l.13-.31c.87-2.08-.12-4.49-2.2-5.35h0c-2.08-.87-4.49.12-5.35,2.2Z"/>
        <path class="cls-2" d="m40.24,21.1h0c-.54,1.29-2.03,1.9-3.32,1.36l-1.31-.55c-1.29-.54-1.9-2.03-1.36-3.32h0c.54-1.29,2.03-1.9,3.32-1.36l1.31.55c1.29.54,1.9,2.03,1.36,3.32Z"/>
        <path class="cls-2" d="m36.97,16.87l-.93,2.22c-.2.47-.74.69-1.21.5h0c-.47-.2-.69-.74-.5-1.21l.93-2.22c.2-.47.74-.69,1.21-.5h0c.47.2.69.74.5,1.21Z"/>
        <path class="cls-3" d="m37.25,19.85h0c-.3.71-1.12,1.05-1.83.75h0c-.71-.3-1.05-1.12-.75-1.83h0c.3-.71,1.12-1.05,1.83-.75h0c.71.3,1.05,1.12.75,1.83Z"/>
        <path class="cls-3" d="m38.31,22.3h0c-.2.48-.76.71-1.23.51h0c-.48-.2-.71-.76-.51-1.23h0c.2-.48.76-.71,1.23-.51h0c.48.2.71.76.51,1.23Z"/>
      </g>
      <g>
        <path id="ArmOne-2" data-name="ArmOne" class="cls-9" d="m40.31,27.13h0c.38,1.26-.35,2.61-1.61,2.98l-10.75,3.21c-1.26.38-2.61-.35-2.98-1.61h0c-.38-1.26.35-2.61,1.61-2.98l10.75-3.21c1.26-.38,2.61.35,2.98,1.61Z"/>
        <path class="cls-13" d="m36.6,28.2h0c.08.28-.08.57-.35.65l-2.97.89c-.28.08-.57-.08-.65-.35h0c-.08-.28.08-.57.35-.65l2.97-.89c.28-.08.57.08.65.35Z"/>
        <path class="cls-3" d="m29.39,25.57c-2.42.72-3.8,3.27-3.08,5.7.72,2.42,3.27,3.8,5.7,3.08,2.42-.72,2.9-3.01,2.18-5.43-.72-2.42-2.38-4.07-4.8-3.35Z"/>
        <path class="cls-2" d="m27.37,25.86c-2.59.77-4.06,3.49-3.28,6.08.77,2.59,3.49,4.06,6.08,3.28,2.59-.77,3.1-3.21,2.33-5.79-.77-2.59-2.54-4.34-5.12-3.57Z"/>
        <path class="cls-7" d="m27.88,27.95c-2.03.6-3.24,2.53-2.72,4.29s2.6,2.71,4.62,2.1,2.49-2.3,1.97-4.07-1.85-2.93-3.87-2.32Z"/>
        <path class="cls-4" d="m36.3,27.2c-.55.16-.87.75-.7,1.3.16.55.75.87,1.3.7.55-.16.87-.75.7-1.3-.16-.55-.75-.87-1.3-.7Z"/>
        <g>
          <path class="cls-2" d="m31.04,30.96h0c-.06.12-.22.17-.34.1l-2.36-1.28c-.12-.06-.17-.22-.1-.34h0c.06-.12.22-.17.34-.1l2.36,1.28c.12.06.17.22.1.34Z"/>
          <path class="cls-2" d="m29.49,32.05h0c-.07.12-.22.17-.34.1l-2.36-1.28c-.12-.06-.17-.22-.1-.34h0c.06-.12.22-.17.34-.1l2.36,1.28c.12.07.17.22.1.34Z"/>
          <path class="cls-2" d="m29.92,33.61h0c-.06.12-.22.17-.34.1l-2.36-1.28c-.12-.06-.17-.22-.1-.34h0c.06-.12.22-.17.34-.1l2.36,1.28c.12.07.17.22.1.34Z"/>
        </g>
        <path class="cls-3" d="m26.35,30.4c.99-.3,2.03.27,2.32,1.26s-.27,2.03-1.26,2.32c-.99.3-2.03-.27-2.32-1.26-.3-.99.27-2.03,1.26-2.32Z"/>
        <path class="cls-3" d="m27.77,28.88c-.33.1-.67-.09-.77-.42-.1-.33.09-.67.42-.77s.67.09.77.42c.1.33-.09.67-.42.77Z"/>
      </g>
      <path class="cls-5" d="m51.07,35.82H1.68c-.93,0-1.68-.76-1.68-1.68h0c0-.93.76-1.68,1.68-1.68h49.38c.93,0,1.68.76,1.68,1.68h0c0,.93-.76,1.68-1.68,1.68Z"/>
      <path class="cls-5" d="m57.07,35.82H7.68c-.93,0-1.68-.76-1.68-1.68h0c0-.93.76-1.68,1.68-1.68h49.38c.93,0,1.68.76,1.68,1.68h0c0,.93-.76,1.68-1.68,1.68Z"/>
    </g>
  </g>
</svg>