<?xml version="1.0" encoding="UTF-8"?>
<svg id="Layer_2" data-name="Layer 2" xmlns="http://www.w3.org/2000/svg" viewBox="0 0 57.1 44.91">
  <defs>
    <style>
      .cls-1 {
        fill: #55236e;
      }

      .cls-2 {
        fill: #a20025;
      }

      .cls-3 {
        fill: #fff;
      }

      .cls-4 {
        fill: #7cff00;
      }

      .cls-5 {
        fill: #ffd285;
      }

      .cls-6 {
        fill: #fd003a;
      }

      .cls-7 {
        fill: #4d4d4d;
      }

      .cls-8 {
        fill: #333;
      }

      .cls-9 {
        fill: #ff6e4c;
      }

      .cls-10 {
        fill: #999;
      }

      .cls-11 {
        fill: #434343;
      }

      .cls-12 {
        fill: #1a1a1a;
      }

      .cls-13 {
        fill: #74001b;
      }

      .cls-14 {
        fill: #666;
      }
    </style>
  </defs>
  <g id="dead">
    <g id="dead4">
      <g>
        <g>
          <path class="cls-12" d="m17.15,13.01l-.05.86v.11s-.3,5.14-.3,5.14c-.07,1.32.94,2.46,2.26,2.53h0c1.32.07,2.46-.94,2.53-2.26l.29-5.14v-.11s.06-.86.06-.86c.07-1.32-.94-2.46-2.26-2.53h0c-1.32-.07-2.46.94-2.53,2.26Z"/>
          <path class="cls-13" d="m17.27,11.01l-.1,1.73c-.07,1.32.94,2.46,2.26,2.53h0c1.32.07,2.46-.94,2.53-2.26l.1-1.73c.07-1.32-.94-2.46-2.26-2.53h0c-1.32-.07-2.46.94-2.53,2.26Z"/>
        </g>
        <g>
          <path id="ArmOne" class="cls-12" d="m19.59,18.17h0c1.28.3,2.09,1.6,1.78,2.88l-2.58,10.93c-.3,1.28-1.6,2.09-2.88,1.78h0c-1.28-.3-2.09-1.6-1.78-2.88l2.58-10.93c.3-1.28,1.6-2.09,2.88-1.78Z"/>
          <path class="cls-7" d="m18.82,21.28h0c.28.07.45.35.39.63l-.71,3.02c-.07.28-.35.45-.63.39h0c-.28-.07-.45-.35-.39-.63l.71-3.02c.07-.28.35-.45.63-.39Z"/>
          <path class="cls-3" d="m12.8,26.86c-.58,2.46.94,4.93,3.4,5.51,2.46.58,4.93-.94,5.51-3.4.58-2.46-1.16-4.02-3.62-4.6-2.46-.58-4.71.03-5.29,2.49Z"/>
          <path class="cls-2" d="m12.04,28.75c-.62,2.63,1.01,5.26,3.63,5.88,2.63.62,5.26-1.01,5.88-3.63s-1.24-4.29-3.86-4.91-5.03.03-5.65,2.66Z"/>
          <path class="cls-6" d="m13.22,29.55c-.38,1.63.62,3.26,2.25,3.64s3.26-.62,3.64-2.25c.38-1.63-.62-3.26-2.25-3.64-1.63-.38-3.26.62-3.64,2.25Z"/>
          <path class="cls-12" d="m13.73,29.67c-.38,1.63.62,3.26,2.25,3.64,1.63.38,3.26-.62,3.64-2.25.38-1.63-.62-3.26-2.25-3.64-1.63-.38-3.26.62-3.64,2.25Z"/>
          <path class="cls-7" d="m14.81,29.92c-.24,1.03.4,2.07,1.43,2.31s2.07-.4,2.31-1.43c.24-1.03-.4-2.07-1.43-2.31-1.03-.24-2.07.4-2.31,1.43Z"/>
          <path class="cls-12" d="m15.87,30.17c-.11.45.17.9.62,1,.45.11.9-.17,1-.62.11-.45-.17-.9-.62-1-.45-.11-.9.17-1,.62Z"/>
        </g>
      </g>
      <g>
        <g>
          <path class="cls-8" d="m28.47,22.12l-1.89-1.28c-.46-.31-1.08-.19-1.39.27h0c-.31.46-.19,1.08.27,1.39l1.89,1.28c.46.31,1.08.19,1.39-.27h0c.31-.46.19-1.08-.27-1.39Z"/>
          <path class="cls-8" d="m33.02,15.39l-1.89-1.28c-.46-.31-1.08-.19-1.39.27h0c-.31.46-.19,1.08.27,1.39l1.89,1.28c.46.31,1.08.19,1.39-.27h0c.31-.46.19-1.08-.27-1.39Z"/>
          <path class="cls-7" d="m30.92,13.97h0c-.34-.23-.81-.14-1.03.2l-4.84,7.15c-.23.34-.14.81.2,1.03h0c.34.23.81.14,1.03-.2l4.84-7.15c.23-.34.14-.81-.2-1.03Z"/>
          <path class="cls-10" d="m27.59,18.89h0c-.34-.23-.81-.14-1.03.2l-.7,1.04c-.23.34-.14.81.2,1.03h0c.34.23.81.14,1.03-.2l.7-1.04c.23-.34.14-.81-.2-1.03Z"/>
          <path class="cls-10" d="m29.67,15.82h0c-.34-.23-.81-.14-1.03.2l-.2.3c-.23.34-.14.81.2,1.03h0c.34.23.81.14,1.03-.2l.2-.3c.23-.34.14-.81-.2-1.03Z"/>
        </g>
        <path class="cls-6" d="m35.75,14.41h0c1.29.87,1.64,2.65.76,3.94l-4.83,7.15c-.87,1.29-2.65,1.64-3.94.76h0c-1.29-.87-1.64-2.65-.76-3.94l4.83-7.15c.87-1.29,2.65-1.64,3.94-.76Z"/>
        <path class="cls-2" d="m37.72,14.75h0c1.71,1.16,2.17,3.51,1.01,5.22l-4.84,7.16c-1.16,1.71-3.51,2.17-5.22,1.01h0c-1.71-1.16-2.17-3.51-1.01-5.22l4.84-7.16c1.16-1.71,3.51-2.17,5.22-1.01Z"/>
        <path class="cls-12" d="m38.99,15.6h0c1.71,1.16,2.17,3.51,1.01,5.22l-4.84,7.16c-1.16,1.71-3.51,2.17-5.22,1.01h0c-1.71-1.16-2.17-3.51-1.01-5.22l4.84-7.16c1.16-1.71,3.51-2.17,5.22-1.01Z"/>
        <path class="cls-7" d="m39.42,18.04h0c.34.23.43.7.2,1.03l-3.55,5.25c-.23.34-.7.43-1.03.2h0c-.34-.23-.43-.7-.2-1.03l3.55-5.25c.23-.34.7-.43,1.03-.2Z"/>
        <path class="cls-10" d="m36.57,22.25h0c.34.23.43.7.2,1.03l-.7,1.04c-.23.34-.7.43-1.03.2h0c-.34-.23-.43-.7-.2-1.03l.7-1.04c.23-.34.7-.43,1.03-.2Z"/>
        <path class="cls-10" d="m38.65,19.18h0c.34.23.43.7.2,1.03l-.2.3c-.23.34-.7.43-1.03.2h0c-.34-.23-.43-.7-.2-1.03l.2-.3c.23-.34.7-.43,1.03-.2Z"/>
        <path class="cls-7" d="m36.29,16.31h0c.34.23.43.7.2,1.03l-3.39,5.01c-.23.34-.7.43-1.03.2h0c-.34-.23-.43-.7-.2-1.03l3.39-5.01c.23-.34.7-.43,1.03-.2Z"/>
        <path class="cls-10" d="m34.41,19.09h0c.34.23.43.7.2,1.03l-.7,1.04c-.23.34-.7.43-1.03.2h0c-.34-.23-.43-.7-.2-1.03l.7-1.04c.23-.34.7-.43,1.03-.2Z"/>
        <path class="cls-10" d="m35.97,16.78h0c.34.23.43.7.2,1.03l-.2.3c-.23.34-.7.43-1.03.2h0c-.34-.23-.43-.7-.2-1.03l.2-.3c.23-.34.7-.43,1.03-.2Z"/>
        <path class="cls-3" d="m27.45,23.85c-.19.28-.58.36-.86.17-.28-.19-.36-.58-.17-.86.19-.28.58-.36.86-.17.28.19.36.58.17.86Z"/>
        <path class="cls-7" d="m29.86,24.79c-.75,1.1-.46,2.6.65,3.35s2.6.46,3.35-.65.46-2.6-.65-3.35c-1.1-.75-2.6-.46-3.35.65Z"/>
        <path class="cls-12" d="m30.79,25.41c-.4.59-.25,1.4.35,1.8.59.4,1.4.25,1.8-.35.4-.59.25-1.4-.35-1.8-.59-.4-1.4-.25-1.8.35Z"/>
        <path class="cls-3" d="m33.13,15.45c-.19.28-.58.36-.86.17-.28-.19-.36-.58-.17-.86.19-.28.58-.36.86-.17.28.19.36.58.17.86Z"/>
      </g>
      <g>
        <g id="ShinTwo">
          <path class="cls-12" d="m44.6,7.65h0c1.04.75,1.27,2.21.52,3.25l-6.06,8.39c-.75,1.04-2.21,1.27-3.25.52h0c-1.04-.75-1.27-2.21-.52-3.25l6.06-8.39c.75-1.04,2.21-1.27,3.25-.52Z"/>
        </g>
        <path class="cls-11" d="m36.27,17.24c-.37.51-.25,1.21.25,1.58s1.21.25,1.58-.25c.37-.51.25-1.21-.25-1.58-.51-.37-1.21-.25-1.58.25Z"/>
      </g>
      <g>
        <g id="ShinTwo-2" data-name="ShinTwo">
          <path class="cls-8" d="m55.67,28.09h0c.2,1.27-.68,2.46-1.95,2.66l-10.22,1.58c-1.27.2-2.46-.68-2.66-1.95h0c-.2-1.27.68-2.46,1.95-2.66l10.22-1.58c1.27-.2,2.46.68,2.66,1.95Z"/>
        </g>
        <path class="cls-7" d="m53.8,28.91h0c.04.29-.15.56-.44.6l-10.3,1.59c-.29.04-.56-.15-.6-.44h0c-.04-.29.15-.56.44-.6l10.3-1.59c.29-.04.56.15.6.44Z"/>
        <path class="cls-3" d="m46.89,29.98h0c.04.29-.15.56-.44.6l-1.76.27c-.29.04-.56-.15-.6-.44h0c-.04-.29.15-.56.44-.6l1.76-.27c.29-.04.56.15.6.44Z"/>
        <path class="cls-3" d="m51.63,29.27h0c.05.3-.16.58-.46.63l-.93.14c-.3.05-.58-.16-.63-.46h0c-.05-.3.16-.58.46-.63l.93-.14c.3-.05.58.16.63.46Z"/>
      </g>
      <g>
        <path class="cls-6" d="m40.21,4.56c-1.29,2.6-.15,5.58,2.45,6.87s5.66.4,6.95-2.2l-9.4-4.67Z"/>
        <path class="cls-2" d="m42.02,5.46c-.26.26-.49.55-.66.89-.84,1.69-.15,3.74,1.54,4.57,1.69.84,3.74.15,4.58-1.54.17-.34.26-.7.31-1.06l-5.76-2.86Z"/>
        <path class="cls-12" d="m41.63,4.08l7.5,3.73c.52.26.74.9.48,1.42v.03c-.27.52-.91.74-1.44.48l-7.5-3.73c-.52-.26-.74-.9-.48-1.42v-.03c.27-.52.91-.74,1.44-.48Z"/>
        <path class="cls-3" d="m40.61,7.75c.3-.61,1.05-.86,1.66-.56.61.3.86,1.05.56,1.66-.3.61-1.05.86-1.66.56-.61-.3-.86-1.05-.56-1.66Z"/>
        <path class="cls-3" d="m43.53,10.58c-.16.32-.54.44-.85.29s-.44-.54-.29-.85c.16-.32.54-.44.85-.29.32.16.44.54.29.85Z"/>
        <path class="cls-7" d="m47.78,8.79h0c.34.17.48.58.31.92h0c-.17.34-.58.48-.92.31h0c-.34-.17-.48-.58-.31-.92h0c.17-.34.58-.48.92-.31Z"/>
        <path class="cls-7" d="m41.47,5.65h0c.34.17.48.58.31.92h0c-.17.34-.58.48-.92.31h0c-.34-.17-.48-.58-.31-.92h0c.17-.34.58-.48.92-.31Z"/>
        <path class="cls-7" d="m43.57,6.7h0c.34.17.48.58.31.92h0c-.17.34-.58.48-.92.31h0c-.34-.17-.48-.58-.31-.92h0c.17-.34.58-.48.92-.31Z"/>
        <path class="cls-7" d="m45.67,7.74h0c.34.17.48.58.31.92h0c-.17.34-.58.48-.92.31h0c-.34-.17-.48-.58-.31-.92h0c.17-.34.58-.48.92-.31Z"/>
      </g>
      <g>
        <path class="cls-6" d="m56.12,22.51c-2.89-.24-5.24,1.93-5.47,4.82s1.72,5.41,4.61,5.64l.86-10.46Z"/>
        <path class="cls-2" d="m55.96,24.53c-.33-.15-.69-.25-1.07-.28-1.88-.15-3.53,1.24-3.68,3.12-.15,1.88,1.24,3.53,3.12,3.68.38.03.75-.02,1.1-.1l.53-6.41Z"/>
        <path class="cls-12" d="m57.09,23.65l-.69,8.35c-.05.58-.56,1.02-1.14.97h-.03c-.58-.05-1.02-.57-.97-1.15l.69-8.35c.05-.58.56-1.02,1.14-.97h.03c.58.05,1.02.57.97,1.15Z"/>
        <path class="cls-3" d="m53.31,24.07c.68.06,1.19.65,1.13,1.34-.06.68-.65,1.19-1.34,1.13-.68-.06-1.19-.65-1.13-1.34.06-.68.65-1.19,1.34-1.13Z"/>
        <path class="cls-3" d="m51.76,27.83c-.35-.03-.61-.34-.58-.69.03-.35.34-.61.69-.58s.61.34.58.69c-.03.35-.34.61-.69.58Z"/>
        <path class="cls-7" d="m54.99,31.11h0c-.03.38-.36.66-.74.63h0c-.38-.03-.66-.36-.63-.74h0c.03-.38.36-.66.74-.63h0c.38.03.66.36.63.74Z"/>
        <path class="cls-7" d="m55.57,24.09h0c-.03.38-.36.66-.74.63h0c-.38-.03-.66-.36-.63-.74h0c.03-.38.36-.66.74-.63h0c.38.03.66.36.63.74Z"/>
        <path class="cls-7" d="m55.38,26.43h0c-.03.38-.36.66-.74.63h0c-.38-.03-.66-.36-.63-.74h0c.03-.38.36-.66.74-.63h0c.38.03.66.36.63.74Z"/>
        <path class="cls-7" d="m55.19,28.77h0c-.03.38-.36.66-.74.63h0c-.38-.03-.66-.36-.63-.74h0c.03-.38.36-.66.74-.63h0c.38.03.66.36.63.74Z"/>
      </g>
      <g>
        <path class="cls-12" d="m20.7,37.87c0,.17-.07.33-.22.43-.2.13-4.84,3.2-7.72,1.26-2.18-1.48-2.61-5.38-1.29-11.6.06-.27.32-.44.59-.38.27.06.44.32.38.59-1.21,5.7-.91,9.36.87,10.57,2.32,1.57,6.56-1.23,6.6-1.26.23-.15.54-.09.69.14.05.08.08.17.08.26Z"/>
        <g>
          <g>
            <path class="cls-12" d="m30.17,41.37l.08,2.28c.02.55.48.98,1.03.97h0c.55-.02.98-.48.97-1.03l-.08-2.28c-.02-.55-.48-.98-1.03-.97h0c-.55.02-.98.48-.97,1.03Z"/>
            <path class="cls-12" d="m22.04,41.65l.08,2.28c.02.55.48.98,1.03.97h0c.55-.02.98-.48.97-1.03l-.08-2.28c-.02-.55-.48-.98-1.03-.97h0c-.55.02-.98.48-.97,1.03Z"/>
            <path class="cls-7" d="m22.13,44.19h0c.01.41.36.73.77.72l8.63-.29c.41-.01.73-.36.72-.77h0c-.01-.41-.36-.73-.77-.72l-8.63.29c-.41.01-.73.36-.72.77Z"/>
            <path class="cls-10" d="m28.07,43.99h0c.01.41.36.73.77.72l1.25-.04c.41-.01.73-.36.72-.77h0c-.01-.41-.36-.73-.77-.72l-1.25.04c-.41.01-.73.36-.72.77Z"/>
            <path class="cls-10" d="m24.36,44.11h0c.01.41.36.73.77.72h.36c.41-.03.73-.37.72-.78h0c-.01-.41-.36-.73-.77-.72h-.36c-.41.03-.73.37-.72.78Z"/>
          </g>
          <path class="cls-12" d="m34.85,34.41h0c-.03-.93-.82-1.67-1.75-1.64l-10.7.36c-2.07.07-3.7,1.82-3.63,3.88h0c.07,2.07,1.82,3.7,3.88,3.63l6.58-.22c3.2-.11,5.73-2.81,5.62-6.01Z"/>
          <path class="cls-3" d="m34.12,37.39h0c-.03-.79-.69-1.41-1.48-1.38l-10.03.34c-1.56.05-2.79,1.37-2.74,2.93h0c.05,1.56,1.37,2.79,2.93,2.74l7.22-.25c2.33-.08,4.18-2.05,4.1-4.39Z"/>
          <path class="cls-14" d="m34.09,36.44h0c-.03-.79-.69-1.41-1.48-1.38l-10.03.34c-1.56.05-2.79,1.37-2.74,2.93h0c.05,1.56,1.37,2.79,2.93,2.74l7.22-.25c2.33-.08,4.18-2.05,4.1-4.39Z"/>
          <path class="cls-3" d="m21.64,38.6c-.34.01-.61.3-.6.64.01.34.3.61.64.6.34-.01.61-.3.6-.64-.01-.34-.3-.61-.64-.6Z"/>
          <path class="cls-3" d="m30.96,37.52c-.83.03-1.48.73-1.45,1.56.03.83.73,1.48,1.56,1.45.83-.03,1.48-.73,1.45-1.56-.03-.83-.73-1.48-1.56-1.45Z"/>
          <path class="cls-12" d="m30.97,37.92c-.83.03-1.48.73-1.45,1.56.03.83.73,1.48,1.56,1.45s1.48-.73,1.45-1.56c-.03-.83-.73-1.48-1.56-1.45Z"/>
          <path class="cls-4" d="m30.99,38.58c-.59.02-1.05.51-1.03,1.1.02.59.51,1.05,1.1,1.03.59-.02,1.05-.51,1.03-1.1-.02-.59-.51-1.05-1.1-1.03Z"/>
          <path class="cls-12" d="m24.61,32.86l.19,5.5c.02.52-.39.96-.91.98h0c-.52.02-.96-.39-.98-.91l-.19-5.5c-.02-.52.39-.96.91-.98h0c.52-.02.96.39.98.91Z"/>
          <path class="cls-12" d="m28.51,32.73l.19,5.5c.02.52-.39.96-.91.98h0c-.52.02-.96-.39-.98-.91l-.19-5.5c-.02-.52.39-.96.91-.98h0c.52-.02.96.39.98.91Z"/>
          <path class="cls-7" d="m27.73,37.6c-.31.01-.55.27-.54.57.01.31.27.55.57.54.31-.01.55-.27.54-.57-.01-.31-.27-.55-.57-.54Z"/>
          <path class="cls-7" d="m23.83,37.73c-.31.01-.55.27-.54.57.01.31.27.55.57.54.31-.01.55-.27.54-.57-.01-.31-.27-.55-.57-.54Z"/>
          <path class="cls-10" d="m23.87,38.78c-.31.01-.55.27-.54.57.01.31.27.55.57.54.31-.01.55-.27.54-.57s-.27-.55-.57-.54Z"/>
          <path class="cls-10" d="m27.77,38.65c-.31.01-.55.27-.54.57.01.31.27.55.57.54.31-.01.55-.27.54-.57-.01-.31-.27-.55-.57-.54Z"/>
        </g>
        <g>
          <path class="cls-12" d="m36.82,28.39h0c.16,4.59-3.47,8.48-8.07,8.64l-6.64.23c-2.6.09-4.8-1.97-4.89-4.57l-.25-7.24c-.09-2.6,1.97-4.8,4.57-4.89l6.64-.23c4.59-.16,8.48,3.47,8.64,8.07Z"/>
          <path class="cls-7" d="m28.78,30.42h0c.02.71-.54,1.31-1.25,1.34l-4.03.14c-.71.02-1.31-.54-1.34-1.25h0c-.02-.71.54-1.31,1.25-1.34l4.03-.14c.71-.02,1.31.54,1.34,1.25Z"/>
          <path class="cls-7" d="m28.56,24.07h0c.02.71-.54,1.31-1.25,1.34l-4.03.14c-.71.02-1.31-.54-1.34-1.25h0c-.02-.71.54-1.31,1.25-1.34l4.03-.14c.71-.02,1.31.54,1.34,1.25Z"/>
          <path class="cls-2" d="m24.62,29.86l.1,2.99c.04,1.07-.81,1.97-1.87,2.01h0c-2.21.08-4.09-1.67-4.16-3.89l-.03-.91c-.04-1.07.81-1.97,1.87-2.01l2.09-.07c1.07-.04,1.97.81,2.01,1.87Z"/>
          <path class="cls-2" d="m24.34,21.87l.1,2.99c.04,1.07-.81,1.97-1.87,2.01l-2.09.07c-1.07.04-1.97-.81-2.01-1.87l-.05-1.57c-.06-1.85,1.4-3.41,3.25-3.48l.66-.02c1.07-.04,1.97.81,2.01,1.87Z"/>
          <path class="cls-6" d="m23.45,23.24l-2.68,2.87c-.21.22-.56.23-.78.03h0c-.22-.21-.23-.56-.03-.78l2.68-2.87c.21-.22.56-.23.78-.03h0c.22.21.23.56.03.78Z"/>
          <path class="cls-6" d="m21.47,22l-1.19,1.27c-.21.22-.56.23-.78.03h0c-.22-.21-.23-.56-.03-.78l1.19-1.27c.21-.22.56-.23.78-.03h0c.22.21.23.56.03.78Z"/>
          <path class="cls-6" d="m23.72,31.04l-2.06,2.21c-.21.22-.56.23-.78.03h0c-.22-.21-.23-.56-.03-.78l2.06-2.21c.21-.22.56-.23.78-.03h0c.22.21.23.56.03.78Z"/>
          <path class="cls-6" d="m21.73,29.8l-1.19,1.27c-.21.22-.56.23-.78.03h0c-.22-.21-.23-.56-.03-.78l1.19-1.27c.21-.22.56-.23.78-.03h0c.22.21.23.56.03.78Z"/>
          <path class="cls-2" d="m28.98,22.72l.33,9.76c.02.48-.36.89-.84.9h0c-.48.02-.89-.36-.9-.84l-.33-9.76c-.02-.48.36-.89.84-.9h0c.48-.02.89.36.9.84Z"/>
          <path class="cls-7" d="m31.33,30.61h0c.01.41-.31.76-.72.77l-1.95.07c-.41.01-.76-.31-.77-.72h0c-.01-.41.31-.76.72-.77l1.95-.07c.41-.01.76.31.77.72Z"/>
          <path class="cls-7" d="m31.13,24.78h0c.01.41-.31.76-.72.77l-1.95.07c-.41.01-.76-.31-.77-.72h0c-.01-.41.31-.76.72-.77l1.95-.07c.41-.01.76.31.77.72Z"/>
          <path class="cls-7" d="m33.71,30.53c.62-.02,1.14.46,1.16,1.08.02.62-.46,1.14-1.08,1.16-.62.02-1.14-.46-1.16-1.08-.02-.62.46-1.14,1.08-1.16Z"/>
          <path class="cls-7" d="m33.05,23c.4-.01.73.3.74.7.01.4-.3.73-.7.74-.4.01-.73-.3-.74-.7-.01-.4.3-.73.7-.74Z"/>
          <path class="cls-3" d="m21.19,32.26c.36-.01.67.27.68.63.01.36-.27.67-.63.68-.36.01-.67-.27-.68-.63s.27-.67.63-.68Z"/>
          <path class="cls-3" d="m20.12,30.02c.36-.01.66.27.67.62.01.36-.27.66-.62.67-.36.01-.66-.27-.67-.62-.01-.36.27-.66.62-.67Z"/>
          <path class="cls-2" d="m33.27,24.24c-1.47.05-2.62,1.56-2.55,3.36.06,1.81,1.3,3.23,2.78,3.18,1.47-.05,2.62-1.55,2.55-3.36s-1.3-3.23-2.78-3.18Z"/>
          <path class="cls-3" d="m20.25,25.11c.36-.01.67.27.68.63.01.36-.27.67-.63.68-.36.01-.67-.27-.68-.63-.01-.36.27-.67.63-.68Z"/>
          <path class="cls-3" d="m19.85,22.25c.36-.01.66.27.67.62.01.36-.27.66-.62.67-.36.01-.66-.27-.67-.62-.01-.36.27-.66.62-.67Z"/>
          <path class="cls-2" d="m31.53,21.9l.43,12.56c.01.36-.27.66-.63.67h0c-.36.01-.66-.27-.67-.63l-.43-12.56c-.01-.36.27-.66.63-.67h0c.36-.01.66.27.67.63Z"/>
          <path class="cls-6" d="m31.62,24.61l.08,2.25c.01.36-.27.66-.63.67h0c-.36.01-.66-.27-.67-.63l-.08-2.25c-.01-.36.27-.66.63-.67h0c.36-.01.66.27.67.63Z"/>
          <path class="cls-6" d="m31.83,30.92l.02.53c.01.36-.27.66-.63.67h0c-.36.01-.66-.27-.67-.63l-.02-.53c-.01-.36.27-.66.63-.67h0c.36-.01.66.27.67.63Z"/>
          <path class="cls-3" d="m30.95,23.98c.36-.01.66.27.67.63.01.36-.27.66-.63.67-.36.01-.66-.27-.67-.63-.01-.36.27-.66.63-.67Z"/>
          <path class="cls-3" d="m31.15,30.11c.36-.01.66.27.67.63.01.36-.27.66-.63.67-.36.01-.66-.27-.67-.63-.01-.36.27-.66.63-.67Z"/>
          <path class="cls-6" d="m34.23,25.95c-.71.02-1.26.78-1.23,1.68.03.91.63,1.62,1.34,1.6.71-.02,1.26-.78,1.23-1.68-.03-.91-.63-1.62-1.34-1.6Z"/>
          <path class="cls-6" d="m32.93,25.7c.28,0,.51.21.52.49,0,.28-.21.51-.49.52-.28,0-.51-.21-.52-.49,0-.28.21-.51.49-.52Z"/>
        </g>
      </g>
      <g>
        <path class="cls-12" d="m2.18,32.66s-1.3,1.44.73,3.79c.18.2.52.15.6-.11.2-.66.81-1.73,2.62-2.77l-3.95-.92Z"/>
        <path class="cls-12" d="m4.15,34.11s-1.36,1.39.56,3.82c.17.21.51.17.6-.08.23-.65.88-1.69,2.74-2.65l-3.9-1.09Z"/>
        <path class="cls-12" d="m4.05,26.32s-.97-1.68-3.83-.47c-.25.11-.3.45-.08.6.56.39,1.39,1.3,1.83,3.35l2.09-3.47Z"/>
        <path class="cls-12" d="m2.08,33.57s-.37-7.55-1.66-10.14c-.17-.35.04-.77.43-.8,1.19-.1,3.23-.1,4.14.95l-2.91,9.99Z"/>
        <path class="cls-5" d="m14.32,29.22h0c.1,3.06-2.31,5.64-5.37,5.74l-2.97.1c-1.87.06-3.44-1.41-3.51-3.28l-.15-4.54c-.06-1.87,1.41-3.44,3.28-3.51l2.75-.09c3.17-.11,5.86,2.4,5.97,5.57Z"/>
        <path class="cls-12" d="m9.63,35.16h0c.03.83-.63,1.53-1.45,1.56l-2.48.08c-.83.03-1.53-.63-1.56-1.45h0c-.03-.83.63-1.53,1.45-1.56l2.48-.08c.83-.03,1.53.63,1.56,1.45Z"/>
        <path class="cls-1" d="m7.44,26.32c-2,.07-3.57,1.75-3.5,3.75s1.75,3.57,3.75,3.5c2-.07,3.57-1.75,3.5-3.75-.07-2-1.75-3.57-3.75-3.5Z"/>
        <path class="cls-12" d="m5.51,24.8l.29,8.64c.03,1.03-.78,1.89-1.8,1.93h0c-1.03.03-1.89-.78-1.93-1.8l-.29-8.64c-.03-1.03.78-1.89,1.8-1.93h0c1.03-.03,1.89.78,1.93,1.8Z"/>
        <g>
          <path class="cls-5" d="m7.09,32.92c.85-.03,1.56.49,1.59,1.34.03.85-.63,1.71-1.48,1.74-.85.03-1.56-.64-1.59-1.49-.03-.85.64-1.56,1.49-1.59Z"/>
          <path class="cls-9" d="m7.12,33.67c.44-.01.81.33.82.77.01.44-.33.81-.77.82-.44.01-.81-.33-.82-.77-.01-.44.33-.81.77-.82Z"/>
        </g>
        <path class="cls-9" d="m10.76,27.53h0c.02.62-.47,1.14-1.09,1.16l-1.11.04c-.62.02-1.14-.47-1.16-1.09h0c-.02-.62.47-1.14,1.09-1.16l1.11-.04c.62-.02,1.14.47,1.16,1.09Z"/>
        <path class="cls-14" d="m3.78,24.75l.13,3.73c.01.34-.26.64-.61.65h0c-.34.01-.64-.26-.65-.61l-.13-3.73c-.01-.34.26-.64.61-.65h0c.34-.01.64.26.65.61Z"/>
        <path class="cls-3" d="m3.16,25.14c-.35.01-.62.3-.61.65s.3.62.65.61c.35-.01.62-.3.61-.65-.01-.35-.3-.62-.65-.61Z"/>
        <path class="cls-14" d="m3.99,31.16l.04,1.16c.01.34-.26.64-.61.65h0c-.34.01-.64-.26-.65-.61l-.04-1.16c-.01-.34.26-.64.61-.65h0c.34-.01.64.26.65.61Z"/>
        <g>
          <path class="cls-2" d="m9.86,24.91l-.99,7.1c-.15,1.08-1.15,1.83-2.23,1.68h0c-1.08-.15-1.83-1.15-1.68-2.23l.99-7.1c.15-1.08,1.15-1.83,2.23-1.68h0c1.08.15,1.83,1.15,1.68,2.23Z"/>
          <path class="cls-6" d="m8.32,30.93c-.1.7-.74,1.18-1.44,1.09-.7-.1-1.18-.74-1.09-1.44l.85-6.11c.1-.7.74-1.18,1.44-1.09.7.1,1.18.74,1.09,1.44l-.85,6.11Z"/>
        </g>
        <path class="cls-12" d="m17.66,29.15c-.12-3.66-2.94-6.6-6.48-6.98-.55-.06-1.02.39-1,.94l.43,12.57c.02.55.52.97,1.07.87,3.51-.62,6.11-3.74,5.99-7.41Z"/>
        <path class="cls-3" d="m15.7,28.1c-.07-2.18-1.75-3.93-3.86-4.16-.33-.04-.61.23-.6.56l.26,7.49c.01.33.31.58.64.52,2.09-.37,3.64-2.23,3.57-4.42Z"/>
        <path class="cls-7" d="m16.28,28.08c-.07-2.18-1.75-3.93-3.86-4.16-.33-.04-.61.23-.6.56l.26,7.49c.01.33.31.58.64.52,2.09-.37,3.64-2.23,3.57-4.42Z"/>
        <path class="cls-12" d="m13.13,29.61c.25,0,.46.19.47.44s-.19.46-.44.47-.46-.19-.47-.44c0-.25.19-.46.44-.47Z"/>
        <path class="cls-12" d="m13.09,28.25c.25,0,.46.19.47.44,0,.25-.19.46-.44.47-.25,0-.46-.19-.47-.44,0-.25.19-.46.44-.47Z"/>
        <path class="cls-12" d="m13.04,26.9c.25,0,.46.19.47.44,0,.25-.19.46-.44.47-.25,0-.46-.19-.47-.44,0-.25.19-.46.44-.47Z"/>
        <path class="cls-12" d="m12.99,25.54c.25,0,.46.19.47.44,0,.25-.19.46-.44.47-.25,0-.46-.19-.47-.44s.19-.46.44-.47Z"/>
        <path class="cls-12" d="m14.46,28.21c.25,0,.46.19.47.44s-.19.46-.44.47-.46-.19-.47-.44c0-.25.19-.46.44-.47Z"/>
        <path class="cls-12" d="m14.41,26.85c.25,0,.46.19.47.44,0,.25-.19.46-.44.47-.25,0-.46-.19-.47-.44,0-.25.19-.46.44-.47Z"/>
        <path class="cls-7" d="m12.36,33.96l.04,1.1c0,.22-.17.4-.38.41h0c-.22,0-.4-.17-.41-.38l-.04-1.1c0-.22.17-.4.38-.41h0c.22,0,.4.17.41.38Z"/>
        <path class="cls-7" d="m14.17,33.61v.39c.02.25-.17.46-.42.47h0c-.25,0-.46-.19-.47-.44v-.39c-.02-.25.17-.46.42-.47h0c.25,0,.46.19.47.44Z"/>
        <polygon class="cls-12" points="4.74 30.8 8.34 30.22 7.45 26.87 9.3 25.56 6.61 26.45 7.41 29.5 4.25 29.45 4.74 30.8"/>
      </g>
      <g>
        <path class="cls-12" d="m10.48,19.84h0c.02.54.48.96,1.01.94l3.28-.13c.54-.02.96-.48.94-1.01h0c-.02-.54-.48-.96-1.01-.94l-3.28.13c-.54.02-.96.48-.94,1.01Z"/>
        <path class="cls-12" d="m13.26,17.05h0c-.54.02-.96.48-.94,1.01l.13,3.28c.02.54.48.96,1.01.94h0c.54-.02.96-.48.94-1.01l-.13-3.28c-.02-.54-.48-.96-1.01-.94Z"/>
        <path class="cls-4" d="m10.14,6.98l.21,5.14c.04.89.8,1.59,1.69,1.56h0c.89-.04,1.59-.8,1.56-1.69l-.21-5.14c-.04-.89-.8-1.59-1.69-1.56h0c-.89.04-1.59.8-1.56,1.69Z"/>
        <path class="cls-3" d="m10.25,9.92l.02.55c.01.29.26.52.55.51h0c.29-.01.52-.26.51-.55l-.02-.55c-.01-.29-.26-.52-.55-.51h0c-.29.01-.52.26-.51.55Z"/>
        <path class="cls-3" d="m10.2,8.55h0c.01.29.26.52.55.51h0c.29-.01.52-.26.51-.55h0c-.01-.29-.26-.52-.55-.51h0c-.29.01-.52.26-.51.55Z"/>
        <path class="cls-12" d="m11.1,4.87l.36,9.06c.03.77.69,1.38,1.46,1.35h0c.77-.03,1.38-.69,1.35-1.46l-.36-9.06c-.03-.77-.69-1.38-1.46-1.35h0c-.77.03-1.38.69-1.35,1.46Z"/>
        <path class="cls-12" d="m12.47,12.56h0c.02.58-.43,1.07-1.01,1.09h0c-.58.02-1.07-.43-1.09-1.01h0c-.02-.58.43-1.07,1.01-1.09h0c.58-.02,1.07.43,1.09,1.01Z"/>
        <path class="cls-12" d="m12.2,5.95h0c.02.58-.43,1.07-1.01,1.09h0c-.58.02-1.07-.43-1.09-1.01h0c-.02-.58.43-1.07,1.01-1.09h0c.58-.02,1.07.43,1.09,1.01Z"/>
        <path class="cls-12" d="m23.73,14.67l.55,13.82c.05,1.33-.99,2.47-2.33,2.52l-2.85.11c-2.9.12-5.37-2.16-5.49-5.07l-.44-10.96c-.12-2.9,2.16-5.37,5.07-5.49h0c2.9-.12,5.37,2.16,5.49,5.07Z"/>
        <path class="cls-12" d="m13.38,2.77h0c.04.93.83,1.66,1.75,1.62l4.15-.17c.93-.04,1.66-.83,1.62-1.75h0c-.04-.93-.83-1.66-1.75-1.62l-4.15.17c-.93.04-1.66.83-1.62,1.75Z"/>
        <path class="cls-3" d="m20.71,3.08l.79,19.77-5.04.2c-1.82.07-3.35-1.34-3.42-3.16l-.63-15.65c-.02-.46.34-.84.79-.86l7.5-.3Z"/>
        <path class="cls-12" d="m21.77,2.78l.78,19.32-5.04.2c-1.82.07-3.35-1.34-3.42-3.16l-.56-13.99c-.05-1.13.83-2.08,1.96-2.13l6.28-.25Z"/>
        <path class="cls-6" d="m21.5,2.81l.58,14.51-5.04.2c-1.82.07-3.35-1.34-3.42-3.16l-.42-10.4c-.02-.46.34-.84.79-.86l7.5-.3Z"/>
        <path class="cls-12" d="m19.81,5.2l.27,6.73c.05,1.28,1.14,2.28,2.41,2.23h0c1.28-.05,2.28-1.14,2.23-2.41l-.27-6.73c-.05-1.28-1.14-2.28-2.41-2.23h0c-1.28.05-2.28,1.14-2.23,2.41Z"/>
        <path class="cls-12" d="m15.48,18.11h0c-.48,1.84.63,3.74,2.47,4.23l2.98.78c1.84.48,3.74-.63,4.23-2.47h0c.48-1.84-.63-3.74-2.47-4.23l-2.98-.78c-1.84-.48-3.74.63-4.23,2.47Z"/>
        <path class="cls-12" d="m22.55,12.65l.24,5.86c.09,2.17-1.62,4.02-3.79,4.1h0c-2.17.09-4.02-1.62-4.1-3.79l-.24-5.86c-.09-2.17,1.62-4.02,3.79-4.1h0c2.17-.09,4.02,1.62,4.1,3.79Z"/>
        <path class="cls-7" d="m21.25,12.66l.09,2.28c.03.66-.49,1.22-1.15,1.24h0c-.66.03-1.22-.49-1.24-1.15l-.09-2.28c-.03-.66.49-1.22,1.15-1.24h0c.66-.03,1.22.49,1.24,1.15Z"/>
        <path class="cls-12" d="m15.54,19.44h0c-.48,1.84.63,3.74,2.47,4.23l2.98.78c1.84.48,3.74-.63,4.23-2.47h0c.48-1.84-.63-3.74-2.47-4.23l-2.98-.78c-1.84-.48-3.74.63-4.23,2.47Z"/>
        <path class="cls-7" d="m16.64,19.86h0c-.33,1.24.56,2.56,1.97,2.93l2.28.6c1.41.37,2.83-.34,3.16-1.59h0c.33-1.24-.56-2.56-1.97-2.93l-2.28-.6c-1.41-.37-2.83.34-3.16,1.59Z"/>
        <path class="cls-3" d="m21.61,23.37l-2.28-.6c-1.41-.37-2.3-1.69-1.97-2.93.23-.88,1.02-1.49,1.96-1.64-1.24-.11-2.39.57-2.67,1.67-.33,1.24.56,2.56,1.97,2.93l2.28.6c.41.11.82.11,1.2.05-.16-.01-.32-.04-.48-.08Z"/>
        <path class="cls-12" d="m18.88,19.51c-.48.02-.85.42-.83.9.02.48.42.85.9.83.48-.02.85-.42.83-.9-.02-.48-.42-.85-.9-.83Z"/>
        <path class="cls-12" d="m22,20.52c-.41.02-.73.36-.71.77s.36.73.77.71c.41-.02.73-.36.71-.77-.02-.41-.36-.73-.77-.71Z"/>
        <path class="cls-3" d="m19.22,15.06h0c.02.51.45.9.96.88h0c.51-.02.9-.45.88-.96h0c-.02-.51-.45-.9-.96-.88h0c-.51.02-.9.45-.88.96Z"/>
        <g>
          <path class="cls-6" d="m20.9,5.68l.18,4.59c.07,1.73,1.54,3.09,3.28,3.02h0c1.73-.07,3.09-1.54,3.02-3.28l-.14-3.45c-.07-1.73-1.54-3.09-3.28-3.02l-1.14.05c-1.11.04-1.98.99-1.93,2.09Z"/>
          <path class="cls-2" d="m22.23,7.22l.1,2.54c.04,1.04.93,1.85,1.96,1.81h0c1.04-.04,1.85-.93,1.81-1.96l-.1-2.54c-.04-1.04-.93-1.85-1.96-1.81h0c-1.04.04-1.85.93-1.81,1.96Z"/>
          <path class="cls-3" d="m22.66,5.67c-.69.03-1.23.61-1.2,1.3.03.69.61,1.23,1.3,1.2.69-.03,1.23-.61,1.2-1.3-.03-.69-.61-1.23-1.3-1.2Z"/>
          <path class="cls-3" d="m24.94,9.57c-.48.02-.85.42-.83.9.02.48.42.85.9.83.48-.02.85-.42.83-.9-.02-.48-.42-.85-.9-.83Z"/>
        </g>
        <path class="cls-7" d="m16.44,12.95l.16,4.08c.01.27.24.49.52.48h0c.27-.01.49-.24.48-.52l-.16-4.08c-.01-.27-.24-.49-.52-.48h0c-.27.01-.49.24-.48.52Z"/>
        <path class="cls-7" d="m17.45,28.59h0c.03.84.75,1.5,1.59,1.47l2.25-.09c.84-.03,1.5-.75,1.47-1.59h0c-.03-.84-.75-1.5-1.59-1.47l-2.25.09c-.84.03-1.5.75-1.47,1.59Z"/>
        <path class="cls-7" d="m14.77,25.88h0c.03.7.63,1.26,1.33,1.23h0c.7-.03,1.26-.63,1.23-1.33h0c-.03-.7-.63-1.26-1.33-1.23h0c-.7.03-1.26.63-1.23,1.33Z"/>
        <path class="cls-12" d="m14.65,1.03h0c.02.51.45.91.96.89l1.54-.06c.51-.02.91-.45.89-.96h0c-.02-.51-.45-.91-.96-.89l-1.54.06c-.51.02-.91.45-.89.96Z"/>
        <path class="cls-7" d="m17.57,1.87h0c.01.31-.23.57-.53.58l-1.77.07c-.31.01-.57-.23-.58-.53h0c-.01-.31.23-.57.53-.58l1.77-.07c.31-.01.57.23.58.53Z"/>
        <path class="cls-7" d="m19.16,1.8h0c.01.25.22.45.47.44h0c.25-.01.45-.22.44-.47h0c-.01-.25-.22-.45-.47-.44h0c-.25.01-.45.22-.44.47Z"/>
        <path class="cls-3" d="m15.44,1.4h0c.02.38.34.67.71.66h0c.38-.02.67-.34.66-.71h0c-.02-.38-.34-.67-.71-.66h0c-.38.02-.67.34-.66.71Z"/>
        <g>
          <path class="cls-12" d="m16.96,11.57h0c-1.04.04-1.92-.78-1.96-1.82l-.11-3.16c-.04-1.04.78-1.92,1.82-1.96h0c1.04-.04,1.92.78,1.96,1.82l.11,3.16c.04,1.04-.78,1.92-1.82,1.96Z"/>
          <path class="cls-4" d="m16.87,9.12h0c-.71.03-1.31-.53-1.33-1.24l-.04-1.04c-.03-.71.53-1.31,1.24-1.33h0c.71-.03,1.31.53,1.33,1.24l.04,1.04c.03.71-.53,1.31-1.24,1.33Z"/>
          <path class="cls-3" d="m17.61,6.43c-.18-.45-.7-.67-1.15-.49-.45.18-.67.7-.49,1.15.18.45.7.67,1.15.49s.67-.7.49-1.15Z"/>
          <path class="cls-7" d="m17.28,10.04c-.1-.24-.37-.35-.61-.26-.24.1-.35.37-.26.61.1.24.37.35.61.26.24-.1.35-.37.26-.61Z"/>
        </g>
      </g>
      <g>
        <path class="cls-8" d="m22.21,24.45l.62.59.08.08,2.07,1.99c.95.91,2.48.88,3.39-.07h0c.91-.95.88-2.48-.07-3.39l-2.07-1.99-.08-.08-.62-.59c-.95-.91-2.48-.88-3.39.07h0c-.91.95-.88,2.48.07,3.39Z"/>
        <path class="cls-2" d="m20.77,23.07l1.25,1.2c.95.91,2.48.88,3.39-.07h0c.91-.95.88-2.48-.07-3.39l-1.25-1.2c-.95-.91-2.48-.88-3.39.07h0c-.91.95-.88,2.48.07,3.39Z"/>
      </g>
      <g>
        <path class="cls-6" d="m21.86,14.51l.15,3.73c.04.97-.72,1.79-1.69,1.83h0c-.97.04-1.79-.72-1.83-1.69l-.15-3.73c-.04-.97.72-1.79,1.69-1.83h0c.97-.04,1.79.72,1.83,1.69Z"/>
        <path class="cls-6" d="m18.52,19.28v.33c.1,2.25,2.02,4.01,4.27,3.92h0c2.25-.09,4.01-2,3.92-4.25v-.33c-.1-2.25-2.02-4.01-4.27-3.92h0c-2.25.09-4.01,2-3.92,4.25Z"/>
        <path class="cls-2" d="m25.83,18.47h0c.06,1.39-1.04,2.58-2.43,2.64l-1.42.06c-1.39.06-2.58-1.04-2.64-2.43h0c-.06-1.39,1.04-2.58,2.43-2.64l1.42-.06c1.39-.06,2.58,1.04,2.64,2.43Z"/>
        <path class="cls-2" d="m21.08,16.01l.1,2.41c.02.51-.38.94-.89.96h0c-.51.02-.94-.38-.96-.89l-.1-2.41c-.02-.51.38-.94.89-.96h0c.51-.02.94.38.96.89Z"/>
        <path class="cls-3" d="m22.58,18.6h0c.03.77-.57,1.42-1.34,1.45h0c-.77.03-1.42-.57-1.45-1.34h0c-.03-.77.57-1.42,1.34-1.45h0c.77-.03,1.42.57,1.45,1.34Z"/>
        <path class="cls-3" d="m24.58,20.37h0c.02.52-.39.96-.9.98h0c-.52.02-.96-.39-.98-.9h0c-.02-.52.39-.96.9-.98h0c.52-.02.96.39.98.9Z"/>
      </g>
      <g>
        <path id="ArmOne-2" data-name="ArmOne" class="cls-8" d="m28.43,23.9h0c.88.99.79,2.51-.2,3.39l-8.39,7.45c-.99.88-2.51.79-3.39-.2h0c-.88-.99-.79-2.51.2-3.39l8.39-7.45c.99-.88,2.51-.79,3.39.2Z"/>
        <path class="cls-12" d="m25.53,26.44h0c.19.21.17.55-.04.74l-2.32,2.06c-.21.19-.55.17-.74-.04h0c-.19-.21-.17-.55.04-.74l2.32-2.06c.21-.19.55-.17.74.04Z"/>
        <path class="cls-3" d="m17.88,27.1c-1.89,1.68-2.06,4.57-.39,6.47,1.68,1.89,4.57,2.06,6.47.39,1.89-1.68,1.36-3.95-.32-5.84-1.68-1.89-3.87-2.69-5.76-1.01Z"/>
        <path class="cls-2" d="m16.17,28.21c-2.02,1.79-2.2,4.88-.41,6.9,1.79,2.02,4.88,2.2,6.9.41,2.02-1.79,1.45-4.22-.34-6.23s-4.13-2.87-6.15-1.08Z"/>
        <path class="cls-6" d="m17.52,29.89c-1.58,1.4-1.87,3.66-.65,5.04s3.5,1.36,5.08-.05c1.58-1.4,1.29-3.14.07-4.52-1.22-1.38-2.91-1.88-4.49-.47Z"/>
        <path class="cls-4" d="m24.83,25.66c-.43.38-.47,1.04-.09,1.47.38.43,1.04.47,1.47.09.43-.38.47-1.04.09-1.47-.38-.43-1.04-.47-1.47-.09Z"/>
        <g>
          <path class="cls-2" d="m21.65,31.29h0c0,.14-.13.24-.26.23l-2.68-.16c-.14,0-.24-.13-.23-.26h0c0-.14.13-.24.26-.23l2.68.16c.14,0,.24.13.23.26Z"/>
          <path class="cls-2" d="m20.7,32.94h0c0,.14-.13.24-.26.23l-2.68-.16c-.14,0-.24-.13-.23-.26h0c0-.14.13-.24.26-.23l2.68.16c.14,0,.24.13.23.26Z"/>
          <path class="cls-2" d="m21.75,34.17h0c0,.14-.13.24-.26.23l-2.68-.16c-.14,0-.24-.13-.23-.26h0c0-.14.13-.24.26-.23l2.68.16c.14,0,.24.13.23.26Z"/>
        </g>
        <path class="cls-3" d="m17.16,32.76c.77-.68,1.95-.61,2.64.16s.61,1.95-.16,2.64c-.77.68-1.95.61-2.64-.16-.68-.77-.61-1.95.16-2.64Z"/>
        <path class="cls-3" d="m17.81,30.78c-.26.23-.65.2-.88-.05-.23-.26-.2-.65.05-.88.26-.23.65-.2.88.05.23.26.2.65-.05.88Z"/>
      </g>
      <g>
        <path class="cls-8" d="m46.27,29.61h0c-.31-2.04-2.24-3.46-4.29-3.14l-8.55,1.32c-2.04.31-3.46,2.24-3.14,4.29h0c.31,2.04,2.24,3.46,4.29,3.14l8.55-1.32c2.04-.31,3.46-2.24,3.14-4.29Z"/>
        <path class="cls-2" d="m46.58,31.59h0c-.31-2.04-2.24-3.46-4.29-3.14l-8.55,1.32c-2.04.31-3.46,2.24-3.14,4.29h0c.31,2.04,2.24,3.46,4.29,3.14l8.55-1.32c2.04-.31,3.46-2.24,3.14-4.29Z"/>
        <path class="cls-3" d="m45.83,32.19h0c-.24-1.54-1.7-2.61-3.24-2.37l-8.53,1.31c-1.54.24-2.61,1.7-2.37,3.24h0c.24,1.54,1.7,2.61,3.24,2.37l8.53-1.31c1.54-.24,2.61-1.7,2.37-3.24Z"/>
        <path class="cls-6" d="m45.97,33.06h0c-.24-1.54-1.7-2.61-3.24-2.37l-8.53,1.31c-1.54.24-2.61,1.7-2.37,3.24h0c.24,1.54,1.7,2.61,3.24,2.37l8.53-1.31c1.54-.24,2.61-1.7,2.37-3.24Z"/>
        <path class="cls-8" d="m35.19,32.15l-.35-2.26c-.08-.54-.6-.92-1.14-.84h0c-.54.08-.92.6-.84,1.14l.35,2.26c.08.54.6.92,1.14.84h0c.54-.08.92-.6.84-1.14Z"/>
        <path class="cls-8" d="m43.22,30.91l-.35-2.26c-.08-.54-.6-.92-1.14-.84h0c-.54.08-.92.6-.84,1.14l.35,2.26c.08.54.6.92,1.14.84h0c.54-.08.92-.6.84-1.14Z"/>
        <path class="cls-7" d="m42.83,28.4h0c-.06-.41-.44-.69-.85-.62l-8.53,1.32c-.41.06-.69.44-.62.85h0c.06.41.44.69.85.62l8.53-1.31c.41-.06.69-.45.62-.85Z"/>
        <path class="cls-10" d="m36.96,29.31h0c-.06-.41-.44-.69-.85-.62l-1.24.19c-.41.06-.69.44-.62.85h0c.06.41.44.69.85.62l1.24-.19c.41-.06.69-.44.62-.85Z"/>
        <path class="cls-10" d="m40.62,28.74h0c-.06-.41-.45-.69-.85-.62l-.36.06c-.41.06-.69.44-.62.85h0c.06.41.44.69.85.62l.36-.06c.41-.06.69-.44.62-.85Z"/>
        <g>
          <path class="cls-2" d="m38.05,32.01h0c-.08.11-.06.27.05.35l2.17,1.59c.11.08.27.06.35-.05h0c.08-.11.06-.27-.05-.35l-2.17-1.59c-.11-.08-.27-.06-.35.05Z"/>
          <path class="cls-2" d="m37.74,33.88h0c-.08.11-.06.27.05.35l2.17,1.59c.11.08.27.06.35-.05h0c.08-.11.06-.27-.05-.35l-2.17-1.59c-.11-.08-.27-.06-.35.05Z"/>
          <path class="cls-2" d="m36.14,34.16h0c-.08.11-.06.27.05.35l2.17,1.59c.11.08.27.06.35-.05h0c.08-.11.06-.27-.05-.35l-2.17-1.59c-.11-.08-.27-.06-.35.05Z"/>
        </g>
        <path class="cls-3" d="m33.65,35.28c-.34.05-.57.37-.52.71.05.34.37.57.71.52.34-.05.57-.37.52-.71-.05-.34-.37-.57-.71-.52Z"/>
      </g>
    </g>
  </g>
</svg>