<?xml version="1.0" encoding="UTF-8"?>
<svg id="Layer_2" data-name="Layer 2" xmlns="http://www.w3.org/2000/svg" viewBox="0 0 65.32 37.58">
  <defs>
    <style>
      .cls-1 {
        fill: #55236e;
      }

      .cls-2 {
        fill: #a20025;
      }

      .cls-3 {
        fill: #fff;
      }

      .cls-4 {
        fill: #7cff00;
      }

      .cls-5 {
        fill: #e71e00;
      }

      .cls-6 {
        fill: #ffd285;
      }

      .cls-7 {
        fill: #fd003a;
      }

      .cls-8 {
        fill: #4d4d4d;
      }

      .cls-9 {
        fill: #333;
      }

      .cls-10 {
        fill: #ff6e4c;
      }

      .cls-11 {
        fill: #999;
      }

      .cls-12 {
        fill: #434343;
      }

      .cls-13 {
        fill: #1a1a1a;
      }

      .cls-14 {
        fill: #74001b;
      }

      .cls-15 {
        fill: #666;
      }
    </style>
  </defs>
  <g id="dead">
    <g id="dead6">
      <g>
        <g>
          <path class="cls-13" d="m22.32,12.96l.02.86v.11s.14,5.15.14,5.15c.03,1.32,1.14,2.37,2.46,2.33h0c1.32-.03,2.37-1.14,2.33-2.46l-.13-5.15v-.11s-.02-.86-.02-.86c-.03-1.32-1.14-2.37-2.46-2.33h0c-1.32.03-2.37,1.14-2.33,2.46Z"/>
          <path class="cls-14" d="m22.26,10.97l.04,1.73c.03,1.32,1.14,2.37,2.46,2.33h0c1.32-.03,2.37-1.14,2.33-2.46l-.04-1.73c-.03-1.32-1.14-2.37-2.46-2.33h0c-1.32.03-2.37,1.14-2.33,2.46Z"/>
        </g>
        <g>
          <path id="ArmOne" class="cls-13" d="m25.17,17.91h0c1.3.2,2.21,1.42,2.02,2.73l-1.66,11.1c-.2,1.3-1.42,2.21-2.73,2.02h0c-1.3-.2-2.21-1.42-2.02-2.73l1.66-11.1c.2-1.3,1.42-2.21,2.73-2.02Z"/>
          <path class="cls-8" d="m24.66,21.07h0c.28.04.48.31.44.59l-.46,3.07c-.04.28-.31.48-.59.44h0c-.28-.04-.48-.31-.44-.59l.46-3.07c.04-.28.31-.48.59-.44Z"/>
          <path class="cls-3" d="m19.12,27.13c-.38,2.5,1.35,4.83,3.85,5.21s4.83-1.35,5.21-3.85-1.49-3.91-3.99-4.28c-2.5-.38-4.69.42-5.07,2.92Z"/>
          <path class="cls-2" d="m18.52,29.08c-.4,2.67,1.44,5.16,4.11,5.56,2.67.4,5.16-1.44,5.56-4.11.4-2.67-1.59-4.17-4.25-4.57-2.67-.4-5.01.45-5.41,3.12Z"/>
          <path class="cls-7" d="m19.76,29.77c-.25,1.65.89,3.19,2.54,3.44,1.65.25,3.19-.89,3.44-2.54.25-1.65-.89-3.19-2.54-3.44s-3.19.89-3.44,2.54Z"/>
          <path class="cls-13" d="m20.28,29.85c-.25,1.65.89,3.19,2.54,3.44,1.65.25,3.19-.89,3.44-2.54.25-1.65-.89-3.19-2.54-3.44-1.65-.25-3.19.89-3.44,2.54Z"/>
          <path class="cls-8" d="m21.38,30.01c-.16,1.05.56,2.03,1.61,2.18,1.05.16,2.03-.56,2.18-1.61.16-1.05-.56-2.03-1.61-2.18s-2.03.56-2.18,1.61Z"/>
          <path class="cls-13" d="m22.45,30.17c-.07.45.24.88.7.95.45.07.88-.24.95-.7.07-.45-.24-.88-.7-.95s-.88.24-.95.7Z"/>
        </g>
      </g>
      <g>
        <g id="ShinTwo">
          <path class="cls-9" d="m62.43,35.02h0c-.23,1.26-1.45,2.1-2.71,1.87l-10.18-1.85c-1.26-.23-2.1-1.45-1.87-2.71h0c.23-1.26,1.45-2.1,2.71-1.87l10.18,1.85c1.26.23,2.1,1.45,1.87,2.71Z"/>
        </g>
        <path class="cls-8" d="m60.4,35.18h0c-.05.29-.33.48-.61.42l-10.26-1.87c-.29-.05-.48-.33-.42-.61h0c.05-.29.33-.48.61-.42l10.26,1.87c.29.05.48.33.42.61Z"/>
        <path class="cls-3" d="m53.52,33.93h0c-.05.29-.33.48-.61.42l-1.75-.32c-.29-.05-.48-.33-.42-.61h0c.05-.29.33-.48.61-.42l1.75.32c.29.05.48.33.42.61Z"/>
        <path class="cls-3" d="m58.23,34.81h0c-.05.3-.34.5-.64.45l-.92-.17c-.3-.05-.5-.34-.45-.64h0c.05-.3.34-.5.64-.44l.92.17c.3.05.5.34.45.64Z"/>
      </g>
      <g>
        <path class="cls-7" d="m64.69,27.89c-2.65-1.17-5.58.11-6.75,2.76-1.17,2.65-.14,5.67,2.51,6.84l4.24-9.6Z"/>
        <path class="cls-2" d="m63.87,29.75c-.27-.25-.57-.46-.92-.62-1.72-.76-3.74.02-4.5,1.75-.76,1.72.02,3.74,1.75,4.5.35.16.72.23,1.08.26l2.6-5.89Z"/>
        <path class="cls-13" d="m65.23,29.29l-3.38,7.66c-.24.53-.86.78-1.4.54h-.03c-.53-.25-.78-.88-.54-1.41l3.38-7.66c.24-.53.86-.78,1.4-.54h.03c.53.25.78.88.54,1.41Z"/>
        <path class="cls-3" d="m61.52,28.44c.63.28.91,1.01.63,1.63-.28.63-1.01.91-1.63.63-.63-.28-.91-1.01-.63-1.63.28-.63,1.01-.91,1.63-.63Z"/>
        <path class="cls-3" d="m58.82,31.49c-.32-.14-.47-.52-.33-.84.14-.32.52-.47.84-.33.32.14.47.52.33.84-.14.32-.52.47-.84.33Z"/>
        <path class="cls-8" d="m60.81,35.65h0c-.15.35-.56.5-.91.35h0c-.35-.15-.5-.56-.35-.91h0c.15-.35.56-.5.91-.35h0c.35.15.5.56.35.91Z"/>
        <path class="cls-8" d="m63.65,29.2h0c-.15.35-.56.5-.91.35h0c-.35-.15-.5-.56-.35-.91h0c.15-.35.56-.5.91-.35h0c.35.15.5.56.35.91Z"/>
        <path class="cls-8" d="m62.7,31.35h0c-.15.35-.56.5-.91.35h0c-.35-.15-.5-.56-.35-.91h0c.15-.35.56-.5.91-.35h0c.35.15.5.56.35.91Z"/>
        <path class="cls-8" d="m61.75,33.5h0c-.15.35-.56.5-.91.35h0c-.35-.15-.5-.56-.35-.91h0c.15-.35.56-.5.91-.35h0c.35.15.5.56.35.91Z"/>
      </g>
      <g>
        <g>
          <path class="cls-9" d="m35.84,21.52l-1.8-1.4c-.43-.34-1.07-.26-1.4.17h0c-.34.43-.26,1.07.17,1.4l1.8,1.4c.43.34,1.07.26,1.4-.17h0c.34-.43.26-1.07-.17-1.4Z"/>
          <path class="cls-9" d="m40.83,15.11l-1.8-1.4c-.43-.34-1.07-.26-1.4.17h0c-.34.43-.26,1.07.17,1.4l1.8,1.4c.43.34,1.07.26,1.4-.17h0c.34-.43.26-1.07-.17-1.4Z"/>
          <path class="cls-8" d="m38.83,13.55h0c-.32-.25-.79-.19-1.05.13l-5.31,6.81c-.25.32-.19.79.13,1.05h0c.32.25.79.19,1.05-.13l5.31-6.81c.25-.32.19-.79-.13-1.05Z"/>
          <path class="cls-11" d="m35.18,18.24h0c-.32-.25-.79-.19-1.05.13l-.77.99c-.25.32-.19.79.13,1.05h0c.32.25.79.19,1.05-.13l.77-.99c.25-.32.19-.79-.13-1.05Z"/>
          <path class="cls-11" d="m37.46,15.31h0c-.32-.25-.79-.19-1.05.13l-.22.29c-.25.32-.19.79.13,1.05h0c.32.25.79.19,1.05-.13l.22-.29c.25-.32.19-.79-.13-1.05Z"/>
        </g>
        <path class="cls-7" d="m43.62,14.31h0c1.23.96,1.46,2.75.5,3.98l-5.3,6.81c-.96,1.23-2.75,1.46-3.98.5h0c-1.23-.96-1.46-2.75-.5-3.98l5.3-6.81c.96-1.23,2.75-1.46,3.98-.5Z"/>
        <path class="cls-2" d="m45.57,14.78h0c1.63,1.27,1.93,3.64.66,5.27l-5.31,6.82c-1.27,1.63-3.64,1.93-5.27.66h0c-1.63-1.27-1.93-3.64-.66-5.27l5.31-6.82c1.27-1.63,3.64-1.93,5.27-.66Z"/>
        <path class="cls-13" d="m46.77,15.72h0c1.63,1.27,1.93,3.64.66,5.27l-5.31,6.82c-1.27,1.63-3.64,1.93-5.27.66h0c-1.63-1.27-1.93-3.64-.66-5.27l5.31-6.82c1.27-1.63,3.64-1.93,5.27-.66Z"/>
        <path class="cls-8" d="m47.04,18.18h0c.32.25.38.72.13,1.05l-3.89,5c-.25.32-.72.38-1.05.13h0c-.32-.25-.38-.72-.13-1.05l3.89-5c.25-.32.72-.38,1.05-.13Z"/>
        <path class="cls-11" d="m43.92,22.19h0c.32.25.38.72.13,1.05l-.77.99c-.25.32-.72.38-1.05.13h0c-.32-.25-.38-.72-.13-1.05l.77-.99c.25-.32.72-.38,1.05-.13Z"/>
        <path class="cls-11" d="m46.19,19.26h0c.32.25.38.72.13,1.05l-.22.29c-.25.32-.72.38-1.05.13h0c-.32-.25-.38-.72-.13-1.05l.22-.29c.25-.32.72-.38,1.05-.13Z"/>
        <path class="cls-8" d="m44.03,16.24h0c.32.25.38.72.13,1.05l-3.72,4.77c-.25.32-.72.38-1.05.13h0c-.32-.25-.38-.72-.13-1.05l3.72-4.77c.25-.32.72-.38,1.05-.13Z"/>
        <path class="cls-11" d="m41.97,18.89h0c.32.25.38.72.13,1.05l-.77.99c-.25.32-.72.38-1.05.13h0c-.32-.25-.38-.72-.13-1.05l.77-.99c.25-.32.72-.38,1.05-.13Z"/>
        <path class="cls-11" d="m43.68,16.69h0c.32.25.38.72.13,1.05l-.22.29c-.25.32-.72.38-1.05.13h0c-.32-.25-.38-.72-.13-1.05l.22-.29c.25-.32.72-.38,1.05-.13Z"/>
        <path class="cls-3" d="m34.71,23.17c-.21.27-.6.32-.87.11s-.32-.6-.11-.87c.21-.27.6-.32.87-.11.27.21.32.6.11.87Z"/>
        <path class="cls-8" d="m37.05,24.27c-.82,1.05-.63,2.57.42,3.38,1.05.82,2.57.63,3.38-.42.82-1.05.63-2.57-.42-3.38-1.05-.82-2.57-.63-3.38.42Z"/>
        <path class="cls-13" d="m37.93,24.96c-.44.57-.34,1.38.23,1.82.57.44,1.38.34,1.82-.23.44-.57.34-1.38-.23-1.82-.57-.44-1.38-.34-1.82.23Z"/>
        <path class="cls-3" d="m40.94,15.17c-.21.27-.6.32-.87.11-.27-.21-.32-.6-.11-.87.21-.27.6-.32.87-.11.27.21.32.6.11.87Z"/>
      </g>
      <g>
        <g id="ShinTwo-2" data-name="ShinTwo">
          <path class="cls-13" d="m52.91,8.16h0c.99.82,1.12,2.29.3,3.28l-6.61,7.96c-.82.99-2.29,1.12-3.28.31h0c-.99-.82-1.12-2.29-.3-3.28l6.61-7.96c.82-.99,2.29-1.12,3.28-.3Z"/>
        </g>
        <path class="cls-12" d="m43.95,17.17c-.4.48-.33,1.19.15,1.59.48.4,1.19.33,1.59-.15.4-.48.33-1.19-.15-1.59s-1.19-.33-1.59.15Z"/>
      </g>
      <g>
        <path class="cls-7" d="m48.73,4.78c-1.46,2.5-.52,5.55,1.98,7.02,2.5,1.46,5.62.78,7.08-1.72l-9.06-5.29Z"/>
        <path class="cls-2" d="m50.48,5.8c-.27.24-.52.51-.72.84-.95,1.63-.4,3.72,1.23,4.67,1.63.95,3.72.4,4.67-1.23.19-.33.31-.68.38-1.04l-5.56-3.24Z"/>
        <path class="cls-13" d="m50.18,4.4l7.23,4.22c.5.29.68.95.38,1.45l-.02.03c-.29.5-.95.68-1.45.38l-7.23-4.22c-.5-.29-.68-.95-.38-1.45l.02-.03c.29-.5.95-.68,1.45-.38Z"/>
        <path class="cls-3" d="m48.92,7.99c.34-.59,1.1-.79,1.69-.45.59.34.79,1.1.45,1.69s-1.1.79-1.69.45c-.59-.34-.79-1.1-.45-1.69Z"/>
        <path class="cls-3" d="m51.64,11.01c-.18.3-.57.41-.87.23-.3-.18-.41-.57-.23-.87.18-.3.57-.41.87-.23.3.18.41.57.23.87Z"/>
        <path class="cls-8" d="m56,9.51h0c.33.19.44.61.25.94h0c-.19.33-.61.44-.94.25h0c-.33-.19-.44-.61-.25-.94h0c.19-.33.61-.44.94-.25Z"/>
        <path class="cls-8" d="m49.91,5.96h0c.33.19.44.61.25.94h0c-.19.33-.61.44-.94.25h0c-.33-.19-.44-.61-.25-.94h0c.19-.33.61-.44.94-.25Z"/>
        <path class="cls-8" d="m51.94,7.14h0c.33.19.44.61.25.94h0c-.19.33-.61.44-.94.25h0c-.33-.19-.44-.61-.25-.94h0c.19-.33.61-.44.94-.25Z"/>
        <path class="cls-8" d="m53.97,8.32h0c.33.19.44.61.25.94h0c-.19.33-.61.44-.94.25h0c-.33-.19-.44-.61-.25-.94h0c.19-.33.61-.44.94-.25Z"/>
      </g>
      <g>
        <path class="cls-13" d="m43.78,27.86h0c.16,4.59-3.47,8.48-8.07,8.64l-6.64.23c-2.6.09-4.8-1.97-4.89-4.57l-.25-7.24c-.09-2.6,1.97-4.8,4.57-4.89l6.64-.23c4.59-.16,8.48,3.47,8.64,8.07Z"/>
        <path class="cls-8" d="m35.74,29.89h0c.02.71-.54,1.31-1.25,1.34l-4.03.14c-.71.02-1.31-.54-1.34-1.25h0c-.02-.71.54-1.31,1.25-1.34l4.03-.14c.71-.02,1.31.54,1.34,1.25Z"/>
        <path class="cls-8" d="m35.53,23.53h0c.02.71-.54,1.31-1.25,1.34l-4.03.14c-.71.02-1.31-.54-1.34-1.25h0c-.02-.71.54-1.31,1.25-1.34l4.03-.14c.71-.02,1.31.54,1.34,1.25Z"/>
        <path class="cls-2" d="m31.58,29.33l.1,2.99c.04,1.07-.81,1.97-1.87,2.01h0c-2.21.08-4.09-1.67-4.16-3.89l-.03-.91c-.04-1.07.81-1.97,1.87-2.01l2.09-.07c1.07-.04,1.97.81,2.01,1.87Z"/>
        <path class="cls-2" d="m31.3,21.34l.1,2.99c.04,1.07-.81,1.97-1.87,2.01l-2.09.07c-1.07.04-1.97-.81-2.01-1.87l-.05-1.57c-.06-1.85,1.4-3.41,3.25-3.48l.66-.02c1.07-.04,1.97.81,2.01,1.87Z"/>
        <path class="cls-7" d="m30.41,22.71l-2.68,2.87c-.21.22-.56.23-.78.03h0c-.22-.21-.23-.56-.03-.78l2.68-2.87c.21-.22.56-.23.78-.03h0c.22.21.23.56.03.78Z"/>
        <path class="cls-7" d="m28.43,21.47l-1.19,1.27c-.21.22-.56.23-.78.03h0c-.22-.21-.23-.56-.03-.78l1.19-1.27c.21-.22.56-.23.78-.03h0c.22.21.23.56.03.78Z"/>
        <path class="cls-7" d="m30.68,30.51l-2.06,2.21c-.21.22-.56.23-.78.03h0c-.22-.21-.23-.56-.03-.78l2.06-2.21c.21-.22.56-.23.78-.03h0c.22.21.23.56.03.78Z"/>
        <path class="cls-7" d="m28.69,29.27l-1.19,1.27c-.21.22-.56.23-.78.03h0c-.22-.21-.23-.56-.03-.78l1.19-1.27c.21-.22.56-.23.78-.03h0c.22.21.23.56.03.78Z"/>
        <path class="cls-2" d="m35.94,22.19l.33,9.76c.02.48-.36.89-.84.9h0c-.48.02-.89-.36-.9-.84l-.33-9.76c-.02-.48.36-.89.84-.9h0c.48-.02.89.36.9.84Z"/>
        <path class="cls-8" d="m38.29,30.08h0c.01.41-.31.76-.72.77l-1.95.07c-.41.01-.76-.31-.77-.72h0c-.01-.41.31-.76.72-.77l1.95-.07c.41-.01.76.31.77.72Z"/>
        <path class="cls-8" d="m38.09,24.25h0c.01.41-.31.76-.72.77l-1.95.07c-.41.01-.76-.31-.77-.72h0c-.01-.41.31-.76.72-.77l1.95-.07c.41-.01.76.31.77.72Z"/>
        <path class="cls-8" d="m40.67,29.99c.62-.02,1.14.46,1.16,1.08.02.62-.46,1.14-1.08,1.16-.62.02-1.14-.46-1.16-1.08-.02-.62.46-1.14,1.08-1.16Z"/>
        <path class="cls-8" d="m40.01,22.47c.4-.01.73.3.74.7.01.4-.3.73-.7.74-.4.01-.73-.3-.74-.7-.01-.4.3-.73.7-.74Z"/>
        <path class="cls-3" d="m28.15,31.73c.36-.01.67.27.68.63.01.36-.27.67-.63.68-.36.01-.67-.27-.68-.63-.01-.36.27-.67.63-.68Z"/>
        <path class="cls-3" d="m27.08,29.48c.36-.01.66.27.67.62.01.36-.27.66-.62.67-.36.01-.66-.27-.67-.62-.01-.36.27-.66.62-.67Z"/>
        <path class="cls-2" d="m40.23,23.71c-1.47.05-2.62,1.55-2.55,3.36s1.3,3.23,2.78,3.18,2.62-1.55,2.55-3.36-1.3-3.23-2.78-3.18Z"/>
        <path class="cls-3" d="m27.21,24.58c.36-.01.67.27.68.63.01.36-.27.67-.63.68s-.67-.27-.68-.63c-.01-.36.27-.67.63-.68Z"/>
        <path class="cls-3" d="m26.81,21.72c.36-.01.66.27.67.62.01.36-.27.66-.62.67-.36.01-.66-.27-.67-.62-.01-.36.27-.66.62-.67Z"/>
        <path class="cls-2" d="m38.49,21.37l.43,12.56c.01.36-.27.66-.63.67h0c-.36.01-.66-.27-.67-.63l-.43-12.56c-.01-.36.27-.66.63-.67h0c.36-.01.66.27.67.63Z"/>
        <path class="cls-7" d="m38.58,24.08l.08,2.25c.01.36-.27.66-.63.67h0c-.36.01-.66-.27-.67-.63l-.08-2.25c-.01-.36.27-.66.63-.67h0c.36-.01.66.27.67.63Z"/>
        <path class="cls-7" d="m38.8,30.38l.02.53c.01.36-.27.66-.63.67h0c-.36.01-.66-.27-.67-.63l-.02-.53c-.01-.36.27-.66.63-.67h0c.36-.01.66.27.67.63Z"/>
        <path class="cls-3" d="m37.91,23.45c.36-.01.66.27.67.63.01.36-.27.66-.63.67-.36.01-.66-.27-.67-.63-.01-.36.27-.66.63-.67Z"/>
        <path class="cls-3" d="m38.12,29.58c.36-.01.66.27.67.63.01.36-.27.66-.63.67-.36.01-.66-.27-.67-.63-.01-.36.27-.66.63-.67Z"/>
        <path class="cls-7" d="m41.19,25.42c-.71.02-1.26.78-1.23,1.68.03.91.63,1.62,1.34,1.6.71-.02,1.26-.78,1.23-1.68-.03-.91-.63-1.62-1.34-1.6Z"/>
        <path class="cls-7" d="m39.89,25.16c.28,0,.51.21.52.49,0,.28-.21.51-.49.52-.28,0-.51-.21-.52-.49,0-.28.21-.51.49-.52Z"/>
      </g>
      <g>
        <path class="cls-13" d="m9.14,32.12s-1.3,1.44.73,3.79c.18.2.52.15.6-.11.2-.66.81-1.73,2.62-2.77l-3.95-.92Z"/>
        <path class="cls-13" d="m11.01,25.79s-.97-1.68-3.83-.47c-.25.11-.3.45-.08.6.56.39,1.39,1.3,1.83,3.35l2.09-3.47Z"/>
        <path class="cls-13" d="m9.04,33.03s-.37-7.55-1.66-10.14c-.17-.35.04-.77.43-.8,1.19-.1,3.23-.1,4.14.95l-2.91,9.99Z"/>
        <path class="cls-6" d="m21.28,28.69h0c.1,3.06-2.31,5.64-5.37,5.74l-2.97.1c-1.87.06-3.44-1.41-3.51-3.28l-.15-4.54c-.06-1.87,1.41-3.44,3.28-3.51l2.75-.09c3.17-.11,5.86,2.4,5.97,5.57Z"/>
        <path class="cls-13" d="m16.59,34.63h0c.03.83-.63,1.53-1.45,1.56l-2.48.08c-.83.03-1.53-.63-1.56-1.45h0c-.03-.83.63-1.53,1.45-1.56l2.48-.08c.83-.03,1.53.63,1.56,1.45Z"/>
        <path class="cls-1" d="m14.4,25.79c-2,.07-3.57,1.75-3.5,3.75s1.75,3.57,3.75,3.5c2-.07,3.57-1.75,3.5-3.75-.07-2-1.75-3.57-3.75-3.5Z"/>
        <path class="cls-13" d="m12.47,24.27l.29,8.64c.03,1.03-.78,1.89-1.8,1.93h0c-1.03.03-1.89-.78-1.93-1.8l-.29-8.64c-.03-1.03.78-1.89,1.8-1.93h0c1.03-.03,1.89.78,1.93,1.8Z"/>
        <g>
          <path class="cls-6" d="m14.06,32.39c.85-.03,1.56.49,1.59,1.34.03.85-.63,1.71-1.48,1.74-.85.03-1.56-.64-1.59-1.49-.03-.85.64-1.56,1.49-1.59Z"/>
          <path class="cls-10" d="m14.08,33.13c.44-.01.81.33.82.77.01.44-.33.81-.77.82-.44.01-.81-.33-.82-.77-.01-.44.33-.81.77-.82Z"/>
        </g>
        <path class="cls-10" d="m17.72,27h0c.02.62-.47,1.14-1.09,1.16l-1.11.04c-.62.02-1.14-.47-1.16-1.09h0c-.02-.62.47-1.14,1.09-1.16l1.11-.04c.62-.02,1.14.47,1.16,1.09Z"/>
        <path class="cls-15" d="m10.74,24.22l.13,3.73c.01.34-.26.64-.61.65h0c-.34.01-.64-.26-.65-.61l-.13-3.73c-.01-.34.26-.64.61-.65h0c.34-.01.64.26.65.61Z"/>
        <path class="cls-3" d="m10.12,24.61c-.35.01-.62.3-.61.65s.3.62.65.61c.35-.01.62-.3.61-.65s-.3-.62-.65-.61Z"/>
        <path class="cls-15" d="m10.96,30.63l.04,1.16c.01.34-.26.64-.61.65h0c-.34.01-.64-.26-.65-.61l-.04-1.16c-.01-.34.26-.64.61-.65h0c.34-.01.64.26.65.61Z"/>
        <g>
          <path class="cls-2" d="m16.82,24.38l-.99,7.1c-.15,1.08-1.15,1.83-2.23,1.68h0c-1.08-.15-1.83-1.15-1.68-2.23l.99-7.1c.15-1.08,1.15-1.83,2.23-1.68h0c1.08.15,1.83,1.15,1.68,2.23Z"/>
          <path class="cls-7" d="m15.28,30.39c-.1.7-.74,1.18-1.44,1.09-.7-.1-1.18-.74-1.09-1.44l.85-6.11c.1-.7.74-1.18,1.44-1.09.7.1,1.18.74,1.09,1.44l-.85,6.11Z"/>
        </g>
        <path class="cls-13" d="m24.62,28.62c-.12-3.66-2.94-6.6-6.48-6.98-.55-.06-1.02.39-1,.94l.43,12.57c.02.55.52.97,1.07.87,3.51-.62,6.11-3.74,5.99-7.41Z"/>
        <path class="cls-3" d="m22.66,27.57c-.07-2.18-1.75-3.93-3.86-4.16-.33-.04-.61.23-.6.56l.26,7.49c.01.33.31.58.64.52,2.09-.37,3.64-2.23,3.57-4.42Z"/>
        <path class="cls-8" d="m23.24,27.55c-.07-2.18-1.75-3.93-3.86-4.16-.33-.04-.61.23-.6.56l.26,7.49c.01.33.31.58.64.52,2.09-.37,3.64-2.23,3.57-4.42Z"/>
        <path class="cls-13" d="m20.09,29.08c.25,0,.46.19.47.44,0,.25-.19.46-.44.47s-.46-.19-.47-.44c0-.25.19-.46.44-.47Z"/>
        <path class="cls-13" d="m20.05,27.72c.25,0,.46.19.47.44,0,.25-.19.46-.44.47-.25,0-.46-.19-.47-.44s.19-.46.44-.47Z"/>
        <path class="cls-13" d="m20,26.37c.25,0,.46.19.47.44s-.19.46-.44.47c-.25,0-.46-.19-.47-.44,0-.25.19-.46.44-.47Z"/>
        <path class="cls-13" d="m19.96,25.01c.25,0,.46.19.47.44,0,.25-.19.46-.44.47-.25,0-.46-.19-.47-.44,0-.25.19-.46.44-.47Z"/>
        <path class="cls-13" d="m21.42,27.68c.25,0,.46.19.47.44,0,.25-.19.46-.44.47s-.46-.19-.47-.44.19-.46.44-.47Z"/>
        <path class="cls-13" d="m21.37,26.32c.25,0,.46.19.47.44,0,.25-.19.46-.44.47-.25,0-.46-.19-.47-.44s.19-.46.44-.47Z"/>
        <path class="cls-8" d="m19.32,33.43l.04,1.1c0,.22-.17.4-.38.41h0c-.22,0-.4-.17-.41-.38l-.04-1.1c0-.22.17-.4.38-.41h0c.22,0,.4.17.41.38Z"/>
        <path class="cls-8" d="m21.13,33.07v.39c.02.25-.17.46-.42.47h0c-.25,0-.46-.19-.47-.44v-.39c-.02-.25.17-.46.42-.47h0c.25,0,.46.19.47.44Z"/>
        <polygon class="cls-13" points="11.7 30.27 15.3 29.69 14.42 26.34 16.26 25.03 13.57 25.91 14.37 28.97 11.21 28.92 11.7 30.27"/>
      </g>
      <g>
        <path class="cls-13" d="m16.23,20.33h0c.07.53.56.92,1.09.85l3.26-.4c.53-.07.92-.56.85-1.09h0c-.07-.53-.56-.92-1.09-.85l-3.26.4c-.53.07-.92.56-.85,1.09Z"/>
        <path class="cls-13" d="m18.77,17.31h0c-.53.07-.92.56-.85,1.09l.4,3.26c.07.53.56.92,1.09.85h0c.53-.07.92-.56.85-1.09l-.4-3.26c-.07-.53-.56-.92-1.09-.85Z"/>
        <path class="cls-4" d="m14.82,7.54l.63,5.11c.11.89.92,1.52,1.81,1.41h0c.89-.11,1.52-.92,1.41-1.81l-.63-5.11c-.11-.89-.92-1.52-1.81-1.41h0c-.89.11-1.52.92-1.41,1.81Z"/>
        <path class="cls-3" d="m15.18,10.45l.07.54c.04.29.3.49.59.46h0c.29-.04.49-.3.46-.59l-.07-.54c-.04-.29-.3-.49-.59-.46h0c-.29.04-.49.3-.46.59Z"/>
        <path class="cls-3" d="m15.02,9.09h0c.04.29.3.49.59.46h0c.29-.04.49-.3.46-.59h0c-.04-.29-.3-.49-.59-.46h0c-.29.04-.49.3-.46.59Z"/>
        <path class="cls-13" d="m15.61,5.35l1.11,9c.09.77.8,1.32,1.56,1.22h0c.77-.09,1.32-.8,1.22-1.56l-1.11-9c-.09-.77-.8-1.32-1.56-1.22h0c-.77.09-1.32.8-1.22,1.56Z"/>
        <path class="cls-13" d="m17.61,12.9h0c.07.57-.34,1.1-.92,1.17h0c-.57.07-1.1-.34-1.17-.92h0c-.07-.57.34-1.1.92-1.17h0c.57-.07,1.1.34,1.17.92Z"/>
        <path class="cls-13" d="m16.8,6.34h0c.07.57-.34,1.1-.92,1.17h0c-.57.07-1.1-.34-1.17-.92h0c-.07-.57.34-1.1.92-1.17h0c.57-.07,1.1.34,1.17.92Z"/>
        <path class="cls-13" d="m29.01,14.08l1.69,13.72c.16,1.32-.79,2.54-2.11,2.71l-2.83.35c-2.88.36-5.53-1.71-5.89-4.59l-1.34-10.89c-.36-2.88,1.71-5.53,4.59-5.89h0c2.88-.36,5.53,1.71,5.89,4.59Z"/>
        <path class="cls-13" d="m17.71,3.07h0c.11.92.96,1.58,1.88,1.47l4.12-.51c.92-.11,1.58-.96,1.47-1.88h0c-.11-.92-.96-1.58-1.88-1.47l-4.12.51c-.92.11-1.58.96-1.47,1.88Z"/>
        <path class="cls-3" d="m25.04,2.77l2.42,19.63-5,.62c-1.8.22-3.45-1.06-3.67-2.86l-1.92-15.55c-.06-.45.27-.87.72-.92l7.45-.92Z"/>
        <path class="cls-13" d="m26.08,2.39l2.37,19.19-5,.62c-1.8.22-3.45-1.06-3.67-2.86l-1.71-13.89c-.14-1.12.66-2.14,1.78-2.28l6.24-.77Z"/>
        <path class="cls-7" d="m25.81,2.44l1.78,14.41-5,.62c-1.8.22-3.45-1.06-3.67-2.86l-1.27-10.33c-.06-.45.27-.87.72-.92l7.45-.92Z"/>
        <path class="cls-13" d="m24.32,4.96l.83,6.69c.16,1.27,1.32,2.18,2.59,2.02h0c1.27-.16,2.18-1.32,2.02-2.59l-.83-6.69c-.16-1.27-1.32-2.18-2.59-2.02h0c-1.27.16-2.18,1.32-2.02,2.59Z"/>
        <path class="cls-13" d="m21.07,18.19h0c-.33,1.88.93,3.68,2.81,4.01l3.03.53c1.88.33,3.68-.93,4.01-2.81h0c.33-1.88-.93-3.68-2.81-4.01l-3.03-.53c-1.87-.33-3.68.93-4.01,2.81Z"/>
        <path class="cls-13" d="m27.67,12.16l.72,5.82c.27,2.15-1.28,4.14-3.43,4.4h0c-2.15.27-4.14-1.28-4.4-3.43l-.72-5.82c-.27-2.15,1.28-4.14,3.43-4.4h0c2.15-.27,4.14,1.28,4.4,3.43Z"/>
        <path class="cls-8" d="m26.37,12.28l.28,2.26c.08.65-.39,1.25-1.04,1.33h0c-.65.08-1.25-.39-1.33-1.04l-.28-2.26c-.08-.65.39-1.25,1.04-1.33h0c.65-.08,1.25.39,1.33,1.04Z"/>
        <path class="cls-13" d="m21.24,19.51h0c-.33,1.88.93,3.68,2.81,4.01l3.03.53c1.88.33,3.68-.93,4.01-2.81h0c.33-1.88-.93-3.68-2.81-4.01l-3.03-.53c-1.88-.33-3.68.93-4.01,2.81Z"/>
        <path class="cls-8" d="m22.37,19.83h0c-.22,1.27.77,2.51,2.21,2.76l2.32.41c1.44.25,2.79-.58,3.02-1.84h0c.22-1.27-.77-2.51-2.21-2.76l-2.32-.41c-1.44-.25-2.79.58-3.02,1.84Z"/>
        <path class="cls-3" d="m27.61,22.92l-2.32-.41c-1.44-.25-2.43-1.49-2.21-2.76.16-.9.89-1.57,1.82-1.8-1.24-.01-2.33.76-2.53,1.88-.22,1.26.77,2.51,2.21,2.76l2.32.41c.42.07.82.05,1.2-.05-.16,0-.32-.01-.49-.04Z"/>
        <path class="cls-13" d="m24.57,19.3c-.48.06-.81.49-.76.97.06.48.49.81.97.76s.81-.49.76-.97-.49-.81-.97-.76Z"/>
        <path class="cls-13" d="m27.77,20.05c-.41.05-.7.42-.65.83.05.41.42.7.83.65.41-.05.7-.42.65-.83-.05-.41-.42-.7-.83-.65Z"/>
        <path class="cls-3" d="m24.55,14.83h0c.06.5.52.86,1.03.8h0c.5-.06.86-.52.8-1.03h0c-.06-.5-.52-.86-1.03-.8h0c-.5.06-.86.52-.8,1.03Z"/>
        <g>
          <path class="cls-7" d="m25.45,5.35l.56,4.56c.21,1.72,1.79,2.95,3.51,2.74h0c1.72-.21,2.95-1.79,2.74-3.51l-.42-3.43c-.21-1.72-1.79-2.95-3.51-2.74l-1.13.14c-1.1.14-1.89,1.15-1.75,2.25Z"/>
          <path class="cls-2" d="m26.89,6.78l.31,2.52c.13,1.03,1.08,1.77,2.11,1.64h0c1.03-.13,1.77-1.08,1.64-2.11l-.31-2.52c-.13-1.03-1.08-1.77-2.11-1.64h0c-1.03.13-1.77,1.08-1.64,2.11Z"/>
          <path class="cls-3" d="m27.19,5.19c-.69.08-1.17.71-1.09,1.4.08.69.71,1.17,1.4,1.09.69-.08,1.17-.71,1.09-1.4-.08-.69-.71-1.17-1.4-1.09Z"/>
          <path class="cls-3" d="m29.79,8.89c-.47.06-.81.49-.75.96s.49.81.96.75c.47-.06.81-.49.75-.96-.06-.47-.49-.81-.96-.75Z"/>
        </g>
        <path class="cls-8" d="m21.6,12.96l.5,4.05c.03.27.28.47.55.43h0c.27-.03.47-.28.43-.56l-.5-4.05c-.03-.27-.28-.47-.55-.43h0c-.27.03-.47.28-.43.56Z"/>
        <path class="cls-8" d="m23.9,28.46h0c.1.84.87,1.44,1.71,1.33l2.23-.28c.84-.1,1.44-.87,1.33-1.71h0c-.1-.84-.87-1.44-1.71-1.33l-2.23.28c-.84.1-1.44.87-1.33,1.71Z"/>
        <path class="cls-8" d="m21.01,25.98h0c.09.7.73,1.2,1.43,1.12h0c.7-.09,1.2-.73,1.12-1.43h0c-.09-.7-.73-1.2-1.43-1.12h0c-.7.09-1.2.73-1.12,1.43Z"/>
        <path class="cls-13" d="m18.83,1.23h0c.06.51.53.87,1.03.81l1.53-.19c.51-.06.87-.53.81-1.03h0c-.06-.51-.53-.87-1.03-.81l-1.53.19c-.51.06-.87.53-.81,1.03Z"/>
        <path class="cls-8" d="m21.81,1.83h0c.04.3-.18.58-.48.62l-1.76.22c-.3.04-.58-.18-.62-.48h0c-.04-.3.18-.58.48-.62l1.76-.22c.3-.04.58.18.62.48Z"/>
        <path class="cls-8" d="m23.39,1.63h0c.03.25.26.43.51.4h0c.25-.03.43-.26.4-.51h0c-.03-.25-.26-.43-.51-.4h0c-.25.03-.43.26-.4.51Z"/>
        <path class="cls-3" d="m19.65,1.53h0c.05.37.39.64.77.6h0c.37-.05.64-.39.6-.77h0c-.05-.37-.39-.64-.77-.6h0c-.37.05-.64.39-.6.77Z"/>
        <g>
          <path class="cls-13" d="m22.01,11.54h0c-1.03.12-1.98-.62-2.1-1.65l-.37-3.14c-.12-1.03.62-1.98,1.65-2.1h0c1.03-.12,1.98.62,2.1,1.65l.37,3.14c.12,1.03-.62,1.98-1.65,2.1Z"/>
          <path class="cls-4" d="m21.72,9.11h0c-.7.08-1.35-.42-1.43-1.13l-.12-1.04c-.08-.7.42-1.35,1.13-1.43h0c.7-.08,1.35.42,1.43,1.13l.12,1.04c.08.7-.42,1.35-1.13,1.43Z"/>
          <path class="cls-3" d="m22.23,6.37c-.22-.44-.75-.61-1.19-.39-.44.22-.61.75-.39,1.19.22.44.75.61,1.19.39.44-.22.61-.75.39-1.19Z"/>
          <path class="cls-8" d="m22.2,10c-.12-.23-.4-.32-.63-.21-.23.12-.32.4-.21.63.12.23.4.32.63.21.23-.12.32-.4.21-.63Z"/>
        </g>
      </g>
      <g>
        <path class="cls-9" d="m28.3,23.95l.67.54.09.07,2.23,1.81c1.02.83,2.54.67,3.37-.35h0c.83-1.02.67-2.54-.35-3.37l-2.23-1.81-.09-.07-.67-.54c-1.02-.83-2.54-.67-3.37.35h0c-.83,1.02-.67,2.54.35,3.37Z"/>
        <path class="cls-2" d="m26.75,22.69l1.34,1.09c1.02.83,2.54.67,3.37-.35h0c.83-1.02.67-2.54-.35-3.37l-1.34-1.09c-1.02-.83-2.54-.67-3.37.35h0c-.83,1.02-.67,2.54.35,3.37Z"/>
      </g>
      <g>
        <path class="cls-7" d="m27.13,14.07l.46,3.7c.12.96-.57,1.84-1.53,1.96h0c-.96.12-1.84-.57-1.96-1.53l-.46-3.7c-.12-.96.57-1.84,1.53-1.96h0c.96-.12,1.84.57,1.96,1.53Z"/>
        <path class="cls-7" d="m24.2,19.1l.04.33c.28,2.23,2.33,3.84,4.56,3.56h0c2.23-.28,3.84-2.33,3.56-4.56l-.04-.33c-.28-2.23-2.33-3.84-4.56-3.56h0c-2.23.28-3.84,2.33-3.56,4.56Z"/>
        <path class="cls-2" d="m31.41,17.69h0c.17,1.38-.82,2.66-2.21,2.83l-1.41.17c-1.38.17-2.66-.82-2.83-2.21h0c-.17-1.38.82-2.66,2.21-2.83l1.41-.17c1.38-.17,2.66.82,2.83,2.21Z"/>
        <path class="cls-2" d="m26.48,15.63l.3,2.39c.06.5-.3.97-.8,1.03h0c-.5.06-.97-.3-1.03-.8l-.3-2.39c-.06-.5.3-.97.8-1.03h0c.5-.06.97.3,1.03.8Z"/>
        <path class="cls-3" d="m28.19,18.08h0c.09.76-.45,1.47-1.22,1.56h0c-.76.09-1.47-.45-1.56-1.22h0c-.09-.76.45-1.47,1.22-1.56h0c.76-.09,1.47.45,1.56,1.22Z"/>
        <path class="cls-3" d="m30.33,19.69h0c.06.51-.31.99-.82,1.05h0c-.51.06-.99-.31-1.05-.82h0c-.06-.51.31-.99.82-1.05h0c.51-.06.99.31,1.05.82Z"/>
      </g>
      <g>
        <path class="cls-5" d="m4.78,25.56v9.99c0,1.03.85,1.88,1.88,1.88h0c1.03,0,1.88-.85,1.88-1.88v-9.99c0-1.03-.85-1.88-1.88-1.88h0c-1.03,0-1.88.85-1.88,1.88Z"/>
        <path class="cls-5" d="m.78,20.11v3.47c0,.68.56,1.24,1.24,1.24h0c.68,0,1.24-.56,1.24-1.24v-3.47c0-.68-.56-1.24-1.24-1.24h0c-.68,0-1.24.56-1.24,1.24Z"/>
        <path class="cls-5" d="m.78,11.28v.73c0,.68.56,1.24,1.24,1.24h0c.68,0,1.24-.56,1.24-1.24v-.73c0-.68-.56-1.24-1.24-1.24h0c-.68,0-1.24.56-1.24,1.24Z"/>
        <path class="cls-5" d="m4.78,15.7v.73c0,.68.56,1.24,1.24,1.24h0c.68,0,1.24-.56,1.24-1.24v-.73c0-.68-.56-1.24-1.24-1.24h0c-.68,0-1.24.56-1.24,1.24Z"/>
        <path class="cls-5" d="m11.11,23.32v.73c0,.68.56,1.24,1.24,1.24h0c.68,0,1.24-.56,1.24-1.24v-.73c0-.68-.56-1.24-1.24-1.24h0c-.68,0-1.24.56-1.24,1.24Z"/>
      </g>
      <g>
        <path id="ArmOne-2" data-name="ArmOne" class="cls-9" d="m34.46,22.89h0c.95.91.99,2.44.08,3.39l-7.75,8.12c-.91.95-2.44.99-3.39.08h0c-.95-.91-.99-2.44-.08-3.39l7.75-8.12c.91-.95,2.44-.99,3.39-.08Z"/>
        <path class="cls-13" d="m31.77,25.66h0c.21.2.22.53.02.74l-2.14,2.25c-.2.21-.53.22-.74.02h0c-.21-.2-.22-.53-.02-.74l2.14-2.25c.2-.21.53-.22.74-.02Z"/>
        <path class="cls-3" d="m24.21,26.95c-1.75,1.83-1.68,4.73.15,6.48,1.83,1.75,4.73,1.68,6.48-.15s1.03-4.05-.8-5.8-4.08-2.36-5.83-.53Z"/>
        <path class="cls-2" d="m22.59,28.2c-1.86,1.95-1.79,5.04.16,6.91,1.95,1.86,5.04,1.79,6.91-.16,1.86-1.95,1.1-4.32-.85-6.19-1.95-1.86-4.35-2.52-6.22-.56Z"/>
        <path class="cls-7" d="m24.07,29.76c-1.46,1.53-1.57,3.8-.23,5.07s3.6,1.06,5.06-.47c1.46-1.53,1.02-3.23-.31-4.51s-3.06-1.63-4.52-.1Z"/>
        <path class="cls-4" d="m31.01,24.94c-.4.42-.38,1.08.03,1.47s1.08.38,1.47-.03.38-1.08-.03-1.47c-.42-.4-1.08-.38-1.47.03Z"/>
        <g>
          <path class="cls-2" d="m28.31,30.82h0c0,.14-.11.25-.24.25l-2.69.06c-.14,0-.25-.11-.25-.24h0c0-.14.11-.25.24-.25l2.69-.06c.14,0,.25.11.25.24Z"/>
          <path class="cls-2" d="m27.5,32.53h0c0,.14-.11.25-.24.25l-2.69.06c-.14,0-.25-.11-.25-.24h0c0-.14.11-.25.24-.25l2.69-.06c.14,0,.25.11.25.24Z"/>
          <path class="cls-2" d="m28.64,33.67h0c0,.14-.11.25-.24.25l-2.69.06c-.14,0-.25-.11-.25-.24h0c0-.14.11-.25.24-.25l2.69-.06c.14,0,.25.11.25.24Z"/>
        </g>
        <path class="cls-3" d="m23.96,32.65c.71-.75,1.9-.77,2.64-.06.75.71.77,1.9.06,2.64-.71.75-1.89.77-2.64.06-.75-.71-.77-1.9-.06-2.64Z"/>
        <path class="cls-3" d="m24.44,30.62c-.24.25-.63.26-.88.02-.25-.24-.26-.63-.02-.88.24-.25.63-.26.88-.02.25.24.26.63.02.88Z"/>
      </g>
      <g>
        <path class="cls-9" d="m53.05,33.4h0c.37-2.03-.99-4-3.02-4.37l-8.51-1.55c-2.03-.37-4,.99-4.37,3.02h0c-.37,2.03.99,4,3.02,4.37l8.51,1.55c2.03.37,4-.99,4.37-3.02Z"/>
        <path class="cls-2" d="m52.62,35.62c.02-.08.06-.16.07-.25.37-2.03-.99-4-3.02-4.37l-8.51-1.55c-2.03-.37-4,.99-4.37,3.02-.21,1.17.16,2.32.9,3.15h14.93Z"/>
        <path class="cls-3" d="m51.8,35.62c.24-1.51-.78-2.96-2.29-3.23l-8.49-1.55c-1.54-.28-3.02.75-3.3,2.28-.17.94.15,1.86.78,2.5h13.3Z"/>
        <path class="cls-7" d="m51.64,35.62c-.18-1.16-1.07-2.15-2.28-2.37l-8.49-1.55c-1.54-.28-3.02.75-3.3,2.28-.1.57-.03,1.14.19,1.63h13.89Z"/>
        <path class="cls-9" d="m41.75,32.16l.41-2.25c.1-.54-.26-1.06-.8-1.16h0c-.54-.1-1.06.26-1.16.8l-.41,2.25c-.1.54.26,1.06.8,1.16h0c.54.1,1.06-.26,1.16-.8Z"/>
        <path class="cls-9" d="m49.74,33.62l.41-2.25c.1-.54-.26-1.06-.8-1.16h0c-.54-.1-1.06.26-1.16.8l-.41,2.25c-.1.54.26,1.06.8,1.16h0c.54.1,1.06-.26,1.16-.8Z"/>
        <path class="cls-8" d="m50.2,31.13h0c.07-.4-.2-.79-.6-.87l-8.49-1.55c-.4-.07-.79.2-.87.6h0c-.07.4.2.79.6.87l8.49,1.55c.4.07.79-.2.87-.6Z"/>
        <path class="cls-11" d="m44.35,30.06h0c.07-.4-.2-.79-.6-.87l-1.23-.22c-.4-.07-.79.2-.87.6h0c-.07.4.2.79.6.87l1.23.22c.4.07.79-.2.87-.6Z"/>
        <path class="cls-11" d="m48,30.72h0c.07-.4-.2-.79-.6-.87l-.36-.07c-.4-.07-.79.2-.87.6h0c-.07.4.2.79.6.87l.36.07c.4.07.79-.2.87-.6Z"/>
        <path class="cls-2" d="m44.5,32.97h0c-.11.08-.14.23-.06.35l1.53,2.21c.08.11.23.14.35.06h0c.11-.08.14-.23.06-.35l-1.53-2.21c-.08-.11-.23-.14-.35-.06Z"/>
      </g>
      <path class="cls-5" d="m51.07,37.4H1.68c-.93,0-1.68-.76-1.68-1.68h0c0-.93.76-1.68,1.68-1.68h49.38c.93,0,1.68.76,1.68,1.68h0c0,.93-.76,1.68-1.68,1.68Z"/>
      <path class="cls-5" d="m54.07,37.4H4.68c-.93,0-1.68-.76-1.68-1.68h0c0-.93.76-1.68,1.68-1.68h49.38c.93,0,1.68.76,1.68,1.68h0c0,.93-.76,1.68-1.68,1.68Z"/>
    </g>
  </g>
</svg>