<?xml version="1.0" encoding="UTF-8"?>
<svg id="Layer_2" data-name="Layer 2" xmlns="http://www.w3.org/2000/svg" viewBox="0 0 54.94 58.88">
  <defs>
    <style>
      .cls-1 {
        fill: #55236e;
      }

      .cls-2 {
        fill: #a20025;
      }

      .cls-3 {
        fill: #fff;
      }

      .cls-4 {
        fill: #7cff00;
      }

      .cls-5 {
        fill: #ffd285;
      }

      .cls-6 {
        fill: #fd003a;
      }

      .cls-7 {
        fill: #4d4d4d;
      }

      .cls-8 {
        fill: #333;
      }

      .cls-9 {
        fill: #ff6e4c;
      }

      .cls-10 {
        fill: #999;
      }

      .cls-11 {
        fill: #434343;
      }

      .cls-12 {
        fill: #1a1a1a;
      }

      .cls-13 {
        fill: #74001b;
      }

      .cls-14 {
        fill: #666;
      }
    </style>
  </defs>
  <g id="dead">
    <g id="dead2">
      <g>
        <g>
          <path class="cls-12" d="m25.9,11.24l-.58.63-.08.08-3.47,3.8c-.89.97-.82,2.5.15,3.39h0c.97.89,2.5.82,3.39-.15l3.47-3.8.08-.08.58-.63c.89-.97.82-2.5-.15-3.39h0c-.97-.89-2.5-.82-3.39.15Z"/>
          <path class="cls-13" d="m27.25,9.77l-1.17,1.28c-.89.97-.82,2.5.15,3.39h0c.97.89,2.5.82,3.39-.15l1.17-1.28c.89-.97.82-2.5-.15-3.39h0c-.97-.89-2.5-.82-3.39.15Z"/>
        </g>
        <g>
          <path id="ArmOne" class="cls-12" d="m24.53,16.78h0c.8,1.05.61,2.56-.44,3.36l-8.9,6.84c-1.05.8-2.56.61-3.36-.44h0c-.8-1.05-.61-2.56.44-3.36l8.9-6.84c1.05-.8,2.56-.61,3.36.44Z"/>
          <path class="cls-7" d="m21.97,18.71h0c.17.23.13.56-.1.73l-2.46,1.89c-.23.18-.56.13-.73-.1h0c-.17-.23-.13-.56.1-.73l2.46-1.89c.23-.17.56-.13.73.1Z"/>
          <path class="cls-3" d="m13.77,19.23c-2.01,1.54-2.38,4.42-.84,6.42,1.54,2.01,4.42,2.38,6.42.84,2.01-1.54,1.64-3.85.1-5.85-1.54-2.01-3.67-2.95-5.68-1.41Z"/>
          <path class="cls-2" d="m11.99,20.21c-2.14,1.64-2.54,4.71-.9,6.85s4.71,2.54,6.85.9c2.14-1.64,1.75-4.1.11-6.24s-3.92-3.15-6.06-1.51Z"/>
          <path class="cls-6" d="m12.41,21.58c-1.33,1.02-1.57,2.92-.56,4.24,1.02,1.33,2.92,1.57,4.24.56,1.33-1.02,1.57-2.92.56-4.24-1.02-1.33-2.92-1.57-4.24-.56Z"/>
          <path class="cls-12" d="m12.72,21.99c-1.33,1.02-1.57,2.92-.56,4.24,1.02,1.33,2.92,1.57,4.24.56s1.57-2.92.56-4.24c-1.02-1.33-2.92-1.57-4.24-.56Z"/>
          <path class="cls-7" d="m13.4,22.87c-.84.65-1,1.85-.35,2.69.65.84,1.85,1,2.69.35s1-1.85.35-2.69c-.65-.84-1.85-1-2.69-.35Z"/>
          <path class="cls-12" d="m14.06,23.73c-.36.28-.43.8-.15,1.17.28.36.8.43,1.17.15.36-.28.43-.8.15-1.17-.28-.36-.8-.43-1.17-.15Z"/>
        </g>
      </g>
      <g>
        <g>
          <path class="cls-8" d="m33.56,25.74l.22-2.27c.05-.55-.35-1.04-.9-1.09h0c-.55-.05-1.04.35-1.09.9l-.22,2.27c-.05.55.35,1.04.9,1.09h0c.55.05,1.04-.35,1.09-.9Z"/>
          <path class="cls-8" d="m41.65,26.51l.22-2.27c.05-.55-.35-1.04-.9-1.09h0c-.55-.05-1.04.35-1.09.9l-.22,2.27c-.05.55.35,1.04.9,1.09h0c.55.05,1.04-.35,1.09-.9Z"/>
          <path class="cls-7" d="m41.89,23.98h0c.04-.41-.26-.77-.67-.81l-8.6-.82c-.41-.04-.77.26-.81.67h0c-.04.41.26.77.67.81l8.6.82c.41.04.77-.26.81-.67Z"/>
          <path class="cls-10" d="m35.98,23.42h0c.04-.41-.26-.77-.67-.81l-1.25-.12c-.41-.04-.77.26-.81.67h0c-.04.41.26.77.67.81l1.25.12c.41.04.77-.26.81-.67Z"/>
          <path class="cls-10" d="m39.67,23.77h0c.04-.41-.26-.77-.67-.81l-.36-.03c-.41-.04-.77.26-.81.67h0c-.04.41.26.77.67.81l.36.03c.41.04.77-.26.81-.67Z"/>
        </g>
        <path class="cls-6" d="m43.82,28.43h0c-.15,1.55-1.54,2.71-3.1,2.56l-8.59-.82c-1.55-.15-2.71-1.54-2.56-3.1h0c.15-1.55,1.54-2.71,3.1-2.56l8.59.82c1.55.15,2.71,1.54,2.56,3.1Z"/>
        <path class="cls-2" d="m44.47,30.33h0c-.2,2.06-2.04,3.58-4.1,3.38l-8.61-.82c-2.06-.2-3.58-2.04-3.38-4.1h0c.2-2.06,2.04-3.58,4.1-3.38l8.61.82c2.06.2,3.58,2.04,3.38,4.1Z"/>
        <path class="cls-12" d="m44.32,31.85h0c-.2,2.06-2.04,3.58-4.1,3.38l-8.61-.82c-2.06-.2-3.58-2.04-3.38-4.1h0c.2-2.06,2.04-3.58,4.1-3.38l8.61.82c2.06.2,3.58,2.04,3.38,4.1Z"/>
        <path class="cls-7" d="m42.39,33.39h0c-.04.41-.4.71-.81.67l-6.31-.6c-.41-.04-.71-.4-.67-.81h0c.04-.41.4-.71.81-.67l6.31.6c.41.04.71.4.67.81Z"/>
        <path class="cls-10" d="m37.33,32.91h0c-.04.41-.4.71-.81.67l-1.25-.12c-.41-.04-.71-.4-.67-.81h0c.04-.41.4-.71.81-.67l1.25.12c.41.04.71.4.67.81Z"/>
        <path class="cls-10" d="m41.02,33.26h0c-.04.41-.4.71-.81.67l-.36-.03c-.41-.04-.71-.4-.67-.81h0c.04-.41.4-.71.81-.67l.36.03c.41.04.71.4.67.81Z"/>
        <path class="cls-7" d="m42.41,29.81h0c-.04.41-.4.71-.81.67l-6.02-.57c-.41-.04-.71-.4-.67-.81h0c.04-.41.4-.71.81-.67l6.02.57c.41.04.71.4.67.81Z"/>
        <path class="cls-10" d="m39.07,29.5h0c-.04.41-.4.71-.81.67l-1.25-.12c-.41-.04-.71-.4-.67-.81h0c.04-.41.4-.71.81-.67l1.25.12c.41.04.71.4.67.81Z"/>
        <path class="cls-10" d="m41.84,29.76h0c-.04.41-.4.71-.81.67l-.36-.03c-.41-.04-.71-.4-.67-.81h0c.04-.41.4-.71.81-.67l.36.03c.41.04.71.4.67.81Z"/>
        <path class="cls-3" d="m31.56,25.67c-.34-.03-.59-.34-.56-.68.03-.34.34-.59.68-.56.34.03.59.34.56.68-.03.34-.34.59-.68.56Z"/>
        <path class="cls-7" d="m31.89,28.24c-1.33-.13-2.5.85-2.63,2.17-.13,1.33.85,2.5,2.17,2.63,1.33.13,2.5-.85,2.63-2.17.13-1.33-.85-2.5-2.17-2.63Z"/>
        <path class="cls-12" d="m31.78,29.35c-.71-.07-1.35.46-1.42,1.17-.07.71.46,1.35,1.17,1.42.71.07,1.35-.46,1.42-1.17.07-.71-.46-1.35-1.17-1.42Z"/>
        <path class="cls-3" d="m41.66,26.63c-.34-.03-.59-.33-.56-.68.03-.34.34-.59.68-.56.34.03.59.34.56.68-.03.34-.34.59-.68.56Z"/>
      </g>
      <g>
        <g id="ShinTwo">
          <path class="cls-12" d="m50.64,40.9h0c-.94.87-2.42.82-3.29-.12l-7.03-7.58c-.87-.94-.82-2.42.12-3.29h0c.94-.87,2.42-.82,3.29.12l7.03,7.58c.87.94.82,2.42-.12,3.29Z"/>
        </g>
        <path class="cls-11" d="m42.87,30.85c-.42-.46-1.14-.49-1.6-.06-.46.43-.49,1.14-.06,1.6.42.46,1.14.49,1.6.06.46-.43.49-1.14.06-1.6Z"/>
      </g>
      <g>
        <g id="ShinTwo-2" data-name="ShinTwo">
          <path class="cls-8" d="m21.11,56.77h0c-1.22-.4-1.88-1.73-1.48-2.94l3.26-9.82c.4-1.22,1.73-1.88,2.94-1.48h0c1.22.4,1.88,1.73,1.48,2.94l-3.26,9.82c-.4,1.22-1.73,1.88-2.94,1.48Z"/>
        </g>
        <path class="cls-7" d="m21.23,54.74h0c-.28-.09-.43-.39-.33-.67l3.29-9.89c.09-.28.39-.43.67-.33h0c.28.09.43.39.33.67l-3.29,9.89c-.09.28-.39.43-.67.33Z"/>
        <path class="cls-3" d="m23.44,48.1h0c-.28-.09-.43-.39-.33-.67l.56-1.69c.09-.28.39-.43.67-.33h0c.28.09.43.39.33.67l-.56,1.69c-.09.28-.39.43-.67.33Z"/>
        <path class="cls-3" d="m21.9,52.64h0c-.29-.1-.45-.41-.35-.7l.3-.89c.1-.29.41-.45.7-.35h0c.29.1.45.41.35.7l-.3.89c-.1.29-.41.45-.7.35Z"/>
      </g>
      <g>
        <path class="cls-6" d="m54.53,37.2c-2.29-1.77-5.44-1.24-7.21,1.05-1.77,2.29-1.5,5.47.79,7.25l6.42-8.3Z"/>
        <path class="cls-2" d="m53.29,38.8c-.2-.3-.44-.59-.74-.82-1.49-1.15-3.63-.88-4.79.61-1.15,1.49-.88,3.63.61,4.79.3.24.64.4.98.51l3.94-5.09Z"/>
        <path class="cls-12" d="m47.12,40.26h8.38c.59,0,1.06.48,1.06,1.06v.03c0,.59-.48,1.06-1.06,1.06h-8.37c-.59,0-1.06-.48-1.06-1.06v-.03c0-.59.48-1.06,1.06-1.06Z" transform="translate(-12.79 56.61) rotate(-52.26)"/>
        <path class="cls-3" d="m51.33,36.97c.54.42.64,1.2.22,1.74-.42.54-1.2.64-1.74.22-.54-.42-.64-1.2-.22-1.74s1.2-.64,1.74-.22Z"/>
        <path class="cls-3" d="m47.98,39.28c-.28-.22-.33-.62-.11-.89.22-.28.62-.33.89-.11s.33.62.11.89c-.22.28-.62.33-.89.11Z"/>
        <path class="cls-7" d="m48.9,43.79h0c-.23.3-.66.35-.96.12h0c-.3-.23-.35-.66-.12-.96h0c.23-.3.66-.35.96-.12h0c.3.23.35.66.12.96Z"/>
        <path class="cls-7" d="m53.21,38.22h0c-.23.3-.66.35-.96.12h0c-.3-.23-.35-.66-.12-.96h0c.23-.3.66-.35.96-.12h0c.3.23.35.66.12.96Z"/>
        <path class="cls-7" d="m51.78,40.08h0c-.23.3-.66.35-.96.12h0c-.3-.23-.35-.66-.12-.96h0c.23-.3.66-.35.96-.12h0c.3.23.35.66.12.96Z"/>
        <path class="cls-7" d="m50.34,41.93h0c-.23.3-.66.35-.96.12h0c-.3-.23-.35-.66-.12-.96h0c.23-.3.66-.35.96-.12h0c.3.23.35.66.12.96Z"/>
      </g>
      <g>
        <path class="cls-6" d="m27.35,57.82c0-2.9-2.35-5.06-5.25-5.06s-5.25,2.16-5.25,5.06h10.5Z"/>
        <path class="cls-2" d="m25.32,57.82c.12-.34.19-.71.19-1.09,0-1.88-1.53-3.41-3.41-3.41s-3.41,1.53-3.41,3.41c0,.38.08.75.19,1.09h6.44Z"/>
        <rect class="cls-12" x="16.86" y="56.73" width="10.5" height="2.15" rx="1.06" ry="1.06"/>
        <circle class="cls-3" cx="24.33" cy="55.14" r="1.24"/>
        <circle class="cls-3" cx="22.33" cy="53.91" r=".64"/>
        <path class="cls-7" d="m18.69,57.4h0c-.38,0-.69-.31-.69-.69h0c0-.38.31-.69.69-.69h0c.38,0,.69.31.69.69h0c0,.38-.31.69-.69.69Z"/>
        <path class="cls-7" d="m25.74,57.4h0c-.38,0-.69-.31-.69-.69h0c0-.38.31-.69.69-.69h0c.38,0,.69.31.69.69h0c0,.38-.31.69-.69.69Z"/>
        <path class="cls-7" d="m23.39,57.4h0c-.38,0-.69-.31-.69-.69h0c0-.38.31-.69.69-.69h0c.38,0,.69.31.69.69h0c0,.38-.31.69-.69.69Z"/>
        <path class="cls-7" d="m21.04,57.4h0c-.38,0-.69-.31-.69-.69h0c0-.38.31-.69.69-.69h0c.38,0,.69.31.69.69h0c0,.38-.31.69-.69.69Z"/>
      </g>
      <g>
        <path class="cls-12" d="m12.79,32.55c-.1.13-.27.21-.45.19-.23-.02-5.77-.63-6.74-3.96-.74-2.53,1.42-5.81,6.42-9.75.22-.17.53-.13.7.08.17.22.13.53-.08.7-4.58,3.61-6.68,6.62-6.08,8.69.78,2.69,5.83,3.24,5.88,3.25.27.03.47.27.45.55-.01.1-.05.18-.1.25Z"/>
        <g>
          <g>
            <path class="cls-12" d="m17.83,41.3l-1.4,1.81c-.34.43-.26,1.07.18,1.4h0c.43.34,1.07.26,1.4-.18l1.4-1.81c.34-.43.26-1.07-.18-1.4h0c-.43-.34-1.07-.26-1.4.18Z"/>
            <path class="cls-12" d="m11.4,36.32l-1.4,1.81c-.34.43-.26,1.07.18,1.4h0c.43.34,1.07.26,1.4-.18l1.4-1.81c.34-.43.26-1.07-.18-1.4h0c-.43-.34-1.07-.26-1.4.18Z"/>
            <path class="cls-7" d="m9.85,38.33h0c-.25.32-.19.79.13,1.05l6.83,5.28c.32.25.79.19,1.05-.13h0c.25-.32.19-.79-.13-1.05l-6.83-5.28c-.32-.25-.79-.19-1.05.13Z"/>
            <path class="cls-10" d="m14.55,41.97h0c-.25.32-.19.79.13,1.05l.99.77c.32.25.79.19,1.05-.13h0c.25-.32.19-.79-.13-1.05l-.99-.77c-.32-.25-.79-.19-1.05.13Z"/>
            <path class="cls-10" d="m11.62,39.7h0c-.25.32-.19.79.13,1.05l.29.22c.32.25.79.19,1.05-.13h0c.25-.32.19-.79-.13-1.05l-.29-.22c-.32-.25-.79-.19-1.05.13Z"/>
          </g>
          <path class="cls-12" d="m25.88,38.93h0c.57-.74.43-1.81-.3-2.38l-8.47-6.55c-1.63-1.26-4.01-.96-5.27.67h0c-1.26,1.63-.96,4.01.67,5.27l5.21,4.03c2.53,1.96,6.2,1.49,8.16-1.04Z"/>
          <path class="cls-3" d="m23.42,40.76h0c.48-.62.37-1.53-.26-2.01l-7.94-6.14c-1.23-.96-3.03-.73-3.98.51h0c-.96,1.23-.73,3.03.51,3.98l5.71,4.42c1.85,1.43,4.53,1.09,5.96-.76Z"/>
          <path class="cls-14" d="m24,40.01h0c.48-.62.37-1.53-.26-2.01l-7.94-6.14c-1.23-.96-3.03-.73-3.98.51h0c-.96,1.23-.73,3.03.51,3.98l5.71,4.42c1.85,1.43,4.53,1.09,5.96-.76Z"/>
          <path class="cls-3" d="m13.04,33.72c-.27-.21-.66-.16-.87.11-.21.27-.16.66.11.87.27.21.66.16.87-.11.21-.27.16-.66-.11-.87Z"/>
          <path class="cls-3" d="m20.9,38.84c-.66-.51-1.6-.39-2.11.27-.51.66-.39,1.6.27,2.11.66.51,1.6.39,2.11-.27s.39-1.6-.27-2.11Z"/>
          <path class="cls-12" d="m20.65,39.15c-.66-.51-1.6-.39-2.11.27-.51.66-.39,1.6.27,2.11.66.51,1.6.39,2.11-.27.51-.66.39-1.6-.27-2.11Z"/>
          <path class="cls-4" d="m20.25,39.68c-.47-.36-1.13-.27-1.49.19-.36.47-.27,1.13.19,1.5.47.36,1.13.27,1.49-.19s.27-1.13-.19-1.5Z"/>
          <path class="cls-12" d="m18.99,31.2l-3.37,4.35c-.32.41-.92.49-1.33.17h0c-.41-.32-.49-.92-.17-1.33l3.37-4.35c.32-.41.92-.49,1.33-.17h0c.41.32.49.92.17,1.33Z"/>
          <path class="cls-12" d="m22.08,33.59l-3.37,4.35c-.32.41-.92.49-1.33.17h0c-.41-.32-.49-.92-.17-1.33l3.37-4.35c.32-.41.92-.49,1.33-.17h0c.41.32.49.92.17,1.33Z"/>
          <path class="cls-7" d="m18.37,36.84c-.24-.19-.59-.14-.78.1-.19.24-.14.59.1.78.24.19.59.14.78-.1.19-.24.14-.59-.1-.78Z"/>
          <path class="cls-7" d="m15.28,34.45c-.24-.19-.59-.14-.78.1-.19.24-.14.59.1.78.24.19.59.14.78-.1.19-.24.14-.59-.1-.78Z"/>
          <path class="cls-10" d="m14.64,35.28c-.24-.19-.59-.14-.78.1-.19.24-.14.59.1.78.24.19.59.14.78-.1.19-.24.14-.59-.1-.78Z"/>
          <path class="cls-10" d="m17.73,37.67c-.24-.19-.59-.14-.78.1-.19.24-.14.59.1.78.24.19.59.14.78-.1.19-.24.14-.59-.1-.78Z"/>
        </g>
        <g>
          <path class="cls-12" d="m31.24,35.55h0c-2.81,3.63-8.09,4.31-11.72,1.49l-5.25-4.07c-2.06-1.59-2.44-4.58-.85-6.64l4.44-5.73c1.59-2.06,4.58-2.44,6.64-.85l5.25,4.07c3.63,2.81,4.31,8.09,1.49,11.72Z"/>
          <path class="cls-7" d="m23.76,31.98h0c-.44.56-1.25.67-1.81.23l-3.19-2.47c-.56-.44-.67-1.25-.23-1.81h0c.44-.56,1.25-.67,1.81-.23l3.19,2.47c.56.44.67,1.25.23,1.81Z"/>
          <path class="cls-7" d="m27.65,26.95h0c-.44.56-1.25.67-1.81.23l-3.19-2.47c-.56-.44-.67-1.25-.23-1.81h0c.44-.56,1.25-.67,1.81-.23l3.19,2.47c.56.44.67,1.25.23,1.81Z"/>
          <path class="cls-2" d="m20.91,28.89l-1.83,2.37c-.65.84-1.88,1-2.72.35h0c-1.75-1.36-2.08-3.9-.72-5.65l.56-.72c.65-.84,1.88-1,2.72-.35l1.65,1.28c.84.65,1,1.88.35,2.72Z"/>
          <path class="cls-2" d="m25.8,22.57l-1.83,2.37c-.65.84-1.88,1-2.72.35l-1.65-1.28c-.84-.65-1-1.88-.35-2.72l.96-1.24c1.13-1.46,3.26-1.73,4.72-.6l.52.41c.84.65,1,1.88.35,2.72Z"/>
          <path class="cls-6" d="m24.24,23.05l-3.9.5c-.3.04-.58-.18-.62-.48h0c-.04-.3.18-.58.48-.62l3.9-.5c.3-.04.58.18.62.48h0c.04.3-.18.58-.48.61Z"/>
          <path class="cls-6" d="m23.51,20.83l-1.73.22c-.3.04-.58-.18-.62-.48h0c-.04-.3.18-.58.48-.62l1.73-.22c.3-.04.58.18.62.48h0c.04.3-.18.58-.48.62Z"/>
          <path class="cls-6" d="m19.46,29.23l-3,.38c-.3.04-.58-.18-.61-.48h0c-.04-.3.18-.58.48-.62l3-.38c.3-.04.58.18.61.48h0c.04.3-.18.58-.48.62Z"/>
          <path class="cls-6" d="m18.73,27.01l-1.73.22c-.3.04-.58-.18-.62-.48h0c-.04-.3.18-.58.48-.62l1.73-.22c.3-.04.58.18.62.48h0c.04.3-.18.58-.48.62Z"/>
          <path class="cls-2" d="m28.83,26.19l-5.98,7.72c-.29.38-.85.45-1.23.16h0c-.38-.29-.45-.85-.16-1.23l5.98-7.72c.29-.38.85-.45,1.23-.16h0c.38.29.45.85.16,1.23Z"/>
          <path class="cls-7" d="m25.6,33.75h0c-.25.33-.72.39-1.05.13l-1.55-1.2c-.33-.25-.39-.72-.13-1.05h0c.25-.33.72-.39,1.05-.13l1.55,1.2c.33.25.39.72.13,1.05Z"/>
          <path class="cls-7" d="m29.17,29.14h0c-.25.33-.72.39-1.05.13l-1.55-1.2c-.33-.25-.39-.72-.13-1.05h0c.25-.33.72-.39,1.05-.13l1.55,1.2c.33.25.39.72.13,1.05Z"/>
          <path class="cls-7" d="m27.48,35.21c.49.38.58,1.08.2,1.57s-1.08.58-1.57.2c-.49-.38-.58-1.08-.2-1.57s1.08-.58,1.57-.2Z"/>
          <path class="cls-7" d="m31.78,29c.31.24.37.7.13,1.01s-.7.37-1.01.13-.37-.7-.13-1.01.7-.37,1.01-.13Z"/>
          <path class="cls-3" d="m16.74,28.55c.29.22.34.63.12.92-.22.29-.63.34-.92.12-.29-.22-.34-.63-.12-.92.22-.29.63-.34.92-.12Z"/>
          <path class="cls-3" d="m17.35,26.14c.28.22.33.62.12.91-.22.28-.62.33-.91.12-.28-.22-.33-.62-.12-.91.22-.28.62-.33.91-.12Z"/>
          <path class="cls-2" d="m31.16,30.1c-1.16-.9-3.01-.47-4.11.96-1.11,1.43-1.06,3.32.11,4.22,1.16.9,3.01.47,4.11-.96,1.11-1.43,1.06-3.32-.11-4.22Z"/>
          <path class="cls-3" d="m20.58,22.45c.29.22.34.63.12.92-.22.29-.63.34-.92.12-.29-.22-.34-.63-.12-.92.22-.29.63-.34.92-.12Z"/>
          <path class="cls-3" d="m22.11,20c.28.22.33.62.12.91-.22.28-.62.33-.91.12-.28-.22-.33-.62-.12-.91.22-.28.62-.33.91-.12Z"/>
          <path class="cls-2" d="m31.32,27.18l-7.69,9.93c-.22.28-.63.34-.91.12h0c-.28-.22-.34-.63-.12-.91l7.69-9.93c.22-.28.63-.34.91-.12h0c.28.22.34.63.12.91Z"/>
          <path class="cls-6" d="m29.65,29.33l-1.38,1.78c-.22.28-.63.34-.91.12h0c-.28-.22-.34-.63-.12-.91l1.38-1.78c.22-.28.63-.34.91-.12h0c.28.22.34.63.12.91Z"/>
          <path class="cls-6" d="m25.79,34.32l-.33.42c-.22.28-.63.34-.91.12h0c-.28-.22-.34-.63-.12-.91l.33-.42c.22-.28.63-.34.91-.12h0c.28.22.34.63.12.91Z"/>
          <path class="cls-3" d="m29.54,28.41c.28.22.34.63.12.91-.22.28-.63.34-.91.12s-.34-.63-.12-.91c.22-.28.63-.34.91-.12Z"/>
          <path class="cls-3" d="m25.78,33.26c.28.22.34.63.12.91-.22.28-.63.34-.91.12-.28-.22-.34-.63-.12-.91.22-.28.63-.34.91-.12Z"/>
          <path class="cls-6" d="m30.81,32.02c-.56-.43-1.46-.2-2.02.51-.55.72-.55,1.65,0,2.08s1.46.2,2.02-.51c.55-.72.55-1.65,0-2.08Z"/>
          <path class="cls-6" d="m29.97,31c.22.17.26.49.09.71-.17.22-.49.26-.71.09s-.26-.49-.09-.71c.17-.22.49-.26.71-.09Z"/>
        </g>
      </g>
      <g>
        <path class="cls-12" d="m1.86,16.72S-.06,17,0,20.1c0,.27.3.44.53.3.57-.38,1.73-.81,3.78-.45l-2.45-3.23Z"/>
        <path class="cls-12" d="m2.45,19.1s-1.93.2-2.01,3.3c0,.27.28.46.52.32.59-.35,1.76-.74,3.8-.29l-2.31-3.33Z"/>
        <path class="cls-12" d="m7.35,13.04s.32-1.92-2.65-2.81c-.26-.08-.52.15-.44.41.18.66.24,1.89-.73,3.74l3.82-1.34Z"/>
        <path class="cls-12" d="m1.2,17.35s4.54-6.05,5.2-8.87c.09-.38.52-.56.84-.34.98.68,2.55,1.99,2.58,3.38L1.2,17.35Z"/>
        <path class="cls-5" d="m13.4,21.82h0c-1.87,2.42-5.38,2.86-7.8.99l-2.35-1.82c-1.48-1.14-1.75-3.29-.61-4.76l2.78-3.59c1.14-1.48,3.29-1.75,4.76-.61l2.18,1.68c2.51,1.94,2.98,5.59,1.03,8.1Z"/>
        <path class="cls-12" d="m5.99,23.4h0c-.51.66-1.46.78-2.11.27l-1.96-1.52c-.66-.51-.78-1.46-.27-2.11h0c.51-.66,1.46-.78,2.11-.27l1.96,1.52c.66.51.78,1.46.27,2.11Z"/>
        <path class="cls-1" d="m9.95,15.2c-1.58-1.23-3.86-.94-5.09.65s-.94,3.86.65,5.09c1.58,1.23,3.86.94,5.09-.65,1.23-1.58.94-3.86-.65-5.09Z"/>
        <path class="cls-12" d="m9.44,12.8l-5.29,6.84c-.63.81-1.81.96-2.62.33h0c-.81-.63-.96-1.81-.33-2.62l5.29-6.84c.63-.81,1.81-.96,2.62-.33h0c.81.63.96,1.81.33,2.62Z"/>
        <g>
          <path class="cls-5" d="m5.47,20.06c.67.52.88,1.38.36,2.05-.52.67-1.58.91-2.25.39s-.8-1.49-.28-2.16,1.49-.8,2.16-.28Z"/>
          <path class="cls-9" d="m5.02,20.65c.35.27.41.77.14,1.12s-.77.41-1.12.14c-.35-.27-.41-.77-.14-1.12s.77-.41,1.12-.14Z"/>
        </g>
        <path class="cls-9" d="m11.73,18.25h0c-.38.49-1.09.58-1.58.2l-.88-.68c-.49-.38-.58-1.09-.2-1.58h0c.38-.49,1.09-.58,1.58-.2l.88.68c.49.38.58,1.09.2,1.58Z"/>
        <path class="cls-14" d="m8.14,11.65l-2.29,2.95c-.21.27-.61.32-.88.11h0c-.27-.21-.32-.61-.11-.88l2.29-2.95c.21-.27.61-.32.88-.11h0c.27.21.32.61.11.88Z"/>
        <path class="cls-3" d="m7.42,11.56c-.27-.21-.67-.16-.88.11-.21.27-.16.67.11.88.27.21.67.16.88-.11.21-.27.16-.67-.11-.88Z"/>
        <path class="cls-14" d="m4.21,16.72l-.71.92c-.21.27-.61.32-.88.11h0c-.27-.21-.32-.61-.11-.88l.71-.92c.21-.27.61-.32.88-.11h0c.27.21.32.61.11.88Z"/>
        <g>
          <path class="cls-2" d="m12.72,15.66l-5.29,4.84c-.8.73-2.06.68-2.79-.13h0c-.73-.8-.68-2.06.13-2.79l5.29-4.84c.8-.73,2.06-.68,2.79.13h0c.73.8.68,2.06-.13,2.79Z"/>
          <path class="cls-6" d="m7.69,19.31c-.52.47-1.33.44-1.8-.08-.47-.52-.44-1.33.08-1.8l4.56-4.16c.52-.47,1.33-.44,1.8.08.47.52.44,1.33-.08,1.8l-4.56,4.16Z"/>
        </g>
        <path class="cls-12" d="m16.01,23.91c2.24-2.9,1.96-6.96-.53-9.51-.38-.4-1.04-.35-1.38.09l-7.7,9.95c-.34.44-.22,1.08.26,1.35,3.1,1.76,7.1,1.02,9.34-1.88Z"/>
        <path class="cls-3" d="m15.18,21.85c1.34-1.73,1.17-4.15-.31-5.67-.23-.24-.62-.21-.82.05l-4.59,5.93c-.2.26-.13.64.16.81,1.85,1.05,4.23.61,5.57-1.12Z"/>
        <path class="cls-7" d="m15.63,22.2c1.34-1.73,1.17-4.15-.31-5.67-.23-.24-.62-.21-.82.05l-4.59,5.93c-.2.26-.13.64.16.81,1.85,1.05,4.23.61,5.57-1.12Z"/>
        <path class="cls-12" d="m12.24,21.37c.2.15.23.44.08.63-.15.2-.44.23-.63.08-.2-.15-.23-.44-.08-.63.15-.2.44-.23.63-.08Z"/>
        <path class="cls-12" d="m13.07,20.29c.2.15.23.44.08.63s-.44.23-.63.08c-.2-.15-.23-.44-.08-.63.15-.2.44-.23.63-.08Z"/>
        <path class="cls-12" d="m13.9,19.22c.2.15.23.44.08.63-.15.2-.44.23-.63.08-.2-.15-.23-.44-.08-.63s.44-.23.63-.08Z"/>
        <path class="cls-12" d="m14.73,18.15c.2.15.23.44.08.63-.15.2-.44.23-.63.08-.2-.15-.23-.44-.08-.63.15-.2.44-.23.63-.08Z"/>
        <path class="cls-12" d="m14.15,21.13c.2.15.23.44.08.63-.15.2-.44.23-.63.08-.2-.15-.23-.44-.08-.63s.44-.23.63-.08Z"/>
        <path class="cls-12" d="m14.98,20.06c.2.15.23.44.08.63-.15.2-.44.23-.63.08s-.23-.44-.08-.63c.15-.2.44-.23.63-.08Z"/>
        <path class="cls-7" d="m8.87,24.22l-.67.87c-.13.17-.39.21-.56.07h0c-.17-.13-.21-.39-.07-.56l.67-.87c.13-.17.39-.21.56-.07h0c.17.13.21.39.07.56Z"/>
        <path class="cls-7" d="m10.48,25.11l-.24.31c-.15.2-.44.23-.63.08h0c-.2-.15-.23-.44-.08-.63l.24-.31c.15-.2.44-.23.63-.08h0c.2.15.23.44.08.63Z"/>
        <polygon class="cls-12" points="5.02 16.92 8.16 18.78 9.62 15.63 11.87 15.8 9.24 14.77 7.9 17.63 5.5 15.57 5.02 16.92"/>
      </g>
      <g>
        <path class="cls-12" d="m16.41,12.33h0c-.32.43-.23,1.04.19,1.37l2.63,1.97c.43.32,1.04.23,1.37-.19h0c.32-.43.23-1.04-.19-1.37l-2.63-1.97c-.43-.32-1.04-.23-1.37.2Z"/>
        <path class="cls-12" d="m20.33,11.91h0c-.43-.32-1.04-.23-1.37.19l-1.97,2.63c-.32.43-.23,1.04.19,1.37h0c.43.32,1.04.23,1.37-.19l1.97-2.63c.32-.43.23-1.04-.19-1.37Z"/>
        <path class="cls-4" d="m24.27,2.14l-3.09,4.12c-.54.71-.39,1.74.32,2.28h0c.71.54,1.74.39,2.28-.32l3.09-4.12c.54-.71.39-1.74-.32-2.28h0c-.71-.54-1.74-.39-2.28.32Z"/>
        <path class="cls-3" d="m22.5,4.49l-.33.44c-.17.23-.13.56.11.74h0c.23.17.56.13.74-.11l.33-.44c.17-.23.13-.56-.11-.74h0c-.23-.17-.56-.13-.74.11Z"/>
        <path class="cls-3" d="m23.33,3.39h0c-.17.23-.13.56.11.74h0c.23.17.56.13.74-.11h0c.17-.23.13-.56-.11-.74h0c-.23-.17-.56-.13-.74.11Z"/>
        <path class="cls-12" d="m26.35,1.11l-5.44,7.25c-.46.62-.34,1.5.28,1.96h0c.62.46,1.5.34,1.96-.28l5.44-7.26c.46-.62.34-1.5-.28-1.96h0c-.62-.46-1.5-.34-1.96.28Z"/>
        <path class="cls-12" d="m22.55,7.93h0c-.35.46-1.01.56-1.47.21h0c-.46-.35-.56-1.01-.21-1.47h0c.35-.46,1.01-.56,1.47-.21h0c.46.35.56,1.01.21,1.47Z"/>
        <path class="cls-12" d="m26.52,2.64h0c-.35.46-1.01.56-1.47.21h0c-.46-.35-.56-1.01-.21-1.47h0c.35-.46,1.01-.56,1.47-.21h0c.46.35.56,1.01.21,1.47Z"/>
        <path class="cls-12" d="m29.95,16.69l-8.3,11.06c-.8,1.07-2.33,1.29-3.4.48l-2.28-1.71c-2.32-1.74-2.8-5.07-1.05-7.39l6.58-8.78c1.74-2.32,5.07-2.8,7.39-1.05h0c2.32,1.74,2.8,5.07,1.05,7.39Z"/>
        <path class="cls-12" d="m29.45.92h0c-.56.74-.41,1.81.34,2.36l3.32,2.49c.74.56,1.81.41,2.36-.34h0c.56-.74.41-1.81-.34-2.36l-3.32-2.49c-.74-.56-1.81-.41-2.36.34Z"/>
        <path class="cls-3" d="m34.93,5.79l-11.87,15.82-4.03-3.03c-1.45-1.09-1.75-3.15-.66-4.61L27.77,1.46c.27-.37.79-.44,1.16-.17l6,4.5Z"/>
        <path class="cls-12" d="m35.94,6.23l-11.6,15.46-4.03-3.03c-1.45-1.09-1.75-3.15-.66-4.61L28.05,2.87c.68-.9,1.96-1.09,2.86-.41l5.03,3.77Z"/>
        <path class="cls-6" d="m35.72,6.09l-8.72,11.61-4.03-3.02c-1.45-1.09-1.75-3.15-.66-4.61L28.56,1.75c.27-.37.79-.44,1.16-.17l6,4.5Z"/>
        <path class="cls-12" d="m32.89,6.87l-4.04,5.39c-.77,1.02-.56,2.48.46,3.25h0c1.02.77,2.48.56,3.25-.46l4.04-5.39c.77-1.02.56-2.48-.46-3.25h0c-1.02-.77-2.48-.56-3.25.46Z"/>
        <path class="cls-12" d="m21.38,14.14h0c-1.54,1.12-1.88,3.3-.76,4.84l1.81,2.49c1.12,1.54,3.3,1.88,4.84.76h0c1.54-1.12,1.88-3.3.76-4.84l-1.81-2.49c-1.12-1.54-3.3-1.88-4.84-.76Z"/>
        <path class="cls-12" d="m30.31,14.38l-3.52,4.69c-1.3,1.74-3.79,2.09-5.53.79h0c-1.74-1.3-2.09-3.79-.79-5.53l3.52-4.69c1.3-1.74,3.79-2.09,5.53-.79h0c1.74,1.3,2.09,3.79.79,5.53Z"/>
        <path class="cls-7" d="m29.29,13.56l-1.37,1.82c-.39.53-1.15.63-1.67.24h0c-.53-.39-.63-1.15-.24-1.67l1.37-1.82c.39-.53,1.15-.63,1.67-.24h0c.53.39.63,1.15.24,1.67Z"/>
        <path class="cls-12" d="m20.58,15.21h0c-1.54,1.12-1.88,3.3-.76,4.84l1.81,2.49c1.12,1.54,3.3,1.88,4.84.76h0c1.54-1.12,1.88-3.3.76-4.84l-1.81-2.49c-1.12-1.54-3.3-1.88-4.84-.76Z"/>
        <path class="cls-7" d="m21.18,16.22h0c-1.04.76-1.18,2.34-.32,3.52l1.39,1.9c.86,1.18,2.41,1.52,3.45.77h0c1.04-.76,1.18-2.34.32-3.52l-1.39-1.9c-.86-1.18-2.41-1.52-3.45-.77Z"/>
        <path class="cls-3" d="m22.81,22.08l-1.39-1.9c-.86-1.18-.71-2.76.32-3.52.74-.54,1.73-.51,2.55-.03-.89-.87-2.21-1.07-3.13-.4-1.04.76-1.18,2.34-.32,3.52l1.39,1.9c.25.34.56.6.9.8-.11-.11-.22-.23-.32-.37Z"/>
        <path class="cls-12" d="m23.13,17.37c-.38-.29-.93-.21-1.22.17-.29.38-.21.93.17,1.22.38.29.93.21,1.22-.17.29-.38.21-.93-.17-1.22Z"/>
        <path class="cls-12" d="m24.91,20.13c-.33-.25-.8-.18-1.04.15-.25.33-.18.8.15,1.04.33.25.8.18,1.04-.15.25-.33.18-.8-.15-1.04Z"/>
        <path class="cls-3" d="m26.21,14.14h0c-.3.4-.22.98.18,1.29h0c.4.3.98.22,1.29-.18h0c.3-.4.22-.98-.18-1.29h0c-.4-.3-.98-.22-1.29.18Z"/>
        <g>
          <path class="cls-6" d="m33.44,7.93l-2.76,3.67c-1.04,1.39-.76,3.37.63,4.41h0c1.39,1.04,3.37.76,4.41-.63l2.07-2.76c1.04-1.39.76-3.37-.63-4.41l-.91-.68c-.89-.67-2.16-.48-2.82.4Z"/>
          <path class="cls-2" d="m33.49,9.96l-1.53,2.03c-.62.83-.45,2.02.38,2.65h0c.83.62,2.02.45,2.65-.38l1.53-2.03c.62-.83.45-2.02-.38-2.65h0c-.83-.62-2.02-.45-2.65.38Z"/>
          <path class="cls-3" d="m34.8,9.03c-.55-.42-1.34-.3-1.75.25-.42.55-.3,1.34.25,1.75.55.42,1.34.3,1.75-.25.42-.55.3-1.34-.25-1.75Z"/>
          <path class="cls-3" d="m34.11,13.49c-.38-.29-.92-.21-1.21.17-.29.38-.21.92.17,1.21.38.29.92.21,1.21-.17.29-.38.21-.92-.17-1.21Z"/>
        </g>
        <path class="cls-7" d="m25.39,10.75l-2.45,3.26c-.16.22-.12.53.1.7h0c.22.16.53.12.7-.1l2.45-3.26c.16-.22.12-.53-.1-.7h0c-.22-.16-.53-.12-.7.1Z"/>
        <path class="cls-7" d="m16.29,23.5h0c-.51.67-.37,1.64.31,2.15l1.8,1.35c.67.51,1.64.37,2.15-.31h0c.51-.67.37-1.64-.31-2.15l-1.8-1.35c-.67-.51-1.64-.37-2.15.31Z"/>
        <path class="cls-7" d="m15.93,19.71h0c-.42.56-.31,1.37.26,1.8h0c.56.42,1.37.31,1.8-.26h0c.42-.56.31-1.37-.26-1.8h0c-.56-.42-1.37-.31-1.8.26Z"/>
        <path class="cls-12" d="m31.53.37h0c-.31.41-.22.99.19,1.3l1.23.93c.41.31.99.22,1.3-.19h0c.31-.41.22-.99-.19-1.3l-1.23-.93c-.41-.31-.99-.22-1.3.19Z"/>
        <path class="cls-7" d="m33.26,2.87h0c-.18.24-.53.29-.78.11l-1.42-1.06c-.24-.18-.29-.53-.11-.78h0c.18-.24.53-.29.78-.11l1.42,1.06c.24.18.29.53.11.78Z"/>
        <path class="cls-7" d="m34.53,3.82h0c-.15.2-.11.49.09.64h0c.2.15.49.11.64-.09h0c.15-.2.11-.49-.09-.64h0c-.2-.15-.49-.11-.64.09Z"/>
        <path class="cls-3" d="m31.91,1.16h0c-.23.3-.16.73.14.96h0c.3.23.73.16.96-.14h0c.23-.3.16-.73-.14-.96h0c-.3-.23-.73-.16-.96.14Z"/>
        <g>
          <path class="cls-12" d="m26.66,10h0c-.83-.63-.99-1.82-.37-2.65l1.91-2.52c.63-.83,1.82-.99,2.65-.37h0c.83.63.99,1.82.37,2.65l-1.91,2.52c-.63.83-1.82.99-2.65.37Z"/>
          <path class="cls-4" d="m28.14,8.05h0c-.56-.43-.68-1.24-.25-1.8l.63-.83c.43-.57,1.24-.68,1.8-.25h0c.56.43.68,1.24.25,1.8l-.63.83c-.43.57-1.24.68-1.8.25Z"/>
          <path class="cls-3" d="m30.41,6.43c.14-.47-.12-.96-.58-1.1-.47-.14-.96.12-1.1.58-.14.47.12.96.58,1.1.47.14.96-.12,1.1-.58Z"/>
          <path class="cls-7" d="m27.87,9.02c.08-.25-.06-.51-.31-.58s-.51.06-.58.31c-.08.25.06.51.31.58.25.08.51-.06.58-.31Z"/>
        </g>
      </g>
      <g>
        <path class="cls-8" d="m22.59,23.3l.1.85v.11s.36,2.85.36,2.85c.16,1.31,1.36,2.25,2.67,2.09h0c1.31-.16,2.25-1.36,2.09-2.67l-.35-2.85v-.11s-.12-.85-.12-.85c-.16-1.31-1.36-2.25-2.67-2.09h0c-1.31.16-2.25,1.36-2.09,2.67Z"/>
        <path class="cls-2" d="m22.35,21.32l.21,1.72c.16,1.31,1.36,2.25,2.67,2.09h0c1.31-.16,2.25-1.36,2.09-2.67l-.21-1.72c-.16-1.31-1.36-2.25-2.67-2.09h0c-1.31.16-2.25,1.36-2.09,2.67Z"/>
      </g>
      <g>
        <path class="cls-6" d="m28.6,15.38l-2.24,2.98c-.58.77-1.69.93-2.46.35h0c-.77-.58-.93-1.69-.35-2.46l2.24-2.98c.58-.77,1.69-.93,2.46-.35h0c.77.58.93,1.69.35,2.46Z"/>
        <path class="cls-6" d="m23,16.97l-.2.27c-1.35,1.8-.98,4.38.82,5.73h0c1.8,1.35,4.38.98,5.73-.82l.2-.27c1.35-1.8.98-4.38-.82-5.73h0c-1.8-1.35-4.38-.98-5.73.82Z"/>
        <path class="cls-2" d="m29.18,20.95h0c-.84,1.12-2.44,1.34-3.55.51l-1.14-.85c-1.12-.84-1.34-2.44-.51-3.55h0c.84-1.12,2.44-1.34,3.55-.51l1.14.85c1.12.84,1.34,2.44.51,3.55Z"/>
        <path class="cls-2" d="m27.05,16.05l-1.45,1.93c-.31.41-.89.49-1.29.18h0c-.41-.31-.49-.89-.18-1.29l1.45-1.93c.31-.41.89-.49,1.29-.18h0c.41.31.49.89.18,1.29Z"/>
        <path class="cls-3" d="m26.58,19h0c-.46.62-1.34.74-1.96.28h0c-.62-.46-.74-1.34-.28-1.96h0c.46-.62,1.34-.74,1.96-.28h0c.62.46.74,1.34.28,1.96Z"/>
        <path class="cls-3" d="m27.01,21.65h0c-.31.41-.91.5-1.32.19h0c-.41-.31-.5-.91-.19-1.32h0c.31-.42.91-.5,1.32-.19h0c.41.31.5.91.19,1.32Z"/>
      </g>
      <g>
        <path id="ArmOne-2" data-name="ArmOne" class="cls-8" d="m27.76,26.81h0c.06,1.32-.98,2.44-2.29,2.5l-11.21.48c-1.32.06-2.44-.98-2.5-2.29h0c-.06-1.32.98-2.44,2.29-2.5l11.21-.48c1.32-.06,2.44.98,2.5,2.29Z"/>
        <path class="cls-12" d="m23.9,26.94h0c.01.29-.21.53-.5.54l-3.1.13c-.29.01-.53-.21-.54-.5h0c-.01-.29.21-.53.5-.54l3.1-.13c.29-.01.53.21.54.5Z"/>
        <path class="cls-3" d="m17.56,22.63c-2.53.11-4.49,2.24-4.38,4.77.11,2.53,2.24,4.49,4.77,4.38,2.53-.11,3.55-2.2,3.45-4.73-.11-2.53-1.3-4.53-3.83-4.42Z"/>
        <path class="cls-2" d="m15.53,22.41c-2.7.11-4.79,2.39-4.68,5.09.11,2.7,2.39,4.79,5.09,4.68,2.7-.11,3.79-2.35,3.68-5.05s-1.39-4.83-4.09-4.72Z"/>
        <path class="cls-6" d="m15.51,24.56c-2.11.09-3.76,1.65-3.69,3.49.08,1.84,1.85,3.26,3.97,3.17s2.98-1.62,2.9-3.46c-.08-1.84-1.07-3.29-3.18-3.2Z"/>
        <path class="cls-4" d="m23.86,25.9c-.58.02-1.02.51-1,1.09.02.58.51,1.02,1.09,1,.58-.02,1.02-.51,1-1.09-.02-.58-.51-1.02-1.09-1Z"/>
        <g>
          <path class="cls-2" d="m17.83,28.26h0c-.09.1-.25.11-.35.01l-1.98-1.82c-.1-.09-.11-.25-.01-.35h0c.09-.1.25-.11.35-.01l1.98,1.82c.1.09.11.25.01.35Z"/>
          <path class="cls-2" d="m16.06,28.93h0c-.09.1-.25.11-.35.01l-1.98-1.82c-.1-.09-.11-.25-.01-.35h0c.09-.1.25-.11.35-.01l1.98,1.82c.1.09.11.25.01.35Z"/>
          <path class="cls-2" d="m16.09,30.55h0c-.09.1-.25.11-.35.01l-1.98-1.82c-.1-.09-.11-.25-.01-.35h0c.09-.1.25-.11.35-.01l1.98,1.82c.1.09.11.25.01.35Z"/>
        </g>
        <path class="cls-3" d="m13.43,26.56c1.03-.04,1.9.76,1.94,1.79.04,1.03-.76,1.9-1.79,1.94-1.03.04-1.9-.76-1.94-1.79s.76-1.9,1.79-1.94Z"/>
        <path class="cls-3" d="m15.18,25.43c-.34.01-.63-.25-.65-.59-.01-.34.25-.63.59-.65.34-.01.63.25.65.59.01.34-.25.63-.59.65Z"/>
      </g>
      <g>
        <path class="cls-8" d="m24.03,47.71h0c1.96.65,4.1-.42,4.75-2.38l2.73-8.2c.65-1.96-.42-4.1-2.38-4.75h0c-1.96-.65-4.1.42-4.75,2.38l-2.73,8.2c-.65,1.96.42,4.1,2.38,4.75Z"/>
        <path class="cls-2" d="m22.13,47.08h0c1.96.65,4.1-.42,4.75-2.38l2.73-8.2c.65-1.96-.42-4.1-2.38-4.75h0c-1.96-.65-4.1.42-4.75,2.38l-2.73,8.2c-.65,1.96.42,4.1,2.38,4.75Z"/>
        <path class="cls-3" d="m21.94,46.14h0c1.48.49,3.1-.32,3.59-1.8l2.72-8.19c.49-1.48-.32-3.1-1.8-3.59h0c-1.48-.49-3.1.32-3.59,1.8l-2.72,8.19c-.49,1.48.32,3.1,1.8,3.59Z"/>
        <path class="cls-6" d="m21.1,45.87h0c1.48.49,3.1-.32,3.59-1.8l2.72-8.19c.49-1.48-.32-3.1-1.8-3.59h0c-1.48-.49-3.1.32-3.59,1.8l-2.72,8.19c-.49,1.48.32,3.1,1.8,3.59Z"/>
        <path class="cls-8" d="m26.83,36.69l2.17.72c.52.17,1.09-.11,1.26-.63h0c.17-.52-.11-1.09-.63-1.26l-2.17-.72c-.52-.17-1.09.11-1.26.63h0c-.17.52.11,1.09.63,1.26Z"/>
        <path class="cls-8" d="m24.27,44.4l2.17.72c.52.17,1.09-.11,1.26-.63h0c.17-.52-.11-1.09-.63-1.26l-2.17-.72c-.52-.17-1.09.11-1.26.63h0c-.17.52.11,1.09.63,1.26Z"/>
        <path class="cls-7" d="m26.67,45.2h0c.39.13.81-.08.94-.47l2.73-8.19c.13-.39-.08-.81-.47-.94h0c-.39-.13-.81.08-.94.47l-2.73,8.19c-.13.39.08.81.47.94Z"/>
        <path class="cls-10" d="m28.55,39.56h0c.39.13.81-.08.94-.47l.4-1.19c.13-.39-.08-.81-.47-.94h0c-.39-.13-.81.08-.94.47l-.4,1.19c-.13.39.08.81.47.94Z"/>
        <path class="cls-10" d="m27.38,43.08h0c.39.13.81-.08.94-.47l.11-.34c.13-.39-.08-.81-.47-.94h0c-.39-.13-.81.08-.94.47l-.11.34c-.13.39.08.81.47.94Z"/>
        <g>
          <path class="cls-2" d="m25.64,39.3h0c-.06-.12-.21-.17-.33-.11l-2.4,1.2c-.12.06-.17.21-.11.33h0c.06.12.21.17.33.11l2.4-1.2c.12-.06.17-.21.11-.33Z"/>
          <path class="cls-2" d="m24.13,38.17h0c-.06-.12-.21-.17-.33-.11l-2.4,1.2c-.12.06-.17.21-.11.33h0c.06.12.21.17.33.11l2.4-1.2c.12-.06.17-.21.11-.33Z"/>
          <path class="cls-2" d="m24.6,36.62h0c-.06-.12-.21-.17-.33-.11l-2.4,1.2c-.12.06-.17.21-.11.33h0c.06.12.21.17.33.11l2.4-1.2c.12-.06.17-.21.11-.33Z"/>
        </g>
        <path class="cls-3" d="m24.75,33.89c.11-.32-.07-.68-.39-.78-.32-.11-.68.07-.78.39-.11.32.07.68.39.78.32.11.68-.07.78-.39Z"/>
      </g>
    </g>
  </g>
</svg>