<?xml version="1.0" encoding="UTF-8"?>
<svg id="Layer_2" data-name="Layer 2" xmlns="http://www.w3.org/2000/svg" viewBox="0 0 68.32 18.29">
  <defs>
    <style>
      .cls-1 {
        fill: #55236e;
      }

      .cls-2 {
        fill: #a20025;
      }

      .cls-3 {
        fill: #fff;
      }

      .cls-4 {
        fill: #7cff00;
      }

      .cls-5 {
        fill: #e71e00;
      }

      .cls-6 {
        fill: #ffd285;
      }

      .cls-7 {
        fill: #fd003a;
      }

      .cls-8 {
        fill: #4d4d4d;
      }

      .cls-9 {
        fill: #333;
      }

      .cls-10 {
        fill: #ff6e4c;
      }

      .cls-11 {
        fill: #999;
      }

      .cls-12 {
        fill: #434343;
      }

      .cls-13 {
        fill: #1a1a1a;
      }

      .cls-14 {
        fill: #666;
      }
    </style>
  </defs>
  <g id="dead">
    <g id="dead9">
      <g>
        <g>
          <path class="cls-9" d="m45.04,3.53l.63-2.19c.15-.53-.15-1.09-.68-1.24h0c-.53-.15-1.09.15-1.24.68l-.63,2.19c-.15.53.15,1.09.68,1.24h0c.53.15,1.09-.15,1.24-.68Z"/>
          <path class="cls-9" d="m52.84,5.79l.63-2.19c.15-.53-.15-1.09-.68-1.24h0c-.53-.15-1.09.15-1.24.68l-.63,2.19c-.15.53.15,1.09.68,1.24h0c.53.15,1.09-.15,1.24-.68Z"/>
          <path class="cls-8" d="m53.55,3.35h0c.11-.39-.12-.81-.51-.92L44.74.03c-.39-.11-.81.12-.92.51h0c-.11.39.12.81.51.92l8.29,2.4c.39.11.81-.12.92-.51Z"/>
          <path class="cls-11" d="m47.84,1.7h0c.11-.39-.12-.81-.51-.92l-1.2-.35c-.39-.11-.81.12-.92.51h0c-.11.39.12.81.51.92l1.2.35c.39.11.81-.12.92-.51Z"/>
          <path class="cls-11" d="m51.4,2.73h0c.11-.39-.12-.81-.51-.92l-.35-.1c-.39-.11-.81.12-.92.51h0c-.11.39.12.81.51.92l.35.1c.39.11.81-.12.92-.51Z"/>
        </g>
        <path class="cls-7" d="m54.62,8.08h0c-.43,1.5-2.02,2.37-3.52,1.94l-8.29-2.4c-1.5-.43-2.37-2.02-1.94-3.52h0c.43-1.5,2.02-2.37,3.52-1.94l8.29,2.4c1.5.43,2.37,2.02,1.94,3.52Z"/>
        <path class="cls-2" d="m54.9,10.06h0c-.57,1.99-2.67,3.14-4.65,2.57l-8.31-2.4c-1.99-.57-3.14-2.67-2.57-4.65h0c.57-1.99,2.67-3.14,4.65-2.57l8.31,2.4c1.99.57,3.14,2.67,2.57,4.65Z"/>
        <path class="cls-13" d="m54.48,11.53h0c-.57,1.99-2.67,3.14-4.65,2.57l-8.31-2.4c-1.99-.57-3.14-2.67-2.57-4.65h0c.57-1.99,2.67-3.14,4.65-2.57l8.31,2.4c1.99.57,3.14,2.67,2.57,4.65Z"/>
        <path class="cls-8" d="m52.29,12.69h0c-.11.39-.53.62-.92.51l-6.09-1.76c-.39-.11-.62-.53-.51-.92h0c.11-.39.53-.62.92-.51l6.09,1.76c.39.11.62.53.51.92Z"/>
        <path class="cls-11" d="m47.41,11.28h0c-.11.39-.53.62-.92.51l-1.2-.35c-.39-.11-.62-.53-.51-.92h0c.11-.39.53-.62.92-.51l1.2.35c.39.11.62.53.51.92Z"/>
        <path class="cls-11" d="m50.97,12.31h0c-.11.39-.53.62-.92.51l-.35-.1c-.39-.11-.62-.53-.51-.92h0c.11-.39.53-.62.92-.51l.35.1c.39.11.62.53.51.92Z"/>
        <path class="cls-8" d="m52.98,9.18h0c-.11.39-.53.62-.92.51l-5.81-1.68c-.39-.11-.62-.53-.51-.92h0c.11-.39.53-.62.92-.51l5.81,1.68c.39.11.62.53.51.92Z"/>
        <path class="cls-11" d="m49.75,8.25h0c-.11.39-.53.62-.92.51l-1.2-.35c-.39-.11-.62-.53-.51-.92h0c.11-.39.53-.62.92-.51l1.2.35c.39.11.62.53.51.92Z"/>
        <path class="cls-11" d="m52.42,9.02h0c-.11.39-.53.62-.92.51l-.35-.1c-.39-.11-.62-.53-.51-.92h0c.11-.39.53-.62.92-.51l.35.1c.39.11.62.53.51.92Z"/>
        <path class="cls-3" d="m43.08,3.1c-.33-.09-.52-.44-.42-.77.09-.33.44-.52.77-.42.33.1.52.44.42.77-.09.33-.44.52-.77.42Z"/>
        <path class="cls-8" d="m42.93,5.68c-1.28-.37-2.62.37-2.99,1.65s.37,2.62,1.65,2.99c1.28.37,2.62-.37,2.99-1.65.37-1.28-.37-2.62-1.65-2.99Z"/>
        <path class="cls-13" d="m42.62,6.75c-.69-.2-1.41.2-1.61.89-.2.69.2,1.41.89,1.61.69.2,1.41-.2,1.61-.89.2-.69-.2-1.41-.89-1.61Z"/>
        <path class="cls-3" d="m52.82,5.91c-.33-.1-.52-.44-.42-.77s.44-.52.77-.42c.33.1.52.44.42.77-.09.33-.44.52-.77.42Z"/>
      </g>
      <g>
        <g id="ShinTwo">
          <path class="cls-13" d="m63.78,14.43h0c-.39,1.22-1.71,1.89-2.93,1.5l-9.84-3.18c-1.22-.39-1.89-1.71-1.5-2.93h0c.39-1.22,1.71-1.89,2.93-1.5l9.84,3.18c1.22.39,1.89,1.71,1.5,2.93Z"/>
        </g>
        <path class="cls-12" d="m52.08,9.46c-.59-.19-1.23.13-1.43.73-.19.59.13,1.23.73,1.43.59.19,1.23-.13,1.43-.73.19-.59-.13-1.23-.73-1.43Z"/>
      </g>
      <g>
        <path class="cls-7" d="m64.26,16.72l1.11-7.42c-2.87-.43-5.35,1.58-5.78,4.45-.16,1.06,0,2.08.38,2.98h4.29Z"/>
        <path class="cls-2" d="m65.06,11.3c-.32-.17-.67-.3-1.05-.35-1.86-.28-3.6,1.01-3.88,2.87-.28,1.86,1.01,3.6,2.87,3.88.38.06.75.03,1.11-.03l.95-6.37Z"/>
        <path class="cls-13" d="m65.32,16.79l.94-6.29c.09-.58-.32-1.12-.89-1.21h-.03c-.58-.09-1.12.31-1.21.89l-.98,6.61h2.18Z"/>
        <path class="cls-3" d="m62.45,10.66c.68.1,1.14.73,1.04,1.41-.1.68-.73,1.14-1.41,1.04-.68-.1-1.14-.73-1.04-1.41.1-.68.73-1.14,1.41-1.04Z"/>
        <path class="cls-3" d="m60.66,14.32c-.35-.05-.59-.38-.54-.72.05-.35.38-.59.72-.54.35.05.59.38.54.72-.05.35-.38.59-.72.54Z"/>
        <path class="cls-8" d="m64.71,10.83h0c-.06.37-.41.63-.78.58h0c-.37-.06-.63-.41-.58-.78h0c.06-.37.41-.63.78-.58h0c.37.06.63.41.58.78Z"/>
        <path class="cls-8" d="m64.36,13.15h0c-.06.37-.41.63-.78.58h0c-.37-.06-.63-.41-.58-.78h0c.06-.37.41-.63.78-.58h0c.37.06.63.41.58.78Z"/>
        <path class="cls-8" d="m64.02,15.48h0c-.06.37-.41.63-.78.58h0c-.37-.06-.63-.41-.58-.78h0c.06-.37.41-.63.78-.58h0c.37.06.63.41.58.78Z"/>
      </g>
      <g>
        <g id="ShinTwo-2" data-name="ShinTwo">
          <path class="cls-9" d="m65.43,15.9h0c-.23,1.26-1.45,2.1-2.71,1.87l-10.18-1.85c-1.26-.23-2.1-1.45-1.87-2.71h0c.23-1.26,1.45-2.1,2.71-1.87l10.18,1.85c1.26.23,2.1,1.45,1.87,2.71Z"/>
        </g>
        <path class="cls-8" d="m63.4,16.07h0c-.05.29-.33.48-.61.42l-10.26-1.87c-.29-.05-.48-.33-.42-.61h0c.05-.29.33-.48.61-.42l10.26,1.87c.29.05.48.33.42.61Z"/>
        <path class="cls-3" d="m56.52,14.81h0c-.05.29-.33.48-.61.42l-1.75-.32c-.29-.05-.48-.33-.42-.61h0c.05-.29.33-.48.61-.42l1.75.32c.29.05.48.33.42.61Z"/>
        <path class="cls-3" d="m61.23,15.7h0c-.05.3-.34.5-.64.45l-.92-.17c-.3-.05-.5-.34-.45-.64h0c.05-.3.34-.5.64-.44l.92.17c.3.05.5.34.45.64Z"/>
      </g>
      <g>
        <path class="cls-7" d="m64.42,16.17l3.26-7.4c-2.65-1.17-5.58.11-6.75,2.76-.69,1.57-.6,3.27.14,4.64h3.35Z"/>
        <path class="cls-2" d="m66.87,10.63c-.27-.25-.57-.46-.92-.62-1.72-.76-3.74.02-4.5,1.75-.76,1.72.02,3.74,1.75,4.5.35.16.72.23,1.08.26l2.6-5.89Z"/>
        <path class="cls-13" d="m65.59,16.15l2.64-5.98c.24-.53,0-1.16-.54-1.4h-.03c-.53-.25-1.16,0-1.4.53l-3.02,6.85h2.35Z"/>
        <path class="cls-3" d="m64.52,9.33c.63.28.91,1.01.63,1.63-.28.63-1.01.91-1.63.63s-.91-1.01-.63-1.63c.28-.63,1.01-.91,1.63-.63Z"/>
        <path class="cls-3" d="m61.82,12.37c-.32-.14-.47-.52-.33-.84.14-.32.52-.47.84-.33.32.14.47.52.33.84-.14.32-.52.47-.84.33Z"/>
        <path class="cls-8" d="m66.65,10.08h0c-.15.35-.56.5-.91.35h0c-.35-.15-.5-.56-.35-.91h0c.15-.35.56-.5.91-.35h0c.35.15.5.56.35.91Z"/>
        <path class="cls-8" d="m65.7,12.23h0c-.15.35-.56.5-.91.35h0c-.35-.15-.5-.56-.35-.91h0c.15-.35.56-.5.91-.35h0c.35.15.5.56.35.91Z"/>
        <path class="cls-8" d="m64.75,14.38h0c-.15.35-.56.5-.91.35h0c-.35-.15-.5-.56-.35-.91h0c.15-.35.56-.5.91-.35h0c.35.15.5.56.35.91Z"/>
      </g>
      <g>
        <path class="cls-13" d="m46.78,8.74h0c.16,4.59-3.47,8.48-8.07,8.64l-6.64.23c-2.6.09-4.8-1.97-4.89-4.57l-.25-7.24c-.09-2.6,1.97-4.8,4.57-4.89l6.64-.23c4.59-.16,8.48,3.47,8.64,8.07Z"/>
        <path class="cls-8" d="m38.74,10.77h0c.02.71-.54,1.31-1.25,1.34l-4.03.14c-.71.02-1.31-.54-1.34-1.25h0c-.02-.71.54-1.31,1.25-1.34l4.03-.14c.71-.02,1.31.54,1.34,1.25Z"/>
        <path class="cls-8" d="m38.53,4.42h0c.02.71-.54,1.31-1.25,1.34l-4.03.14c-.71.02-1.31-.54-1.34-1.25h0c-.02-.71.54-1.31,1.25-1.34l4.03-.14c.71-.02,1.31.54,1.34,1.25Z"/>
        <path class="cls-2" d="m34.58,10.21l.1,2.99c.04,1.07-.81,1.97-1.87,2.01h0c-2.21.08-4.09-1.67-4.16-3.89l-.03-.91c-.04-1.07.81-1.97,1.87-2.01l2.09-.07c1.07-.04,1.97.81,2.01,1.87Z"/>
        <path class="cls-2" d="m34.3,2.22l.1,2.99c.04,1.07-.81,1.97-1.87,2.01l-2.09.07c-1.07.04-1.97-.81-2.01-1.87l-.05-1.57c-.06-1.85,1.4-3.41,3.25-3.48l.66-.02c1.07-.04,1.97.81,2.01,1.87Z"/>
        <path class="cls-7" d="m33.41,3.59l-2.68,2.87c-.21.22-.56.23-.78.03h0c-.22-.21-.23-.56-.03-.78l2.68-2.87c.21-.22.56-.23.78-.03h0c.22.21.23.56.03.78Z"/>
        <path class="cls-7" d="m31.43,2.35l-1.19,1.27c-.21.22-.56.23-.78.03h0c-.22-.21-.23-.56-.03-.78l1.19-1.27c.21-.22.56-.23.78-.03h0c.22.21.23.56.03.78Z"/>
        <path class="cls-7" d="m33.68,11.4l-2.06,2.21c-.21.22-.56.23-.78.03h0c-.22-.21-.23-.56-.03-.78l2.06-2.21c.21-.22.56-.23.78-.03h0c.22.21.23.56.03.78Z"/>
        <path class="cls-7" d="m31.69,10.16l-1.19,1.27c-.21.22-.56.23-.78.03h0c-.22-.21-.23-.56-.03-.78l1.19-1.27c.21-.22.56-.23.78-.03h0c.22.21.23.56.03.78Z"/>
        <path class="cls-2" d="m38.94,3.08l.33,9.76c.02.48-.36.89-.84.9h0c-.48.02-.89-.36-.9-.84l-.33-9.76c-.02-.48.36-.89.84-.9h0c.48-.02.89.36.9.84Z"/>
        <path class="cls-8" d="m41.29,10.96h0c.01.41-.31.76-.72.77l-1.95.07c-.41.01-.76-.31-.77-.72h0c-.01-.41.31-.76.72-.77l1.95-.07c.41-.01.76.31.77.72Z"/>
        <path class="cls-8" d="m41.09,5.13h0c.01.41-.31.76-.72.77l-1.95.07c-.41.01-.76-.31-.77-.72h0c-.01-.41.31-.76.72-.77l1.95-.07c.41-.01.76.31.77.72Z"/>
        <path class="cls-8" d="m43.67,10.88c.62-.02,1.14.46,1.16,1.08.02.62-.46,1.14-1.08,1.16-.62.02-1.14-.46-1.16-1.08-.02-.62.46-1.14,1.08-1.16Z"/>
        <path class="cls-8" d="m43.01,3.35c.4-.01.73.3.74.7.01.4-.3.73-.7.74-.4.01-.73-.3-.74-.7-.01-.4.3-.73.7-.74Z"/>
        <path class="cls-3" d="m31.15,12.61c.36-.01.67.27.68.63.01.36-.27.67-.63.68-.36.01-.67-.27-.68-.63-.01-.36.27-.67.63-.68Z"/>
        <path class="cls-3" d="m30.08,10.37c.36-.01.66.27.67.62.01.36-.27.66-.62.67-.36.01-.66-.27-.67-.62-.01-.36.27-.66.62-.67Z"/>
        <path class="cls-2" d="m43.23,4.6c-1.47.05-2.62,1.55-2.55,3.36.06,1.81,1.3,3.23,2.78,3.18s2.62-1.55,2.55-3.36-1.3-3.23-2.78-3.18Z"/>
        <path class="cls-3" d="m30.21,5.47c.36-.01.67.27.68.63.01.36-.27.67-.63.68s-.67-.27-.68-.63c-.01-.36.27-.67.63-.68Z"/>
        <path class="cls-3" d="m29.81,2.6c.36-.01.66.27.67.62.01.36-.27.66-.62.67-.36.01-.66-.27-.67-.62-.01-.36.27-.66.62-.67Z"/>
        <path class="cls-2" d="m41.49,2.25l.43,12.56c.01.36-.27.66-.63.67h0c-.36.01-.66-.27-.67-.63l-.43-12.56c-.01-.36.27-.66.63-.67h0c.36-.01.66.27.67.63Z"/>
        <path class="cls-7" d="m41.58,4.97l.08,2.25c.01.36-.27.66-.63.67h0c-.36.01-.66-.27-.67-.63l-.08-2.25c-.01-.36.27-.66.63-.67h0c.36-.01.66.27.67.63Z"/>
        <path class="cls-7" d="m41.8,11.27l.02.53c.01.36-.27.66-.63.67h0c-.36.01-.66-.27-.67-.63l-.02-.53c-.01-.36.27-.66.63-.67h0c.36-.01.66.27.67.63Z"/>
        <path class="cls-3" d="m40.91,4.34c.36-.01.66.27.67.63.01.36-.27.66-.63.67-.36.01-.66-.27-.67-.63-.01-.36.27-.66.63-.67Z"/>
        <path class="cls-3" d="m41.12,10.46c.36-.01.66.27.67.63s-.27.66-.63.67c-.36.01-.66-.27-.67-.63-.01-.36.27-.66.63-.67Z"/>
        <path class="cls-7" d="m44.19,6.3c-.71.02-1.26.78-1.23,1.68.03.91.63,1.62,1.34,1.6.71-.02,1.26-.78,1.23-1.68-.03-.91-.63-1.62-1.34-1.6Z"/>
        <path class="cls-7" d="m42.89,6.05c.28,0,.51.21.52.49,0,.28-.21.51-.49.52-.28,0-.51-.21-.52-.49,0-.28.21-.51.49-.52Z"/>
      </g>
      <g>
        <path class="cls-13" d="m12.14,13.01s-1.3,1.44.73,3.79c.18.2.52.15.6-.11.2-.66.81-1.73,2.62-2.77l-3.95-.92Z"/>
        <path class="cls-13" d="m14.01,6.68s-.97-1.68-3.83-.47c-.25.11-.3.45-.08.6.56.39,1.39,1.3,1.83,3.35l2.09-3.47Z"/>
        <path class="cls-13" d="m12.04,13.92s-.37-7.55-1.66-10.14c-.17-.35.04-.77.43-.8,1.19-.1,3.23-.1,4.14.95l-2.91,9.99Z"/>
        <path class="cls-6" d="m24.28,9.57h0c.1,3.06-2.31,5.64-5.37,5.74l-2.97.1c-1.87.06-3.44-1.41-3.51-3.28l-.15-4.54c-.06-1.87,1.41-3.44,3.28-3.51l2.75-.09c3.17-.11,5.86,2.4,5.97,5.57Z"/>
        <path class="cls-13" d="m19.59,15.51h0c.03.83-.63,1.53-1.45,1.56l-2.48.08c-.83.03-1.53-.63-1.56-1.45h0c-.03-.83.63-1.53,1.45-1.56l2.48-.08c.83-.03,1.53.63,1.56,1.45Z"/>
        <path class="cls-1" d="m17.4,6.67c-2,.07-3.57,1.75-3.5,3.75s1.75,3.57,3.75,3.5,3.57-1.75,3.5-3.75c-.07-2-1.75-3.57-3.75-3.5Z"/>
        <path class="cls-13" d="m15.47,5.15l.29,8.64c.03,1.03-.78,1.89-1.8,1.93h0c-1.03.03-1.89-.78-1.93-1.8l-.29-8.64c-.03-1.03.78-1.89,1.8-1.93h0c1.03-.03,1.89.78,1.93,1.8Z"/>
        <g>
          <path class="cls-6" d="m17.06,13.28c.85-.03,1.56.49,1.59,1.34.03.85-.63,1.71-1.48,1.74-.85.03-1.56-.64-1.59-1.49-.03-.85.64-1.56,1.49-1.59Z"/>
          <path class="cls-10" d="m17.08,14.02c.44-.01.81.33.82.77.01.44-.33.81-.77.82-.44.01-.81-.33-.82-.77s.33-.81.77-.82Z"/>
        </g>
        <path class="cls-10" d="m20.72,7.89h0c.02.62-.47,1.14-1.09,1.16l-1.11.04c-.62.02-1.14-.47-1.16-1.09h0c-.02-.62.47-1.14,1.09-1.16l1.11-.04c.62-.02,1.14.47,1.16,1.09Z"/>
        <path class="cls-14" d="m13.74,5.1l.13,3.73c.01.34-.26.64-.61.65h0c-.34.01-.64-.26-.65-.61l-.13-3.73c-.01-.34.26-.64.61-.65h0c.34-.01.64.26.65.61Z"/>
        <path class="cls-3" d="m13.12,5.49c-.35.01-.62.3-.61.65s.3.62.65.61c.35-.01.62-.3.61-.65-.01-.35-.3-.62-.65-.61Z"/>
        <path class="cls-14" d="m13.96,11.51l.04,1.16c.01.34-.26.64-.61.65h0c-.34.01-.64-.26-.65-.61l-.04-1.16c-.01-.34.26-.64.61-.65h0c.34-.01.64.26.65.61Z"/>
        <g>
          <path class="cls-2" d="m19.82,5.26l-.99,7.1c-.15,1.08-1.15,1.83-2.23,1.68h0c-1.08-.15-1.83-1.15-1.68-2.23l.99-7.1c.15-1.08,1.15-1.83,2.23-1.68h0c1.08.15,1.83,1.15,1.68,2.23Z"/>
          <path class="cls-7" d="m18.28,11.28c-.1.7-.74,1.18-1.44,1.09-.7-.1-1.18-.74-1.09-1.44l.85-6.11c.1-.7.74-1.18,1.44-1.09.7.1,1.18.74,1.09,1.44l-.85,6.11Z"/>
        </g>
        <path class="cls-13" d="m27.62,9.51c-.12-3.66-2.94-6.6-6.48-6.98-.55-.06-1.02.39-1,.94l.43,12.57c.02.55.52.97,1.07.87,3.51-.62,6.11-3.74,5.99-7.41Z"/>
        <path class="cls-3" d="m25.66,8.45c-.07-2.18-1.75-3.93-3.86-4.16-.33-.04-.61.23-.6.56l.26,7.49c.01.33.31.58.64.52,2.09-.37,3.64-2.23,3.57-4.42Z"/>
        <path class="cls-8" d="m26.24,8.43c-.07-2.18-1.75-3.93-3.86-4.16-.33-.04-.61.23-.6.56l.26,7.49c.01.33.31.58.64.52,2.09-.37,3.64-2.23,3.57-4.42Z"/>
        <path class="cls-13" d="m23.09,9.96c.25,0,.46.19.47.44,0,.25-.19.46-.44.47-.25,0-.46-.19-.47-.44s.19-.46.44-.47Z"/>
        <path class="cls-13" d="m23.05,8.61c.25,0,.46.19.47.44s-.19.46-.44.47-.46-.19-.47-.44.19-.46.44-.47Z"/>
        <path class="cls-13" d="m23,7.25c.25,0,.46.19.47.44s-.19.46-.44.47c-.25,0-.46-.19-.47-.44,0-.25.19-.46.44-.47Z"/>
        <path class="cls-13" d="m22.96,5.9c.25,0,.46.19.47.44,0,.25-.19.46-.44.47-.25,0-.46-.19-.47-.44,0-.25.19-.46.44-.47Z"/>
        <path class="cls-13" d="m24.42,8.56c.25,0,.46.19.47.44,0,.25-.19.46-.44.47s-.46-.19-.47-.44c0-.25.19-.46.44-.47Z"/>
        <path class="cls-13" d="m24.37,7.21c.25,0,.46.19.47.44,0,.25-.19.46-.44.47-.25,0-.46-.19-.47-.44s.19-.46.44-.47Z"/>
        <path class="cls-8" d="m22.32,14.31l.04,1.1c0,.22-.17.4-.38.41h0c-.22,0-.4-.17-.41-.38l-.04-1.1c0-.22.17-.4.38-.41h0c.22,0,.4.17.41.38Z"/>
        <path class="cls-8" d="m24.13,13.96v.39c.02.25-.17.46-.42.47h0c-.25,0-.46-.19-.47-.44v-.39c-.02-.25.17-.46.42-.47h0c.25,0,.46.19.47.44Z"/>
        <polygon class="cls-13" points="14.7 11.15 18.3 10.58 17.42 7.22 19.26 5.91 16.57 6.8 17.37 9.86 14.21 9.81 14.7 11.15"/>
      </g>
      <g>
        <path class="cls-13" d="m44.53,7.11h0c-.54-.04-1.01.36-1.05.9l-.25,3.27c-.04.54.36,1.01.9,1.05h0c.54.04,1.01-.36,1.05-.9l.25-3.27c.04-.54-.36-1.01-.9-1.05Z"/>
        <path class="cls-13" d="m46.99,10.19h0c.04-.54-.36-1.01-.9-1.05l-3.27-.25c-.54-.04-1.01.36-1.05.9h0c-.04.54.36,1.01.9,1.05l3.27.25c.54.04,1.01-.36,1.05-.9Z"/>
        <path class="cls-4" d="m57.35,8.25l-5.13-.39c-.89-.07-1.68.61-1.74,1.5h0c-.07.89.61,1.68,1.5,1.74l5.13.39c.89.07,1.68-.61,1.74-1.5h0c.07-.89-.61-1.68-1.5-1.74Z"/>
        <path class="cls-3" d="m54.42,8.03l-.55-.04c-.29-.02-.54.2-.57.49h0c-.02.29.2.54.49.57l.55.04c.29.02.54-.2.57-.49h0c.02-.29-.2-.54-.49-.57Z"/>
        <path class="cls-3" d="m55.78,8.13h0c-.29-.02-.54.2-.57.49h0c-.02.29.2.54.49.57h0c.29.02.54-.2.57-.49h0c.02-.29-.2-.54-.49-.57Z"/>
        <path class="cls-13" d="m59.33,9.45l-9.04-.69c-.77-.06-1.45.52-1.51,1.29h0c-.06.77.52,1.45,1.29,1.51l9.04.69c.77.06,1.45-.52,1.51-1.29h0c.06-.77-.52-1.45-1.29-1.51Z"/>
        <path class="cls-13" d="m51.54,9.92h0c-.58-.04-1.01-.55-.97-1.13h0c.04-.58.55-1.01,1.13-.97h0c.58.04,1.01.55.97,1.13h0c-.04.58-.55,1.01-1.13.97Z"/>
        <path class="cls-13" d="m58.13,10.43h0c-.58-.04-1.01-.55-.97-1.13h0c.04-.58.55-1.01,1.13-.97h0c.58.04,1.01.55.97,1.13h0c-.04.58-.55,1.01-1.13.97Z"/>
        <path class="cls-13" d="m53.71,16.5c.03-.17.08-.32.09-.5.22-2.9-1.97-5.45-4.86-5.67l-10.94-.83c-2.9-.22-5.45,1.97-5.67,4.86l-.16,2.13h21.55Z"/>
        <path class="cls-13" d="m62.45,17.15l.26-3.38c.07-.93-.63-1.74-1.55-1.81-.93-.07-1.74.63-1.81,1.55l-.28,3.63h3.39Z"/>
        <path class="cls-3" d="m60.14,17.38l.43-5.65c.03-.46-.31-.85-.76-.89l-15.62-1.19c-1.81-.14-3.39,1.22-3.53,3.03l-.36,4.69h19.84Z"/>
        <path class="cls-13" d="m60.39,17.38l.25-3.34c.09-1.13-.76-2.11-1.88-2.2l-13.96-1.06c-1.81-.14-3.39,1.22-3.53,3.03l-.27,3.57h19.39Z"/>
        <path class="cls-7" d="m60.39,17.15l.35-4.61c.03-.46-.31-.85-.76-.89l-10.37-.79c-1.81-.14-3.39,1.22-3.53,3.03l-.25,3.25h14.56Z"/>
        <path class="cls-13" d="m54.25,17.38c.13-.34.23-.7.26-1.08.16-2.17-1.47-4.07-3.64-4.24l-5.85-.45c-2.17-.17-4.07,1.47-4.24,3.64-.06.77.12,1.49.45,2.13h13.01Z"/>
        <path class="cls-13" d="m46.28,16.73l.03-.07c.69-1.77-.19-3.79-1.96-4.48-1.77-.69-3.79.19-4.48,1.96l-1.01,2.59h7.43Z"/>
        <path class="cls-8" d="m44.96,16.67l.05-.13c.53-1.36-.01-2.85-1.21-3.32-1.2-.47-2.61.26-3.14,1.62l-.72,1.83h5.02Z"/>
        <path class="cls-3" d="m40.14,16.73l.46-1.17c.53-1.36,1.94-2.09,3.14-1.62.85.33,1.36,1.18,1.4,2.13.26-1.22-.29-2.43-1.35-2.85-1.2-.47-2.61.26-3.14,1.62l-.74,1.89h.23Z"/>
        <path class="cls-13" d="m43.89,15.48c.04-.48-.32-.9-.8-.93s-.9.32-.93.8c-.04.48.32.9.8.93s.9-.32.93-.8Z"/>
        <path class="cls-8" d="m50.69,13.83l-4.07-.31c-.27-.02-.51.19-.53.46h0c-.02.27.19.51.46.53l4.07.31c.27.02.51-.19.53-.46h0c.02-.27-.19-.51-.46-.53Z"/>
        <path class="cls-8" d="m36.31,16.54l.14-1.88c.06-.84-.57-1.58-1.41-1.64-.84-.06-1.58.57-1.64,1.41l-.16,2.12h3.07Z"/>
        <path class="cls-8" d="m38.04,10.67h0c-.7-.05-1.32.48-1.38,1.18h0c-.05.7.48,1.32,1.18,1.38h0c.7.05,1.32-.48,1.38-1.18h0c.05-.7-.48-1.32-1.18-1.38Z"/>
        <path class="cls-13" d="m62.74,13.42h0c-.51-.04-.96.35-1,.85l-.12,1.54c-.04.51.35.96.85,1h0c.51.04.96-.35,1-.85l.12-1.54c.04-.51-.35-.96-.85-1Z"/>
        <path class="cls-8" d="m61.56,16.23h0c-.31-.02-.54-.29-.51-.6l.13-1.77c.02-.31.29-.54.6-.51h0c.31.02.54.29.51.6l-.13,1.77c-.02.31-.29.54-.6.51Z"/>
        <path class="cls-3" d="m62.28,14.18h0c-.38-.03-.71.26-.74.63h0c-.03.38.26.71.63.74h0c.38.03.71-.26.74-.63h0c.03-.38-.26-.71-.63-.74Z"/>
        <g>
          <path class="cls-13" d="m52,14.5h0c.08-1.04,1-1.82,2.04-1.73l3.15.25c1.04.08,1.82,1,1.73,2.04h0c-.08,1.04-1,1.82-2.04,1.73l-3.15-.25c-1.04-.08-1.82-1-1.73-2.04Z"/>
          <path class="cls-4" d="m54.44,14.7h0c.06-.71.68-1.24,1.39-1.18l1.04.08c.71.06,1.24.68,1.18,1.39h0c-.06.71-.68,1.24-1.39,1.18l-1.04-.08c-.71-.06-1.24-.68-1.18-1.39Z"/>
          <path class="cls-3" d="m57.03,15.74c.47-.13.75-.62.62-1.09-.13-.47-.62-.75-1.09-.62-.47.13-.75.62-.62,1.09.13.47.62.75,1.09.62Z"/>
          <path class="cls-8" d="m53.48,15c.25-.07.39-.33.33-.58-.07-.25-.33-.39-.58-.33-.25.07-.39.33-.33.58.07.25.33.39.58.33Z"/>
        </g>
      </g>
      <g>
        <path class="cls-3" d="m36.77,17.06c.53-1.07.52-2.26-.31-3.45-1.45-2.07-4.3-2.58-6.38-1.13-1.52,1.06-2.19,2.87-1.87,4.58h8.56Z"/>
        <path class="cls-2" d="m35,16.73c1.34-1.42,1.79-3.19.56-4.94-1.55-2.21-4.59-2.75-6.8-1.21-2,1.4-2.62,4.02-1.57,6.15h7.81Z"/>
        <path class="cls-7" d="m33.68,16.48c.8-.99.97-2.23.06-3.55-1.21-1.73-3.42-2.29-4.93-1.23-1.43,1-1.71,3.09-.7,4.78h5.57Z"/>
        <path class="cls-2" d="m31.86,16.87h0c-.13-.02-.23-.15-.2-.29l.47-2.65c.02-.13.15-.23.29-.2h0c.13.02.23.15.2.29l-.47,2.65c-.02.13-.15.23-.29.2Z"/>
        <path class="cls-2" d="m30.34,15.74h0c-.13-.02-.23-.15-.2-.29l.47-2.65c.02-.13.15-.23.29-.2h0c.13.02.22.15.2.29l-.47,2.65c-.02.13-.15.23-.29.2Z"/>
        <path class="cls-3" d="m30.93,12.25c.59.85.38,2.01-.46,2.6-.85.59-2.01.38-2.6-.46-.59-.85-.38-2.01.46-2.6.85-.59,2.01-.38,2.6.46Z"/>
        <path class="cls-3" d="m32.82,13.11c-.2-.28-.13-.67.15-.86s.67-.13.86.15c.2.28.13.67-.15.86-.28.2-.67.13-.86-.15Z"/>
      </g>
      <path class="cls-5" d="m51.07,18.29H1.68c-.93,0-1.68-.76-1.68-1.68h0c0-.93.76-1.68,1.68-1.68h49.38c.93,0,1.68.76,1.68,1.68h0c0,.93-.76,1.68-1.68,1.68Z"/>
      <path class="cls-5" d="m66.07,18.29H16.68c-.93,0-1.68-.76-1.68-1.68h0c0-.93.76-1.68,1.68-1.68h49.38c.93,0,1.68.76,1.68,1.68h0c0,.93-.76,1.68-1.68,1.68Z"/>
    </g>
  </g>
</svg>