<?xml version="1.0" encoding="UTF-8"?>
<svg id="Layer_2" data-name="Layer 2" xmlns="http://www.w3.org/2000/svg" viewBox="0 0 67.61 36.45">
  <defs>
    <style>
      .cls-1 {
        fill: #55236e;
      }

      .cls-2 {
        fill: #a20025;
      }

      .cls-3 {
        fill: #fff;
      }

      .cls-4 {
        fill: #7cff00;
      }

      .cls-5 {
        fill: #e71e00;
      }

      .cls-6 {
        fill: #ffd285;
      }

      .cls-7 {
        fill: #fd003a;
      }

      .cls-8 {
        fill: #4d4d4d;
      }

      .cls-9 {
        fill: #333;
      }

      .cls-10 {
        fill: #ff6e4c;
      }

      .cls-11 {
        fill: #999;
      }

      .cls-12 {
        fill: #434343;
      }

      .cls-13 {
        fill: #1a1a1a;
      }

      .cls-14 {
        fill: #74001b;
      }

      .cls-15 {
        fill: #666;
      }
    </style>
  </defs>
  <g id="dead">
    <g id="dead5">
      <g>
        <g>
          <path class="cls-13" d="m20.82,12.63l.16.84.02.11.98,5.06c.25,1.3,1.52,2.15,2.81,1.9h0c1.29-.25,2.15-1.52,1.9-2.81l-.98-5.06-.02-.11-.16-.84c-.25-1.29-1.52-2.15-2.81-1.9h0c-1.29.25-2.15,1.52-1.9,2.81Z"/>
          <path class="cls-14" d="m20.43,10.67l.33,1.7c.25,1.3,1.52,2.15,2.81,1.9h0c1.29-.25,2.15-1.52,1.9-2.81l-.33-1.7c-.25-1.29-1.52-2.15-2.81-1.9h0c-1.29.25-2.15,1.52-1.9,2.81Z"/>
        </g>
        <g>
          <path id="ArmOne" class="cls-13" d="m24.44,17.04h0c1.32-.02,2.42,1.04,2.44,2.36l.18,11.22c.02,1.32-1.04,2.42-2.36,2.44h0c-1.32.02-2.42-1.04-2.44-2.36l-.18-11.22c-.02-1.32,1.04-2.42,2.36-2.44Z"/>
          <path class="cls-8" d="m24.46,20.24h0c.29,0,.53.23.53.51l.05,3.1c0,.29-.23.53-.51.53h0c-.29,0-.53-.23-.53-.51l-.05-3.1c0-.29.23-.53.51-.53Z"/>
          <path class="cls-3" d="m19.99,27.13c.04,2.53,2.12,4.55,4.65,4.51s4.55-2.12,4.51-4.65c-.04-2.53-2.11-3.61-4.64-3.57s-4.56,1.19-4.52,3.72Z"/>
          <path class="cls-2" d="m19.72,29.15c.04,2.7,2.27,4.85,4.96,4.81,2.7-.04,4.85-2.27,4.81-4.96-.04-2.7-2.25-3.85-4.95-3.81-2.7.04-4.87,1.27-4.82,3.96Z"/>
          <path class="cls-7" d="m21.06,29.63c.03,1.67,1.4,3,3.07,2.98,1.67-.03,3-1.4,2.98-3.07-.03-1.67-1.4-3-3.07-2.98-1.67.03-3,1.4-2.98,3.07Z"/>
          <path class="cls-13" d="m21.58,29.62c.03,1.67,1.4,3,3.07,2.98,1.67-.03,3-1.4,2.98-3.07-.03-1.67-1.4-3-3.07-2.98-1.67.03-3,1.4-2.98,3.07Z"/>
          <circle class="cls-8" cx="24.61" cy="29.57" r="1.92"/>
          <path class="cls-13" d="m23.78,29.58c0,.46.39.83.85.82.46,0,.83-.39.82-.85,0-.46-.39-.83-.85-.82-.46,0-.83.39-.82.85Z"/>
        </g>
      </g>
      <g>
        <g>
          <path class="cls-9" d="m37.38,20.77l-2-1.11c-.48-.27-1.09-.09-1.36.39h0c-.27.48-.09,1.09.39,1.36l2,1.11c.48.27,1.09.09,1.36-.39h0c.27-.48.09-1.09-.39-1.36Z"/>
          <path class="cls-9" d="m41.34,13.67l-2-1.11c-.48-.27-1.09-.09-1.36.39h0c-.27.48-.09,1.09.39,1.36l2,1.11c.48.27,1.09.09,1.36-.39h0c.27-.48.09-1.09-.39-1.36Z"/>
          <path class="cls-8" d="m39.12,12.44h0c-.36-.2-.81-.07-1.01.29l-4.2,7.54c-.2.36-.07.81.29,1.01h0c.36.2.81.07,1.01-.29l4.2-7.54c.2-.36.07-.81-.29-1.01Z"/>
          <path class="cls-11" d="m36.23,17.63h0c-.36-.2-.81-.07-1.01.29l-.61,1.09c-.2.36-.07.81.29,1.01h0c.36.2.81.07,1.01-.29l.61-1.09c.2-.36.07-.81-.29-1.01Z"/>
          <path class="cls-11" d="m38.03,14.39h0c-.36-.2-.81-.07-1.01.29l-.18.32c-.2.36-.07.81.29,1.01h0c.36.2.81.07,1.01-.29l.18-.32c.2-.36.07-.81-.29-1.01Z"/>
        </g>
        <path class="cls-7" d="m43.97,12.45h0c1.36.76,1.86,2.5,1.1,3.86l-4.2,7.54c-.76,1.36-2.5,1.86-3.86,1.1h0c-1.36-.76-1.86-2.5-1.1-3.86l4.2-7.54c.76-1.36,2.5-1.86,3.86-1.1Z"/>
        <path class="cls-2" d="m45.97,12.63h0c1.81,1.01,2.46,3.31,1.45,5.11l-4.21,7.55c-1.01,1.81-3.31,2.46-5.11,1.45h0c-1.81-1.01-2.46-3.31-1.45-5.11l4.21-7.55c1.01-1.81,3.31-2.46,5.11-1.45Z"/>
        <path class="cls-13" d="m47.3,13.37h0c1.81,1.01,2.46,3.31,1.45,5.11l-4.21,7.55c-1.01,1.81-3.31,2.46-5.11,1.45h0c-1.81-1.01-2.46-3.31-1.45-5.11l4.21-7.55c1.01-1.81,3.31-2.46,5.11-1.45Z"/>
        <path class="cls-8" d="m47.94,15.76h0c.36.2.49.66.29,1.01l-3.08,5.54c-.2.36-.66.49-1.01.29h0c-.36-.2-.49-.66-.29-1.01l3.08-5.54c.2-.36.66-.49,1.01-.29Z"/>
        <path class="cls-11" d="m45.47,20.2h0c.36.2.49.66.29,1.01l-.61,1.1c-.2.36-.66.49-1.01.29h0c-.36-.2-.49-.66-.29-1.01l.61-1.09c.2-.36.66-.49,1.01-.29Z"/>
        <path class="cls-11" d="m47.27,16.96h0c.36.2.49.66.29,1.01l-.18.32c-.2.36-.66.49-1.01.29h0c-.36-.2-.49-.66-.29-1.01l.18-.32c.2-.36.66-.49,1.01-.29Z"/>
        <path class="cls-8" d="m44.67,14.3h0c.36.2.49.66.29,1.01l-2.94,5.28c-.2.36-.66.49-1.01.29h0c-.36-.2-.49-.66-.29-1.01l2.94-5.28c.2-.36.66-.49,1.01-.29Z"/>
        <path class="cls-11" d="m43.04,17.24h0c.36.2.49.66.29,1.01l-.61,1.09c-.2.36-.66.49-1.01.29h0c-.36-.2-.49-.66-.29-1.01l.61-1.09c.2-.36.66-.49,1.01-.29Z"/>
        <path class="cls-11" d="m44.39,14.81h0c.36.2.49.66.29,1.01l-.18.32c-.2.36-.66.49-1.01.29h0c-.36-.2-.49-.66-.29-1.01l.18-.32c.2-.36.66-.49,1.01-.29Z"/>
        <path class="cls-3" d="m36.52,22.58c-.17.3-.54.41-.84.24-.3-.17-.41-.54-.24-.84.17-.3.54-.41.84-.24.3.17.41.54.24.84Z"/>
        <path class="cls-8" d="m39,23.31c-.65,1.16-.23,2.63.93,3.28s2.63.23,3.28-.93c.65-1.16.23-2.63-.93-3.28-1.16-.65-2.63-.23-3.28.93Z"/>
        <path class="cls-13" d="m39.98,23.85c-.35.63-.12,1.42.5,1.77s1.42.12,1.77-.5.12-1.42-.5-1.77c-.63-.35-1.42-.12-1.77.5Z"/>
        <path class="cls-3" d="m41.45,13.72c-.17.3-.54.41-.84.24-.3-.17-.41-.54-.24-.84.17-.3.54-.41.84-.24.3.17.41.54.24.84Z"/>
      </g>
      <g>
        <g id="ShinTwo">
          <path class="cls-13" d="m52.21,4.96h0c1.1.66,1.46,2.09.8,3.19l-5.31,8.88c-.66,1.1-2.09,1.46-3.19.8h0c-1.1-.66-1.46-2.09-.8-3.19l5.31-8.88c.66-1.1,2.09-1.46,3.19-.8Z"/>
        </g>
        <path class="cls-12" d="m44.74,15.24c-.32.54-.15,1.23.39,1.55s1.23.15,1.55-.39.15-1.23-.39-1.55-1.23-.15-1.55.39Z"/>
      </g>
      <g>
        <g id="ShinTwo-2" data-name="ShinTwo">
          <path class="cls-9" d="m64.73,33.88h0c-.23,1.26-1.45,2.1-2.71,1.87l-10.18-1.85c-1.26-.23-2.1-1.45-1.87-2.71h0c.23-1.26,1.45-2.1,2.71-1.87l10.18,1.85c1.26.23,2.1,1.45,1.87,2.71Z"/>
        </g>
        <path class="cls-8" d="m62.69,34.05h0c-.05.29-.33.48-.61.42l-10.26-1.87c-.29-.05-.48-.33-.42-.61h0c.05-.29.33-.48.61-.42l10.26,1.87c.29.05.48.33.42.61Z"/>
        <path class="cls-3" d="m55.81,32.8h0c-.05.29-.33.48-.61.42l-1.75-.32c-.29-.05-.48-.33-.42-.61h0c.05-.29.33-.48.61-.42l1.75.32c.29.05.48.33.42.61Z"/>
        <path class="cls-3" d="m60.52,33.68h0c-.05.3-.34.5-.64.45l-.92-.17c-.3-.05-.5-.34-.45-.64h0c.05-.3.34-.5.64-.44l.92.17c.3.05.5.34.45.64Z"/>
      </g>
      <g>
        <path class="cls-7" d="m47.56,2.26c-1.06,2.7.33,5.57,3.03,6.63,2.7,1.06,5.67-.09,6.74-2.79l-9.77-3.84Z"/>
        <path class="cls-2" d="m49.45,3c-.24.28-.44.59-.58.94-.69,1.75.17,3.74,1.93,4.43,1.75.69,3.74-.17,4.43-1.93.14-.36.2-.72.22-1.09l-5.99-2.36Z"/>
        <path class="cls-13" d="m48.94,1.66l7.79,3.07c.54.21.81.83.6,1.38v.03c-.22.54-.84.81-1.39.6l-7.79-3.07c-.54-.21-.81-.83-.6-1.38v-.03c.22-.54.84-.81,1.39-.6Z"/>
        <path class="cls-3" d="m48.24,5.4c.25-.64.97-.95,1.61-.7.64.25.95.97.7,1.61-.25.64-.97.95-1.61.7-.64-.25-.95-.97-.7-1.61Z"/>
        <path class="cls-3" d="m51.39,7.97c-.13.33-.5.49-.83.36-.33-.13-.49-.5-.36-.83.13-.33.5-.49.83-.36.33.13.49.5.36.83Z"/>
        <path class="cls-8" d="m55.47,5.82h0c.35.14.53.54.39.89h0c-.14.35-.54.53-.89.39h0c-.35-.14-.53-.54-.39-.89h0c.14-.35.54-.53.89-.39Z"/>
        <path class="cls-8" d="m48.91,3.24h0c.35.14.53.54.39.89h0c-.14.35-.54.53-.89.39h0c-.35-.14-.53-.54-.39-.89h0c.14-.35.54-.53.89-.39Z"/>
        <path class="cls-8" d="m51.1,4.1h0c.35.14.53.54.39.89h0c-.14.35-.54.53-.89.39h0c-.35-.14-.53-.54-.39-.89h0c.14-.35.54-.53.89-.39Z"/>
        <path class="cls-8" d="m53.28,4.96h0c.35.14.53.54.39.89h0c-.14.35-.54.53-.89.39h0c-.35-.14-.53-.54-.39-.89h0c.14-.35.54-.53.89-.39Z"/>
      </g>
      <g>
        <path class="cls-7" d="m66.98,26.76c-2.65-1.17-5.58.11-6.75,2.76-1.17,2.65-.14,5.67,2.51,6.84l4.24-9.6Z"/>
        <path class="cls-2" d="m66.16,28.62c-.27-.25-.57-.46-.92-.62-1.72-.76-3.74.02-4.5,1.75-.76,1.72.02,3.74,1.75,4.5.35.16.71.23,1.08.26l2.6-5.89Z"/>
        <path class="cls-13" d="m67.52,28.16l-3.38,7.66c-.24.53-.86.78-1.4.54h-.03c-.53-.25-.78-.88-.54-1.41l3.38-7.66c.24-.53.86-.78,1.4-.54h.03c.53.25.78.88.54,1.41Z"/>
        <path class="cls-3" d="m63.81,27.31c.63.28.91,1.01.63,1.63-.28.63-1.01.91-1.63.63s-.91-1.01-.63-1.63c.28-.63,1.01-.91,1.63-.63Z"/>
        <path class="cls-3" d="m61.11,30.36c-.32-.14-.47-.52-.33-.84.14-.32.52-.47.84-.33.32.14.47.52.33.84-.14.32-.52.47-.84.33Z"/>
        <path class="cls-8" d="m63.1,34.51h0c-.15.35-.56.5-.91.35h0c-.35-.15-.5-.56-.35-.91h0c.15-.35.56-.5.91-.35h0c.35.15.5.56.35.91Z"/>
        <path class="cls-8" d="m65.94,28.07h0c-.15.35-.56.5-.91.35h0c-.35-.15-.5-.56-.35-.91h0c.15-.35.56-.5.91-.35h0c.35.15.5.56.35.91Z"/>
        <path class="cls-8" d="m64.99,30.22h0c-.15.35-.56.5-.91.35h0c-.35-.15-.5-.56-.35-.91h0c.15-.35.56-.5.91-.35h0c.35.15.5.56.35.91Z"/>
        <path class="cls-8" d="m64.05,32.37h0c-.15.35-.56.5-.91.35h0c-.35-.15-.5-.56-.35-.91h0c.15-.35.56-.5.91-.35h0c.35.15.5.56.35.91Z"/>
      </g>
      <g>
        <path class="cls-13" d="m46.07,26.72h0c.16,4.59-3.47,8.48-8.07,8.64l-6.64.23c-2.6.09-4.8-1.97-4.89-4.57l-.25-7.24c-.09-2.6,1.97-4.8,4.57-4.89l6.64-.23c4.59-.16,8.48,3.47,8.64,8.07Z"/>
        <path class="cls-8" d="m38.03,28.76h0c.02.71-.54,1.31-1.25,1.34l-4.03.14c-.71.02-1.31-.54-1.34-1.25h0c-.02-.71.54-1.31,1.25-1.34l4.03-.14c.71-.02,1.31.54,1.34,1.25Z"/>
        <path class="cls-8" d="m37.82,22.4h0c.02.71-.54,1.31-1.25,1.34l-4.03.14c-.71.02-1.31-.54-1.34-1.25h0c-.02-.71.54-1.31,1.25-1.34l4.03-.14c.71-.02,1.31.54,1.34,1.25Z"/>
        <path class="cls-2" d="m33.87,28.2l.1,2.99c.04,1.07-.81,1.97-1.87,2.01h0c-2.21.08-4.09-1.67-4.16-3.89l-.03-.91c-.04-1.07.81-1.97,1.87-2.01l2.09-.07c1.07-.04,1.97.81,2.01,1.87Z"/>
        <path class="cls-2" d="m33.6,20.21l.1,2.99c.04,1.07-.81,1.97-1.87,2.01l-2.09.07c-1.07.04-1.97-.81-2.01-1.87l-.05-1.57c-.06-1.85,1.4-3.41,3.25-3.48l.66-.02c1.07-.04,1.97.81,2.01,1.87Z"/>
        <path class="cls-7" d="m32.7,21.58l-2.68,2.87c-.21.22-.56.23-.78.03h0c-.22-.21-.23-.56-.03-.78l2.68-2.87c.21-.22.56-.23.78-.03h0c.22.21.23.56.03.78Z"/>
        <path class="cls-7" d="m30.72,20.34l-1.19,1.27c-.21.22-.56.23-.78.03h0c-.22-.21-.23-.56-.03-.78l1.19-1.27c.21-.22.56-.23.78-.03h0c.22.21.23.56.03.78Z"/>
        <path class="cls-7" d="m32.97,29.38l-2.06,2.21c-.21.22-.56.23-.78.03h0c-.22-.21-.23-.56-.03-.78l2.06-2.21c.21-.22.56-.23.78-.03h0c.22.21.23.56.03.78Z"/>
        <path class="cls-7" d="m30.99,28.14l-1.19,1.27c-.21.22-.56.23-.78.03h0c-.22-.21-.23-.56-.03-.78l1.19-1.27c.21-.22.56-.23.78-.03h0c.22.21.23.56.03.78Z"/>
        <path class="cls-2" d="m38.23,21.06l.33,9.76c.02.48-.36.89-.84.9h0c-.48.02-.89-.36-.9-.84l-.33-9.76c-.02-.48.36-.89.84-.9h0c.48-.02.89.36.9.84Z"/>
        <path class="cls-8" d="m40.58,28.95h0c.01.41-.31.76-.72.77l-1.95.07c-.41.01-.76-.31-.77-.72h0c-.01-.41.31-.76.72-.77l1.95-.07c.41-.01.76.31.77.72Z"/>
        <path class="cls-8" d="m40.38,23.12h0c.01.41-.31.76-.72.77l-1.95.07c-.41.01-.76-.31-.77-.72h0c-.01-.41.31-.76.72-.77l1.95-.07c.41-.01.76.31.77.72Z"/>
        <path class="cls-8" d="m42.96,28.86c.62-.02,1.14.46,1.16,1.08.02.62-.46,1.14-1.08,1.16-.62.02-1.14-.46-1.16-1.08-.02-.62.46-1.14,1.08-1.16Z"/>
        <path class="cls-8" d="m42.3,21.34c.4-.01.73.3.74.7.01.4-.3.73-.7.74-.4.01-.73-.3-.74-.7-.01-.4.3-.73.7-.74Z"/>
        <path class="cls-3" d="m30.45,30.6c.36-.01.67.27.68.63.01.36-.27.67-.63.68s-.67-.27-.68-.63c-.01-.36.27-.67.63-.68Z"/>
        <path class="cls-3" d="m29.37,28.35c.36-.01.66.27.67.62.01.36-.27.66-.62.67-.36.01-.66-.27-.67-.62-.01-.36.27-.66.62-.67Z"/>
        <path class="cls-2" d="m42.52,22.58c-1.47.05-2.62,1.55-2.55,3.36s1.3,3.23,2.78,3.18,2.62-1.55,2.55-3.36-1.3-3.23-2.78-3.18Z"/>
        <path class="cls-3" d="m29.5,23.45c.36-.01.67.27.68.63.01.36-.27.67-.63.68-.36.01-.67-.27-.68-.63-.01-.36.27-.67.63-.68Z"/>
        <path class="cls-3" d="m29.11,20.59c.36-.01.66.27.67.62.01.36-.27.66-.62.67-.36.01-.66-.27-.67-.62-.01-.36.27-.66.62-.67Z"/>
        <path class="cls-2" d="m40.78,20.24l.43,12.56c.01.36-.27.66-.63.67h0c-.36.01-.66-.27-.67-.63l-.43-12.56c-.01-.36.27-.66.63-.67h0c.36-.01.66.27.67.63Z"/>
        <path class="cls-7" d="m40.87,22.95l.08,2.25c.01.36-.27.66-.63.67h0c-.36.01-.66-.27-.67-.63l-.08-2.25c-.01-.36.27-.66.63-.67h0c.36-.01.66.27.67.63Z"/>
        <path class="cls-7" d="m41.09,29.25l.02.53c.01.36-.27.66-.63.67h0c-.36.01-.66-.27-.67-.63l-.02-.53c-.01-.36.27-.66.63-.67h0c.36-.01.66.27.67.63Z"/>
        <path class="cls-3" d="m40.2,22.32c.36-.01.66.27.67.63.01.36-.27.66-.63.67-.36.01-.66-.27-.67-.63-.01-.36.27-.66.63-.67Z"/>
        <path class="cls-3" d="m40.41,28.45c.36-.01.66.27.67.63.01.36-.27.66-.63.67-.36.01-.66-.27-.67-.63-.01-.36.27-.66.63-.67Z"/>
        <path class="cls-7" d="m43.49,24.29c-.71.02-1.26.78-1.23,1.68.03.91.63,1.62,1.34,1.6.71-.02,1.26-.78,1.23-1.68-.03-.91-.63-1.62-1.34-1.6Z"/>
        <path class="cls-7" d="m42.18,24.03c.28,0,.51.21.52.49,0,.28-.21.51-.49.52s-.51-.21-.52-.49c0-.28.21-.51.49-.52Z"/>
      </g>
      <g>
        <path class="cls-13" d="m11.44,30.99s-1.3,1.44.73,3.79c.18.2.52.15.6-.11.2-.66.81-1.73,2.62-2.77l-3.95-.92Z"/>
        <path class="cls-13" d="m13.31,24.66s-.97-1.68-3.83-.47c-.25.11-.3.45-.08.6.56.39,1.39,1.3,1.83,3.35l2.09-3.47Z"/>
        <path class="cls-13" d="m11.33,31.9s-.37-7.55-1.66-10.14c-.17-.35.04-.77.43-.8,1.19-.1,3.23-.1,4.14.95l-2.91,9.99Z"/>
        <path class="cls-6" d="m23.57,27.56h0c.1,3.06-2.31,5.64-5.37,5.74l-2.97.1c-1.87.06-3.44-1.41-3.51-3.28l-.15-4.54c-.06-1.87,1.41-3.44,3.28-3.51l2.75-.09c3.17-.11,5.86,2.4,5.97,5.57Z"/>
        <path class="cls-13" d="m18.88,33.5h0c.03.83-.63,1.53-1.45,1.56l-2.48.08c-.83.03-1.53-.63-1.56-1.45h0c-.03-.83.63-1.53,1.45-1.56l2.48-.08c.83-.03,1.53.63,1.56,1.45Z"/>
        <path class="cls-1" d="m16.69,24.66c-2,.07-3.57,1.75-3.5,3.75.07,2,1.75,3.57,3.75,3.5s3.57-1.75,3.5-3.75c-.07-2-1.75-3.57-3.75-3.5Z"/>
        <path class="cls-13" d="m14.77,23.14l.29,8.64c.03,1.03-.78,1.89-1.8,1.93h0c-1.03.03-1.89-.78-1.93-1.8l-.29-8.64c-.03-1.03.78-1.89,1.8-1.93h0c1.03-.03,1.89.78,1.93,1.8Z"/>
        <g>
          <path class="cls-6" d="m16.35,31.26c.85-.03,1.56.49,1.59,1.34.03.85-.63,1.71-1.48,1.74-.85.03-1.56-.64-1.59-1.49-.03-.85.64-1.56,1.49-1.59Z"/>
          <path class="cls-10" d="m16.37,32c.44-.01.81.33.82.77.01.44-.33.81-.77.82-.44.01-.81-.33-.82-.77s.33-.81.77-.82Z"/>
        </g>
        <path class="cls-10" d="m20.01,25.87h0c.02.62-.47,1.14-1.09,1.16l-1.11.04c-.62.02-1.14-.47-1.16-1.09h0c-.02-.62.47-1.14,1.09-1.16l1.11-.04c.62-.02,1.14.47,1.16,1.09Z"/>
        <path class="cls-15" d="m13.03,23.09l.13,3.73c.01.34-.26.64-.61.65h0c-.34.01-.64-.26-.65-.61l-.13-3.73c-.01-.34.26-.64.61-.65h0c.34-.01.64.26.65.61Z"/>
        <path class="cls-3" d="m12.42,23.48c-.35.01-.62.3-.61.65s.3.62.65.61.62-.3.61-.65-.3-.62-.65-.61Z"/>
        <path class="cls-15" d="m13.25,29.5l.04,1.16c.01.34-.26.64-.61.65h0c-.34.01-.64-.26-.65-.61l-.04-1.16c-.01-.34.26-.64.61-.65h0c.34-.01.64.26.65.61Z"/>
        <g>
          <path class="cls-2" d="m19.12,23.25l-.99,7.1c-.15,1.08-1.15,1.83-2.23,1.68h0c-1.08-.15-1.83-1.15-1.68-2.23l.99-7.1c.15-1.08,1.15-1.83,2.23-1.68h0c1.08.15,1.83,1.15,1.68,2.23Z"/>
          <path class="cls-7" d="m17.57,29.26c-.1.7-.74,1.18-1.44,1.09-.7-.1-1.18-.74-1.09-1.44l.85-6.11c.1-.7.74-1.18,1.44-1.09.7.1,1.18.74,1.09,1.44l-.85,6.11Z"/>
        </g>
        <path class="cls-13" d="m26.91,27.49c-.12-3.66-2.94-6.6-6.48-6.98-.55-.06-1.02.39-1,.94l.43,12.57c.02.55.52.97,1.07.87,3.51-.62,6.11-3.74,5.99-7.41Z"/>
        <path class="cls-3" d="m24.96,26.44c-.07-2.18-1.75-3.93-3.86-4.16-.33-.04-.61.23-.6.56l.26,7.49c.01.33.31.58.64.52,2.09-.37,3.64-2.23,3.57-4.42Z"/>
        <path class="cls-8" d="m25.53,26.42c-.07-2.18-1.75-3.93-3.86-4.16-.33-.04-.61.23-.6.56l.26,7.49c.01.33.31.58.64.52,2.09-.37,3.64-2.23,3.57-4.42Z"/>
        <path class="cls-13" d="m22.39,27.95c.25,0,.46.19.47.44,0,.25-.19.46-.44.47-.25,0-.46-.19-.47-.44s.19-.46.44-.47Z"/>
        <path class="cls-13" d="m22.34,26.59c.25,0,.46.19.47.44s-.19.46-.44.47-.46-.19-.47-.44.19-.46.44-.47Z"/>
        <path class="cls-13" d="m22.29,25.24c.25,0,.46.19.47.44,0,.25-.19.46-.44.47-.25,0-.46-.19-.47-.44,0-.25.19-.46.44-.47Z"/>
        <path class="cls-13" d="m22.25,23.88c.25,0,.46.19.47.44,0,.25-.19.46-.44.47s-.46-.19-.47-.44c0-.25.19-.46.44-.47Z"/>
        <path class="cls-13" d="m23.71,26.54c.25,0,.46.19.47.44,0,.25-.19.46-.44.47-.25,0-.46-.19-.47-.44,0-.25.19-.46.44-.47Z"/>
        <path class="cls-13" d="m23.66,25.19c.25,0,.46.19.47.44,0,.25-.19.46-.44.47-.25,0-.46-.19-.47-.44,0-.25.19-.46.44-.47Z"/>
        <path class="cls-8" d="m21.61,32.29l.04,1.1c0,.22-.17.4-.38.41h0c-.22,0-.4-.17-.41-.38l-.04-1.1c0-.22.17-.4.38-.41h0c.22,0,.4.17.41.38Z"/>
        <path class="cls-8" d="m23.43,31.94v.39c.02.25-.17.46-.42.47h0c-.25,0-.46-.19-.47-.44v-.39c-.02-.25.17-.46.42-.47h0c.25,0,.46.19.47.44Z"/>
        <polygon class="cls-13" points="14 29.14 17.6 28.56 16.71 25.21 18.55 23.9 15.86 24.78 16.67 27.84 13.5 27.79 14 29.14"/>
      </g>
      <g>
        <path class="cls-13" d="m16.02,20.89h0c.15.51.7.81,1.21.66l3.15-.93c.51-.15.81-.7.66-1.21h0c-.15-.51-.7-.81-1.21-.66l-3.15.93c-.51.15-.81.7-.66,1.21Z"/>
        <path class="cls-13" d="m18.03,17.5h0c-.52.15-.81.7-.66,1.21l.93,3.15c.15.51.7.81,1.21.66h0c.51-.15.81-.7.66-1.21l-.93-3.15c-.15-.51-.7-.81-1.21-.66Z"/>
        <path class="cls-4" d="m12.53,8.51l1.46,4.93c.25.86,1.16,1.35,2.02,1.1h0c.86-.25,1.35-1.16,1.1-2.02l-1.46-4.93c-.25-.86-1.16-1.35-2.02-1.1h0c-.86.25-1.35,1.16-1.1,2.02Z"/>
        <path class="cls-3" d="m13.37,11.32l.16.53c.08.28.38.44.65.36h0c.28-.08.44-.38.36-.65l-.16-.53c-.08-.28-.38-.44-.65-.36h0c-.28.08-.44.38-.36.65Z"/>
        <path class="cls-3" d="m12.98,10.01h0c.08.28.38.44.65.36h0c.28-.08.44-.38.36-.65h0c-.08-.28-.38-.44-.65-.36h0c-.28.08-.44.38-.36.65Z"/>
        <path class="cls-13" d="m12.95,6.22l2.58,8.7c.22.74,1,1.17,1.74.95h0c.74-.22,1.17-1,.95-1.74l-2.58-8.7c-.22-.74-1-1.17-1.74-.95h0c-.74.22-1.17,1-.95,1.74Z"/>
        <path class="cls-13" d="m16.16,13.34h0c.16.56-.16,1.14-.71,1.31h0c-.56.16-1.14-.16-1.31-.71h0c-.16-.56.16-1.14.71-1.31h0c.56-.16,1.14.16,1.31.71Z"/>
        <path class="cls-13" d="m14.28,7h0c.16.56-.16,1.14-.71,1.31h0c-.56.16-1.14-.16-1.31-.71h0c-.16-.56.16-1.14.71-1.31h0c.56-.16,1.14.16,1.31.71Z"/>
        <path class="cls-13" d="m27.6,12.62l3.93,13.26c.38,1.28-.36,2.64-1.64,3.02l-2.74.81c-2.79.83-5.74-.78-6.56-3.56l-3.12-10.52c-.83-2.79.78-5.74,3.56-6.56h0c2.79-.83,5.74.78,6.56,3.56Z"/>
        <path class="cls-13" d="m14.65,3.63h0c.26.89,1.21,1.4,2.1,1.14l3.98-1.18c.89-.26,1.4-1.21,1.14-2.1h0c-.26-.89-1.21-1.4-2.1-1.14l-3.98,1.18c-.89.26-1.4,1.21-1.14,2.1Z"/>
        <path class="cls-3" d="m21.83,2.13l5.62,18.97-4.83,1.43c-1.74.52-3.57-.48-4.09-2.22l-4.45-15.02c-.13-.44.12-.9.56-1.03l7.19-2.13Z"/>
        <path class="cls-13" d="m22.78,1.58l5.49,18.54-4.83,1.43c-1.74.52-3.57-.48-4.09-2.22l-3.98-13.42c-.32-1.08.3-2.22,1.38-2.54l6.03-1.78Z"/>
        <path class="cls-7" d="m22.53,1.67l4.12,13.92-4.83,1.43c-1.74.52-3.57-.48-4.09-2.22l-2.95-9.98c-.13-.44.12-.9.56-1.03l7.19-2.13Z"/>
        <path class="cls-13" d="m21.47,4.41l1.91,6.46c.36,1.22,1.66,1.93,2.89,1.57h0c1.22-.36,1.93-1.66,1.57-2.89l-1.91-6.46c-.36-1.22-1.66-1.93-2.89-1.57h0c-1.22.36-1.93,1.66-1.57,2.89Z"/>
        <path class="cls-13" d="m20.45,17.99h0c-.02,1.9,1.53,3.48,3.43,3.49l3.08.03c1.9.02,3.48-1.53,3.49-3.43h0c.02-1.9-1.53-3.48-3.43-3.49l-3.08-.03c-1.9-.02-3.48,1.53-3.49,3.43Z"/>
        <path class="cls-13" d="m25.96,10.96l1.67,5.62c.62,2.08-.58,4.29-2.66,4.91h0c-2.08.62-4.29-.58-4.91-2.66l-1.67-5.62c-.62-2.08.58-4.29,2.66-4.91h0c2.08-.62,4.29.58,4.91,2.66Z"/>
        <path class="cls-8" d="m24.7,11.29l.65,2.19c.19.63-.18,1.3-.81,1.49h0c-.63.19-1.3-.18-1.49-.81l-.65-2.19c-.19-.63.18-1.3.81-1.49h0c.63-.19,1.3.18,1.49.81Z"/>
        <path class="cls-13" d="m20.83,19.26h0c-.02,1.9,1.53,3.48,3.43,3.49l3.08.03c1.9.02,3.48-1.53,3.49-3.43h0c.02-1.9-1.53-3.48-3.43-3.49l-3.08-.03c-1.9-.02-3.48,1.53-3.49,3.43Z"/>
        <path class="cls-8" d="m22,19.39h0c-.01,1.28,1.17,2.35,2.63,2.36l2.36.02c1.46.01,2.66-1.03,2.67-2.31h0c.01-1.28-1.17-2.35-2.63-2.36l-2.36-.02c-1.46-.01-2.66,1.03-2.67,2.31Z"/>
        <path class="cls-3" d="m27.67,21.58l-2.36-.02c-1.46-.01-2.64-1.07-2.63-2.36,0-.91.62-1.69,1.5-2.07-1.23.19-2.17,1.14-2.18,2.27-.01,1.28,1.17,2.35,2.63,2.36l2.36.02c.42,0,.82-.09,1.18-.24-.16.02-.32.04-.49.04Z"/>
        <path class="cls-13" d="m24.08,18.51c-.46.14-.72.62-.59,1.08.14.46.62.72,1.08.59.46-.14.72-.62.59-1.08-.14-.46-.62-.72-1.08-.59Z"/>
        <path class="cls-13" d="m27.36,18.73c-.39.12-.62.53-.5.93.12.39.53.62.93.5.39-.12.62-.53.5-.93-.12-.39-.53-.62-.93-.5Z"/>
        <path class="cls-3" d="m23.32,14.11h0c.14.49.66.76,1.14.62h0c.49-.14.76-.66.62-1.14h0c-.14-.49-.66-.76-1.14-.62h0c-.49.14-.76.66-.62,1.14Z"/>
        <g>
          <path class="cls-7" d="m22.65,4.61l1.3,4.4c.49,1.66,2.26,2.62,3.92,2.13h0c1.66-.49,2.62-2.26,2.13-3.92l-.98-3.31c-.49-1.66-2.26-2.62-3.92-2.13l-1.09.32c-1.06.31-1.67,1.44-1.36,2.5Z"/>
          <path class="cls-2" d="m24.31,5.77l.72,2.44c.3,1,1.35,1.57,2.35,1.28h0c1-.3,1.57-1.35,1.28-2.35l-.72-2.44c-.3-1-1.35-1.57-2.35-1.28h0c-1,.3-1.57,1.35-1.28,2.35Z"/>
          <path class="cls-3" d="m24.35,4.16c-.66.2-1.04.89-.85,1.56.2.66.89,1.04,1.56.85.66-.2,1.04-.89.85-1.56-.2-.66-.89-1.04-1.56-.85Z"/>
          <path class="cls-3" d="m27.51,7.38c-.46.14-.72.62-.58,1.07.14.46.62.72,1.07.58.46-.14.72-.62.58-1.07-.14-.46-.62-.72-1.07-.58Z"/>
        </g>
        <path class="cls-8" d="m20.11,12.75l1.16,3.91c.08.26.36.41.62.34h0c.26-.08.41-.36.34-.62l-1.16-3.91c-.08-.26-.36-.41-.62-.34h0c-.26.08-.41.36-.34.62Z"/>
        <path class="cls-8" d="m24.92,27.66h0c.24.81,1.1,1.27,1.9,1.03l2.16-.64c.81-.24,1.27-1.1,1.03-1.9h0c-.24-.81-1.1-1.27-1.9-1.03l-2.16.64c-.81.24-1.27,1.1-1.03,1.9Z"/>
        <path class="cls-8" d="m21.67,25.69h0c.2.68.92,1.07,1.59.87h0c.68-.2,1.07-.92.87-1.59h0c-.2-.68-.92-1.07-1.59-.87h0c-.68.2-1.07.92-.87,1.59Z"/>
        <path class="cls-13" d="m15.44,1.63h0c.14.49.66.77,1.15.63l1.48-.44c.49-.14.77-.66.63-1.15h0c-.14-.49-.66-.77-1.15-.63l-1.48.44c-.49.14-.77.66-.63,1.15Z"/>
        <path class="cls-8" d="m18.48,1.73h0c.09.29-.08.6-.38.69l-1.7.5c-.29.09-.6-.08-.69-.38h0c-.09-.29.08-.6.38-.69l1.7-.5c.29-.09.6.08.69.38Z"/>
        <path class="cls-8" d="m20.01,1.28h0c.07.24.33.38.57.31h0c.24-.07.38-.33.31-.57h0c-.07-.24-.33-.38-.57-.31h0c-.24.07-.38.33-.31.57Z"/>
        <path class="cls-3" d="m16.31,1.79h0c.11.36.49.57.85.46h0c.36-.11.57-.49.46-.85h0c-.11-.36-.49-.57-.85-.46h0c-.36.11-.57.49-.46.85Z"/>
        <g>
          <path class="cls-13" d="m20.28,11.28h0c-1,.29-2.05-.29-2.35-1.29l-.89-3.03c-.29-1,.29-2.05,1.29-2.35h0c1-.29,2.05.29,2.35,1.29l.89,3.03c.29,1-.29,2.05-1.29,2.35Z"/>
          <path class="cls-4" d="m19.59,8.92h0c-.68.2-1.4-.2-1.6-.88l-.29-1c-.2-.68.2-1.4.88-1.6h0c.68-.2,1.4.2,1.6.88l.29,1c.2.68-.2,1.4-.88,1.6Z"/>
          <path class="cls-3" d="m19.64,6.14c-.29-.39-.84-.48-1.23-.19s-.48.84-.19,1.23.84.48,1.23.19c.39-.29.48-.84.19-1.23Z"/>
          <path class="cls-8" d="m20.21,9.72c-.15-.21-.45-.25-.65-.1-.21.15-.25.45-.1.65.15.21.45.25.65.1.21-.15.25-.45.1-.65Z"/>
        </g>
      </g>
      <g>
        <path class="cls-9" d="m28.52,22.48l.75.42.1.06,2.5,1.42c1.15.65,2.62.25,3.27-.9h0c.65-1.15.25-2.62-.9-3.27l-2.5-1.42-.1-.06-.75-.42c-1.15-.65-2.62-.25-3.27.9h0c-.65,1.15-.25,2.62.9,3.27Z"/>
        <path class="cls-2" d="m26.78,21.49l1.51.86c1.15.65,2.62.25,3.27-.9h0c.65-1.15.25-2.62-.9-3.27l-1.51-.86c-1.15-.65-2.62-.25-3.27.9h0c-.65,1.15-.25,2.62.9,3.27Z"/>
      </g>
      <g>
        <path class="cls-7" d="m25.74,12.93l1.06,3.58c.27.93-.26,1.91-1.19,2.19h0c-.93.27-1.91-.26-2.19-1.19l-1.06-3.58c-.27-.93.26-1.91,1.19-2.19h0c.93-.27,1.91.26,2.19,1.19Z"/>
        <path class="cls-7" d="m23.68,18.38l.1.32c.64,2.16,2.93,3.4,5.09,2.76h0c2.16-.64,3.4-2.93,2.76-5.09l-.09-.32c-.64-2.16-2.93-3.4-5.09-2.76h0c-2.16.64-3.4,2.93-2.76,5.09Z"/>
        <path class="cls-2" d="m30.56,15.79h0c.4,1.34-.37,2.76-1.71,3.15l-1.37.4c-1.34.4-2.76-.37-3.15-1.71h0c-.4-1.34.37-2.76,1.71-3.15l1.37-.4c1.34-.4,2.76.37,3.15,1.71Z"/>
        <path class="cls-2" d="m25.36,14.58l.68,2.31c.14.49-.14,1-.62,1.15h0c-.49.14-1-.14-1.15-.62l-.68-2.31c-.14-.49.14-1,.62-1.15h0c.49-.14,1,.14,1.15.62Z"/>
        <path class="cls-3" d="m27.45,16.71h0c.22.74-.21,1.52-.94,1.74h0c-.74.22-1.52-.21-1.74-.94h0c-.22-.74.21-1.52.94-1.74h0c.74-.22,1.52.21,1.74.94Z"/>
        <path class="cls-3" d="m29.83,17.94h0c.15.5-.14,1.03-.64,1.17h0c-.5.15-1.03-.14-1.17-.64h0c-.15-.5.14-1.03.64-1.17h0c.5-.15,1.03.14,1.17.64Z"/>
      </g>
      <g>
        <path class="cls-5" d="m7.02,21.62v12.8c0,1.03.85,1.88,1.88,1.88h0c1.03,0,1.88-.85,1.88-1.88v-12.8c0-1.03-.85-1.88-1.88-1.88h0c-1.03,0-1.88.85-1.88,1.88Z"/>
        <path class="cls-5" d="m13.24,19.37v2.99c0,.68.56,1.24,1.24,1.24h0c.68,0,1.24-.56,1.24-1.24v-2.99c0-.68-.56-1.24-1.24-1.24h0c-.68,0-1.24.56-1.24,1.24Z"/>
        <path class="cls-5" d="m3.02,13.17v8.47c0,.68.56,1.24,1.24,1.24h0c.68,0,1.24-.56,1.24-1.24v-8.47c0-.68-.56-1.24-1.24-1.24h0c-.68,0-1.24.56-1.24,1.24Z"/>
        <path class="cls-5" d="m.36,28.19l5.99,5.99c.48.48,1.28.48,1.76,0h0c.48-.48.48-1.28,0-1.76l-5.99-5.99c-.48-.48-1.28-.48-1.76,0H.36c-.48.48-.48,1.28,0,1.76Z"/>
        <path class="cls-5" d="m3.02,5.96v1.73c0,.68.56,1.24,1.24,1.24h0c.68,0,1.24-.56,1.24-1.24v-1.73c0-.68-.56-1.24-1.24-1.24h0c-.68,0-1.24.56-1.24,1.24Z"/>
        <path class="cls-5" d="m7.02,10.37v1.73c0,.68.56,1.24,1.24,1.24h0c.68,0,1.24-.56,1.24-1.24v-1.73c0-.68-.56-1.24-1.24-1.24h0c-.68,0-1.24.56-1.24,1.24Z"/>
      </g>
      <g>
        <path id="ArmOne-2" data-name="ArmOne" class="cls-9" d="m34.42,20.42h0c1.09.74,1.38,2.24.64,3.33l-6.31,9.29c-.74,1.09-2.24,1.38-3.33.64h0c-1.09-.74-1.38-2.24-.64-3.33l6.31-9.28c.74-1.09,2.24-1.38,3.33-.64Z"/>
        <path class="cls-13" d="m32.23,23.6h0c.24.16.3.49.14.73l-1.75,2.57c-.16.24-.49.3-.73.14h0c-.24-.16-.3-.49-.14-.73l1.75-2.57c.16-.24.49-.3.73-.14Z"/>
        <path class="cls-3" d="m24.98,26.11c-1.42,2.09-.88,4.94,1.21,6.36,2.09,1.42,4.94.88,6.36-1.21,1.42-2.09.35-4.17-1.74-5.59-2.09-1.42-4.41-1.65-5.84.44Z"/>
        <path class="cls-2" d="m23.59,27.61c-1.52,2.23-.94,5.27,1.29,6.79s5.27.94,6.79-1.29c1.52-2.23.38-4.44-1.86-5.96-2.23-1.52-4.71-1.77-6.23.47Z"/>
        <path class="cls-7" d="m25.31,28.91c-1.19,1.75-.92,4.01.6,5.04,1.52,1.04,3.72.46,4.91-1.29,1.19-1.75.48-3.36-1.05-4.39-1.52-1.04-3.28-1.11-4.47.64Z"/>
        <path class="cls-4" d="m31.36,23.01c-.32.48-.2,1.13.28,1.45s1.13.2,1.45-.28c.32-.48.2-1.13-.28-1.45-.48-.32-1.13-.2-1.45.28Z"/>
        <g>
          <path class="cls-2" d="m29.66,29.25h0c.03.13-.06.26-.2.29l-2.64.5c-.13.03-.26-.06-.29-.2h0c-.03-.13.06-.26.2-.29l2.64-.5c.13-.03.26.06.29.2Z"/>
          <path class="cls-2" d="m29.14,31.08h0c.03.13-.06.26-.2.29l-2.64.5c-.13.03-.26-.06-.29-.2h0c-.03-.13.06-.26.2-.29l2.64-.5c.13-.03.26.06.29.2Z"/>
          <path class="cls-2" d="m30.46,32.02h0c.03.13-.06.26-.2.29l-2.64.5c-.13.03-.26-.06-.29-.2h0c-.03-.13.06-.27.2-.29l2.64-.5c.13-.03.26.06.29.2Z"/>
        </g>
        <path class="cls-3" d="m25.67,31.77c.58-.85,1.74-1.07,2.6-.49.85.58,1.07,1.74.49,2.6-.58.85-1.74,1.07-2.6.49-.85-.58-1.07-1.74-.49-2.6Z"/>
        <path class="cls-3" d="m25.81,29.7c-.19.28-.58.36-.86.16-.28-.19-.36-.58-.16-.86.19-.28.58-.36.86-.16.28.19.36.58.16.86Z"/>
      </g>
      <g>
        <path class="cls-9" d="m55.34,32.27h0c.37-2.03-.99-4-3.02-4.37l-8.51-1.55c-2.03-.37-4,.99-4.37,3.02h0c-.37,2.03.99,4,3.02,4.37l8.51,1.55c2.03.37,4-.99,4.37-3.02Z"/>
        <path class="cls-2" d="m54.99,34.14c.31-2-1.03-3.91-3.03-4.27l-8.51-1.55c-2.03-.37-4,.99-4.37,3.02-.19,1.01.06,2.01.61,2.8h15.3Z"/>
        <path class="cls-3" d="m54.11,34.34c.15-1.46-.84-2.82-2.3-3.09l-8.49-1.55c-1.54-.28-3.02.75-3.3,2.28-.16.88.11,1.73.66,2.36h13.44Z"/>
        <path class="cls-7" d="m53.93,34.46c-.19-1.15-1.07-2.13-2.28-2.35l-8.49-1.55c-1.54-.28-3.02.75-3.3,2.28-.1.56-.03,1.12.18,1.61h13.89Z"/>
        <path class="cls-9" d="m44.04,31.03l.41-2.25c.1-.54-.26-1.06-.8-1.16h0c-.54-.1-1.06.26-1.16.8l-.41,2.25c-.1.54.26,1.06.8,1.16h0c.54.1,1.06-.26,1.16-.8Z"/>
        <path class="cls-9" d="m52.04,32.49l.41-2.25c.1-.54-.26-1.06-.8-1.16h0c-.54-.1-1.06.26-1.16.8l-.41,2.25c-.1.54.26,1.06.8,1.16h0c.54.1,1.06-.26,1.16-.8Z"/>
        <path class="cls-8" d="m52.49,30h0c.07-.4-.2-.79-.6-.87l-8.49-1.55c-.4-.07-.79.2-.87.6h0c-.07.4.2.79.6.87l8.49,1.55c.4.07.79-.2.87-.6Z"/>
        <path class="cls-11" d="m46.65,28.93h0c.07-.4-.2-.79-.6-.87l-1.23-.22c-.4-.07-.79.2-.87.6h0c-.07.4.2.79.6.87l1.23.22c.4.07.79-.2.87-.6Z"/>
        <path class="cls-11" d="m50.29,29.59h0c.07-.4-.2-.79-.6-.87l-.36-.07c-.4-.07-.79.2-.87.6h0c-.07.4.2.79.6.87l.36.07c.4.07.79-.2.87-.6Z"/>
        <path class="cls-2" d="m46.79,31.84h0c-.11.08-.14.23-.06.35l1.53,2.21c.08.11.23.14.35.06h0c.11-.08.14-.23.06-.35l-1.53-2.21c-.08-.11-.23-.14-.35-.06Z"/>
      </g>
      <path class="cls-5" d="m54.36,36.27H4.98c-.93,0-1.68-.76-1.68-1.68h0c0-.93.76-1.68,1.68-1.68h49.38c.93,0,1.68.76,1.68,1.68h0c0,.93-.76,1.68-1.68,1.68Z"/>
    </g>
  </g>
</svg>