<?xml version="1.0" encoding="UTF-8"?>
<svg id="Layer_2" data-name="Layer 2" xmlns="http://www.w3.org/2000/svg" viewBox="0 0 67.32 19.94">
  <defs>
    <style>
      .cls-1 {
        fill: #55236e;
      }

      .cls-2 {
        fill: #a20025;
      }

      .cls-3 {
        fill: #fff;
      }

      .cls-4 {
        fill: #7cff00;
      }

      .cls-5 {
        fill: #e71e00;
      }

      .cls-6 {
        fill: #ffd285;
      }

      .cls-7 {
        fill: #fd003a;
      }

      .cls-8 {
        fill: #4d4d4d;
      }

      .cls-9 {
        fill: #333;
      }

      .cls-10 {
        fill: #ff6e4c;
      }

      .cls-11 {
        fill: #999;
      }

      .cls-12 {
        fill: #434343;
      }

      .cls-13 {
        fill: #1a1a1a;
      }

      .cls-14 {
        fill: #666;
      }
    </style>
  </defs>
  <g id="dead">
    <g id="dead8">
      <g>
        <g>
          <path class="cls-9" d="m42.27,3.94l-.21-2.27c-.05-.55-.54-.96-1.09-.91h0c-.55.05-.96.54-.91,1.09l.21,2.27c.05.55.54.96,1.09.91h0c.55-.05.96-.54.91-1.09Z"/>
          <path class="cls-9" d="m50.37,3.21l-.21-2.27c-.05-.55-.54-.96-1.09-.91h0c-.55.05-.96.54-.91,1.09l.21,2.27c.05.55.54.96,1.09.91h0c.55-.05.96-.54.91-1.09Z"/>
          <path class="cls-8" d="m50.14.68h0c-.04-.41-.4-.71-.81-.67l-8.6.78c-.41.04-.71.4-.67.81h0c.04.41.4.71.81.67l8.6-.78c.41-.04.71-.4.67-.81Z"/>
          <path class="cls-11" d="m44.22,1.22h0c-.04-.41-.4-.71-.81-.67l-1.25.11c-.41.04-.71.4-.67.81h0c.04.41.4.71.81.67l1.25-.11c.41-.04.71-.4.67-.81Z"/>
          <path class="cls-11" d="m47.91.88h0c-.04-.41-.4-.71-.81-.67l-.36.03c-.41.04-.71.4-.67.81h0c.04.41.4.71.81.67l.36-.03c.41-.04.71-.4.67-.81Z"/>
        </g>
        <path class="cls-7" d="m52.85,4.69h0c.14,1.56-1.02,2.94-2.57,3.08l-8.59.78c-1.56.14-2.94-1.02-3.08-2.57h0c-.14-1.56,1.02-2.94,2.57-3.08l8.59-.78c1.56-.14,2.94,1.02,3.08,2.57Z"/>
        <path class="cls-2" d="m53.84,6.44h0c.19,2.06-1.34,3.9-3.4,4.08l-8.61.78c-2.06.19-3.9-1.34-4.08-3.4h0c-.19-2.06,1.34-3.9,3.4-4.08l8.61-.78c2.06-.19,3.9,1.34,4.08,3.4Z"/>
        <path class="cls-13" d="m53.98,7.96h0c.19,2.06-1.34,3.9-3.4,4.08l-8.61.78c-2.06.19-3.9-1.34-4.08-3.4h0c-.19-2.06,1.34-3.9,3.4-4.08l8.61-.78c2.06-.19,3.9,1.34,4.08,3.4Z"/>
        <path class="cls-8" d="m52.37,9.83h0c.04.41-.27.77-.67.81l-6.31.57c-.41.04-.77-.27-.81-.67h0c-.04-.41.27-.77.67-.81l6.31-.57c.41-.04.77.27.81.67Z"/>
        <path class="cls-11" d="m47.3,10.3h0c.04.41-.27.77-.67.81l-1.25.11c-.41.04-.77-.27-.81-.67h0c-.04-.41.27-.77.67-.81l1.25-.11c.41-.04.77.27.81.67Z"/>
        <path class="cls-11" d="m51,9.96h0c.04.41-.27.77-.67.81l-.36.03c-.41.04-.77-.27-.81-.67h0c-.04-.41.27-.77.67-.81l.36-.03c.41-.04.77.27.81.67Z"/>
        <path class="cls-8" d="m51.73,6.32h0c.04.41-.27.77-.67.81l-6.02.55c-.41.04-.77-.27-.81-.67h0c-.04-.41.27-.77.67-.81l6.02-.55c.41-.04.77.27.81.67Z"/>
        <path class="cls-11" d="m48.38,6.62h0c.04.41-.27.77-.67.81l-1.25.11c-.41.04-.77-.27-.81-.67h0c-.04-.41.27-.77.67-.81l1.25-.11c.41-.04.77.27.81.67Z"/>
        <path class="cls-11" d="m51.15,6.37h0c.04.41-.27.77-.67.81l-.36.03c-.41.04-.77-.27-.81-.67h0c-.04-.41.27-.77.67-.81l.36-.03c.41-.04.77.27.81.67Z"/>
        <path class="cls-3" d="m40.29,4.25c-.34.03-.64-.22-.67-.56-.03-.34.22-.64.56-.67.34-.03.64.22.67.56.03.34-.22.64-.56.67Z"/>
        <path class="cls-8" d="m41.09,6.71c-1.33.12-2.3,1.29-2.18,2.62.12,1.33,1.29,2.3,2.62,2.18,1.33-.12,2.3-1.29,2.18-2.62-.12-1.33-1.29-2.3-2.62-2.18Z"/>
        <path class="cls-13" d="m41.19,7.82c-.71.06-1.24.7-1.18,1.41.06.71.7,1.24,1.41,1.18.71-.06,1.24-.7,1.18-1.41-.06-.71-.7-1.24-1.41-1.18Z"/>
        <path class="cls-3" d="m50.39,3.33c-.34.03-.64-.22-.67-.56-.03-.34.22-.64.56-.67s.64.22.67.56c.03.34-.22.64-.56.67Z"/>
      </g>
      <g>
        <g id="ShinTwo">
          <path class="cls-13" d="m63.69,7.27h0c.08,1.28-.91,2.39-2.19,2.46l-10.33.61c-1.28.08-2.39-.91-2.46-2.19h0c-.08-1.28.91-2.39,2.19-2.46l10.33-.61c1.28-.08,2.39.91,2.46,2.19Z"/>
        </g>
        <path class="cls-12" d="m50.99,6.89c-.62.04-1.1.57-1.06,1.2.04.62.57,1.1,1.2,1.06.62-.04,1.1-.57,1.06-1.2-.04-.62-.57-1.1-1.2-1.06Z"/>
      </g>
      <g>
        <path class="cls-7" d="m63.3,1.92c-2.83.64-4.41,3.41-3.77,6.24.64,2.83,3.27,4.64,6.1,3.99l-2.33-10.23Z"/>
        <path class="cls-2" d="m63.75,3.9c-.36-.04-.73-.03-1.11.05-1.84.42-2.99,2.25-2.57,4.09.42,1.84,2.25,2.99,4.09,2.57.37-.09.71-.24,1.02-.43l-1.43-6.28Z"/>
        <path class="cls-13" d="m64.57,2.71l1.86,8.17c.13.57-.23,1.14-.8,1.27h-.03c-.57.14-1.14-.22-1.27-.79l-1.86-8.17c-.13-.57.23-1.14.8-1.27h.03c.57-.14,1.14.22,1.27.79Z"/>
        <path class="cls-3" d="m61.09,4.25c.67-.15,1.33.27,1.48.93.15.67-.27,1.33-.93,1.48-.67.15-1.33-.27-1.48-.93-.15-.67.27-1.33.93-1.48Z"/>
        <path class="cls-3" d="m60.74,8.3c-.34.08-.69-.14-.76-.48-.08-.34.14-.69.48-.76.34-.08.69.14.76.48s-.14.69-.48.76Z"/>
        <path class="cls-8" d="m64.82,10.45h0c.08.37-.15.74-.52.82h0c-.37.08-.74-.15-.82-.52h0c-.08-.37.15-.74.52-.82h0c.37-.08.74.15.82.52Z"/>
        <path class="cls-8" d="m63.25,3.59h0c.08.37-.15.74-.52.82h0c-.37.08-.74-.15-.82-.52h0c-.08-.37.15-.74.52-.82h0c.37-.08.74.15.82.52Z"/>
        <path class="cls-8" d="m63.77,5.87h0c.08.37-.15.74-.52.82h0c-.37.08-.74-.15-.82-.52h0c-.08-.37.15-.74.52-.82h0c.37-.08.74.15.82.52Z"/>
        <path class="cls-8" d="m64.3,8.16h0c.08.37-.15.74-.52.82h0c-.37.08-.74-.15-.82-.52h0c-.08-.37.15-.74.52-.82h0c.37-.08.74.15.82.52Z"/>
      </g>
      <g>
        <g id="ShinTwo-2" data-name="ShinTwo">
          <path class="cls-9" d="m64.43,17.37h0c-.23,1.26-1.45,2.1-2.71,1.87l-10.18-1.85c-1.26-.23-2.1-1.45-1.87-2.71h0c.23-1.26,1.45-2.1,2.71-1.87l10.18,1.85c1.26.23,2.1,1.45,1.87,2.71Z"/>
        </g>
        <path class="cls-8" d="m62.4,17.54h0c-.05.29-.33.48-.61.42l-10.26-1.87c-.29-.05-.48-.33-.42-.61h0c.05-.29.33-.48.61-.42l10.26,1.87c.29.05.48.33.42.61Z"/>
        <path class="cls-3" d="m55.52,16.28h0c-.05.29-.33.48-.61.42l-1.75-.32c-.29-.05-.48-.33-.42-.61h0c.05-.29.33-.48.61-.42l1.75.32c.29.05.48.33.42.61Z"/>
        <path class="cls-3" d="m60.23,17.17h0c-.05.3-.34.5-.64.45l-.92-.17c-.3-.05-.5-.34-.45-.64h0c.05-.3.34-.5.64-.44l.92.17c.3.05.5.34.45.64Z"/>
      </g>
      <g>
        <path class="cls-7" d="m66.69,10.25c-2.65-1.17-5.58.11-6.75,2.76-1.17,2.65-.14,5.67,2.51,6.84l4.24-9.6Z"/>
        <path class="cls-2" d="m65.87,12.1c-.27-.25-.57-.46-.92-.62-1.72-.76-3.74.02-4.5,1.75-.76,1.72.02,3.74,1.75,4.5.35.16.71.23,1.08.26l2.6-5.89Z"/>
        <path class="cls-13" d="m67.23,11.65l-3.38,7.66c-.24.53-.86.78-1.4.54h-.03c-.53-.25-.78-.88-.54-1.41l3.38-7.66c.24-.53.86-.78,1.4-.54h.03c.53.25.78.88.54,1.41Z"/>
        <path class="cls-3" d="m63.52,10.8c.63.28.91,1.01.63,1.63s-1.01.91-1.63.63-.91-1.01-.63-1.63c.28-.63,1.01-.91,1.63-.63Z"/>
        <path class="cls-3" d="m60.82,13.85c-.32-.14-.47-.52-.33-.84.14-.32.52-.47.84-.33.32.14.47.52.33.84-.14.32-.52.47-.84.33Z"/>
        <path class="cls-8" d="m62.81,18h0c-.15.35-.56.5-.91.35h0c-.35-.15-.5-.56-.35-.91h0c.15-.35.56-.5.91-.35h0c.35.15.5.56.35.91Z"/>
        <path class="cls-8" d="m65.65,11.56h0c-.15.35-.56.5-.91.35h0c-.35-.15-.5-.56-.35-.91h0c.15-.35.56-.5.91-.35h0c.35.15.5.56.35.91Z"/>
        <path class="cls-8" d="m64.7,13.71h0c-.15.35-.56.5-.91.35h0c-.35-.15-.5-.56-.35-.91h0c.15-.35.56-.5.91-.35h0c.35.15.5.56.35.91Z"/>
        <path class="cls-8" d="m63.75,15.85h0c-.15.35-.56.5-.91.35h0c-.35-.15-.5-.56-.35-.91h0c.15-.35.56-.5.91-.35h0c.35.15.5.56.35.91Z"/>
      </g>
      <g>
        <path class="cls-13" d="m45.78,10.21h0c.16,4.59-3.47,8.48-8.07,8.64l-6.64.23c-2.6.09-4.8-1.97-4.89-4.57l-.25-7.24c-.09-2.6,1.97-4.8,4.57-4.89l6.64-.23c4.59-.16,8.48,3.47,8.64,8.07Z"/>
        <path class="cls-8" d="m37.74,12.24h0c.02.71-.54,1.31-1.25,1.34l-4.03.14c-.71.02-1.31-.54-1.34-1.25h0c-.02-.71.54-1.31,1.25-1.34l4.03-.14c.71-.02,1.31.54,1.34,1.25Z"/>
        <path class="cls-8" d="m37.53,5.89h0c.02.71-.54,1.31-1.25,1.34l-4.03.14c-.71.02-1.31-.54-1.34-1.25h0c-.02-.71.54-1.31,1.25-1.34l4.03-.14c.71-.02,1.31.54,1.34,1.25Z"/>
        <path class="cls-2" d="m33.58,11.69l.1,2.99c.04,1.07-.81,1.97-1.87,2.01h0c-2.21.08-4.09-1.67-4.16-3.89l-.03-.91c-.04-1.07.81-1.97,1.87-2.01l2.09-.07c1.07-.04,1.97.81,2.01,1.87Z"/>
        <path class="cls-2" d="m33.3,3.7l.1,2.99c.04,1.07-.81,1.97-1.87,2.01l-2.09.07c-1.07.04-1.97-.81-2.01-1.87l-.05-1.57c-.06-1.85,1.4-3.41,3.25-3.48l.66-.02c1.07-.04,1.97.81,2.01,1.87Z"/>
        <path class="cls-7" d="m32.41,5.06l-2.68,2.87c-.21.22-.56.23-.78.03h0c-.22-.21-.23-.56-.03-.78l2.68-2.87c.21-.22.56-.23.78-.03h0c.22.21.23.56.03.78Z"/>
        <path class="cls-7" d="m30.43,3.83l-1.19,1.27c-.21.22-.56.23-.78.03h0c-.22-.21-.23-.56-.03-.78l1.19-1.27c.21-.22.56-.23.78-.03h0c.22.21.23.56.03.78Z"/>
        <path class="cls-7" d="m32.68,12.87l-2.06,2.21c-.21.22-.56.23-.78.03h0c-.22-.21-.23-.56-.03-.78l2.06-2.21c.21-.22.56-.23.78-.03h0c.22.21.23.56.03.78Z"/>
        <path class="cls-7" d="m30.69,11.63l-1.19,1.27c-.21.22-.56.23-.78.03h0c-.22-.21-.23-.56-.03-.78l1.19-1.27c.21-.22.56-.23.78-.03h0c.22.21.23.56.03.78Z"/>
        <path class="cls-2" d="m37.94,4.55l.33,9.76c.02.48-.36.89-.84.9h0c-.48.02-.89-.36-.9-.84l-.33-9.76c-.02-.48.36-.89.84-.9h0c.48-.02.89.36.9.84Z"/>
        <path class="cls-8" d="m40.29,12.44h0c.01.41-.31.76-.72.77l-1.95.07c-.41.01-.76-.31-.77-.72h0c-.01-.41.31-.76.72-.77l1.95-.07c.41-.01.76.31.77.72Z"/>
        <path class="cls-8" d="m40.09,6.6h0c.01.41-.31.76-.72.77l-1.95.07c-.41.01-.76-.31-.77-.72h0c-.01-.41.31-.76.72-.77l1.95-.07c.41-.01.76.31.77.72Z"/>
        <path class="cls-8" d="m42.67,12.35c.62-.02,1.14.46,1.16,1.08.02.62-.46,1.14-1.08,1.16-.62.02-1.14-.46-1.16-1.08-.02-.62.46-1.14,1.08-1.16Z"/>
        <path class="cls-8" d="m42.01,4.83c.4-.01.73.3.74.7.01.4-.3.73-.7.74-.4.01-.73-.3-.74-.7-.01-.4.3-.73.7-.74Z"/>
        <path class="cls-3" d="m30.15,14.09c.36-.01.67.27.68.63.01.36-.27.67-.63.68-.36.01-.67-.27-.68-.63-.01-.36.27-.67.63-.68Z"/>
        <path class="cls-3" d="m29.08,11.84c.36-.01.66.27.67.62.01.36-.27.66-.62.67-.36.01-.66-.27-.67-.62-.01-.36.27-.66.62-.67Z"/>
        <path class="cls-2" d="m42.23,6.07c-1.47.05-2.62,1.55-2.55,3.36s1.3,3.23,2.78,3.18,2.62-1.55,2.55-3.36c-.06-1.81-1.3-3.23-2.78-3.18Z"/>
        <path class="cls-3" d="m29.21,6.94c.36-.01.67.27.68.63.01.36-.27.67-.63.68s-.67-.27-.68-.63c-.01-.36.27-.67.63-.68Z"/>
        <path class="cls-3" d="m28.81,4.08c.36-.01.66.27.67.62.01.36-.27.66-.62.67-.36.01-.66-.27-.67-.62-.01-.36.27-.66.62-.67Z"/>
        <path class="cls-2" d="m40.49,3.72l.43,12.56c.01.36-.27.66-.63.67h0c-.36.01-.66-.27-.67-.63l-.43-12.56c-.01-.36.27-.66.63-.67h0c.36-.01.66.27.67.63Z"/>
        <path class="cls-7" d="m40.58,6.44l.08,2.25c.01.36-.27.66-.63.67h0c-.36.01-.66-.27-.67-.63l-.08-2.25c-.01-.36.27-.66.63-.67h0c.36-.01.66.27.67.63Z"/>
        <path class="cls-7" d="m40.8,12.74l.02.53c.01.36-.27.66-.63.67h0c-.36.01-.66-.27-.67-.63l-.02-.53c-.01-.36.27-.66.63-.67h0c.36-.01.66.27.67.63Z"/>
        <path class="cls-3" d="m39.91,5.81c.36-.01.66.27.67.63.01.36-.27.66-.63.67-.36.01-.66-.27-.67-.63-.01-.36.27-.66.63-.67Z"/>
        <path class="cls-3" d="m40.12,11.94c.36-.01.66.27.67.63.01.36-.27.66-.63.67-.36.01-.66-.27-.67-.63-.01-.36.27-.66.63-.67Z"/>
        <path class="cls-7" d="m43.19,7.78c-.71.02-1.26.78-1.23,1.68.03.91.63,1.62,1.34,1.6.71-.02,1.26-.78,1.23-1.68-.03-.91-.63-1.62-1.34-1.6Z"/>
        <path class="cls-7" d="m41.89,7.52c.28,0,.51.21.52.49,0,.28-.21.51-.49.52s-.51-.21-.52-.49c0-.28.21-.51.49-.52Z"/>
      </g>
      <g>
        <path class="cls-13" d="m11.14,14.48s-1.3,1.44.73,3.79c.18.2.52.15.6-.11.2-.66.81-1.73,2.62-2.77l-3.95-.92Z"/>
        <path class="cls-13" d="m13.01,8.15s-.97-1.68-3.83-.47c-.25.11-.3.45-.08.6.56.39,1.39,1.3,1.83,3.35l2.09-3.47Z"/>
        <path class="cls-13" d="m11.04,15.39s-.37-7.55-1.66-10.14c-.17-.35.04-.77.43-.8,1.19-.1,3.23-.1,4.14.95l-2.91,9.99Z"/>
        <path class="cls-6" d="m23.28,11.04h0c.1,3.06-2.31,5.64-5.37,5.74l-2.97.1c-1.87.06-3.44-1.41-3.51-3.28l-.15-4.54c-.06-1.87,1.41-3.44,3.28-3.51l2.75-.09c3.17-.11,5.86,2.4,5.97,5.57Z"/>
        <path class="cls-13" d="m18.59,16.98h0c.03.83-.63,1.53-1.45,1.56l-2.48.08c-.83.03-1.53-.63-1.56-1.45h0c-.03-.83.63-1.53,1.45-1.56l2.48-.08c.83-.03,1.53.63,1.56,1.45Z"/>
        <path class="cls-1" d="m16.4,8.15c-2,.07-3.57,1.75-3.5,3.75.07,2,1.75,3.57,3.75,3.5,2-.07,3.57-1.75,3.5-3.75-.07-2-1.75-3.57-3.75-3.5Z"/>
        <path class="cls-13" d="m14.47,6.62l.29,8.64c.03,1.03-.78,1.89-1.8,1.93h0c-1.03.03-1.89-.78-1.93-1.8l-.29-8.64c-.03-1.03.78-1.89,1.8-1.93h0c1.03-.03,1.89.78,1.93,1.8Z"/>
        <g>
          <path class="cls-6" d="m16.06,14.75c.85-.03,1.56.49,1.59,1.34.03.85-.63,1.71-1.48,1.74-.85.03-1.56-.64-1.59-1.49-.03-.85.64-1.56,1.49-1.59Z"/>
          <path class="cls-10" d="m16.08,15.49c.44-.01.81.33.82.77.01.44-.33.81-.77.82-.44.01-.81-.33-.82-.77-.01-.44.33-.81.77-.82Z"/>
        </g>
        <path class="cls-10" d="m19.72,9.36h0c.02.62-.47,1.14-1.09,1.16l-1.11.04c-.62.02-1.14-.47-1.16-1.09h0c-.02-.62.47-1.14,1.09-1.16l1.11-.04c.62-.02,1.14.47,1.16,1.09Z"/>
        <path class="cls-14" d="m12.74,6.57l.13,3.73c.01.34-.26.64-.61.65h0c-.34.01-.64-.26-.65-.61l-.13-3.73c-.01-.34.26-.64.61-.65h0c.34-.01.64.26.65.61Z"/>
        <path class="cls-3" d="m12.12,6.97c-.35.01-.62.3-.61.65.01.35.3.62.65.61.35-.01.62-.3.61-.65-.01-.35-.3-.62-.65-.61Z"/>
        <path class="cls-14" d="m12.96,12.99l.04,1.16c.01.34-.26.64-.61.65h0c-.34.01-.64-.26-.65-.61l-.04-1.16c-.01-.34.26-.64.61-.65h0c.34-.01.64.26.65.61Z"/>
        <g>
          <path class="cls-2" d="m18.82,6.74l-.99,7.1c-.15,1.08-1.15,1.83-2.23,1.68h0c-1.08-.15-1.83-1.15-1.68-2.23l.99-7.1c.15-1.08,1.15-1.83,2.23-1.68h0c1.08.15,1.83,1.15,1.68,2.23Z"/>
          <path class="cls-7" d="m17.28,12.75c-.1.7-.74,1.18-1.44,1.09-.7-.1-1.18-.74-1.09-1.44l.85-6.11c.1-.7.74-1.18,1.44-1.09.7.1,1.18.74,1.09,1.44l-.85,6.11Z"/>
        </g>
        <path class="cls-13" d="m26.62,10.98c-.12-3.66-2.94-6.6-6.48-6.98-.55-.06-1.02.39-1,.94l.43,12.57c.02.55.52.97,1.07.87,3.51-.62,6.11-3.74,5.99-7.41Z"/>
        <path class="cls-3" d="m24.66,9.93c-.07-2.18-1.75-3.93-3.86-4.16-.33-.04-.61.23-.6.56l.26,7.49c.01.33.31.58.64.52,2.09-.37,3.64-2.23,3.57-4.42Z"/>
        <path class="cls-8" d="m25.24,9.91c-.07-2.18-1.75-3.93-3.86-4.16-.33-.04-.61.23-.6.56l.26,7.49c.01.33.31.58.64.52,2.09-.37,3.64-2.23,3.57-4.42Z"/>
        <path class="cls-13" d="m22.09,11.43c.25,0,.46.19.47.44,0,.25-.19.46-.44.47-.25,0-.46-.19-.47-.44,0-.25.19-.46.44-.47Z"/>
        <path class="cls-13" d="m22.05,10.08c.25,0,.46.19.47.44s-.19.46-.44.47c-.25,0-.46-.19-.47-.44s.19-.46.44-.47Z"/>
        <path class="cls-13" d="m22,8.72c.25,0,.46.19.47.44s-.19.46-.44.47c-.25,0-.46-.19-.47-.44,0-.25.19-.46.44-.47Z"/>
        <path class="cls-13" d="m21.96,7.37c.25,0,.46.19.47.44,0,.25-.19.46-.44.47-.25,0-.46-.19-.47-.44,0-.25.19-.46.44-.47Z"/>
        <path class="cls-13" d="m23.42,10.03c.25,0,.46.19.47.44,0,.25-.19.46-.44.47s-.46-.19-.47-.44c0-.25.19-.46.44-.47Z"/>
        <path class="cls-13" d="m23.37,8.68c.25,0,.46.19.47.44,0,.25-.19.46-.44.47-.25,0-.46-.19-.47-.44s.19-.46.44-.47Z"/>
        <path class="cls-8" d="m21.32,15.78l.04,1.1c0,.22-.17.4-.38.41h0c-.22,0-.4-.17-.41-.38l-.04-1.1c0-.22.17-.4.38-.41h0c.22,0,.4.17.41.38Z"/>
        <path class="cls-8" d="m23.13,15.43v.39c.02.25-.17.46-.42.47h0c-.25,0-.46-.19-.47-.44v-.39c-.02-.25.17-.46.42-.47h0c.25,0,.46.19.47.44Z"/>
        <polygon class="cls-13" points="13.7 12.62 17.3 12.05 16.42 8.7 18.26 7.38 15.57 8.27 16.37 11.33 13.21 11.28 13.7 12.62"/>
      </g>
      <g>
        <path class="cls-13" d="m41.65,5.78h0c-.53.07-.91.57-.83,1.1l.46,3.25c.07.53.57.91,1.1.83h0c.53-.07.91-.57.83-1.1l-.46-3.25c-.07-.53-.57-.91-1.1-.83Z"/>
        <path class="cls-13" d="m44.71,8.27h0c-.07-.53-.57-.91-1.1-.83l-3.25.46c-.53.07-.91.57-.83,1.1h0c.07.53.57.91,1.1.83l3.25-.46c.53-.07.91-.57.83-1.1Z"/>
        <path class="cls-4" d="m54.42,4.17l-5.1.71c-.89.12-1.51.95-1.38,1.83h0c.12.89.95,1.51,1.83,1.38l5.1-.71c.89-.12,1.51-.95,1.38-1.83h0c-.12-.89-.95-1.51-1.83-1.38Z"/>
        <path class="cls-3" d="m51.51,4.57l-.54.08c-.29.04-.49.31-.45.59h0c.04.29.31.49.59.45l.54-.08c.29-.04.49-.31.45-.59h0c-.04-.29-.31-.49-.59-.45Z"/>
        <path class="cls-3" d="m52.87,4.38h0c-.29.04-.49.31-.45.59h0c.04.29.31.49.59.45h0c.29-.04.49-.31.45-.59h0c-.04-.29-.31-.49-.59-.45Z"/>
        <path class="cls-13" d="m56.62,4.91l-8.98,1.26c-.76.11-1.3.82-1.19,1.58h0c.11.76.82,1.3,1.58,1.19l8.98-1.26c.76-.11,1.3-.82,1.19-1.58h0c-.11-.76-.82-1.3-1.58-1.19Z"/>
        <path class="cls-13" d="m49.1,7.04h0c-.57.08-1.11-.32-1.19-.9h0c-.08-.57.32-1.11.9-1.19h0c.57-.08,1.11.32,1.19.9h0c.08.57-.32,1.11-.9,1.19Z"/>
        <path class="cls-13" d="m55.65,6.12h0c-.57.08-1.11-.32-1.19-.9h0c-.08-.57.32-1.11.9-1.19h0c.57-.08,1.11.32,1.19.9h0c.08.57-.32,1.11-.9,1.19Z"/>
        <path class="cls-13" d="m31.65,18.07h17.82c2.12-.92,3.48-3.18,3.14-5.58-.4-2.88-3.09-4.9-5.96-4.5l-10.87,1.52c-2.88.4-4.9,3.09-4.5,5.96l.36,2.59Z"/>
        <path class="cls-13" d="m58.94,6.98h0c-.92.13-1.57.99-1.44,1.91l.58,4.11c.13.92.99,1.57,1.91,1.44h0c.92-.13,1.57-.99,1.44-1.91l-.58-4.11c-.13-.92-.99-1.57-1.91-1.44Z"/>
        <path class="cls-3" d="m59.35,14.31l-19.59,2.75-.7-4.99c-.25-1.8,1-3.46,2.8-3.72l15.51-2.18c.45-.06.87.25.93.7l1.04,7.43Z"/>
        <path class="cls-13" d="m59.75,15.33l-19.15,2.68-.7-4.99c-.25-1.8,1-3.46,2.8-3.72l13.86-1.94c1.12-.16,2.15.62,2.31,1.74l.87,6.22Z"/>
        <path class="cls-7" d="m59.7,15.07l-14.38,2.02-.7-4.99c-.25-1.8,1-3.46,2.8-3.72l10.3-1.44c.45-.06.87.25.93.7l1.04,7.43Z"/>
        <path class="cls-13" d="m57.15,13.62l-6.67.94c-1.26.18-2.15,1.36-1.98,2.62h0c.18,1.26,1.36,2.15,2.62,1.98l6.67-.94c1.26-.18,2.15-1.36,1.98-2.62h0c-.18-1.26-1.36-2.15-2.62-1.98Z"/>
        <path class="cls-13" d="m50.01,17.08l-5.81.81c-2.15.3-4.16-1.21-4.46-3.36h0c-.3-2.15,1.21-4.16,3.36-4.46l5.81-.81c2.15-.3,4.16,1.21,4.46,3.36h0c.3,2.15-1.21,4.16-3.36,4.46Z"/>
        <path class="cls-8" d="m49.87,15.78l-2.26.32c-.65.09-1.26-.37-1.35-1.02h0c-.09-.65.37-1.26,1.02-1.35l2.26-.32c.65-.09,1.26.37,1.35,1.02h0c.09.65-.37,1.26-1.02,1.35Z"/>
        <path class="cls-13" d="m44.9,17.94c.01-.05.03-.1.04-.16l.48-3.04c.3-1.88-1-3.66-2.88-3.96h0c-1.88-.3-3.66,1-3.96,2.88l-.48,3.04c-.07.43-.04.85.04,1.25h6.75Z"/>
        <path class="cls-8" d="m42.25,11.91h0c-1.27-.2-2.49.81-2.72,2.25l-.37,2.33c-.23,1.44.62,2.78,1.89,2.98h0c1.27.2,2.49-.81,2.72-2.25l.37-2.33c.23-1.44-.62-2.78-1.89-2.98Z"/>
        <path class="cls-3" d="m39.25,17.2l.37-2.33c.23-1.44,1.45-2.45,2.72-2.25.9.14,1.58.87,1.82,1.79,0-1.24-.8-2.32-1.92-2.5-1.27-.2-2.49.81-2.72,2.25l-.37,2.33c-.07.42-.03.82.07,1.2,0-.16,0-.32.03-.49Z"/>
        <path class="cls-13" d="m42.82,14.1c-.07-.48-.51-.81-.98-.74-.48.07-.81.51-.74.98.07.48.51.81.98.74.48-.07.81-.51.74-.98Z"/>
        <path class="cls-3" d="m47.29,14.01h0c-.5.07-.85.54-.78,1.04h0c.07.5.54.85,1.04.78h0c.5-.07.85-.54.78-1.04h0c-.07-.5-.54-.85-1.04-.78Z"/>
        <g>
          <path class="cls-7" d="m59.24,18.2c.01-.2,0-.4-.02-.6l-.16-1.13c-.15-1.1-1.18-1.87-2.28-1.72l-4.55.64c-1.46.2-2.55,1.4-2.69,2.81h9.69Z"/>
          <path class="cls-2" d="m57.52,18.27c.01-.14.02-.29,0-.44-.14-1.03-1.1-1.75-2.13-1.61l-2.52.35c-.88.12-1.53.85-1.61,1.7h6.27Z"/>
          <path class="cls-3" d="m56.97,16.49c-.1-.69-.73-1.16-1.41-1.07-.69.1-1.16.73-1.07,1.41.1.69.73,1.16,1.41,1.07.69-.1,1.16-.73,1.07-1.41Z"/>
        </g>
        <path class="cls-8" d="m49.1,11.03l-4.04.57c-.27.04-.46.29-.42.56h0c.04.27.29.46.56.42l4.04-.57c.27-.04.46-.29.42-.56h0c-.04-.27-.29-.46-.56-.42Z"/>
        <path class="cls-8" d="m33.65,13.59h0c-.83.12-1.42.9-1.3,1.73l.31,2.23c.12.83.9,1.42,1.73,1.3h0c.83-.12,1.42-.9,1.3-1.73l-.31-2.23c-.12-.83-.9-1.42-1.73-1.3Z"/>
        <path class="cls-8" d="m36.08,10.65h0c-.7.1-1.19.75-1.09,1.45h0c.1.7.75,1.19,1.45,1.09h0c.7-.1,1.19-.75,1.09-1.45h0c-.1-.7-.75-1.19-1.45-1.09Z"/>
        <path class="cls-13" d="m60.79,8.06h0c-.51.07-.86.54-.79,1.05l.21,1.53c.07.51.54.86,1.05.79h0c.51-.07.86-.54.79-1.05l-.21-1.53c-.07-.51-.54-.86-1.05-.79Z"/>
        <path class="cls-8" d="m60.24,11.06h0c-.3.04-.59-.17-.63-.47l-.25-1.76c-.04-.3.17-.59.47-.63h0c.3-.04.59.17.63.47l.25,1.76c.04.3-.17.59-.47.63Z"/>
        <path class="cls-8" d="m60.46,12.63h0c-.25.03-.42.27-.39.52h0c.03.25.27.42.52.39h0c.25-.03.42-.27.39-.52h0c-.03-.25-.27-.42-.52-.39Z"/>
        <path class="cls-3" d="m60.5,8.9h0c-.37.05-.64.4-.58.78h0c.05.37.4.64.78.58h0c.37-.05.64-.4.58-.78h0c-.05-.37-.4-.64-.78-.58Z"/>
        <g>
          <path class="cls-13" d="m50.53,11.41h0c-.14-1.03.59-1.99,1.62-2.13l3.13-.43c1.03-.14,1.99.59,2.13,1.62h0c.14,1.03-.59,1.99-1.62,2.13l-3.13.43c-1.03.14-1.99-.59-2.13-1.62Z"/>
          <path class="cls-4" d="m52.96,11.08h0c-.1-.7.4-1.35,1.1-1.45l1.03-.14c.7-.1,1.35.4,1.45,1.1h0c.1.7-.4,1.35-1.1,1.45l-1.03.14c-.7.1-1.35-.4-1.45-1.1Z"/>
          <path class="cls-3" d="m55.71,11.55c.43-.23.6-.76.37-1.19-.23-.43-.76-.6-1.19-.37-.43.23-.6.76-.37,1.19.23.43.76.6,1.19.37Z"/>
          <path class="cls-8" d="m52.08,11.58c.23-.12.32-.4.2-.63-.12-.23-.4-.32-.63-.2-.23.12-.32.4-.2.63.12.23.4.32.63.2Z"/>
        </g>
      </g>
      <g>
        <path class="cls-7" d="m48.09,16.58l-3.69.52c-.96.13-1.85-.54-1.99-1.5h0c-.13-.96.54-1.85,1.5-1.99l3.69-.52c.96-.13,1.85.54,1.99,1.5h0c.13.96-.54,1.85-1.5,1.99Z"/>
        <path class="cls-7" d="m47.66,18.07c.02-.28.02-.57-.03-.86-.31-2.23-2.39-3.8-4.62-3.48l-.33.05c-2.12.3-3.62,2.2-3.5,4.3h8.47Z"/>
        <path class="cls-2" d="m41.59,18.07h5.12s0-.01,0-.02l-.2-1.41c-.19-1.38-1.48-2.35-2.86-2.16-1.38.19-2.35,1.48-2.16,2.86l.1.72Z"/>
        <path class="cls-2" d="m46.52,15.95l-2.39.33c-.5.07-.97-.28-1.04-.79h0c-.07-.5.28-.97.79-1.04l2.39-.33c.5-.07.97.28,1.04.79h0c.07.5-.28.97-.79,1.04Z"/>
        <path class="cls-3" d="m44.1,17.7h0c-.76.11-1.47-.43-1.58-1.19h0c-.11-.76.43-1.47,1.19-1.58h0c.76-.11,1.47.43,1.58,1.19h0c.11.76-.43,1.47-1.19,1.58Z"/>
      </g>
      <g>
        <path class="cls-3" d="m35.94,17.94c.63-1.41.53-2.87-.77-4.07-1.86-1.72-4.76-1.6-6.47.26-.99,1.07-1.35,2.48-1.14,3.81h8.38Z"/>
        <path class="cls-2" d="m33.63,18.27c1.67-1.94,2.17-4.24.26-6-1.98-1.83-5.07-1.71-6.9.27-1.48,1.6-1.66,3.92-.64,5.72h7.28Z"/>
        <path class="cls-7" d="m32.55,18.02c1.05-1.31,1.25-2.9-.2-4.24-1.55-1.44-3.83-1.5-5.08-.15-1.07,1.16-1.04,2.98-.03,4.39h5.3Z"/>
        <path class="cls-2" d="m31.37,18.03h0c-.14,0-.25-.1-.26-.24l-.11-2.69c0-.14.1-.25.24-.26h0c.14,0,.25.1.26.24l.11,2.69c0,.14-.1.25-.24.26Z"/>
        <path class="cls-2" d="m29.64,17.25h0c-.14,0-.25-.1-.26-.24l-.11-2.69c0-.14.1-.25.24-.26h0c.14,0,.25.1.26.24l.11,2.69c0,.14-.1.25-.24.26Z"/>
        <path class="cls-3" d="m29.46,13.71c.76.7.8,1.88.1,2.64-.7.76-1.88.8-2.64.1-.76-.7-.8-1.88-.1-2.64s1.88-.8,2.64-.1Z"/>
        <path class="cls-3" d="m31.5,14.16c-.25-.23-.27-.62-.03-.88.23-.25.62-.27.88-.03.25.23.27.62.03.88-.23.25-.62.27-.88.03Z"/>
      </g>
      <path class="cls-5" d="m51.07,19.76H1.68c-.93,0-1.68-.76-1.68-1.68h0c0-.93.76-1.68,1.68-1.68h49.38c.93,0,1.68.76,1.68,1.68h0c0,.93-.76,1.68-1.68,1.68Z"/>
      <path class="cls-5" d="m60.07,19.76H10.68c-.93,0-1.68-.76-1.68-1.68h0c0-.93.76-1.68,1.68-1.68h49.38c.93,0,1.68.76,1.68,1.68h0c0,.93-.76,1.68-1.68,1.68Z"/>
    </g>
  </g>
</svg>