<?xml version="1.0" encoding="UTF-8"?>
<svg id="Layer_2" data-name="Layer 2" xmlns="http://www.w3.org/2000/svg" viewBox="0 0 63.75 58.43">
  <defs>
    <style>
      .cls-1 {
        fill: #a20025;
      }

      .cls-2 {
        fill: #fff;
      }

      .cls-3 {
        fill: #7cff00;
      }

      .cls-4 {
        fill: #e71e00;
      }

      .cls-5 {
        fill: #ffd285;
      }

      .cls-6 {
        fill: #fd003a;
      }

      .cls-7 {
        fill: #4d4d4d;
      }

      .cls-8 {
        fill: #333;
      }

      .cls-9 {
        fill: #ff6e4c;
      }

      .cls-10 {
        fill: #999;
      }

      .cls-11 {
        fill: #434343;
      }

      .cls-12 {
        fill: #1a1a1a;
      }

      .cls-13 {
        fill: #74001b;
      }

      .cls-14 {
        fill: #666;
      }
    </style>
  </defs>
  <g id="hurt">
    <g id="hurt2">
      <g>
        <g>
          <path class="cls-12" d="m50.79,23.74l-.82-.26-.11-.03-4.91-1.57c-1.26-.4-2.61.3-3.01,1.55h0c-.4,1.26.3,2.61,1.55,3.01l4.91,1.57.11.03.82.26c1.26.4,2.61-.3,3.01-1.55h0c.4-1.26-.3-2.61-1.55-3.01Z"/>
          <path class="cls-13" d="m52.69,24.35l-1.65-.53c-1.26-.4-2.61.3-3.01,1.55h0c-.4,1.26.3,2.61,1.55,3.01l1.65.53c1.26.4,2.61-.3,3.01-1.55h0c.4-1.26-.3-2.61-1.55-3.01Z"/>
        </g>
        <g>
          <path id="ArmOne" class="cls-12" d="m45.18,24.81h0c-.61,1.17-2.07,1.62-3.24,1.01l-9.93-5.22c-1.17-.61-1.62-2.07-1.01-3.24h0c.61-1.17,2.07-1.62,3.24-1.01l9.93,5.22c1.17.61,1.62,2.07,1.01,3.24Z"/>
          <path class="cls-7" d="m42.37,23.29h0c-.13.25-.45.35-.71.22l-2.75-1.45c-.25-.13-.35-.45-.22-.71h0c.13-.25.45-.35.71-.22l2.75,1.45c.25.13.35.45.22.71Z"/>
          <path class="cls-2" d="m38.47,16.06c-2.24-1.18-5.01-.32-6.19,1.92-1.18,2.24-.32,5.01,1.92,6.19s4.18-.12,5.36-2.36c1.18-2.24,1.15-4.57-1.09-5.75Z"/>
          <path class="cls-1" d="m36.83,14.85c-2.39-1.26-5.34-.34-6.6,2.05-1.26,2.39-.34,5.34,2.05,6.6s4.46-.13,5.71-2.51c1.26-2.39,1.22-4.88-1.16-6.13Z"/>
          <path class="cls-6" d="m35.76,15.8c-1.48-.78-3.31-.21-4.09,1.27-.78,1.48-.21,3.31,1.27,4.09,1.48.78,3.31.21,4.09-1.27.78-1.48.21-3.31-1.27-4.09Z"/>
          <path class="cls-12" d="m35.52,16.26c-1.48-.78-3.31-.21-4.09,1.27s-.21,3.31,1.27,4.09c1.48.78,3.31.21,4.09-1.27.78-1.48.21-3.31-1.27-4.09Z"/>
          <path class="cls-7" d="m35,17.24c-.94-.49-2.1-.13-2.59.8-.49.94-.13,2.1.8,2.59.94.49,2.1.13,2.59-.8.49-.94.13-2.1-.8-2.59Z"/>
          <path class="cls-12" d="m34.49,18.2c-.41-.21-.91-.06-1.13.35-.21.41-.06.91.35,1.13s.91.06,1.13-.35c.21-.41.06-.91-.35-1.13Z"/>
        </g>
      </g>
      <g>
        <g>
          <path class="cls-8" d="m44.55,33.78l1.94-1.21c.47-.29.61-.91.32-1.38h0c-.29-.47-.91-.61-1.38-.32l-1.94,1.21c-.47.29-.61.91-.32,1.38h0c.29.47.91.61,1.38.32Z"/>
          <path class="cls-8" d="m48.86,40.67l1.94-1.21c.47-.29.61-.91.32-1.38h0c-.29-.47-.91-.61-1.38-.32l-1.94,1.21c-.47.29-.61.91-.32,1.38h0c.29.47.91.61,1.38.32Z"/>
          <path class="cls-7" d="m51.01,39.32h0c.35-.22.45-.68.24-1.03l-4.58-7.32c-.22-.35-.68-.45-1.03-.24h0c-.35.22-.45.68-.24,1.03l4.58,7.32c.22.35.68.45,1.03.24Z"/>
          <path class="cls-10" d="m47.86,34.29h0c.35-.22.45-.68.24-1.03l-.66-1.06c-.22-.35-.68-.45-1.03-.24h0c-.35.22-.45.68-.24,1.03l.67,1.06c.22.35.68.45,1.03.24Z"/>
          <path class="cls-10" d="m49.83,37.43h0c.35-.22.45-.68.24-1.03l-.19-.31c-.22-.35-.68-.45-1.03-.24h0c-.35.22-.45.68-.24,1.03l.19.31c.22.35.68.45,1.03.24Z"/>
        </g>
        <path class="cls-6" d="m48.66,43.56h0c-1.32.83-3.08.42-3.91-.9l-4.58-7.31c-.83-1.32-.42-3.08.9-3.91h0c1.32-.83,3.08-.42,3.91.9l4.58,7.31c.83,1.32.42,3.08-.9,3.91Z"/>
        <path class="cls-1" d="m47.55,45.23h0c-1.75,1.1-4.08.56-5.18-1.19l-4.59-7.33c-1.1-1.75-.56-4.08,1.19-5.18h0c1.75-1.1,4.08-.56,5.18,1.19l4.59,7.33c1.1,1.75.56,4.08-1.19,5.18Z"/>
        <path class="cls-12" d="m46.25,46.04h0c-1.75,1.1-4.08.56-5.18-1.19l-4.59-7.33c-1.1-1.75-.56-4.08,1.19-5.18h0c1.75-1.1,4.08-.56,5.18,1.19l4.59,7.33c1.1,1.75.56,4.08-1.19,5.18Z"/>
        <path class="cls-7" d="m43.85,45.45h0c-.35.22-.81.11-1.03-.24l-3.36-5.37c-.22-.35-.11-.81.24-1.03h0c.35-.22.81-.11,1.03.24l3.36,5.37c.22.35.11.81-.24,1.03Z"/>
        <path class="cls-10" d="m41.15,41.14h0c-.35.22-.81.11-1.03-.24l-.66-1.06c-.22-.35-.11-.81.24-1.03h0c.35-.22.81-.11,1.03.24l.67,1.06c.22.35.11.81-.24,1.03Z"/>
        <path class="cls-10" d="m43.12,44.28h0c-.35.22-.81.11-1.03-.24l-.19-.31c-.22-.35-.11-.81.24-1.03h0c.35-.22.81-.11,1.03.24l.19.31c.22.35.11.81-.24,1.03Z"/>
        <path class="cls-7" d="m46.7,43.29h0c-.35.22-.81.11-1.03-.24l-3.21-5.13c-.22-.35-.11-.81.24-1.03h0c.35-.22.81-.11,1.03.24l3.21,5.13c.22.35.11.81-.24,1.03Z"/>
        <path class="cls-10" d="m44.92,40.44h0c-.35.22-.81.11-1.03-.24l-.66-1.06c-.22-.35-.11-.81.24-1.03h0c.35-.22.81-.11,1.03.24l.67,1.06c.22.35.11.81-.24,1.03Z"/>
        <path class="cls-10" d="m46.4,42.8h0c-.35.22-.81.11-1.03-.24l-.19-.31c-.22-.35-.11-.81.24-1.03h0c.35-.22.81-.11,1.03.24l.19.31c.22.35.11.81-.24,1.03Z"/>
        <path class="cls-2" d="m43.38,32.15c-.18-.29-.09-.67.2-.85s.67-.09.85.2.09.67-.2.85-.67.09-.85-.2Z"/>
        <path class="cls-7" d="m41.55,33.98c-.71-1.13-2.2-1.47-3.32-.76-1.13.71-1.47,2.2-.76,3.32s2.2,1.47,3.32.76c1.13-.71,1.47-2.2.76-3.32Z"/>
        <path class="cls-12" d="m40.6,34.57c-.38-.61-1.18-.79-1.79-.41-.61.38-.79,1.18-.41,1.79.38.61,1.18.79,1.79.41.61-.38.79-1.18.41-1.79Z"/>
        <path class="cls-2" d="m48.77,40.75c-.18-.29-.09-.67.2-.85.29-.18.67-.09.85.2.18.29.09.67-.2.85s-.67.09-.85-.2Z"/>
      </g>
      <g>
        <g id="ShinTwo">
          <path class="cls-12" d="m43.09,56.64h0c-1.26-.21-2.12-1.42-1.91-2.68l1.7-10.2c.21-1.26,1.42-2.12,2.68-1.91h0c1.26.21,2.12,1.42,1.91,2.68l-1.7,10.2c-.21,1.26-1.42,2.12-2.68,1.91Z"/>
        </g>
        <path class="cls-11" d="m46.29,44.34c.1-.62-.31-1.2-.93-1.3-.62-.1-1.2.31-1.3.93-.1.62.31,1.2.93,1.3.62.1,1.2-.31,1.3-.93Z"/>
      </g>
      <g>
        <g id="ShinTwo-2" data-name="ShinTwo">
          <path class="cls-8" d="m24.48,56.53h0c-1.22-.4-1.88-1.72-1.48-2.94l3.24-9.82c.4-1.22,1.72-1.88,2.94-1.48h0c1.22.4,1.88,1.72,1.48,2.94l-3.24,9.82c-.4,1.22-1.72,1.88-2.94,1.48Z"/>
        </g>
        <path class="cls-7" d="m24.59,54.5h0c-.28-.09-.43-.39-.34-.67l3.27-9.9c.09-.28.39-.43.67-.34h0c.28.09.43.39.34.67l-3.27,9.9c-.09.28-.39.43-.67.34Z"/>
        <path class="cls-2" d="m26.78,47.85h0c-.28-.09-.43-.39-.34-.67l.56-1.69c.09-.28.39-.43.67-.34h0c.28.09.43.39.34.67l-.56,1.69c-.09.28-.39.43-.67.34Z"/>
        <path class="cls-2" d="m25.26,52.4h0c-.29-.1-.45-.41-.35-.7l.29-.89c.1-.29.41-.45.7-.35h0c.29.1.45.41.35.7l-.29.89c-.1.29-.41.45-.7.35Z"/>
      </g>
      <g>
        <path class="cls-6" d="m48.3,57.37c0-2.9-2.35-5.06-5.25-5.06s-5.25,2.16-5.25,5.06h10.5Z"/>
        <path class="cls-1" d="m46.27,57.37c.12-.34.19-.71.19-1.09,0-1.88-1.53-3.41-3.41-3.41s-3.41,1.53-3.41,3.41c0,.38.08.75.19,1.09h6.44Z"/>
        <path class="cls-12" d="m38.87,56.28h8.37c.59,0,1.06.48,1.06,1.06v.03c0,.59-.48,1.06-1.06,1.06h-8.37c-.59,0-1.06-.48-1.06-1.06v-.03c0-.59.48-1.06,1.06-1.06Z"/>
        <path class="cls-2" d="m46.52,54.69c0,.68-.55,1.24-1.24,1.24s-1.24-.55-1.24-1.24.55-1.24,1.24-1.24,1.24.55,1.24,1.24Z"/>
        <path class="cls-2" d="m42.64,53.46c0-.35.29-.64.64-.64s.64.29.64.64-.29.64-.64.64-.64-.29-.64-.64Z"/>
        <path class="cls-7" d="m39.64,56.95h0c-.38,0-.69-.31-.69-.69h0c0-.38.31-.69.69-.69h0c.38,0,.69.31.69.69h0c0,.38-.31.69-.69.69Z"/>
        <path class="cls-7" d="m46.69,56.95h0c-.38,0-.69-.31-.69-.69h0c0-.38.31-.69.69-.69h0c.38,0,.69.31.69.69h0c0,.38-.31.69-.69.69Z"/>
        <path class="cls-7" d="m44.34,56.95h0c-.38,0-.69-.31-.69-.69h0c0-.38.31-.69.69-.69h0c.38,0,.69.31.69.69h0c0,.38-.31.69-.69.69Z"/>
        <path class="cls-7" d="m41.99,56.95h0c-.38,0-.69-.31-.69-.69h0c0-.38.31-.69.69-.69h0c.38,0,.69.31.69.69h0c0,.38-.31.69-.69.69Z"/>
      </g>
      <g>
        <path class="cls-6" d="m30.74,57.37c0-2.9-2.35-5.06-5.25-5.06s-5.25,2.16-5.25,5.06h10.5Z"/>
        <path class="cls-1" d="m28.71,57.37c.12-.34.19-.71.19-1.09,0-1.88-1.53-3.41-3.41-3.41s-3.41,1.53-3.41,3.41c0,.38.08.75.19,1.09h6.44Z"/>
        <path class="cls-12" d="m21.31,56.28h8.37c.59,0,1.06.48,1.06,1.06v.03c0,.59-.48,1.06-1.06,1.06h-8.37c-.59,0-1.06-.48-1.06-1.06v-.03c0-.59.48-1.06,1.06-1.06Z"/>
        <path class="cls-2" d="m28.96,54.69c0,.68-.55,1.24-1.24,1.24s-1.24-.55-1.24-1.24.55-1.24,1.24-1.24,1.24.55,1.24,1.24Z"/>
        <path class="cls-2" d="m25.08,53.46c0-.35.29-.64.64-.64s.64.29.64.64-.29.64-.64.64-.64-.29-.64-.64Z"/>
        <path class="cls-7" d="m22.08,56.95h0c-.38,0-.69-.31-.69-.69h0c0-.38.31-.69.69-.69h0c.38,0,.69.31.69.69h0c0,.38-.31.69-.69.69Z"/>
        <path class="cls-7" d="m29.13,56.95h0c-.38,0-.69-.31-.69-.69h0c0-.38.31-.69.69-.69h0c.38,0,.69.31.69.69h0c0,.38-.31.69-.69.69Z"/>
        <path class="cls-7" d="m26.78,56.95h0c-.38,0-.69-.31-.69-.69h0c0-.38.31-.69.69-.69h0c.38,0,.69.31.69.69h0c0,.38-.31.69-.69.69Z"/>
        <path class="cls-7" d="m24.43,56.95h0c-.38,0-.69-.31-.69-.69h0c0-.38.31-.69.69-.69h0c.38,0,.69.31.69.69h0c0,.38-.31.69-.69.69Z"/>
      </g>
      <path class="cls-4" d="m14.66,15.03h1.99c.68,0,1.24.56,1.24,1.24h0c0,.68-.56,1.24-1.24,1.24h-1.99c-.68,0-1.24-.56-1.24-1.24h0c0-.68.56-1.24,1.24-1.24Z"/>
      <path class="cls-4" d="m8.46,4.82h3.47c.68,0,1.24.56,1.24,1.24h0c0,.68-.56,1.24-1.24,1.24h-3.47c-.68,0-1.24-.56-1.24-1.24h0c0-.68.56-1.24,1.24-1.24Z"/>
      <path class="cls-4" d="m1.24,4.82h.73c.68,0,1.24.56,1.24,1.24h0c0,.68-.56,1.24-1.24,1.24h-.73c-.68,0-1.24-.56-1.24-1.24h0c0-.68.56-1.24,1.24-1.24Z"/>
      <path class="cls-4" d="m6.35.82h.73c.68,0,1.24.56,1.24,1.24h0c0,.68-.56,1.24-1.24,1.24h-.73c-.68,0-1.24-.56-1.24-1.24h0c0-.68.56-1.24,1.24-1.24Z"/>
      <path class="cls-4" d="m49.07,8.82h-12.8c-1.03,0-1.88.85-1.88,1.88h0c0,1.03.85,1.88,1.88,1.88h12.8c1.03,0,1.88-.85,1.88-1.88h0c0-1.03-.85-1.88-1.88-1.88Z"/>
      <path class="cls-4" d="m54.52,4.82h-3.47c-.68,0-1.24.56-1.24,1.24h0c0,.68.56,1.24,1.24,1.24h3.47c.68,0,1.24-.56,1.24-1.24h0c0-.68-.56-1.24-1.24-1.24Z"/>
      <path class="cls-4" d="m61.73,4.82h-.73c-.68,0-1.24.56-1.24,1.24h0c0,.68.56,1.24,1.24,1.24h.73c.68,0,1.24-.56,1.24-1.24h0c0-.68-.56-1.24-1.24-1.24Z"/>
      <path class="cls-4" d="m57.32,8.82h-.73c-.68,0-1.24.56-1.24,1.24h0c0,.68.56,1.24,1.24,1.24h.73c.68,0,1.24-.56,1.24-1.24h0c0-.68-.56-1.24-1.24-1.24Z"/>
      <g>
        <path class="cls-12" d="m26.42,21.51c-.17,0-.33-.08-.42-.24-.12-.2-3.04-4.95-.99-7.76,1.55-2.13,5.47-2.43,11.64-.89.27.07.43.34.36.61-.07.27-.34.43-.61.36-5.66-1.41-9.32-1.23-10.59.51-1.65,2.26,1.01,6.6,1.03,6.64.15.23.07.54-.16.69-.08.05-.17.08-.26.08Z"/>
        <g>
          <g>
            <path class="cls-12" d="m22.6,30.85h-2.28c-.55,0-1,.45-1,1h0c0,.55.45,1,1,1h2.28c.55,0,1-.45,1-1h0c0-.55-.45-1-1-1Z"/>
            <path class="cls-12" d="m22.6,22.73h-2.28c-.55,0-1,.45-1,1h0c0,.55.45,1,1,1h2.28c.55,0,1-.45,1-1h0c0-.55-.45-1-1-1Z"/>
            <path class="cls-7" d="m20.06,22.73h0c-.41,0-.75.34-.75.75v8.63c0,.41.34.75.75.75h0c.41,0,.75-.34.75-.75v-8.63c0-.41-.34-.75-.75-.75Z"/>
            <path class="cls-10" d="m20.06,28.67h0c-.41,0-.75.34-.75.75v1.25c0,.41.34.75.75.75h0c.41,0,.75-.34.75-.75v-1.25c0-.41-.34-.75-.75-.75Z"/>
            <path class="cls-10" d="m20.06,24.96h0c-.41,0-.75.34-.75.75v.36c0,.41.34.75.75.75h0c.41,0,.75-.34.75-.75v-.36c0-.41-.34-.75-.75-.75Z"/>
          </g>
          <path class="cls-12" d="m29.4,35.77h0c.93,0,1.7-.76,1.7-1.7v-10.71c0-2.07-1.69-3.76-3.76-3.76h0c-2.07,0-3.76,1.69-3.76,3.76v6.59c0,3.2,2.62,5.82,5.82,5.82Z"/>
          <path class="cls-2" d="m26.45,34.94h0c.79,0,1.43-.64,1.43-1.43v-10.04c0-1.56-1.28-2.84-2.84-2.84h0c-1.56,0-2.84,1.28-2.84,2.84v7.22c0,2.34,1.91,4.25,4.25,4.25Z"/>
          <path class="cls-14" d="m27.39,34.94h0c.79,0,1.43-.64,1.43-1.43v-10.04c0-1.56-1.28-2.84-2.84-2.84h0c-1.56,0-2.84,1.28-2.84,2.84v7.22c0,2.34,1.91,4.25,4.25,4.25Z"/>
          <path class="cls-2" d="m25.66,22.43c0-.34-.28-.62-.62-.62s-.62.28-.62.62.28.62.62.62.62-.28.62-.62Z"/>
          <circle class="cls-2" cx="24.92" cy="31.77" r="1.51"/>
          <path class="cls-12" d="m26.02,31.77c0-.83-.67-1.51-1.51-1.51s-1.51.67-1.51,1.51.67,1.51,1.51,1.51,1.51-.67,1.51-1.51Z"/>
          <path class="cls-3" d="m25.36,31.77c0-.59-.48-1.07-1.07-1.07s-1.07.48-1.07,1.07.48,1.07,1.07,1.07,1.07-.48,1.07-1.07Z"/>
          <path class="cls-12" d="m31.3,25.59h-5.5c-.52,0-.95-.43-.95-.95h0c0-.52.43-.95.95-.95h5.5c.52,0,.95.43.95.95h0c0,.52-.43.95-.95.95Z"/>
          <path class="cls-12" d="m31.3,29.5h-5.5c-.52,0-.95-.43-.95-.95h0c0-.52.43-.95.95-.95h5.5c.52,0,.95.43.95.95h0c0,.52-.43.95-.95.95Z"/>
          <path class="cls-7" d="m26.45,28.55c0-.31-.25-.56-.56-.56s-.56.25-.56.56.25.56.56.56.56-.25.56-.56Z"/>
          <path class="cls-7" d="m26.45,24.64c0-.31-.25-.56-.56-.56s-.56.25-.56.56.25.56.56.56.56-.25.56-.56Z"/>
          <path class="cls-10" d="m25.4,24.64c0-.31-.25-.56-.56-.56s-.56.25-.56.56.25.56.56.56.56-.25.56-.56Z"/>
          <path class="cls-10" d="m25.4,28.55c0-.31-.25-.56-.56-.56s-.56.25-.56.56.25.56.56.56.56-.25.56-.56Z"/>
        </g>
        <g>
          <path class="cls-12" d="m35.35,37.94h0c-4.6,0-8.36-3.76-8.36-8.36v-6.64c0-2.6,2.13-4.73,4.73-4.73h7.25c2.6,0,4.73,2.13,4.73,4.73v6.64c0,4.6-3.76,8.36-8.36,8.36Z"/>
          <path class="cls-7" d="m33.59,29.84h0c-.71,0-1.29-.58-1.29-1.29v-4.04c0-.71.58-1.29,1.29-1.29h0c.71,0,1.29.58,1.29,1.29v4.04c0,.71-.58,1.29-1.29,1.29Z"/>
          <path class="cls-7" d="m39.95,29.84h0c-.71,0-1.29-.58-1.29-1.29v-4.04c0-.71.58-1.29,1.29-1.29h0c.71,0,1.29.58,1.29,1.29v4.04c0,.71-.58,1.29-1.29,1.29Z"/>
          <path class="cls-1" d="m34.29,25.7h-3c-1.07,0-1.94-.87-1.94-1.94h0c0-2.22,1.81-4.03,4.03-4.03h.91c1.07,0,1.94.87,1.94,1.94v2.09c0,1.07-.87,1.94-1.94,1.94Z"/>
          <path class="cls-1" d="m42.29,25.7h-3c-1.07,0-1.94-.87-1.94-1.94v-2.09c0-1.07.87-1.94,1.94-1.94h1.57c1.85,0,3.36,1.51,3.36,3.36v.66c0,1.07-.87,1.94-1.94,1.94Z"/>
          <path class="cls-6" d="m40.95,24.76l-2.78-2.78c-.21-.21-.21-.56,0-.78h0c.21-.21.56-.21.78,0l2.78,2.78c.21.21.21.56,0,.78h0c-.21.21-.56.21-.78,0Z"/>
          <path class="cls-6" d="m42.25,22.82l-1.23-1.23c-.21-.21-.21-.56,0-.78h0c.21-.21.56-.21.78,0l1.23,1.23c.21.21.21.56,0,.78h0c-.21.21-.56.21-.78,0Z"/>
          <path class="cls-6" d="m33.14,24.76l-2.14-2.14c-.21-.21-.21-.56,0-.78h0c.21-.21.56-.21.78,0l2.14,2.14c.21.21.21.56,0,.78h0c-.21.21-.56.21-.78,0Z"/>
          <path class="cls-6" d="m34.45,22.82l-1.23-1.23c-.21-.21-.21-.56,0-.78h0c.21-.21.56-.21.78,0l1.23,1.23c.21.21.21.56,0,.78h0c-.21.21-.56.21-.78,0Z"/>
          <path class="cls-1" d="m41.28,30.3h-9.76c-.48,0-.88-.39-.88-.88h0c0-.48.39-.88.88-.88h9.76c.48,0,.88.39.88.88h0c0,.48-.39.88-.88.88Z"/>
          <path class="cls-7" d="m33.31,32.38h0c-.41,0-.75-.34-.75-.75v-1.95c0-.41.34-.75.75-.75h0c.41,0,.75.34.75.75v1.95c0,.41-.34.75-.75.75Z"/>
          <path class="cls-7" d="m39.15,32.38h0c-.41,0-.75-.34-.75-.75v-1.95c0-.41.34-.75.75-.75h0c.41,0,.75.34.75.75v1.95c0,.41-.34.75-.75.75Z"/>
          <circle class="cls-7" cx="32.2" cy="34.76" r="1.12"/>
          <path class="cls-7" d="m40.86,34.36c0,.4-.32.72-.72.72s-.72-.32-.72-.72.32-.72.72-.72.72.32.72.72Z"/>
          <path class="cls-2" d="m32.01,22.19c0,.36-.29.66-.66.66s-.66-.29-.66-.66.29-.66.66-.66.66.29.66.66Z"/>
          <path class="cls-2" d="m34.29,21.2c0,.36-.29.65-.65.65s-.65-.29-.65-.65.29-.65.65-.65.65.29.65.65Z"/>
          <path class="cls-1" d="m39.61,34.53c0-1.47-1.46-2.67-3.27-2.67s-3.27,1.19-3.27,2.67,1.46,2.67,3.27,2.67,3.27-1.19,3.27-2.67Z"/>
          <path class="cls-2" d="m39.19,21.49c0,.36-.29.66-.66.66s-.66-.29-.66-.66.29-.66.66-.66.66.29.66.66Z"/>
          <path class="cls-2" d="m42.06,21.2c0,.36-.29.65-.65.65s-.65-.29-.65-.65.29-.65.65-.65.65.29.65.65Z"/>
          <path class="cls-1" d="m42.01,32.87h-12.56c-.36,0-.65-.29-.65-.65h0c0-.36.29-.65.65-.65h12.56c.36,0,.65.29.65.65h0c0,.36-.29.65-.65.65Z"/>
          <path class="cls-6" d="m39.3,32.87h-2.25c-.36,0-.65-.29-.65-.65h0c0-.36.29-.65.65-.65h2.25c.36,0,.65.29.65.65h0c0,.36-.29.65-.65.65Z"/>
          <path class="cls-6" d="m32.99,32.87h-.53c-.36,0-.65-.29-.65-.65h0c0-.36.29-.65.65-.65h.53c.36,0,.65.29.65.65h0c0,.36-.29.65-.65.65Z"/>
          <path class="cls-2" d="m39.95,32.22c0,.36-.29.65-.65.65s-.65-.29-.65-.65.29-.65.65-.65.65.29.65.65Z"/>
          <path class="cls-2" d="m33.82,32.22c0,.36-.29.65-.65.65s-.65-.29-.65-.65.29-.65.65-.65.65.29.65.65Z"/>
          <path class="cls-6" d="m37.87,35.44c0-.71-.73-1.28-1.64-1.28s-1.64.57-1.64,1.28.73,1.28,1.64,1.28,1.64-.57,1.64-1.28Z"/>
          <circle class="cls-6" cx="37.67" cy="34.14" r=".5"/>
        </g>
      </g>
      <g>
        <path class="cls-12" d="m29.1,4.44s-1.75-.84-3.44,1.76c-.15.23,0,.54.27.54.69,0,1.88.29,3.39,1.74l-.23-4.05Z"/>
        <path class="cls-12" d="m28.25,6.74s-1.71-.92-3.51,1.61c-.16.22-.02.54.25.55.69.04,1.87.37,3.31,1.89l-.05-4.05Z"/>
        <path class="cls-12" d="m35.7,4.46s1.34-1.41-.62-3.81c-.17-.21-.51-.16-.6.09-.22.65-.86,1.7-2.7,2.69l3.92,1.03Z"/>
        <g>
          <path class="cls-12" d="m28.2,4.6s7.14-2.48,9.27-4.44c.29-.27.75-.18.89.19.43,1.12,1,3.07.25,4.24h-10.41Z"/>
          <path class="cls-9" d="m37.81,5.11c-.81.27-1.25,1.14-.98,1.95.27.81,1.14,1.25,1.95.98.81-.27,1.25-1.14.98-1.95s-1.14-1.25-1.95-.98Z"/>
          <path class="cls-5" d="m35.8,15.12h0c-2.9.96-6.06-.63-7.02-3.54l-.93-2.82c-.58-1.77.39-3.7,2.16-4.29l4.31-1.42c1.77-.58,3.7.39,4.29,2.16l.86,2.61c.99,3.02-.66,6.3-3.68,7.29Z"/>
          <path class="cls-12" d="m28.79,12.29h0c-.79.26-1.64-.17-1.9-.96l-.78-2.36c-.26-.79.17-1.64.96-1.9h0c.79-.26,1.64.17,1.9.96l.78,2.36c.26.79-.17,1.64-.96,1.9Z"/>
          <path class="cls-12" d="m37.57,5.43l-8.21,2.71c-.97.32-2.03-.21-2.36-1.19h0c-.32-.97.21-2.03,1.19-2.36l8.21-2.71c.97-.32,2.03.21,2.36,1.19h0c.32.97-.21,2.03-1.19,2.36Z"/>
          <g>
            <path class="cls-5" d="m30.22,9.23c.27.81-.04,1.63-.84,1.9-.81.27-1.82-.13-2.08-.94-.27-.81.17-1.68.98-1.95s1.68.17,1.95.98Z"/>
            <path class="cls-9" d="m29.51,9.46c.14.42-.09.87-.51,1.01-.42.14-.87-.09-1.01-.51-.14-.42.09-.87.51-1.01.42-.14.87.09,1.01.51Z"/>
          </g>
          <path class="cls-9" d="m36.42,11.23h0c-.59.19-1.23-.13-1.42-.72l-.35-1.06c-.19-.59.13-1.23.72-1.42h0c.59-.19,1.23.13,1.42.72l.35,1.06c.19.59-.13,1.23-.72,1.42Z"/>
          <path class="cls-14" d="m37.14,3.75l-3.55,1.17c-.33.11-.68-.07-.79-.4h0c-.11-.33.07-.68.4-.79l3.55-1.17c.33-.11.68.07.79.4h0c.11.33-.07.68-.4.79Z"/>
          <path class="cls-2" d="m36.59,3.27c-.11-.33-.46-.51-.79-.4s-.51.46-.4.79.46.51.79.4c.33-.11.51-.46.4-.79Z"/>
          <path class="cls-14" d="m31.04,5.76l-1.1.36c-.33.11-.68-.07-.79-.4h0c-.11-.33.07-.68.4-.79l1.1-.36c.33-.11.68.07.79.4h0c.11.33-.07.68-.4.79Z"/>
          <path class="cls-1" d="m38.88,8.96l-6.81,2.25c-1.03.34-2.15-.23-2.49-1.26h0c-.34-1.03.23-2.15,1.26-2.49l6.81-2.25c1.03-.34,2.15.23,2.49,1.26h0c.34,1.03-.23,2.15-1.26,2.49Z"/>
          <path class="cls-6" d="m32.8,10.23c-.67.22-1.39-.14-1.61-.81-.22-.67.14-1.39.81-1.61l5.86-1.93c.67-.22,1.39.14,1.61.81.22.67-.14,1.39-.81,1.61l-5.86,1.93Z"/>
          <path class="cls-12" d="m34.65,8.95l-2.24.74c-.33.11-.7-.07-.81-.41h0c-.11-.33.07-.7.41-.81l2.24-.74c.33-.11.7.07.81.41h0c.11.33-.07.7-.41.81Z"/>
          <path class="cls-12" d="m39.15,7.46l-2.24.74c-.33.11-.7-.07-.81-.41h0c-.11-.33.07-.7.41-.81l2.24-.74c.33-.11.7.07.81.41h0c.11.33-.07.7-.41.81Z"/>
          <path class="cls-2" d="m34.28,8.4c.11.34-.07.7-.41.81-.34.11-.7-.07-.81-.41-.11-.34.07-.7.41-.81.34-.11.7.07.81.41Z"/>
          <path class="cls-2" d="m38.86,6.89c.11.34-.07.7-.41.81-.33.11-.7-.07-.81-.41-.11-.34.07-.7.41-.81.34-.11.7.07.81.41Z"/>
        </g>
        <path class="cls-12" d="m36.8,18.31c3.48-1.15,5.51-4.67,4.88-8.18-.1-.54-.66-.87-1.19-.7l-11.95,3.94c-.52.17-.78.77-.54,1.27,1.58,3.19,5.31,4.82,8.79,3.67Z"/>
        <path class="cls-2" d="m37.27,16.14c2.07-.68,3.28-2.78,2.91-4.87-.06-.32-.4-.52-.71-.42l-7.12,2.35c-.31.1-.47.46-.32.76.94,1.9,3.16,2.87,5.24,2.19Z"/>
        <path class="cls-7" d="m37.45,16.69c2.07-.68,3.28-2.78,2.91-4.87-.06-.32-.4-.52-.71-.42l-7.12,2.35c-.31.1-.47.46-.32.76.94,1.9,3.16,2.87,5.24,2.19Z"/>
        <path class="cls-12" d="m35.1,14.1c.08.24-.05.49-.29.57-.24.08-.49-.05-.57-.29-.08-.24.05-.49.29-.57.24-.08.49.05.57.29Z"/>
        <path class="cls-12" d="m36.38,13.67c.08.24-.05.49-.29.57s-.49-.05-.57-.29c-.08-.24.05-.49.29-.57.24-.08.49.05.57.29Z"/>
        <path class="cls-12" d="m37.67,13.25c.08.24-.05.49-.29.57-.24.08-.49-.05-.57-.29s.05-.49.29-.57c.24-.08.49.05.57.29Z"/>
        <path class="cls-12" d="m38.96,12.82c.08.24-.05.49-.29.57-.24.08-.49-.05-.57-.29-.08-.24.05-.49.29-.57.24-.08.49.05.57.29Z"/>
        <path class="cls-12" d="m36.81,14.97c.08.24-.05.49-.29.57s-.49-.05-.57-.29c-.08-.24.05-.49.29-.57.24-.08.49.05.57.29Z"/>
        <path class="cls-12" d="m38.1,14.55c.08.24-.05.49-.29.57-.24.08-.49-.05-.57-.29-.08-.24.05-.49.29-.57s.49.05.57.29Z"/>
        <path class="cls-7" d="m30.71,14.58l-1.04.34c-.21.07-.43-.05-.5-.25h0c-.07-.21.05-.43.25-.5l1.04-.34c.21-.07.43.05.5.25h0c.07.21-.05.43-.25.5Z"/>
        <path class="cls-7" d="m31.55,16.22l-.37.12c-.24.08-.49-.05-.57-.29h0c-.08-.24.05-.49.29-.57l.37-.12c.24-.08.49.05.57.29h0c.08.24-.05.49-.29.57Z"/>
      </g>
      <g>
        <path class="cls-12" d="m45.84,15.57h0c-.52-.11-1.05.22-1.16.75l-.69,3.21c-.11.52.22,1.05.75,1.16h0c.52.11,1.05-.22,1.16-.75l.69-3.21c.11-.53-.22-1.05-.75-1.16Z"/>
        <path class="cls-12" d="m47.85,18.96h0c.11-.52-.22-1.05-.75-1.16l-3.21-.69c-.52-.11-1.05.22-1.16.75h0c-.11.52.22,1.05.75,1.16l3.21.69c.52.11,1.05-.22,1.16-.75Z"/>
        <path class="cls-3" d="m58.38,18.45l-5.03-1.09c-.87-.19-1.74.37-1.93,1.25h0c-.19.87.37,1.74,1.25,1.93l5.03,1.09c.87.19,1.74-.37,1.93-1.25h0c.19-.87-.37-1.74-1.25-1.93Z"/>
        <path class="cls-2" d="m55.51,17.83l-.54-.12c-.28-.06-.56.12-.63.4h0c-.06.28.12.56.4.63l.54.12c.28.06.56-.12.63-.4h0c.06-.28-.12-.56-.4-.63Z"/>
        <path class="cls-2" d="m56.85,18.12h0c-.28-.06-.56.12-.63.4h0c-.06.28.12.57.4.63h0c.28.06.56-.12.63-.4h0c.06-.28-.12-.56-.4-.63Z"/>
        <path class="cls-12" d="m60.19,19.91l-8.87-1.91c-.75-.16-1.5.32-1.67,1.08h0c-.16.75.32,1.5,1.08,1.67l8.87,1.91c.75.16,1.5-.32,1.67-1.08h0c.16-.75-.32-1.5-1.08-1.67Z"/>
        <path class="cls-12" d="m52.4,19.31h0c-.57-.12-.93-.69-.81-1.25h0c.12-.57.69-.93,1.25-.81h0c.57.12.93.69.81,1.25h0c-.12.57-.69.93-1.25.81Z"/>
        <path class="cls-12" d="m58.86,20.71h0c-.57-.12-.93-.69-.81-1.25h0c.12-.57.69-.93,1.25-.81h0c.57.12.93.69.81,1.25h0c-.12.57-.69.93-1.25.81Z"/>
        <path class="cls-12" d="m47.54,29.7l-13.52-2.92c-1.3-.28-2.14-1.58-1.86-2.88l.6-2.79c.61-2.84,3.44-4.66,6.28-4.05l10.73,2.31c2.84.61,4.66,3.44,4.05,6.28h0c-.61,2.84-3.44,4.66-6.28,4.05Z"/>
        <path class="cls-12" d="m61.65,22.65h0c-.91-.2-1.81.39-2.01,1.29l-.87,4.06c-.2.91.39,1.81,1.29,2.01h0c.91.2,1.81-.39,2.01-1.29l.87-4.06c.2-.91-.39-1.81-1.29-2.01Z"/>
        <path class="cls-2" d="m59.52,29.67l-19.34-4.17,1.06-4.93c.38-1.78,2.13-2.91,3.91-2.52l15.31,3.3c.45.1.73.54.63.98l-1.58,7.33Z"/>
        <path class="cls-12" d="m59.54,30.77l-18.9-4.08,1.06-4.93c.38-1.78,2.13-2.91,3.91-2.52l13.68,2.95c1.1.24,1.81,1.33,1.57,2.43l-1.33,6.14Z"/>
        <path class="cls-6" d="m59.58,30.5l-14.19-3.06,1.06-4.93c.38-1.78,2.13-2.91,3.91-2.52l10.17,2.19c.45.1.73.54.63.98l-1.58,7.33Z"/>
        <path class="cls-12" d="m57.69,28.26l-6.58-1.42c-1.25-.27-2.49.53-2.76,1.78h0c-.27,1.25.53,2.49,1.78,2.76l6.58,1.42c1.25.27,2.49-.53,2.76-1.78h0c.27-1.25-.53-2.49-1.78-2.76Z"/>
        <path class="cls-12" d="m46.27,20.85h0c-1.66-.93-3.78-.33-4.71,1.33l-1.5,2.69c-.93,1.66-.33,3.78,1.33,4.71h0c1.66.93,3.78.33,4.71-1.33l1.5-2.69c.93-1.66.33-3.78-1.33-4.71Z"/>
        <path class="cls-12" d="m49.79,29.06l-5.73-1.24c-2.12-.46-3.48-2.57-3.03-4.69h0c.46-2.12,2.57-3.48,4.69-3.03l5.73,1.24c2.12.46,3.48,2.57,3.03,4.69h0c-.46,2.12-2.57,3.48-4.69,3.03Z"/>
        <path class="cls-7" d="m50.1,27.79l-2.23-.48c-.64-.14-1.05-.78-.92-1.42h0c.14-.64.78-1.06,1.42-.92l2.23.48c.64.14,1.06.78.92,1.42h0c-.14.64-.78,1.06-1.42.92Z"/>
        <path class="cls-12" d="m44.96,20.57h0c-1.66-.93-3.78-.33-4.71,1.33l-1.5,2.69c-.93,1.66-.33,3.78,1.33,4.71h0c1.66.93,3.78.33,4.71-1.33l1.5-2.69c.93-1.66.33-3.78-1.33-4.71Z"/>
        <path class="cls-7" d="m44.29,21.53h0c-1.12-.63-2.62-.1-3.33,1.18l-1.15,2.06c-.71,1.27-.37,2.83.75,3.45h0c1.12.63,2.62.1,3.33-1.18l1.15-2.06c.71-1.27.37-2.83-.75-3.45Z"/>
        <path class="cls-2" d="m39.65,25.46l1.15-2.06c.71-1.27,2.21-1.8,3.33-1.18.8.44,1.19,1.36,1.1,2.31.42-1.17.05-2.45-.95-3.01-1.12-.63-2.62-.1-3.33,1.18l-1.15,2.06c-.21.37-.31.76-.35,1.15.05-.15.12-.3.2-.45Z"/>
        <path class="cls-12" d="m44.07,23.78c.1-.47-.2-.93-.67-1.03s-.93.2-1.03.67.2.93.67,1.03c.47.1.93-.2,1.03-.67Z"/>
        <path class="cls-12" d="m42.3,26.56c.09-.4-.17-.8-.57-.88s-.8.17-.88.57c-.09.4.17.8.57.88s.8-.17.88-.57Z"/>
        <path class="cls-2" d="m48.29,25.23h0c-.49-.11-.99.21-1.09.71h0c-.11.49.21.99.71,1.09h0c.49.11.99-.21,1.09-.71h0c.11-.49-.21-.99-.71-1.09Z"/>
        <g>
          <path class="cls-6" d="m56.95,29.2l-4.49-.97c-1.69-.37-3.38.72-3.75,2.42h0c-.37,1.69.72,3.38,2.42,3.75l3.38.73c1.69.37,3.38-.72,3.75-2.42l.24-1.11c.23-1.08-.46-2.16-1.55-2.4Z"/>
          <path class="cls-1" d="m55.13,30.1l-2.49-.54c-1.02-.22-2.03.43-2.25,1.45h0c-.22,1.02.43,2.03,1.45,2.25l2.49.54c1.02.22,2.03-.43,2.25-1.45h0c.22-1.02-.43-2.03-1.45-2.25Z"/>
          <path class="cls-2" d="m56.52,30.9c.15-.68-.28-1.34-.96-1.49s-1.34.28-1.49.96.28,1.34.96,1.49,1.34-.28,1.49-.96Z"/>
          <path class="cls-2" d="m52.18,32.14c.1-.47-.2-.93-.66-1.03-.47-.1-.93.2-1.03.66-.1.47.2.93.66,1.03.47.1.93-.2,1.03-.66Z"/>
        </g>
        <path class="cls-7" d="m51.02,23.07l-3.99-.86c-.27-.06-.53.11-.59.38h0c-.06.27.11.53.38.59l3.99.86c.27.06.53-.11.59-.38h0c.06-.27-.11-.53-.38-.59Z"/>
        <path class="cls-7" d="m35.63,20.14h0c-.82-.18-1.64.35-1.82,1.17l-.47,2.2c-.18.82.35,1.64,1.17,1.82h0c.82.18,1.64-.35,1.82-1.17l.47-2.2c.18-.82-.35-1.64-1.17-1.82Z"/>
        <path class="cls-7" d="m38.93,18.22h0c-.69-.15-1.38.29-1.52.98h0c-.15.69.29,1.38.98,1.52h0c.69.15,1.38-.29,1.52-.98h0c.15-.69-.29-1.38-.98-1.52Z"/>
        <path class="cls-12" d="m63.02,24.31h0c-.5-.11-.99.21-1.1.71l-.32,1.51c-.11.5.21.99.71,1.1h0c.5.11.99-.21,1.1-.71l.32-1.51c.11-.5-.21-.99-.71-1.1Z"/>
        <path class="cls-7" d="m61.47,26.93h0c-.3-.06-.49-.36-.43-.66l.37-1.73c.06-.3.36-.49.66-.43h0c.3.06.49.36.43.66l-.37,1.73c-.06.3-.36.49-.66.43Z"/>
        <path class="cls-7" d="m61.14,28.48h0c-.25-.05-.49.1-.54.35h0c-.05.25.1.49.35.54h0c.25.05.49-.1.54-.35h0c.05-.25-.1-.49-.35-.54Z"/>
        <path class="cls-2" d="m62.46,24.99h0c-.37-.08-.74.16-.82.53h0c-.08.37.16.74.53.82h0c.37.08.74-.16.82-.53h0c.08-.37-.16-.74-.53-.82Z"/>
        <g>
          <path class="cls-12" d="m52.23,23.92h0c.22-1.02,1.24-1.66,2.25-1.44l3.09.68c1.02.22,1.66,1.24,1.44,2.25h0c-.22,1.02-1.24,1.66-2.25,1.44l-3.09-.68c-1.02-.22-1.66-1.24-1.44-2.25Z"/>
          <path class="cls-3" d="m54.63,24.44h0c.15-.69.84-1.13,1.53-.98l1.02.22c.69.15,1.13.84.98,1.53h0c-.15.69-.84,1.13-1.53.98l-1.02-.22c-.69-.15-1.13-.84-.98-1.53Z"/>
          <path class="cls-2" d="m57.05,25.82c.48-.06.82-.51.76-.99s-.51-.82-.99-.76c-.48.06-.82.51-.76.99.06.48.51.82.99.76Z"/>
          <path class="cls-7" d="m53.63,24.6c.26-.03.44-.27.4-.53-.03-.26-.27-.44-.53-.4-.26.03-.44.27-.4.53.03.26.27.44.53.4Z"/>
        </g>
      </g>
      <g>
        <path class="cls-8" d="m38.45,25.78l-.73.45-.1.06-2.44,1.51c-1.12.69-1.47,2.18-.78,3.3h0c.69,1.12,2.18,1.47,3.3.78l2.44-1.51.1-.06.73-.45c1.12-.69,1.47-2.18.78-3.3h0c-.69-1.12-2.18-1.47-3.3-.78Z"/>
        <path class="cls-1" d="m40.15,24.72l-1.47.91c-1.12.69-1.47,2.18-.78,3.3h0c.69,1.12,2.18,1.47,3.3.78l1.47-.91c1.12-.69,1.47-2.18.78-3.3h0c-.69-1.12-2.18-1.47-3.3-.78Z"/>
      </g>
      <g>
        <path class="cls-6" d="m48.16,27.92l-3.65-.79c-.95-.2-1.55-1.14-1.35-2.09h0c.2-.95,1.14-1.55,2.09-1.35l3.65.79c.95.2,1.55,1.14,1.35,2.09h0c-.2.95-1.14,1.55-2.09,1.35Z"/>
        <path class="cls-6" d="m44.37,23.5l-.33-.07c-2.2-.47-4.39.94-4.86,3.14h0c-.47,2.2.94,4.39,3.14,4.86l.33.07c2.2.47,4.39-.94,4.86-3.14h0c.47-2.2-.94-4.39-3.14-4.86Z"/>
        <path class="cls-1" d="m43.34,30.78h0c-1.36-.29-2.24-1.65-1.95-3.02l.3-1.39c.29-1.36,1.65-2.24,3.01-1.95h0c1.36.29,2.24,1.65,1.95,3.02l-.3,1.39c-.29,1.36-1.65,2.24-3.02,1.95Z"/>
        <path class="cls-1" d="m46.9,26.79l-2.36-.51c-.5-.11-.82-.6-.71-1.1h0c.11-.5.6-.82,1.1-.71l2.36.51c.5.11.82.6.71,1.1h0c-.11.5-.6.82-1.1.71Z"/>
        <path class="cls-2" d="m44.02,27.6h0c-.75-.16-1.24-.91-1.07-1.66h0c.16-.75.91-1.24,1.66-1.07h0c.75.16,1.24.91,1.07,1.66h0c-.16.75-.91,1.24-1.66,1.07Z"/>
        <path class="cls-2" d="m41.8,29.1h0c-.51-.11-.83-.61-.72-1.12h0c.11-.51.61-.83,1.12-.72h0c.51.11.83.61.72,1.12h0c-.11.51-.61.83-1.12.72Z"/>
      </g>
      <g>
        <path id="ArmOne-2" data-name="ArmOne" class="cls-8" d="m37.42,31.94h0c-1.17.6-2.63.13-3.23-1.04l-5.12-9.99c-.6-1.17-.13-2.63,1.04-3.23h0c1.17-.6,2.63-.13,3.23,1.04l5.12,9.99c.6,1.17.13,2.63-1.04,3.23Z"/>
        <path class="cls-12" d="m35.69,28.49h0c-.26.13-.57.03-.7-.23l-1.41-2.76c-.13-.26-.03-.57.23-.7h0c.26-.13.57-.03.7.23l1.41,2.76c.13.26.03.57-.23.7Z"/>
        <path class="cls-2" d="m36.96,20.92c-1.15-2.25-3.91-3.14-6.16-1.99-2.25,1.15-3.14,3.91-1.99,6.16,1.15,2.25,3.49,2.31,5.74,1.16,2.25-1.15,3.57-3.08,2.42-5.33Z"/>
        <path class="cls-1" d="m36.32,18.99c-1.23-2.4-4.17-3.35-6.58-2.12s-3.35,4.17-2.12,6.58c1.23,2.4,3.72,2.46,6.12,1.23,2.4-1.23,3.81-3.28,2.58-5.69Z"/>
        <path class="cls-6" d="m34.35,19.87c-.96-1.88-3.08-2.73-4.71-1.89-1.64.84-2.19,3.05-1.22,4.93s2.72,2.03,4.36,1.19c1.64-.84,2.54-2.35,1.58-4.23Z"/>
        <path class="cls-3" d="m36.62,28.01c-.26-.51-.89-.72-1.4-.45-.51.26-.72.89-.45,1.4.26.51.89.72,1.4.45.51-.26.72-.89.45-1.4Z"/>
        <g>
          <path class="cls-1" d="m31.96,23.52h0c-.13-.04-.2-.18-.16-.31l.83-2.56c.04-.13.18-.2.31-.16h0c.13.04.2.18.16.31l-.83,2.56c-.04.13-.18.2-.31.16Z"/>
          <path class="cls-1" d="m30.61,22.19h0c-.13-.04-.2-.18-.16-.31l.83-2.56c.04-.13.18-.2.31-.16h0c.13.04.2.18.16.31l-.83,2.56c-.04.13-.18.2-.31.16Z"/>
          <path class="cls-1" d="m29.15,22.9h0c-.13-.04-.2-.18-.16-.31l.83-2.56c.04-.13.18-.2.31-.16h0c.13.04.2.18.16.31l-.83,2.56c-.04.13-.18.2-.31.16Z"/>
        </g>
        <path class="cls-2" d="m31.66,18.81c.47.92.11,2.04-.81,2.51-.92.47-2.04.11-2.51-.81-.47-.92-.11-2.04.81-2.51.92-.47,2.04-.11,2.51.81Z"/>
        <path class="cls-2" d="m33.42,19.93c-.16-.3-.04-.68.27-.83.3-.16.68-.04.83.27.16.3.04.68-.27.83-.3.16-.68.04-.83-.27Z"/>
      </g>
      <g>
        <path class="cls-8" d="m27.38,47.46h0c1.96.65,4.1-.42,4.75-2.38l2.72-8.21c.65-1.96-.42-4.1-2.38-4.75h0c-1.96-.65-4.1.42-4.75,2.38l-2.72,8.21c-.65,1.96.42,4.1,2.38,4.75Z"/>
        <path class="cls-1" d="m25.48,46.83h0c1.96.65,4.1-.42,4.75-2.38l2.72-8.21c.65-1.96-.42-4.1-2.38-4.75h0c-1.96-.65-4.1.42-4.75,2.38l-2.72,8.21c-.65,1.96.42,4.1,2.38,4.75Z"/>
        <path class="cls-2" d="m25.28,45.9h0c1.48.49,3.1-.32,3.59-1.8l2.72-8.19c.49-1.48-.32-3.1-1.8-3.59h0c-1.48-.49-3.1.32-3.59,1.8l-2.72,8.19c-.49,1.48.32,3.1,1.8,3.59Z"/>
        <path class="cls-6" d="m24.45,45.62h0c1.48.49,3.1-.32,3.59-1.8l2.72-8.19c.49-1.48-.32-3.1-1.8-3.59h0c-1.48-.49-3.1.32-3.59,1.8l-2.72,8.19c-.49,1.48.32,3.1,1.8,3.59Z"/>
        <path class="cls-8" d="m30.17,36.44l2.17.72c.52.17,1.09-.11,1.26-.63h0c.17-.52-.11-1.09-.63-1.26l-2.17-.72c-.52-.17-1.09.11-1.26.63h0c-.17.52.11,1.09.63,1.26Z"/>
        <path class="cls-8" d="m27.61,44.15l2.17.72c.52.17,1.09-.11,1.26-.63h0c.17-.52-.11-1.09-.63-1.26l-2.17-.72c-.52-.17-1.09.11-1.26.63h0c-.17.52.11,1.09.63,1.26Z"/>
        <path class="cls-7" d="m30.02,44.95h0c.39.13.81-.08.94-.47l2.72-8.2c.13-.39-.08-.81-.47-.94h0c-.39-.13-.81.08-.94.47l-2.72,8.2c-.13.39.08.81.47.94Z"/>
        <path class="cls-10" d="m31.89,39.31h0c.39.13.81-.08.94-.47l.39-1.19c.13-.39-.08-.81-.47-.94h0c-.39-.13-.81.08-.94.47l-.39,1.19c-.13.39.08.81.47.94Z"/>
        <path class="cls-10" d="m30.72,42.83h0c.39.13.81-.08.94-.47l.11-.34c.13-.39-.08-.81-.47-.94h0c-.39-.13-.81.08-.94.47l-.11.34c-.13.39.08.81.47.94Z"/>
        <g>
          <path class="cls-1" d="m28.98,39.05h0c-.06-.12-.21-.17-.33-.11l-2.4,1.21c-.12.06-.17.21-.11.33h0c.06.12.21.17.33.11l2.4-1.21c.12-.06.17-.21.11-.33Z"/>
          <path class="cls-1" d="m27.47,37.92h0c-.06-.12-.21-.17-.33-.11l-2.4,1.21c-.12.06-.17.21-.11.33h0c.06.12.21.17.33.11l2.4-1.21c.12-.06.17-.21.11-.33Z"/>
          <path class="cls-1" d="m27.94,36.37h0c-.06-.12-.21-.17-.33-.11l-2.4,1.21c-.12.06-.17.21-.11.33h0c.06.12.21.17.33.11l2.4-1.21c.12-.06.17-.21.11-.33Z"/>
        </g>
        <path class="cls-2" d="m28.08,33.64c.11-.32-.07-.68-.39-.78-.32-.11-.68.07-.78.39-.11.33.07.68.39.78.32.11.68-.07.78-.39Z"/>
      </g>
    </g>
  </g>
</svg>