<?xml version="1.0" encoding="UTF-8"?>
<svg id="Layer_2" data-name="Layer 2" xmlns="http://www.w3.org/2000/svg" viewBox="0 0 44.77 58.14">
  <defs>
    <style>
      .cls-1 {
        fill: #a20025;
      }

      .cls-2 {
        fill: #fff;
      }

      .cls-3 {
        fill: #7cff00;
      }

      .cls-4 {
        fill: #ffd285;
      }

      .cls-5 {
        fill: #fd003a;
      }

      .cls-6 {
        fill: #4d4d4d;
      }

      .cls-7 {
        fill: #333;
      }

      .cls-8 {
        fill: #ff6e4c;
      }

      .cls-9 {
        fill: #999;
      }

      .cls-10 {
        fill: #434343;
      }

      .cls-11 {
        fill: #1a1a1a;
      }

      .cls-12 {
        fill: #74001b;
      }

      .cls-13 {
        fill: #666;
      }
    </style>
  </defs>
  <g id="hurt">
    <g id="hurt3">
      <g>
        <g>
          <path class="cls-11" d="m31.74,22.06l-.83-.2-.11-.03-5-1.22c-1.28-.31-2.59.48-2.9,1.76h0c-.31,1.28.48,2.59,1.76,2.9l5,1.22.11.03.83.2c1.28.31,2.59-.48,2.9-1.76h0c.31-1.28-.48-2.59-1.76-2.9Z"/>
          <path class="cls-12" d="m33.68,22.54l-1.68-.41c-1.28-.31-2.59.48-2.9,1.76h0c-.31,1.28.48,2.59,1.76,2.9l1.68.41c1.28.31,2.59-.48,2.9-1.76h0c.31-1.28-.48-2.59-1.76-2.9Z"/>
        </g>
        <g>
          <path id="ArmOne" class="cls-11" d="m26.22,23.51h0c-.53,1.21-1.95,1.76-3.16,1.23l-10.27-4.53c-1.21-.53-1.76-1.95-1.23-3.16h0c.53-1.21,1.95-1.76,3.16-1.23l10.27,4.52c1.21.53,1.76,1.95,1.23,3.16Z"/>
          <path class="cls-6" d="m23.3,22.2h0c-.12.26-.43.38-.69.27l-2.84-1.25c-.26-.12-.38-.43-.27-.69h0c.12-.26.43-.38.69-.27l2.84,1.25c.26.12.38.43.27.69Z"/>
          <path class="cls-2" d="m18.91,15.25c-2.31-1.02-5.02.03-6.04,2.34-1.02,2.31.03,5.02,2.34,6.04,2.31,1.02,4.16-.41,5.18-2.72,1.02-2.31.83-4.64-1.48-5.66Z"/>
          <path class="cls-1" d="m17.19,14.16c-2.47-1.09-5.35.03-6.44,2.5s.03,5.35,2.5,6.44,4.44-.43,5.53-2.9c1.09-2.47.88-4.95-1.58-6.04Z"/>
          <path class="cls-5" d="m16.19,15.18c-1.53-.67-3.32.02-3.99,1.55s.02,3.32,1.55,3.99c1.53.67,3.32-.02,3.99-1.55.67-1.53-.02-3.32-1.55-3.99Z"/>
          <path class="cls-11" d="m15.98,15.66c-1.53-.67-3.32.02-3.99,1.55-.67,1.53.02,3.32,1.55,3.99s3.32-.02,3.99-1.55c.67-1.53-.02-3.32-1.55-3.99Z"/>
          <path class="cls-6" d="m15.54,16.67c-.97-.43-2.1.01-2.53.98-.43.97.01,2.1.98,2.53s2.1-.01,2.53-.98c.43-.97-.01-2.1-.98-2.53Z"/>
          <path class="cls-11" d="m15.1,17.67c-.42-.19-.91,0-1.1.43-.19.42,0,.91.43,1.1.42.19.91,0,1.1-.43.19-.42,0-.91-.43-1.1Z"/>
        </g>
      </g>
      <g>
        <g>
          <path class="cls-7" d="m25.24,33.49l1.94-1.21c.47-.29.61-.91.32-1.38h0c-.29-.47-.91-.61-1.38-.32l-1.94,1.21c-.47.29-.61.91-.32,1.38h0c.29.47.91.61,1.38.32Z"/>
          <path class="cls-7" d="m29.55,40.38l1.94-1.21c.47-.29.61-.91.32-1.38h0c-.29-.47-.91-.61-1.38-.32l-1.94,1.21c-.47.29-.61.91-.32,1.38h0c.29.47.91.61,1.38.32Z"/>
          <path class="cls-6" d="m31.7,39.03h0c.35-.22.45-.68.24-1.03l-4.58-7.32c-.22-.35-.68-.45-1.03-.24h0c-.35.22-.45.68-.24,1.03l4.58,7.32c.22.35.68.45,1.03.24Z"/>
          <path class="cls-9" d="m28.55,33.99h0c.35-.22.45-.68.24-1.03l-.67-1.06c-.22-.35-.68-.45-1.03-.24h0c-.35.22-.45.68-.24,1.03l.66,1.06c.22.35.68.45,1.03.24Z"/>
          <path class="cls-9" d="m30.52,37.13h0c.35-.22.45-.68.24-1.03l-.19-.31c-.22-.35-.68-.45-1.03-.24h0c-.35.22-.45.68-.24,1.03l.19.31c.22.35.68.45,1.03.24Z"/>
        </g>
        <path class="cls-5" d="m29.35,43.27h0c-1.32.83-3.08.42-3.91-.9l-4.58-7.31c-.83-1.32-.42-3.08.9-3.91h0c1.32-.83,3.08-.42,3.91.9l4.58,7.31c.83,1.32.42,3.08-.9,3.91Z"/>
        <path class="cls-1" d="m28.23,44.94h0c-1.75,1.1-4.08.56-5.18-1.19l-4.59-7.33c-1.1-1.75-.56-4.08,1.19-5.18h0c1.75-1.1,4.08-.56,5.18,1.19l4.59,7.33c1.1,1.75.56,4.08-1.19,5.18Z"/>
        <path class="cls-11" d="m26.94,45.75h0c-1.75,1.1-4.08.56-5.18-1.19l-4.59-7.33c-1.1-1.75-.56-4.08,1.19-5.18h0c1.75-1.1,4.08-.56,5.18,1.19l4.59,7.33c1.1,1.75.56,4.08-1.19,5.18Z"/>
        <path class="cls-6" d="m24.54,45.15h0c-.35.22-.81.11-1.03-.24l-3.36-5.37c-.22-.35-.11-.81.24-1.03h0c.35-.22.81-.11,1.03.24l3.36,5.37c.22.35.11.81-.24,1.03Z"/>
        <path class="cls-9" d="m21.84,40.85h0c-.35.22-.81.11-1.03-.24l-.67-1.06c-.22-.35-.11-.81.24-1.03h0c.35-.22.81-.11,1.03.24l.66,1.06c.22.35.11.81-.24,1.03Z"/>
        <path class="cls-9" d="m23.81,43.99h0c-.35.22-.81.11-1.03-.24l-.19-.31c-.22-.35-.11-.81.24-1.03h0c.35-.22.81-.11,1.03.24l.19.31c.22.35.11.81-.24,1.03Z"/>
        <path class="cls-6" d="m27.39,42.99h0c-.35.22-.81.11-1.03-.24l-3.21-5.13c-.22-.35-.11-.81.24-1.03h0c.35-.22.81-.11,1.03.24l3.21,5.13c.22.35.11.81-.24,1.03Z"/>
        <path class="cls-9" d="m25.61,40.15h0c-.35.22-.81.11-1.03-.24l-.67-1.06c-.22-.35-.11-.81.24-1.03h0c.35-.22.81-.11,1.03.24l.67,1.06c.22.35.11.81-.24,1.03Z"/>
        <path class="cls-9" d="m27.08,42.51h0c-.35.22-.81.11-1.03-.24l-.19-.31c-.22-.35-.11-.81.24-1.03h0c.35-.22.81-.11,1.03.24l.19.31c.22.35.11.81-.24,1.03Z"/>
        <path class="cls-2" d="m24.07,31.86c-.18-.29-.09-.67.2-.85.29-.18.67-.09.85.2s.09.67-.2.85c-.29.18-.67.09-.85-.2Z"/>
        <path class="cls-6" d="m22.24,33.69c-.71-1.13-2.2-1.47-3.32-.76-1.13.71-1.47,2.2-.76,3.32.71,1.13,2.2,1.47,3.32.76,1.13-.71,1.47-2.2.76-3.32Z"/>
        <path class="cls-11" d="m21.29,34.28c-.38-.61-1.18-.79-1.79-.41-.61.38-.79,1.18-.41,1.79.38.61,1.18.79,1.79.41s.79-1.18.41-1.79Z"/>
        <path class="cls-2" d="m29.45,40.46c-.18-.29-.09-.67.2-.85.29-.18.67-.09.85.2s.09.67-.2.85-.67.09-.85-.2Z"/>
      </g>
      <g>
        <g id="ShinTwo">
          <path class="cls-11" d="m23.78,56.35h0c-1.26-.21-2.12-1.42-1.91-2.68l1.7-10.2c.21-1.26,1.42-2.12,2.68-1.91h0c1.26.21,2.12,1.42,1.91,2.68l-1.7,10.2c-.21,1.26-1.42,2.12-2.68,1.91Z"/>
        </g>
        <path class="cls-10" d="m26.98,44.05c.1-.62-.31-1.2-.93-1.3-.62-.1-1.2.31-1.3.93-.1.62.31,1.2.93,1.3.62.1,1.2-.31,1.3-.93Z"/>
      </g>
      <g>
        <g id="ShinTwo-2" data-name="ShinTwo">
          <path class="cls-7" d="m5.16,56.24h0c-1.22-.4-1.88-1.72-1.48-2.94l3.24-9.82c.4-1.22,1.72-1.88,2.94-1.48h0c1.22.4,1.88,1.72,1.48,2.94l-3.24,9.82c-.4,1.22-1.72,1.88-2.94,1.48Z"/>
        </g>
        <path class="cls-6" d="m5.28,54.2h0c-.28-.09-.43-.39-.34-.67l3.27-9.9c.09-.28.39-.43.67-.34h0c.28.09.43.39.34.67l-3.27,9.9c-.09.28-.39.43-.67.34Z"/>
        <path class="cls-2" d="m7.47,47.56h0c-.28-.09-.43-.39-.34-.67l.56-1.69c.09-.28.39-.43.67-.34h0c.28.09.43.39.34.67l-.56,1.69c-.09.28-.39.43-.67.34Z"/>
        <path class="cls-2" d="m5.94,52.11h0c-.29-.1-.45-.41-.35-.7l.29-.89c.1-.29.41-.45.7-.35h0c.29.1.45.41.35.7l-.29.89c-.1.29-.41.45-.7.35Z"/>
      </g>
      <g>
        <path class="cls-5" d="m28.99,57.08c0-2.9-2.35-5.06-5.25-5.06s-5.25,2.16-5.25,5.06h10.5Z"/>
        <path class="cls-1" d="m26.96,57.08c.12-.34.19-.71.19-1.09,0-1.88-1.53-3.41-3.41-3.41s-3.41,1.53-3.41,3.41c0,.38.08.75.19,1.09h6.44Z"/>
        <path class="cls-11" d="m19.56,55.98h8.37c.59,0,1.06.48,1.06,1.06v.03c0,.59-.48,1.06-1.06,1.06h-8.37c-.59,0-1.06-.48-1.06-1.06v-.03c0-.59.48-1.06,1.06-1.06Z"/>
        <path class="cls-2" d="m27.21,54.4c0,.68-.55,1.24-1.24,1.24s-1.24-.55-1.24-1.24.55-1.24,1.24-1.24,1.24.55,1.24,1.24Z"/>
        <path class="cls-2" d="m23.33,53.16c0-.35.29-.64.64-.64s.64.29.64.64-.29.64-.64.64-.64-.29-.64-.64Z"/>
        <path class="cls-6" d="m20.33,56.66h0c-.38,0-.69-.31-.69-.69h0c0-.38.31-.69.69-.69h0c.38,0,.69.31.69.69h0c0,.38-.31.69-.69.69Z"/>
        <path class="cls-6" d="m27.38,56.66h0c-.38,0-.69-.31-.69-.69h0c0-.38.31-.69.69-.69h0c.38,0,.69.31.69.69h0c0,.38-.31.69-.69.69Z"/>
        <path class="cls-6" d="m25.03,56.66h0c-.38,0-.69-.31-.69-.69h0c0-.38.31-.69.69-.69h0c.38,0,.69.31.69.69h0c0,.38-.31.69-.69.69Z"/>
        <path class="cls-6" d="m22.68,56.66h0c-.38,0-.69-.31-.69-.69h0c0-.38.31-.69.69-.69h0c.38,0,.69.31.69.69h0c0,.38-.31.69-.69.69Z"/>
      </g>
      <g>
        <path class="cls-5" d="m11.43,57.08c0-2.9-2.35-5.06-5.25-5.06s-5.25,2.16-5.25,5.06h10.5Z"/>
        <path class="cls-1" d="m9.4,57.08c.12-.34.19-.71.19-1.09,0-1.88-1.53-3.41-3.41-3.41s-3.41,1.53-3.41,3.41c0,.38.08.75.19,1.09h6.44Z"/>
        <path class="cls-11" d="m2,55.98h8.37c.59,0,1.06.48,1.06,1.06v.03c0,.59-.48,1.06-1.06,1.06H2c-.59,0-1.06-.48-1.06-1.06v-.03c0-.59.48-1.06,1.06-1.06Z"/>
        <path class="cls-2" d="m9.65,54.4c0,.68-.55,1.24-1.24,1.24s-1.24-.55-1.24-1.24.55-1.24,1.24-1.24,1.24.55,1.24,1.24Z"/>
        <path class="cls-2" d="m5.77,53.16c0-.35.29-.64.64-.64s.64.29.64.64-.29.64-.64.64-.64-.29-.64-.64Z"/>
        <path class="cls-6" d="m2.77,56.66h0c-.38,0-.69-.31-.69-.69h0c0-.38.31-.69.69-.69h0c.38,0,.69.31.69.69h0c0,.38-.31.69-.69.69Z"/>
        <path class="cls-6" d="m9.82,56.66h0c-.38,0-.69-.31-.69-.69h0c0-.38.31-.69.69-.69h0c.38,0,.69.31.69.69h0c0,.38-.31.69-.69.69Z"/>
        <path class="cls-6" d="m7.47,56.66h0c-.38,0-.69-.31-.69-.69h0c0-.38.31-.69.69-.69h0c.38,0,.69.31.69.69h0c0,.38-.31.69-.69.69Z"/>
        <path class="cls-6" d="m5.12,56.66h0c-.38,0-.69-.31-.69-.69h0c0-.38.31-.69.69-.69h0c.38,0,.69.31.69.69h0c0,.38-.31.69-.69.69Z"/>
      </g>
      <g>
        <path class="cls-11" d="m7.11,21.22c-.17,0-.33-.08-.42-.24-.12-.2-3.04-4.95-.99-7.76,1.55-2.13,5.47-2.43,11.64-.89.27.07.43.34.36.61-.07.27-.34.43-.61.36-5.66-1.41-9.32-1.23-10.59.51-1.65,2.26,1.01,6.6,1.03,6.64.15.23.07.54-.16.69-.08.05-.17.08-.26.08Z"/>
        <g>
          <g>
            <path class="cls-11" d="m3.28,30.56H1c-.55,0-1,.45-1,1h0c0,.55.45,1,1,1h2.28c.55,0,1-.45,1-1h0c0-.55-.45-1-1-1Z"/>
            <path class="cls-11" d="m3.28,22.43H1c-.55,0-1,.45-1,1h0c0,.55.45,1,1,1h2.28c.55,0,1-.45,1-1h0c0-.55-.45-1-1-1Z"/>
            <path class="cls-6" d="m.75,22.43h0c-.41,0-.75.34-.75.75v8.63c0,.41.34.75.75.75h0c.41,0,.75-.34.75-.75v-8.63c0-.41-.34-.75-.75-.75Z"/>
            <path class="cls-9" d="m.75,28.38h0c-.41,0-.75.34-.75.75v1.25c0,.41.34.75.75.75h0c.41,0,.75-.34.75-.75v-1.25c0-.41-.34-.75-.75-.75Z"/>
            <path class="cls-9" d="m.75,24.67h0c-.41,0-.75.34-.75.75v.36c0,.41.34.75.75.75h0c.41,0,.75-.34.75-.75v-.36c0-.41-.34-.75-.75-.75Z"/>
          </g>
          <path class="cls-11" d="m10.09,35.47h0c.93,0,1.7-.76,1.7-1.7v-10.71c0-2.07-1.69-3.76-3.76-3.76h0c-2.07,0-3.76,1.69-3.76,3.76v6.59c0,3.2,2.62,5.82,5.82,5.82Z"/>
          <path class="cls-2" d="m7.13,34.65h0c.79,0,1.43-.64,1.43-1.43v-10.04c0-1.56-1.28-2.84-2.84-2.84h0c-1.56,0-2.84,1.28-2.84,2.84v7.22c0,2.34,1.91,4.25,4.25,4.25Z"/>
          <path class="cls-13" d="m8.08,34.65h0c.79,0,1.43-.64,1.43-1.43v-10.04c0-1.56-1.28-2.84-2.84-2.84h0c-1.56,0-2.84,1.28-2.84,2.84v7.22c0,2.34,1.91,4.25,4.25,4.25Z"/>
          <path class="cls-2" d="m6.35,22.13c0-.34-.28-.62-.62-.62s-.62.28-.62.62.28.62.62.62.62-.28.62-.62Z"/>
          <path class="cls-2" d="m7.11,31.48c0-.83-.67-1.51-1.51-1.51s-1.51.67-1.51,1.51.67,1.51,1.51,1.51,1.51-.67,1.51-1.51Z"/>
          <circle class="cls-11" cx="5.2" cy="31.48" r="1.51"/>
          <path class="cls-3" d="m6.05,31.48c0-.59-.48-1.07-1.07-1.07s-1.07.48-1.07,1.07.48,1.07,1.07,1.07,1.07-.48,1.07-1.07Z"/>
          <path class="cls-11" d="m11.98,25.3h-5.5c-.52,0-.95-.43-.95-.95h0c0-.52.43-.95.95-.95h5.5c.52,0,.95.43.95.95h0c0,.52-.43.95-.95.95Z"/>
          <path class="cls-11" d="m11.98,29.2h-5.5c-.52,0-.95-.43-.95-.95h0c0-.52.43-.95.95-.95h5.5c.52,0,.95.43.95.95h0c0,.52-.43.95-.95.95Z"/>
          <path class="cls-6" d="m7.14,28.26c0-.31-.25-.56-.56-.56s-.56.25-.56.56.25.56.56.56.56-.25.56-.56Z"/>
          <path class="cls-6" d="m7.14,24.35c0-.31-.25-.56-.56-.56s-.56.25-.56.56.25.56.56.56.56-.25.56-.56Z"/>
          <path class="cls-9" d="m6.09,24.35c0-.31-.25-.56-.56-.56s-.56.25-.56.56.25.56.56.56.56-.25.56-.56Z"/>
          <path class="cls-9" d="m6.09,28.26c0-.31-.25-.56-.56-.56s-.56.25-.56.56.25.56.56.56.56-.25.56-.56Z"/>
        </g>
        <g>
          <path class="cls-11" d="m16.04,37.65h0c-4.6,0-8.36-3.76-8.36-8.36v-6.64c0-2.6,2.13-4.73,4.73-4.73h7.25c2.6,0,4.73,2.13,4.73,4.73v6.64c0,4.6-3.76,8.36-8.36,8.36Z"/>
          <path class="cls-6" d="m14.28,29.55h0c-.71,0-1.29-.58-1.29-1.29v-4.04c0-.71.58-1.29,1.29-1.29h0c.71,0,1.29.58,1.29,1.29v4.04c0,.71-.58,1.29-1.29,1.29Z"/>
          <path class="cls-6" d="m20.64,29.55h0c-.71,0-1.29-.58-1.29-1.29v-4.04c0-.71.58-1.29,1.29-1.29h0c.71,0,1.29.58,1.29,1.29v4.04c0,.71-.58,1.29-1.29,1.29Z"/>
          <path class="cls-1" d="m14.98,25.4h-3c-1.07,0-1.94-.87-1.94-1.94h0c0-2.22,1.81-4.03,4.03-4.03h.91c1.07,0,1.94.87,1.94,1.94v2.09c0,1.07-.87,1.94-1.94,1.94Z"/>
          <path class="cls-1" d="m22.98,25.4h-3c-1.07,0-1.94-.87-1.94-1.94v-2.09c0-1.07.87-1.94,1.94-1.94h1.57c1.85,0,3.36,1.51,3.36,3.36v.66c0,1.07-.87,1.94-1.94,1.94Z"/>
          <path class="cls-5" d="m21.64,24.46l-2.78-2.78c-.21-.21-.21-.56,0-.78h0c.21-.21.56-.21.78,0l2.78,2.78c.21.21.21.56,0,.78h0c-.21.21-.56.21-.78,0Z"/>
          <path class="cls-5" d="m22.94,22.52l-1.23-1.23c-.21-.21-.21-.56,0-.78h0c.21-.21.56-.21.78,0l1.23,1.23c.21.21.21.56,0,.78h0c-.21.21-.56.21-.78,0Z"/>
          <path class="cls-5" d="m13.83,24.46l-2.14-2.14c-.21-.21-.21-.56,0-.78h0c.21-.21.56-.21.78,0l2.14,2.14c.21.21.21.56,0,.78h0c-.21.21-.56.21-.78,0Z"/>
          <path class="cls-5" d="m15.13,22.52l-1.23-1.23c-.21-.21-.21-.56,0-.78h0c.21-.21.56-.21.78,0l1.23,1.23c.21.21.21.56,0,.78h0c-.21.21-.56.21-.78,0Z"/>
          <path class="cls-1" d="m21.96,30.01h-9.76c-.48,0-.88-.39-.88-.88h0c0-.48.39-.88.88-.88h9.76c.48,0,.88.39.88.88h0c0,.48-.39.88-.88.88Z"/>
          <path class="cls-6" d="m14,32.08h0c-.41,0-.75-.34-.75-.75v-1.95c0-.41.34-.75.75-.75h0c.41,0,.75.34.75.75v1.95c0,.41-.34.75-.75.75Z"/>
          <path class="cls-6" d="m19.84,32.08h0c-.41,0-.75-.34-.75-.75v-1.95c0-.41.34-.75.75-.75h0c.41,0,.75.34.75.75v1.95c0,.41-.34.75-.75.75Z"/>
          <path class="cls-6" d="m14.01,34.47c0,.62-.5,1.12-1.12,1.12s-1.12-.5-1.12-1.12.5-1.12,1.12-1.12,1.12.5,1.12,1.12Z"/>
          <path class="cls-6" d="m21.55,34.07c0,.4-.32.72-.72.72s-.72-.32-.72-.72.32-.72.72-.72.72.32.72.72Z"/>
          <path class="cls-2" d="m12.7,21.9c0,.36-.29.66-.66.66s-.66-.29-.66-.66.29-.66.66-.66.66.29.66.66Z"/>
          <path class="cls-2" d="m14.98,20.9c0,.36-.29.65-.65.65s-.65-.29-.65-.65.29-.65.65-.65.65.29.65.65Z"/>
          <path class="cls-1" d="m20.3,34.24c0-1.47-1.47-2.67-3.27-2.67s-3.27,1.19-3.27,2.67,1.46,2.67,3.27,2.67,3.27-1.19,3.27-2.67Z"/>
          <path class="cls-2" d="m19.87,21.2c0,.36-.29.66-.66.66s-.66-.29-.66-.66.29-.66.66-.66.66.29.66.66Z"/>
          <circle class="cls-2" cx="22.1" cy="20.9" r=".65"/>
          <path class="cls-1" d="m22.7,32.58h-12.56c-.36,0-.65-.29-.65-.65h0c0-.36.29-.65.65-.65h12.56c.36,0,.65.29.65.65h0c0,.36-.29.65-.65.65Z"/>
          <path class="cls-5" d="m19.99,32.58h-2.25c-.36,0-.65-.29-.65-.65h0c0-.36.29-.65.65-.65h2.25c.36,0,.65.29.65.65h0c0,.36-.29.65-.65.65Z"/>
          <path class="cls-5" d="m13.68,32.58h-.53c-.36,0-.65-.29-.65-.65h0c0-.36.29-.65.65-.65h.53c.36,0,.65.29.65.65h0c0,.36-.29.65-.65.65Z"/>
          <path class="cls-2" d="m20.64,31.93c0,.36-.29.65-.65.65s-.65-.29-.65-.65.29-.65.65-.65.65.29.65.65Z"/>
          <path class="cls-2" d="m14.51,31.93c0,.36-.29.65-.65.65s-.65-.29-.65-.65.29-.65.65-.65.65.29.65.65Z"/>
          <path class="cls-5" d="m18.56,35.15c0-.71-.73-1.28-1.64-1.28s-1.64.57-1.64,1.28.73,1.28,1.64,1.28,1.64-.57,1.64-1.28Z"/>
          <circle class="cls-5" cx="18.36" cy="33.85" r=".5"/>
        </g>
      </g>
      <g>
        <path class="cls-11" d="m11.69,3.25s-1.62-1.07-3.64,1.29c-.18.21-.07.53.2.57.68.1,1.83.54,3.13,2.17l.31-4.04Z"/>
        <path class="cls-11" d="m10.55,5.42s-1.57-1.14-3.69,1.13c-.18.2-.09.53.17.58.67.13,1.8.62,3.03,2.31l.49-4.02Z"/>
        <path class="cls-11" d="m18.24,4.14s1.52-1.22-.11-3.86c-.14-.23-.49-.23-.61.01-.3.62-1.08,1.58-3.03,2.31l3.75,1.54Z"/>
        <g>
          <path class="cls-11" d="m10.78,3.28S18.19,1.77,20.55.11c.32-.23.76-.08.85.3.28,1.16.58,3.18-.31,4.24l-10.32-1.37Z"/>
          <path class="cls-8" d="m20.24,5.06c-.84.16-1.39.96-1.23,1.8.16.84.96,1.39,1.8,1.23.84-.16,1.39-.96,1.23-1.8-.16-.84-.96-1.39-1.8-1.23Z"/>
          <path class="cls-4" d="m16.92,14.72h0c-3,.56-5.92-1.43-6.49-4.44l-.55-2.92c-.34-1.84.88-3.62,2.71-3.96l4.46-.84c1.84-.34,3.62.88,3.96,2.71l.51,2.71c.59,3.12-1.49,6.15-4.61,6.74Z"/>
          <path class="cls-11" d="m10.34,10.98h0c-.81.15-1.61-.39-1.76-1.2l-.46-2.44c-.15-.81.39-1.61,1.2-1.76h0c.81-.15,1.61.39,1.76,1.2l.46,2.44c.15.81-.39,1.61-1.2,1.76Z"/>
          <path class="cls-11" d="m19.96,5.35l-8.5,1.59c-1.01.19-1.99-.48-2.18-1.49h0c-.19-1.01.48-1.99,1.49-2.18l8.5-1.59c1.01-.19,1.99.48,2.18,1.49h0c.19,1.01-.48,1.99-1.49,2.18Z"/>
          <g>
            <path class="cls-4" d="m12.17,8.14c.16.84-.25,1.62-1.09,1.77-.84.16-1.78-.37-1.94-1.2-.16-.84.39-1.64,1.23-1.8.84-.16,1.64.39,1.8,1.23Z"/>
            <path class="cls-8" d="m11.44,8.28c.08.43-.2.85-.64.93s-.85-.2-.93-.64.2-.85.64-.93c.43-.08.85.2.93.64Z"/>
          </g>
          <path class="cls-8" d="m18.05,10.95h0c-.61.11-1.2-.29-1.31-.9l-.21-1.1c-.11-.61.29-1.2.9-1.31h0c.61-.11,1.2.29,1.31.9l.21,1.1c.11.61-.29,1.2-.9,1.31Z"/>
          <path class="cls-13" d="m19.75,3.63l-3.67.69c-.34.06-.67-.16-.73-.5h0c-.06-.34.16-.67.5-.73l3.67-.69c.34-.06.67.16.73.5h0c.06.34-.16.67-.5.73Z"/>
          <path class="cls-2" d="m19.27,3.08c-.06-.34-.39-.56-.73-.5s-.56.39-.5.73c.06.34.39.56.73.5.34-.06.56-.39.5-.73Z"/>
          <path class="cls-13" d="m13.45,4.81l-1.14.21c-.34.06-.67-.16-.73-.5h0c-.06-.34.16-.67.5-.73l1.14-.21c.34-.06.67.16.73.5h0c.06.34-.16.67-.5.73Z"/>
          <path class="cls-1" d="m20.79,9.02l-7.05,1.32c-1.07.2-2.1-.51-2.3-1.58h0c-.2-1.07.51-2.1,1.58-2.3l7.05-1.32c1.07-.2,2.1.51,2.3,1.58h0c.2,1.07-.51,2.1-1.58,2.3Z"/>
          <path class="cls-5" d="m14.59,9.47c-.69.13-1.36-.33-1.49-1.02-.13-.69.33-1.36,1.02-1.49l6.06-1.14c.69-.13,1.36.33,1.49,1.02.13.69-.33,1.36-1.02,1.49l-6.06,1.14Z"/>
          <path class="cls-11" d="m16.6,8.45l-2.32.43c-.35.06-.68-.16-.75-.51h0c-.06-.35.16-.68.51-.75l2.32-.43c.35-.06.68.16.75.51h0c.06.35-.16.68-.51.75Z"/>
          <path class="cls-11" d="m21.26,7.58l-2.32.43c-.35.06-.68-.16-.75-.51h0c-.06-.35.16-.68.51-.75l2.32-.43c.35-.06.68.16.75.51h0c.06.35-.16.68-.51.75Z"/>
          <path class="cls-2" d="m16.3,7.86c.07.35-.16.68-.51.75s-.68-.16-.75-.51.16-.68.51-.75c.35-.07.68.16.75.51Z"/>
          <path class="cls-2" d="m21.04,6.97c.07.35-.16.68-.51.75-.35.07-.68-.16-.75-.51-.07-.35.16-.68.51-.75.35-.06.68.16.75.51Z"/>
        </g>
        <path class="cls-11" d="m17.49,18.02c3.6-.68,6.08-3.9,5.93-7.46-.02-.55-.54-.95-1.09-.85l-12.36,2.32c-.54.1-.88.66-.7,1.19,1.14,3.37,4.62,5.48,8.23,4.8Z"/>
        <path class="cls-2" d="m18.24,15.92c2.15-.4,3.63-2.32,3.53-4.45-.01-.33-.32-.57-.65-.51l-7.37,1.38c-.32.06-.52.4-.42.71.68,2.01,2.76,3.27,4.9,2.86Z"/>
        <path class="cls-6" d="m18.34,16.49c2.15-.4,3.63-2.32,3.53-4.45-.01-.33-.32-.57-.65-.51l-7.37,1.38c-.32.06-.52.4-.42.71.68,2.01,2.76,3.27,4.9,2.86Z"/>
        <path class="cls-11" d="m16.36,13.61c.05.25-.12.48-.36.53-.25.05-.48-.12-.53-.36s.12-.48.36-.53.48.12.53.36Z"/>
        <path class="cls-11" d="m17.69,13.36c.05.25-.12.48-.36.53-.25.05-.48-.12-.53-.36s.12-.48.36-.53.48.12.53.36Z"/>
        <path class="cls-11" d="m19.03,13.11c.05.25-.12.48-.36.53-.25.05-.48-.12-.53-.36s.12-.48.36-.53.48.12.53.36Z"/>
        <path class="cls-11" d="m20.36,12.86c.05.25-.12.48-.36.53-.25.05-.48-.12-.53-.36-.05-.25.12-.48.36-.53s.48.12.53.36Z"/>
        <path class="cls-11" d="m17.94,14.71c.05.25-.12.48-.36.53-.24.05-.48-.12-.53-.36s.12-.48.36-.53c.25-.05.48.12.53.36Z"/>
        <path class="cls-11" d="m19.28,14.46c.05.25-.12.48-.36.53s-.48-.12-.53-.36.12-.48.36-.53c.25-.05.48.12.53.36Z"/>
        <path class="cls-6" d="m11.94,13.51l-1.08.2c-.22.04-.42-.1-.47-.32h0c-.04-.22.1-.42.32-.47l1.08-.2c.22-.04.42.1.47.32h0c.04.22-.1.42-.32.47Z"/>
        <path class="cls-6" d="m12.56,15.24l-.38.07c-.24.05-.48-.12-.53-.36h0c-.05-.24.12-.48.36-.53l.38-.07c.24-.05.48.12.53.36h0c.05.24-.12.48-.36.53Z"/>
      </g>
      <g>
        <path class="cls-11" d="m26.23,14.26h0c-.53-.08-1.03.3-1.11.83l-.47,3.25c-.08.53.3,1.03.83,1.11h0c.53.08,1.03-.3,1.11-.83l.47-3.25c.08-.53-.3-1.03-.83-1.11Z"/>
        <path class="cls-11" d="m28.48,17.5h0c.08-.53-.3-1.03-.83-1.11l-3.25-.47c-.53-.08-1.03.3-1.11.83h0c-.08.53.3,1.03.83,1.11l3.25.47c.53.08,1.03-.3,1.11-.83Z"/>
        <path class="cls-3" d="m38.94,16.26l-5.09-.74c-.88-.13-1.71.49-1.84,1.38h0c-.13.88.49,1.71,1.38,1.84l5.09.74c.88.13,1.71-.49,1.84-1.38h0c.13-.88-.49-1.71-1.38-1.84Z"/>
        <path class="cls-2" d="m36.04,15.84l-.54-.08c-.29-.04-.56.16-.6.45h0c-.04.29.16.56.45.6l.54.08c.29.04.56-.16.6-.45h0c.04-.29-.16-.56-.45-.6Z"/>
        <path class="cls-2" d="m37.39,16.04h0c-.29-.04-.56.16-.6.45h0c-.04.29.16.56.45.6h0c.29.04.56-.16.6-.45h0c.04-.29-.16-.56-.45-.6Z"/>
        <path class="cls-11" d="m40.85,17.59l-8.98-1.3c-.76-.11-1.48.42-1.59,1.19h0c-.11.76.42,1.48,1.19,1.59l8.98,1.3c.76.11,1.48-.42,1.59-1.19h0c.11-.76-.42-1.48-1.19-1.59Z"/>
        <path class="cls-11" d="m33.04,17.54h0c-.57-.08-.97-.62-.89-1.19h0c.08-.57.62-.97,1.19-.89h0c.57.08.97.62.89,1.19h0c-.08.57-.62.97-1.19.89Z"/>
        <path class="cls-11" d="m39.58,18.48h0c-.57-.08-.97-.62-.89-1.19h0c.08-.57.62-.97,1.19-.89h0c.57.08.97.62.89,1.19h0c-.08.57-.62.97-1.19.89Z"/>
        <path class="cls-11" d="m28.9,28.23l-13.69-1.97c-1.32-.19-2.25-1.43-2.05-2.75l.41-2.83c.41-2.88,3.11-4.89,5.98-4.47l10.86,1.57c2.88.41,4.89,3.11,4.47,5.98h0c-.41,2.88-3.11,4.89-5.98,4.47Z"/>
        <path class="cls-11" d="m42.5,20.22h0c-.92-.13-1.78.51-1.91,1.43l-.59,4.11c-.13.92.51,1.78,1.43,1.91h0c.92.13,1.78-.51,1.91-1.43l.59-4.11c.13-.92-.51-1.78-1.43-1.91Z"/>
        <path class="cls-2" d="m40.85,27.38l-19.58-2.83.72-4.99c.26-1.8,1.93-3.05,3.73-2.79l15.51,2.24c.45.07.77.48.7.94l-1.07,7.43Z"/>
        <path class="cls-11" d="m40.95,28.47l-19.13-2.76.72-4.99c.26-1.8,1.93-3.05,3.73-2.79l13.85,2c1.12.16,1.89,1.2,1.73,2.32l-.9,6.22Z"/>
        <path class="cls-5" d="m40.97,28.2l-14.37-2.07.72-4.99c.26-1.8,1.93-3.05,3.73-2.79l10.3,1.49c.45.07.77.48.7.94l-1.07,7.43Z"/>
        <path class="cls-11" d="m38.93,26.1l-6.67-.96c-1.26-.18-2.45.7-2.63,1.97h0c-.18,1.26.7,2.45,1.97,2.63l6.67.96c1.26.18,2.45-.7,2.63-1.97h0c.18-1.26-.7-2.45-1.97-2.63Z"/>
        <path class="cls-11" d="m27.02,19.49h0c-1.72-.81-3.8-.07-4.61,1.66l-1.31,2.78c-.81,1.72-.07,3.8,1.66,4.61h0c1.72.81,3.8.07,4.61-1.66l1.31-2.78c.81-1.72.07-3.8-1.66-4.61Z"/>
        <path class="cls-11" d="m31.1,27.44l-5.8-.84c-2.15-.31-3.65-2.32-3.34-4.47h0c.31-2.15,2.32-3.65,4.47-3.34l5.8.84c2.15.31,3.65,2.32,3.34,4.47h0c-.31,2.15-2.32,3.65-4.47,3.34Z"/>
        <path class="cls-6" d="m31.33,26.15l-2.26-.33c-.65-.09-1.11-.7-1.01-1.35h0c.09-.65.7-1.11,1.35-1.01l2.26.33c.65.09,1.11.7,1.01,1.35h0c-.09.65-.7,1.11-1.35,1.01Z"/>
        <path class="cls-11" d="m25.71,19.3h0c-1.72-.81-3.8-.07-4.61,1.66l-1.31,2.78c-.81,1.72-.07,3.8,1.66,4.61h0c1.72.81,3.8.07,4.61-1.66l1.31-2.78c.81-1.72.07-3.8-1.66-4.61Z"/>
        <path class="cls-6" d="m25.1,20.31h0c-1.16-.55-2.62.08-3.24,1.4l-1,2.13c-.62,1.32-.18,2.85.98,3.39h0c1.16.55,2.62-.08,3.24-1.4l1-2.13c.62-1.32.18-2.85-.98-3.39Z"/>
        <path class="cls-2" d="m20.74,24.55l1-2.13c.62-1.32,2.08-1.95,3.24-1.4.83.39,1.28,1.27,1.25,2.22.34-1.2-.12-2.45-1.15-2.93-1.16-.55-2.62.08-3.24,1.4l-1,2.13c-.18.38-.26.78-.27,1.17.04-.15.1-.31.17-.46Z"/>
        <path class="cls-11" d="m25.03,22.57c.07-.48-.26-.92-.74-.98-.48-.07-.92.26-.98.74-.07.48.26.92.74.98.48.07.92-.26.98-.74Z"/>
        <path class="cls-11" d="m23.46,25.46c.06-.41-.22-.78-.63-.84-.41-.06-.78.22-.84.63-.06.41.22.78.63.84.41.06.78-.22.84-.63Z"/>
        <path class="cls-2" d="m29.35,23.73h0c-.5-.07-.97.28-1.04.78h0c-.07.5.28.97.78,1.04h0c.5.07.97-.28,1.04-.78h0c.07-.5-.28-.97-.78-1.04Z"/>
        <g>
          <path class="cls-5" d="m38.26,27.09l-4.54-.66c-1.72-.25-3.32.95-3.57,2.67h0c-.25,1.72.95,3.32,2.67,3.57l3.42.49c1.72.25,3.32-.95,3.57-2.67l.16-1.12c.16-1.1-.61-2.12-1.71-2.28Z"/>
          <path class="cls-1" d="m36.5,28.11l-2.52-.36c-1.03-.15-1.99.57-2.14,1.6h0c-.15,1.03.57,1.99,1.6,2.14l2.52.36c1.03.15,1.99-.57,2.14-1.6h0c.15-1.03-.57-1.99-1.6-2.14Z"/>
          <path class="cls-2" d="m37.95,28.81c.1-.68-.38-1.32-1.06-1.42-.68-.1-1.32.38-1.42,1.06-.1.68.38,1.32,1.06,1.42.68.1,1.32-.38,1.42-1.06Z"/>
          <path class="cls-2" d="m33.7,30.34c.07-.47-.26-.91-.73-.98-.47-.07-.91.26-.98.73-.07.47.26.91.73.98.47.07.91-.26.98-.73Z"/>
        </g>
        <path class="cls-6" d="m31.92,21.38l-4.04-.58c-.27-.04-.52.15-.56.42h0c-.04.27.15.52.42.56l4.04.58c.27.04.52-.15.56-.42h0c.04-.27-.15-.52-.42-.56Z"/>
        <path class="cls-6" d="m16.37,19.52h0c-.83-.12-1.62.46-1.74,1.3l-.32,2.23c-.12.83.46,1.62,1.3,1.74h0c.83.12,1.62-.46,1.74-1.3l.32-2.23c.12-.83-.46-1.62-1.3-1.74Z"/>
        <path class="cls-6" d="m19.52,17.38h0c-.7-.1-1.35.39-1.45,1.09h0c-.1.7.39,1.35,1.09,1.45h0c.7.1,1.35-.39,1.45-1.09h0c.1-.7-.39-1.35-1.09-1.45Z"/>
        <path class="cls-11" d="m43.98,21.78h0c-.5-.07-.98.28-1.05.79l-.22,1.53c-.07.5.28.98.79,1.05h0c.5.07.98-.28,1.05-.79l.22-1.53c.07-.5-.28-.98-.79-1.05Z"/>
        <path class="cls-6" d="m42.62,24.5h0c-.3-.04-.52-.33-.47-.63l.25-1.76c.04-.3.33-.52.63-.47h0c.3.04.52.33.47.63l-.25,1.76c-.04.3-.33.52-.63.47Z"/>
        <path class="cls-6" d="m42.39,26.08h0c-.25-.04-.48.14-.52.39h0c-.04.25.14.48.39.52h0c.25.04.48-.14.52-.39h0c.04-.25-.14-.48-.39-.52Z"/>
        <path class="cls-2" d="m43.47,22.5h0c-.37-.05-.72.21-.78.58h0c-.05.37.21.72.58.78h0c.37.05.72-.21.78-.58h0c.05-.37-.21-.72-.58-.78Z"/>
        <g>
          <path class="cls-11" d="m33.19,22.14h0c.15-1.03,1.12-1.75,2.15-1.59l3.13.46c1.03.15,1.75,1.12,1.59,2.15h0c-.15,1.03-1.12,1.75-2.15,1.59l-3.13-.46c-1.03-.15-1.75-1.12-1.59-2.15Z"/>
          <path class="cls-3" d="m35.62,22.5h0c.1-.7.76-1.19,1.46-1.09l1.03.15c.7.1,1.19.76,1.09,1.46h0c-.1.7-.76,1.19-1.46,1.09l-1.03-.15c-.7-.1-1.19-.76-1.09-1.46Z"/>
          <path class="cls-2" d="m38.13,23.71c.48-.1.79-.56.69-1.04-.1-.48-.56-.79-1.04-.69-.48.1-.79.56-.69,1.04.1.48.56.79,1.04.69Z"/>
          <path class="cls-6" d="m34.63,22.73c.25-.05.42-.3.36-.55-.05-.25-.3-.42-.55-.36s-.42.3-.36.55c.05.25.3.42.55.36Z"/>
        </g>
      </g>
      <g>
        <path class="cls-7" d="m19.57,24.95l-.7.5-.09.07-2.33,1.67c-1.07.77-1.32,2.28-.55,3.35h0c.77,1.07,2.28,1.32,3.35.55l2.33-1.67.09-.07.7-.5c1.07-.77,1.32-2.28.55-3.35h0c-.77-1.07-2.28-1.32-3.35-.55Z"/>
        <path class="cls-1" d="m21.19,23.78l-1.41,1.01c-1.07.77-1.32,2.28-.55,3.35h0c.77,1.07,2.28,1.32,3.35.55l1.41-1.01c1.07-.77,1.32-2.28.55-3.35h0c-.77-1.07-2.28-1.32-3.35-.55Z"/>
      </g>
      <g>
        <path class="cls-5" d="m29.4,26.41l-3.69-.53c-.96-.14-1.63-1.03-1.49-1.99h0c.14-.96,1.03-1.63,1.99-1.49l3.69.53c.96.14,1.63,1.03,1.49,1.99h0c-.14.96-1.03,1.63-1.99,1.49Z"/>
        <path class="cls-5" d="m25.32,22.26l-.33-.05c-2.23-.32-4.31,1.24-4.63,3.47h0c-.32,2.23,1.24,4.31,3.47,4.63l.33.05c2.23.32,4.31-1.24,4.63-3.47h0c.32-2.23-1.24-4.31-3.47-4.63Z"/>
        <path class="cls-1" d="m24.79,29.6h0c-1.38-.2-2.35-1.49-2.15-2.87l.2-1.41c.2-1.38,1.49-2.35,2.87-2.15h0c1.38.2,2.35,1.49,2.15,2.87l-.2,1.41c-.2,1.38-1.49,2.35-2.87,2.15Z"/>
        <path class="cls-1" d="m28.07,25.38l-2.39-.34c-.5-.07-.86-.54-.78-1.05h0c.07-.5.54-.86,1.05-.78l2.39.34c.5.07.86.54.78,1.05h0c-.07.5-.54.86-1.05.78Z"/>
        <path class="cls-2" d="m25.25,26.38h0c-.76-.11-1.3-.82-1.19-1.59h0c.11-.76.82-1.3,1.59-1.19h0c.76.11,1.3.82,1.19,1.59h0c-.11.76-.82,1.3-1.59,1.19Z"/>
        <path class="cls-2" d="m23.14,28.03h0c-.51-.07-.87-.55-.8-1.07h0c.07-.51.55-.87,1.07-.8h0c.51.07.87.55.8,1.07h0c-.07.51-.55.87-1.07.8Z"/>
      </g>
      <g>
        <path id="ArmOne-2" data-name="ArmOne" class="cls-7" d="m18.97,31.17h0c-1.13.68-2.61.31-3.29-.81l-5.8-9.61c-.68-1.13-.31-2.61.81-3.29h0c1.13-.68,2.61-.31,3.29.81l5.8,9.61c.68,1.13.31,2.61-.81,3.29Z"/>
        <path class="cls-11" d="m17,27.84h0c-.25.15-.57.07-.72-.18l-1.6-2.66c-.15-.25-.07-.57.18-.72h0c.25-.15.57-.07.72.18l1.6,2.66c.15.25.07.57-.18.72Z"/>
        <path class="cls-2" d="m17.75,20.21c-1.31-2.17-4.12-2.86-6.29-1.56-2.17,1.31-2.86,4.12-1.56,6.29s3.64,2.06,5.8.76c2.17-1.31,3.35-3.32,2.04-5.48Z"/>
        <path class="cls-1" d="m16.97,18.32c-1.39-2.31-4.4-3.06-6.71-1.66-2.31,1.39-3.06,4.4-1.66,6.71s3.88,2.2,6.19.81c2.31-1.39,3.57-3.54,2.18-5.85Z"/>
        <path class="cls-5" d="m15.07,19.34c-1.09-1.81-3.26-2.51-4.83-1.56-1.58.95-1.97,3.19-.88,5,1.09,1.81,2.85,1.84,4.43.89,1.58-.95,2.38-2.52,1.28-4.33Z"/>
        <path class="cls-3" d="m17.9,27.31c-.3-.49-.94-.65-1.43-.35-.49.3-.65.94-.35,1.43.3.49.94.65,1.43.36.49-.3.65-.94.35-1.43Z"/>
        <g>
          <path class="cls-1" d="m12.94,23.15h0c-.13-.03-.21-.17-.18-.3l.65-2.61c.03-.13.17-.21.3-.18h0c.13.03.21.17.18.3l-.65,2.61c-.03.13-.17.21-.3.18Z"/>
          <path class="cls-1" d="m11.5,21.92h0c-.13-.03-.21-.17-.18-.3l.65-2.61c.03-.13.17-.21.3-.18h0c.13.03.21.17.18.3l-.65,2.61c-.03.13-.17.21-.3.18Z"/>
          <path class="cls-1" d="m10.09,22.72h0c-.13-.03-.21-.17-.18-.3l.65-2.61c.03-.13.17-.21.3-.18h0c.13.03.21.17.18.3l-.65,2.61c-.03.13-.17.21-.3.18Z"/>
        </g>
        <path class="cls-2" d="m12.32,18.47c.53.88.25,2.03-.64,2.56s-2.03.25-2.56-.64c-.53-.88-.25-2.03.64-2.56s2.03-.25,2.56.64Z"/>
        <path class="cls-2" d="m14.15,19.46c-.18-.29-.08-.67.21-.85.29-.18.67-.08.85.21.18.29.08.67-.21.85-.29.18-.67.08-.85-.21Z"/>
      </g>
      <g>
        <path class="cls-7" d="m8.06,47.17h0c1.96.65,4.1-.42,4.75-2.38l2.72-8.21c.65-1.96-.42-4.1-2.38-4.75h0c-1.96-.65-4.1.42-4.75,2.38l-2.72,8.21c-.65,1.96.42,4.1,2.38,4.75Z"/>
        <path class="cls-1" d="m6.17,46.54h0c1.96.65,4.1-.42,4.75-2.38l2.72-8.21c.65-1.96-.42-4.1-2.38-4.75h0c-1.96-.65-4.1.42-4.75,2.38l-2.72,8.21c-.65,1.96.42,4.1,2.38,4.75Z"/>
        <path class="cls-2" d="m5.97,45.61h0c1.48.49,3.1-.32,3.59-1.8l2.72-8.19c.49-1.48-.32-3.1-1.8-3.59h0c-1.48-.49-3.1.32-3.59,1.8l-2.72,8.19c-.49,1.48.32,3.1,1.8,3.59Z"/>
        <path class="cls-5" d="m5.14,45.33h0c1.48.49,3.1-.32,3.59-1.8l2.72-8.19c.49-1.48-.32-3.1-1.8-3.59h0c-1.48-.49-3.1.32-3.59,1.8l-2.72,8.19c-.49,1.48.32,3.1,1.8,3.59Z"/>
        <path class="cls-7" d="m10.86,36.15l2.17.72c.52.17,1.09-.11,1.26-.63h0c.17-.52-.11-1.09-.63-1.26l-2.17-.72c-.52-.17-1.09.11-1.26.63h0c-.17.52.11,1.09.63,1.26Z"/>
        <path class="cls-7" d="m8.3,43.86l2.17.72c.52.17,1.09-.11,1.26-.63h0c.17-.52-.11-1.09-.63-1.26l-2.17-.72c-.52-.17-1.09.11-1.26.63h0c-.17.52.11,1.09.63,1.26Z"/>
        <path class="cls-6" d="m10.71,44.66h0c.39.13.81-.08.94-.47l2.72-8.2c.13-.39-.08-.81-.47-.94h0c-.39-.13-.81.08-.94.47l-2.72,8.2c-.13.39.08.81.47.94Z"/>
        <path class="cls-9" d="m12.58,39.02h0c.39.13.81-.08.94-.47l.39-1.19c.13-.39-.08-.81-.47-.94h0c-.39-.13-.81.08-.94.47l-.39,1.19c-.13.39.08.81.47.94Z"/>
        <path class="cls-9" d="m11.41,42.54h0c.39.13.81-.08.94-.47l.11-.34c.13-.39-.08-.81-.47-.94h0c-.39-.13-.81.08-.94.47l-.11.34c-.13.39.08.81.47.94Z"/>
        <g>
          <path class="cls-1" d="m9.67,38.76h0c-.06-.12-.21-.17-.33-.11l-2.4,1.21c-.12.06-.17.21-.11.33h0c.06.12.21.17.33.11l2.4-1.21c.12-.06.17-.21.11-.33Z"/>
          <path class="cls-1" d="m8.16,37.63h0c-.06-.12-.21-.17-.33-.11l-2.4,1.21c-.12.06-.17.21-.11.33h0c.06.12.21.17.33.11l2.4-1.21c.12-.06.17-.21.11-.33Z"/>
          <path class="cls-1" d="m8.63,36.08h0c-.06-.12-.21-.17-.33-.11l-2.4,1.21c-.12.06-.17.21-.11.33h0c.06.12.21.17.33.11l2.4-1.21c.12-.06.17-.21.11-.33Z"/>
        </g>
        <path class="cls-2" d="m8.77,33.35c.11-.32-.07-.68-.39-.78-.32-.11-.68.07-.78.39-.11.33.07.68.39.78.32.11.68-.07.78-.39Z"/>
      </g>
    </g>
  </g>
</svg>