<?xml version="1.0" encoding="UTF-8"?>
<svg id="Layer_2" data-name="Layer 2" xmlns="http://www.w3.org/2000/svg" viewBox="0 0 64.29 57.61">
  <defs>
    <style>
      .cls-1 {
        fill: #a20025;
      }

      .cls-2 {
        fill: #fff;
      }

      .cls-3 {
        fill: #7cff00;
      }

      .cls-4 {
        fill: #e71e00;
      }

      .cls-5 {
        fill: #ffd285;
      }

      .cls-6 {
        fill: #fd003a;
      }

      .cls-7 {
        fill: #4d4d4d;
      }

      .cls-8 {
        fill: #333;
      }

      .cls-9 {
        fill: #ff6e4c;
      }

      .cls-10 {
        fill: #999;
      }

      .cls-11 {
        fill: #434343;
      }

      .cls-12 {
        fill: #1a1a1a;
      }

      .cls-13 {
        fill: #74001b;
      }

      .cls-14 {
        fill: #666;
      }
    </style>
  </defs>
  <g id="hurt">
    <g id="hurt1">
      <g>
        <g>
          <path class="cls-12" d="m51.29,18.22l-.85-.08h-.11s-5.13-.51-5.13-.51c-1.31-.13-2.49.84-2.62,2.16h0c-.13,1.31.84,2.49,2.16,2.62l5.13.5h.11s.85.09.85.09c1.31.13,2.49-.84,2.62-2.16h0c.13-1.31-.84-2.49-2.16-2.62Z"/>
          <path class="cls-13" d="m53.28,18.41l-1.72-.17c-1.31-.13-2.49.84-2.62,2.16h0c-.13,1.31.84,2.49,2.16,2.62l1.72.17c1.31.13,2.49-.84,2.62-2.16h0c.13-1.31-.84-2.49-2.16-2.62Z"/>
        </g>
        <g>
          <path id="ArmOne" class="cls-12" d="m46.04,20.44h0c-.35,1.27-1.68,2.02-2.95,1.67l-10.81-3.01c-1.27-.35-2.02-1.68-1.67-2.95h0c.35-1.27,1.68-2.02,2.95-1.67l10.81,3.01c1.27.35,2.02,1.68,1.67,2.95Z"/>
          <path class="cls-7" d="m42.96,19.55h0c-.08.28-.37.44-.64.36l-2.99-.83c-.28-.08-.44-.37-.36-.64h0c.08-.28.37-.44.64-.36l2.99.83c.28.08.44.37.36.64Z"/>
          <path class="cls-2" d="m37.63,13.31c-2.44-.68-4.96.74-5.64,3.18s.74,4.96,3.18,5.64c2.44.68,4.06-1,4.74-3.43s.16-4.71-2.28-5.39Z"/>
          <path class="cls-1" d="m35.77,12.47c-2.6-.73-5.29.79-6.02,3.39-.73,2.6.79,5.29,3.39,6.02,2.6.73,4.33-1.06,5.06-3.66.73-2.6.17-5.03-2.43-5.75Z"/>
          <path class="cls-6" d="m34.93,13.63c-1.61-.45-3.28.49-3.73,2.1s.49,3.28,2.1,3.73c1.61.45,3.28-.49,3.73-2.1.45-1.61-.49-3.28-2.1-3.73Z"/>
          <path class="cls-12" d="m34.79,14.13c-1.61-.45-3.28.49-3.73,2.1-.45,1.61.49,3.28,2.1,3.73,1.61.45,3.28-.49,3.73-2.1.45-1.61-.49-3.28-2.1-3.73Z"/>
          <path class="cls-7" d="m34.49,15.2c-1.02-.28-2.08.31-2.37,1.33-.28,1.02.31,2.08,1.33,2.37,1.02.28,2.08-.31,2.37-1.33s-.31-2.08-1.33-2.37Z"/>
          <path class="cls-12" d="m34.2,16.24c-.44-.12-.9.14-1.03.58-.12.44.14.9.58,1.03.44.12.9-.14,1.03-.58.12-.44-.14-.9-.58-1.03Z"/>
        </g>
      </g>
      <g>
        <g>
          <path class="cls-8" d="m44.55,32.96l1.94-1.21c.47-.29.61-.91.32-1.38h0c-.29-.47-.91-.61-1.38-.32l-1.94,1.21c-.47.29-.61.91-.32,1.38h0c.29.47.91.61,1.38.32Z"/>
          <path class="cls-8" d="m48.86,39.85l1.94-1.21c.47-.29.61-.91.32-1.38h0c-.29-.47-.91-.61-1.38-.32l-1.94,1.21c-.47.29-.61.91-.32,1.38h0c.29.47.91.61,1.38.32Z"/>
          <path class="cls-7" d="m51.01,38.5h0c.35-.22.45-.68.24-1.03l-4.58-7.32c-.22-.35-.68-.45-1.03-.24h0c-.35.22-.45.68-.24,1.03l4.58,7.32c.22.35.68.45,1.03.24Z"/>
          <path class="cls-10" d="m47.86,33.47h0c.35-.22.45-.68.24-1.03l-.66-1.06c-.22-.35-.68-.45-1.03-.24h0c-.35.22-.45.68-.24,1.03l.67,1.06c.22.35.68.45,1.03.24Z"/>
          <path class="cls-10" d="m49.83,36.61h0c.35-.22.45-.68.24-1.03l-.19-.31c-.22-.35-.68-.45-1.03-.24h0c-.35.22-.45.68-.24,1.03l.19.31c.22.35.68.45,1.03.24Z"/>
        </g>
        <path class="cls-6" d="m48.66,42.74h0c-1.32.83-3.08.42-3.91-.9l-4.58-7.31c-.83-1.32-.42-3.08.9-3.91h0c1.32-.83,3.08-.42,3.91.9l4.58,7.31c.83,1.32.42,3.08-.9,3.91Z"/>
        <path class="cls-1" d="m47.55,44.41h0c-1.75,1.1-4.08.56-5.18-1.19l-4.59-7.33c-1.1-1.75-.56-4.08,1.19-5.18h0c1.75-1.1,4.08-.56,5.18,1.19l4.59,7.33c1.1,1.75.56,4.08-1.19,5.18Z"/>
        <path class="cls-12" d="m46.25,45.22h0c-1.75,1.1-4.08.56-5.18-1.19l-4.59-7.33c-1.1-1.75-.56-4.08,1.19-5.18h0c1.75-1.1,4.08-.56,5.18,1.19l4.59,7.33c1.1,1.75.56,4.08-1.19,5.18Z"/>
        <path class="cls-7" d="m43.85,44.63h0c-.35.22-.81.11-1.03-.24l-3.36-5.37c-.22-.35-.11-.81.24-1.03h0c.35-.22.81-.11,1.03.24l3.36,5.37c.22.35.11.81-.24,1.03Z"/>
        <path class="cls-10" d="m41.15,40.32h0c-.35.22-.81.11-1.03-.24l-.67-1.06c-.22-.35-.11-.81.24-1.03h0c.35-.22.81-.11,1.03.24l.66,1.06c.22.35.11.81-.24,1.03Z"/>
        <path class="cls-10" d="m43.12,43.46h0c-.35.22-.81.11-1.03-.24l-.19-.31c-.22-.35-.11-.81.24-1.03h0c.35-.22.81-.11,1.03.24l.19.31c.22.35.11.81-.24,1.03Z"/>
        <path class="cls-7" d="m46.7,42.47h0c-.35.22-.81.11-1.03-.24l-3.21-5.13c-.22-.35-.11-.81.24-1.03h0c.35-.22.81-.11,1.03.24l3.21,5.13c.22.35.11.81-.24,1.03Z"/>
        <path class="cls-10" d="m44.92,39.63h0c-.35.22-.81.11-1.03-.24l-.66-1.06c-.22-.35-.11-.81.24-1.03h0c.35-.22.81-.11,1.03.24l.67,1.06c.22.35.11.81-.24,1.03Z"/>
        <path class="cls-10" d="m46.4,41.98h0c-.35.22-.81.11-1.03-.24l-.19-.31c-.22-.35-.11-.81.24-1.03h0c.35-.22.81-.11,1.03.24l.19.31c.22.35.11.81-.24,1.03Z"/>
        <path class="cls-2" d="m43.38,31.34c-.18-.29-.09-.67.2-.85s.67-.09.85.2c.18.29.09.67-.2.85s-.67.09-.85-.2Z"/>
        <path class="cls-7" d="m41.55,33.16c-.71-1.13-2.2-1.47-3.32-.76-1.13.71-1.47,2.2-.76,3.32.71,1.13,2.2,1.47,3.32.76,1.13-.71,1.47-2.2.76-3.32Z"/>
        <path class="cls-12" d="m40.6,33.75c-.38-.61-1.18-.79-1.79-.41-.61.38-.79,1.18-.41,1.79.38.61,1.18.79,1.79.41.61-.38.79-1.18.41-1.79Z"/>
        <path class="cls-2" d="m48.77,39.93c-.18-.29-.09-.67.2-.85.29-.18.67-.09.85.2.18.29.09.67-.2.85s-.67.09-.85-.2Z"/>
      </g>
      <g>
        <g id="ShinTwo">
          <path class="cls-12" d="m43.09,55.82h0c-1.26-.21-2.12-1.42-1.91-2.68l1.7-10.2c.21-1.26,1.42-2.12,2.68-1.91h0c1.26.21,2.12,1.42,1.91,2.68l-1.7,10.2c-.21,1.26-1.42,2.12-2.68,1.91Z"/>
        </g>
        <path class="cls-11" d="m46.29,43.52c.1-.62-.31-1.2-.93-1.3-.62-.1-1.2.31-1.3.93-.1.62.31,1.2.93,1.3.62.1,1.2-.31,1.3-.93Z"/>
      </g>
      <g>
        <g id="ShinTwo-2" data-name="ShinTwo">
          <path class="cls-8" d="m24.48,55.72h0c-1.22-.4-1.88-1.72-1.48-2.94l3.24-9.82c.4-1.22,1.72-1.88,2.94-1.48h0c1.22.4,1.88,1.72,1.48,2.94l-3.24,9.82c-.4,1.22-1.72,1.88-2.94,1.48Z"/>
        </g>
        <path class="cls-7" d="m24.59,53.68h0c-.28-.09-.43-.39-.34-.67l3.27-9.9c.09-.28.39-.43.67-.34h0c.28.09.43.39.34.67l-3.27,9.9c-.09.28-.39.43-.67.34Z"/>
        <path class="cls-2" d="m26.78,47.03h0c-.28-.09-.43-.39-.34-.67l.56-1.69c.09-.28.39-.43.67-.34h0c.28.09.43.39.34.67l-.56,1.69c-.09.28-.39.43-.67.34Z"/>
        <path class="cls-2" d="m25.26,51.58h0c-.29-.1-.45-.41-.35-.7l.29-.89c.1-.29.41-.45.7-.35h0c.29.1.45.41.35.7l-.29.89c-.1.29-.41.45-.7.35Z"/>
      </g>
      <g>
        <path class="cls-6" d="m48.3,56.55c0-2.9-2.35-5.06-5.25-5.06s-5.25,2.16-5.25,5.06h10.5Z"/>
        <path class="cls-1" d="m46.27,56.55c.12-.34.19-.71.19-1.09,0-1.88-1.53-3.41-3.41-3.41s-3.41,1.53-3.41,3.41c0,.38.08.75.19,1.09h6.44Z"/>
        <path class="cls-12" d="m38.87,55.46h8.37c.59,0,1.06.48,1.06,1.06v.03c0,.59-.48,1.06-1.06,1.06h-8.37c-.59,0-1.06-.48-1.06-1.06v-.03c0-.59.48-1.06,1.06-1.06Z"/>
        <path class="cls-2" d="m46.52,53.88c0,.68-.55,1.24-1.24,1.24s-1.24-.55-1.24-1.24.55-1.24,1.24-1.24,1.24.55,1.24,1.24Z"/>
        <path class="cls-2" d="m42.64,52.64c0-.35.29-.64.64-.64s.64.29.64.64-.29.64-.64.64-.64-.29-.64-.64Z"/>
        <path class="cls-7" d="m39.64,56.13h0c-.38,0-.69-.31-.69-.69h0c0-.38.31-.69.69-.69h0c.38,0,.69.31.69.69h0c0,.38-.31.69-.69.69Z"/>
        <path class="cls-7" d="m46.69,56.13h0c-.38,0-.69-.31-.69-.69h0c0-.38.31-.69.69-.69h0c.38,0,.69.31.69.69h0c0,.38-.31.69-.69.69Z"/>
        <path class="cls-7" d="m44.34,56.13h0c-.38,0-.69-.31-.69-.69h0c0-.38.31-.69.69-.69h0c.38,0,.69.31.69.69h0c0,.38-.31.69-.69.69Z"/>
        <path class="cls-7" d="m41.99,56.13h0c-.38,0-.69-.31-.69-.69h0c0-.38.31-.69.69-.69h0c.38,0,.69.31.69.69h0c0,.38-.31.69-.69.69Z"/>
      </g>
      <g>
        <path class="cls-6" d="m30.74,56.55c0-2.9-2.35-5.06-5.25-5.06s-5.25,2.16-5.25,5.06h10.5Z"/>
        <path class="cls-1" d="m28.71,56.55c.12-.34.19-.71.19-1.09,0-1.88-1.53-3.41-3.41-3.41s-3.41,1.53-3.41,3.41c0,.38.08.75.19,1.09h6.44Z"/>
        <path class="cls-12" d="m21.31,55.46h8.37c.59,0,1.06.48,1.06,1.06v.03c0,.59-.48,1.06-1.06,1.06h-8.37c-.59,0-1.06-.48-1.06-1.06v-.03c0-.59.48-1.06,1.06-1.06Z"/>
        <path class="cls-2" d="m28.96,53.88c0,.68-.55,1.24-1.24,1.24s-1.24-.55-1.24-1.24.55-1.24,1.24-1.24,1.24.55,1.24,1.24Z"/>
        <path class="cls-2" d="m25.08,52.64c0-.35.29-.64.64-.64s.64.29.64.64-.29.64-.64.64-.64-.29-.64-.64Z"/>
        <path class="cls-7" d="m22.08,56.13h0c-.38,0-.69-.31-.69-.69h0c0-.38.31-.69.69-.69h0c.38,0,.69.31.69.69h0c0,.38-.31.69-.69.69Z"/>
        <path class="cls-7" d="m29.13,56.13h0c-.38,0-.69-.31-.69-.69h0c0-.38.31-.69.69-.69h0c.38,0,.69.31.69.69h0c0,.38-.31.69-.69.69Z"/>
        <path class="cls-7" d="m26.78,56.13h0c-.38,0-.69-.31-.69-.69h0c0-.38.31-.69.69-.69h0c.38,0,.69.31.69.69h0c0,.38-.31.69-.69.69Z"/>
        <path class="cls-7" d="m24.43,56.13h0c-.38,0-.69-.31-.69-.69h0c0-.38.31-.69.69-.69h0c.38,0,.69.31.69.69h0c0,.38-.31.69-.69.69Z"/>
      </g>
      <path class="cls-4" d="m16.91,8h12.8c1.03,0,1.88.85,1.88,1.88h0c0,1.03-.85,1.88-1.88,1.88h-12.8c-1.03,0-1.88-.85-1.88-1.88h0c0-1.03.85-1.88,1.88-1.88Z"/>
      <path class="cls-4" d="m14.66,14.21h2.99c.68,0,1.24.56,1.24,1.24h0c0,.68-.56,1.24-1.24,1.24h-2.99c-.68,0-1.24-.56-1.24-1.24h0c0-.68.56-1.24,1.24-1.24Z"/>
      <path class="cls-4" d="m8.46,4h8.47c.68,0,1.24.56,1.24,1.24h0c0,.68-.56,1.24-1.24,1.24h-8.47c-.68,0-1.24-.56-1.24-1.24h0c0-.68.56-1.24,1.24-1.24Z"/>
      <path class="cls-4" d="m1.24,4h1.73c.68,0,1.24.56,1.24,1.24h0c0,.68-.56,1.24-1.24,1.24h-1.73c-.68,0-1.24-.56-1.24-1.24h0c0-.68.56-1.24,1.24-1.24Z"/>
      <path class="cls-4" d="m6.35,0h1.73c.68,0,1.24.56,1.24,1.24h0c0,.68-.56,1.24-1.24,1.24h-1.73c-.68,0-1.24-.56-1.24-1.24h0c0-.68.56-1.24,1.24-1.24Z"/>
      <path class="cls-4" d="m46.07,8h-12.8c-1.03,0-1.88.85-1.88,1.88h0c0,1.03.85,1.88,1.88,1.88h12.8c1.03,0,1.88-.85,1.88-1.88h0c0-1.03-.85-1.88-1.88-1.88Z"/>
      <path class="cls-4" d="m48.32,14.21h-2.99c-.68,0-1.24.56-1.24,1.24h0c0,.68.56,1.24,1.24,1.24h2.99c.68,0,1.24-.56,1.24-1.24h0c0-.68-.56-1.24-1.24-1.24Z"/>
      <path class="cls-4" d="m54.52,4h-8.47c-.68,0-1.24.56-1.24,1.24h0c0,.68.56,1.24,1.24,1.24h8.47c.68,0,1.24-.56,1.24-1.24h0c0-.68-.56-1.24-1.24-1.24Z"/>
      <path class="cls-4" d="m61.73,4h-1.73c-.68,0-1.24.56-1.24,1.24h0c0,.68.56,1.24,1.24,1.24h1.73c.68,0,1.24-.56,1.24-1.24h0c0-.68-.56-1.24-1.24-1.24Z"/>
      <path class="cls-4" d="m57.32,8h-1.73c-.68,0-1.24.56-1.24,1.24h0c0,.68.56,1.24,1.24,1.24h1.73c.68,0,1.24-.56,1.24-1.24h0c0-.68-.56-1.24-1.24-1.24Z"/>
      <path class="cls-4" d="m23.61,2.39l4.58,4.58c.73.73.73,1.93,0,2.66h0c-.73.73-1.93.73-2.66,0l-4.58-4.58c-.73-.73-.73-1.93,0-2.66h0c.73-.73,1.93-.73,2.66,0Z"/>
      <path class="cls-4" d="m21.79,13.8l4.58-4.58c.73-.73,1.93-.73,2.66,0h0c.73.73.73,1.93,0,2.66l-4.58,4.58c-.73.73-1.93.73-2.66,0h0c-.73-.73-.73-1.93,0-2.66Z"/>
      <g>
        <path class="cls-12" d="m26.42,20.69c-.17,0-.33-.08-.42-.24-.12-.2-3.04-4.95-.99-7.76,1.55-2.13,5.47-2.43,11.64-.89.27.07.43.34.36.61-.07.27-.34.43-.61.36-5.66-1.41-9.32-1.23-10.59.51-1.65,2.26,1.01,6.6,1.03,6.64.15.23.07.54-.16.69-.08.05-.17.08-.26.08Z"/>
        <g>
          <g>
            <path class="cls-12" d="m22.6,30.03h-2.28c-.55,0-1,.45-1,1h0c0,.55.45,1,1,1h2.28c.55,0,1-.45,1-1h0c0-.55-.45-1-1-1Z"/>
            <path class="cls-12" d="m22.6,21.91h-2.28c-.55,0-1,.45-1,1h0c0,.55.45,1,1,1h2.28c.55,0,1-.45,1-1h0c0-.55-.45-1-1-1Z"/>
            <path class="cls-7" d="m20.06,21.91h0c-.41,0-.75.34-.75.75v8.63c0,.41.34.75.75.75h0c.41,0,.75-.34.75-.75v-8.63c0-.41-.34-.75-.75-.75Z"/>
            <path class="cls-10" d="m20.06,27.85h0c-.41,0-.75.34-.75.75v1.25c0,.41.34.75.75.75h0c.41,0,.75-.34.75-.75v-1.25c0-.41-.34-.75-.75-.75Z"/>
            <path class="cls-10" d="m20.06,24.14h0c-.41,0-.75.34-.75.75v.36c0,.41.34.75.75.75h0c.41,0,.75-.34.75-.75v-.36c0-.41-.34-.75-.75-.75Z"/>
          </g>
          <path class="cls-12" d="m29.4,34.95h0c.93,0,1.7-.76,1.7-1.7v-10.71c0-2.07-1.69-3.76-3.76-3.76h0c-2.07,0-3.76,1.69-3.76,3.76v6.59c0,3.2,2.62,5.82,5.82,5.82Z"/>
          <path class="cls-2" d="m26.45,34.12h0c.79,0,1.43-.64,1.43-1.43v-10.04c0-1.56-1.28-2.84-2.84-2.84h0c-1.56,0-2.84,1.28-2.84,2.84v7.22c0,2.34,1.91,4.25,4.25,4.25Z"/>
          <path class="cls-14" d="m27.39,34.12h0c.79,0,1.43-.64,1.43-1.43v-10.04c0-1.56-1.28-2.84-2.84-2.84h0c-1.56,0-2.84,1.28-2.84,2.84v7.22c0,2.34,1.91,4.25,4.25,4.25Z"/>
          <path class="cls-2" d="m25.66,21.61c0-.34-.28-.62-.62-.62s-.62.28-.62.62.28.62.62.62.62-.28.62-.62Z"/>
          <circle class="cls-2" cx="24.92" cy="30.96" r="1.51"/>
          <circle class="cls-12" cx="24.51" cy="30.96" r="1.51"/>
          <path class="cls-3" d="m25.36,30.96c0-.59-.48-1.07-1.07-1.07s-1.07.48-1.07,1.07.48,1.07,1.07,1.07,1.07-.48,1.07-1.07Z"/>
          <path class="cls-12" d="m31.3,24.77h-5.5c-.52,0-.95-.43-.95-.95h0c0-.52.43-.95.95-.95h5.5c.52,0,.95.43.95.95h0c0,.52-.43.95-.95.95Z"/>
          <path class="cls-12" d="m31.3,28.68h-5.5c-.52,0-.95-.43-.95-.95h0c0-.52.43-.95.95-.95h5.5c.52,0,.95.43.95.95h0c0,.52-.43.95-.95.95Z"/>
          <path class="cls-7" d="m26.45,27.73c0-.31-.25-.56-.56-.56s-.56.25-.56.56.25.56.56.56.56-.25.56-.56Z"/>
          <path class="cls-7" d="m26.45,23.83c0-.31-.25-.56-.56-.56s-.56.25-.56.56.25.56.56.56.56-.25.56-.56Z"/>
          <path class="cls-10" d="m25.4,23.83c0-.31-.25-.56-.56-.56s-.56.25-.56.56.25.56.56.56.56-.25.56-.56Z"/>
          <path class="cls-10" d="m25.4,27.73c0-.31-.25-.56-.56-.56s-.56.25-.56.56.25.56.56.56.56-.25.56-.56Z"/>
        </g>
        <g>
          <path class="cls-12" d="m35.35,37.12h0c-4.6,0-8.36-3.76-8.36-8.36v-6.64c0-2.6,2.13-4.73,4.73-4.73h7.25c2.6,0,4.73,2.13,4.73,4.73v6.64c0,4.6-3.76,8.36-8.36,8.36Z"/>
          <path class="cls-7" d="m33.59,29.02h0c-.71,0-1.29-.58-1.29-1.29v-4.04c0-.71.58-1.29,1.29-1.29h0c.71,0,1.29.58,1.29,1.29v4.04c0,.71-.58,1.29-1.29,1.29Z"/>
          <path class="cls-7" d="m39.95,29.02h0c-.71,0-1.29-.58-1.29-1.29v-4.04c0-.71.58-1.29,1.29-1.29h0c.71,0,1.29.58,1.29,1.29v4.04c0,.71-.58,1.29-1.29,1.29Z"/>
          <path class="cls-1" d="m34.29,24.88h-3c-1.07,0-1.94-.87-1.94-1.94h0c0-2.22,1.81-4.03,4.03-4.03h.91c1.07,0,1.94.87,1.94,1.94v2.09c0,1.07-.87,1.94-1.94,1.94Z"/>
          <path class="cls-1" d="m42.29,24.88h-3c-1.07,0-1.94-.87-1.94-1.94v-2.09c0-1.07.87-1.94,1.94-1.94h1.57c1.85,0,3.36,1.51,3.36,3.36v.66c0,1.07-.87,1.94-1.94,1.94Z"/>
          <path class="cls-6" d="m40.95,23.94l-2.78-2.78c-.21-.21-.21-.56,0-.78h0c.21-.21.56-.21.78,0l2.78,2.78c.21.21.21.56,0,.78h0c-.21.21-.56.21-.78,0Z"/>
          <path class="cls-6" d="m42.25,22l-1.23-1.23c-.21-.21-.21-.56,0-.78h0c.21-.21.56-.21.78,0l1.23,1.23c.21.21.21.56,0,.78h0c-.21.21-.56.21-.78,0Z"/>
          <path class="cls-6" d="m33.14,23.94l-2.14-2.14c-.21-.21-.21-.56,0-.78h0c.21-.21.56-.21.78,0l2.14,2.14c.21.21.21.56,0,.78h0c-.21.21-.56.21-.78,0Z"/>
          <path class="cls-6" d="m34.45,22l-1.23-1.23c-.21-.21-.21-.56,0-.78h0c.21-.21.56-.21.78,0l1.23,1.23c.21.21.21.56,0,.78h0c-.21.21-.56.21-.78,0Z"/>
          <path class="cls-1" d="m41.28,29.48h-9.76c-.48,0-.88-.39-.88-.88h0c0-.48.39-.88.88-.88h9.76c.48,0,.88.39.88.88h0c0,.48-.39.88-.88.88Z"/>
          <path class="cls-7" d="m33.31,31.56h0c-.41,0-.75-.34-.75-.75v-1.95c0-.41.34-.75.75-.75h0c.41,0,.75.34.75.75v1.95c0,.41-.34.75-.75.75Z"/>
          <path class="cls-7" d="m39.15,31.56h0c-.41,0-.75-.34-.75-.75v-1.95c0-.41.34-.75.75-.75h0c.41,0,.75.34.75.75v1.95c0,.41-.34.75-.75.75Z"/>
          <path class="cls-7" d="m33.32,33.94c0,.62-.5,1.12-1.12,1.12s-1.12-.5-1.12-1.12.5-1.12,1.12-1.12,1.12.5,1.12,1.12Z"/>
          <path class="cls-7" d="m40.86,33.54c0,.4-.32.72-.72.72s-.72-.32-.72-.72.32-.72.72-.72.72.32.72.72Z"/>
          <path class="cls-2" d="m32.01,21.37c0,.36-.29.66-.66.66s-.66-.29-.66-.66.29-.66.66-.66.66.29.66.66Z"/>
          <circle class="cls-2" cx="33.64" cy="20.38" r=".65"/>
          <path class="cls-1" d="m39.61,33.72c0-1.47-1.46-2.67-3.27-2.67s-3.27,1.19-3.27,2.67,1.46,2.67,3.27,2.67,3.27-1.19,3.27-2.67Z"/>
          <path class="cls-2" d="m39.19,20.68c0,.36-.29.66-.66.66s-.66-.29-.66-.66.29-.66.66-.66.66.29.66.66Z"/>
          <path class="cls-2" d="m42.06,20.38c0,.36-.29.65-.65.65s-.65-.29-.65-.65.29-.65.65-.65.65.29.65.65Z"/>
          <path class="cls-1" d="m42.01,32.06h-12.56c-.36,0-.65-.29-.65-.65h0c0-.36.29-.65.65-.65h12.56c.36,0,.65.29.65.65h0c0,.36-.29.65-.65.65Z"/>
          <path class="cls-6" d="m39.3,32.06h-2.25c-.36,0-.65-.29-.65-.65h0c0-.36.29-.65.65-.65h2.25c.36,0,.65.29.65.65h0c0,.36-.29.65-.65.65Z"/>
          <path class="cls-6" d="m32.99,32.06h-.53c-.36,0-.65-.29-.65-.65h0c0-.36.29-.65.65-.65h.53c.36,0,.65.29.65.65h0c0,.36-.29.65-.65.65Z"/>
          <path class="cls-2" d="m39.95,31.4c0,.36-.29.65-.65.65s-.65-.29-.65-.65.29-.65.65-.65.65.29.65.65Z"/>
          <path class="cls-2" d="m33.82,31.4c0,.36-.29.65-.65.65s-.65-.29-.65-.65.29-.65.65-.65.65.29.65.65Z"/>
          <path class="cls-6" d="m37.87,34.62c0-.71-.73-1.28-1.64-1.28s-1.64.57-1.64,1.28.73,1.28,1.64,1.28,1.64-.57,1.64-1.28Z"/>
          <circle class="cls-6" cx="37.67" cy="33.33" r=".5"/>
        </g>
      </g>
      <g>
        <path class="cls-12" d="m32.26,2.36s-1.4-1.35-3.82.6c-.21.17-.17.51.09.6.65.22,1.7.87,2.68,2.71l1.05-3.91Z"/>
        <path class="cls-12" d="m30.74,4.28s-1.34-1.41-3.84.43c-.22.16-.19.5.06.6.64.25,1.66.94,2.55,2.83l1.22-3.86Z"/>
        <path class="cls-12" d="m38.53,4.45s1.71-.92.6-3.82c-.1-.25-.44-.31-.6-.1-.41.55-1.35,1.35-3.41,1.71l3.4,2.2Z"/>
        <g>
          <path class="cls-12" d="m31.36,2.23s7.56-.11,10.19-1.32c.36-.16.76.06.78.46.06,1.2-.01,3.23-1.09,4.11l-9.89-3.25Z"/>
          <path class="cls-9" d="m40.33,5.72c-.85,0-1.54.69-1.54,1.54s.69,1.54,1.54,1.54,1.54-.69,1.54-1.54-.69-1.54-1.54-1.54Z"/>
          <path class="cls-5" d="m35.28,14.61h0c-3.06,0-5.56-2.5-5.56-5.56v-2.97c0-1.87,1.53-3.39,3.39-3.39h4.54c1.87,0,3.39,1.53,3.39,3.39v2.75c0,3.18-2.6,5.77-5.77,5.77Z"/>
          <path class="cls-12" d="m29.51,9.72h0c-.83,0-1.51-.68-1.51-1.51v-2.48c0-.83.68-1.51,1.51-1.51h0c.83,0,1.51.68,1.51,1.51v2.48c0,.83-.68,1.51-1.51,1.51Z"/>
          <path class="cls-12" d="m40,5.96h-8.65c-1.03,0-1.87-.84-1.87-1.87h0c0-1.03.84-1.87,1.87-1.87h8.65c1.03,0,1.87.84,1.87,1.87h0c0,1.03-.84,1.87-1.87,1.87Z"/>
          <g>
            <path class="cls-5" d="m31.83,7.26c0,.85-.55,1.54-1.4,1.54s-1.68-.69-1.68-1.54.69-1.54,1.54-1.54,1.54.69,1.54,1.54Z"/>
            <path class="cls-9" d="m31.08,7.26c0,.44-.36.8-.8.8s-.8-.36-.8-.8.36-.8.8-.8.8.36.8.8Z"/>
          </g>
          <path class="cls-9" d="m37.09,11.11h0c-.62,0-1.12-.51-1.12-1.12v-1.11c0-.62.51-1.12,1.12-1.12h0c.62,0,1.12.51,1.12,1.12v1.11c0,.62-.51,1.12-1.12,1.12Z"/>
          <path class="cls-14" d="m40.11,4.22h-3.73c-.35,0-.63-.28-.63-.63h0c0-.35.28-.63.63-.63h3.73c.34,0,.63.28.63.63h0c0,.34-.28.63-.63.63Z"/>
          <path class="cls-2" d="m39.74,3.6c0-.35-.28-.63-.63-.63s-.63.28-.63.63.28.63.63.63.63-.28.63-.63Z"/>
          <path class="cls-14" d="m33.69,4.22h-1.16c-.35,0-.63-.28-.63-.63h0c0-.35.28-.63.63-.63h1.16c.34,0,.63.28.63.63h0c0,.34-.28.63-.63.63Z"/>
          <path class="cls-1" d="m40.13,9.72h-7.17c-1.09,0-1.97-.89-1.97-1.97h0c0-1.09.89-1.97,1.97-1.97h7.17c1.09,0,1.97.89,1.97,1.97h0c0,1.09-.89,1.97-1.97,1.97Z"/>
          <path class="cls-6" d="m33.96,9.02c-.7,0-1.27-.57-1.27-1.27s.57-1.27,1.27-1.27h6.17c.7,0,1.27.57,1.27,1.27s-.57,1.27-1.27,1.27h-6.17Z"/>
          <path class="cls-12" d="m36.12,8.38h-2.36c-.35,0-.64-.29-.64-.64h0c0-.35.29-.64.64-.64h2.36c.35,0,.64.29.64.64h0c0,.35-.29.64-.64.64Z"/>
          <path class="cls-12" d="m40.86,8.38h-2.36c-.35,0-.64-.29-.64-.64h0c0-.35.29-.64.64-.64h2.36c.35,0,.64.29.64.64h0c0,.35-.29.64-.64.64Z"/>
          <path class="cls-2" d="m35.94,7.74c0,.35-.29.64-.64.64s-.64-.29-.64-.64.29-.64.64-.64.64.29.64.64Z"/>
          <path class="cls-2" d="m40.76,7.74c0,.35-.29.64-.64.64s-.64-.29-.64-.64.29-.64.64-.64.64.29.64.64Z"/>
        </g>
        <path class="cls-12" d="m35.24,17.95c3.66,0,6.7-2.71,7.2-6.24.08-.55-.36-1.04-.91-1.04h-12.58c-.55,0-.99.49-.91,1.04.5,3.53,3.53,6.24,7.2,6.24Z"/>
        <path class="cls-2" d="m36.35,16.03c2.18,0,3.99-1.62,4.29-3.72.05-.33-.21-.62-.54-.62h-7.5c-.33,0-.59.29-.54.62.3,2.1,2.11,3.72,4.29,3.72Z"/>
        <path class="cls-7" d="m36.35,16.6c2.18,0,3.99-1.62,4.29-3.72.05-.33-.21-.62-.54-.62h-7.5c-.33,0-.59.29-.54.62.3,2.1,2.11,3.72,4.29,3.72Z"/>
        <circle class="cls-12" cx="34.48" cy="13.41" r=".45"/>
        <path class="cls-12" d="m36.29,13.41c0,.25-.2.45-.45.45s-.45-.2-.45-.45.2-.45.45-.45.45.2.45.45Z"/>
        <circle class="cls-12" cx="37.19" cy="13.41" r=".45"/>
        <path class="cls-12" d="m39,13.41c0,.25-.2.45-.45.45s-.45-.2-.45-.45.2-.45.45-.45.45.2.45.45Z"/>
        <path class="cls-12" d="m36.29,14.78c0,.25-.2.45-.45.45s-.45-.2-.45-.45.2-.45.45-.45.45.2.45.45Z"/>
        <circle class="cls-12" cx="37.19" cy="14.78" r=".45"/>
        <path class="cls-7" d="m30.61,12.49h-1.1c-.22,0-.4-.18-.4-.4h0c0-.22.18-.4.4-.4h1.1c.22,0,.4.18.4.4h0c0,.22-.18.4-.4.4Z"/>
        <path class="cls-7" d="m30.9,14.31h-.39c-.25,0-.45-.2-.45-.45h0c0-.25.2-.45.45-.45h.39c.25,0,.45.2.45.45h0c0,.25-.2.45-.45.45Z"/>
      </g>
      <g>
        <path class="cls-12" d="m44.73,11.28h0c-.54,0-.98.44-.98.98v3.28c0,.54.44.98.98.98h0c.54,0,.98-.44.98-.98v-3.28c0-.54-.44-.98-.98-.98Z"/>
        <path class="cls-12" d="m47.41,14.16h0c0-.54-.44-.98-.98-.98h-3.28c-.54,0-.98.44-.98.98h0c0,.54.44.98.98.98h3.28c.54,0,.98-.44.98-.98Z"/>
        <path class="cls-3" d="m57.6,11.45h-5.15c-.89,0-1.62.73-1.62,1.62h0c0,.89.73,1.62,1.62,1.62h5.15c.89,0,1.62-.73,1.62-1.62h0c0-.89-.73-1.62-1.62-1.62Z"/>
        <path class="cls-2" d="m54.66,11.45h-.55c-.29,0-.53.24-.53.53h0c0,.29.24.53.53.53h.55c.29,0,.53-.24.53-.53h0c0-.29-.24-.53-.53-.53Z"/>
        <path class="cls-2" d="m56.03,11.45h0c-.29,0-.53.24-.53.53h0c0,.29.24.53.53.53h0c.29,0,.53-.24.53-.53h0c0-.29-.24-.53-.53-.53Z"/>
        <path class="cls-12" d="m59.67,12.49h-9.07c-.77,0-1.4.63-1.4,1.4h0c0,.77.63,1.4,1.4,1.4h9.07c.77,0,1.4-.63,1.4-1.4h0c0-.77-.63-1.4-1.4-1.4Z"/>
        <path class="cls-12" d="m51.93,13.55h0c-.58,0-1.05-.47-1.05-1.05h0c0-.58.47-1.05,1.05-1.05h0c.58,0,1.05.47,1.05,1.05h0c0,.58-.47,1.05-1.05,1.05Z"/>
        <path class="cls-12" d="m58.55,13.55h0c-.58,0-1.05-.47-1.05-1.05h0c0-.58.47-1.05,1.05-1.05h0c.58,0,1.05.47,1.05,1.05h0c0,.58-.47,1.05-1.05,1.05Z"/>
        <path class="cls-12" d="m49.37,24.73h-13.83c-1.33,0-2.43-1.09-2.43-2.43v-2.86c0-2.9,2.38-5.28,5.28-5.28h10.97c2.9,0,5.28,2.38,5.28,5.28h0c0,2.91-2.38,5.28-5.28,5.28Z"/>
        <path class="cls-12" d="m61.68,14.86h0c-.93,0-1.69.76-1.69,1.69v4.15c0,.93.76,1.69,1.69,1.69h0c.93,0,1.69-.76,1.69-1.69v-4.15c0-.93-.76-1.69-1.69-1.69Z"/>
        <path class="cls-2" d="m61.07,22.17h-19.78v-5.04c0-1.82,1.47-3.29,3.29-3.29h15.67c.46,0,.83.37.83.83v7.5Z"/>
        <path class="cls-12" d="m61.33,23.24h-19.33v-5.04c0-1.82,1.47-3.29,3.29-3.29h14c1.13,0,2.05.92,2.05,2.05v6.28Z"/>
        <path class="cls-6" d="m61.31,22.97h-14.52v-5.04c0-1.82,1.47-3.29,3.29-3.29h10.4c.46,0,.83.37.83.83v7.5Z"/>
        <path class="cls-12" d="m58.99,21.19h-6.74c-1.28,0-2.32,1.05-2.32,2.32h0c0,1.28,1.05,2.32,2.32,2.32h6.74c1.28,0,2.32-1.05,2.32-2.32h0c0-1.28-1.04-2.32-2.32-2.32Z"/>
        <path class="cls-12" d="m46.26,16.34h0c-1.82-.56-3.77.48-4.32,2.3l-.9,2.94c-.56,1.82.48,3.77,2.3,4.32h0c1.82.56,3.77-.48,4.32-2.3l.9-2.94c.56-1.82-.48-3.77-2.3-4.32Z"/>
        <path class="cls-12" d="m51.43,23.63h-5.87c-2.17,0-3.95-1.78-3.95-3.95h0c0-2.17,1.78-3.95,3.95-3.95h5.87c2.17,0,3.95,1.78,3.95,3.95h0c0,2.17-1.78,3.95-3.95,3.95Z"/>
        <path class="cls-7" d="m51.48,22.32h-2.28c-.66,0-1.2-.54-1.2-1.2h0c0-.66.54-1.2,1.2-1.2h2.28c.66,0,1.2.54,1.2,1.2h0c0,.66-.54,1.2-1.2,1.2Z"/>
        <path class="cls-12" d="m44.93,16.34h0c-1.82-.56-3.77.48-4.32,2.3l-.9,2.94c-.56,1.82.48,3.77,2.3,4.32h0c1.82.56,3.77-.48,4.32-2.3l.9-2.94c.56-1.82-.48-3.77-2.3-4.32Z"/>
        <path class="cls-7" d="m44.47,17.43h0c-1.23-.38-2.58.46-3.01,1.85l-.69,2.25c-.43,1.39.23,2.84,1.46,3.22h0c1.23.38,2.58-.46,3.01-1.85l.69-2.25c.43-1.39-.23-2.84-1.46-3.22Z"/>
        <path class="cls-2" d="m40.77,22.25l.69-2.25c.43-1.39,1.78-2.23,3.01-1.85.87.27,1.45,1.08,1.56,2.02.16-1.23-.47-2.41-1.56-2.74-1.23-.38-2.58.46-3.01,1.85l-.69,2.25c-.12.4-.15.81-.1,1.2.02-.16.05-.32.1-.48Z"/>
        <circle class="cls-12" cx="43.86" cy="19.68" r=".87"/>
        <path class="cls-12" d="m43.59,22.76c0-.41-.33-.74-.74-.74s-.74.33-.74.74.33.74.74.74.74-.33.74-.74Z"/>
        <path class="cls-2" d="m49.16,20.2h0c-.51,0-.92.41-.92.92h0c0,.51.41.92.92.92h0c.51,0,.92-.41.92-.92h0c0-.51-.41-.92-.92-.92Z"/>
        <g>
          <path class="cls-6" d="m58.46,22.26h-4.59c-1.73,0-3.15,1.42-3.15,3.15h0c0,1.73,1.42,3.15,3.15,3.15h3.45c1.73,0,3.15-1.42,3.15-3.15v-1.14c0-1.11-.91-2.02-2.02-2.02Z"/>
          <path class="cls-1" d="m56.87,23.52h-2.54c-1.04,0-1.89.85-1.89,1.89h0c0,1.04.85,1.89,1.89,1.89h2.54c1.04,0,1.89-.85,1.89-1.89h0c0-1.04-.85-1.89-1.89-1.89Z"/>
          <circle class="cls-2" cx="57.15" cy="24.01" r="1.25"/>
          <circle class="cls-2" cx="53.56" cy="26.13" r=".86"/>
        </g>
        <path class="cls-7" d="m51.38,17.51h-4.08c-.27,0-.5.22-.5.5h0c0,.27.22.5.5.5h4.08c.27,0,.5-.22.5-.5h0c0-.27-.22-.5-.5-.5Z"/>
        <path class="cls-7" d="m35.72,17.89h0c-.84,0-1.53.69-1.53,1.53v2.25c0,.84.69,1.53,1.53,1.53h0c.84,0,1.53-.69,1.53-1.53v-2.25c0-.84-.69-1.53-1.53-1.53Z"/>
        <path class="cls-7" d="m38.53,15.32h0c-.71,0-1.28.58-1.28,1.28h0c0,.71.58,1.28,1.28,1.28h0c.71,0,1.28-.58,1.28-1.28h0c0-.71-.58-1.28-1.28-1.28Z"/>
        <path class="cls-12" d="m63.37,16.19h0c-.51,0-.93.42-.93.93v1.54c0,.51.42.93.93.93h0c.51,0,.93-.42.93-.93v-1.54c0-.51-.42-.93-.93-.93Z"/>
        <path class="cls-7" d="m62.41,19.08h0c-.31,0-.56-.25-.56-.56v-1.77c0-.31.25-.56.56-.56h0c.31,0,.56.25.56.56v1.77c0,.31-.25.56-.56.56Z"/>
        <path class="cls-7" d="m62.41,20.67h0c-.25,0-.46.21-.46.46h0c0,.25.21.46.46.46h0c.25,0,.46-.21.46-.46h0c0-.25-.21-.46-.46-.46Z"/>
        <path class="cls-2" d="m62.96,16.98h0c-.38,0-.69.31-.69.69h0c0,.38.31.69.69.69h0c.38,0,.69-.31.69-.69h0c0-.38-.31-.69-.69-.69Z"/>
        <g>
          <path class="cls-12" d="m52.74,18.09h0c0-1.04.86-1.89,1.9-1.88h3.16c1.04.02,1.89.87,1.88,1.91h0c0,1.04-.86,1.89-1.9,1.88h-3.16c-1.04-.02-1.89-.87-1.88-1.91Z"/>
          <path class="cls-3" d="m55.19,18.1h0c0-.71.58-1.29,1.29-1.28h1.04c.71,0,1.29.59,1.28,1.3h0c0,.71-.58,1.29-1.29,1.28h-1.04c-.71,0-1.29-.59-1.28-1.3Z"/>
          <path class="cls-2" d="m57.85,18.94c.46-.17.7-.67.53-1.13-.17-.46-.67-.7-1.13-.53-.46.17-.7.67-.53,1.13.17.46.67.7,1.13.53Z"/>
          <path class="cls-7" d="m54.25,18.46c.24-.09.37-.36.28-.6-.09-.24-.36-.37-.6-.28-.24.09-.37.36-.28.6.09.24.36.37.6.28Z"/>
        </g>
      </g>
      <g>
        <path class="cls-8" d="m39.66,22.81l-.62.59-.08.08-2.07,1.99c-.95.91-.98,2.44-.07,3.39h0c.91.95,2.44.98,3.39.07l2.07-1.99.08-.08.62-.59c.95-.91.98-2.44.07-3.39h0c-.91-.95-2.44-.98-3.39-.07Z"/>
        <path class="cls-1" d="m41.1,21.42l-1.25,1.2c-.95.91-.98,2.44-.07,3.39h0c.91.95,2.44.98,3.39.07l1.25-1.2c.95-.91.98-2.44.07-3.39h0c-.91-.95-2.44-.98-3.39-.07Z"/>
      </g>
      <g>
        <path class="cls-6" d="m49.6,22.86h-3.73c-.97,0-1.76-.79-1.76-1.76h0c0-.97.79-1.76,1.76-1.76h3.73c.97,0,1.76.79,1.76,1.76h0c0,.97-.79,1.76-1.76,1.76Z"/>
        <path class="cls-6" d="m44.97,19.33h-.33c-2.25,0-4.09,1.84-4.09,4.09h0c0,2.25,1.84,4.09,4.09,4.09h.33c2.25,0,4.09-1.84,4.09-4.09h0c0-2.25-1.84-4.09-4.09-4.09Z"/>
        <path class="cls-1" d="m45.49,26.67h0c-1.4,0-2.54-1.14-2.54-2.54v-1.42c0-1.4,1.14-2.54,2.54-2.54h0c1.4,0,2.54,1.14,2.54,2.54v1.42c0,1.4-1.14,2.54-2.54,2.54Z"/>
        <path class="cls-1" d="m48.14,22.02h-2.41c-.51,0-.92-.42-.92-.92h0c0-.51.42-.92.92-.92h2.41c.51,0,.92.42.92.92h0c0,.51-.42.92-.92.92Z"/>
        <path class="cls-2" d="m45.49,23.42h0c-.77,0-1.4-.63-1.4-1.4h0c0-.77.63-1.4,1.4-1.4h0c.77,0,1.4.63,1.4,1.4h0c0,.77-.63,1.4-1.4,1.4Z"/>
        <path class="cls-2" d="m43.64,25.35h0c-.52,0-.94-.42-.94-.94h0c0-.52.42-.94.94-.94h0c.52,0,.94.42.94.94h0c0,.52-.42.94-.94.94Z"/>
      </g>
      <g>
        <path id="ArmOne-2" data-name="ArmOne" class="cls-8" d="m39.96,29.05h0c-1.02.84-2.54.68-3.37-.34l-7.11-8.68c-.84-1.02-.68-2.54.34-3.37h0c1.02-.84,2.54-.68,3.37.34l7.11,8.68c.84,1.02.68,2.54-.34,3.37Z"/>
        <path class="cls-12" d="m37.53,26.04h0c-.22.18-.55.15-.73-.07l-1.97-2.4c-.18-.22-.15-.55.07-.74h0c.22-.18.55-.15.73.07l1.97,2.4c.18.22.15.55-.07.74Z"/>
        <path class="cls-2" d="m37.18,18.38c-1.6-1.96-4.49-2.25-6.45-.64s-2.25,4.49-.64,6.45c1.6,1.96,3.89,1.52,5.85-.08,1.96-1.6,2.84-3.76,1.24-5.72Z"/>
        <path class="cls-1" d="m36.14,16.62c-1.71-2.09-4.79-2.4-6.88-.69-2.09,1.71-2.4,4.79-.69,6.88,1.71,2.09,4.15,1.62,6.24-.09,2.09-1.71,3.03-4.01,1.32-6.1Z"/>
        <path class="cls-6" d="m34.41,17.9c-1.34-1.64-3.58-2.02-5.01-.85s-1.5,3.44-.16,5.08c1.34,1.64,3.09,1.41,4.51.25,1.43-1.17,1.99-2.83.65-4.47Z"/>
        <path class="cls-3" d="m38.34,25.38c-.36-.45-1.02-.51-1.47-.15-.45.36-.51,1.02-.15,1.47.36.45,1.02.51,1.47.15.45-.36.51-1.02.15-1.47Z"/>
        <g>
          <path class="cls-1" d="m32.84,21.97h0c-.14-.01-.24-.14-.22-.27l.27-2.67c.01-.14.14-.24.27-.22h0c.14.01.24.14.22.27l-.27,2.67c-.01.14-.14.24-.27.22Z"/>
          <path class="cls-1" d="m31.24,20.96h0c-.14-.01-.24-.14-.22-.27l.27-2.67c.01-.14.14-.24.27-.22h0c.14.01.24.14.22.27l-.27,2.67c-.01.14-.14.24-.27.22Z"/>
          <path class="cls-1" d="m29.96,21.96h0c-.14-.01-.24-.14-.22-.27l.27-2.67c.01-.14.14-.24.27-.22h0c.14.01.24.14.22.27l-.27,2.67c-.01.14-.14.24-.27.22Z"/>
        </g>
        <path class="cls-2" d="m31.56,17.44c.65.8.54,1.98-.26,2.63-.8.65-1.98.54-2.63-.26-.65-.8-.54-1.98.26-2.63.8-.65,1.98-.54,2.63.26Z"/>
        <path class="cls-2" d="m33.51,18.16c-.22-.26-.18-.66.09-.87s.66-.18.87.09c.22.27.18.66-.09.87s-.66.18-.87-.09Z"/>
      </g>
      <g>
        <path class="cls-8" d="m27.38,46.64h0c1.96.65,4.1-.42,4.75-2.38l2.72-8.21c.65-1.96-.42-4.1-2.38-4.75h0c-1.96-.65-4.1.42-4.75,2.38l-2.72,8.21c-.65,1.96.42,4.1,2.38,4.75Z"/>
        <path class="cls-1" d="m25.48,46.01h0c1.96.65,4.1-.42,4.75-2.38l2.72-8.21c.65-1.96-.42-4.1-2.38-4.75h0c-1.96-.65-4.1.42-4.75,2.38l-2.72,8.21c-.65,1.96.42,4.1,2.38,4.75Z"/>
        <path class="cls-2" d="m25.28,45.08h0c1.48.49,3.1-.32,3.59-1.8l2.72-8.19c.49-1.48-.32-3.1-1.8-3.59h0c-1.48-.49-3.1.32-3.59,1.8l-2.72,8.19c-.49,1.48.32,3.1,1.8,3.59Z"/>
        <path class="cls-6" d="m24.45,44.81h0c1.48.49,3.1-.32,3.59-1.8l2.72-8.19c.49-1.48-.32-3.1-1.8-3.59h0c-1.48-.49-3.1.32-3.59,1.8l-2.72,8.19c-.49,1.48.32,3.1,1.8,3.59Z"/>
        <path class="cls-8" d="m30.17,35.62l2.17.72c.52.17,1.09-.11,1.26-.63h0c.17-.52-.11-1.09-.63-1.26l-2.17-.72c-.52-.17-1.09.11-1.26.63h0c-.17.52.11,1.09.63,1.26Z"/>
        <path class="cls-8" d="m27.61,43.34l2.17.72c.52.17,1.09-.11,1.26-.63h0c.17-.52-.11-1.09-.63-1.26l-2.17-.72c-.52-.17-1.09.11-1.26.63h0c-.17.52.11,1.09.63,1.26Z"/>
        <path class="cls-7" d="m30.02,44.13h0c.39.13.81-.08.94-.47l2.72-8.2c.13-.39-.08-.81-.47-.94h0c-.39-.13-.81.08-.94.47l-2.72,8.2c-.13.39.08.81.47.94Z"/>
        <path class="cls-10" d="m31.89,38.49h0c.39.13.81-.08.94-.47l.39-1.19c.13-.39-.08-.81-.47-.94h0c-.39-.13-.81.08-.94.47l-.39,1.19c-.13.39.08.81.47.94Z"/>
        <path class="cls-10" d="m30.72,42.01h0c.39.13.81-.08.94-.47l.11-.34c.13-.39-.08-.81-.47-.94h0c-.39-.13-.81.08-.94.47l-.11.34c-.13.39.08.81.47.94Z"/>
        <g>
          <path class="cls-1" d="m28.98,38.24h0c-.06-.12-.21-.17-.33-.11l-2.4,1.21c-.12.06-.17.21-.11.33h0c.06.12.21.17.33.11l2.4-1.21c.12-.06.17-.21.11-.33Z"/>
          <path class="cls-1" d="m27.47,37.1h0c-.06-.12-.21-.17-.33-.11l-2.4,1.21c-.12.06-.17.21-.11.33h0c.06.12.21.17.33.11l2.4-1.21c.12-.06.17-.21.11-.33Z"/>
          <path class="cls-1" d="m27.94,35.56h0c-.06-.12-.21-.17-.33-.11l-2.4,1.21c-.12.06-.17.21-.11.33h0c.06.12.21.17.33.11l2.4-1.21c.12-.06.17-.21.11-.33Z"/>
        </g>
        <path class="cls-2" d="m28.08,32.82c.11-.32-.07-.68-.39-.78-.32-.11-.68.07-.78.39-.11.33.07.68.39.78.32.11.68-.07.78-.39Z"/>
      </g>
    </g>
  </g>
</svg>