<?xml version="1.0" encoding="UTF-8"?>
<svg id="Layer_2" data-name="Layer 2" xmlns="http://www.w3.org/2000/svg" viewBox="0 0 44.93 56.21">
  <defs>
    <style>
      .cls-1 {
        fill: #a20025;
      }

      .cls-2 {
        fill: #fff;
      }

      .cls-3 {
        fill: #7cff00;
      }

      .cls-4 {
        fill: #ffd285;
      }

      .cls-5 {
        fill: #fd003a;
      }

      .cls-6 {
        fill: #4d4d4d;
      }

      .cls-7 {
        fill: #333;
      }

      .cls-8 {
        fill: #ff6e4c;
      }

      .cls-9 {
        fill: #999;
      }

      .cls-10 {
        fill: #434343;
      }

      .cls-11 {
        fill: #1a1a1a;
      }

      .cls-12 {
        fill: #74001b;
      }

      .cls-13 {
        fill: #666;
      }
    </style>
  </defs>
  <g id="Idle">
    <g id="idle6">
      <g>
        <g>
          <path class="cls-7" d="m25.24,31.56l1.94-1.21c.47-.29.61-.91.32-1.38h0c-.29-.47-.91-.61-1.38-.32l-1.94,1.21c-.47.29-.61.91-.32,1.38h0c.29.47.91.61,1.38.32Z"/>
          <path class="cls-7" d="m29.55,38.45l1.94-1.21c.47-.29.61-.91.32-1.38h0c-.29-.47-.91-.61-1.38-.32l-1.94,1.21c-.47.29-.61.91-.32,1.38h0c.29.47.91.61,1.38.32Z"/>
          <path class="cls-6" d="m31.7,37.1h0c.35-.22.45-.68.24-1.03l-4.58-7.32c-.22-.35-.68-.45-1.03-.24h0c-.35.22-.45.68-.24,1.03l4.58,7.32c.22.35.68.45,1.03.24Z"/>
          <path class="cls-9" d="m28.55,32.07h0c.35-.22.45-.68.24-1.03l-.66-1.06c-.22-.35-.68-.45-1.03-.24h0c-.35.22-.45.68-.24,1.03l.67,1.06c.22.35.68.45,1.03.24Z"/>
          <path class="cls-9" d="m30.52,35.21h0c.35-.22.45-.68.24-1.03l-.19-.31c-.22-.35-.68-.45-1.03-.24h0c-.35.22-.45.68-.24,1.03l.19.31c.22.35.68.45,1.03.24Z"/>
        </g>
        <path class="cls-5" d="m29.35,41.34h0c-1.32.83-3.08.42-3.91-.9l-4.58-7.31c-.83-1.32-.42-3.08.9-3.91h0c1.32-.83,3.08-.42,3.91.9l4.58,7.31c.83,1.32.42,3.08-.9,3.91Z"/>
        <path class="cls-1" d="m28.23,43.01h0c-1.75,1.1-4.08.56-5.18-1.19l-4.59-7.33c-1.1-1.75-.56-4.08,1.19-5.18h0c1.75-1.1,4.08-.56,5.18,1.19l4.59,7.33c1.1,1.75.56,4.08-1.19,5.18Z"/>
        <path class="cls-11" d="m26.94,43.82h0c-1.75,1.1-4.08.56-5.18-1.19l-4.59-7.33c-1.1-1.75-.56-4.08,1.19-5.18h0c1.75-1.1,4.08-.56,5.18,1.19l4.59,7.33c1.1,1.75.56,4.08-1.19,5.18Z"/>
        <path class="cls-6" d="m24.54,43.23h0c-.35.22-.81.11-1.03-.24l-3.36-5.37c-.22-.35-.11-.81.24-1.03h0c.35-.22.81-.11,1.03.24l3.36,5.37c.22.35.11.81-.24,1.03Z"/>
        <path class="cls-9" d="m21.84,38.92h0c-.35.22-.81.11-1.03-.24l-.67-1.06c-.22-.35-.11-.81.24-1.03h0c.35-.22.81-.11,1.03.24l.66,1.06c.22.35.11.81-.24,1.03Z"/>
        <path class="cls-9" d="m23.81,42.06h0c-.35.22-.81.11-1.03-.24l-.19-.31c-.22-.35-.11-.81.24-1.03h0c.35-.22.81-.11,1.03.24l.19.31c.22.35.11.81-.24,1.03Z"/>
        <path class="cls-6" d="m27.39,41.07h0c-.35.22-.81.11-1.03-.24l-3.21-5.13c-.22-.35-.11-.81.24-1.03h0c.35-.22.81-.11,1.03.24l3.21,5.13c.22.35.11.81-.24,1.03Z"/>
        <path class="cls-9" d="m25.61,38.22h0c-.35.22-.81.11-1.03-.24l-.66-1.06c-.22-.35-.11-.81.24-1.03h0c.35-.22.81-.11,1.03.24l.67,1.06c.22.35.11.81-.24,1.03Z"/>
        <path class="cls-9" d="m27.08,40.58h0c-.35.22-.81.11-1.03-.24l-.19-.31c-.22-.35-.11-.81.24-1.03h0c.35-.22.81-.11,1.03.24l.19.31c.22.35.11.81-.24,1.03Z"/>
        <path class="cls-2" d="m24.07,29.93c-.18-.29-.09-.67.2-.85s.67-.09.85.2c.18.29.09.67-.2.85s-.67.09-.85-.2Z"/>
        <path class="cls-6" d="m22.24,31.76c-.71-1.13-2.2-1.47-3.32-.76s-1.47,2.2-.76,3.32c.71,1.13,2.2,1.47,3.32.76,1.13-.71,1.47-2.2.76-3.32Z"/>
        <path class="cls-11" d="m21.29,32.35c-.38-.61-1.18-.79-1.79-.41-.61.38-.79,1.18-.41,1.79.38.61,1.18.79,1.79.41s.79-1.18.41-1.79Z"/>
        <path class="cls-2" d="m29.45,38.53c-.18-.29-.09-.67.2-.85.29-.18.67-.09.85.2.18.29.09.67-.2.85-.29.18-.67.09-.85-.2Z"/>
      </g>
      <g>
        <g id="ShinTwo">
          <path class="cls-11" d="m23.78,54.42h0c-1.26-.21-2.12-1.42-1.91-2.68l1.7-10.2c.21-1.26,1.42-2.12,2.68-1.91h0c1.26.21,2.12,1.42,1.91,2.68l-1.7,10.2c-.21,1.26-1.42,2.12-2.68,1.91Z"/>
        </g>
        <path class="cls-10" d="m26.98,42.12c.1-.62-.31-1.2-.93-1.3-.62-.1-1.2.31-1.3.93-.1.62.31,1.2.93,1.3.62.1,1.2-.31,1.3-.93Z"/>
      </g>
      <g>
        <g id="ShinTwo-2" data-name="ShinTwo">
          <path class="cls-7" d="m5.16,54.31h0c-1.22-.4-1.88-1.72-1.48-2.94l3.24-9.82c.4-1.22,1.72-1.88,2.94-1.48h0c1.22.4,1.88,1.72,1.48,2.94l-3.24,9.82c-.4,1.22-1.72,1.88-2.94,1.48Z"/>
        </g>
        <path class="cls-6" d="m5.28,52.28h0c-.28-.09-.43-.39-.34-.67l3.27-9.9c.09-.28.39-.43.67-.34h0c.28.09.43.39.34.67l-3.27,9.9c-.09.28-.39.43-.67.34Z"/>
        <path class="cls-2" d="m7.47,45.63h0c-.28-.09-.43-.39-.34-.67l.56-1.69c.09-.28.39-.43.67-.34h0c.28.09.43.39.34.67l-.56,1.69c-.09.28-.39.43-.67.34Z"/>
        <path class="cls-2" d="m5.94,50.18h0c-.29-.1-.45-.41-.35-.7l.29-.89c.1-.29.41-.45.7-.35h0c.29.1.45.41.35.7l-.29.89c-.1.29-.41.45-.7.35Z"/>
      </g>
      <g>
        <path class="cls-5" d="m28.99,55.15c0-2.9-2.35-5.06-5.25-5.06s-5.25,2.16-5.25,5.06h10.5Z"/>
        <path class="cls-1" d="m26.96,55.15c.12-.34.19-.71.19-1.09,0-1.88-1.53-3.41-3.41-3.41s-3.41,1.53-3.41,3.41c0,.38.08.75.19,1.09h6.44Z"/>
        <path class="cls-11" d="m19.56,54.06h8.37c.59,0,1.06.48,1.06,1.06v.03c0,.59-.48,1.06-1.06,1.06h-8.37c-.59,0-1.06-.48-1.06-1.06v-.03c0-.59.48-1.06,1.06-1.06Z"/>
        <path class="cls-2" d="m27.21,52.47c0,.68-.55,1.24-1.24,1.24s-1.24-.55-1.24-1.24.55-1.24,1.24-1.24,1.24.55,1.24,1.24Z"/>
        <circle class="cls-2" cx="23.97" cy="51.24" r=".64"/>
        <path class="cls-6" d="m20.33,54.73h0c-.38,0-.69-.31-.69-.69h0c0-.38.31-.69.69-.69h0c.38,0,.69.31.69.69h0c0,.38-.31.69-.69.69Z"/>
        <path class="cls-6" d="m27.38,54.73h0c-.38,0-.69-.31-.69-.69h0c0-.38.31-.69.69-.69h0c.38,0,.69.31.69.69h0c0,.38-.31.69-.69.69Z"/>
        <path class="cls-6" d="m25.03,54.73h0c-.38,0-.69-.31-.69-.69h0c0-.38.31-.69.69-.69h0c.38,0,.69.31.69.69h0c0,.38-.31.69-.69.69Z"/>
        <path class="cls-6" d="m22.68,54.73h0c-.38,0-.69-.31-.69-.69h0c0-.38.31-.69.69-.69h0c.38,0,.69.31.69.69h0c0,.38-.31.69-.69.69Z"/>
      </g>
      <g>
        <path class="cls-5" d="m11.43,55.15c0-2.9-2.35-5.06-5.25-5.06s-5.25,2.16-5.25,5.06h10.5Z"/>
        <path class="cls-1" d="m9.4,55.15c.12-.34.19-.71.19-1.09,0-1.88-1.53-3.41-3.41-3.41s-3.41,1.53-3.41,3.41c0,.38.08.75.19,1.09h6.44Z"/>
        <path class="cls-11" d="m2,54.06h8.37c.59,0,1.06.48,1.06,1.06v.03c0,.59-.48,1.06-1.06,1.06H2c-.59,0-1.06-.48-1.06-1.06v-.03c0-.59.48-1.06,1.06-1.06Z"/>
        <path class="cls-2" d="m9.65,52.47c0,.68-.55,1.24-1.24,1.24s-1.24-.55-1.24-1.24.55-1.24,1.24-1.24,1.24.55,1.24,1.24Z"/>
        <circle class="cls-2" cx="6.41" cy="51.24" r=".64"/>
        <path class="cls-6" d="m2.77,54.73h0c-.38,0-.69-.31-.69-.69h0c0-.38.31-.69.69-.69h0c.38,0,.69.31.69.69h0c0,.38-.31.69-.69.69Z"/>
        <path class="cls-6" d="m9.82,54.73h0c-.38,0-.69-.31-.69-.69h0c0-.38.31-.69.69-.69h0c.38,0,.69.31.69.69h0c0,.38-.31.69-.69.69Z"/>
        <path class="cls-6" d="m7.47,54.73h0c-.38,0-.69-.31-.69-.69h0c0-.38.31-.69.69-.69h0c.38,0,.69.31.69.69h0c0,.38-.31.69-.69.69Z"/>
        <path class="cls-6" d="m5.12,54.73h0c-.38,0-.69-.31-.69-.69h0c0-.38.31-.69.69-.69h0c.38,0,.69.31.69.69h0c0,.38-.31.69-.69.69Z"/>
      </g>
      <g>
        <g>
          <path class="cls-11" d="m31.93,17.88l-.85-.08h-.11s-5.13-.51-5.13-.51c-1.31-.13-2.49.84-2.62,2.16h0c-.13,1.31.84,2.49,2.16,2.62l5.13.5h.11s.85.09.85.09c1.31.13,2.49-.84,2.62-2.16h0c.13-1.31-.84-2.49-2.16-2.62Z"/>
          <path class="cls-12" d="m33.92,18.07l-1.72-.17c-1.31-.13-2.49.84-2.62,2.16h0c-.13,1.31.84,2.49,2.16,2.62l1.72.17c1.31.13,2.49-.84,2.62-2.16h0c.13-1.31-.84-2.49-2.16-2.62Z"/>
        </g>
        <g>
          <path id="ArmOne" class="cls-11" d="m26.67,20.1h0c-.35,1.27-1.68,2.02-2.95,1.67l-10.81-3.01c-1.27-.35-2.02-1.68-1.67-2.95h0c.35-1.27,1.68-2.02,2.95-1.67l10.81,3.01c1.27.35,2.02,1.68,1.67,2.95Z"/>
          <path class="cls-6" d="m23.6,19.21h0c-.08.28-.37.44-.64.36l-2.99-.83c-.28-.08-.44-.37-.36-.64h0c.08-.28.37-.44.64-.36l2.99.83c.28.08.44.37.36.64Z"/>
          <path class="cls-2" d="m18.26,12.97c-2.44-.68-4.96.74-5.64,3.18-.68,2.44.74,4.96,3.18,5.64s4.06-1,4.74-3.43.16-4.71-2.28-5.39Z"/>
          <path class="cls-1" d="m16.4,12.13c-2.6-.73-5.29.79-6.02,3.39-.73,2.6.79,5.29,3.39,6.02s4.33-1.06,5.06-3.66c.73-2.6.17-5.03-2.43-5.75Z"/>
          <path class="cls-5" d="m15.56,13.28c-1.61-.45-3.28.49-3.73,2.1-.45,1.61.49,3.28,2.1,3.73,1.61.45,3.28-.49,3.73-2.1.45-1.61-.49-3.28-2.1-3.73Z"/>
          <path class="cls-11" d="m15.42,13.79c-1.61-.45-3.28.49-3.73,2.1-.45,1.61.49,3.28,2.1,3.73,1.61.45,3.28-.49,3.73-2.1.45-1.61-.49-3.28-2.1-3.73Z"/>
          <path class="cls-6" d="m15.12,14.85c-1.02-.28-2.08.31-2.37,1.33-.28,1.02.31,2.08,1.33,2.37,1.02.28,2.08-.31,2.37-1.33.28-1.02-.31-2.08-1.33-2.37Z"/>
          <path class="cls-11" d="m14.83,15.9c-.44-.12-.9.14-1.03.58-.12.44.14.9.58,1.03.44.12.9-.14,1.03-.58.12-.44-.14-.9-.58-1.03Z"/>
        </g>
      </g>
      <g>
        <path class="cls-11" d="m7.11,20.29c-.17,0-.33-.08-.42-.24-.12-.2-3.04-4.95-.99-7.76,1.55-2.13,5.47-2.43,11.64-.89.27.07.43.34.36.61-.07.27-.34.43-.61.36-5.66-1.41-9.32-1.23-10.59.51-1.65,2.26,1.01,6.6,1.03,6.64.15.23.07.54-.16.69-.08.05-.17.08-.26.08Z"/>
        <g>
          <g>
            <path class="cls-11" d="m3.28,29.63H1c-.55,0-1,.45-1,1h0c0,.55.45,1,1,1h2.28c.55,0,1-.45,1-1h0c0-.55-.45-1-1-1Z"/>
            <path class="cls-11" d="m3.28,21.51H1c-.55,0-1,.45-1,1h0c0,.55.45,1,1,1h2.28c.55,0,1-.45,1-1h0c0-.55-.45-1-1-1Z"/>
            <path class="cls-6" d="m.75,21.51h0c-.41,0-.75.34-.75.75v8.63c0,.41.34.75.75.75h0c.41,0,.75-.34.75-.75v-8.63c0-.41-.34-.75-.75-.75Z"/>
            <path class="cls-9" d="m.75,27.45h0c-.41,0-.75.34-.75.75v1.25c0,.41.34.75.75.75h0c.41,0,.75-.34.75-.75v-1.25c0-.41-.34-.75-.75-.75Z"/>
            <path class="cls-9" d="m.75,23.74h0c-.41,0-.75.34-.75.75v.36c0,.41.34.75.75.75h0c.41,0,.75-.34.75-.75v-.36c0-.41-.34-.75-.75-.75Z"/>
          </g>
          <path class="cls-11" d="m10.09,34.55h0c.93,0,1.7-.76,1.7-1.7v-10.71c0-2.07-1.69-3.76-3.76-3.76h0c-2.07,0-3.76,1.69-3.76,3.76v6.59c0,3.2,2.62,5.82,5.82,5.82Z"/>
          <path class="cls-2" d="m7.13,33.72h0c.79,0,1.43-.64,1.43-1.43v-10.04c0-1.56-1.28-2.84-2.84-2.84h0c-1.56,0-2.84,1.28-2.84,2.84v7.22c0,2.34,1.91,4.25,4.25,4.25Z"/>
          <path class="cls-13" d="m8.08,33.72h0c.79,0,1.43-.64,1.43-1.43v-10.04c0-1.56-1.28-2.84-2.84-2.84h0c-1.56,0-2.84,1.28-2.84,2.84v7.22c0,2.34,1.91,4.25,4.25,4.25Z"/>
          <path class="cls-2" d="m6.35,21.21c0-.34-.28-.62-.62-.62s-.62.28-.62.62.28.62.62.62.62-.28.62-.62Z"/>
          <path class="cls-2" d="m7.11,30.55c0-.83-.67-1.51-1.51-1.51s-1.51.67-1.51,1.51.67,1.51,1.51,1.51,1.51-.67,1.51-1.51Z"/>
          <path class="cls-11" d="m6.71,30.55c0-.83-.67-1.51-1.51-1.51s-1.51.67-1.51,1.51.67,1.51,1.51,1.51,1.51-.67,1.51-1.51Z"/>
          <path class="cls-3" d="m6.05,30.55c0-.59-.48-1.07-1.07-1.07s-1.07.48-1.07,1.07.48,1.07,1.07,1.07,1.07-.48,1.07-1.07Z"/>
          <path class="cls-11" d="m11.98,24.37h-5.5c-.52,0-.95-.43-.95-.95h0c0-.52.43-.95.95-.95h5.5c.52,0,.95.43.95.95h0c0,.52-.43.95-.95.95Z"/>
          <path class="cls-11" d="m11.98,28.28h-5.5c-.52,0-.95-.43-.95-.95h0c0-.52.43-.95.95-.95h5.5c.52,0,.95.43.95.95h0c0,.52-.43.95-.95.95Z"/>
          <path class="cls-6" d="m7.14,27.33c0-.31-.25-.56-.56-.56s-.56.25-.56.56.25.56.56.56.56-.25.56-.56Z"/>
          <path class="cls-6" d="m7.14,23.42c0-.31-.25-.56-.56-.56s-.56.25-.56.56.25.56.56.56.56-.25.56-.56Z"/>
          <path class="cls-9" d="m6.09,23.42c0-.31-.25-.56-.56-.56s-.56.25-.56.56.25.56.56.56.56-.25.56-.56Z"/>
          <path class="cls-9" d="m6.09,27.33c0-.31-.25-.56-.56-.56s-.56.25-.56.56.25.56.56.56.56-.25.56-.56Z"/>
        </g>
        <g>
          <path class="cls-11" d="m16.04,36.72h0c-4.6,0-8.36-3.76-8.36-8.36v-6.64c0-2.6,2.13-4.73,4.73-4.73h7.25c2.6,0,4.73,2.13,4.73,4.73v6.64c0,4.6-3.76,8.36-8.36,8.36Z"/>
          <path class="cls-6" d="m14.28,28.62h0c-.71,0-1.29-.58-1.29-1.29v-4.04c0-.71.58-1.29,1.29-1.29h0c.71,0,1.29.58,1.29,1.29v4.04c0,.71-.58,1.29-1.29,1.29Z"/>
          <path class="cls-6" d="m20.64,28.62h0c-.71,0-1.29-.58-1.29-1.29v-4.04c0-.71.58-1.29,1.29-1.29h0c.71,0,1.29.58,1.29,1.29v4.04c0,.71-.58,1.29-1.29,1.29Z"/>
          <path class="cls-1" d="m14.98,24.48h-3c-1.07,0-1.94-.87-1.94-1.94h0c0-2.22,1.81-4.03,4.03-4.03h.91c1.07,0,1.94.87,1.94,1.94v2.09c0,1.07-.87,1.94-1.94,1.94Z"/>
          <path class="cls-1" d="m22.98,24.48h-3c-1.07,0-1.94-.87-1.94-1.94v-2.09c0-1.07.87-1.94,1.94-1.94h1.57c1.85,0,3.36,1.51,3.36,3.36v.66c0,1.07-.87,1.94-1.94,1.94Z"/>
          <path class="cls-5" d="m21.64,23.54l-2.78-2.78c-.21-.21-.21-.56,0-.78h0c.21-.21.56-.21.78,0l2.78,2.78c.21.21.21.56,0,.78h0c-.21.21-.56.21-.78,0Z"/>
          <path class="cls-5" d="m22.94,21.6l-1.23-1.23c-.21-.21-.21-.56,0-.78h0c.21-.21.56-.21.78,0l1.23,1.23c.21.21.21.56,0,.78h0c-.21.21-.56.21-.78,0Z"/>
          <path class="cls-5" d="m13.83,23.54l-2.14-2.14c-.21-.21-.21-.56,0-.78h0c.21-.21.56-.21.78,0l2.14,2.14c.21.21.21.56,0,.78h0c-.21.21-.56.21-.78,0Z"/>
          <path class="cls-5" d="m15.13,21.6l-1.23-1.23c-.21-.21-.21-.56,0-.78h0c.21-.21.56-.21.78,0l1.23,1.23c.21.21.21.56,0,.78h0c-.21.21-.56.21-.78,0Z"/>
          <path class="cls-1" d="m21.96,29.08h-9.76c-.48,0-.88-.39-.88-.88h0c0-.48.39-.88.88-.88h9.76c.48,0,.88.39.88.88h0c0,.48-.39.88-.88.88Z"/>
          <path class="cls-6" d="m14,31.16h0c-.41,0-.75-.34-.75-.75v-1.95c0-.41.34-.75.75-.75h0c.41,0,.75.34.75.75v1.95c0,.41-.34.75-.75.75Z"/>
          <path class="cls-6" d="m19.84,31.16h0c-.41,0-.75-.34-.75-.75v-1.95c0-.41.34-.75.75-.75h0c.41,0,.75.34.75.75v1.95c0,.41-.34.75-.75.75Z"/>
          <path class="cls-6" d="m14.01,33.54c0,.62-.5,1.12-1.12,1.12s-1.12-.5-1.12-1.12.5-1.12,1.12-1.12,1.12.5,1.12,1.12Z"/>
          <path class="cls-6" d="m21.55,33.14c0,.4-.32.72-.72.72s-.72-.32-.72-.72.32-.72.72-.72.72.32.72.72Z"/>
          <circle class="cls-2" cx="12.04" cy="20.97" r=".66"/>
          <path class="cls-2" d="m14.98,19.98c0,.36-.29.65-.65.65s-.65-.29-.65-.65.29-.65.65-.65.65.29.65.65Z"/>
          <path class="cls-1" d="m20.3,33.31c0-1.47-1.46-2.67-3.27-2.67s-3.27,1.19-3.27,2.67,1.46,2.67,3.27,2.67,3.27-1.19,3.27-2.67Z"/>
          <path class="cls-2" d="m19.87,20.27c0,.36-.29.66-.66.66s-.66-.29-.66-.66.29-.66.66-.66.66.29.66.66Z"/>
          <path class="cls-2" d="m22.75,19.98c0,.36-.29.65-.65.65s-.65-.29-.65-.65.29-.65.65-.65.65.29.65.65Z"/>
          <path class="cls-1" d="m22.7,31.66h-12.56c-.36,0-.65-.29-.65-.65h0c0-.36.29-.65.65-.65h12.56c.36,0,.65.29.65.65h0c0,.36-.29.65-.65.65Z"/>
          <path class="cls-5" d="m19.99,31.66h-2.25c-.36,0-.65-.29-.65-.65h0c0-.36.29-.65.65-.65h2.25c.36,0,.65.29.65.65h0c0,.36-.29.65-.65.65Z"/>
          <path class="cls-5" d="m13.68,31.66h-.53c-.36,0-.65-.29-.65-.65h0c0-.36.29-.65.65-.65h.53c.36,0,.65.29.65.65h0c0,.36-.29.65-.65.65Z"/>
          <path class="cls-2" d="m20.64,31c0,.36-.29.65-.65.65s-.65-.29-.65-.65.29-.65.65-.65.65.29.65.65Z"/>
          <path class="cls-2" d="m14.51,31c0,.36-.29.65-.65.65s-.65-.29-.65-.65.29-.65.65-.65.65.29.65.65Z"/>
          <path class="cls-5" d="m18.56,34.22c0-.71-.73-1.28-1.64-1.28s-1.64.57-1.64,1.28.73,1.28,1.64,1.28,1.64-.57,1.64-1.28Z"/>
          <circle class="cls-5" cx="18.36" cy="32.92" r=".5"/>
        </g>
      </g>
      <g>
        <path class="cls-11" d="m12.95,1.96s-1.4-1.35-3.82.6c-.21.17-.17.51.09.6.65.22,1.7.87,2.68,2.72l1.05-3.91Z"/>
        <path class="cls-11" d="m11.43,3.88s-1.34-1.41-3.84.43c-.22.16-.19.5.06.6.64.25,1.66.94,2.55,2.83l1.22-3.86Z"/>
        <path class="cls-11" d="m19.21,4.05s1.71-.92.6-3.82c-.1-.25-.44-.31-.6-.1-.41.55-1.35,1.35-3.41,1.71l3.4,2.2Z"/>
        <g>
          <path class="cls-11" d="m12.04,1.82s7.56-.11,10.19-1.32c.36-.16.76.06.78.46.06,1.2-.01,3.23-1.09,4.11L12.04,1.82Z"/>
          <path class="cls-8" d="m21.01,5.32c-.85,0-1.54.69-1.54,1.54s.69,1.54,1.54,1.54,1.54-.69,1.54-1.54-.69-1.54-1.54-1.54Z"/>
          <path class="cls-4" d="m15.97,14.21h0c-3.06,0-5.56-2.5-5.56-5.56v-2.97c0-1.87,1.53-3.39,3.39-3.39h4.54c1.87,0,3.39,1.53,3.39,3.39v2.75c0,3.18-2.6,5.77-5.77,5.77Z"/>
          <path class="cls-11" d="m10.2,9.32h0c-.83,0-1.51-.68-1.51-1.51v-2.48c0-.83.68-1.51,1.51-1.51h0c.83,0,1.51.68,1.51,1.51v2.48c0,.83-.68,1.51-1.51,1.51Z"/>
          <path class="cls-11" d="m20.69,5.56h-8.65c-1.03,0-1.87-.84-1.87-1.87h0c0-1.03.84-1.87,1.87-1.87h8.65c1.03,0,1.87.84,1.87,1.87h0c0,1.03-.84,1.87-1.87,1.87Z"/>
          <g>
            <path class="cls-4" d="m12.52,6.86c0,.85-.55,1.54-1.4,1.54s-1.68-.69-1.68-1.54.69-1.54,1.54-1.54,1.54.69,1.54,1.54Z"/>
            <circle class="cls-8" cx="10.98" cy="6.86" r=".8"/>
          </g>
          <path class="cls-8" d="m17.78,10.7h0c-.62,0-1.12-.51-1.12-1.12v-1.11c0-.62.51-1.12,1.12-1.12h0c.62,0,1.12.51,1.12,1.12v1.11c0,.62-.51,1.12-1.12,1.12Z"/>
          <path class="cls-13" d="m20.8,3.82h-3.73c-.34,0-.63-.28-.63-.63h0c0-.34.28-.63.63-.63h3.73c.34,0,.63.28.63.63h0c0,.35-.28.63-.63.63Z"/>
          <path class="cls-2" d="m20.43,3.2c0-.35-.28-.63-.63-.63s-.63.28-.63.63.28.63.63.63.63-.28.63-.63Z"/>
          <path class="cls-13" d="m14.38,3.82h-1.16c-.34,0-.63-.28-.63-.63h0c0-.34.28-.63.63-.63h1.16c.34,0,.63.28.63.63h0c0,.35-.28.63-.63.63Z"/>
          <path class="cls-1" d="m20.82,9.32h-7.17c-1.09,0-1.97-.89-1.97-1.97h0c0-1.09.89-1.97,1.97-1.97h7.17c1.09,0,1.97.89,1.97,1.97h0c0,1.09-.89,1.97-1.97,1.97Z"/>
          <path class="cls-5" d="m14.65,8.61c-.7,0-1.27-.57-1.27-1.27s.57-1.27,1.27-1.27h6.17c.7,0,1.27.57,1.27,1.27s-.57,1.27-1.27,1.27h-6.17Z"/>
          <path class="cls-11" d="m16.81,7.98h-2.36c-.35,0-.64-.29-.64-.64h0c0-.35.29-.64.64-.64h2.36c.35,0,.64.29.64.64h0c0,.35-.29.64-.64.64Z"/>
          <path class="cls-11" d="m21.55,7.98h-2.36c-.35,0-.64-.29-.64-.64h0c0-.35.29-.64.64-.64h2.36c.35,0,.64.29.64.64h0c0,.35-.29.64-.64.64Z"/>
          <path class="cls-2" d="m16.63,7.34c0,.35-.29.64-.64.64s-.64-.29-.64-.64.29-.64.64-.64.64.29.64.64Z"/>
          <path class="cls-2" d="m21.45,7.34c0,.35-.29.64-.64.64s-.64-.29-.64-.64.29-.64.64-.64.64.29.64.64Z"/>
        </g>
        <path class="cls-11" d="m15.92,17.55c3.66,0,6.7-2.71,7.2-6.24.08-.55-.36-1.04-.91-1.04h-12.58c-.55,0-.99.49-.91,1.04.5,3.53,3.53,6.24,7.2,6.24Z"/>
        <path class="cls-2" d="m17.04,15.63c2.18,0,3.99-1.62,4.29-3.72.05-.33-.21-.62-.54-.62h-7.5c-.33,0-.59.29-.54.62.3,2.1,2.11,3.72,4.29,3.72Z"/>
        <path class="cls-6" d="m17.04,16.2c2.18,0,3.99-1.62,4.29-3.72.05-.33-.21-.62-.54-.62h-7.5c-.33,0-.59.29-.54.62.3,2.1,2.11,3.72,4.29,3.72Z"/>
        <path class="cls-11" d="m15.62,13.01c0,.25-.2.45-.45.45s-.45-.2-.45-.45.2-.45.45-.45.45.2.45.45Z"/>
        <path class="cls-11" d="m16.98,13.01c0,.25-.2.45-.45.45s-.45-.2-.45-.45.2-.45.45-.45.45.2.45.45Z"/>
        <path class="cls-11" d="m18.33,13.01c0,.25-.2.45-.45.45s-.45-.2-.45-.45.2-.45.45-.45.45.2.45.45Z"/>
        <path class="cls-11" d="m19.69,13.01c0,.25-.2.45-.45.45s-.45-.2-.45-.45.2-.45.45-.45.45.2.45.45Z"/>
        <path class="cls-11" d="m16.98,14.38c0,.25-.2.45-.45.45s-.45-.2-.45-.45.2-.45.45-.45.45.2.45.45Z"/>
        <path class="cls-11" d="m18.33,14.38c0,.25-.2.45-.45.45s-.45-.2-.45-.45.2-.45.45-.45.45.2.45.45Z"/>
        <path class="cls-6" d="m11.3,12.09h-1.1c-.22,0-.4-.18-.4-.4h0c0-.22.18-.4.4-.4h1.1c.22,0,.4.18.4.4h0c0,.22-.18.4-.4.4Z"/>
        <path class="cls-6" d="m11.59,13.91h-.39c-.25,0-.45-.2-.45-.45h0c0-.25.2-.45.45-.45h.39c.25,0,.45.2.45.45h0c0,.25-.2.45-.45.45Z"/>
      </g>
      <g>
        <path class="cls-11" d="m25.36,10.93h0c-.54,0-.98.44-.98.98v3.28c0,.54.44.98.98.98h0c.54,0,.98-.44.98-.98v-3.28c0-.54-.44-.98-.98-.98Z"/>
        <path class="cls-11" d="m28.05,13.82h0c0-.54-.44-.98-.98-.98h-3.28c-.54,0-.98.44-.98.98h0c0,.54.44.98.98.98h3.28c.54,0,.98-.44.98-.98Z"/>
        <path class="cls-3" d="m38.23,11.1h-5.15c-.89,0-1.62.73-1.62,1.62h0c0,.89.73,1.62,1.62,1.62h5.15c.89,0,1.62-.73,1.62-1.62h0c0-.89-.73-1.62-1.62-1.62Z"/>
        <path class="cls-2" d="m35.29,11.1h-.55c-.29,0-.53.24-.53.53h0c0,.29.24.53.53.53h.55c.29,0,.53-.24.53-.53h0c0-.29-.24-.53-.53-.53Z"/>
        <path class="cls-2" d="m36.66,11.1h0c-.29,0-.53.24-.53.53h0c0,.29.24.53.53.53h0c.29,0,.53-.24.53-.53h0c0-.29-.24-.53-.53-.53Z"/>
        <path class="cls-11" d="m40.3,12.15h-9.07c-.77,0-1.4.63-1.4,1.4h0c0,.77.63,1.4,1.4,1.4h9.07c.77,0,1.4-.63,1.4-1.4h0c0-.77-.63-1.4-1.4-1.4Z"/>
        <path class="cls-11" d="m32.57,13.21h0c-.58,0-1.05-.47-1.05-1.05h0c0-.58.47-1.05,1.05-1.05h0c.58,0,1.05.47,1.05,1.05h0c0,.58-.47,1.05-1.05,1.05Z"/>
        <path class="cls-11" d="m39.18,13.21h0c-.58,0-1.05-.47-1.05-1.05h0c0-.58.47-1.05,1.05-1.05h0c.58,0,1.05.47,1.05,1.05h0c0,.58-.47,1.05-1.05,1.05Z"/>
        <path class="cls-11" d="m30,24.38h-13.83c-1.33,0-2.43-1.09-2.43-2.43v-2.86c0-2.91,2.38-5.28,5.28-5.28h10.97c2.9,0,5.28,2.38,5.28,5.28h0c0,2.9-2.38,5.28-5.28,5.28Z"/>
        <path class="cls-11" d="m42.31,14.52h0c-.93,0-1.69.76-1.69,1.69v4.15c0,.93.76,1.69,1.69,1.69h0c.93,0,1.69-.76,1.69-1.69v-4.15c0-.93-.76-1.69-1.69-1.69Z"/>
        <path class="cls-2" d="m41.71,21.83h-19.78v-5.04c0-1.82,1.47-3.29,3.29-3.29h15.67c.46,0,.83.37.83.83v7.5Z"/>
        <path class="cls-11" d="m41.96,22.9h-19.33v-5.04c0-1.82,1.47-3.29,3.29-3.29h14c1.13,0,2.05.92,2.05,2.05v6.29Z"/>
        <path class="cls-5" d="m41.94,22.63h-14.52v-5.04c0-1.82,1.47-3.29,3.29-3.29h10.4c.46,0,.83.37.83.83v7.5Z"/>
        <path class="cls-11" d="m39.62,20.84h-6.74c-1.28,0-2.32,1.05-2.32,2.32h0c0,1.28,1.04,2.32,2.32,2.32h6.74c1.28,0,2.32-1.05,2.32-2.32h0c0-1.28-1.04-2.32-2.32-2.32Z"/>
        <path class="cls-11" d="m26.89,16h0c-1.82-.56-3.77.48-4.32,2.3l-.9,2.94c-.56,1.82.48,3.77,2.3,4.32h0c1.82.56,3.77-.48,4.32-2.3l.9-2.94c.56-1.82-.48-3.77-2.3-4.32Z"/>
        <path class="cls-11" d="m32.07,23.28h-5.87c-2.17,0-3.95-1.78-3.95-3.95h0c0-2.17,1.78-3.95,3.95-3.95h5.87c2.17,0,3.95,1.78,3.95,3.95h0c0,2.17-1.78,3.95-3.95,3.95Z"/>
        <path class="cls-6" d="m32.11,21.98h-2.28c-.66,0-1.2-.54-1.2-1.2h0c0-.66.54-1.2,1.2-1.2h2.28c.66,0,1.2.54,1.2,1.2h0c0,.66-.54,1.2-1.2,1.2Z"/>
        <path class="cls-11" d="m25.56,16h0c-1.82-.56-3.77.48-4.32,2.3l-.9,2.94c-.56,1.82.48,3.77,2.3,4.32h0c1.82.56,3.77-.48,4.32-2.3l.9-2.94c.56-1.82-.48-3.77-2.3-4.32Z"/>
        <path class="cls-6" d="m25.11,17.09h0c-1.23-.38-2.58.46-3.01,1.85l-.69,2.25c-.43,1.39.23,2.84,1.46,3.22h0c1.23.38,2.58-.46,3.01-1.85l.69-2.25c.43-1.39-.23-2.84-1.46-3.22Z"/>
        <path class="cls-2" d="m21.4,21.91l.69-2.25c.43-1.39,1.78-2.23,3.01-1.85.87.27,1.45,1.08,1.56,2.02.16-1.23-.47-2.41-1.56-2.74-1.23-.38-2.58.46-3.01,1.85l-.69,2.25c-.12.4-.15.81-.1,1.2.02-.16.05-.32.1-.48Z"/>
        <circle class="cls-11" cx="24.5" cy="19.34" r=".87"/>
        <path class="cls-11" d="m24.22,22.42c0-.41-.33-.74-.74-.74s-.74.33-.74.74.33.74.74.74.74-.33.74-.74Z"/>
        <path class="cls-2" d="m29.8,19.86h0c-.51,0-.92.41-.92.92h0c0,.51.41.92.92.92h0c.51,0,.92-.41.92-.92h0c0-.51-.41-.92-.92-.92Z"/>
        <g>
          <path class="cls-5" d="m39.1,21.92h-4.59c-1.73,0-3.15,1.42-3.15,3.15h0c0,1.73,1.42,3.15,3.15,3.15h3.45c1.73,0,3.15-1.42,3.15-3.15v-1.14c0-1.11-.91-2.02-2.02-2.02Z"/>
          <path class="cls-1" d="m37.51,23.18h-2.54c-1.04,0-1.89.85-1.89,1.89h0c0,1.04.85,1.89,1.89,1.89h2.54c1.04,0,1.89-.85,1.89-1.89h0c0-1.04-.85-1.89-1.89-1.89Z"/>
          <circle class="cls-2" cx="37.79" cy="23.67" r="1.25"/>
          <circle class="cls-2" cx="34.19" cy="25.79" r=".86"/>
        </g>
        <path class="cls-6" d="m32.01,17.17h-4.08c-.27,0-.5.22-.5.5h0c0,.27.22.5.5.5h4.08c.27,0,.5-.22.5-.5h0c0-.27-.22-.5-.5-.5Z"/>
        <path class="cls-6" d="m16.35,17.55h0c-.84,0-1.53.69-1.53,1.53v2.25c0,.84.69,1.53,1.53,1.53h0c.84,0,1.53-.69,1.53-1.53v-2.25c0-.84-.69-1.53-1.53-1.53Z"/>
        <path class="cls-6" d="m19.17,14.98h0c-.71,0-1.28.58-1.28,1.28h0c0,.71.58,1.28,1.28,1.28h0c.71,0,1.28-.58,1.28-1.28h0c0-.71-.58-1.28-1.28-1.28Z"/>
        <path class="cls-11" d="m44,15.85h0c-.51,0-.93.42-.93.93v1.54c0,.51.42.93.93.93h0c.51,0,.93-.42.93-.93v-1.54c0-.51-.42-.93-.93-.93Z"/>
        <path class="cls-6" d="m43.04,18.74h0c-.31,0-.56-.25-.56-.56v-1.77c0-.31.25-.56.56-.56h0c.31,0,.56.25.56.56v1.77c0,.31-.25.56-.56.56Z"/>
        <path class="cls-6" d="m43.04,20.33h0c-.25,0-.46.21-.46.46h0c0,.25.21.46.46.46h0c.25,0,.46-.21.46-.46h0c0-.25-.21-.46-.46-.46Z"/>
        <path class="cls-2" d="m43.6,16.63h0c-.38,0-.69.31-.69.69h0c0,.38.31.69.69.69h0c.38,0,.69-.31.69-.69h0c0-.38-.31-.69-.69-.69Z"/>
        <g>
          <path class="cls-11" d="m33.38,17.74h0c0-1.04.86-1.89,1.9-1.88h3.16c1.04.02,1.89.87,1.88,1.91h0c0,1.04-.86,1.89-1.9,1.88h-3.16c-1.04-.02-1.89-.87-1.88-1.91Z"/>
          <path class="cls-3" d="m35.83,17.75h0c0-.71.58-1.29,1.29-1.28h1.04c.71,0,1.29.59,1.28,1.3h0c0,.71-.58,1.29-1.29,1.28h-1.04c-.71,0-1.29-.59-1.28-1.3Z"/>
          <path class="cls-2" d="m38.49,18.59c.46-.17.7-.67.53-1.13-.17-.46-.67-.7-1.13-.53-.46.17-.7.67-.53,1.13.17.46.67.7,1.13.53Z"/>
          <path class="cls-6" d="m34.89,18.12c.24-.09.37-.36.28-.6-.09-.24-.36-.37-.6-.28s-.37.36-.28.6c.09.24.36.37.6.28Z"/>
        </g>
      </g>
      <g>
        <path class="cls-7" d="m20.29,22.47l-.62.59-.08.08-2.07,1.99c-.95.91-.98,2.44-.07,3.39h0c.91.95,2.44.98,3.39.07l2.07-1.99.08-.08.62-.59c.95-.91.98-2.44.07-3.39h0c-.91-.95-2.44-.98-3.39-.07Z"/>
        <path class="cls-1" d="m21.73,21.08l-1.25,1.2c-.95.91-.98,2.44-.07,3.39h0c.91.95,2.44.98,3.39.07l1.25-1.2c.95-.91.98-2.44.07-3.39h0c-.91-.95-2.44-.98-3.39-.07Z"/>
      </g>
      <g>
        <path class="cls-5" d="m30.24,22.52h-3.73c-.97,0-1.76-.79-1.76-1.76h0c0-.97.79-1.76,1.76-1.76h3.73c.97,0,1.76.79,1.76,1.76h0c0,.97-.79,1.76-1.76,1.76Z"/>
        <path class="cls-5" d="m25.6,18.99h-.33c-2.25,0-4.09,1.84-4.09,4.09h0c0,2.25,1.84,4.09,4.09,4.09h.33c2.25,0,4.09-1.84,4.09-4.09h0c0-2.25-1.84-4.09-4.09-4.09Z"/>
        <path class="cls-1" d="m26.13,26.33h0c-1.4,0-2.54-1.14-2.54-2.54v-1.42c0-1.4,1.14-2.54,2.54-2.54h0c1.4,0,2.54,1.14,2.54,2.54v1.42c0,1.4-1.14,2.54-2.54,2.54Z"/>
        <path class="cls-1" d="m28.77,21.68h-2.41c-.51,0-.92-.42-.92-.92h0c0-.51.42-.92.92-.92h2.41c.51,0,.92.42.92.92h0c0,.51-.42.92-.92.92Z"/>
        <path class="cls-2" d="m26.13,23.08h0c-.77,0-1.4-.63-1.4-1.4h0c0-.77.63-1.4,1.4-1.4h0c.77,0,1.4.63,1.4,1.4h0c0,.77-.63,1.4-1.4,1.4Z"/>
        <path class="cls-2" d="m24.27,25.01h0c-.52,0-.94-.42-.94-.94h0c0-.52.42-.94.94-.94h0c.52,0,.94.42.94.94h0c0,.52-.42.94-.94.94Z"/>
      </g>
      <g>
        <path id="ArmOne-2" data-name="ArmOne" class="cls-7" d="m20.59,28.71h0c-1.02.84-2.54.68-3.37-.34l-7.11-8.68c-.84-1.02-.68-2.54.34-3.37h0c1.02-.84,2.54-.68,3.37.34l7.11,8.68c.84,1.02.68,2.54-.34,3.37Z"/>
        <path class="cls-11" d="m18.17,25.7h0c-.22.18-.55.15-.74-.07l-1.97-2.4c-.18-.22-.15-.55.07-.74h0c.22-.18.55-.15.73.07l1.97,2.4c.18.22.15.55-.07.74Z"/>
        <path class="cls-2" d="m17.82,18.04c-1.6-1.96-4.49-2.25-6.45-.64-1.96,1.6-2.25,4.49-.64,6.45,1.6,1.96,3.89,1.52,5.85-.08,1.96-1.6,2.84-3.76,1.24-5.72Z"/>
        <path class="cls-1" d="m16.78,16.28c-1.71-2.09-4.79-2.4-6.88-.69-2.09,1.71-2.4,4.79-.69,6.88,1.71,2.09,4.15,1.62,6.24-.09,2.09-1.71,3.03-4.01,1.32-6.1Z"/>
        <path class="cls-5" d="m15.04,17.56c-1.34-1.64-3.58-2.02-5.01-.85-1.43,1.17-1.5,3.44-.16,5.08,1.34,1.64,3.09,1.41,4.51.25,1.43-1.17,1.99-2.83.65-4.47Z"/>
        <path class="cls-3" d="m18.98,25.04c-.36-.45-1.02-.51-1.47-.15-.45.36-.51,1.02-.15,1.47.36.45,1.02.51,1.47.15.45-.36.51-1.02.15-1.47Z"/>
        <g>
          <path class="cls-1" d="m13.48,21.63h0c-.14-.01-.24-.14-.22-.27l.27-2.67c.01-.14.14-.24.27-.22h0c.14.01.24.14.22.27l-.27,2.67c-.01.14-.14.24-.27.22Z"/>
          <path class="cls-1" d="m11.87,20.62h0c-.14-.01-.24-.14-.22-.27l.27-2.67c.01-.14.14-.24.27-.22h0c.14.01.24.14.22.27l-.27,2.67c-.01.14-.14.24-.27.22Z"/>
          <path class="cls-1" d="m10.6,21.62h0c-.14-.01-.24-.14-.22-.27l.27-2.67c.01-.14.14-.24.27-.22h0c.14.01.24.14.22.27l-.27,2.67c-.01.14-.14.24-.27.22Z"/>
        </g>
        <path class="cls-2" d="m12.19,17.09c.65.8.54,1.98-.26,2.63-.8.65-1.98.54-2.63-.26-.65-.8-.54-1.98.26-2.63.8-.65,1.98-.54,2.63.26Z"/>
        <path class="cls-2" d="m14.15,17.82c-.22-.26-.18-.66.09-.87s.66-.18.87.09c.22.27.18.66-.09.87s-.66.18-.87-.09Z"/>
      </g>
      <g>
        <path class="cls-7" d="m8.06,45.24h0c1.96.65,4.1-.42,4.75-2.38l2.72-8.21c.65-1.96-.42-4.1-2.38-4.75h0c-1.96-.65-4.1.42-4.75,2.38l-2.72,8.21c-.65,1.96.42,4.1,2.38,4.75Z"/>
        <path class="cls-1" d="m6.17,44.61h0c1.96.65,4.1-.42,4.75-2.38l2.72-8.21c.65-1.96-.42-4.1-2.38-4.75h0c-1.96-.65-4.1.42-4.75,2.38l-2.72,8.21c-.65,1.96.42,4.1,2.38,4.75Z"/>
        <path class="cls-2" d="m5.97,43.68h0c1.48.49,3.1-.32,3.59-1.8l2.72-8.19c.49-1.48-.32-3.1-1.8-3.59h0c-1.48-.49-3.1.32-3.59,1.8l-2.72,8.19c-.49,1.48.32,3.1,1.8,3.59Z"/>
        <path class="cls-5" d="m5.14,43.4h0c1.48.49,3.1-.32,3.59-1.8l2.72-8.19c.49-1.48-.32-3.1-1.8-3.59h0c-1.48-.49-3.1.32-3.59,1.8l-2.72,8.19c-.49,1.48.32,3.1,1.8,3.59Z"/>
        <path class="cls-7" d="m10.86,34.22l2.17.72c.52.17,1.09-.11,1.26-.63h0c.17-.52-.11-1.09-.63-1.26l-2.17-.72c-.52-.17-1.09.11-1.26.63h0c-.17.52.11,1.09.63,1.26Z"/>
        <path class="cls-7" d="m8.3,41.93l2.17.72c.52.17,1.09-.11,1.26-.63h0c.17-.52-.11-1.09-.63-1.26l-2.17-.72c-.52-.17-1.09.11-1.26.63h0c-.17.52.11,1.09.63,1.26Z"/>
        <path class="cls-6" d="m10.71,42.73h0c.39.13.81-.08.94-.47l2.72-8.2c.13-.39-.08-.81-.47-.94h0c-.39-.13-.81.08-.94.47l-2.72,8.2c-.13.39.08.81.47.94Z"/>
        <path class="cls-9" d="m12.58,37.09h0c.39.13.81-.08.94-.47l.39-1.19c.13-.39-.08-.81-.47-.94h0c-.39-.13-.81.08-.94.47l-.39,1.19c-.13.39.08.81.47.94Z"/>
        <path class="cls-9" d="m11.41,40.61h0c.39.13.81-.08.94-.47l.11-.34c.13-.39-.08-.81-.47-.94h0c-.39-.13-.81.08-.94.47l-.11.34c-.13.39.08.81.47.94Z"/>
        <g>
          <path class="cls-1" d="m9.67,36.83h0c-.06-.12-.21-.17-.33-.11l-2.4,1.21c-.12.06-.17.21-.11.33h0c.06.12.21.17.33.11l2.4-1.21c.12-.06.17-.21.11-.33Z"/>
          <path class="cls-1" d="m8.16,35.7h0c-.06-.12-.21-.17-.33-.11l-2.4,1.21c-.12.06-.17.21-.11.33h0c.06.12.21.17.33.11l2.4-1.21c.12-.06.17-.21.11-.33Z"/>
          <path class="cls-1" d="m8.63,34.15h0c-.06-.12-.21-.17-.33-.11l-2.4,1.21c-.12.06-.17.21-.11.33h0c.06.12.21.17.33.11l2.4-1.21c.12-.06.17-.21.11-.33Z"/>
        </g>
        <path class="cls-2" d="m8.77,31.42c.11-.32-.07-.68-.39-.78-.32-.11-.68.07-.78.39-.11.33.07.68.39.78.32.11.68-.07.78-.39Z"/>
      </g>
    </g>
  </g>
</svg>