<?xml version="1.0" encoding="UTF-8"?>
<svg xmlns="http://www.w3.org/2000/svg" xmlns:xlink="http://www.w3.org/1999/xlink" viewBox="0 0 652.5 261">
  <defs>
    <style>
      .cls-1 {
        fill: url(#_161-2);
      }

      .cls-2 {
        fill: #cce5aa;
      }

      .cls-2, .cls-3 {
        mix-blend-mode: multiply;
      }

      .cls-4 {
        fill: url(#_103-5);
      }

      .cls-4, .cls-5, .cls-6, .cls-7, .cls-8, .cls-9, .cls-10, .cls-11, .cls-12, .cls-13, .cls-14, .cls-15, .cls-16, .cls-17, .cls-18, .cls-19, .cls-20, .cls-21, .cls-22, .cls-23, .cls-24, .cls-25, .cls-26, .cls-27 {
        fill-rule: evenodd;
      }

      .cls-28 {
        fill: url(#_154-7);
      }

      .cls-29 {
        fill: url(#_154-3);
      }

      .cls-5 {
        fill: url(#_85);
      }

      .cls-30 {
        fill: url(#_161-16);
      }

      .cls-31, .cls-3 {
        fill: #aa86a1;
      }

      .cls-6 {
        fill: url(#_103-2);
      }

      .cls-32 {
        fill: url(#_161-10);
      }

      .cls-33 {
        fill: url(#_154-2);
      }

      .cls-34 {
        fill: url(#_154);
      }

      .cls-35 {
        fill: url(#_161-13);
      }

      .cls-36 {
        fill: #935251;
      }

      .cls-36, .cls-37 {
        mix-blend-mode: screen;
      }

      .cls-7 {
        fill: url(#_3-8);
      }

      .cls-37 {
        fill: #9f6665;
      }

      .cls-38 {
        fill: url(#_43);
      }

      .cls-39 {
        fill: url(#_161-7);
      }

      .cls-8 {
        fill: url(#_3-7);
      }

      .cls-40 {
        fill: url(#_161-5);
      }

      .cls-9 {
        fill: url(#_3-2);
      }

      .cls-41 {
        fill: url(#_154-6);
      }

      .cls-42 {
        fill: url(#_161-3);
      }

      .cls-10 {
        fill: url(#_103-3);
      }

      .cls-11 {
        fill: url(#_103-7);
      }

      .cls-43 {
        fill: url(#_161-11);
      }

      .cls-12 {
        fill: url(#_3-11);
      }

      .cls-44 {
        fill: url(#_161-17);
      }

      .cls-3 {
        opacity: .2;
      }

      .cls-13 {
        fill: url(#_103-6);
      }

      .cls-14 {
        fill: url(#_103-8);
      }

      .cls-15 {
        fill: url(#_103-4);
      }

      .cls-45 {
        fill: url(#_161-14);
      }

      .cls-46 {
        fill: url(#_161-6);
      }

      .cls-47 {
        fill: none;
        isolation: isolate;
      }

      .cls-48 {
        fill: url(#_43-2);
      }

      .cls-49 {
        fill: url(#_158-2);
      }

      .cls-16 {
        fill: url(#_3-10);
      }

      .cls-17 {
        fill: url(#_3-5);
      }

      .cls-50 {
        fill: url(#_161-4);
      }

      .cls-18 {
        fill: url(#_3-4);
      }

      .cls-51 {
        fill: url(#_161-18);
      }

      .cls-19 {
        fill: url(#_3-6);
      }

      .cls-52 {
        fill: url(#_161-12);
      }

      .cls-20 {
        fill: url(#_111);
      }

      .cls-21 {
        fill: url(#_3-3);
      }

      .cls-22 {
        fill: url(#_103);
      }

      .cls-53 {
        fill: url(#_161-15);
      }

      .cls-54 {
        fill: url(#_161-9);
      }

      .cls-55 {
        fill: url(#_161-8);
      }

      .cls-56 {
        fill: url(#_154-4);
      }

      .cls-23 {
        fill: url(#_3);
      }

      .cls-57 {
        fill: url(#_4);
      }

      .cls-24 {
        fill: url(#_103-9);
      }

      .cls-25 {
        fill: url(#_76);
      }

      .cls-26 {
        fill: url(#_3-9);
      }

      .cls-58 {
        fill: url(#_158);
      }

      .cls-59 {
        fill: url(#_154-5);
      }

      .cls-60 {
        fill: url(#_161);
      }

      .cls-27 {
        fill: url(#_3-12);
      }
    </style>
    <linearGradient id="_4" data-name="  4" x1="326.25" y1="231.74" x2="326.25" y2="0" gradientUnits="userSpaceOnUse">
      <stop offset=".01" stop-color="#f8fbff"/>
      <stop offset=".4" stop-color="#dfe6ff"/>
      <stop offset=".51" stop-color="#dae4ff"/>
      <stop offset=".61" stop-color="#cee0ff"/>
      <stop offset=".72" stop-color="#bad9ff"/>
      <stop offset=".83" stop-color="#9ecfff"/>
      <stop offset=".93" stop-color="#7ac2ff"/>
      <stop offset="1" stop-color="#60b9ff"/>
    </linearGradient>
    <linearGradient id="_154" data-name="  154" x1="576.2" y1="187.82" x2="576.2" y2="171.32" gradientUnits="userSpaceOnUse">
      <stop offset="0" stop-color="#bed6ff"/>
      <stop offset=".48" stop-color="#c4e0ff"/>
      <stop offset="1" stop-color="#c7e5ff"/>
    </linearGradient>
    <linearGradient id="_154-2" data-name="  154" x1="125.23" y1="180.32" x2="125.23" y2="164.42" xlink:href="#_154"/>
    <linearGradient id="_154-3" data-name="  154" x1="126.57" y1="101.81" x2="126.57" y2="21.13" xlink:href="#_154"/>
    <linearGradient id="_161" data-name="  161" x1="32.25" y1="54.12" x2="32.25" y2="20.65" gradientUnits="userSpaceOnUse">
      <stop offset="0" stop-color="#d6e5ff"/>
      <stop offset=".42" stop-color="#dcecff"/>
      <stop offset="1" stop-color="#e0f1ff"/>
    </linearGradient>
    <linearGradient id="_161-2" data-name="  161" x1="80.23" y1="69.19" x2="80.23" y2="52.68" xlink:href="#_161"/>
    <linearGradient id="_161-3" data-name="  161" x1="120.98" y1="83.93" x2="120.98" y2="68.13" xlink:href="#_161"/>
    <linearGradient id="_161-4" data-name="  161" x1="47.59" y1="91.17" x2="47.59" y2="78.7" xlink:href="#_161"/>
    <linearGradient id="_161-5" data-name="  161" x1="112.2" y1="95.67" x2="112.2" y2="89.02" xlink:href="#_161"/>
    <linearGradient id="_154-4" data-name="  154" x1="532.39" y1="98.29" x2="532.39" y2="17.37" xlink:href="#_154"/>
    <linearGradient id="_158" data-name="  158" x1="602.13" y1="44.65" x2="602.13" y2="17.53" gradientUnits="userSpaceOnUse">
      <stop offset="0" stop-color="#bed6ff"/>
      <stop offset=".31" stop-color="#cfe4ff"/>
      <stop offset=".66" stop-color="#dbedff"/>
      <stop offset="1" stop-color="#e0f1ff"/>
    </linearGradient>
    <linearGradient id="_161-6" data-name="  161" x1="510.97" y1="83.69" x2="510.97" y2="76.97" xlink:href="#_161"/>
    <linearGradient id="_161-7" data-name="  161" x1="597.46" y1="86.87" x2="643.95" y2="86.87" xlink:href="#_161"/>
    <linearGradient id="_161-8" data-name="  161" x1="555.96" y1="68.46" x2="555.96" y2="49.5" xlink:href="#_161"/>
    <linearGradient id="_154-5" data-name="  154" x1="342.31" y1="85.39" x2="342.31" y2="23.76" gradientTransform="translate(.05 -38.82) rotate(5.61) scale(1 1.06)" xlink:href="#_154"/>
    <linearGradient id="_161-9" data-name="  161" x1="393.51" y1="45.07" x2="393.51" y2="33.1" gradientTransform="translate(.05 -38.82) rotate(5.61) scale(1 1.06)" xlink:href="#_161"/>
    <linearGradient id="_161-10" data-name="  161" x1="318.75" y1="59.2" x2="318.75" y2="29.7" gradientTransform="translate(.05 -38.82) rotate(5.61) scale(1 1.06)" xlink:href="#_161"/>
    <linearGradient id="_161-11" data-name="  161" x1="264.95" y1="75.27" x2="264.95" y2="69.82" gradientTransform="translate(.05 -38.82) rotate(5.61) scale(1 1.06)" xlink:href="#_161"/>
    <linearGradient id="_161-12" data-name="  161" x1="275.58" y1="68.03" x2="275.58" y2="48.35" gradientTransform="translate(.05 -38.82) rotate(5.61) scale(1 1.06)" xlink:href="#_161"/>
    <linearGradient id="_161-13" data-name="  161" x1="345.63" y1="69.14" x2="345.63" y2="55.94" gradientTransform="translate(.05 -38.82) rotate(5.61) scale(1 1.06)" xlink:href="#_161"/>
    <linearGradient id="_158-2" data-name="  158" x1="601.09" y1="146.95" x2="601.09" y2="125.79" gradientTransform="translate(11.99 -60.26) rotate(4.63)" xlink:href="#_158"/>
    <linearGradient id="_43" data-name="  43" x1="604.98" y1="140.77" x2="604.98" y2="125.39" gradientTransform="translate(11.99 -60.26) rotate(4.63)" gradientUnits="userSpaceOnUse">
      <stop offset="0" stop-color="#e6efff"/>
      <stop offset="1" stop-color="#e0f1ff"/>
    </linearGradient>
    <linearGradient id="_43-2" data-name="  43" x1="568.06" y1="145.56" x2="568.06" y2="140.87" xlink:href="#_43"/>
    <linearGradient id="_154-6" data-name="  154" x1="496.76" y1="53.89" x2="496.76" y2="40.63" xlink:href="#_154"/>
    <linearGradient id="_161-14" data-name="  161" x1="483.44" y1="49.67" x2="483.44" y2="40.67" xlink:href="#_161"/>
    <linearGradient id="_161-15" data-name="  161" x1="505.98" y1="47.18" x2="505.98" y2="41.86" xlink:href="#_161"/>
    <linearGradient id="_154-7" data-name="  154" x1="180.67" y1="29.18" x2="180.67" y2="5.05" gradientTransform="translate(-.56 -9.81) rotate(4.27)" xlink:href="#_154"/>
    <linearGradient id="_161-16" data-name="  161" x1="172.35" y1="22.87" x2="172.35" y2="8.66" xlink:href="#_161"/>
    <linearGradient id="_161-17" data-name="  161" x1="147.59" y1="24.01" x2="147.59" y2="20.16" xlink:href="#_161"/>
    <linearGradient id="_161-18" data-name="  161" x1="203.25" y1="22.87" x2="203.25" y2="15.58" xlink:href="#_161"/>
    <linearGradient id="_85" data-name="  85" x1="326.25" y1="240.3" x2="326.25" y2="207.69" gradientUnits="userSpaceOnUse">
      <stop offset="0" stop-color="#ebf2ff"/>
      <stop offset="1" stop-color="#dee0fa"/>
    </linearGradient>
    <linearGradient id="_103" data-name="  103" x1="273.13" y1="208.28" x2="273.13" y2="79.03" gradientUnits="userSpaceOnUse">
      <stop offset="0" stop-color="#d6e5ff"/>
      <stop offset="1" stop-color="#a6acf1"/>
    </linearGradient>
    <linearGradient id="_103-2" data-name="  103" x1="205.06" y1="150.54" x2="205.06" y2="87.39" xlink:href="#_103"/>
    <linearGradient id="_103-3" data-name="  103" x1="146.11" y1="135.3" x2="146.11" y2="94.48" xlink:href="#_103"/>
    <linearGradient id="_103-4" data-name="  103" x1="388.32" y1="232.69" x2="388.32" y2="108.21" xlink:href="#_103"/>
    <linearGradient id="_111" data-name="  111" x1="318.36" y1="236.59" x2="318.36" y2="73.94" gradientUnits="userSpaceOnUse">
      <stop offset="0" stop-color="#c7dbff"/>
      <stop offset="1" stop-color="#8990ec"/>
    </linearGradient>
    <linearGradient id="_3" data-name="  3" x1="240.94" y1="224.18" x2="240.94" y2="113.28" gradientUnits="userSpaceOnUse">
      <stop offset="0" stop-color="#a8c7ff"/>
      <stop offset="1" stop-color="#8289eb"/>
    </linearGradient>
    <linearGradient id="_3-2" data-name="  3" x1="174.7" y1="208.38" x2="174.7" y2="128.37" xlink:href="#_3"/>
    <linearGradient id="_3-3" data-name="  3" x1="150.86" y1="186.44" x2="150.86" y2="124.65" xlink:href="#_3"/>
    <linearGradient id="_3-4" data-name="  3" x1="346.55" y1="232.69" x2="346.55" y2="128.37" xlink:href="#_3"/>
    <linearGradient id="_3-5" data-name="  3" x1="330.82" y1="184.13" x2="330.82" y2="111.97" xlink:href="#_3"/>
    <linearGradient id="_3-6" data-name="  3" x1="295.54" y1="236.35" x2="295.54" y2="132.43" xlink:href="#_3"/>
    <linearGradient id="_3-7" data-name="  3" x1="513.73" y1="237.3" x2="513.73" y2="105.54" xlink:href="#_3"/>
    <linearGradient id="_3-8" data-name="  3" x1="555.05" y1="237.04" x2="555.05" y2="171.42" xlink:href="#_3"/>
    <linearGradient id="_3-9" data-name="  3" x1="303.74" y1="233.35" x2="303.74" y2="130.77" xlink:href="#_3"/>
    <linearGradient id="_3-10" data-name="  3" x1="309.78" y1="229.68" x2="309.78" y2="127.11" xlink:href="#_3"/>
    <linearGradient id="_3-11" data-name="  3" x1="316.16" y1="225.93" x2="316.16" y2="123.36" xlink:href="#_3"/>
    <linearGradient id="_3-12" data-name="  3" x1="322.58" y1="222.09" x2="322.58" y2="119.52" xlink:href="#_3"/>
    <linearGradient id="_103-5" data-name="  103" x1="25.15" y1="237.05" x2="25.15" y2="201.47" xlink:href="#_103"/>
    <linearGradient id="_103-6" data-name="  103" x1="57.19" y1="233.35" x2="57.19" y2="195.5" xlink:href="#_103"/>
    <linearGradient id="_103-7" data-name="  103" x1="616.36" y1="233.35" x2="616.36" y2="195.5" xlink:href="#_103"/>
    <linearGradient id="_103-8" data-name="  103" x1="592.6" y1="232.69" x2="592.6" y2="191.21" xlink:href="#_103"/>
    <linearGradient id="_103-9" data-name="  103" x1="577.27" y1="231.08" x2="577.27" y2="195.5" xlink:href="#_103"/>
    <linearGradient id="_76" data-name="  76" x1="0" y1="248.3" x2="652.5" y2="248.3" gradientUnits="userSpaceOnUse">
      <stop offset="0" stop-color="#eae4ea"/>
      <stop offset="1" stop-color="#d8d8f7"/>
    </linearGradient>
  </defs>
  <g class="cls-47">
    <g id="Layer_2" data-name="Layer 2">
      <g id="Layer_1-2" data-name="Layer 1">
        <g>
          <g>
            <rect class="cls-57" width="652.5" height="231.74"/>
            <path class="cls-34" d="m640.36,187.2s-24.73-7.98-35.12-2.99c0,0,2.36-14.19-12.11-12.79,0,0-18.85,6.12-25.85,14.17,0,0-2.72-3.3-4.7-3.23-1.98.07-2.74,1.9-2.74,1.9,0,0-32.65-4.96-59.21,3.56l151.13-.73s-4.51-1.88-11.41.11Z"/>
            <path class="cls-33" d="m7.99,179.79s14.84-3.62,31.16-4.27l6.07,3.24s13.96-12.51,38.44-14.32c0,0,27.19-.59,35.91,13.58l17.28-.83s41.95,3.49,59.16.52c17.21-2.97,46.46,2.62,46.46,2.62l-234.48-.53Z"/>
            <g>
              <path class="cls-29" d="m0,27.85s28.76-10.88,49.53-4.95c20.77,5.93,21.76,38.56,21.76,38.56,0,0,14.86-11.86,27.69-8.89,8.56,1.98,6.92,10.22,5.44,15.56,2.97,2.99,32.37,12.14,38.36,14.11s6.59,5.45,9.42,8.5c2.83,3.04,18.82,6.73,29.53,6.54,10.72-.2,25.2,2.62,38.98,2.94,13.77.32,32.43.89,32.43.89,0,0-42.57,1.56-59.04,0s-30.66-1.18-52-2.85c-21.35-1.67-62.82-.45-73.98-3.78,0,0-20.55,4.96-41.33,3.78s-26.78-2.36-26.78-2.36V27.85Z"/>
              <path class="cls-60" d="m0,54.12s15.24-2.19,31.07-10.77c15.82-8.58,20.44-14.51,20.44-14.51,0,0,2.25,1.64,7.25,3.63,5,1.98,5.74,3.26,5.74,3.26,0,0-4.09-11.42-20.08-14.59,0,0-18.78-3.17-44.42,6.72v26.27Z"/>
              <path class="cls-1" d="m71.29,61.47l-4.95,4.29-9.23,2.37s14.51,2.37,23.74,0c9.23-2.37,14.51-11.5,14.51-11.5,0,0,3.64-4.4,8-1.84,0,0-13.28-7.84-32.07,6.68Z"/>
              <path class="cls-42" d="m104.42,68.13l-5.11,2.58-3.46,1.65s10.71.33,19.62,2.97c8.9,2.64,9.4,4.95,16.15,7.09,6.76,2.14,14.49,1.39,14.49,1.39,0,0-8.76-4.04-23.1-8.05-14.34-4-18.59-7.62-18.59-7.62Z"/>
              <path class="cls-50" d="m27.11,86.87s6.84-6.35,14.01-7.84c7.17-1.48,20.77,2.08,24.48,7.84l2.47,4.28s-7.42.25-16.32-.99c-8.9-1.24-10.19-4.05-13.85-6.23-3.66-2.18-10.8,2.94-10.8,2.94Z"/>
              <path class="cls-40" d="m103.36,94.48s6.8-2.95,13.94-3.31c8.39-.43,14.8,4.5,14.8,4.5,0,0-3.36-5.26-18.73-6.5-15.37-1.24-21.06,5.31-21.06,5.31,0,0,5,2.17,11.05,0Z"/>
            </g>
            <g>
              <path class="cls-56" d="m652.5,32.8s-31.05-20.28-56.27-14.34c-25.22,5.93-24.48,32.14-24.48,32.14,0,0-14.09-1.98-20.03,0-5.93,1.98-11.96,16.03-11.55,17.53,0,0-23.35,9.37-29.41,9.37s-20.84-.89-27.4,2.3c-6.56,3.19-16.33,6.5-26.28,7.07s-29.93,7.24-44.79,7.61c0,0,51-3.49,56.6-3.74,5.6-.25,13.8,5.75,28.33,6.54,14.53.79,29.93.68,42.96.98,13.03.3,40.48-2.87,69.4-3.78s42.92-7.1,42.92-7.1v-54.59Z"/>
              <path class="cls-58" d="m572.29,44.65s4.07-3.81,6.71-8.32c2.64-4.51,14.51-8.8,18.46-10.12,3.96-1.32,9.86-2.41,14.84-5.07,4.97-2.65,19.66,1.55,19.66,1.55,0,0-20.22-8.75-38.57-3.44-18.35,5.31-21.1,25.4-21.1,25.4Z"/>
              <path class="cls-46" d="m473.6,83.68s18.12-.22,21.05,0c2.93.22,6.41-2.37,17.69-3.87,11.28-1.51,36,0,36,0,0,0-23.04-1.93-26.85-2.3-3.81-.36-9.21-.13-9.21-.13,0,0-11.58-.99-21.3.13-9.72,1.12-17.37,6.17-17.37,6.17Z"/>
              <path class="cls-39" d="m597.46,90.4s13.04-1.66,23.98-1.66h22.5s-20.57-4.76-27.86-5.36c-7.29-.6-18.63,7.02-18.63,7.02Z"/>
              <path class="cls-55" d="m540.17,68.13s11.63.72,29.93,0l-10.39-1.71s1.65-10.71,3.13-12.69,8.9-3.13,8.9-3.13c0,0-15.33-2.47-21.26,0-5.93,2.47-10.31,17.53-10.31,17.53Z"/>
            </g>
            <g>
              <path class="cls-59" d="m254.01,60.37s4.25-20.69,16.78-20.95c12.53-.26,19.99,13.26,19.99,13.26,0,0,10.8-3.9,14.47-6.34s14.24-20.2,18.72-21.89c6.8-2.57,33.08-8.07,49.05,3.31l-1.46,10s23.6-1.97,43.13-.98c0,0,15.4,2.23,15.25,18.73l21.21-.42s-25.81,2.25-42.2,5.36c0,0-23.97,6.97-77.04,11.82-40.19,3.68-59.69-2.34-79.15.13-22.51,2.21-36.12.87-36.12.87,0,0,18.68-.9,22.05-2.25,0,0,3.67-5.8,5.7-6.6,2.03-.8,9.64-4.04,9.64-4.04Z"/>
              <path class="cls-54" d="m371.55,37.76s-2.7,5.58-5.8,7.26c0,0,19.28-2.58,23.29-3.43s3.68-2.52,5.79-3.78,14.66-1.23,14.66-1.23c0,0-25.19-.92-37.94,1.18Z"/>
              <path class="cls-32" d="m290.78,52.69s16.89-3.3,19.31-4.56c0,0,13.37-.14,14.61-.97,1.24-.83,8.65-15.95,9.65-19.58,1-3.63-11.79-2.25-11.79-2.25,0,0-7.96,8.74-16.18,20.03,0,0-12.36,6.45-15.6,7.33Z"/>
              <path class="cls-43" d="m243.32,65.12s12.04.56,25.64-1.64c0,0-10.09-1.65-14.95-3.1,0,0-9.36,3.37-10.69,4.75Z"/>
              <path class="cls-52" d="m254.47,58.51s9.1-1.16,14.22-4.94c0,0,3.36-9.67,6.04-11.32s7.11.7,7.11.7c0,0-7.03-6.1-15.71-2.39-8.68,3.71-11.67,17.95-11.67,17.95Z"/>
              <path class="cls-35" d="m319.01,64.85s4.66-7.19,12.61-9.23c2.67-.69,24.57.02,24.57.02,0,0-11.9,1.02-13.49,1.07s-6.8,8.31-6.8,8.31c0,0-9.55,3.91-16.89-.17Z"/>
            </g>
            <g>
              <path class="cls-49" d="m559.99,128.4s4.47-3.06,14.29-1.9c0,0,1.68-7.45,17.81-11.1,16.13-3.65,41.93,2.41,41.93,2.41l-.33,4.06,15.54-.18s-14.51,3.79-36.49,5.64c-21.98,1.86-62.13,3.45-62.13,3.45l9.37-2.38Z"/>
              <path class="cls-38" d="m574.28,126.5s12.72.24,23.1-1.4c0,0,3.81-8.3,6.66-8.73s9.79,1.61,12.98,1.05c3.19-.56,17,.4,17,.4,0,0-18.33-5.78-38.09-3.08-19.76,2.7-21.65,11.77-21.65,11.77Z"/>
              <path class="cls-48" d="m554.77,129.72s6.8-.41,11.95-.78l11.68-1.25s-3.85-1.31-9.14-1.45c0,0-7.94.11-9.27,2.15l-5.22,1.32Z"/>
            </g>
            <g>
              <path class="cls-41" d="m458.82,53.89l13.36-4.22s4.28-4.79,8.14-6.71c3.86-1.92,11.36-2.58,14.37-2.25,3.01.33,8.36,4.16,8.36,4.16,0,0,6.22-2.77,8.75-3.02s9.89,3.4,9.89,3.4l13.02-.33s-33.75,4.51-75.88,8.96Z"/>
              <path class="cls-45" d="m472.18,49.67s8.79-.48,11.26-1.14c0,0,.66-3.63,1.73-4.86s6.17-3,6.17-3l3.35.04s-8.98-.5-13.95,2.05c-4.97,2.56-8.56,6.91-8.56,6.91Z"/>
              <path class="cls-53" d="m503.05,44.88l-2.88,2.3s8.04-.11,9.89-1.15c1.85-1.04,1.73-4.17,1.73-4.17,0,0-4.76.44-8.75,3.02Z"/>
            </g>
            <g>
              <path class="cls-28" d="m141.97,28.63s31.84-1.65,47.13-3.88c15.29-2.24,43.72-6.28,43.72-6.28l-13.44.28s-7.37-3.13-13.92-2.86c-6.55.27-9.54,3.77-9.54,3.77,0,0-6.97-9.45-13.08-10.65s-18.18,4.35-19.62,6.97c-1.44,2.62-3.22,6.61-3.22,6.61,0,0-4.8-2.08-8.75-2.33-3.95-.26-11.19,2.06-11.37,2.91-.19.85-.05,2.35-.05,2.35l-16.4,3.2s11.41.62,18.55-.08Z"/>
              <path class="cls-30" d="m160,22.58s9.52.65,13.48,0c0,0,.12-7.58,1.73-9.18,1.61-1.61,6.76-4.12,9.5-3.79,0,0-1.71-1.43-7.09-.77-5.38.66-12.98,4.56-14.16,6.1s-3.46,7.64-3.46,7.64Z"/>
              <path class="cls-44" d="m139.87,23.15s1.46.56,4.12.84,10.76-2.32,10.76-2.32l.57-.7s-3.04-1.29-6.56-.63c-3.52.65-8.79,1.88-8.89,2.81Z"/>
              <path class="cls-51" d="m195.92,19.65l-4.48,3.22s10.63-2.06,11.21-2.3c.58-.25,4.12-2.97,5.03-3.3.91-.33,7.39,0,7.39,0,0,0-6.26-2.35-11.81-1.5s-7.33,3.88-7.33,3.88Z"/>
            </g>
          </g>
          <path class="cls-5" d="m0,207.69s132.52,22.31,381.28,25.41c179.16,2.24,271.22-6.83,271.22-6.83v10.17L0,240.3v-32.61Z"/>
          <g>
            <polygon class="cls-22" points="259.54 205.25 260.87 123.04 266.49 103 270.58 103 273.13 79.03 273.13 79.03 276.63 102.86 279.88 102.86 286.72 122.81 286.72 208.28 259.54 205.25"/>
            <polygon class="cls-6" points="196.3 146.84 196.3 116.43 199.38 113.44 203.94 87.39 209.78 113.44 213.03 116.43 213.82 150.54 196.3 146.84"/>
            <polygon class="cls-10" points="140.45 132.91 140.45 113.26 142.43 111.32 145.38 94.48 149.16 111.32 151.26 113.26 151.77 135.3 140.45 132.91"/>
            <polygon class="cls-15" points="342.82 177.15 365.93 156.65 387.65 156.07 387.65 151.46 389.15 150.54 389.15 112.21 390.21 108.21 390.92 150.23 393.07 152.19 393.07 156.65 409.65 156.65 433.82 174.25 433.82 232.69 351.38 232.69 342.82 177.15"/>
            <g>
              <polygon class="cls-20" points="560.81 236.05 558.43 185.73 560.85 185.73 549.21 167.71 517.15 166.29 517.15 112.67 505.69 105.54 504.71 77.5 504.35 77.5 504.99 105.46 476.09 106.92 475.59 115.89 473.6 117.97 473.02 138.32 447.01 176.81 423.67 176.81 423.67 171.66 422.73 170.49 422.35 158.54 421.35 154.93 419.73 158.08 419.73 170.44 418.81 171.06 418.81 176.55 409.65 193.94 411.74 193.94 409.65 216.01 405.15 220.33 393.99 218.32 365.18 213.93 353.44 209.06 353.9 154.17 339.19 128.37 332.53 128.37 331.52 114.28 329.99 112.44 329.99 75.09 329.1 75.09 329.1 111.97 297.19 132.76 293.9 132.43 268.29 154.4 271.36 154.17 269.96 199.93 267.51 201.1 252.65 214.03 249.55 207.51 247.5 121.27 232.32 113.28 180.25 117.58 180.11 124.96 177.13 128.37 169.81 128.37 169.81 112.44 167.96 108.21 161.3 73.94 155.4 108.69 153.53 113.13 153.88 124.65 148.03 128.37 137.35 128.37 137.35 115.43 135.41 111.97 128.59 89.38 123.52 111.05 120.29 115.89 119.71 132.66 120.82 147.82 100.47 162.73 75.88 192.58 80.49 192.58 76.61 236.59 560.81 236.05"/>
              <polygon class="cls-23" points="233.49 224.18 232.32 113.28 247.5 121.27 249.55 209.66 233.49 224.18"/>
              <polygon class="cls-9" points="169.81 128.37 169.81 200.93 179.59 208.38 177.13 128.37 169.81 128.37"/>
              <polygon class="cls-21" points="153.88 124.65 153.88 173.23 147.84 186.44 148.03 128.37 153.88 124.65"/>
              <polygon class="cls-18" points="339.19 128.37 339.19 232.69 353.44 209.06 353.9 154.17 339.19 128.37"/>
              <polygon class="cls-17" points="329.1 111.97 329.1 184.13 332.53 178.71 332.53 128.37 331.52 114.28 329.1 111.97"/>
              <polygon class="cls-19" points="293.9 132.43 293.9 235.98 296.46 236.35 297.19 132.76 293.9 132.43"/>
              <polygon class="cls-8" points="505.69 105.54 505.69 236.59 521.76 237.3 517.15 112.67 505.69 105.54"/>
              <polygon class="cls-7" points="549.29 171.42 550.62 237.04 560.81 236.05 558.43 185.73 549.29 171.42"/>
              <polygon class="cls-26" points="303.28 132.08 304.7 130.77 304.7 233.35 302.78 232.76 303.28 132.08"/>
              <polygon class="cls-16" points="309.31 128.41 310.74 127.11 310.74 229.68 308.81 229.09 309.31 128.41"/>
              <polygon class="cls-12" points="315.7 124.66 317.12 123.36 317.12 225.93 315.2 225.34 315.7 124.66"/>
              <polygon class="cls-27" points="322.12 120.82 323.54 119.52 323.54 222.09 321.62 221.5 322.12 120.82"/>
            </g>
            <polygon class="cls-4" points="34.28 237.05 32.48 202 16.6 201.47 16.02 236.89 34.28 237.05"/>
            <polygon class="cls-13" points="71.27 229.65 70.05 201.74 58.08 201.74 58.08 209.06 55.44 209.06 55.44 196.24 43.12 195.5 43.12 233.35 71.27 229.65"/>
            <polygon class="cls-11" points="630.43 229.65 630.43 201.74 617.24 201.74 617.24 209.06 614.61 209.06 614.61 196.24 602.28 195.5 602.28 233.35 630.43 229.65"/>
            <polygon class="cls-14" points="597.46 232.69 596.72 191.21 589.06 191.21 587.74 231.74 597.46 232.69"/>
            <polygon class="cls-24" points="586.21 231.08 587.08 196.11 568.53 195.5 567.46 230.12 586.21 231.08"/>
          </g>
          <g>
            <polygon class="cls-25" points="0 235.59 652.5 236.44 652.5 261 0 260.9 0 235.59"/>
            <polygon class="cls-3" points="0 237.14 370.78 239.03 513.89 239.1 43.59 246.43 164.8 255.83 652.5 261 0 260.9 0 237.14"/>
            <polygon class="cls-3" points="451.21 238.96 652.5 241.99 652.5 237.21 546.69 239.18 451.21 238.96"/>
            <polygon class="cls-31" points="454.81 238.16 652.5 241.99 562.52 241.16 454.81 238.16"/>
            <polygon class="cls-31" points="43.59 246.43 413.39 238.88 217.79 243.72 43.59 246.43"/>
            <polygon class="cls-3" points="281.84 249.07 355.77 246.43 556.42 245.2 652.5 241.99 531.42 246.93 536.32 248.3 652.5 250.51 652.5 255.83 281.84 249.07"/>
            <polygon class="cls-36" points="348.07 257.77 360.92 253.12 501.35 254.42 515.66 259.55 348.07 257.77"/>
            <polygon class="cls-36" points="548.34 254.86 558.23 259.55 627.13 260.73 618.73 255.51 548.34 254.86"/>
            <polygon class="cls-36" points="358.18 246.43 486.52 245.7 466.02 239.85 280.19 242.66 358.18 246.43"/>
            <polygon class="cls-37" points="46.23 246.39 240.94 243.36 285.19 249.07 164.8 255.83 46.23 246.39"/>
          </g>
          <path class="cls-2" d="m562.85,211.92s-1.24,5.95-.99,10.65c0,0,1.4-8.65,3.96-12.91l-2.97,2.26Z"/>
        </g>
      </g>
    </g>
  </g>
</svg>