<?xml version="1.0" encoding="UTF-8"?>
<svg id="Layer_2" data-name="Layer 2" xmlns="http://www.w3.org/2000/svg" viewBox="0 0 47.67 52.95">
  <defs>
    <style>
      .cls-1 {
        fill: #5a6571;
      }

      .cls-2 {
        fill: #fff;
      }

      .cls-3 {
        fill: #f60;
      }

      .cls-4 {
        fill: #3f3e37;
      }

      .cls-5 {
        fill: #4d4d4d;
      }

      .cls-6 {
        fill: none;
        stroke: #ccc;
        stroke-miterlimit: 10;
        stroke-width: .35px;
      }

      .cls-7 {
        fill: #668b00;
      }

      .cls-8 {
        fill: #333;
      }

      .cls-9 {
        fill: #d0e2ed;
      }

      .cls-10 {
        fill: gray;
      }

      .cls-11 {
        fill: #c9e700;
      }

      .cls-12 {
        fill: #7f7d6e;
      }

      .cls-13 {
        fill: #5c5b54;
      }

      .cls-14 {
        fill: #bfbca5;
      }

      .cls-15 {
        fill: #1a1a1a;
      }

      .cls-16 {
        fill: #666;
      }
    </style>
  </defs>
  <g id="Layer_1-2" data-name="Layer 1">
    <g>
      <path class="cls-15" d="m25.01,13.03c-1.31-.13-2.49.84-2.62,2.16-.13,1.31.84,2.49,2.16,2.62l8.08.78c1.31.13,2.49-.84,2.62-2.16.13-1.31-.84-2.49-2.16-2.62l-8.08-.78Z"/>
      <g>
        <path id="ArmOne" class="cls-15" d="m25.83,15.92h0c-.35,1.27-1.68,2.02-2.95,1.67l-10.81-3.01c-1.27-.35-2.02-1.68-1.67-2.95h0c.35-1.27,1.68-2.02,2.95-1.67l10.81,3.01c1.27.35,2.02,1.68,1.67,2.95Z"/>
        <path class="cls-8" d="m22.21,13.89h0c.56-1.99-.62-4.07-2.61-4.63l-5.18-1.45c-1.99-.56-4.07.62-4.63,2.61h0c-.56,1.99.62,4.07,2.61,4.63l5.18,1.45c1.99.56,4.07-.62,4.63-2.61Z"/>
        <path class="cls-15" d="m22.88,14.62h0c.56-1.99-.62-4.07-2.61-4.63l-5.18-1.45c-1.99-.56-4.07.62-4.63,2.61h0c-.56,1.99.62,4.07,2.61,4.63l5.18,1.45c1.99.56,4.07-.62,4.63-2.61Z"/>
        <path class="cls-14" d="m20.75,13.48h0c.56-1.99-.62-4.07-2.61-4.63l-3.72-1.04c-1.99-.56-4.07.62-4.63,2.61h0c-.56,1.99.62,4.07,2.61,4.63l3.72,1.04c1.99.56,4.07-.62,4.63-2.61Z"/>
        <path class="cls-12" d="m21.84,15.22h0c.56-1.99-.62-4.07-2.61-4.63l-5.18-1.45c-1.99-.56-4.07.62-4.63,2.61h0c-.56,1.99.62,4.07,2.61,4.63l5.18,1.45c1.99.56,4.07-.62,4.63-2.61Z"/>
        <path class="cls-15" d="m20.92,15.46h0c.42-1.5-.47-3.08-1.97-3.5l-5.17-1.44c-1.5-.42-3.08.47-3.5,1.97h0c-.42,1.5.47,3.08,1.97,3.5l5.17,1.44c1.5.42,3.08-.47,3.5-1.97Z"/>
        <path class="cls-5" d="m11.48,12.82h0c-.27.98.31,2.01,1.29,2.29l4.66,1.3c.98.27,2.01-.31,2.29-1.29h0c.27-.98-.31-2.01-1.29-2.29l-4.67-1.3c-.98-.27-2.01.31-2.29,1.29Z"/>
        <path class="cls-15" d="m13.15,14.87l-.18.64c-.08.29.09.59.38.67h0c.29.08.59-.09.67-.38l.18-.64c.08-.29-.09-.59-.38-.67h0c-.29-.08-.59.09-.67.38Z"/>
        <path class="cls-15" d="m16.03,15.68l-.18.64c-.08.29.09.59.38.67h0c.29.08.59-.09.67-.38l.18-.64c.08-.29-.09-.59-.38-.67h0c-.29-.08-.59.09-.67.38Z"/>
        <path class="cls-15" d="m14.15,11.29l-.18.64c-.08.29.09.59.38.67h0c.29.08.59-.09.67-.38l.18-.64c.08-.29-.09-.59-.38-.67h0c-.29-.08-.59.09-.67.38Z"/>
        <path class="cls-15" d="m17.03,12.1l-.18.64c-.08.29.09.59.38.67h0c.29.08.59-.09.67-.38l.18-.64c.08-.29-.09-.59-.38-.67h0c-.29-.08-.59.09-.67.38Z"/>
        <path class="cls-15" d="m12.64,13.16h0c-.17.63.19,1.28.82,1.46l3.33.93c.63.17,1.28-.19,1.46-.82h0c.17-.63-.19-1.28-.82-1.46l-3.33-.93c-.63-.17-1.28.19-1.46.82Z"/>
        <path class="cls-5" d="m14.06,12.86c-.36-.1-.73.11-.83.47-.1.36.11.73.47.83.36.1.73-.11.83-.47s-.11-.73-.47-.83Z"/>
        <g>
          <path class="cls-15" d="m14.27,8.58c-.32-.09-.66.1-.75.42-.09.32.1.66.42.75.32.09.66-.1.75-.42.09-.32-.1-.66-.42-.75Z"/>
          <path class="cls-15" d="m18.95,9.88c-.32-.09-.66.1-.75.42s.1.66.42.75c.32.09.66-.1.75-.42.09-.32-.1-.66-.42-.75Z"/>
          <path class="cls-3" d="m12.4,7.72h0c-.09.31.1.63.4.72l7.76,2.16c.31.09.63-.1.72-.4h0c.09-.31-.1-.63-.4-.72l-7.76-2.16c-.31-.09-.63.1-.72.4Z"/>
          <path class="cls-5" d="m13.61,8.54h0c-.07.25.08.51.33.58l5.31,1.48c.25.07.51-.08.58-.33h0c.07-.25-.08-.51-.33-.58l-5.31-1.48c-.25-.07-.51.08-.58.33Z"/>
          <path class="cls-2" d="m18.4,9.12c-.24-.07-.5.07-.57.32-.07.24.07.5.32.57.24.07.5-.07.57-.32.07-.24-.07-.5-.32-.57Z"/>
          <path class="cls-2" d="m14.96,8.16c-.24-.07-.5.07-.57.32-.07.24.07.5.32.57.24.07.5-.07.57-.32.07-.24-.07-.5-.32-.57Z"/>
        </g>
      </g>
      <g>
        <path class="cls-14" d="m26.93,39.54h0c1.75-1.1,2.29-3.43,1.19-5.18l-4.33-6.92c-1.1-1.75-3.43-2.29-5.18-1.19h0c-1.75,1.1-2.29,3.43-1.19,5.18l4.33,6.92c1.1,1.75,3.43,2.29,5.18,1.19Z"/>
        <path class="cls-12" d="m25.79,40.33h0c1.75-1.1,2.29-3.43,1.19-5.18l-4.37-6.98c-1.1-1.75-3.43-2.29-5.18-1.19h0c-1.75,1.1-2.29,3.43-1.19,5.18l4.37,6.98c1.1,1.75,3.43,2.29,5.18,1.19Z"/>
        <path class="cls-15" d="m24.95,39.88h0c1.32-.83,1.73-2.59.9-3.91l-4.36-6.97c-.83-1.32-2.59-1.73-3.91-.9h0c-1.32.83-1.73,2.59-.9,3.91l4.36,6.97c.83,1.32,2.59,1.73,3.91.9Z"/>
        <path class="cls-5" d="m18.24,29.16h0c-.87.54-1.13,1.7-.59,2.56l4.08,6.52c.54.87,1.7,1.13,2.56.59h0c.87-.54,1.13-1.7.59-2.56l-4.08-6.52c-.54-.87-1.7-1.13-2.56-.59Z"/>
        <path class="cls-15" d="m18.09,31.8l-.56.35c-.26.16-.33.5-.17.75h0c.16.26.5.33.75.17l.56-.35c.25-.16.33-.5.17-.75h0c-.16-.26-.5-.33-.75-.17Z"/>
        <path class="cls-15" d="m21.24,29.82l-.56.35c-.26.16-.33.5-.17.75h0c.16.26.5.33.75.17l.56-.35c.25-.16.33-.5.17-.75h0c-.16-.26-.5-.33-.75-.17Z"/>
        <path class="cls-15" d="m18.87,30.19h0c-.55.35-.72,1.08-.37,1.63l3.35,5.35c.35.55,1.08.72,1.63.38h0c.55-.35.72-1.08.37-1.63l-3.35-5.35c-.35-.55-1.08-.72-1.63-.38Z"/>
        <path class="cls-5" d="m20.15,30.97c-.2-.32-.62-.41-.93-.21-.32.2-.41.62-.21.93.2.32.62.41.93.21.32-.2.41-.62.21-.93Z"/>
        <path class="cls-15" d="m25.06,35.69c-.9-1.43-2.51-2.04-3.6-1.36-1.09.68-1.24,2.4-.35,3.83s2.51,2.04,3.6,1.36c1.09-.68,1.24-2.4.35-3.83Z"/>
        <g>
          <path class="cls-15" d="m23.39,28.26c-.18-.28-.55-.37-.83-.19s-.37.55-.19.83c.18.28.55.37.83.19s.37-.55.19-.83Z"/>
          <path class="cls-15" d="m27.48,34.8c-.18-.28-.55-.37-.83-.19-.28.18-.37.55-.19.83.18.28.55.37.83.19.28-.18.37-.55.19-.83Z"/>
          <path class="cls-3" d="m22.59,26.37h0c-.27.17-.35.53-.18.8l5.79,9.24c.17.27.53.35.8.18h0c.27-.17.35-.53.18-.8l-5.79-9.24c-.17-.27-.53-.35-.8-.18Z"/>
          <path class="cls-5" d="m22.92,27.79h0c-.22.14-.29.43-.15.65l4.44,7.09c.14.22.43.29.65.15h0c.22-.14.29-.43.15-.65l-4.44-7.09c-.14-.22-.43-.29-.65-.15Z"/>
          <path class="cls-2" d="m27.59,33.86c-.13-.21-.42-.28-.63-.15-.21.13-.28.42-.15.63.13.21.42.28.63.15.21-.13.28-.42.15-.63Z"/>
          <path class="cls-2" d="m24.18,28.42c-.13-.21-.42-.28-.63-.15-.21.13-.28.42-.15.63s.42.28.63.15c.21-.13.28-.42.15-.63Z"/>
        </g>
      </g>
      <g>
        <g>
          <path class="cls-15" d="m20.87,48.5c-.07.06-.18.09-.27.06-.13-.04-3.21-.99-3.4-2.99-.14-1.52,1.45-3.15,4.72-4.84.14-.07.32-.02.39.12.07.14.02.32-.12.39-3,1.55-4.52,3.03-4.41,4.27.15,1.61,2.96,2.48,2.99,2.49.15.05.24.21.19.36-.02.05-.05.1-.09.13Z"/>
          <path class="cls-15" d="m21.4,40.58h0c-.14-.02-.27.07-.3.21l-.2,1.21c-.02.14.07.27.21.3h0c.14.02.27-.07.3-.21l.2-1.21c.02-.14-.07-.27-.21-.3Z"/>
          <path class="cls-15" d="m20.25,47.49h0c-.14-.02-.27.07-.3.21l-.11.67c-.02.14.07.27.21.3h0c.14.02.27-.07.3-.21l.11-.67c.02-.14-.07-.27-.21-.3Z"/>
          <path class="cls-16" d="m24.14,45.91c-.04.09-.12.15-.23.17-.14.02-3.34.41-4.33-1.33-.75-1.33.03-3.46,2.32-6.35.1-.13.28-.15.41-.05.12.1.15.28.05.41-2.1,2.65-2.88,4.62-2.27,5.7.8,1.41,3.72,1.05,3.75,1.05.16-.02.3.09.32.25,0,.06,0,.11-.02.16Z"/>
          <path class="cls-15" d="m21.8,38.22h0c-.14-.02-.27.07-.3.21l-.25,1.51c-.02.14.07.27.21.3h0c.14.02.27-.07.3-.21l.25-1.51c.02-.14-.07-.27-.21-.3Z"/>
          <path class="cls-15" d="m20.71,44.73h0c-.14-.02-.27.07-.3.21l-.12.7c-.02.14.07.27.21.3h0c.14.02.27-.07.3-.21l.12-.7c.02-.14-.07-.27-.21-.3Z"/>
          <g id="ShinTwo">
            <path class="cls-15" d="m22.14,51.01h0c-1.26-.21-2.12-1.42-1.91-2.68l1.7-10.2c.21-1.26,1.42-2.12,2.68-1.91h0c1.26.21,2.12,1.42,1.91,2.68l-1.7,10.2c-.21,1.26-1.42,2.12-2.68,1.91Z"/>
          </g>
          <path class="cls-2" d="m20.69,41.35c.04-.22-.11-.42-.33-.46-.22-.04-.42.11-.46.33-.04.22.11.42.33.46.22.04.42-.11.46-.33Z"/>
          <path class="cls-2" d="m19.77,43.84c.03-.16-.08-.31-.24-.34-.16-.03-.31.08-.34.24-.03.16.08.31.24.34s.31-.08.34-.24Z"/>
        </g>
        <path class="cls-13" d="m25.29,38.65c.11-.64-.33-1.25-.97-1.36-.64-.11-1.25.33-1.36.97-.11.64.33,1.25.97,1.36.64.11,1.25-.33,1.36-.97Z"/>
      </g>
      <g>
        <path class="cls-15" d="m3.64,48.41c-.08.05-.19.06-.28.02-.12-.06-3.02-1.47-2.9-3.47.09-1.52,1.91-2.89,5.4-4.07.15-.05.32.03.37.18.05.15-.03.31-.18.37-3.2,1.08-4.93,2.31-5.01,3.55-.1,1.62,2.55,2.9,2.57,2.92.14.07.21.24.14.39-.02.05-.06.09-.11.12Z"/>
        <path class="cls-15" d="m5.37,40.66h0c-.13-.04-.28.03-.32.16l-.38,1.16c-.04.13.03.28.16.32h0c.13.04.28-.03.32-.16l.38-1.16c.04-.13-.03-.28-.16-.32Z"/>
        <path class="cls-15" d="m3.17,47.31h0c-.13-.04-.28.03-.33.16l-.21.64c-.04.13.03.28.16.33h0c.13.04.28-.03.33-.16l.21-.64c.04-.13-.03-.28-.16-.33Z"/>
        <path class="cls-7" d="m7.27,46.35c-.05.08-.15.13-.25.13-.14,0-3.36-.1-4.07-1.98-.54-1.43.56-3.42,3.26-5.92.12-.11.3-.1.41.02.11.12.1.3-.02.41-2.48,2.29-3.55,4.12-3.11,5.29.57,1.52,3.51,1.61,3.54,1.61.16,0,.29.14.28.3,0,.06-.02.11-.05.15Z"/>
        <path class="cls-15" d="m6.12,38.39h0c-.13-.04-.28.03-.32.16l-.48,1.45c-.04.13.03.28.16.32h0c.13.04.28-.03.32-.16l.48-1.45c.04-.13-.03-.28-.16-.32Z"/>
        <path class="cls-15" d="m4.05,44.66h0c-.13-.04-.28.03-.32.16l-.22.68c-.04.13.03.28.16.32h0c.13.04.28-.03.32-.16l.22-.68c.04-.13-.03-.28-.16-.32Z"/>
        <g id="ShinTwo-2" data-name="ShinTwo">
          <path class="cls-8" d="m4.5,51.08h0c-1.22-.4-1.88-1.72-1.48-2.94l3.24-9.82c.4-1.22,1.72-1.88,2.94-1.48h0c1.22.4,1.88,1.72,1.48,2.94l-3.24,9.82c-.4,1.22-1.72,1.88-2.94,1.48Z"/>
        </g>
        <path class="cls-5" d="m4.62,49.05h0c-.28-.09-.43-.39-.34-.67l2.14-6.49c.09-.28.39-.43.67-.34h0c.28.09.43.39.34.67l-2.14,6.49c-.09.28-.39.43-.67.34Z"/>
        <path class="cls-2" d="m5.28,46.95h0c-.29-.1-.45-.41-.35-.7l.29-.89c.1-.29.41-.45.7-.35h0c.29.1.45.41.35.7l-.29.89c-.1.29-.41.45-.7.35Z"/>
        <path class="cls-2" d="m4.55,41.31c.07-.21-.04-.43-.25-.5-.21-.07-.43.04-.5.25-.07.21.04.43.25.5s.43-.04.5-.25Z"/>
        <path class="cls-2" d="m3.26,43.63c.05-.16-.03-.32-.19-.37-.16-.05-.32.03-.37.19-.05.16.03.32.19.37s.32-.03.37-.19Z"/>
      </g>
      <g>
        <path class="cls-14" d="m28.25,51.89c0-2.9-2.35-5.06-5.25-5.06s-5.25,2.16-5.25,5.06h10.5Z"/>
        <path class="cls-12" d="m26.22,51.89c.12-.34.19-.71.19-1.09,0-1.88-1.53-3.41-3.41-3.41s-3.41,1.53-3.41,3.41c0,.38.08.75.19,1.09h6.44Z"/>
        <path class="cls-15" d="m18.81,50.8h8.37c.59,0,1.06.48,1.06,1.06v.03c0,.59-.48,1.06-1.06,1.06h-8.37c-.59,0-1.06-.48-1.06-1.06v-.03c0-.59.48-1.06,1.06-1.06Z"/>
        <path class="cls-2" d="m26.47,49.22c0,.68-.55,1.24-1.24,1.24s-1.24-.55-1.24-1.24.55-1.24,1.24-1.24,1.24.55,1.24,1.24Z"/>
        <circle class="cls-2" cx="23.23" cy="47.98" r=".64"/>
        <path class="cls-5" d="m19.59,51.47h0c-.38,0-.69-.31-.69-.69h0c0-.38.31-.69.69-.69h0c.38,0,.69.31.69.69h0c0,.38-.31.69-.69.69Z"/>
        <path class="cls-5" d="m26.63,51.47h0c-.38,0-.69-.31-.69-.69h0c0-.38.31-.69.69-.69h0c.38,0,.69.31.69.69h0c0,.38-.31.69-.69.69Z"/>
        <path class="cls-5" d="m24.28,51.47h0c-.38,0-.69-.31-.69-.69h0c0-.38.31-.69.69-.69h0c.38,0,.69.31.69.69h0c0,.38-.31.69-.69.69Z"/>
        <path class="cls-5" d="m21.93,51.47h0c-.38,0-.69-.31-.69-.69h0c0-.38.31-.69.69-.69h0c.38,0,.69.31.69.69h0c0,.38-.31.69-.69.69Z"/>
      </g>
      <g>
        <path class="cls-14" d="m10.69,51.89c0-2.9-2.35-5.06-5.25-5.06S.19,48.99.19,51.89h10.5Z"/>
        <path class="cls-12" d="m8.66,51.89c.12-.34.19-.71.19-1.09,0-1.88-1.53-3.41-3.41-3.41s-3.41,1.53-3.41,3.41c0,.38.08.75.19,1.09h6.44Z"/>
        <path class="cls-15" d="m1.25,50.8h8.37c.59,0,1.06.48,1.06,1.06v.03c0,.59-.48,1.06-1.06,1.06H1.25c-.59,0-1.06-.48-1.06-1.06v-.03c0-.59.48-1.06,1.06-1.06Z"/>
        <path class="cls-2" d="m8.91,49.22c0,.68-.55,1.24-1.24,1.24s-1.24-.55-1.24-1.24.55-1.24,1.24-1.24,1.24.55,1.24,1.24Z"/>
        <circle class="cls-2" cx="5.67" cy="47.98" r=".64"/>
        <path class="cls-5" d="m2.03,51.47h0c-.38,0-.69-.31-.69-.69h0c0-.38.31-.69.69-.69h0c.38,0,.69.31.69.69h0c0,.38-.31.69-.69.69Z"/>
        <path class="cls-5" d="m9.07,51.47h0c-.38,0-.69-.31-.69-.69h0c0-.38.31-.69.69-.69h0c.38,0,.69.31.69.69h0c0,.38-.31.69-.69.69Z"/>
        <path class="cls-5" d="m6.72,51.47h0c-.38,0-.69-.31-.69-.69h0c0-.38.31-.69.69-.69h0c.38,0,.69.31.69.69h0c0,.38-.31.69-.69.69Z"/>
        <path class="cls-5" d="m4.37,51.47h0c-.38,0-.69-.31-.69-.69h0c0-.38.31-.69.69-.69h0c.38,0,.69.31.69.69h0c0,.38-.31.69-.69.69Z"/>
      </g>
      <g>
        <g>
          <path class="cls-15" d="m2.7,16.99h0c-1.49,0-2.7,1.22-2.7,2.7v5.58c0,1.49,1.22,2.7,2.7,2.7h0c1.49,0,2.7-1.22,2.7-2.7v-5.58c0-1.49-1.22-2.7-2.7-2.7Z"/>
          <path class="cls-15" d="m5.74,12.42c-1.31,0-2.37,1.06-2.37,2.37s1.06,2.37,2.37,2.37,2.37-1.06,2.37-2.37-1.06-2.37-2.37-2.37Zm0,3.69c-.73,0-1.32-.59-1.32-1.32s.59-1.32,1.32-1.32,1.32.59,1.32,1.32-.59,1.32-1.32,1.32Z"/>
          <path class="cls-15" d="m9.26,30.78h0c-4.22,0-7.68-3.45-7.68-7.68v-3.09c0-4.22,3.45-7.68,7.68-7.68h0c4.22,0,7.68,3.45,7.68,7.68v3.09c0,4.22-3.45,7.68-7.68,7.68Z"/>
          <path class="cls-12" d="m10.02,29.16h0c-3.51,0-6.39-2.88-6.39-6.4v-2.58c0-3.52,2.87-6.4,6.39-6.4h0c3.51,0,6.39,2.88,6.39,6.4v2.58c0,3.52-2.87,6.4-6.39,6.4Z"/>
          <path class="cls-4" d="m7.69,27.56h0c-2.8,0-5.1-2.29-5.1-5.1v-2.05c0-2.8,2.29-5.1,5.1-5.1h0c2.8,0,5.1,2.29,5.1,5.1v2.05c0,2.8-2.29,5.1-5.1,5.1Z"/>
          <g>
            <path class="cls-15" d="m5.19,29.06h0c-1.38,0-2.5-1.13-2.5-2.5v-2.76c0-1.38,1.13-2.5,2.5-2.5h0c1.38,0,2.5,1.13,2.5,2.5v2.76c0,1.38-1.13,2.5-2.5,2.5Z"/>
            <path class="cls-14" d="m3.76,28.41h0c-.94,0-1.72-.77-1.72-1.72v-2.21c0-.94.77-1.72,1.72-1.72h0c.94,0,1.72.77,1.72,1.72v2.21c0,.94-.77,1.72-1.72,1.72Z"/>
            <path class="cls-12" d="m4.42,28.41h0c-.94,0-1.72-.77-1.72-1.72v-2.21c0-.94.77-1.72,1.72-1.72h0c.94,0,1.72.77,1.72,1.72v2.21c0,.94-.77,1.72-1.72,1.72Z"/>
          </g>
          <g>
            <path class="cls-15" d="m5.32,24.04h-1.79c-.12,0-.22-.1-.22-.22h0c0-.12.1-.22.22-.22h1.79c.12,0,.22.1.22.22h0c0,.12-.1.22-.22.22Z"/>
            <path class="cls-3" d="m4.42,24.06c-.3,0-.54.24-.54.54v1.06c0,.3.24.54.54.54s.54-.24.54-.54v-1.06c0-.3-.24-.54-.54-.54Zm0,1.75c-.14,0-.26-.12-.26-.26s.12-.26.26-.26.26.12.26.26-.12.26-.26.26Z"/>
            <path class="cls-15" d="m4.96,23.85c0-.3-.24-.54-.54-.54s-.54.24-.54.54.24.54.54.54.54-.24.54-.54Z"/>
            <path class="cls-2" d="m4.58,24.49c0,.24-.19.43-.43.43s-.43-.19-.43-.43.19-.43.43-.43.43.19.43.43Z"/>
          </g>
          <path class="cls-15" d="m9.76,17.3H2.15c-.37,0-.67.3-.67.67h0c0,.37.3.67.67.67h7.61c.37,0,.67-.3.67-.67h0c0-.37-.3-.67-.67-.67Z"/>
          <path class="cls-12" d="m4.85,16.55h-2.71c-.37,0-.67.3-.67.67h0c0,.37.3.67.67.67h2.71c.37,0,.67-.3.67-.67h0c0-.37-.3-.67-.67-.67Z"/>
          <path class="cls-15" d="m9.34,20.12H1.73c-.37,0-.67.3-.67.67h0c0,.37.3.67.67.67h7.61c.37,0,.67-.3.67-.67h0c0-.37-.3-.67-.67-.67Z"/>
          <path class="cls-12" d="m4.85,19.45h-2.71c-.37,0-.67.3-.67.67h0c0,.37.3.67.67.67h2.71c.37,0,.67-.3.67-.67h0c0-.37-.3-.67-.67-.67Z"/>
        </g>
        <g>
          <path class="cls-6" d="m23.58,22.01l1.04.15c.44.07.78-.38.59-.79l-.4-.89c-.17-.37-.67-.45-.94-.14l-.64.74c-.29.34-.1.86.34.92Z"/>
          <path class="cls-6" d="m23.23,27.64l-.63-.84c-.27-.36-.82-.28-.98.14l-.34.91c-.14.38.16.79.57.76l.97-.07c.44-.03.67-.54.41-.9Z"/>
          <path class="cls-3" d="m23.57,21.66l1.15.17c.1.02.17.11.16.21l-.37,2.54c-.13.85-.41,1.68-.83,2.43l-.53.94c-.08.06-.2.05-.26-.04l-.71-.92c-.06-.08-.05-.2.04-.26h0c.38-.72.64-1.5.76-2.3l.38-2.62c.02-.1.11-.17.21-.16Z"/>
          <path class="cls-15" d="m15.28,32.35h0c-4.6,0-8.36-3.76-8.36-8.36v-6.64c0-2.6,2.13-4.73,4.73-4.73h7.25c2.6,0,4.73,2.13,4.73,4.73v6.64c0,4.6-3.76,8.36-8.36,8.36Z"/>
          <path class="cls-4" d="m13.85,25.61l1.3-.31c3.12-.74,5.83,2.27,4.76,5.29l-.34.96c-.58,1.63-2.64,2.11-3.88.91l-2.93-2.85c-1.34-1.3-.71-3.57,1.1-4Z"/>
          <path class="cls-12" d="m15.98,25.24h4.43c1.88-.01,3.01,2.06,1.99,3.64l-2.23,3.46c-.93,1.45-3.06,1.45-3.99-.01l-2.2-3.45c-1-1.57.13-3.63,1.99-3.64Z"/>
          <path class="cls-2" d="m18.18,25.46l1.91.16c1.96.16,2.97,2.43,1.77,3.99l-1.09,1.42c-1.1,1.44-3.33,1.25-4.17-.36l-.83-1.57c-.91-1.73.45-3.79,2.4-3.63Z"/>
          <path class="cls-14" d="m18.07,25.96l1.64.13c1.68.14,2.53,2.24,1.49,3.7l-.94,1.32c-.96,1.34-2.86,1.18-3.58-.31l-.7-1.46c-.77-1.61.41-3.53,2.08-3.39Z"/>
          <rect class="cls-4" x="9.61" y="13.65" width="7.93" height="9.49" rx="3.96" ry="3.96"/>
          <path class="cls-4" d="m20.17,13.6h0c-2.18,0-3.96,1.78-3.96,3.97v1.56c0,2.18,1.78,3.97,3.96,3.97h0c2.18,0,3.96-1.78,3.96-3.97v-1.56c0-2.18-1.78-3.97-3.96-3.97Z"/>
          <path class="cls-12" d="m17.11,13.89h0c-2.05-.75-4.34.32-5.08,2.37l-.53,1.46c-.75,2.05.32,4.34,2.37,5.08h0c2.05.75,4.34-.32,5.08-2.37l.53-1.46c.75-2.05-.32-4.34-2.37-5.08Z"/>
          <path class="cls-12" d="m23.82,13.84h0c-2.05-.75-4.34.32-5.08,2.37l-.53,1.46c-.75,2.05.32,4.34,2.37,5.08h0c2.05.75,4.34-.32,5.08-2.37l.53-1.46c.75-2.05-.32-4.34-2.37-5.08Z"/>
          <path class="cls-2" d="m16.47,14.36h0c-1.52,0-2.76,1.24-2.76,2.76v1.17c0,1.52,1.24,2.76,2.76,2.76h0c1.52,0,2.76-1.24,2.76-2.76v-1.17c0-1.52-1.24-2.76-2.76-2.76Z"/>
          <path class="cls-14" d="m15.8,15.01h0c-1.52,0-2.76,1.24-2.76,2.76v.53c0,1.52,1.24,2.76,2.76,2.76h0c1.52,0,2.76-1.24,2.76-2.76v-.53c0-1.52-1.24-2.76-2.76-2.76Z"/>
          <path class="cls-2" d="m23.14,14.36h0c-1.52,0-2.76,1.24-2.76,2.76v1.17c0,1.52,1.24,2.76,2.76,2.76h0c1.52,0,2.76-1.24,2.76-2.76v-1.17c0-1.52-1.24-2.76-2.76-2.76Z"/>
          <path class="cls-14" d="m22.62,15.01h0c-1.52,0-2.76,1.24-2.76,2.76v.53c0,1.52,1.24,2.76,2.76,2.76h0c1.52,0,2.76-1.24,2.76-2.76v-.53c0-1.52-1.24-2.76-2.76-2.76Z"/>
          <path class="cls-4" d="m12.2,16.02h-1.1c-.29,0-.53.24-.53.53h0c0,.29.24.53.53.53h1.1c.29,0,.53-.24.53-.53h0c0-.29-.24-.53-.53-.53Z"/>
          <path class="cls-4" d="m11.59,18.93h-1.1c-.29,0-.53.24-.53.53h0c0,.29.24.53.53.53h1.1c.29,0,.53-.24.53-.53h0c0-.29-.24-.53-.53-.53Z"/>
          <path class="cls-12" d="m12.37,16.55c0-.13-.11-.24-.24-.24s-.24.11-.24.24.11.24.24.24.24-.11.24-.24Z"/>
          <path class="cls-4" d="m14.53,25.98h-1.1c-.29,0-.53.24-.53.53h0c0,.29.24.53.53.53h1.1c.29,0,.53-.24.53-.53h0c0-.29-.24-.53-.53-.53Z"/>
          <path class="cls-12" d="m14.71,26.51c0-.13-.11-.24-.24-.24s-.24.11-.24.24.11.24.24.24.24-.11.24-.24Z"/>
          <path class="cls-4" d="m14.77,28.71h-1.1c-.29,0-.53.24-.53.53h0c0,.29.24.53.53.53h1.1c.29,0,.53-.24.53-.53h0c0-.29-.24-.53-.53-.53Z"/>
          <path class="cls-12" d="m14.95,29.24c0-.13-.11-.24-.24-.24s-.24.11-.24.24.11.24.24.24.24-.11.24-.24Z"/>
          <path class="cls-12" d="m11.79,19.46c0-.13-.11-.24-.24-.24s-.24.11-.24.24.11.24.24.24.24-.11.24-.24Z"/>
          <path class="cls-15" d="m10.16,16.02h-1.1c-.29,0-.53.24-.53.53h0c0,.29.24.53.53.53h1.1c.29,0,.53-.24.53-.53h0c0-.29-.24-.53-.53-.53Z"/>
          <path class="cls-4" d="m10.33,16.55c0-.13-.11-.24-.24-.24s-.24.11-.24.24.11.24.24.24.24-.11.24-.24Z"/>
          <path class="cls-15" d="m12.92,27.76h-1.1c-.29,0-.53.24-.53.53h0c0,.29.24.53.53.53h1.1c.29,0,.53-.24.53-.53h0c0-.29-.24-.53-.53-.53Z"/>
          <path class="cls-15" d="m10.16,18.03h-1.1c-.29,0-.53.24-.53.53h0c0,.29.24.53.53.53h1.1c.29,0,.53-.24.53-.53h0c0-.29-.24-.53-.53-.53Z"/>
          <path class="cls-4" d="m10.33,18.56c0-.13-.11-.24-.24-.24s-.24.11-.24.24.11.24.24.24.24-.11.24-.24Z"/>
          <path class="cls-15" d="m10.4,20.21h-1.1c-.29,0-.53.24-.53.53h0c0,.29.24.53.53.53h1.1c.29,0,.53-.24.53-.53h0c0-.29-.24-.53-.53-.53Z"/>
          <path class="cls-2" d="m18.34,15.32c.49.64.45,1.48-.07,1.88-.52.4-1.34.21-1.83-.43s-.45-1.48.07-1.88c.52-.4,1.34-.21,1.83.43Z"/>
          <path class="cls-2" d="m17.01,16.21c.12.24-.08.58-.45.77-.37.19-.77.15-.89-.09-.12-.24.08-.58.45-.77.37-.19.77-.15.89.09Z"/>
          <path class="cls-2" d="m15.25,17.2c.05.1.01.23-.09.29-.1.05-.23.01-.29-.09-.05-.1-.01-.23.09-.29.1-.05.23-.01.29.09Z"/>
          <path class="cls-2" d="m21.52,26.47c.49.64.45,1.48-.07,1.88-.52.4-1.34.21-1.83-.43-.49-.64-.45-1.48.07-1.88.52-.4,1.34-.21,1.83.43Z"/>
          <path class="cls-2" d="m20.19,27.36c.12.24-.08.58-.45.77-.37.19-.77.15-.89-.09s.08-.58.45-.77c.37-.19.77-.15.89.09Z"/>
          <path class="cls-2" d="m18.43,28.34c.05.1.01.23-.09.29-.1.05-.23.01-.29-.09-.05-.1-.01-.23.09-.29s.23-.01.29.09Z"/>
          <path class="cls-2" d="m25.04,15.32c.49.64.45,1.48-.07,1.88s-1.34.21-1.83-.43-.45-1.48.07-1.88,1.34-.21,1.83.43Z"/>
          <path class="cls-2" d="m23.71,16.21c.12.24-.08.58-.45.77-.37.19-.77.15-.89-.09-.12-.24.08-.58.45-.77.37-.19.77-.15.89.09Z"/>
          <path class="cls-2" d="m21.95,17.2c.05.1.01.23-.09.29-.1.05-.23.01-.29-.09-.05-.1-.01-.23.09-.29s.23-.01.29.09Z"/>
          <path class="cls-12" d="m15.51,14.36h-2.72c-.2,0-.36-.16-.36-.36h0c0-.2.16-.36.36-.36h2.72c.2,0,.36.16.36.36h0c0,.2-.16.36-.36.36Z"/>
          <path class="cls-12" d="m22.4,14.31h-2.72c-.2,0-.36-.16-.36-.36h0c0-.2.16-.36.36-.36h2.72c.2,0,.36.16.36.36h0c0,.2-.16.36-.36.36Z"/>
          <path class="cls-2" d="m18.61,19.42h-.96c-.14,0-.26-.12-.26-.26h0c0-.14.12-.26.26-.26h.96c.14,0,.26.12.26.26h0c0,.14-.12.26-.26.26Z"/>
          <path class="cls-2" d="m25.35,19.42h-.96c-.14,0-.26-.12-.26-.26h0c0-.14.12-.26.26-.26h.96c.14,0,.26.12.26.26h0c0,.14-.12.26-.26.26Z"/>
          <path class="cls-2" d="m18.87,18.29h-.96c-.14,0-.26-.12-.26-.26h0c0-.14.12-.26.26-.26h.96c.14,0,.26.12.26.26h0c0,.14-.12.26-.26.26Z"/>
          <path class="cls-2" d="m25.61,18.29h-.96c-.14,0-.26-.12-.26-.26h0c0-.14.12-.26.26-.26h.96c.14,0,.26.12.26.26h0c0,.14-.12.26-.26.26Z"/>
          <path class="cls-2" d="m23.68,19.42h-.07c-.14,0-.26-.12-.26-.26h0c0-.14.12-.26.26-.26h.07c.14,0,.26.12.26.26h0c0,.14-.12.26-.26.26Z"/>
          <path class="cls-2" d="m16.38,19.42h-.07c-.14,0-.26-.12-.26-.26h0c0-.14.12-.26.26-.26h.07c.14,0,.26.12.26.26h0c0,.14-.12.26-.26.26Z"/>
          <rect class="cls-12" x="11.84" y="18.3" width="14.32" height=".62" rx=".29" ry=".29"/>
          <path class="cls-6" d="m10.97,22.05l-1.04.12c-.44.05-.76-.41-.57-.81l.44-.87c.18-.37.68-.42.94-.1l.61.76c.28.35.06.86-.38.91Z"/>
          <path class="cls-6" d="m11.11,27.69l.66-.82c.28-.35.83-.25.97.17l.31.93c.13.39-.19.78-.59.74l-.97-.11c-.44-.05-.65-.56-.38-.91Z"/>
          <path class="cls-3" d="m10.99,21.71l-1.15.13c-.1.01-.18.1-.17.21l.28,2.55c.09.86.34,1.69.74,2.46l.49.96c.08.07.2.05.27-.03l.74-.9c.07-.08.05-.2-.03-.27h0c-.36-.73-.58-1.52-.67-2.33l-.29-2.63c-.01-.1-.1-.18-.21-.17Z"/>
          <circle class="cls-15" cx="10.29" cy="20.29" r=".5"/>
          <circle class="cls-4" cx="10.29" cy="20.29" r=".27"/>
          <path class="cls-15" d="m13.46,28.64c-.03-.28-.28-.47-.55-.44-.28.03-.47.28-.44.55.03.28.28.47.55.44.28-.03.47-.28.44-.55Z"/>
          <path class="cls-4" d="m13.23,28.67c-.02-.15-.15-.26-.3-.24-.15.02-.26.15-.24.3s.15.26.3.24.26-.15.24-.3Z"/>
          <path class="cls-15" d="m12.03,24.1l-2.84.31c-.14.02-.27-.09-.28-.23h0c-.02-.14.09-.27.23-.28l2.84-.31c.14-.02.27.09.28.23h0c.02.14-.09.27-.23.28Z"/>
          <path class="cls-15" d="m10.22,25.22l-.85.09c-.13.01-.24-.08-.26-.21h0c-.01-.13.08-.24.21-.26l.85-.09c.13-.01.24.08.26.21h0c.01.13-.08.24-.21.26Z"/>
          <path class="cls-15" d="m11.6,25.78l1.06-.12c.12-.01.2-.12.19-.24h0c-.01-.12-.12-.2-.24-.19l-1.06.12c-.12.01-.2.12-.19.24h0c.01.12.12.2.24.19Z"/>
          <path class="cls-3" d="m10.51,23.3h0c-.17.02-.29.17-.27.34l.09.8c.02.17.17.29.34.27h0c.17-.02.29-.17.27-.34l-.09-.8c-.02-.17-.17-.29-.34-.27Z"/>
        </g>
      </g>
      <g>
        <path class="cls-15" d="m5.89,5.68h-1.95c-.55,0-1,.45-1,1h0c0,.55.45,1,1,1h1.95c.55,0,1-.45,1-1h0c0-.55-.45-1-1-1Z"/>
        <path class="cls-15" d="m6.97,9.53h-3.01c-.31,0-.56-.25-.56-.56h0c0-.31.25-.56.56-.56h3.01c.31,0,.56.25.56.56h0c0,.31-.25.56-.56.56Z"/>
        <path class="cls-15" d="m17.16,2.46h-1.95c-.55,0-1,.45-1,1h0c0,.55.45,1,1,1h1.95c.55,0,1-.45,1-1h0c0-.55-.45-1-1-1Z"/>
        <path class="cls-15" d="m25.59,11.84h-3.01c-.31,0-.56-.25-.56-.56h0c0-.31.25-.56.56-.56h3.01c.31,0,.56.25.56.56h0c0,.31-.25.56-.56.56Z"/>
        <path class="cls-15" d="m6.38,7.69c-.14-.09-.23-.25-.23-.43,0-.24.17-5.8,3.42-7.03,2.46-.93,5.9.96,10.23,5.63.19.2.18.52-.03.71-.2.19-.52.17-.71-.03C15.11,2.26,11.95.4,9.93,1.17c-2.62.99-2.77,6.07-2.77,6.12,0,.28-.24.49-.51.49-.1,0-.19-.03-.26-.08Z"/>
        <path class="cls-15" d="m21.03,3.47h-11.87c-2.7,0-4.91,2.21-4.91,4.91h0c0,2.7,2.21,4.91,4.91,4.91h11.87c2.7,0,4.91-2.21,4.91-4.91h0c0-2.7-2.21-4.91-4.91-4.91Z"/>
        <path class="cls-5" d="m9.75,6.02h-3.17c-.48,0-.88.4-.88.88h0c0,.48.4.88.88.88h3.17c.48,0,.88-.4.88-.88h0c0-.48-.4-.88-.88-.88Z"/>
        <circle class="cls-15" cx="9.59" cy="6.9" r="2.33"/>
        <path class="cls-5" d="m11.22,6.9c0-.97-.79-1.76-1.76-1.76s-1.76.79-1.76,1.76.79,1.76,1.76,1.76,1.76-.79,1.76-1.76Z"/>
        <ellipse class="cls-2" cx="9.38" cy="6.89" rx="1.05" ry="1.21"/>
        <path class="cls-10" d="m10.05,6.89c0-.67-.47-1.21-1.05-1.21s-1.05.54-1.05,1.21.47,1.21,1.05,1.21,1.05-.54,1.05-1.21Z"/>
        <path class="cls-5" d="m9.67,9.07h-2.97c-.24,0-.43.19-.43.43h0c0,.24.19.43.43.43h2.97c.24,0,.43-.19.43-.43h0c0-.24-.19-.43-.43-.43Z"/>
        <path class="cls-5" d="m8.75,9.5h0c-.27,0-.5.22-.5.5v.67c0,.27.22.5.5.5h0c.27,0,.5-.22.5-.5v-.67c0-.27-.22-.5-.5-.5Z"/>
        <path class="cls-2" d="m23.29,7.81h-9.54c-.64,0-1.16.52-1.16,1.16h0c0,.64.52,1.16,1.16,1.16h9.54c.64,0,1.16-.52,1.16-1.16h0c0-.64-.52-1.16-1.16-1.16Z"/>
        <path class="cls-7" d="m23.29,7.22h-9.54c-.64,0-1.16.52-1.16,1.16h0c0,.64.52,1.16,1.16,1.16h9.54c.64,0,1.16-.52,1.16-1.16h0c0-.64-.52-1.16-1.16-1.16Z"/>
        <path class="cls-11" d="m21.97,10.23h-5.8c-.64,0-1.16-.52-1.16-1.16h0c0-.64.52-1.16,1.16-1.16h5.8c.64,0,1.16.52,1.16,1.16h0c0,.64-.52,1.16-1.16,1.16Z"/>
        <path class="cls-2" d="m20.97,9.26h-1.03c-.64,0-1.16-.52-1.16-1.16h0c0-.64.52-1.16,1.16-1.16h1.03c.64,0,1.16.52,1.16,1.16h0c0,.64-.52,1.16-1.16,1.16Z"/>
        <path class="cls-5" d="m22.21,4.93h-8.17c-.34,0-.62.28-.62.62h0c0,.34.28.62.62.62h8.17c.34,0,.62-.28.62-.62h0c0-.34-.28-.62-.62-.62Z"/>
        <rect class="cls-5" x="7.65" y="10.59" width="3.63" height="1.24" rx=".62" ry=".62"/>
        <rect class="cls-5" x="16.17" y="11.39" width="3.03" height="1.24" rx=".62" ry=".62"/>
        <path class="cls-10" d="m20.47,6.18h-4.31c-.34,0-.62-.28-.62-.62h0c0-.34.28-.62.62-.62h4.31c.34,0,.62.28.62.62h0c0,.34-.28.62-.62.62Z"/>
        <path class="cls-10" d="m18.68,12.63h-.53c-.34,0-.62-.28-.62-.62h0c0-.34.28-.62.62-.62h.53c.34,0,.62.28.62.62h0c0,.34-.28.62-.62.62Z"/>
        <circle class="cls-2" cx="19.06" cy="5.55" r=".62"/>
        <path class="cls-2" d="m17.86,7.91c0-.32-.26-.57-.57-.57s-.57.26-.57.57.26.57.57.57.57-.26.57-.57Z"/>
      </g>
      <g>
        <path class="cls-11" d="m33,5.46h-5.15c-.89,0-1.62.73-1.62,1.62h0c0,.89.73,1.62,1.62,1.62h5.15c.89,0,1.62-.73,1.62-1.62h0c0-.89-.73-1.62-1.62-1.62Z"/>
        <path class="cls-2" d="m30.07,5.46h-.55c-.29,0-.53.24-.53.53h0c0,.29.24.53.53.53h.55c.29,0,.53-.24.53-.53h0c0-.29-.24-.53-.53-.53Z"/>
        <path class="cls-2" d="m31.44,5.46h0c-.29,0-.53.24-.53.53h0c0,.29.24.53.53.53h0c.29,0,.53-.24.53-.53h0c0-.29-.24-.53-.53-.53Z"/>
        <path class="cls-15" d="m41.97,11.94v-5.82c0-.37-.3-.67-.67-.67h0c-.37,0-.67.3-.67.67v5.82c0,.37.3.67.67.67h0c.37,0,.67-.3.67-.67Z"/>
        <path class="cls-15" d="m27.34,7.56h0c-.58,0-1.05-.47-1.05-1.05h0c0-.58.47-1.05,1.05-1.05h0c.58,0,1.05.47,1.05,1.05h0c0,.58-.47,1.05-1.05,1.05Z"/>
        <path class="cls-15" d="m33.95,7.56h0c-.58,0-1.05-.47-1.05-1.05h0c0-.58.47-1.05,1.05-1.05h0c.58,0,1.05.47,1.05,1.05h0c0,.58-.47,1.05-1.05,1.05Z"/>
        <path class="cls-15" d="m42.09,6.5h-15.33c-.77,0-1.4.63-1.4,1.4h0c0,.77.63,1.4,1.4,1.4h15.33c.77,0,1.4-.63,1.4-1.4h0c0-.77-.63-1.4-1.4-1.4Z"/>
        <path class="cls-15" d="m39.47,15.67h-6.74c-1.28,0-2.32,1.05-2.32,2.32h0c0,1.28,1.04,2.32,2.32,2.32h6.74c1.28,0,2.32-1.05,2.32-2.32h0c0-1.28-1.04-2.32-2.32-2.32Z"/>
        <path class="cls-15" d="m26.74,10.82h0c-1.82-.56-3.77.48-4.32,2.3l-.9,2.94c-.56,1.82.48,3.77,2.3,4.32h0c1.82.56,3.77-.48,4.32-2.3l.9-2.94c.56-1.82-.48-3.77-2.3-4.32Z"/>
        <path class="cls-15" d="m46.65,10.32h-4.96c-1.01,0-1.84.83-1.84,1.84h0c0,1.01.83,1.84,1.84,1.84h4.96c.56,0,1.02-.46,1.02-1.02v-1.65c0-.56-.46-1.02-1.02-1.02Z"/>
        <path class="cls-15" d="m46.8,14.55h-5.82c-.37,0-.67.3-.67.67h0c0,.37.3.67.67.67h5.82c.37,0,.67-.3.67-.67h0c0-.37-.3-.67-.67-.67Z"/>
        <path class="cls-15" d="m46.6,14.7v-1.24c0-.37-.3-.67-.67-.67h0c-.37,0-.67.3-.67.67v1.24c0,.37.3.67.67.67h0c.37,0,.67-.3.67-.67Z"/>
        <rect class="cls-15" x="41.49" y="12.79" width="1.34" height="2.58" rx=".67" ry=".67"/>
        <path class="cls-2" d="m35.8,10.98l4.89-1.09,3.78.56.61-1.47c.19-.45-.03-.82-.48-.82h-19.6c-.45,0-.97.37-1.15.82l-1.42,3.41h11.49c.45,0,.66.37.48.82-.67,1.63.52,3.41,2.28,3.41h2.18l-3.06-5.64Z"/>
        <path class="cls-15" d="m34.67,18.36h-8.61c-2.17,0-3.95-1.78-3.95-3.95h0c0-2.17,1.78-3.95,3.95-3.95h8.61c2.17,0,3.95,1.78,3.95,3.95h0c0,2.17-1.78,3.95-3.95,3.95Z"/>
        <path class="cls-9" d="m34.2,13.29h6.05c2.24,0,4.26-1.35,5.11-3.41h0c.19-.45-.03-.82-.48-.82h-19.6c-.45,0-.97.37-1.15.82l-1.42,3.41h11.49Z"/>
        <path class="cls-5" d="m31.96,16.8h-2.28c-.66,0-1.2-.54-1.2-1.2h0c0-.66.54-1.2,1.2-1.2h2.28c.66,0,1.2.54,1.2,1.2h0c0,.66-.54,1.2-1.2,1.2Z"/>
        <path class="cls-15" d="m25.41,10.82h0c-1.82-.56-3.77.48-4.32,2.3l-.9,2.94c-.56,1.82.48,3.77,2.3,4.32h0c1.82.56,3.77-.48,4.32-2.3l.9-2.94c.56-1.82-.48-3.77-2.3-4.32Z"/>
        <path class="cls-5" d="m24.95,11.91h0c-1.23-.38-2.58.46-3.01,1.85l-.69,2.25c-.43,1.39.23,2.84,1.46,3.22h0c1.23.38,2.58-.46,3.01-1.85l.69-2.25c.43-1.39-.23-2.84-1.46-3.22Z"/>
        <path class="cls-2" d="m21.25,16.73l.69-2.25c.43-1.39,1.78-2.23,3.01-1.85.87.27,1.45,1.08,1.56,2.02.16-1.23-.47-2.41-1.56-2.74-1.23-.38-2.58.46-3.01,1.85l-.69,2.25c-.12.4-.15.81-.1,1.2.02-.16.05-.32.1-.48Z"/>
        <path class="cls-5" d="m46.53,12.4h-.72c-.33,0-.61-.27-.61-.61h0c0-.33.27-.61.61-.61h.72c.33,0,.61.27.61.61h0c0,.33-.27.61-.61.61Z"/>
        <path class="cls-5" d="m45.65,13.12c0-.24-.19-.43-.43-.43s-.43.19-.43.43.19.44.43.44.43-.19.43-.44Z"/>
        <circle class="cls-15" cx="24.34" cy="14.16" r=".87"/>
        <path class="cls-15" d="m24.07,17.24c0-.41-.33-.74-.74-.74s-.74.33-.74.74.33.74.74.74.74-.33.74-.74Z"/>
        <g>
          <path class="cls-15" d="m39.23,16.38h0c-.98-.36-1.49-1.45-1.13-2.42l1.08-2.97c.36-.98,1.45-1.49,2.43-1.13h0c.98.36,1.49,1.45,1.13,2.43l-1.08,2.97c-.36.98-1.45,1.49-2.43,1.13Z"/>
          <path class="cls-11" d="m40.07,14.08h0c-.67-.24-1.01-.99-.77-1.65l.36-.98c.24-.67.99-1.01,1.65-.77h0c.67.24,1.01.99.77,1.65l-.36.98c-.24.67-.99,1.01-1.65.77Z"/>
          <path class="cls-7" d="m41.31,12.77c0-.49-.4-.88-.88-.88s-.88.4-.88.88.4.88.88.88.88-.4.88-.88Z"/>
          <path class="cls-2" d="m41.76,11.87c0-.49-.4-.88-.88-.88s-.88.4-.88.88.4.88.88.88.88-.4.88-.88Z"/>
        </g>
        <path class="cls-2" d="m29.65,14.69h0c-.51,0-.92.41-.92.92h0c0,.51.41.92.92.92h0c.51,0,.92-.41.92-.92h0c0-.51-.41-.92-.92-.92Z"/>
        <path class="cls-2" d="m46.53,11.19h0c-.33,0-.61.27-.61.61h0c0,.33.27.61.61.61h0c.33,0,.61-.27.61-.61h0c0-.33-.27-.61-.61-.61Z"/>
        <g>
          <path class="cls-15" d="m35.94,12.05h-6.53c-.6,0-1.09-.49-1.09-1.09h0c0-.6.49-1.09,1.09-1.09h6.53c.6,0,1.09.49,1.09,1.09h0c0,.6-.49,1.09-1.09,1.09Z"/>
          <path class="cls-5" d="m32.09,11.45h-2.54c-.27,0-.49-.22-.49-.49h0c0-.27.22-.49.49-.49h2.54c.27,0,.49.22.49.49h0c0,.27-.22.49-.49.49Z"/>
          <path class="cls-5" d="m35.8,10.47h0c-.25,0-.46.21-.46.46h0c0,.25.21.46.46.46h0c.25,0,.46-.21.46-.46h0c0-.25-.21-.46-.46-.46Z"/>
        </g>
        <g>
          <path class="cls-15" d="m41.91,14.65h-5.58c-2.11,0-3.83,2-3.83,4.44h0c0,2.44,1.72,4.44,3.83,4.44h4.2c2.11,0,3.83-2,3.83-4.44v-1.6c0-1.56-1.1-2.84-2.45-2.84Z"/>
          <path class="cls-14" d="m41.08,16.01h-4.59c-1.73,0-3.15,1.42-3.15,3.15h0c0,1.73,1.42,3.15,3.15,3.15h3.45c1.73,0,3.15-1.42,3.15-3.15v-1.14c0-1.11-.91-2.02-2.02-2.02Z"/>
          <path class="cls-12" d="m39.49,17.27h-2.54c-1.04,0-1.89.85-1.89,1.89h0c0,1.04.85,1.89,1.89,1.89h2.54c1.04,0,1.89-.85,1.89-1.89h0c0-1.04-.85-1.89-1.89-1.89Z"/>
          <circle class="cls-2" cx="39.77" cy="17.76" r="1.25"/>
          <path class="cls-2" d="m37.03,19.88c0-.48-.39-.86-.86-.86s-.86.39-.86.86.39.86.86.86.86-.39.86-.86Z"/>
        </g>
        <path class="cls-15" d="m14.74,11.59l-1.99,5.46c-.13.35.05.73.4.86h0c.35.13.73-.05.86-.4l1.99-5.46c.13-.35-.05-.73-.4-.86h0c-.35-.13-.73.05-.86.4Z"/>
        <path class="cls-15" d="m21.41,11.83h-5.82c-.37,0-.67.3-.67.67h0c0,.37.3.67.67.67h5.82c.37,0,.67-.3.67-.67h0c0-.37-.3-.67-.67-.67Z"/>
      </g>
      <g>
        <path class="cls-8" d="m19.47,18.21l-.62.59-.08.08-2.07,1.99c-.95.91-.98,2.44-.07,3.39h0c.91.95,2.44.98,3.39.07l2.07-1.99.08-.08.62-.59c.95-.91.98-2.44.07-3.39h0c-.91-.95-2.44-.98-3.39-.07Z"/>
        <path class="cls-15" d="m20.91,16.82l-1.25,1.2c-.95.91-.98,2.44-.07,3.39h0c.91.95,2.44.98,3.39.07l1.25-1.2c.95-.91.98-2.44.07-3.39h0c-.91-.95-2.44-.98-3.39-.07Z"/>
      </g>
      <g>
        <path class="cls-15" d="m32.22,17.64h-5.96c-.97,0-1.76-.79-1.76-1.76h0c0-.97.79-1.76,1.76-1.76h5.96c.97,0,1.76.79,1.76,1.76h0c0,.97-.79,1.76-1.76,1.76Z"/>
        <rect class="cls-15" x="20.35" y="14.11" width="10" height="9.42" rx="4.09" ry="4.09"/>
        <polygon class="cls-15" points="32.16 17.5 29.98 20.7 28.04 16.71 32.16 16.71 32.16 17.5"/>
        <path class="cls-1" d="m29.09,20.46l-.45.74c-.12.2-.41.3-.63.23l-2.58-.83c-.23-.07-.31-.3-.19-.49l.45-.74c.12-.2.41-.3.63-.23l2.58.83c.23.07.31.3.19.49Z"/>
        <path class="cls-1" d="m30.55,18.35l-.45.74c-.12.2-.41.3-.63.23l-2.58-.83c-.23-.07-.31-.29-.19-.49l.45-.74c.12-.2.41-.3.63-.23l2.58.83c.23.07.31.29.19.49Z"/>
        <path class="cls-2" d="m31.53,14.8h-2.37c-.59,0-1.08.48-1.08,1.08h0c0,.59.48,1.08,1.08,1.08h2.37c.59,0,1.08-.48,1.08-1.08h0c0-.59-.48-1.08-1.08-1.08Z"/>
        <path class="cls-1" d="m30.74,14.71h-5.05c-.64,0-1.16.52-1.16,1.16h0c0,.64.52,1.16,1.16,1.16h5.05c.64,0,1.16-.52,1.16-1.16h0c0-.64-.52-1.16-1.16-1.16Z"/>
        <path class="cls-2" d="m29.09,18.17c0-1.93-1.57-3.5-3.5-3.5s-3.5,1.57-3.5,3.5,1.57,3.5,3.5,3.5,3.5-1.57,3.5-3.5Z"/>
        <path class="cls-14" d="m28.35,18.77c0-1.6-1.57-2.89-3.5-2.89s-3.5,1.3-3.5,2.89,1.57,2.89,3.5,2.89,3.5-1.3,3.5-2.89Z"/>
        <path class="cls-14" d="m21.99,19.39h0c-.35,0-.64-.29-.64-.64v-2.22c0-.35.29-.64.64-.64h0c.35,0,.64.29.64.64v2.22c0,.35-.29.64-.64.64Z"/>
        <circle class="cls-2" cx="27.01" cy="18.17" r=".53"/>
      </g>
      <g>
        <path id="ArmOne-2" data-name="ArmOne" class="cls-8" d="m19.81,24.42h0c-1.02.84-2.54.68-3.37-.34l-7.11-8.68c-.84-1.02-.68-2.54.34-3.37h0c1.02-.84,2.54-.68,3.37.34l7.11,8.68c.84,1.02.68,2.54-.34,3.37Z"/>
        <g>
          <path class="cls-8" d="m18.02,20.68h0c1.6-1.31,1.84-3.69.53-5.29l-3.41-4.17c-1.31-1.6-3.69-1.84-5.29-.53h0c-1.6,1.31-1.84,3.69-.53,5.29l3.41,4.17c1.31,1.6,3.69,1.84,5.29.53Z"/>
          <path class="cls-15" d="m16.12,22.23h0c1.6-1.31,1.84-3.69.53-5.29l-3.41-4.17c-1.31-1.6-3.69-1.84-5.29-.53h0c-1.6,1.31-1.84,3.69-.53,5.29l3.41,4.17c1.31,1.6,3.69,1.84,5.29.53Z"/>
          <path class="cls-15" d="m17.06,19.5h0c1.6-1.31,1.84-3.69.53-5.29l-2.44-2.99c-1.31-1.6-3.69-1.84-5.29-.53h0c-1.6,1.31-1.84,3.69-.53,5.29l2.44,2.99c1.31,1.6,3.69,1.84,5.29.53Z"/>
          <path class="cls-4" d="m16.95,21.55h0c1.6-1.31,1.84-3.69.53-5.29l-3.41-4.17c-1.31-1.6-3.69-1.84-5.29-.53h0c-1.6,1.31-1.84,3.69-.53,5.29l3.41,4.17c1.31,1.6,3.69,1.84,5.29.53Z"/>
          <path class="cls-12" d="m16.06,21.22h0c1.21-.99,1.39-2.79.4-4l-3.4-4.15c-.99-1.21-2.79-1.39-4-.4h0c-1.21.99-1.39,2.79-.4,4l3.4,4.15c.99,1.21,2.79,1.39,4,.4Z"/>
          <path class="cls-15" d="m14.64,13.01l.25-.2c.43-.35.49-.98.14-1.41h0c-.35-.43-.98-.49-1.41-.14l-.25.2c-.43.35-.49.98-.14,1.41h0c.35.43.98.49,1.41.14Z"/>
          <path class="cls-15" d="m17.72,16.77l.25-.2c.43-.35.49-.98.14-1.41h0c-.35-.43-.98-.49-1.41-.14l-.25.2c-.43.35-.49.98-.14,1.41h0c.35.43.98.49,1.41.14Z"/>
          <path class="cls-4" d="m14.58,11.77c-.21-.26-.59-.3-.85-.09-.26.21-.3.59-.09.85.21.26.59.3.85.09.26-.21.3-.59.09-.85Z"/>
          <path class="cls-2" d="m11,13.38l-.79,2.09c-.17.46-.69.69-1.14.52h0c-.46-.17-.69-.69-.52-1.14l.79-2.09c.17-.46.69-.69,1.14-.52h0c.46.17.69.69.52,1.14Z"/>
          <path class="cls-4" d="m17.66,15.52c-.21-.26-.59-.3-.85-.09-.26.21-.3.59-.09.85.21.26.59.3.85.09.26-.21.3-.59.09-.85Z"/>
          <path class="cls-2" d="m9.1,14.25h0c-.79.65-.91,1.82-.26,2.62l3.07,3.75c.65.79,1.82.91,2.62.26h0c.79-.65.91-1.82.26-2.62l-3.07-3.75c-.65-.79-1.82-.91-2.62-.26Z"/>
          <path class="cls-14" d="m9.86,13.63h0c-.79.65-.91,1.82-.26,2.62l3.07,3.75c.65.79,1.82.91,2.62.26h0c.79-.65.91-1.82.26-2.62l-3.07-3.75c-.65-.79-1.82-.91-2.62-.26Z"/>
          <path class="cls-2" d="m10.04,16.27l-.51.42c-.23.19-.27.54-.08.77h0c.19.23.54.27.77.08l.51-.42c.23-.19.27-.54.08-.77h0c-.19-.23-.54-.27-.77-.08Z"/>
          <path class="cls-2" d="m11.93,18.58l-.51.42c-.23.19-.27.54-.08.77h0c.19.23.54.27.77.08l.51-.42c.23-.19.27-.54.08-.77h0c-.19-.23-.54-.27-.77-.08Z"/>
          <path class="cls-12" d="m12.92,13.91l-.51.42c-.23.19-.27.54-.08.77h0c.19.23.54.27.77.08l.51-.42c.23-.19.27-.54.08-.77h0c-.19-.23-.54-.27-.77-.08Z"/>
          <path class="cls-12" d="m14.81,16.23l-.51.42c-.23.19-.27.54-.08.77h0c.19.23.54.27.77.08l.51-.42c.23-.19.27-.54.08-.77h0c-.19-.23-.54-.27-.77-.08Z"/>
          <path class="cls-14" d="m10.5,16.6c-.1-.12-.27-.14-.39-.04-.12.1-.14.27-.04.39s.27.14.39.04c.12-.1.14-.27.04-.39Z"/>
          <path class="cls-14" d="m12.39,18.91c-.1-.12-.27-.14-.39-.04-.12.1-.14.27-.04.39.1.12.27.14.39.04.12-.1.14-.27.04-.39Z"/>
          <path class="cls-14" d="m14.9,16.86c-.1-.12-.27-.14-.39-.04-.12.1-.14.27-.04.39.1.12.27.14.39.04s.14-.27.04-.39Z"/>
          <path class="cls-14" d="m13.01,14.55c-.1-.12-.27-.14-.39-.04-.12.1-.14.27-.04.39s.27.14.39.04c.12-.1.14-.27.04-.39Z"/>
          <path class="cls-14" d="m11.87,12.64l-.72,1.89c-.17.46-.69.69-1.14.52h0c-.46-.17-.69-.69-.52-1.14l.72-1.89c.17-.46.69-.69,1.14-.52h0c.46.17.69.69.52,1.14Z"/>
        </g>
      </g>
      <g>
        <path class="cls-8" d="m7.4,42.24h0c1.96.65,4.1-.42,4.75-2.38l2.79-8.41c.65-1.96-.42-4.1-2.38-4.75h0c-1.96-.65-4.1.42-4.75,2.38l-2.79,8.41c-.65,1.96.42,4.1,2.38,4.75Z"/>
        <path class="cls-15" d="m7.88,40.78h0c1.96.65,4.1-.42,4.75-2.38l2.31-6.95c.65-1.96-.42-4.1-2.38-4.75h0c-1.96-.65-4.1.42-4.75,2.38l-2.31,6.95c-.65,1.96.42,4.1,2.38,4.75Z"/>
        <path class="cls-4" d="m6.08,41.8h0c1.96.65,4.1-.42,4.75-2.38l2.79-8.41c.65-1.96-.42-4.1-2.38-4.75h0c-1.96-.65-4.1.42-4.75,2.38l-2.79,8.41c-.65,1.96.42,4.1,2.38,4.75Z"/>
        <path class="cls-12" d="m5.89,40.87h0c1.48.49,3.1-.32,3.59-1.8l2.78-8.4c.49-1.48-.32-3.1-1.8-3.59h0c-1.48-.49-3.1.32-3.59,1.8l-2.78,8.4c-.49,1.48.32,3.1,1.8,3.59Z"/>
        <path class="cls-15" d="m13.16,31.97l.3.1c.52.17,1.09-.11,1.26-.63h0c.17-.52-.11-1.09-.63-1.26l-.3-.1c-.52-.17-1.09.11-1.26.63h0c-.17.52.11,1.09.63,1.26Z"/>
        <path class="cls-15" d="m10.53,39.89l.3.1c.52.17,1.09-.11,1.26-.63h0c.17-.52-.11-1.09-.63-1.26l-.3-.1c-.52-.17-1.09.11-1.26.63h0c-.17.52.11,1.09.63,1.26Z"/>
        <path class="cls-4" d="m14.18,31.26c.11-.32-.07-.66-.38-.76-.32-.11-.66.07-.76.38-.11.32.07.66.38.76.32.11.66-.07.76-.38Z"/>
        <path class="cls-2" d="m10.9,29.09l-2.18.45c-.48.1-.95-.21-1.05-.69h0c-.1-.48.21-.95.69-1.05l2.18-.45c.48-.1.95.21,1.05.69h0c.1.48-.21.95-.69,1.05Z"/>
        <path class="cls-4" d="m11.55,39.17c.11-.32-.07-.66-.38-.76-.32-.11-.66.07-.76.38-.11.32.07.66.38.76.32.11.66-.07.76-.38Z"/>
        <path class="cls-2" d="m9.14,27.95h0c-.97-.32-2.03.21-2.35,1.18l-2.62,7.9c-.32.97.21,2.03,1.18,2.35h0c.97.32,2.03-.21,2.35-1.18l2.62-7.9c.32-.97-.21-2.03-1.18-2.35Z"/>
        <path class="cls-14" d="m10.07,28.26h0c-.97-.32-2.03.21-2.35,1.18l-2.62,7.9c-.32.97.21,2.03,1.18,2.35h0c.97.32,2.03-.21,2.35-1.18l2.62-7.9c.32-.97-.21-2.03-1.18-2.35Z"/>
        <path class="cls-2" d="m7.94,29.83l-.63-.21c-.29-.09-.6.06-.69.35h0c-.09.29.06.6.35.69l.63.21c.29.09.6-.06.69-.35h0c.09-.29-.06-.6-.35-.69Z"/>
        <path class="cls-2" d="m5.91,35.97l-.63-.21c-.29-.09-.6.06-.69.35h0c-.09.29.06.6.35.69l.63.21c.29.09.6-.06.69-.35h0c.09-.29-.06-.6-.35-.69Z"/>
        <path class="cls-12" d="m11.47,31l-.63-.21c-.29-.09-.6.06-.69.35h0c-.09.29.06.6.35.69l.63.21c.29.09.6-.06.69-.35h0c.09-.29-.06-.6-.35-.69Z"/>
        <path class="cls-12" d="m9.44,37.14l-.63-.21c-.29-.09-.6.06-.69.35h0c-.09.29.06.6.35.69l.63.21c.29.09.6-.06.69-.35h0c.09-.29-.06-.6-.35-.69Z"/>
        <path class="cls-14" d="m7.91,30.39c.05-.15-.03-.31-.18-.35s-.31.03-.35.18c-.05.15.03.31.18.35.15.05.31-.03.35-.18Z"/>
        <path class="cls-14" d="m5.87,36.53c.05-.15-.03-.31-.18-.35-.15-.05-.31.03-.35.18s.03.31.18.35c.15.05.31-.03.35-.18Z"/>
        <path class="cls-14" d="m8.95,37.56c.05-.15-.03-.31-.18-.35s-.31.03-.35.18c-.05.15.03.31.18.35.15.05.31-.03.35-.18Z"/>
        <path class="cls-14" d="m10.99,31.41c.05-.15-.03-.31-.18-.35-.15-.05-.31.03-.35.18s.03.31.18.35c.15.05.31-.03.35-.18Z"/>
        <path class="cls-14" d="m11.99,29.44l-1.98.41c-.48.1-.95-.21-1.05-.69h0c-.1-.48.21-.95.69-1.05l1.98-.41c.48-.1.95.21,1.05.69h0c.1.48-.21.95-.69,1.05Z"/>
      </g>
    </g>
  </g>
</svg>