<?xml version="1.0" encoding="UTF-8"?>
<svg id="Layer_2" data-name="Layer 2" xmlns="http://www.w3.org/2000/svg" viewBox="0 0 61.04 61.68">
  <defs>
    <style>
      .cls-1 {
        fill: #5a6571;
      }

      .cls-2 {
        fill: #fff;
      }

      .cls-3 {
        fill: #9700e7;
      }

      .cls-4 {
        fill: #3f3e37;
      }

      .cls-5 {
        fill: #4d4d4d;
      }

      .cls-6 {
        fill: none;
        stroke: #ccc;
        stroke-miterlimit: 10;
        stroke-width: .35px;
      }

      .cls-7 {
        fill: #333;
      }

      .cls-8 {
        fill: #7f7d6e;
      }

      .cls-9 {
        fill: #ffcc17;
      }

      .cls-10 {
        fill: #bfbca5;
      }

      .cls-11 {
        fill: #1a1a1a;
      }

      .cls-12 {
        fill: #666;
      }

      .cls-13 {
        fill: #a24a00;
      }
    </style>
  </defs>
  <g id="Layer_1-2" data-name="Layer 1">
    <g>
      <g>
        <path class="cls-11" d="m37.79,21.83c.07.07.1.17.08.27-.03.13-.74,3.28-2.72,3.62-1.5.26-3.25-1.2-5.19-4.34-.08-.14-.04-.31.09-.4.14-.08.31-.04.4.09,1.78,2.87,3.37,4.28,4.6,4.07,1.6-.27,2.25-3.14,2.26-3.17.03-.16.19-.25.35-.22.05.01.1.04.14.08Z"/>
        <g>
          <g>
            <path class="cls-11" d="m38.25,18.27c-1.39-.14-2.63.88-2.77,2.27-.14,1.39.88,2.63,2.27,2.77,1.39.14,2.63-.88,2.77-2.27.14-1.39-.88-2.63-2.27-2.77Z"/>
            <path class="cls-11" d="m30.44,17.51c-1.39-.14-2.63.88-2.77,2.27-.14,1.39.88,2.63,2.27,2.77,1.39.14,2.63-.88,2.77-2.27s-.88-2.63-2.27-2.77Z"/>
            <path class="cls-11" d="m29.45,21.75h0c-.04.39.25.75.64.79l7.82.79c.39.04.75-.25.79-.64h0c.04-.39-.25-.75-.64-.79l-7.82-.79c-.39-.04-.75.25-.79.64Z"/>
            <path class="cls-11" d="m29.81,18.13h0c-.04.39.25.75.64.79l7.82.79c.39.04.75-.25.79-.64h0c.04-.39-.25-.75-.64-.79l-7.82-.79c-.39-.04-.75.25-.79.64Z"/>
          </g>
          <path class="cls-7" d="m29.89,19.31l-.03.32-.32-.03c-.2-.02-.38.13-.4.33-.02.2.13.38.33.4l.32.03-.03.32c-.02.2.13.38.33.4.2.02.38-.13.4-.33l.03-.32.32.03c.2.02.38-.13.4-.33.02-.2-.13-.38-.33-.4l-.32-.03.03-.32c.02-.2-.13-.38-.33-.4-.2-.02-.38.13-.4.33Z"/>
        </g>
      </g>
      <g>
        <path class="cls-11" d="m27.45,21.62c.06.08.07.18.03.28-.05.13-1.3,3.1-3.31,3.08-1.53-.01-2.99-1.75-4.35-5.18-.06-.15.01-.32.16-.38.15-.06.32.01.38.16,1.25,3.14,2.57,4.8,3.81,4.81,1.62.01,2.76-2.7,2.78-2.73.06-.15.23-.22.38-.16.05.02.09.06.12.1Z"/>
        <path class="cls-11" d="m19.98,12.98c-2.21-.63-4.52.66-5.14,2.88-.63,2.21.66,4.52,2.88,5.14,2.21.63,4.52-.66,5.14-2.88.63-2.21-.66-4.52-2.88-5.14Z"/>
        <path class="cls-11" d="m30.4,17.62c-1.35-.38-2.75.4-3.13,1.75-.38,1.35.4,2.75,1.75,3.13,1.35.38,2.75-.4,3.13-1.75.38-1.35-.4-2.75-1.75-3.13Z"/>
        <path class="cls-11" d="m19.38,19.03h0c-.11.38.12.78.5.89l9.3,2.63c.38.11.78-.12.89-.5h0c.11-.38-.12-.78-.5-.89l-9.3-2.63c-.38-.11-.78.12-.89.5Z"/>
        <path class="cls-11" d="m20.37,15.53h0c-.11.38.12.78.5.89l9.3,2.63c.38.11.78-.12.89-.5h0c.11-.38-.12-.78-.5-.89l-9.3-2.63c-.38-.11-.78.12-.89.5Z"/>
      </g>
      <g>
        <g>
          <path class="cls-11" d="m28.32,43c-.01.1-.07.18-.17.23-.12.06-3.06,1.39-4.53.02-1.11-1.04-1-3.32.32-6.75.06-.15.22-.22.37-.17.15.06.22.22.17.37-1.21,3.15-1.38,5.27-.46,6.12,1.18,1.11,3.86-.11,3.89-.12.15-.07.32,0,.38.14.02.05.03.1.02.16Z"/>
          <path class="cls-11" d="m23.46,36.73h0c-.12.07-.16.23-.08.35l.65,1.04c.07.12.23.16.35.08h0c.12-.07.16-.23.08-.35l-.65-1.04c-.07-.12-.23-.16-.35-.08Z"/>
          <path class="cls-11" d="m27.18,42.66h0c-.12.08-.16.23-.08.35l.36.58c.08.12.23.16.35.08h0c.12-.08.16-.23.08-.35l-.36-.58c-.08-.12-.23-.16-.35-.08Z"/>
          <path class="cls-12" d="m29.05,38.9c.03.09,0,.2-.06.28-.09.1-2.22,2.52-4.12,1.87-1.44-.5-2.27-2.61-2.48-6.29,0-.16.11-.3.27-.3.16,0,.3.11.3.27.18,3.37.9,5.37,2.08,5.77,1.53.53,3.48-1.68,3.5-1.7.1-.12.29-.13.41-.03.04.04.07.08.09.13Z"/>
          <path class="cls-11" d="m22.2,34.7h0c-.12.08-.16.23-.08.35l.81,1.3c.07.12.23.16.35.08h0c.12-.08.16-.23.08-.35l-.81-1.3c-.07-.12-.23-.16-.35-.08Z"/>
          <path class="cls-11" d="m25.7,40.29h0c-.12.07-.16.23-.08.35l.38.6c.07.12.23.16.35.08h0c.12-.07.16-.23.08-.35l-.38-.6c-.07-.12-.23-.16-.35-.08Z"/>
          <path class="cls-2" d="m23.44,37.77c-.12-.19-.36-.24-.55-.13-.19.12-.24.36-.13.55s.36.24.55.13c.19-.12.24-.36.13-.55Z"/>
          <path class="cls-2" d="m24.4,40.24c-.09-.14-.27-.18-.41-.09s-.18.27-.09.41c.09.14.27.18.41.09.14-.09.18-.27.09-.41Z"/>
        </g>
        <path id="LegTwo" class="cls-11" d="m31.6,45.11h0c-1.08.68-2.53.35-3.21-.74l-6.11-9.75c-.68-1.08-.35-2.53.74-3.21h0c1.08-.68,2.53-.35,3.21.74l6.11,9.75c.68,1.08.35,2.53-.74,3.21Z"/>
      </g>
      <g>
        <path class="cls-11" d="m29.83,55.65c.16-.97-.5-1.9-1.47-2.06s-1.9.5-2.06,1.47c-.16.97.5,1.9,1.47,2.06.97.16,1.9-.5,2.06-1.47Z"/>
        <path class="cls-11" d="m21.81,55.47c-.09.02-.2-.01-.27-.09-.09-.1-2.25-2.49-1.39-4.31.66-1.38,2.85-1.97,6.53-1.75.16,0,.28.15.27.31,0,.16-.15.28-.31.27-3.37-.2-5.44.29-5.97,1.42-.7,1.46,1.28,3.65,1.3,3.67.11.12.1.3-.02.41-.04.04-.09.06-.14.07Z"/>
        <path class="cls-12" d="m25.94,54.92c-.08.06-.18.07-.28.03-.13-.05-3.08-1.35-3.04-3.36.03-1.52,1.8-2.96,5.24-4.27.15-.06.32.02.37.17.06.15-.02.32-.17.37-3.16,1.2-4.84,2.49-4.87,3.74-.04,1.62,2.66,2.8,2.69,2.82.15.06.21.23.15.38-.02.05-.06.09-.1.12Z"/>
        <path class="cls-2" d="m25.31,49.23c.14-.17.12-.42-.05-.56-.17-.14-.42-.12-.56.05s-.12.42.05.56c.17.14.42.12.56-.05Z"/>
        <path class="cls-2" d="m23.24,50.9c.11-.12.09-.31-.03-.42-.12-.11-.31-.09-.42.03-.11.12-.09.31.03.42.12.11.31.09.42-.03Z"/>
        <path class="cls-11" d="m32.55,60.14h-.04s-1.75.02-1.75.02c-.58-.04-1.15-.08-1.71-.13-1.12-.18-2.23-.39-3.21-.84-.99-.42-1.88-.98-2.57-1.69-.06-.06-.11-.13-.17-.19.86-.13,1.7-.32,2.5-.59.88-.29,1.73-.65,2.53-1.08.81-.43,1.55-.9,2.28-1.5.18-.14.24-.39.14-.6-.12-.25-.42-.36-.67-.24l-.04.02c-.71.34-1.52.62-2.31.82-.79.21-1.6.34-2.4.41-.8.07-1.59.07-2.36-.02-.77-.06-1.52-.25-2.24-.45h0s-.18-.02-.18-.02c-.27-.03-.55,0-.82.1-.85.34-1.26,1.3-.92,2.14.12.3.19.43.3.61.09.17.2.33.3.49.21.31.43.6.67.87.48.55,1.02,1.01,1.59,1.42,1.14.81,2.42,1.33,3.7,1.62,1.28.33,2.57.34,3.82.33.62-.05,1.24-.11,1.85-.18l1.81-.33c.23-.04.41-.25.41-.5,0-.28-.23-.5-.51-.49Z"/>
        <path class="cls-11" d="m27.23,47.26h0c-.14-.02-.27.07-.3.21l-.16.96c-.02.14.07.27.21.3h0c.14.02.27-.07.3-.21l.16-.96c.02-.14-.07-.27-.21-.3Z"/>
        <path class="cls-11" d="m26.06,54.43h0c-.02-.14-.15-.24-.29-.21l-.96.15c-.14.02-.24.15-.21.29h0c.02.14.15.24.29.21l.96-.15c.14-.02.24-.15.21-.29Z"/>
        <path class="cls-11" d="m21.69,54.27h0c.02-.14-.07-.27-.21-.3l-.96-.16c-.14-.02-.27.07-.3.21h0c-.02.14.07.27.21.3l.96.16c.14.02.27-.07.3-.21Z"/>
        <path class="cls-11" d="m26.93,49.07h0c-.14-.02-.27.07-.3.21l-.12.7c-.02.14.07.27.21.3h0c.14.02.27-.07.3-.21l.12-.7c.02-.14-.07-.27-.21-.3Z"/>
        <g id="ShinTwo">
          <path class="cls-11" d="m28.28,55.79h0c-1.26-.21-2.12-1.42-1.91-2.68l1.7-10.2c.21-1.26,1.42-2.12,2.68-1.91h0c1.26.21,2.12,1.42,1.91,2.68l-1.7,10.2c-.21,1.26-1.42,2.12-2.68,1.91Z"/>
        </g>
        <path class="cls-7" d="m20.69,55.8c.06-.38-.19-.74-.57-.8-.38-.06-.74.19-.8.57s.19.74.57.8c.38.06.74-.19.8-.57Z"/>
        <path class="cls-7" d="m31.84,43.65c.14-.82-.42-1.6-1.24-1.74-.82-.14-1.6.42-1.74,1.24-.14.82.42,1.6,1.24,1.74.82.14,1.6-.42,1.74-1.24Z"/>
        <path class="cls-11" d="m30.74,41.07h0c-.32-.05-.62.16-.67.48l-.26,1.55c-.05.32.16.62.48.67h0c.32.05.62-.16.67-.48l.26-1.55c.05-.32-.16-.62-.48-.67Z"/>
        <path class="cls-7" d="m30.72,43.19c.03-.18-.09-.35-.27-.38s-.35.09-.38.27c-.03.18.09.35.27.38.18.03.35-.09.38-.27Z"/>
      </g>
      <g>
        <g>
          <path class="cls-11" d="m12.05,43.18c-.08.05-.19.06-.28.02-.12-.06-3.02-1.47-2.9-3.48.09-1.52,1.91-2.89,5.41-4.06.15-.05.32.03.37.18.05.15-.03.31-.18.37-3.2,1.07-4.94,2.3-5.01,3.54-.1,1.62,2.54,2.91,2.57,2.92.14.07.2.24.14.39-.02.05-.06.09-.11.12Z"/>
          <path class="cls-11" d="m13.79,35.44h0c-.13-.04-.28.03-.32.16l-.39,1.16c-.04.13.03.28.16.32h0c.13.04.28-.03.32-.16l.39-1.16c.04-.13-.03-.28-.16-.32Z"/>
          <path class="cls-11" d="m11.59,42.09h0c-.13-.04-.28.03-.33.16l-.21.64c-.04.13.03.28.16.33h0c.13.04.28-.03.33-.16l.21-.64c.04-.13-.03-.28-.16-.33Z"/>
          <path class="cls-9" d="m15.68,41.13c-.05.08-.15.13-.25.13-.14,0-3.36-.11-4.07-1.99-.54-1.43.56-3.42,3.27-5.92.12-.11.3-.1.41.02.11.12.1.3-.02.41-2.48,2.29-3.56,4.12-3.12,5.29.57,1.52,3.51,1.61,3.54,1.61.16,0,.29.14.28.3,0,.06-.02.11-.05.15Z"/>
          <path class="cls-11" d="m14.55,33.17h0c-.13-.04-.28.03-.32.16l-.48,1.45c-.04.13.03.28.16.32h0c.13.04.28-.03.32-.16l.48-1.45c.04-.13-.03-.28-.16-.32Z"/>
          <path class="cls-11" d="m12.47,39.43h0c-.13-.04-.28.03-.32.16l-.22.68c-.04.13.03.28.16.32h0c.13.04.28-.03.32-.16l.22-.68c.04-.13-.03-.28-.16-.32Z"/>
          <path class="cls-2" d="m12.97,36.08c.07-.21-.04-.43-.25-.5-.21-.07-.43.04-.5.25-.07.21.04.43.25.5.21.07.43-.04.5-.25Z"/>
          <path class="cls-2" d="m11.68,38.4c.05-.16-.03-.32-.19-.37-.16-.05-.32.03-.37.19-.05.16.03.32.19.37.16.05.32-.03.37-.19Z"/>
        </g>
        <g>
          <path class="cls-7" d="m17.75,31.29c-1.21-.4-2.54.26-2.94,1.47l-3.64,10.91c-.4,1.21.26,2.54,1.47,2.94,1.21.4,2.54-.26,2.94-1.47l3.64-10.91c.4-1.21-.26-2.54-1.47-2.95Z"/>
          <g>
            <path class="cls-11" d="m18.15,34.31c.23-.7-.15-1.46-.85-1.7-.7-.23-1.46.15-1.7.85-.23.7.15,1.46.85,1.7.7.23,1.46-.15,1.7-.85Z"/>
            <path class="cls-8" d="m18.31,33.81c.23-.7-.15-1.46-.85-1.7-.7-.23-1.46.15-1.7.85-.23.7.15,1.46.85,1.7.7.23,1.46-.15,1.7-.85Z"/>
            <path class="cls-2" d="m17.98,33.21c.11-.32-.16-.7-.6-.85-.44-.15-.88,0-.99.32-.11.32.16.7.6.85.44.15.88,0,.99-.32Z"/>
            <path class="cls-2" d="m17.07,34.16c.05-.15-.03-.3-.18-.35-.15-.05-.3.03-.35.18s.03.3.18.35.3-.03.35-.18Z"/>
          </g>
        </g>
        <path class="cls-5" d="m12.1,38.07h4.5c.29,0,.53.24.53.53v.06c0,.29-.24.53-.53.53h-4.5c-.29,0-.53-.24-.53-.53v-.06c0-.29.24-.53.53-.53Z" transform="translate(-26.83 40.07) rotate(-71.63)"/>
        <path class="cls-2" d="m14.08,39.27h0c-.29-.1-.45-.41-.35-.7l.3-.89c.1-.29.41-.45.7-.35h0c.29.1.45.41.35.7l-.3.89c-.1.29-.41.45-.7.35Z"/>
      </g>
      <g>
        <path class="cls-11" d="m11.24,55.78c.31-.94-.2-1.95-1.14-2.26-.94-.31-1.95.2-2.26,1.14s.2,1.95,1.14,2.26c.94.31,1.95-.2,2.26-1.14Z"/>
        <path class="cls-11" d="m3.33,54.38c-.1,0-.19-.04-.25-.13-.08-.11-1.85-2.81-.72-4.47.86-1.26,3.12-1.51,6.72-.73.16.03.26.19.22.34-.03.16-.19.25-.34.22-3.3-.71-5.42-.54-6.12.49-.91,1.34.7,3.8.72,3.82.09.13.05.31-.08.4-.05.03-.1.05-.15.05Z"/>
        <path class="cls-9" d="m7.5,54.46c-.09.04-.19.04-.28-.02-.12-.07-2.84-1.8-2.49-3.78.27-1.5,2.23-2.65,5.83-3.42.16-.03.31.07.34.22.03.16-.07.31-.22.34-3.3.7-5.16,1.73-5.38,2.96-.28,1.59,2.2,3.18,2.22,3.19.14.08.18.26.09.4-.03.05-.07.08-.12.11Z"/>
        <path class="cls-2" d="m7.75,48.74c.17-.14.18-.4.04-.56-.14-.17-.4-.18-.56-.04-.17.14-.18.4-.04.56.14.17.4.18.56.04Z"/>
        <path class="cls-2" d="m5.45,50.08c.12-.11.14-.29.03-.42s-.29-.14-.42-.03-.14.29-.03.42c.11.12.29.14.42.03Z"/>
        <path class="cls-7" d="m13.23,60.63h-.04s-1.73-.25-1.73-.25c-.56-.12-1.12-.25-1.68-.39-1.08-.35-2.14-.72-3.04-1.32-.91-.57-1.7-1.26-2.28-2.06-.05-.07-.09-.15-.14-.22.87,0,1.73-.06,2.56-.2.92-.15,1.81-.38,2.66-.68.86-.3,1.67-.66,2.49-1.13.2-.11.3-.35.23-.58-.08-.26-.36-.42-.62-.34h-.04c-.76.24-1.6.39-2.41.47-.82.08-1.63.1-2.43.04-.8-.05-1.58-.18-2.33-.38-.76-.18-1.47-.48-2.15-.78h0s-.17-.05-.17-.05c-.26-.07-.54-.09-.82-.02-.89.2-1.44,1.09-1.24,1.98.07.31.13.45.2.65.07.19.15.36.23.53.16.34.34.66.53.96.39.61.85,1.15,1.35,1.64,1,.98,2.19,1.68,3.41,2.17,1.21.52,2.48.73,3.72.91.62.05,1.24.08,1.86.11l1.84-.06c.24,0,.45-.18.48-.43.04-.27-.15-.53-.42-.56Z"/>
        <path class="cls-11" d="m9.94,47.09h0c-.13-.04-.28.03-.32.16l-.3.92c-.04.13.03.28.16.32h0c.13.04.28-.03.32-.16l.3-.92c.04-.13-.03-.28-.16-.32Z"/>
        <path class="cls-11" d="m7.7,54h0c0-.14-.12-.26-.26-.26h-.97c-.14,0-.26.12-.26.26h0c0,.14.12.26.26.26h.97c.14,0,.26-.12.26-.26Z"/>
        <path class="cls-11" d="m3.4,53.18h0c.04-.13-.03-.28-.16-.32l-.92-.3c-.13-.04-.28.03-.32.16h0c-.04.13.03.28.16.32l.92.3c.13.04.28-.03.32-.16Z"/>
        <path class="cls-11" d="m9.37,48.83h0c-.13-.04-.28.03-.32.16l-.22.68c-.04.13.03.28.16.32h0c.13.04.28-.03.32-.16l.22-.68c.04-.13-.03-.28-.16-.32Z"/>
        <g id="ShinTwo-2" data-name="ShinTwo">
          <path class="cls-7" d="m9.68,55.68h0c-1.22-.4-1.88-1.72-1.48-2.94l3.24-9.82c.4-1.22,1.72-1.88,2.94-1.48h0c1.22.4,1.88,1.72,1.48,2.94l-3.24,9.82c-.4,1.22-1.72,1.88-2.94,1.48Z"/>
        </g>
        <path class="cls-5" d="m9.8,53.64h0c-.28-.09-.43-.39-.34-.67l2.14-6.49c.09-.28.39-.43.67-.34h0c.28.09.43.39.34.67l-2.14,6.49c-.09.28-.39.43-.67.34Z"/>
        <path class="cls-2" d="m10.46,51.55h0c-.29-.1-.45-.41-.35-.7l.29-.89c.1-.29.41-.45.7-.35h0c.29.1.45.41.35.7l-.29.89c-.1.29-.41.45-.7.35Z"/>
        <path class="cls-5" d="m12.67,51.21h0c-.28-.09-.43-.39-.34-.67l1.29-3.91c.09-.28.39-.43.67-.34h0c.28.09.43.39.34.67l-1.29,3.91c-.09.28-.39.43-.67.34Z"/>
        <path class="cls-2" d="m13.32,49.18h0c-.29-.1-.45-.41-.35-.7l.29-.89c.1-.29.41-.45.7-.35h0c.29.1.45.41.35.7l-.29.89c-.1.29-.41.45-.7.35Z"/>
        <g>
          <path class="cls-11" d="m14.81,44.42c.23-.7-.15-1.46-.85-1.7-.7-.23-1.46.15-1.7.85-.23.7.15,1.46.85,1.7.7.23,1.46-.15,1.7-.85Z"/>
          <path class="cls-9" d="m14.98,43.92c.23-.7-.15-1.46-.85-1.7-.7-.23-1.46.15-1.7.85-.23.7.15,1.46.85,1.7.7.23,1.46-.15,1.7-.85Z"/>
          <path class="cls-2" d="m14.64,43.32c.11-.32-.16-.7-.6-.85s-.88,0-.99.32c-.11.32.16.7.6.85.44.14.88,0,.99-.32Z"/>
          <path class="cls-2" d="m13.74,44.27c.05-.15-.03-.3-.18-.35-.15-.05-.3.03-.35.18-.05.15.03.3.18.35.15.05.3-.03.35-.18Z"/>
        </g>
        <path class="cls-11" d="m2.18,54.53c.12-.37-.08-.76-.44-.88-.37-.12-.76.08-.88.44s.08.76.44.88c.37.12.76-.08.88-.44Z"/>
      </g>
      <g>
        <path class="cls-9" d="m3.82,25.99h0c-.22,0-.41.18-.41.41v.92c0,.22.18.41.41.41h0c.22,0,.41-.18.41-.41v-.92c0-.22-.18-.41-.41-.41Z"/>
        <path class="cls-11" d="m5.39,24.63h0c-.87,0-1.57.71-1.57,1.57v3.12c0,.87.71,1.57,1.57,1.57h0c.87,0,1.57-.71,1.57-1.57v-3.12c0-.87-.71-1.57-1.57-1.57Z"/>
        <path class="cls-11" d="m7.44,27.51h0c-.28,0-.51-.23-.51-.51v-10.04c0-.28.23-.51.51-.51h0c.28,0,.51.23.51.51v10.04c0,.28-.23.51-.51.51Z"/>
        <g>
          <path class="cls-11" d="m8.09,21.67h0c-1.49,0-2.7,1.22-2.7,2.7v5.58c0,1.49,1.22,2.7,2.7,2.7h0c1.49,0,2.7-1.22,2.7-2.7v-5.58c0-1.49-1.22-2.7-2.7-2.7Z"/>
          <path class="cls-11" d="m11.13,17.1c-1.31,0-2.37,1.06-2.37,2.37s1.06,2.37,2.37,2.37,2.37-1.06,2.37-2.37-1.06-2.37-2.37-2.37Zm0,3.69c-.73,0-1.32-.59-1.32-1.32s.59-1.32,1.32-1.32,1.32.59,1.32,1.32-.59,1.32-1.32,1.32Z"/>
          <path class="cls-11" d="m14.65,35.46h0c-4.22,0-7.68-3.45-7.68-7.68v-3.09c0-4.22,3.45-7.68,7.68-7.68h0c4.22,0,7.68,3.45,7.68,7.68v3.09c0,4.22-3.45,7.68-7.68,7.68Z"/>
          <path class="cls-8" d="m15.41,33.84h0c-3.51,0-6.39-2.88-6.39-6.4v-2.58c0-3.52,2.87-6.4,6.39-6.4h0c3.51,0,6.39,2.88,6.39,6.4v2.58c0,3.52-2.87,6.4-6.39,6.4Z"/>
          <path class="cls-4" d="m13.08,32.24h0c-2.8,0-5.1-2.29-5.1-5.1v-2.05c0-2.8,2.29-5.1,5.1-5.1h0c2.8,0,5.1,2.29,5.1,5.1v2.05c0,2.8-2.29,5.1-5.1,5.1Z"/>
          <g>
            <rect class="cls-11" x="8.08" y="25.98" width="5" height="7.76" rx="2.5" ry="2.5"/>
            <path class="cls-10" d="m9.16,33.09h0c-.94,0-1.72-.77-1.72-1.72v-2.21c0-.94.77-1.72,1.72-1.72h0c.94,0,1.72.77,1.72,1.72v2.21c0,.94-.77,1.72-1.72,1.72Z"/>
            <path class="cls-8" d="m9.81,33.09h0c-.94,0-1.72-.77-1.72-1.72v-2.21c0-.94.77-1.72,1.72-1.72h0c.94,0,1.72.77,1.72,1.72v2.21c0,.94-.77,1.72-1.72,1.72Z"/>
          </g>
          <g>
            <path class="cls-11" d="m10.71,28.72h-1.79c-.12,0-.22-.1-.22-.22h0c0-.12.1-.22.22-.22h1.79c.12,0,.22.1.22.22h0c0,.12-.1.22-.22.22Z"/>
            <path class="cls-9" d="m9.82,28.74c-.3,0-.54.24-.54.54v1.06c0,.3.24.54.54.54s.54-.24.54-.54v-1.06c0-.3-.24-.54-.54-.54Zm0,1.75c-.14,0-.26-.12-.26-.26s.12-.26.26-.26.26.12.26.26-.12.26-.26.26Z"/>
            <circle class="cls-11" cx="9.82" cy="28.53" r=".54"/>
            <path class="cls-2" d="m9.97,29.18c0,.24-.19.43-.43.43s-.43-.19-.43-.43.19-.43.43-.43.43.19.43.43Z"/>
          </g>
          <path class="cls-11" d="m15.15,21.98h-7.61c-.37,0-.67.3-.67.67h0c0,.37.3.67.67.67h7.61c.37,0,.67-.3.67-.67h0c0-.37-.3-.67-.67-.67Z"/>
          <path class="cls-8" d="m9.43,21.24h-.81c-.37,0-.67.3-.67.67h0c0,.37.3.67.67.67h.81c.37,0,.67-.3.67-.67h0c0-.37-.3-.67-.67-.67Z"/>
          <path class="cls-11" d="m14.73,24.8h-7.61c-.37,0-.67.3-.67.67h0c0,.37.3.67.67.67h7.61c.37,0,.67-.3.67-.67h0c0-.37-.3-.67-.67-.67Z"/>
          <path class="cls-8" d="m10.25,24.13h-2.71c-.37,0-.67.3-.67.67h0c0,.37.3.67.67.67h2.71c.37,0,.67-.3.67-.67h0c0-.37-.3-.67-.67-.67Z"/>
        </g>
        <g>
          <path class="cls-11" d="m20.67,37.03h0c-4.6,0-8.36-3.76-8.36-8.36v-6.64c0-2.6,2.13-4.73,4.73-4.73h7.25c2.6,0,4.73,2.13,4.73,4.73v6.64c0,4.6-3.76,8.36-8.36,8.36Z"/>
          <path class="cls-4" d="m18.3,30.89l1.3-.31c3.12-.74,5.83,2.27,4.76,5.29l-.34.96c-.58,1.63-2.64,2.11-3.88.91l-2.93-2.85c-1.34-1.3-.71-3.57,1.1-4Z"/>
          <path class="cls-8" d="m20.43,30.53h4.43c1.88-.01,3.01,2.06,1.99,3.64l-2.23,3.46c-.93,1.45-3.06,1.45-3.99-.01l-2.2-3.45c-1-1.57.13-3.63,1.99-3.64Z"/>
          <path class="cls-2" d="m22.62,30.74l1.91.16c1.96.16,2.97,2.43,1.77,3.99l-1.09,1.42c-1.1,1.44-3.33,1.25-4.17-.36l-.83-1.57c-.91-1.73.45-3.79,2.4-3.63Z"/>
          <path class="cls-10" d="m22.51,31.24l1.64.13c1.68.14,2.53,2.24,1.49,3.7l-.94,1.32c-.96,1.34-2.86,1.18-3.58-.31l-.7-1.46c-.77-1.61.41-3.53,2.08-3.39Z"/>
          <path class="cls-4" d="m18.97,18.33h0c-2.18,0-3.96,1.78-3.96,3.97v1.56c0,2.18,1.78,3.97,3.96,3.97h0c2.18,0,3.96-1.78,3.96-3.97v-1.56c0-2.18-1.78-3.97-3.96-3.97Z"/>
          <path class="cls-4" d="m25.56,18.28h0c-2.18,0-3.96,1.78-3.96,3.97v1.56c0,2.18,1.78,3.97,3.96,3.97h0c2.18,0,3.96-1.78,3.96-3.97v-1.56c0-2.18-1.78-3.97-3.96-3.97Z"/>
          <path class="cls-8" d="m22.5,18.57h0c-2.05-.75-4.34.32-5.08,2.37l-.53,1.46c-.75,2.05.32,4.34,2.37,5.08h0c2.05.75,4.34-.32,5.08-2.37l.53-1.46c.75-2.05-.32-4.34-2.37-5.08Z"/>
          <path class="cls-8" d="m29.22,18.52h0c-2.05-.75-4.34.32-5.08,2.37l-.53,1.46c-.75,2.05.32,4.34,2.37,5.08h0c2.05.75,4.34-.32,5.08-2.37l.53-1.46c.75-2.05-.32-4.34-2.37-5.08Z"/>
          <path class="cls-2" d="m21.86,19.05h0c-1.52,0-2.76,1.24-2.76,2.76v1.17c0,1.52,1.24,2.76,2.76,2.76h0c1.52,0,2.76-1.24,2.76-2.76v-1.17c0-1.52-1.24-2.76-2.76-2.76Z"/>
          <rect class="cls-10" x="18.43" y="19.69" width="5.53" height="6.06" rx="2.76" ry="2.76"/>
          <path class="cls-2" d="m28.54,19.05h0c-1.52,0-2.76,1.24-2.76,2.76v1.17c0,1.52,1.24,2.76,2.76,2.76h0c1.52,0,2.76-1.24,2.76-2.76v-1.17c0-1.52-1.24-2.76-2.76-2.76Z"/>
          <path class="cls-10" d="m28.01,19.69h0c-1.52,0-2.76,1.24-2.76,2.76v.53c0,1.52,1.24,2.76,2.76,2.76h0c1.52,0,2.76-1.24,2.76-2.76v-.53c0-1.52-1.24-2.76-2.76-2.76Z"/>
          <path class="cls-4" d="m17.59,20.7h-1.1c-.29,0-.53.24-.53.53h0c0,.29.24.53.53.53h1.1c.29,0,.53-.24.53-.53h0c0-.29-.24-.53-.53-.53Z"/>
          <path class="cls-4" d="m16.99,23.61h-1.1c-.29,0-.53.24-.53.53h0c0,.29.24.53.53.53h1.1c.29,0,.53-.24.53-.53h0c0-.29-.24-.53-.53-.53Z"/>
          <path class="cls-8" d="m17.76,21.24c0-.13-.11-.24-.24-.24s-.24.11-.24.24.11.24.24.24.24-.11.24-.24Z"/>
          <path class="cls-4" d="m18.98,31.26h-1.1c-.29,0-.53.24-.53.53h0c0,.29.24.53.53.53h1.1c.29,0,.53-.24.53-.53h0c0-.29-.24-.53-.53-.53Z"/>
          <path class="cls-8" d="m19.15,31.79c0-.13-.11-.24-.24-.24s-.24.11-.24.24.11.24.24.24.24-.11.24-.24Z"/>
          <path class="cls-4" d="m19.22,33.99h-1.1c-.29,0-.53.24-.53.53h0c0,.29.24.53.53.53h1.1c.29,0,.53-.24.53-.53h0c0-.29-.24-.53-.53-.53Z"/>
          <circle class="cls-8" cx="19.15" cy="34.53" r=".24"/>
          <path class="cls-8" d="m17.18,24.14c0-.13-.11-.24-.24-.24s-.24.11-.24.24.11.24.24.24.24-.11.24-.24Z"/>
          <path class="cls-11" d="m15.55,20.7h-1.1c-.29,0-.53.24-.53.53h0c0,.29.24.53.53.53h1.1c.29,0,.53-.24.53-.53h0c0-.29-.24-.53-.53-.53Z"/>
          <path class="cls-4" d="m15.72,21.24c0-.13-.11-.24-.24-.24s-.24.11-.24.24.11.24.24.24.24-.11.24-.24Z"/>
          <path class="cls-11" d="m17.17,32.55h-1.1c-.29,0-.53.24-.53.53h0c0,.29.24.53.53.53h1.1c.29,0,.53-.24.53-.53h0c0-.29-.24-.53-.53-.53Z"/>
          <path class="cls-11" d="m15.55,22.71h-1.1c-.29,0-.53.24-.53.53h0c0,.29.24.53.53.53h1.1c.29,0,.53-.24.53-.53h0c0-.29-.24-.53-.53-.53Z"/>
          <circle class="cls-4" cx="15.48" cy="23.25" r=".24"/>
          <path class="cls-11" d="m15.79,24.89h-1.1c-.29,0-.53.24-.53.53h0c0,.29.24.53.53.53h1.1c.29,0,.53-.24.53-.53h0c0-.29-.24-.53-.53-.53Z"/>
          <path class="cls-2" d="m23.74,20.01c.49.64.45,1.48-.07,1.88-.52.4-1.34.21-1.83-.43-.49-.64-.45-1.48.07-1.88.52-.4,1.34-.21,1.83.43Z"/>
          <path class="cls-2" d="m22.41,20.9c.12.24-.08.58-.45.77-.37.19-.77.15-.89-.09-.12-.24.08-.58.45-.77.37-.19.77-.15.89.09Z"/>
          <path class="cls-2" d="m20.65,21.88c.05.1.01.23-.09.29-.1.05-.23.01-.29-.09-.05-.1-.01-.23.09-.29.1-.05.23-.01.29.09Z"/>
          <path class="cls-2" d="m25.97,31.75c.49.64.45,1.48-.07,1.88-.52.4-1.34.21-1.83-.43-.49-.64-.45-1.48.07-1.88.52-.4,1.34-.21,1.83.43Z"/>
          <path class="cls-2" d="m24.64,32.64c.12.24-.08.58-.45.77-.37.19-.77.15-.89-.09s.08-.58.45-.77c.37-.19.77-.15.89.09Z"/>
          <path class="cls-2" d="m22.88,33.63c.05.1.01.23-.09.29-.1.05-.23.01-.29-.09-.05-.1-.01-.23.09-.29.1-.05.23-.01.29.09Z"/>
          <path class="cls-2" d="m30.43,20.01c.49.64.45,1.48-.07,1.88-.52.4-1.34.21-1.83-.43-.49-.64-.45-1.48.07-1.88.52-.4,1.34-.21,1.83.43Z"/>
          <path class="cls-2" d="m29.1,20.9c.12.24-.08.58-.45.77-.37.19-.77.15-.89-.09-.12-.24.08-.58.45-.77.37-.19.77-.15.89.09Z"/>
          <path class="cls-2" d="m27.34,21.88c.05.1.01.23-.09.29-.1.05-.23.01-.29-.09-.05-.1-.01-.23.09-.29.1-.05.23-.01.29.09Z"/>
          <path class="cls-8" d="m20.9,19.04h-2.72c-.2,0-.36-.16-.36-.36h0c0-.2.16-.36.36-.36h2.72c.2,0,.36.16.36.36h0c0,.2-.16.36-.36.36Z"/>
          <path class="cls-8" d="m27.79,18.99h-2.72c-.2,0-.36-.16-.36-.36h0c0-.2.16-.36.36-.36h2.72c.2,0,.36.16.36.36h0c0,.2-.16.36-.36.36Z"/>
          <path class="cls-6" d="m16.2,26.8h-1.05c-.45,0-.71-.49-.47-.86l.53-.82c.22-.34.73-.34.95,0l.52.82c.24.37-.03.86-.47.86Z"/>
          <path class="cls-6" d="m15.72,32.42l.74-.74c.31-.32.85-.16.95.28l.21.96c.09.4-.27.76-.67.67l-.95-.21c-.43-.1-.59-.63-.28-.95Z"/>
          <path class="cls-9" d="m16.25,26.46h-1.16c-.1,0-.19.08-.19.19v2.57c0,.86.16,1.72.46,2.53l.38,1.01c.07.07.19.08.27,0l.83-.81c.07-.07.08-.19,0-.27h0c-.27-.77-.41-1.57-.41-2.39v-2.64c0-.1-.08-.19-.19-.19Z"/>
          <circle class="cls-11" cx="15.68" cy="24.97" r=".5"/>
          <circle class="cls-4" cx="15.68" cy="24.97" r=".27"/>
          <polygon class="cls-2" points="20.46 32.24 21.88 32.33 20.88 31.55 20.46 32.24"/>
          <path class="cls-8" d="m19.93,25.96s.31-1.14,3-2.11l-2.06,2.61-.95-.5Z"/>
          <path class="cls-4" d="m18.42,27.26s.77-.89,2.85-1.3l-.74,1.86-1.87-.08-.25-.47Z"/>
          <path class="cls-8" d="m25.09,22.71s1.32.65,1.85,1.67l-1.95-.9.11-.78Z"/>
          <path class="cls-8" d="m28.76,26.49s-.49-.91-1.23-1.25l.69,1.35.54-.1Z"/>
          <path class="cls-8" d="m20.07,31.23s1.13,1.16,2.57,1.24l-1.45-1.74-1.12.5Z"/>
          <path class="cls-8" d="m24.92,32.57s1.15.05,2.02-.33l-.5-.73-1.52,1.06Z"/>
          <path class="cls-11" d="m17.95,33.62c0-.28-.22-.5-.5-.5s-.5.22-.5.5.22.5.5.5.5-.22.5-.5Z"/>
          <path class="cls-11" d="m19.09,28.22s.62-1.3,1.96-1.99l-.52,2.05-1.44-.07Z"/>
          <circle class="cls-4" cx="17.45" cy="33.63" r=".27"/>
          <path class="cls-11" d="m27.95,26.23s.79.94.68,2.47l-1.04-.72.36-1.74Z"/>
          <path class="cls-2" d="m28.06,28.68c.46-2.58-.91-4.98-3.06-5.36s-4.25,1.41-4.71,3.99c-.46,2.58.91,4.98,3.06,5.36,2.14.38,4.25-1.41,4.71-3.99Z"/>
          <path class="cls-11" d="m27.64,28.63c.39-2.22-.73-4.26-2.5-4.58s-3.52,1.23-3.92,3.45c-.39,2.22.73,4.26,2.5,4.58s3.52-1.23,3.92-3.45Z"/>
          <path class="cls-4" d="m27.34,28.49c.32-1.83-.56-3.52-1.97-3.77-1.41-.25-2.82,1.03-3.14,2.86-.32,1.83.56,3.52,1.97,3.77,1.41.25,2.82-1.03,3.14-2.86Z"/>
          <path class="cls-13" d="m27.37,28.49c.28-1.6-.49-3.08-1.73-3.3-1.24-.22-2.47.91-2.75,2.51-.28,1.6.49,3.08,1.73,3.3,1.24.22,2.47-.91,2.75-2.51Z"/>
          <path class="cls-9" d="m27.14,28.36c.21-1.2-.37-2.31-1.3-2.47-.93-.16-1.85.68-2.06,1.88s.37,2.31,1.3,2.47c.93.16,1.85-.68,2.06-1.88Z"/>
          <path class="cls-2" d="m26.47,28.24c.13-.74-.18-1.42-.69-1.51-.51-.09-1.04.44-1.17,1.18-.13.74.18,1.42.69,1.51.51.09,1.04-.44,1.17-1.18Z"/>
          <path class="cls-2" d="m25.67,26.04c.11.52.06.97-.12,1.01s-.42-.35-.53-.86c-.11-.52-.06-.97.12-1.01.18-.04.42.35.53.86Z"/>
          <path class="cls-2" d="m25.26,29.71c-.37.37-.78.57-.91.44-.13-.13.07-.54.44-.91.37-.37.78-.57.91-.44.13.13-.07.54-.44.91Z"/>
          <path class="cls-2" d="m24.27,28.22c-.39,0-.7-.11-.7-.25s.32-.25.7-.25.7.11.7.25-.32.25-.7.25Z"/>
          <path class="cls-2" d="m26.56,28.22c-.39,0-.7-.11-.7-.25s.32-.25.7-.25.7.11.7.25-.32.25-.7.25Z"/>
          <path class="cls-2" d="m26.32,27.19c-.22.22-.46.34-.54.26s.04-.32.26-.54c.22-.22.46-.34.54-.26.08.08-.04.32-.26.54Z"/>
          <path class="cls-2" d="m26.52,25.98c-.14.24-.32.4-.4.35-.08-.05-.04-.28.1-.52.14-.24.32-.4.4-.35.08.05.04.28-.1.53Z"/>
          <path class="cls-2" d="m24.1,27.13c-.24-.14-.4-.32-.35-.4.05-.08.28-.04.52.1.24.14.4.32.35.4-.05.08-.28.04-.52-.1Z"/>
          <path class="cls-2" d="m26.91,29.02c-.15-.09-.25-.2-.22-.25s.18-.02.33.06c.15.09.25.2.22.25-.03.05-.18.02-.33-.06Z"/>
          <path class="cls-2" d="m23.97,29.66c-.18.12-.37.17-.41.1-.04-.06.07-.21.26-.33.18-.12.37-.17.41-.1.04.06-.07.21-.26.33Z"/>
          <path class="cls-2" d="m25.76,29.21c-.23-.23-.35-.49-.27-.57.08-.08.33.04.57.27s.35.49.27.57c-.08.08-.33-.04-.57-.27Z"/>
        </g>
        <path class="cls-11" d="m4.49,26.21c0-.37-.3-.67-.67-.67s-.67.3-.67.67.3.67.67.67.67-.3.67-.67Z"/>
      </g>
      <g>
        <path class="cls-11" d="m19.59,15.38s-.08.06-.13.05c-.07,0-1.68-.23-1.94-1.2-.2-.74.46-1.68,1.94-2.8.06-.05.16-.04.2.03.05.06.03.16-.03.2-1.36,1.02-2,1.88-1.83,2.49.21.79,1.68.99,1.69.99.08.01.14.08.13.16,0,.03-.02.05-.03.07Z"/>
        <path class="cls-11" d="m18.92,12.57s.07.07.07.12c0,.07.05,1.69-.88,2.1-.7.31-1.74-.18-3.07-1.47-.06-.06-.06-.15,0-.21.06-.06.15-.06.21,0,1.22,1.18,2.18,1.67,2.75,1.41.75-.33.71-1.81.71-1.83,0-.08.06-.15.14-.15.03,0,.05,0,.08.02Z"/>
        <path class="cls-11" d="m27.16,12.57s.07.07.07.12c0,.07.05,1.69-.88,2.1-.7.31-1.74-.18-3.07-1.47-.06-.06-.06-.15,0-.21.06-.06.15-.06.21,0,1.22,1.18,2.18,1.67,2.75,1.41.75-.33.71-1.81.71-1.83,0-.08.06-.15.14-.15.03,0,.05,0,.08.02Z"/>
        <path class="cls-11" d="m22.12,12.27s.05-.09.1-.1c.07-.02,1.62-.5,2.26.28.49.59.29,1.72-.59,3.35-.04.07-.13.1-.2.06-.07-.04-.1-.13-.06-.2.81-1.5,1.02-2.54.62-3.03-.52-.63-1.94-.19-1.95-.19-.08.02-.16-.02-.18-.1,0-.03,0-.05,0-.08Z"/>
        <path class="cls-11" d="m22.07,12.29h0c-.58-.1-1.14.29-1.25.87l-.54,3.08c-.1.58.29,1.14.87,1.25h0c.58.1,1.14-.29,1.25-.87l.54-3.08c.1-.58-.29-1.14-.87-1.25Z"/>
        <path class="cls-11" d="m19.9,17.89h0c-.19.04-.39-.08-.43-.27l-.96-4.32c-.04-.19.08-.39.27-.43h0c.19-.04.39.08.43.27l.96,4.32c.04.19-.08.39-.27.43Z"/>
        <path class="cls-11" d="m23.58,17.92h0c-.2,0-.36-.16-.36-.36v-4.37c0-.2.16-.36.36-.36h0c.2,0,.36.16.36.36v4.37c0,.2-.16.36-.36.36Z"/>
        <g>
          <path class="cls-11" d="m32.87,8.82h0c-.25.25-.67.25-.93,0l-7.7-7.7c-.25-.25-.25-.67,0-.93h0c.25-.25.67-.25.93,0l7.7,7.7c.25.25.25.67,0,.93Z"/>
          <path class="cls-11" d="m18.89,8.82h0c-.25.25-.67.25-.93,0L10.26,1.12c-.25-.25-.25-.67,0-.93h0c.25-.25.67-.25.93,0l7.7,7.7c.25.25.25.67,0,.93Z"/>
          <path class="cls-11" d="m17.72,11.07h0c-.76.76-2,.76-2.75,0l-4.27-4.27c-.76-.76-.76-2,0-2.75h0c.76-.76,2-.76,2.75,0l4.27,4.27c.76.76.76,2,0,2.75Z"/>
          <path class="cls-4" d="m15.61,5.34l-1.38-1.38c-.39-.39-1.03-.39-1.42,0h0c-.39.39-.39,1.03,0,1.42l1.38,1.38c.39.39,1.03.39,1.42,0h0c.39-.39.39-1.03,0-1.42Z"/>
          <path class="cls-11" d="m12.99,11.79l-2.13-2.13c-.22-.22-.22-.58,0-.79h0c.22-.22.58-.22.79,0l2.13,2.13c.22.22.22.58,0,.79h0c-.22.22-.58.22-.79,0Z"/>
          <path class="cls-11" d="m22.03,2.9h-1.95c-.55,0-1,.45-1,1h0c0,.55.45,1,1,1h1.95c.55,0,1-.45,1-1h0c0-.55-.45-1-1-1Z"/>
          <path class="cls-11" d="m28.65,3.9h-11.87c-2.7,0-4.91,2.21-4.91,4.91h0c0,2.7,2.21,4.91,4.91,4.91h11.87c2.7,0,4.91-2.21,4.91-4.91h0c0-2.7-2.21-4.91-4.91-4.91Z"/>
          <path class="cls-4" d="m17.38,6.45h-3.17c-.48,0-.88.4-.88.88h0c0,.48.4.88.88.88h3.17c.48,0,.88-.4.88-.88h0c0-.48-.4-.88-.88-.88Z"/>
          <circle class="cls-11" cx="17.21" cy="7.33" r="2.33"/>
          <path class="cls-4" d="m18.84,7.33c0-.97-.79-1.76-1.76-1.76s-1.76.79-1.76,1.76.79,1.76,1.76,1.76,1.76-.79,1.76-1.76Z"/>
          <ellipse class="cls-2" cx="17" cy="7.32" rx="1.05" ry="1.21"/>
          <path class="cls-8" d="m17.67,7.32c0-.67-.47-1.21-1.05-1.21s-1.05.54-1.05,1.21.47,1.21,1.05,1.21,1.05-.54,1.05-1.21Z"/>
          <path class="cls-4" d="m17.29,9.5h-2.97c-.24,0-.43.19-.43.43h0c0,.24.19.43.43.43h2.97c.24,0,.43-.19.43-.43h0c0-.24-.19-.43-.43-.43Z"/>
          <path class="cls-4" d="m16.37,9.93h0c-.27,0-.5.22-.5.5v.67c0,.27.22.5.5.5h0c.27,0,.5-.22.5-.5v-.67c0-.27-.22-.5-.5-.5Z"/>
          <path class="cls-4" d="m29.83,5.36h-8.17c-.34,0-.62.28-.62.62h0c0,.34.28.62.62.62h8.17c.34,0,.62-.28.62-.62h0c0-.34-.28-.62-.62-.62Z"/>
          <rect class="cls-4" x="15.27" y="11.02" width="3.63" height="1.24" rx=".62" ry=".62"/>
          <path class="cls-8" d="m28.09,6.61h-4.31c-.34,0-.62-.28-.62-.62h0c0-.34.28-.62.62-.62h4.31c.34,0,.62.28.62.62h0c0,.34-.28.62-.62.62Z"/>
          <circle class="cls-2" cx="26.69" cy="5.99" r=".62"/>
          <g>
            <path class="cls-2" d="m23.91,8.4h-3.19c-.61,0-1.11.5-1.11,1.11h0c0,.61.5,1.11,1.11,1.11h3.19c.61,0,1.11-.5,1.11-1.11h0c0-.61-.5-1.11-1.11-1.11Z"/>
            <path class="cls-13" d="m23.91,7.74h-3.19c-.61,0-1.11.5-1.11,1.11h0c0,.61.5,1.11,1.11,1.11h3.19c.61,0,1.11-.5,1.11-1.11h0c0-.61-.5-1.11-1.11-1.11Z"/>
            <path class="cls-9" d="m24.01,8.53h-2.58c-.48,0-.88.4-.88.88h0c0,.48.4.88.88.88h2.58c.48,0,.88-.39.88-.88h0c0-.48-.39-.88-.88-.88Z"/>
            <path class="cls-2" d="m24.63,8.28h-1.31c-.44,0-.8.36-.8.8h0c0,.44.36.8.8.8h1.31c.44,0,.8-.36.8-.8h0c0-.44-.36-.8-.8-.8Z"/>
            <path class="cls-2" d="m21.92,9.28c0-.29-.23-.52-.52-.52s-.52.23-.52.52.23.52.52.52.52-.23.52-.52Z"/>
          </g>
          <g>
            <path class="cls-2" d="m31.15,8.4h-3.19c-.61,0-1.11.5-1.11,1.11h0c0,.61.5,1.11,1.11,1.11h3.19c.61,0,1.11-.5,1.11-1.11h0c0-.61-.5-1.11-1.11-1.11Z"/>
            <path class="cls-13" d="m31.15,7.74h-3.19c-.61,0-1.11.5-1.11,1.11h0c0,.61.5,1.11,1.11,1.11h3.19c.61,0,1.11-.5,1.11-1.11h0c0-.61-.5-1.11-1.11-1.11Z"/>
            <path class="cls-9" d="m31.25,8.53h-2.58c-.48,0-.88.4-.88.88h0c0,.48.4.88.88.88h2.58c.48,0,.88-.39.88-.88h0c0-.48-.4-.88-.88-.88Z"/>
            <path class="cls-2" d="m31.87,8.28h-1.31c-.44,0-.8.36-.8.8h0c0,.44.36.8.8.8h1.31c.44,0,.8-.36.8-.8h0c0-.44-.36-.8-.8-.8Z"/>
            <path class="cls-2" d="m29.16,9.28c0-.29-.23-.52-.52-.52s-.52.23-.52.52.23.52.52.52.52-.23.52-.52Z"/>
          </g>
        </g>
      </g>
      <g>
        <path class="cls-11" d="m30.04,16.49h-9.82c-.37,0-.67.3-.67.67h0c0,.37.3.67.67.67h9.82c.37,0,.67-.3.67-.67h0c0-.37-.3-.67-.67-.67Z"/>
        <path class="cls-11" d="m20.13,20.13h0c-1-.36-1.51-1.47-1.15-2.47l1.65-4.53c.36-1,1.47-1.51,2.47-1.15h0c1,.36,1.51,1.47,1.15,2.47l-1.65,4.53c-.36,1-1.47,1.51-2.47,1.15Z"/>
        <path class="cls-11" d="m18.07,20.13h0c-1-.36-1.51-1.47-1.15-2.47l1.65-4.53c.36-1,1.47-1.51,2.47-1.15h0c1,.36,1.51,1.47,1.15,2.47l-1.65,4.53c-.36,1-1.47,1.51-2.47,1.15Z"/>
        <g>
          <path class="cls-11" d="m38.36,11.7c-.07-.06-.12-.16-.1-.26.02-.14.44-3.33,2.38-3.85,1.47-.39,3.34.9,5.56,3.84.1.13.07.31-.06.41-.13.1-.31.07-.41-.06-2.03-2.7-3.74-3.95-4.95-3.63-1.57.42-1.95,3.33-1.96,3.36-.02.16-.17.27-.32.25-.06,0-.11-.03-.15-.06Z"/>
          <path class="cls-12" d="m41.46,14.49c-.09-.02-.17-.1-.2-.2-.04-.13-.96-3.22.6-4.49,1.18-.96,3.42-.55,6.65,1.23.14.08.19.25.11.39-.08.14-.25.19-.39.11-2.96-1.63-5.03-2.07-6-1.29-1.26,1.02-.42,3.84-.41,3.87.05.15-.04.31-.19.36-.05.02-.11.02-.16,0Z"/>
          <path class="cls-2" d="m45.38,10.33c.22,0,.4-.18.4-.4s-.18-.4-.4-.4c-.22,0-.4.18-.4.4,0,.22.18.4.4.4Z"/>
          <path class="cls-2" d="m42.77,9.83c.16,0,.3-.13.3-.3,0-.16-.13-.3-.3-.3-.16,0-.3.13-.3.3,0,.16.13.3.3.3Z"/>
        </g>
        <path class="cls-11" d="m49.74,19.68h-3.11v-7.77h7.56c.92,0,1.66.74,1.66,1.66h0c0,3.38-2.74,6.11-6.11,6.11Z"/>
        <path class="cls-11" d="m49.48,12.23v-1.44c0-.37-.3-.67-.67-.67h0c-.37,0-.67.3-.67.67v1.44c0,.37.3.67.67.67h0c.37,0,.67-.3.67-.67Z"/>
        <path class="cls-11" d="m56.38,13.47v-1.44c0-.37-.3-.67-.67-.67h0c-.37,0-.67.3-.67.67v1.44c0,.37.3.67.67.67h0c.37,0,.67-.3.67-.67Z"/>
        <path class="cls-11" d="m49.6,11.16h-15.33c-.77,0-1.4.63-1.4,1.4h0c0,.77.63,1.4,1.4,1.4h15.33c.77,0,1.4-.63,1.4-1.4h0c0-.77-.63-1.4-1.4-1.4Z"/>
        <path class="cls-11" d="m32.74,14.58h-11.34c-.48,0-.88-.4-.88-.88h0c0-.48.4-.88.88-.88h11.34c.48,0,.88.4.88.88h0c0,.48-.4.88-.88.88Z"/>
        <path class="cls-11" d="m46.1,20.32h-6.74c-1.28,0-2.32,1.05-2.32,2.32h0c0,1.28,1.04,2.32,2.32,2.32h6.74c1.28,0,2.32-1.05,2.32-2.32h0c0-1.28-1.04-2.32-2.32-2.32Z"/>
        <path class="cls-11" d="m33.37,15.48h0c-1.82-.56-3.77.48-4.32,2.3l-.9,2.94c-.56,1.82.48,3.77,2.3,4.32h0c1.82.56,3.77-.48,4.32-2.3l.9-2.94c.56-1.82-.48-3.77-2.3-4.32Z"/>
        <path class="cls-11" d="m49.46,19.36v-1.24c0-.37-.3-.67-.67-.67h0c-.37,0-.67.3-.67.67v1.24c0,.37.3.67.67.67h0c.37,0,.67-.3.67-.67Z"/>
        <path class="cls-2" d="m42.43,15.64l4.89-1.09,3.78.56.61-1.47c.19-.45-.03-.82-.48-.82h-19.6c-.45,0-.97.37-1.15.82l-1.42,3.41h11.49c.45,0,.66.37.48.82-.67,1.63.52,3.41,2.28,3.41h2.18l-3.06-5.64Z"/>
        <path class="cls-11" d="m41.3,23.01h-8.61c-2.17,0-3.95-1.78-3.95-3.95h0c0-2.17,1.78-3.95,3.95-3.95h8.61c2.17,0,3.95,1.78,3.95,3.95h0c0,2.17-1.78,3.95-3.95,3.95Z"/>
        <path class="cls-3" d="m40.83,17.94h6.05c2.24,0,4.26-1.35,5.11-3.41h0c.19-.45-.03-.82-.48-.82h-19.6c-.45,0-.97.37-1.15.82l-1.42,3.41h11.49Z"/>
        <path class="cls-5" d="m38.59,21.46h-2.28c-.66,0-1.2-.54-1.2-1.2h0c0-.66.54-1.2,1.2-1.2h2.28c.66,0,1.2.54,1.2,1.2h0c0,.66-.54,1.2-1.2,1.2Z"/>
        <path class="cls-11" d="m32.04,15.48h0c-1.82-.56-3.77.48-4.32,2.3l-.9,2.94c-.56,1.82.48,3.77,2.3,4.32h0c1.82.56,3.77-.48,4.32-2.3l.9-2.94c.56-1.82-.48-3.77-2.3-4.32Z"/>
        <path class="cls-5" d="m31.58,16.56h0c-1.23-.38-2.58.46-3.01,1.85l-.69,2.25c-.43,1.39.23,2.84,1.46,3.22h0c1.23.38,2.58-.46,3.01-1.85l.69-2.25c.43-1.39-.23-2.84-1.46-3.22Z"/>
        <path class="cls-2" d="m27.88,21.39l.69-2.25c.43-1.39,1.78-2.23,3.01-1.85.87.27,1.45,1.08,1.56,2.02.16-1.23-.47-2.41-1.56-2.74-1.23-.38-2.58.46-3.01,1.85l-.69,2.25c-.12.4-.15.81-.1,1.2.02-.16.05-.32.1-.48Z"/>
        <circle class="cls-11" cx="30.97" cy="18.81" r=".87"/>
        <path class="cls-11" d="m30.7,21.9c0-.41-.33-.74-.74-.74s-.74.33-.74.74.33.74.74.74.74-.33.74-.74Z"/>
        <g>
          <path class="cls-11" d="m45.86,21.04h0c-.98-.36-1.49-1.45-1.13-2.43l1.08-2.97c.36-.98,1.45-1.49,2.43-1.13h0c.98.36,1.49,1.45,1.13,2.43l-1.08,2.97c-.36.98-1.45,1.49-2.43,1.13Z"/>
          <path class="cls-9" d="m46.7,18.74h0c-.67-.24-1.01-.99-.77-1.65l.36-.98c.24-.67.99-1.01,1.65-.77h0c.67.24,1.01.99.77,1.65l-.36.98c-.24.67-.99,1.01-1.65.77Z"/>
          <path class="cls-13" d="m47.94,17.42c0-.49-.4-.88-.88-.88s-.88.4-.88.88.4.88.88.88.88-.4.88-.88Z"/>
          <path class="cls-2" d="m48.39,16.52c0-.49-.4-.88-.88-.88s-.88.4-.88.88.4.88.88.88.88-.4.88-.88Z"/>
        </g>
        <path class="cls-2" d="m36.28,19.34h0c-.51,0-.92.41-.92.92h0c0,.51.41.92.92.92h0c.51,0,.92-.41.92-.92h0c0-.51-.41-.92-.92-.92Z"/>
        <g>
          <path class="cls-11" d="m60.03,12.82h-4.96c-1.01,0-1.84.83-1.84,1.84h0c0,1.01.83,1.84,1.84,1.84h4.96c.56,0,1.02-.46,1.02-1.02v-1.65c0-.56-.46-1.02-1.02-1.02Z"/>
          <rect class="cls-11" x="51" y="17.05" width="9.84" height="1.47" rx=".67" ry=".67"/>
          <path class="cls-11" d="m59.97,17.21v-1.24c0-.37-.3-.67-.67-.67h0c-.37,0-.67.3-.67.67v1.24c0,.37.3.67.67.67h0c.37,0,.67-.3.67-.67Z"/>
          <path class="cls-5" d="m59.91,14.9h-6.01c-.33,0-.61-.27-.61-.61h0c0-.33.27-.61.61-.61h6.01c.33,0,.61.27.61.61h0c0,.33-.27.61-.61.61Z"/>
          <path class="cls-5" d="m59.02,15.63c0-.24-.19-.44-.43-.44s-.43.19-.43.44.19.43.43.43.43-.19.43-.43Z"/>
          <path class="cls-2" d="m59.91,13.69h0c-.33,0-.61.27-.61.61h0c0,.33.27.61.61.61h0c.33,0,.61-.27.61-.61h0c0-.33-.27-.61-.61-.61Z"/>
          <path class="cls-2" d="m57.82,14.9h-.99c-.33,0-.61-.27-.61-.61h0c0-.33.27-.61.61-.61h.99c.33,0,.61.27.61.61h0c0,.33-.27.61-.61.61Z"/>
        </g>
        <g>
          <path class="cls-11" d="m42.57,14.54h-6.53c-.6,0-1.09-.49-1.09-1.09h0c0-.6.49-1.09,1.09-1.09h6.53c.6,0,1.09.49,1.09,1.09h0c0,.6-.49,1.09-1.09,1.09Z"/>
          <path class="cls-5" d="m38.72,13.95h-2.54c-.27,0-.49-.22-.49-.49h0c0-.27.22-.49.49-.49h2.54c.27,0,.49.22.49.49h0c0,.27-.22.49-.49.49Z"/>
          <path class="cls-5" d="m42.43,12.96h0c-.25,0-.46.21-.46.46h0c0,.25.21.46.46.46h0c.25,0,.46-.21.46-.46h0c0-.25-.21-.46-.46-.46Z"/>
        </g>
        <g>
          <path class="cls-11" d="m48.54,19.31h-5.58c-2.11,0-3.83,2-3.83,4.44h0c0,2.44,1.72,4.44,3.83,4.44h4.2c2.11,0,3.83-2,3.83-4.44v-1.6c0-1.56-1.1-2.84-2.45-2.84Z"/>
          <path class="cls-2" d="m47.71,20.66h-4.59c-1.73,0-3.15,1.42-3.15,3.15h0c0,1.73,1.42,3.15,3.15,3.15h3.45c1.73,0,3.15-1.42,3.15-3.15v-1.14c0-1.11-.91-2.02-2.02-2.02Z"/>
          <path class="cls-9" d="m46.43,21.46h-3.17c-1.3,0-2.36,1.06-2.36,2.36h0c0,1.3,1.06,2.36,2.36,2.36h3.17c1.3,0,2.36-1.06,2.36-2.36h0c0-1.3-1.06-2.36-2.36-2.36Z"/>
          <circle class="cls-2" cx="46.4" cy="22.42" r="1.25"/>
          <circle class="cls-2" cx="42.8" cy="24.54" r=".86"/>
        </g>
        <path class="cls-3" d="m19.07,20.13h0c-1-.36-1.51-1.47-1.15-2.47l1.65-4.53c.36-1,1.47-1.51,2.47-1.15h0c1,.36,1.51,1.47,1.15,2.47l-1.65,4.53c-.36,1-1.47,1.51-2.47,1.15Z"/>
        <path class="cls-2" d="m22.05,11.98c-.34-.13-.7-.14-1.04-.07.09.02.19.04.28.07,1,.36,1.51,1.47,1.15,2.47l-1.65,4.53c-.24.65-.8,1.09-1.43,1.22.92.18,1.86-.32,2.19-1.22l1.65-4.53c.36-1-.15-2.11-1.15-2.47Z"/>
        <path class="cls-11" d="m38.92,10.87h-.68c-.16,0-.29.13-.29.29h0c0,.16.13.29.29.29h.68c.16,0,.29-.13.29-.29h0c0-.16-.13-.29-.29-.29Z"/>
      </g>
      <g>
        <path class="cls-9" d="m20.84,27.05c0,.1-.05.19-.13.25-.12.07-2.85,1.78-4.49.62-1.24-.89-1.44-3.15-.58-6.74.04-.16.19-.25.35-.21.16.04.25.19.21.35-.78,3.28-.66,5.4.35,6.13,1.32.94,3.81-.62,3.84-.63.13-.09.31-.05.4.09.03.05.04.1.04.15Z"/>
        <path class="cls-11" d="m19.71,15.69c-1.45-1.79-4.07-2.06-5.86-.61-1.79,1.45-2.06,4.07-.61,5.86,1.45,1.79,4.07,2.06,5.86.61s2.06-4.07.61-5.86Z"/>
        <path class="cls-11" d="m25.56,25.48c-.88-1.09-2.48-1.25-3.56-.37-1.09.88-1.25,2.48-.37,3.56.88,1.09,2.48,1.25,3.56.37,1.09-.88,1.25-2.48.37-3.56Z"/>
        <path class="cls-11" d="m15.74,20.29h0c-.31.25-.35.7-.1,1.01l6.1,7.5c.25.31.7.35,1.01.1h0c.31-.25.35-.7.1-1.01l-6.09-7.5c-.25-.31-.7-.35-1.01-.1Z"/>
        <path class="cls-11" d="m18.56,18h0c-.31.25-.35.7-.1,1.01l6.1,7.5c.25.31.7.35,1.01.1h0c.31-.25.35-.7.1-1.01l-6.09-7.5c-.25-.31-.7-.35-1.01-.1Z"/>
        <path class="cls-13" d="m18.64,16.34c-.97-1.2-2.76-1.36-3.98-.37-1.22.99-1.43,2.77-.45,3.97.97,1.2,2.76,1.36,3.98.37,1.22-1,1.43-2.77.45-3.97Z"/>
        <path class="cls-2" d="m18.05,16.82c-.71-.88-2.01-1-2.91-.27-.9.73-1.04,2.03-.33,2.9s2.01,1,2.91.27c.9-.73,1.04-2.03.33-2.9Z"/>
        <path class="cls-9" d="m17.57,17.11c-.59-.73-1.68-.83-2.42-.22-.75.61-.87,1.69-.28,2.42s1.68.83,2.42.22c.75-.61.87-1.69.28-2.42Z"/>
        <path class="cls-11" d="m15.56,17.39h0c-.15.13-.18.36-.05.51l.87,1.06c.13.15.36.18.51.05h0c.15-.13.18-.36.05-.51l-.87-1.06c-.13-.15-.36-.18-.51-.05Z"/>
        <path class="cls-11" d="m17.03,17.54h0c-.13-.15-.36-.18-.51-.05l-1.06.87c-.15.13-.18.36-.05.51h0c.13.15.36.18.51.05l1.06-.87c.15-.13.18-.36.05-.51Z"/>
        <path class="cls-11" d="m16.1,21.92c-.21-.26-.59-.3-.85-.09-.26.21-.3.59-.09.85.21.26.6.3.85.09.26-.21.3-.6.09-.85Z"/>
        <path class="cls-11" d="m20.82,26.72c-.21-.26-.6-.3-.85-.09s-.3.6-.09.85c.21.26.6.3.85.09s.3-.59.09-.85Z"/>
      </g>
      <g>
        <path class="cls-9" d="m28.92,22.89c.1,0,.19.03.26.11.08.11,2.01,2.7.97,4.42-.78,1.31-3.03,1.68-6.67,1.12-.16-.02-.27-.17-.24-.33.02-.16.17-.27.33-.24,3.34.52,5.44.23,6.08-.84.83-1.39-.92-3.75-.94-3.78-.1-.13-.07-.31.06-.41.04-.03.1-.05.15-.06Z"/>
        <g>
          <g>
            <path class="cls-11" d="m26.08,21.39c-1.01.97-1.05,2.57-.08,3.58s2.57,1.05,3.58.08,1.05-2.57.08-3.58c-.97-1.01-2.57-1.05-3.58-.08Z"/>
            <path class="cls-11" d="m22,25.32c-1.01.97-1.05,2.57-.08,3.58s2.57,1.05,3.58.08,1.05-2.57.08-3.58c-.97-1.01-2.57-1.05-3.58-.08Z"/>
            <path class="cls-11" d="m24.57,28.83h0c.27.29.73.3,1.01.02l4.12-3.91c.29-.27.3-.73.02-1.01h0c-.27-.29-.73-.3-1.01-.02l-4.12,3.91c-.29.27-.3.73-.02,1.01Z"/>
            <path class="cls-11" d="m22.06,26.21h0c.27.29.73.3,1.01.02l4.12-3.91c.29-.27.3-.73.02-1.01h0c-.27-.29-.73-.3-1.01-.02l-4.12,3.91c-.29.27-.3.73-.02,1.01Z"/>
          </g>
          <path class="cls-7" d="m23.01,26.91l.22.23-.23.22c-.14.14-.15.37,0,.51.14.14.37.15.51,0l.23-.22.22.23c.14.14.37.15.51,0,.14-.14.15-.37,0-.51l-.22-.23.23-.22c.14-.14.15-.37,0-.51-.14-.14-.37-.15-.51,0l-.23.22-.22-.23c-.14-.14-.37-.15-.51,0-.14.14-.15.37,0,.51Z"/>
        </g>
        <path class="cls-11" d="m25.48,27.98c-.24.23-.25.62-.02.86.23.24.62.25.86.02.24-.23.25-.62.02-.86s-.62-.25-.86-.02Z"/>
        <path class="cls-11" d="m29.28,24.32c-.24.23-.25.62-.02.86.23.24.62.25.86.02.24-.23.25-.62.02-.86s-.62-.25-.86-.02Z"/>
      </g>
      <g>
        <path class="cls-11" d="m37.49,22.27h-5.96c-.97,0-1.76-.79-1.76-1.76h0c0-.97.79-1.76,1.76-1.76h5.96c.97,0,1.76.79,1.76,1.76h0c0,.97-.79,1.76-1.76,1.76Z"/>
        <rect class="cls-11" x="25.62" y="18.74" width="10" height="9.42" rx="4.09" ry="4.09"/>
        <polygon class="cls-11" points="37.43 22.12 35.25 25.32 33.31 21.34 37.43 21.34 37.43 22.12"/>
        <path class="cls-1" d="m34.36,25.09l-.45.74c-.12.2-.41.3-.63.23l-2.58-.83c-.23-.07-.31-.3-.19-.49l.45-.74c.12-.2.41-.3.63-.23l2.58.83c.23.07.31.3.19.49Z"/>
        <path class="cls-1" d="m35.82,22.98l-.45.74c-.12.2-.41.3-.63.23l-2.58-.83c-.23-.07-.31-.29-.19-.49l.45-.74c.12-.2.41-.3.63-.23l2.58.83c.23.07.31.29.19.49Z"/>
        <path class="cls-2" d="m36.8,19.43h-2.37c-.59,0-1.08.48-1.08,1.08h0c0,.59.48,1.08,1.08,1.08h2.37c.59,0,1.08-.48,1.08-1.08h0c0-.59-.48-1.08-1.08-1.08Z"/>
        <path class="cls-1" d="m36.01,19.34h-5.05c-.64,0-1.16.52-1.16,1.16h0c0,.64.52,1.16,1.16,1.16h5.05c.64,0,1.16-.52,1.16-1.16h0c0-.64-.52-1.16-1.16-1.16Z"/>
        <path class="cls-2" d="m34.36,22.8c0-1.93-1.57-3.5-3.5-3.5s-3.5,1.57-3.5,3.5,1.57,3.5,3.5,3.5,3.5-1.57,3.5-3.5Z"/>
        <path class="cls-9" d="m33.62,23.4c0-1.6-1.57-2.89-3.5-2.89s-3.5,1.3-3.5,2.89,1.57,2.89,3.5,2.89,3.5-1.3,3.5-2.89Z"/>
        <path class="cls-9" d="m27.27,24.02h0c-.35,0-.64-.29-.64-.64v-2.22c0-.35.29-.64.64-.64h0c.35,0,.64.29.64.64v2.22c0,.35-.29.64-.64.64Z"/>
        <circle class="cls-2" cx="32.28" cy="22.8" r=".53"/>
      </g>
    </g>
  </g>
</svg>