<?xml version="1.0" encoding="UTF-8"?>
<svg id="Layer_2" data-name="Layer 2" xmlns="http://www.w3.org/2000/svg" viewBox="0 0 63.96 57.21">
  <defs>
    <style>
      .cls-1 {
        fill: #ffb800;
      }

      .cls-2 {
        fill: #a20025;
      }

      .cls-3 {
        fill: #fff;
      }

      .cls-4 {
        fill: #7cff00;
      }

      .cls-5 {
        fill: #ffd285;
      }

      .cls-6 {
        fill: #fd003a;
      }

      .cls-7 {
        fill: #4d4d4d;
      }

      .cls-8 {
        fill: #333;
      }

      .cls-9 {
        fill: #ff6e4c;
      }

      .cls-10 {
        fill: #999;
      }

      .cls-11 {
        fill: #434343;
      }

      .cls-12 {
        fill: #1a1a1a;
      }

      .cls-13 {
        fill: #74001b;
      }

      .cls-14 {
        fill: #666;
      }
    </style>
  </defs>
  <g id="attack">
    <g id="attack1">
      <g>
        <g>
          <path class="cls-12" d="m30.96,9.85l-.82.24-.11.03-4.95,1.44c-1.27.37-2,1.7-1.63,2.97h0c.37,1.27,1.7,2,2.97,1.63l4.95-1.44.11-.03.82-.24c1.27-.37,2-1.7,1.63-2.97h0c-.37-1.27-1.7-2-2.97-1.63Z"/>
          <path class="cls-13" d="m32.88,9.29l-1.66.48c-1.27.37-2,1.7-1.63,2.97h0c.37,1.27,1.7,2,2.97,1.63l1.66-.48c1.27-.37,2-1.7,1.63-2.97h0c-.37-1.27-1.7-2-2.97-1.63Z"/>
        </g>
        <g>
          <path id="ArmOne" class="cls-12" d="m26.91,13.86h0c.14,1.31-.82,2.5-2.13,2.64l-11.16,1.21c-1.31.14-2.5-.82-2.64-2.13h0c-.14-1.31.82-2.5,2.13-2.64l11.16-1.21c1.31-.14,2.5.82,2.64,2.13Z"/>
          <path class="cls-7" d="m23.72,14.17h0c.03.29-.18.54-.46.58l-3.09.33c-.29.03-.54-.18-.58-.46h0c-.03-.29.18-.54.46-.58l3.09-.33c.29-.03.54.18.58.46Z"/>
          <path class="cls-3" d="m16.45,10.35c-2.51.27-4.33,2.53-4.06,5.04.27,2.51,2.53,4.33,5.04,4.06,2.51-.27,3.4-2.43,3.13-4.94-.27-2.51-1.6-4.43-4.11-4.16Z"/>
          <path class="cls-2" d="m14.41,10.26c-2.68.29-4.62,2.7-4.34,5.38.29,2.68,2.7,4.62,5.38,4.34,2.68-.29,3.63-2.59,3.34-5.27-.29-2.68-1.7-4.73-4.39-4.44Z"/>
          <path class="cls-6" d="m14.06,11.64c-1.66.18-2.86,1.67-2.69,3.33.18,1.66,1.67,2.86,3.33,2.69,1.66-.18,2.86-1.67,2.69-3.33-.18-1.66-1.67-2.86-3.33-2.69Z"/>
          <path class="cls-12" d="m14.12,12.16c-1.66.18-2.86,1.67-2.69,3.33.18,1.66,1.67,2.86,3.33,2.69,1.66-.18,2.86-1.67,2.69-3.33-.18-1.66-1.67-2.86-3.33-2.69Z"/>
          <path class="cls-7" d="m14.23,13.26c-1.05.11-1.82,1.06-1.7,2.11.11,1.05,1.06,1.82,2.11,1.7,1.05-.11,1.82-1.06,1.7-2.11-.11-1.05-1.06-1.82-2.11-1.7Z"/>
          <path class="cls-12" d="m14.35,14.34c-.46.05-.79.46-.74.92.05.46.46.79.92.74.46-.05.79-.46.74-.92-.05-.46-.46-.79-.92-.74Z"/>
        </g>
      </g>
      <g>
        <g>
          <path class="cls-8" d="m25.24,32.56l1.94-1.21c.47-.29.61-.91.32-1.38h0c-.29-.47-.91-.61-1.38-.32l-1.94,1.21c-.47.29-.61.91-.32,1.38h0c.29.47.91.61,1.38.32Z"/>
          <path class="cls-8" d="m29.55,39.45l1.94-1.21c.47-.29.61-.91.32-1.38h0c-.29-.47-.91-.61-1.38-.32l-1.94,1.21c-.47.29-.61.91-.32,1.38h0c.29.47.91.61,1.38.32Z"/>
          <path class="cls-7" d="m31.7,38.1h0c.35-.22.45-.68.24-1.03l-4.58-7.32c-.22-.35-.68-.45-1.03-.24h0c-.35.22-.45.68-.24,1.03l4.58,7.32c.22.35.68.45,1.03.24Z"/>
          <path class="cls-10" d="m28.55,33.07h0c.35-.22.45-.68.24-1.03l-.66-1.06c-.22-.35-.68-.45-1.03-.24h0c-.35.22-.45.68-.24,1.03l.67,1.06c.22.35.68.45,1.03.24Z"/>
          <path class="cls-10" d="m30.52,36.21h0c.35-.22.45-.68.24-1.03l-.19-.31c-.22-.35-.68-.45-1.03-.24h0c-.35.22-.45.68-.24,1.03l.19.31c.22.35.68.45,1.03.24Z"/>
        </g>
        <path class="cls-6" d="m29.35,42.34h0c-1.32.83-3.08.42-3.91-.9l-4.58-7.31c-.83-1.32-.42-3.08.9-3.91h0c1.32-.83,3.08-.42,3.91.9l4.58,7.31c.83,1.32.42,3.08-.9,3.91Z"/>
        <path class="cls-2" d="m28.23,44.01h0c-1.75,1.1-4.08.56-5.18-1.19l-4.59-7.33c-1.1-1.75-.56-4.08,1.19-5.18h0c1.75-1.1,4.08-.56,5.18,1.19l4.59,7.33c1.1,1.75.56,4.08-1.19,5.18Z"/>
        <path class="cls-12" d="m26.94,44.82h0c-1.75,1.1-4.08.56-5.18-1.19l-4.59-7.33c-1.1-1.75-.56-4.08,1.19-5.18h0c1.75-1.1,4.08-.56,5.18,1.19l4.59,7.33c1.1,1.75.56,4.08-1.19,5.18Z"/>
        <path class="cls-7" d="m24.54,44.23h0c-.35.22-.81.11-1.03-.24l-3.36-5.37c-.22-.35-.11-.81.24-1.03h0c.35-.22.81-.11,1.03.24l3.36,5.37c.22.35.11.81-.24,1.03Z"/>
        <path class="cls-10" d="m21.84,39.92h0c-.35.22-.81.11-1.03-.24l-.67-1.06c-.22-.35-.11-.81.24-1.03h0c.35-.22.81-.11,1.03.24l.66,1.06c.22.35.11.81-.24,1.03Z"/>
        <path class="cls-10" d="m23.81,43.06h0c-.35.22-.81.11-1.03-.24l-.19-.31c-.22-.35-.11-.81.24-1.03h0c.35-.22.81-.11,1.03.24l.19.31c.22.35.11.81-.24,1.03Z"/>
        <path class="cls-7" d="m27.39,42.07h0c-.35.22-.81.11-1.03-.24l-3.21-5.13c-.22-.35-.11-.81.24-1.03h0c.35-.22.81-.11,1.03.24l3.21,5.13c.22.35.11.81-.24,1.03Z"/>
        <path class="cls-10" d="m25.61,39.22h0c-.35.22-.81.11-1.03-.24l-.66-1.06c-.22-.35-.11-.81.24-1.03h0c.35-.22.81-.11,1.03.24l.67,1.06c.22.35.11.81-.24,1.03Z"/>
        <path class="cls-10" d="m27.08,41.58h0c-.35.22-.81.11-1.03-.24l-.19-.31c-.22-.35-.11-.81.24-1.03h0c.35-.22.81-.11,1.03.24l.19.31c.22.35.11.81-.24,1.03Z"/>
        <path class="cls-3" d="m24.07,30.93c-.18-.29-.09-.67.2-.85s.67-.09.85.2c.18.29.09.67-.2.85s-.67.09-.85-.2Z"/>
        <path class="cls-7" d="m22.24,32.76c-.71-1.13-2.2-1.47-3.32-.76-1.13.71-1.47,2.2-.76,3.32.71,1.13,2.2,1.47,3.32.76,1.13-.71,1.47-2.2.76-3.32Z"/>
        <path class="cls-12" d="m21.29,33.35c-.38-.61-1.18-.79-1.79-.41-.61.38-.79,1.18-.41,1.79.38.61,1.18.79,1.79.41.61-.38.79-1.18.41-1.79Z"/>
        <path class="cls-3" d="m29.45,39.53c-.18-.29-.09-.67.2-.85s.67-.09.85.2c.18.29.09.67-.2.85-.29.18-.67.09-.85-.2Z"/>
      </g>
      <g>
        <g id="ShinTwo">
          <path class="cls-12" d="m23.78,55.42h0c-1.26-.21-2.12-1.42-1.91-2.68l1.7-10.2c.21-1.26,1.42-2.12,2.68-1.91h0c1.26.21,2.12,1.42,1.91,2.68l-1.7,10.2c-.21,1.26-1.42,2.12-2.68,1.91Z"/>
        </g>
        <path class="cls-11" d="m26.98,43.12c.1-.62-.31-1.2-.93-1.3-.62-.1-1.2.31-1.3.93-.1.62.31,1.2.93,1.3.62.1,1.2-.31,1.3-.93Z"/>
      </g>
      <g>
        <g id="ShinTwo-2" data-name="ShinTwo">
          <path class="cls-8" d="m5.16,55.31h0c-1.22-.4-1.88-1.72-1.48-2.94l3.24-9.82c.4-1.22,1.72-1.88,2.94-1.48h0c1.22.4,1.88,1.72,1.48,2.94l-3.24,9.82c-.4,1.22-1.72,1.88-2.94,1.48Z"/>
        </g>
        <path class="cls-7" d="m5.28,53.28h0c-.28-.09-.43-.39-.34-.67l3.27-9.9c.09-.28.39-.43.67-.34h0c.28.09.43.39.34.67l-3.27,9.9c-.09.28-.39.43-.67.34Z"/>
        <path class="cls-3" d="m7.47,46.63h0c-.28-.09-.43-.39-.34-.67l.56-1.69c.09-.28.39-.43.67-.34h0c.28.09.43.39.34.67l-.56,1.69c-.09.28-.39.43-.67.34Z"/>
        <path class="cls-3" d="m5.94,51.18h0c-.29-.1-.45-.41-.35-.7l.29-.89c.1-.29.41-.45.7-.35h0c.29.1.45.41.35.7l-.29.89c-.1.29-.41.45-.7.35Z"/>
      </g>
      <g>
        <path class="cls-6" d="m28.99,56.15c0-2.9-2.35-5.06-5.25-5.06s-5.25,2.16-5.25,5.06h10.5Z"/>
        <path class="cls-2" d="m26.96,56.15c.12-.34.19-.71.19-1.09,0-1.88-1.53-3.41-3.41-3.41s-3.41,1.53-3.41,3.41c0,.38.08.75.19,1.09h6.44Z"/>
        <path class="cls-12" d="m19.56,55.06h8.37c.59,0,1.06.48,1.06,1.06v.03c0,.59-.48,1.06-1.06,1.06h-8.37c-.59,0-1.06-.48-1.06-1.06v-.03c0-.59.48-1.06,1.06-1.06Z"/>
        <circle class="cls-3" cx="25.97" cy="53.47" r="1.24"/>
        <path class="cls-3" d="m23.33,52.24c0-.35.29-.64.64-.64s.64.29.64.64-.29.64-.64.64-.64-.29-.64-.64Z"/>
        <path class="cls-7" d="m20.33,55.73h0c-.38,0-.69-.31-.69-.69h0c0-.38.31-.69.69-.69h0c.38,0,.69.31.69.69h0c0,.38-.31.69-.69.69Z"/>
        <path class="cls-7" d="m27.38,55.73h0c-.38,0-.69-.31-.69-.69h0c0-.38.31-.69.69-.69h0c.38,0,.69.31.69.69h0c0,.38-.31.69-.69.69Z"/>
        <path class="cls-7" d="m25.03,55.73h0c-.38,0-.69-.31-.69-.69h0c0-.38.31-.69.69-.69h0c.38,0,.69.31.69.69h0c0,.38-.31.69-.69.69Z"/>
        <path class="cls-7" d="m22.68,55.73h0c-.38,0-.69-.31-.69-.69h0c0-.38.31-.69.69-.69h0c.38,0,.69.31.69.69h0c0,.38-.31.69-.69.69Z"/>
      </g>
      <g>
        <path class="cls-6" d="m11.43,56.15c0-2.9-2.35-5.06-5.25-5.06s-5.25,2.16-5.25,5.06h10.5Z"/>
        <path class="cls-2" d="m9.4,56.15c.12-.34.19-.71.19-1.09,0-1.88-1.53-3.41-3.41-3.41s-3.41,1.53-3.41,3.41c0,.38.08.75.19,1.09h6.44Z"/>
        <path class="cls-12" d="m2,55.06h8.37c.59,0,1.06.48,1.06,1.06v.03c0,.59-.48,1.06-1.06,1.06H2c-.59,0-1.06-.48-1.06-1.06v-.03c0-.59.48-1.06,1.06-1.06Z"/>
        <circle class="cls-3" cx="8.41" cy="53.47" r="1.24"/>
        <path class="cls-3" d="m5.77,52.24c0-.35.29-.64.64-.64s.64.29.64.64-.29.64-.64.64-.64-.29-.64-.64Z"/>
        <path class="cls-7" d="m2.77,55.73h0c-.38,0-.69-.31-.69-.69h0c0-.38.31-.69.69-.69h0c.38,0,.69.31.69.69h0c0,.38-.31.69-.69.69Z"/>
        <path class="cls-7" d="m9.82,55.73h0c-.38,0-.69-.31-.69-.69h0c0-.38.31-.69.69-.69h0c.38,0,.69.31.69.69h0c0,.38-.31.69-.69.69Z"/>
        <path class="cls-7" d="m7.47,55.73h0c-.38,0-.69-.31-.69-.69h0c0-.38.31-.69.69-.69h0c.38,0,.69.31.69.69h0c0,.38-.31.69-.69.69Z"/>
        <path class="cls-7" d="m5.12,55.73h0c-.38,0-.69-.31-.69-.69h0c0-.38.31-.69.69-.69h0c.38,0,.69.31.69.69h0c0,.38-.31.69-.69.69Z"/>
      </g>
      <g>
        <path class="cls-12" d="m7.11,20.29c-.17,0-.33-.08-.42-.24-.12-.2-3.04-4.95-.99-7.76,1.55-2.13,5.47-2.43,11.64-.89.27.07.43.34.36.61-.07.27-.34.43-.61.36-5.66-1.41-9.32-1.23-10.59.51-1.65,2.26,1.01,6.6,1.03,6.64.15.23.07.54-.16.69-.08.05-.17.08-.26.08Z"/>
        <g>
          <g>
            <path class="cls-12" d="m3.28,29.63H1c-.55,0-1,.45-1,1h0c0,.55.45,1,1,1h2.28c.55,0,1-.45,1-1h0c0-.55-.45-1-1-1Z"/>
            <path class="cls-12" d="m3.28,21.51H1c-.55,0-1,.45-1,1h0c0,.55.45,1,1,1h2.28c.55,0,1-.45,1-1h0c0-.55-.45-1-1-1Z"/>
            <path class="cls-7" d="m.75,21.51h0c-.41,0-.75.34-.75.75v8.63c0,.41.34.75.75.75h0c.41,0,.75-.34.75-.75v-8.63c0-.41-.34-.75-.75-.75Z"/>
            <path class="cls-10" d="m.75,27.45h0c-.41,0-.75.34-.75.75v1.25c0,.41.34.75.75.75h0c.41,0,.75-.34.75-.75v-1.25c0-.41-.34-.75-.75-.75Z"/>
            <path class="cls-10" d="m.75,23.74h0c-.41,0-.75.34-.75.75v.36c0,.41.34.75.75.75h0c.41,0,.75-.34.75-.75v-.36c0-.41-.34-.75-.75-.75Z"/>
          </g>
          <path class="cls-12" d="m10.09,34.55h0c.93,0,1.7-.76,1.7-1.7v-10.71c0-2.07-1.69-3.76-3.76-3.76h0c-2.07,0-3.76,1.69-3.76,3.76v6.59c0,3.2,2.62,5.82,5.82,5.82Z"/>
          <path class="cls-3" d="m7.13,33.72h0c.79,0,1.43-.64,1.43-1.43v-10.04c0-1.56-1.28-2.84-2.84-2.84h0c-1.56,0-2.84,1.28-2.84,2.84v7.22c0,2.34,1.91,4.25,4.25,4.25Z"/>
          <path class="cls-14" d="m8.08,33.72h0c.79,0,1.43-.64,1.43-1.43v-10.04c0-1.56-1.28-2.84-2.84-2.84h0c-1.56,0-2.84,1.28-2.84,2.84v7.22c0,2.34,1.91,4.25,4.25,4.25Z"/>
          <path class="cls-3" d="m6.35,21.21c0-.34-.28-.62-.62-.62s-.62.28-.62.62.28.62.62.62.62-.28.62-.62Z"/>
          <circle class="cls-3" cx="5.6" cy="30.55" r="1.51"/>
          <circle class="cls-12" cx="5.2" cy="30.55" r="1.51"/>
          <circle class="cls-4" cx="4.98" cy="30.55" r="1.07"/>
          <path class="cls-12" d="m11.98,24.37h-5.5c-.52,0-.95-.43-.95-.95h0c0-.52.43-.95.95-.95h5.5c.52,0,.95.43.95.95h0c0,.52-.43.95-.95.95Z"/>
          <path class="cls-12" d="m11.98,28.28h-5.5c-.52,0-.95-.43-.95-.95h0c0-.52.43-.95.95-.95h5.5c.52,0,.95.43.95.95h0c0,.52-.43.95-.95.95Z"/>
          <path class="cls-7" d="m7.14,27.33c0-.31-.25-.56-.56-.56s-.56.25-.56.56.25.56.56.56.56-.25.56-.56Z"/>
          <path class="cls-7" d="m7.14,23.42c0-.31-.25-.56-.56-.56s-.56.25-.56.56.25.56.56.56.56-.25.56-.56Z"/>
          <path class="cls-10" d="m6.09,23.42c0-.31-.25-.56-.56-.56s-.56.25-.56.56.25.56.56.56.56-.25.56-.56Z"/>
          <path class="cls-10" d="m6.09,27.33c0-.31-.25-.56-.56-.56s-.56.25-.56.56.25.56.56.56.56-.25.56-.56Z"/>
        </g>
        <g>
          <path class="cls-12" d="m16.04,36.72h0c-4.6,0-8.36-3.76-8.36-8.36v-6.64c0-2.6,2.13-4.73,4.73-4.73h7.25c2.6,0,4.73,2.13,4.73,4.73v6.64c0,4.6-3.76,8.36-8.36,8.36Z"/>
          <path class="cls-7" d="m14.28,28.62h0c-.71,0-1.29-.58-1.29-1.29v-4.04c0-.71.58-1.29,1.29-1.29h0c.71,0,1.29.58,1.29,1.29v4.04c0,.71-.58,1.29-1.29,1.29Z"/>
          <path class="cls-7" d="m20.64,28.62h0c-.71,0-1.29-.58-1.29-1.29v-4.04c0-.71.58-1.29,1.29-1.29h0c.71,0,1.29.58,1.29,1.29v4.04c0,.71-.58,1.29-1.29,1.29Z"/>
          <path class="cls-2" d="m14.98,24.48h-3c-1.07,0-1.94-.87-1.94-1.94h0c0-2.22,1.81-4.03,4.03-4.03h.91c1.07,0,1.94.87,1.94,1.94v2.09c0,1.07-.87,1.94-1.94,1.94Z"/>
          <path class="cls-2" d="m22.98,24.48h-3c-1.07,0-1.94-.87-1.94-1.94v-2.09c0-1.07.87-1.94,1.94-1.94h1.57c1.85,0,3.36,1.51,3.36,3.36v.66c0,1.07-.87,1.94-1.94,1.94Z"/>
          <path class="cls-6" d="m21.64,23.54l-2.78-2.78c-.21-.21-.21-.56,0-.78h0c.21-.21.56-.21.78,0l2.78,2.78c.21.21.21.56,0,.78h0c-.21.21-.56.21-.78,0Z"/>
          <path class="cls-6" d="m22.94,21.6l-1.23-1.23c-.21-.21-.21-.56,0-.78h0c.21-.21.56-.21.78,0l1.23,1.23c.21.21.21.56,0,.78h0c-.21.21-.56.21-.78,0Z"/>
          <path class="cls-6" d="m13.83,23.54l-2.14-2.14c-.21-.21-.21-.56,0-.78h0c.21-.21.56-.21.78,0l2.14,2.14c.21.21.21.56,0,.78h0c-.21.21-.56.21-.78,0Z"/>
          <path class="cls-6" d="m15.13,21.6l-1.23-1.23c-.21-.21-.21-.56,0-.78h0c.21-.21.56-.21.78,0l1.23,1.23c.21.21.21.56,0,.78h0c-.21.21-.56.21-.78,0Z"/>
          <path class="cls-2" d="m21.96,29.08h-9.76c-.48,0-.88-.39-.88-.88h0c0-.48.39-.88.88-.88h9.76c.48,0,.88.39.88.88h0c0,.48-.39.88-.88.88Z"/>
          <path class="cls-7" d="m14,31.16h0c-.41,0-.75-.34-.75-.75v-1.95c0-.41.34-.75.75-.75h0c.41,0,.75.34.75.75v1.95c0,.41-.34.75-.75.75Z"/>
          <path class="cls-7" d="m19.84,31.16h0c-.41,0-.75-.34-.75-.75v-1.95c0-.41.34-.75.75-.75h0c.41,0,.75.34.75.75v1.95c0,.41-.34.75-.75.75Z"/>
          <path class="cls-7" d="m14.01,33.54c0,.62-.5,1.12-1.12,1.12s-1.12-.5-1.12-1.12.5-1.12,1.12-1.12,1.12.5,1.12,1.12Z"/>
          <path class="cls-7" d="m21.55,33.14c0,.4-.32.72-.72.72s-.72-.32-.72-.72.32-.72.72-.72.72.32.72.72Z"/>
          <path class="cls-3" d="m12.7,20.97c0,.36-.29.66-.66.66s-.66-.29-.66-.66.29-.66.66-.66.66.29.66.66Z"/>
          <circle class="cls-3" cx="14.33" cy="19.98" r=".65"/>
          <path class="cls-2" d="m20.3,33.31c0-1.47-1.46-2.67-3.27-2.67s-3.27,1.19-3.27,2.67,1.46,2.67,3.27,2.67,3.27-1.19,3.27-2.67Z"/>
          <path class="cls-3" d="m19.87,20.27c0,.36-.29.66-.66.66s-.66-.29-.66-.66.29-.66.66-.66.66.29.66.66Z"/>
          <path class="cls-3" d="m22.75,19.98c0,.36-.29.65-.65.65s-.65-.29-.65-.65.29-.65.65-.65.65.29.65.65Z"/>
          <path class="cls-2" d="m22.7,31.66h-12.56c-.36,0-.65-.29-.65-.65h0c0-.36.29-.65.65-.65h12.56c.36,0,.65.29.65.65h0c0,.36-.29.65-.65.65Z"/>
          <path class="cls-6" d="m19.99,31.66h-2.25c-.36,0-.65-.29-.65-.65h0c0-.36.29-.65.65-.65h2.25c.36,0,.65.29.65.65h0c0,.36-.29.65-.65.65Z"/>
          <path class="cls-6" d="m13.68,31.66h-.53c-.36,0-.65-.29-.65-.65h0c0-.36.29-.65.65-.65h.53c.36,0,.65.29.65.65h0c0,.36-.29.65-.65.65Z"/>
          <path class="cls-3" d="m20.64,31c0,.36-.29.65-.65.65s-.65-.29-.65-.65.29-.65.65-.65.65.29.65.65Z"/>
          <path class="cls-3" d="m14.51,31c0,.36-.29.65-.65.65s-.65-.29-.65-.65.29-.65.65-.65.65.29.65.65Z"/>
          <path class="cls-6" d="m18.56,34.22c0-.71-.73-1.28-1.64-1.28s-1.64.57-1.64,1.28.73,1.28,1.64,1.28,1.64-.57,1.64-1.28Z"/>
          <circle class="cls-6" cx="18.36" cy="32.92" r=".5"/>
        </g>
      </g>
      <g>
        <path class="cls-12" d="m12.95,1.96s-1.4-1.35-3.82.6c-.21.17-.17.51.09.6.65.22,1.7.87,2.68,2.72l1.05-3.91Z"/>
        <path class="cls-12" d="m11.43,3.88s-1.34-1.41-3.84.43c-.22.16-.19.5.06.6.64.25,1.66.94,2.55,2.83l1.22-3.86Z"/>
        <path class="cls-12" d="m19.21,4.05s1.71-.92.6-3.82c-.1-.25-.44-.31-.6-.1-.41.55-1.35,1.35-3.41,1.71l3.4,2.2Z"/>
        <g>
          <path class="cls-12" d="m12.04,1.82s7.56-.11,10.19-1.32c.36-.16.76.06.78.46.06,1.2-.01,3.23-1.09,4.11L12.04,1.82Z"/>
          <path class="cls-9" d="m21.01,5.32c-.85,0-1.54.69-1.54,1.54s.69,1.54,1.54,1.54,1.54-.69,1.54-1.54-.69-1.54-1.54-1.54Z"/>
          <path class="cls-5" d="m15.97,14.21h0c-3.06,0-5.56-2.5-5.56-5.56v-2.97c0-1.87,1.53-3.39,3.39-3.39h4.54c1.87,0,3.39,1.53,3.39,3.39v2.75c0,3.18-2.6,5.77-5.77,5.77Z"/>
          <path class="cls-12" d="m10.2,9.32h0c-.83,0-1.51-.68-1.51-1.51v-2.48c0-.83.68-1.51,1.51-1.51h0c.83,0,1.51.68,1.51,1.51v2.48c0,.83-.68,1.51-1.51,1.51Z"/>
          <path class="cls-12" d="m20.69,5.56h-8.65c-1.03,0-1.87-.84-1.87-1.87h0c0-1.03.84-1.87,1.87-1.87h8.65c1.03,0,1.87.84,1.87,1.87h0c0,1.03-.84,1.87-1.87,1.87Z"/>
          <g>
            <path class="cls-5" d="m12.52,6.86c0,.85-.55,1.54-1.4,1.54s-1.68-.69-1.68-1.54.69-1.54,1.54-1.54,1.54.69,1.54,1.54Z"/>
            <path class="cls-9" d="m11.77,6.86c0,.44-.36.8-.8.8s-.8-.36-.8-.8.36-.8.8-.8.8.36.8.8Z"/>
          </g>
          <path class="cls-9" d="m17.78,10.7h0c-.62,0-1.12-.51-1.12-1.12v-1.11c0-.62.51-1.12,1.12-1.12h0c.62,0,1.12.51,1.12,1.12v1.11c0,.62-.51,1.12-1.12,1.12Z"/>
          <rect class="cls-14" x="16.44" y="2.57" width="4.99" height="1.25" rx=".63" ry=".63"/>
          <path class="cls-3" d="m20.43,3.2c0-.35-.28-.63-.63-.63s-.63.28-.63.63.28.63.63.63.63-.28.63-.63Z"/>
          <rect class="cls-14" x="12.59" y="2.57" width="2.42" height="1.25" rx=".63" ry=".63"/>
          <path class="cls-2" d="m20.82,9.32h-7.17c-1.09,0-1.97-.89-1.97-1.97h0c0-1.09.89-1.97,1.97-1.97h7.17c1.09,0,1.97.89,1.97,1.97h0c0,1.09-.89,1.97-1.97,1.97Z"/>
          <path class="cls-6" d="m14.65,8.61c-.7,0-1.27-.57-1.27-1.27s.57-1.27,1.27-1.27h6.17c.7,0,1.27.57,1.27,1.27s-.57,1.27-1.27,1.27h-6.17Z"/>
          <path class="cls-12" d="m16.81,7.98h-2.36c-.35,0-.64-.29-.64-.64h0c0-.35.29-.64.64-.64h2.36c.35,0,.64.29.64.64h0c0,.35-.29.64-.64.64Z"/>
          <path class="cls-12" d="m21.55,7.98h-2.36c-.35,0-.64-.29-.64-.64h0c0-.35.29-.64.64-.64h2.36c.35,0,.64.29.64.64h0c0,.35-.29.64-.64.64Z"/>
          <path class="cls-3" d="m16.63,7.34c0,.35-.29.64-.64.64s-.64-.29-.64-.64.29-.64.64-.64.64.29.64.64Z"/>
          <path class="cls-3" d="m21.45,7.34c0,.35-.29.64-.64.64s-.64-.29-.64-.64.29-.64.64-.64.64.29.64.64Z"/>
        </g>
        <path class="cls-12" d="m15.92,17.55c3.66,0,6.7-2.71,7.2-6.24.08-.55-.36-1.04-.91-1.04h-12.58c-.55,0-.99.49-.91,1.04.5,3.53,3.53,6.24,7.2,6.24Z"/>
        <path class="cls-3" d="m17.04,15.63c2.18,0,3.99-1.62,4.29-3.72.05-.33-.21-.62-.54-.62h-7.5c-.33,0-.59.29-.54.62.3,2.1,2.11,3.72,4.29,3.72Z"/>
        <path class="cls-7" d="m17.04,16.2c2.18,0,3.99-1.62,4.29-3.72.05-.33-.21-.62-.54-.62h-7.5c-.33,0-.59.29-.54.62.3,2.1,2.11,3.72,4.29,3.72Z"/>
        <circle class="cls-12" cx="15.17" cy="13.01" r=".45"/>
        <path class="cls-12" d="m16.98,13.01c0,.25-.2.45-.45.45s-.45-.2-.45-.45.2-.45.45-.45.45.2.45.45Z"/>
        <circle class="cls-12" cx="17.88" cy="13.01" r=".45"/>
        <path class="cls-12" d="m19.69,13.01c0,.25-.2.45-.45.45s-.45-.2-.45-.45.2-.45.45-.45.45.2.45.45Z"/>
        <path class="cls-12" d="m16.98,14.38c0,.25-.2.45-.45.45s-.45-.2-.45-.45.2-.45.45-.45.45.2.45.45Z"/>
        <path class="cls-12" d="m18.33,14.38c0,.25-.2.45-.45.45s-.45-.2-.45-.45.2-.45.45-.45.45.2.45.45Z"/>
        <path class="cls-7" d="m11.3,12.09h-1.1c-.22,0-.4-.18-.4-.4h0c0-.22.18-.4.4-.4h1.1c.22,0,.4.18.4.4h0c0,.22-.18.4-.4.4Z"/>
        <path class="cls-7" d="m11.59,13.91h-.39c-.25,0-.45-.2-.45-.45h0c0-.25.2-.45.45-.45h.39c.25,0,.45.2.45.45h0c0,.25-.2.45-.45.45Z"/>
      </g>
      <g>
        <path class="cls-12" d="m22.3,5.83h0c-.5.2-.74.77-.55,1.27l1.22,3.05c.2.5.77.74,1.27.55h0c.5-.2.74-.77.55-1.27l-1.22-3.05c-.2-.5-.77-.74-1.27-.55Z"/>
        <path class="cls-12" d="m25.86,7.52h0c-.2-.5-.77-.74-1.27-.55l-3.05,1.22c-.5.2-.74.77-.55,1.27h0c.2.5.77.74,1.27.55l3.05-1.22c.5-.2.74-.77.55-1.27Z"/>
        <path class="cls-4" d="m34.31,1.22l-4.78,1.91c-.83.33-1.24,1.28-.91,2.11h0c.33.83,1.28,1.24,2.11.91l4.78-1.91c.83-.33,1.24-1.28.91-2.11h0c-.33-.83-1.28-1.24-2.11-.91Z"/>
        <path class="cls-3" d="m31.58,2.31l-.51.2c-.27.11-.4.42-.29.68h0c.11.27.42.4.68.29l.51-.2c.27-.11.4-.42.29-.68h0c-.11-.27-.42-.4-.68-.29Z"/>
        <path class="cls-3" d="m32.86,1.8h0c-.27.11-.4.42-.29.68h0c.11.27.42.4.68.29h0c.27-.11.4-.42.29-.68h0c-.11-.27-.42-.4-.68-.29Z"/>
        <path class="cls-12" d="m36.63,1.43l-8.43,3.36c-.72.29-1.07,1.11-.78,1.82h0c.29.72,1.11,1.07,1.82.78l8.43-3.36c.72-.29,1.07-1.11.78-1.82h0c-.29-.72-1.11-1.07-1.82-.78Z"/>
        <path class="cls-12" d="m29.83,5.28h0c-.54.21-1.15-.05-1.37-.59h0c-.21-.54.05-1.15.59-1.37h0c.54-.21,1.15.05,1.37.59h0c.21.54-.05,1.15-.59,1.37Z"/>
        <path class="cls-12" d="m35.98,2.83h0c-.54.21-1.15-.05-1.37-.59h0c-.21-.54.05-1.15.59-1.37h0c.54-.21,1.15.05,1.37.59h0c.21.54-.05,1.15-.59,1.37Z"/>
        <path class="cls-12" d="m31.59,16.61l-12.84,5.12c-1.24.49-2.66-.12-3.15-1.36l-1.06-2.65c-1.08-2.7.25-5.79,2.95-6.86l10.19-4.06c2.7-1.08,5.79.25,6.86,2.95h0c1.08,2.7-.25,5.79-2.95,6.86Z"/>
        <path class="cls-12" d="m39.37,2.88h0c-.86.34-1.29,1.33-.94,2.19l1.54,3.85c.34.86,1.33,1.29,2.19.94h0c.86-.34,1.29-1.33.94-2.19l-1.54-3.85c-.34-.86-1.33-1.29-2.19-.94Z"/>
        <path class="cls-3" d="m41.51,9.9l-18.38,7.32-1.87-4.68c-.67-1.69.15-3.6,1.84-4.27l14.55-5.8c.42-.17.91.04,1.07.46l2.78,6.97Z"/>
        <path class="cls-12" d="m42.15,10.8l-17.96,7.16-1.87-4.68c-.67-1.69.15-3.6,1.84-4.27l13-5.18c1.05-.42,2.24.09,2.66,1.14l2.33,5.84Z"/>
        <path class="cls-6" d="m42.03,10.56l-13.49,5.38-1.87-4.68c-.67-1.69.15-3.6,1.84-4.27l9.66-3.85c.42-.17.91.04,1.07.46l2.78,6.97Z"/>
        <path class="cls-12" d="m39.21,9.76l-6.26,2.49c-1.19.47-1.77,1.83-1.3,3.02h0c.47,1.19,1.83,1.77,3.02,1.3l6.26-2.49c1.19-.47,1.77-1.83,1.3-3.02h0c-.47-1.19-1.83-1.77-3.02-1.3Z"/>
        <path class="cls-12" d="m25.59,9.97h0c-1.9.16-3.32,1.84-3.17,3.73l.25,3.07c.16,1.9,1.84,3.32,3.73,3.17h0c1.9-.16,3.32-1.84,3.17-3.73l-.25-3.07c-.16-1.9-1.84-3.32-3.73-3.17Z"/>
        <path class="cls-12" d="m33.1,14.82l-5.45,2.17c-2.02.8-4.32-.19-5.13-2.21h0c-.8-2.02.19-4.32,2.21-5.13l5.45-2.17c2.02-.8,4.32.19,5.13,2.21h0c.8,2.02-.19,4.33-2.21,5.13Z"/>
        <path class="cls-7" d="m32.65,13.59l-2.12.84c-.61.24-1.31-.06-1.55-.67h0c-.24-.61.06-1.31.67-1.55l2.12-.84c.61-.24,1.31.06,1.55.67h0c.24.61-.06,1.31-.67,1.55Z"/>
        <path class="cls-12" d="m24.36,10.46h0c-1.9.16-3.32,1.84-3.17,3.73l.25,3.07c.16,1.9,1.84,3.32,3.73,3.17h0c1.9-.16,3.32-1.84,3.17-3.73l-.25-3.07c-.16-1.9-1.84-3.32-3.73-3.17Z"/>
        <path class="cls-7" d="m24.34,11.64h0c-1.28.11-2.23,1.38-2.11,2.83l.19,2.35c.12,1.45,1.27,2.56,2.55,2.45h0c1.28-.11,2.23-1.38,2.11-2.83l-.19-2.35c-.12-1.45-1.27-2.56-2.55-2.45Z"/>
        <path class="cls-3" d="m22.68,17.49l-.19-2.35c-.12-1.45.83-2.73,2.11-2.83.91-.08,1.74.47,2.2,1.3-.3-1.21-1.33-2.06-2.46-1.97-1.28.11-2.23,1.38-2.11,2.83l.19,2.35c.03.42.16.81.35,1.15-.04-.16-.07-.32-.08-.48Z"/>
        <path class="cls-12" d="m25.41,13.63c-.18-.45-.68-.66-1.13-.49s-.66.68-.49,1.13.68.66,1.13.49.66-.68.49-1.13Z"/>
        <path class="cls-12" d="m25.49,16.92c-.15-.38-.59-.57-.97-.42-.38.15-.57.59-.42.97.15.38.59.57.97.42.38-.15.57-.59.42-.97Z"/>
        <path class="cls-3" d="m29.72,12.48h0c-.47.19-.7.73-.51,1.2h0c.19.47.73.7,1.2.51h0c.47-.19.7-.73.51-1.2h0c-.19-.47-.73-.7-1.2-.51Z"/>
        <g>
          <path class="cls-6" d="m39.12,10.95l-4.26,1.7c-1.61.64-2.4,2.48-1.76,4.09h0c.64,1.61,2.48,2.4,4.09,1.76l3.21-1.28c1.61-.64,2.4-2.48,1.76-4.09l-.42-1.06c-.41-1.03-1.59-1.54-2.62-1.13Z"/>
          <path class="cls-2" d="m38.11,12.71l-2.36.94c-.97.38-1.44,1.49-1.06,2.46h0c.38.97,1.49,1.44,2.46,1.06l2.36-.94c.97-.38,1.44-1.49,1.06-2.46h0c-.38-.97-1.49-1.44-2.46-1.06Z"/>
          <path class="cls-3" d="m39.72,12.59c-.26-.64-.98-.96-1.63-.7s-.96.98-.7,1.63.98.96,1.63.7c.64-.26.96-.98.7-1.63Z"/>
          <path class="cls-3" d="m36.8,16.04c-.18-.44-.68-.66-1.12-.48-.44.18-.66.68-.48,1.12.18.44.68.66,1.12.48s.66-.68.48-1.12Z"/>
        </g>
        <path class="cls-7" d="m30.78,9.16l-3.79,1.51c-.25.1-.38.39-.28.65h0c.1.25.39.38.65.28l3.79-1.51c.25-.1.38-.39.28-.65h0c-.1-.25-.39-.38-.65-.28Z"/>
        <path class="cls-7" d="m16.37,15.31h0c-.78.31-1.17,1.21-.86,1.99l.83,2.09c.31.78,1.21,1.17,1.99.86h0c.78-.31,1.17-1.21.86-1.99l-.83-2.09c-.31-.78-1.21-1.17-1.99-.86Z"/>
        <path class="cls-7" d="m18.04,11.88h0c-.66.26-.98,1.01-.72,1.67h0c.26.66,1.01.98,1.67.72h0c.66-.26.98-1.01.72-1.67h0c-.26-.66-1.01-.98-1.67-.72Z"/>
        <path class="cls-12" d="m41.43,3.5h0c-.47.19-.71.73-.52,1.2l.57,1.43c.19.47.73.71,1.2.52h0c.47-.19.71-.73.52-1.2l-.57-1.43c-.19-.47-.73-.71-1.2-.52Z"/>
        <path class="cls-7" d="m41.61,6.53h0c-.28.11-.61-.03-.72-.31l-.66-1.65c-.11-.28.03-.61.31-.72h0c.28-.11.61.03.72.31l.66,1.65c.11.28-.03.61-.31.72Z"/>
        <path class="cls-7" d="m42.2,8.01h0c-.23.09-.35.36-.26.59h0c.09.23.36.35.59.26h0c.23-.09.35-.36.26-.59h0c-.09-.23-.36-.35-.59-.26Z"/>
        <path class="cls-3" d="m41.35,4.37h0c-.35.14-.52.54-.38.89h0c.14.35.54.52.89.38h0c.35-.14.52-.54.38-.89h0c-.14-.35-.54-.52-.89-.38Z"/>
        <g>
          <path class="cls-12" d="m32.26,9.19h0c-.38-.97.1-2.07,1.07-2.45l2.94-1.16c.97-.38,2.07.1,2.45,1.07h0c.38.97-.1,2.07-1.07,2.45l-2.94,1.16c-.97.38-2.07-.1-2.45-1.07Z"/>
          <path class="cls-4" d="m34.54,8.29h0c-.26-.66.07-1.41.73-1.67l.97-.38c.66-.26,1.41.07,1.67.73h0c.26.66-.07,1.41-.73,1.67l-.97.38c-.66.26-1.41-.07-1.67-.73Z"/>
          <path class="cls-3" d="m37.32,8.09c.36-.32.4-.88.08-1.25-.32-.37-.88-.4-1.25-.08-.36.32-.4.88-.08,1.25.32.36.88.4,1.25.08Z"/>
          <path class="cls-7" d="m33.8,8.98c.19-.17.21-.47.04-.66-.17-.19-.47-.21-.66-.04-.19.17-.21.47-.04.66.17.19.47.21.66.04Z"/>
        </g>
      </g>
      <g>
        <path class="cls-8" d="m21.86,18.42l-.36.78-.05.1-1.19,2.62c-.54,1.2,0,2.63,1.19,3.17h0c1.2.54,2.63,0,3.17-1.19l1.19-2.62.05-.1.35-.78c.54-1.2,0-2.63-1.19-3.17h0c-1.2-.54-2.63,0-3.17,1.19Z"/>
        <path class="cls-2" d="m22.68,16.6l-.72,1.58c-.54,1.2,0,2.63,1.19,3.17h0c1.2.54,2.63,0,3.17-1.19l.72-1.58c.54-1.2,0-2.63-1.19-3.17h0c-1.2-.54-2.63,0-3.17,1.19Z"/>
      </g>
      <g>
        <path class="cls-6" d="m29.64,15.39l-3.47,1.38c-.9.36-1.93-.08-2.29-.98h0c-.36-.9.08-1.93.98-2.29l3.47-1.38c.9-.36,1.93.08,2.29.98h0c.36.9-.08,1.93-.98,2.29Z"/>
        <path class="cls-6" d="m25.51,13.24l-.31.12c-2.09.83-3.12,3.23-2.29,5.32h0c.83,2.09,3.23,3.12,5.32,2.29l.31-.12c2.09-.83,3.12-3.23,2.29-5.32h0c-.83-2.09-3.23-3.12-5.32-2.29Z"/>
        <path class="cls-2" d="m28.71,19.86h0c-1.3.52-2.78-.12-3.3-1.42l-.53-1.32c-.52-1.3.12-2.78,1.42-3.3h0c1.3-.52,2.78.12,3.3,1.42l.53,1.32c.52,1.3-.12,2.78-1.42,3.3Z"/>
        <path class="cls-3" d="m27.51,16.84h0c-.72.28-1.53-.07-1.82-.78h0c-.28-.72.07-1.53.78-1.82h0c.72-.28,1.53.07,1.82.78h0c.28.72-.07,1.53-.78,1.82Z"/>
        <path class="cls-3" d="m26.59,19.28h0c-.48.19-1.03-.05-1.23-.53h0c-.19-.48.05-1.03.53-1.23h0c.48-.19,1.03.05,1.23.53h0c.19.48-.05,1.03-.53,1.23Z"/>
      </g>
      <g>
        <path class="cls-1" d="m52.86,17.76c0-.76-.62-1.39-1.39-1.39h-2.94c-.76,0-1.39.62-1.39,1.39s.62,1.39,1.39,1.39h2.94c.76,0,1.39-.62,1.39-1.39Z"/>
        <path class="cls-1" d="m53.14,20.96h-2.21c-.51,0-.92.41-.92.92s.41.92.92.92h2.21c.51,0,.92-.41.92-.92s-.41-.92-.92-.92Z"/>
        <path class="cls-1" d="m51.46,15.26h6.25c.51,0,.92-.41.92-.92s-.41-.92-.92-.92h-6.25c-.51,0-.92.41-.92.92s.41.92.92.92Z"/>
        <path class="cls-1" d="m63.04,13.42h-1.28c-.51,0-.92.41-.92.92s.41.92.92.92h1.28c.51,0,.92-.41.92-.92s-.41-.92-.92-.92Z"/>
        <path class="cls-1" d="m59.78,16.37h-1.28c-.51,0-.92.41-.92.92s.41.92.92.92h1.28c.51,0,.92-.41.92-.92s-.41-.92-.92-.92Z"/>
      </g>
      <g>
        <path id="ArmOne-2" data-name="ArmOne" class="cls-8" d="m24.44,24.11h0c-.64,1.15-2.11,1.58-3.26.94l-9.82-5.43c-1.15-.64-1.58-2.11-.94-3.26h0c.64-1.15,2.11-1.58,3.26-.94l9.82,5.43c1.15.64,1.58,2.11.94,3.26Z"/>
        <path class="cls-12" d="m21.08,22.21h0c-.14.25-.46.34-.71.2l-2.72-1.5c-.25-.14-.34-.46-.2-.71h0c.14-.25.46-.34.71-.2l2.72,1.5c.25.14.34.46.2.71Z"/>
        <path class="cls-3" d="m17.91,15.22c-2.21-1.23-5-.43-6.23,1.79-1.23,2.21-.43,5,1.79,6.23s4.18-.03,5.41-2.24,1.25-4.55-.97-5.77Z"/>
        <path class="cls-2" d="m16.3,13.98c-2.36-1.31-5.33-.45-6.64,1.91-1.31,2.36-.45,5.33,1.91,6.64,2.36,1.31,4.46-.03,5.77-2.39,1.31-2.36,1.33-4.85-1.03-6.16Z"/>
        <path class="cls-6" d="m15.16,15.8c-1.85-1.03-4.07-.55-4.97,1.06s-.12,3.75,1.73,4.77c1.85,1.03,3.39.17,4.28-1.44.89-1.61.8-3.37-1.05-4.39Z"/>
        <path class="cls-4" d="m21.59,21.3c-.5-.28-1.14-.1-1.42.41-.28.5-.1,1.14.41,1.42.5.28,1.14.1,1.42-.41.28-.5.1-1.14-.41-1.42Z"/>
        <g>
          <path class="cls-2" d="m15.21,20.17h0c-.13.04-.27-.04-.31-.17l-.74-2.58c-.04-.13.04-.27.17-.31h0c.13-.04.27.04.31.17l.74,2.58c.04.13-.04.27-.17.31Z"/>
          <path class="cls-2" d="m13.35,19.82h0c-.13.04-.27-.04-.31-.17l-.74-2.58c-.04-.13.04-.27.17-.31h0c.13-.04.27.04.31.17l.74,2.58c.04.13-.04.27-.17.31Z"/>
          <path class="cls-2" d="m12.54,21.22h0c-.13.04-.27-.04-.31-.17l-.74-2.58c-.04-.13.04-.27.17-.31h0c.13-.04.27.04.31.17l.74,2.58c.04.13-.04.27-.17.31Z"/>
        </g>
        <path class="cls-3" d="m12.34,16.43c.9.5,1.23,1.64.73,2.54-.5.9-1.64,1.23-2.54.73-.9-.5-1.23-1.64-.73-2.54.5-.9,1.64-1.23,2.54-.73Z"/>
        <path class="cls-3" d="m14.42,16.37c-.3-.17-.41-.54-.24-.84.17-.3.54-.41.84-.24s.41.54.24.84-.54.41-.84.24Z"/>
      </g>
      <g>
        <path class="cls-8" d="m8.06,46.24h0c1.96.65,4.1-.42,4.75-2.38l2.72-8.21c.65-1.96-.42-4.1-2.38-4.75h0c-1.96-.65-4.1.42-4.75,2.38l-2.72,8.21c-.65,1.96.42,4.1,2.38,4.75Z"/>
        <path class="cls-2" d="m6.16,45.61h0c1.96.65,4.1-.42,4.75-2.38l2.72-8.21c.65-1.96-.42-4.1-2.38-4.75h0c-1.96-.65-4.1.42-4.75,2.38l-2.72,8.21c-.65,1.96.42,4.1,2.38,4.75Z"/>
        <path class="cls-3" d="m5.97,44.68h0c1.48.49,3.1-.32,3.59-1.8l2.72-8.19c.49-1.48-.32-3.1-1.8-3.59h0c-1.48-.49-3.1.32-3.59,1.8l-2.72,8.19c-.49,1.48.32,3.1,1.8,3.59Z"/>
        <path class="cls-6" d="m5.14,44.4h0c1.48.49,3.1-.32,3.59-1.8l2.72-8.19c.49-1.48-.32-3.1-1.8-3.59h0c-1.48-.49-3.1.32-3.59,1.8l-2.72,8.19c-.49,1.48.32,3.1,1.8,3.59Z"/>
        <path class="cls-8" d="m10.86,35.22l2.17.72c.52.17,1.09-.11,1.26-.63h0c.17-.52-.11-1.09-.63-1.26l-2.17-.72c-.52-.17-1.09.11-1.26.63h0c-.17.52.11,1.09.63,1.26Z"/>
        <path class="cls-8" d="m8.3,42.93l2.17.72c.52.17,1.09-.11,1.26-.63h0c.17-.52-.11-1.09-.63-1.26l-2.17-.72c-.52-.17-1.09.11-1.26.63h0c-.17.52.11,1.09.63,1.26Z"/>
        <path class="cls-7" d="m10.71,43.73h0c.39.13.81-.08.94-.47l2.72-8.2c.13-.39-.08-.81-.47-.94h0c-.39-.13-.81.08-.94.47l-2.72,8.2c-.13.39.08.81.47.94Z"/>
        <path class="cls-10" d="m12.58,38.09h0c.39.13.81-.08.94-.47l.39-1.19c.13-.39-.08-.81-.47-.94h0c-.39-.13-.81.08-.94.47l-.39,1.19c-.13.39.08.81.47.94Z"/>
        <path class="cls-10" d="m11.41,41.61h0c.39.13.81-.08.94-.47l.11-.34c.13-.39-.08-.81-.47-.94h0c-.39-.13-.81.08-.94.47l-.11.34c-.13.39.08.81.47.94Z"/>
        <g>
          <path class="cls-2" d="m9.67,37.83h0c-.06-.12-.21-.17-.33-.11l-2.4,1.21c-.12.06-.17.21-.11.33h0c.06.12.21.17.33.11l2.4-1.21c.12-.06.17-.21.11-.33Z"/>
          <path class="cls-2" d="m8.16,36.7h0c-.06-.12-.21-.17-.33-.11l-2.4,1.21c-.12.06-.17.21-.11.33h0c.06.12.21.17.33.11l2.4-1.21c.12-.06.17-.21.11-.33Z"/>
          <path class="cls-2" d="m8.63,35.15h0c-.06-.12-.21-.17-.33-.11l-2.4,1.21c-.12.06-.17.21-.11.33h0c.06.12.21.17.33.11l2.4-1.21c.12-.06.17-.21.11-.33Z"/>
        </g>
        <path class="cls-3" d="m8.77,32.42c.11-.33-.07-.68-.39-.78-.32-.11-.68.07-.78.39-.11.32.07.68.39.78.32.11.68-.07.78-.39Z"/>
      </g>
    </g>
  </g>
</svg>