<?xml version="1.0" encoding="UTF-8"?>
<svg id="Layer_2" data-name="Layer 2" xmlns="http://www.w3.org/2000/svg" viewBox="0 0 41.61 57.21">
  <defs>
    <style>
      .cls-1 {
        fill: #a20025;
      }

      .cls-2 {
        fill: #fff;
      }

      .cls-3 {
        fill: #7cff00;
      }

      .cls-4 {
        fill: #ffd285;
      }

      .cls-5 {
        fill: #fd003a;
      }

      .cls-6 {
        fill: #4d4d4d;
      }

      .cls-7 {
        fill: #333;
      }

      .cls-8 {
        fill: #ff6e4c;
      }

      .cls-9 {
        fill: #999;
      }

      .cls-10 {
        fill: #434343;
      }

      .cls-11 {
        fill: #1a1a1a;
      }

      .cls-12 {
        fill: #74001b;
      }

      .cls-13 {
        fill: #666;
      }
    </style>
  </defs>
  <g id="attack">
    <g id="attack4">
      <g>
        <g>
          <path class="cls-11" d="m28.64,15.29l-.86.02h-.11s-5.15.13-5.15.13c-1.32.03-2.37,1.14-2.34,2.45h0c.03,1.32,1.14,2.37,2.45,2.34l5.15-.12h.11s.86-.02.86-.02c1.32-.03,2.37-1.14,2.34-2.45h0c-.03-1.32-1.14-2.37-2.45-2.34Z"/>
          <path class="cls-12" d="m30.64,15.25l-1.73.04c-1.32.03-2.37,1.14-2.34,2.45h0c.03,1.32,1.14,2.37,2.45,2.34l1.73-.04c1.32-.03,2.37-1.14,2.34-2.45h0c-.03-1.32-1.14-2.37-2.45-2.34Z"/>
        </g>
        <g>
          <path id="ArmOne" class="cls-11" d="m23.7,18.13h0c-.2,1.3-1.43,2.21-2.73,2.01l-11.1-1.69c-1.3-.2-2.21-1.43-2.01-2.73h0c.2-1.3,1.43-2.21,2.73-2.01l11.1,1.69c1.3.2,2.21,1.43,2.01,2.73Z"/>
          <path class="cls-6" d="m20.54,17.62h0c-.04.28-.31.48-.6.44l-3.07-.47c-.28-.04-.48-.31-.44-.6h0c.04-.28.31-.48.6-.44l3.07.47c.28.04.48.31.44.6Z"/>
          <path class="cls-2" d="m14.49,12.06c-2.5-.38-4.84,1.34-5.22,3.84-.38,2.5,1.34,4.84,3.84,5.22,2.5.38,3.91-1.48,4.29-3.98.38-2.5-.41-4.7-2.91-5.08Z"/>
          <path class="cls-1" d="m12.54,11.46c-2.67-.41-5.16,1.43-5.57,4.09-.41,2.67,1.43,5.16,4.09,5.57,2.67.41,4.17-1.58,4.58-4.24.41-2.67-.44-5.01-3.1-5.42Z"/>
          <path class="cls-5" d="m11.85,12.7c-1.65-.25-3.2.88-3.45,2.53s.88,3.2,2.53,3.45c1.65.25,3.2-.88,3.45-2.53.25-1.65-.88-3.2-2.53-3.45Z"/>
          <path class="cls-11" d="m11.77,13.22c-1.65-.25-3.2.88-3.45,2.53-.25,1.65.88,3.2,2.53,3.45,1.65.25,3.2-.88,3.45-2.53s-.88-3.2-2.53-3.45Z"/>
          <path class="cls-6" d="m11.6,14.31c-1.05-.16-2.03.56-2.19,1.61s.56,2.03,1.61,2.19c1.05.16,2.03-.56,2.19-1.61.16-1.05-.56-2.03-1.61-2.19Z"/>
          <path class="cls-11" d="m11.44,15.39c-.45-.07-.88.24-.95.7-.07.45.24.88.7.95.45.07.88-.24.95-.7.07-.45-.24-.88-.7-.95Z"/>
        </g>
      </g>
      <g>
        <g>
          <path class="cls-7" d="m25.24,32.56l1.94-1.21c.47-.29.61-.91.32-1.38h0c-.29-.47-.91-.61-1.38-.32l-1.94,1.21c-.47.29-.61.91-.32,1.38h0c.29.47.91.61,1.38.32Z"/>
          <path class="cls-7" d="m29.55,39.45l1.94-1.21c.47-.29.61-.91.32-1.38h0c-.29-.47-.91-.61-1.38-.32l-1.94,1.21c-.47.29-.61.91-.32,1.38h0c.29.47.91.61,1.38.32Z"/>
          <path class="cls-6" d="m31.7,38.1h0c.35-.22.45-.68.24-1.03l-4.58-7.32c-.22-.35-.68-.45-1.03-.24h0c-.35.22-.45.68-.24,1.03l4.58,7.32c.22.35.68.45,1.03.24Z"/>
          <path class="cls-9" d="m28.55,33.07h0c.35-.22.45-.68.24-1.03l-.66-1.06c-.22-.35-.68-.45-1.03-.24h0c-.35.22-.45.68-.24,1.03l.67,1.06c.22.35.68.45,1.03.24Z"/>
          <path class="cls-9" d="m30.52,36.21h0c.35-.22.45-.68.24-1.03l-.19-.31c-.22-.35-.68-.45-1.03-.24h0c-.35.22-.45.68-.24,1.03l.19.31c.22.35.68.45,1.03.24Z"/>
        </g>
        <path class="cls-5" d="m29.35,42.34h0c-1.32.83-3.08.42-3.91-.9l-4.58-7.31c-.83-1.32-.42-3.08.9-3.91h0c1.32-.83,3.08-.42,3.91.9l4.58,7.31c.83,1.32.42,3.08-.9,3.91Z"/>
        <path class="cls-1" d="m28.23,44.01h0c-1.75,1.1-4.08.56-5.18-1.19l-4.59-7.33c-1.1-1.75-.56-4.08,1.19-5.18h0c1.75-1.1,4.08-.56,5.18,1.19l4.59,7.33c1.1,1.75.56,4.08-1.19,5.18Z"/>
        <path class="cls-11" d="m26.94,44.82h0c-1.75,1.1-4.08.56-5.18-1.19l-4.59-7.33c-1.1-1.75-.56-4.08,1.19-5.18h0c1.75-1.1,4.08-.56,5.18,1.19l4.59,7.33c1.1,1.75.56,4.08-1.19,5.18Z"/>
        <path class="cls-6" d="m24.54,44.23h0c-.35.22-.81.11-1.03-.24l-3.36-5.37c-.22-.35-.11-.81.24-1.03h0c.35-.22.81-.11,1.03.24l3.36,5.37c.22.35.11.81-.24,1.03Z"/>
        <path class="cls-9" d="m21.84,39.92h0c-.35.22-.81.11-1.03-.24l-.66-1.06c-.22-.35-.11-.81.24-1.03h0c.35-.22.81-.11,1.03.24l.67,1.06c.22.35.11.81-.24,1.03Z"/>
        <path class="cls-9" d="m23.81,43.06h0c-.35.22-.81.11-1.03-.24l-.19-.31c-.22-.35-.11-.81.24-1.03h0c.35-.22.81-.11,1.03.24l.19.31c.22.35.11.81-.24,1.03Z"/>
        <path class="cls-6" d="m27.39,42.07h0c-.35.22-.81.11-1.03-.24l-3.21-5.13c-.22-.35-.11-.81.24-1.03h0c.35-.22.81-.11,1.03.24l3.21,5.13c.22.35.11.81-.24,1.03Z"/>
        <path class="cls-9" d="m25.61,39.22h0c-.35.22-.81.11-1.03-.24l-.66-1.06c-.22-.35-.11-.81.24-1.03h0c.35-.22.81-.11,1.03.24l.66,1.06c.22.35.11.81-.24,1.03Z"/>
        <path class="cls-9" d="m27.08,41.58h0c-.35.22-.81.11-1.03-.24l-.19-.31c-.22-.35-.11-.81.24-1.03h0c.35-.22.81-.11,1.03.24l.19.31c.22.35.11.81-.24,1.03Z"/>
        <path class="cls-2" d="m24.07,30.93c-.18-.29-.09-.67.2-.85.29-.18.67-.09.85.2.18.29.09.67-.2.85-.29.18-.67.09-.85-.2Z"/>
        <path class="cls-6" d="m22.24,32.76c-.71-1.13-2.2-1.47-3.32-.76-1.13.71-1.47,2.2-.76,3.32s2.2,1.47,3.32.76c1.13-.71,1.47-2.2.76-3.32Z"/>
        <path class="cls-11" d="m21.29,33.35c-.38-.61-1.18-.79-1.79-.41-.61.38-.79,1.18-.41,1.79s1.18.79,1.79.41c.61-.38.79-1.18.41-1.79Z"/>
        <path class="cls-2" d="m29.45,39.53c-.18-.29-.09-.67.2-.85.29-.18.67-.09.85.2s.09.67-.2.85c-.29.18-.67.09-.85-.2Z"/>
      </g>
      <g>
        <g id="ShinTwo">
          <path class="cls-11" d="m23.78,55.42h0c-1.26-.21-2.12-1.42-1.91-2.68l1.7-10.2c.21-1.26,1.42-2.12,2.68-1.91h0c1.26.21,2.12,1.42,1.91,2.68l-1.7,10.2c-.21,1.26-1.42,2.12-2.68,1.91Z"/>
        </g>
        <path class="cls-10" d="m26.98,43.12c.1-.62-.31-1.2-.93-1.3-.62-.1-1.2.31-1.3.93-.1.62.31,1.2.93,1.3.62.1,1.2-.31,1.3-.93Z"/>
      </g>
      <g>
        <g id="ShinTwo-2" data-name="ShinTwo">
          <path class="cls-7" d="m5.16,55.31h0c-1.22-.4-1.88-1.72-1.48-2.94l3.24-9.82c.4-1.22,1.72-1.88,2.94-1.48h0c1.22.4,1.88,1.72,1.48,2.94l-3.24,9.82c-.4,1.22-1.72,1.88-2.94,1.48Z"/>
        </g>
        <path class="cls-6" d="m5.28,53.28h0c-.28-.09-.43-.39-.34-.67l3.27-9.9c.09-.28.39-.43.67-.34h0c.28.09.43.39.34.67l-3.27,9.9c-.09.28-.39.43-.67.34Z"/>
        <path class="cls-2" d="m7.47,46.63h0c-.28-.09-.43-.39-.34-.67l.56-1.69c.09-.28.39-.43.67-.34h0c.28.09.43.39.34.67l-.56,1.69c-.09.28-.39.43-.67.34Z"/>
        <path class="cls-2" d="m5.94,51.18h0c-.29-.1-.45-.41-.35-.7l.29-.89c.1-.29.41-.45.7-.35h0c.29.1.45.41.35.7l-.29.89c-.1.29-.41.45-.7.35Z"/>
      </g>
      <g>
        <path class="cls-5" d="m28.99,56.15c0-2.9-2.35-5.06-5.25-5.06s-5.25,2.16-5.25,5.06h10.5Z"/>
        <path class="cls-1" d="m26.96,56.15c.12-.34.19-.71.19-1.09,0-1.88-1.53-3.41-3.41-3.41s-3.41,1.53-3.41,3.41c0,.38.08.75.19,1.09h6.44Z"/>
        <rect class="cls-11" x="18.5" y="55.06" width="10.5" height="2.15" rx="1.06" ry="1.06"/>
        <path class="cls-2" d="m27.21,53.47c0,.68-.55,1.24-1.24,1.24s-1.24-.55-1.24-1.24.55-1.24,1.24-1.24,1.24.55,1.24,1.24Z"/>
        <path class="cls-2" d="m23.33,52.24c0-.35.29-.64.64-.64s.64.29.64.64-.29.64-.64.64-.64-.29-.64-.64Z"/>
        <path class="cls-6" d="m20.33,55.73h0c-.38,0-.69-.31-.69-.69h0c0-.38.31-.69.69-.69h0c.38,0,.69.31.69.69h0c0,.38-.31.69-.69.69Z"/>
        <path class="cls-6" d="m27.38,55.73h0c-.38,0-.69-.31-.69-.69h0c0-.38.31-.69.69-.69h0c.38,0,.69.31.69.69h0c0,.38-.31.69-.69.69Z"/>
        <path class="cls-6" d="m25.03,55.73h0c-.38,0-.69-.31-.69-.69h0c0-.38.31-.69.69-.69h0c.38,0,.69.31.69.69h0c0,.38-.31.69-.69.69Z"/>
        <path class="cls-6" d="m22.68,55.73h0c-.38,0-.69-.31-.69-.69h0c0-.38.31-.69.69-.69h0c.38,0,.69.31.69.69h0c0,.38-.31.69-.69.69Z"/>
      </g>
      <g>
        <path class="cls-5" d="m11.43,56.15c0-2.9-2.35-5.06-5.25-5.06s-5.25,2.16-5.25,5.06h10.5Z"/>
        <path class="cls-1" d="m9.4,56.15c.12-.34.19-.71.19-1.09,0-1.88-1.53-3.41-3.41-3.41s-3.41,1.53-3.41,3.41c0,.38.08.75.19,1.09h6.44Z"/>
        <path class="cls-11" d="m2,55.06h8.37c.59,0,1.06.48,1.06,1.06v.03c0,.59-.48,1.06-1.06,1.06H2c-.59,0-1.06-.48-1.06-1.06v-.03c0-.59.48-1.06,1.06-1.06Z"/>
        <circle class="cls-2" cx="8.41" cy="53.47" r="1.24"/>
        <path class="cls-2" d="m5.77,52.24c0-.35.29-.64.64-.64s.64.29.64.64-.29.64-.64.64-.64-.29-.64-.64Z"/>
        <path class="cls-6" d="m2.77,55.73h0c-.38,0-.69-.31-.69-.69h0c0-.38.31-.69.69-.69h0c.38,0,.69.31.69.69h0c0,.38-.31.69-.69.69Z"/>
        <path class="cls-6" d="m9.82,55.73h0c-.38,0-.69-.31-.69-.69h0c0-.38.31-.69.69-.69h0c.38,0,.69.31.69.69h0c0,.38-.31.69-.69.69Z"/>
        <path class="cls-6" d="m7.47,55.73h0c-.38,0-.69-.31-.69-.69h0c0-.38.31-.69.69-.69h0c.38,0,.69.31.69.69h0c0,.38-.31.69-.69.69Z"/>
        <path class="cls-6" d="m5.12,55.73h0c-.38,0-.69-.31-.69-.69h0c0-.38.31-.69.69-.69h0c.38,0,.69.31.69.69h0c0,.38-.31.69-.69.69Z"/>
      </g>
      <g>
        <path class="cls-11" d="m7.11,20.29c-.17,0-.33-.08-.42-.24-.12-.2-3.04-4.95-.99-7.76,1.55-2.13,5.47-2.43,11.64-.89.27.07.43.34.36.61-.07.27-.34.43-.61.36-5.66-1.41-9.32-1.23-10.59.51-1.65,2.26,1.01,6.6,1.03,6.64.15.23.07.54-.16.69-.08.05-.17.08-.26.08Z"/>
        <g>
          <g>
            <path class="cls-11" d="m3.28,29.63H1c-.55,0-1,.45-1,1h0c0,.55.45,1,1,1h2.28c.55,0,1-.45,1-1h0c0-.55-.45-1-1-1Z"/>
            <path class="cls-11" d="m3.28,21.51H1c-.55,0-1,.45-1,1h0c0,.55.45,1,1,1h2.28c.55,0,1-.45,1-1h0c0-.55-.45-1-1-1Z"/>
            <path class="cls-6" d="m.75,21.51h0c-.41,0-.75.34-.75.75v8.63c0,.41.34.75.75.75h0c.41,0,.75-.34.75-.75v-8.63c0-.41-.34-.75-.75-.75Z"/>
            <path class="cls-9" d="m.75,27.45h0c-.41,0-.75.34-.75.75v1.25c0,.41.34.75.75.75h0c.41,0,.75-.34.75-.75v-1.25c0-.41-.34-.75-.75-.75Z"/>
            <path class="cls-9" d="m.75,23.74h0c-.41,0-.75.34-.75.75v.36c0,.41.34.75.75.75h0c.41,0,.75-.34.75-.75v-.36c0-.41-.34-.75-.75-.75Z"/>
          </g>
          <path class="cls-11" d="m10.09,34.55h0c.93,0,1.7-.76,1.7-1.7v-10.71c0-2.07-1.69-3.76-3.76-3.76h0c-2.07,0-3.76,1.69-3.76,3.76v6.59c0,3.2,2.62,5.82,5.82,5.82Z"/>
          <path class="cls-2" d="m7.13,33.72h0c.79,0,1.43-.64,1.43-1.43v-10.04c0-1.56-1.28-2.84-2.84-2.84h0c-1.56,0-2.84,1.28-2.84,2.84v7.22c0,2.34,1.91,4.25,4.25,4.25Z"/>
          <path class="cls-13" d="m8.08,33.72h0c.79,0,1.43-.64,1.43-1.43v-10.04c0-1.56-1.28-2.84-2.84-2.84h0c-1.56,0-2.84,1.28-2.84,2.84v7.22c0,2.34,1.91,4.25,4.25,4.25Z"/>
          <path class="cls-2" d="m6.35,21.21c0-.34-.28-.62-.62-.62s-.62.28-.62.62.28.62.62.62.62-.28.62-.62Z"/>
          <circle class="cls-2" cx="5.6" cy="30.55" r="1.51"/>
          <path class="cls-11" d="m6.71,30.55c0-.83-.67-1.51-1.51-1.51s-1.51.67-1.51,1.51.67,1.51,1.51,1.51,1.51-.67,1.51-1.51Z"/>
          <path class="cls-3" d="m6.05,30.55c0-.59-.48-1.07-1.07-1.07s-1.07.48-1.07,1.07.48,1.07,1.07,1.07,1.07-.48,1.07-1.07Z"/>
          <path class="cls-11" d="m11.98,24.37h-5.5c-.52,0-.95-.43-.95-.95h0c0-.52.43-.95.95-.95h5.5c.52,0,.95.43.95.95h0c0,.52-.43.95-.95.95Z"/>
          <path class="cls-11" d="m11.98,28.28h-5.5c-.52,0-.95-.43-.95-.95h0c0-.52.43-.95.95-.95h5.5c.52,0,.95.43.95.95h0c0,.52-.43.95-.95.95Z"/>
          <path class="cls-6" d="m7.14,27.33c0-.31-.25-.56-.56-.56s-.56.25-.56.56.25.56.56.56.56-.25.56-.56Z"/>
          <path class="cls-6" d="m7.14,23.42c0-.31-.25-.56-.56-.56s-.56.25-.56.56.25.56.56.56.56-.25.56-.56Z"/>
          <path class="cls-9" d="m6.09,23.42c0-.31-.25-.56-.56-.56s-.56.25-.56.56.25.56.56.56.56-.25.56-.56Z"/>
          <path class="cls-9" d="m6.09,27.33c0-.31-.25-.56-.56-.56s-.56.25-.56.56.25.56.56.56.56-.25.56-.56Z"/>
        </g>
        <g>
          <path class="cls-11" d="m16.04,36.72h0c-4.6,0-8.36-3.76-8.36-8.36v-6.64c0-2.6,2.13-4.73,4.73-4.73h7.25c2.6,0,4.73,2.13,4.73,4.73v6.64c0,4.6-3.76,8.36-8.36,8.36Z"/>
          <path class="cls-6" d="m14.28,28.62h0c-.71,0-1.29-.58-1.29-1.29v-4.04c0-.71.58-1.29,1.29-1.29h0c.71,0,1.29.58,1.29,1.29v4.04c0,.71-.58,1.29-1.29,1.29Z"/>
          <path class="cls-6" d="m20.64,28.62h0c-.71,0-1.29-.58-1.29-1.29v-4.04c0-.71.58-1.29,1.29-1.29h0c.71,0,1.29.58,1.29,1.29v4.04c0,.71-.58,1.29-1.29,1.29Z"/>
          <path class="cls-1" d="m14.98,24.48h-3c-1.07,0-1.94-.87-1.94-1.94h0c0-2.22,1.81-4.03,4.03-4.03h.91c1.07,0,1.94.87,1.94,1.94v2.09c0,1.07-.87,1.94-1.94,1.94Z"/>
          <path class="cls-1" d="m22.98,24.48h-3c-1.07,0-1.94-.87-1.94-1.94v-2.09c0-1.07.87-1.94,1.94-1.94h1.57c1.85,0,3.36,1.51,3.36,3.36v.66c0,1.07-.87,1.94-1.94,1.94Z"/>
          <path class="cls-5" d="m21.64,23.54l-2.78-2.78c-.21-.21-.21-.56,0-.78h0c.21-.21.56-.21.78,0l2.78,2.78c.21.21.21.56,0,.78h0c-.21.21-.56.21-.78,0Z"/>
          <path class="cls-5" d="m22.94,21.6l-1.23-1.23c-.21-.21-.21-.56,0-.78h0c.21-.21.56-.21.78,0l1.23,1.23c.21.21.21.56,0,.78h0c-.21.21-.56.21-.78,0Z"/>
          <path class="cls-5" d="m13.83,23.54l-2.14-2.14c-.21-.21-.21-.56,0-.78h0c.21-.21.56-.21.78,0l2.14,2.14c.21.21.21.56,0,.78h0c-.21.21-.56.21-.78,0Z"/>
          <path class="cls-5" d="m15.13,21.6l-1.23-1.23c-.21-.21-.21-.56,0-.78h0c.21-.21.56-.21.78,0l1.23,1.23c.21.21.21.56,0,.78h0c-.21.21-.56.21-.78,0Z"/>
          <path class="cls-1" d="m21.96,29.08h-9.76c-.48,0-.88-.39-.88-.88h0c0-.48.39-.88.88-.88h9.76c.48,0,.88.39.88.88h0c0,.48-.39.88-.88.88Z"/>
          <path class="cls-6" d="m14,31.16h0c-.41,0-.75-.34-.75-.75v-1.95c0-.41.34-.75.75-.75h0c.41,0,.75.34.75.75v1.95c0,.41-.34.75-.75.75Z"/>
          <path class="cls-6" d="m19.84,31.16h0c-.41,0-.75-.34-.75-.75v-1.95c0-.41.34-.75.75-.75h0c.41,0,.75.34.75.75v1.95c0,.41-.34.75-.75.75Z"/>
          <circle class="cls-6" cx="12.89" cy="33.54" r="1.12"/>
          <path class="cls-6" d="m21.55,33.14c0,.4-.32.72-.72.72s-.72-.32-.72-.72.32-.72.72-.72.72.32.72.72Z"/>
          <path class="cls-2" d="m12.7,20.97c0,.36-.29.66-.66.66s-.66-.29-.66-.66.29-.66.66-.66.66.29.66.66Z"/>
          <path class="cls-2" d="m14.98,19.98c0,.36-.29.65-.65.65s-.65-.29-.65-.65.29-.65.65-.65.65.29.65.65Z"/>
          <path class="cls-1" d="m20.3,33.31c0-1.47-1.46-2.67-3.27-2.67s-3.27,1.19-3.27,2.67,1.46,2.67,3.27,2.67,3.27-1.19,3.27-2.67Z"/>
          <path class="cls-2" d="m19.87,20.27c0,.36-.29.66-.66.66s-.66-.29-.66-.66.29-.66.66-.66.66.29.66.66Z"/>
          <circle class="cls-2" cx="22.1" cy="19.98" r=".65"/>
          <path class="cls-1" d="m22.7,31.66h-12.56c-.36,0-.65-.29-.65-.65h0c0-.36.29-.65.65-.65h12.56c.36,0,.65.29.65.65h0c0,.36-.29.65-.65.65Z"/>
          <path class="cls-5" d="m19.99,31.66h-2.25c-.36,0-.65-.29-.65-.65h0c0-.36.29-.65.65-.65h2.25c.36,0,.65.29.65.65h0c0,.36-.29.65-.65.65Z"/>
          <path class="cls-5" d="m13.68,31.66h-.53c-.36,0-.65-.29-.65-.65h0c0-.36.29-.65.65-.65h.53c.36,0,.65.29.65.65h0c0,.36-.29.65-.65.65Z"/>
          <path class="cls-2" d="m20.64,31c0,.36-.29.65-.65.65s-.65-.29-.65-.65.29-.65.65-.65.65.29.65.65Z"/>
          <path class="cls-2" d="m14.51,31c0,.36-.29.65-.65.65s-.65-.29-.65-.65.29-.65.65-.65.65.29.65.65Z"/>
          <path class="cls-5" d="m18.56,34.22c0-.71-.73-1.28-1.64-1.28s-1.64.57-1.64,1.28.73,1.28,1.64,1.28,1.64-.57,1.64-1.28Z"/>
          <path class="cls-5" d="m18.86,32.92c0,.28-.23.5-.5.5s-.5-.23-.5-.5.23-.5.5-.5.5.23.5.5Z"/>
        </g>
      </g>
      <g>
        <path class="cls-11" d="m12.95,1.96s-1.4-1.35-3.82.6c-.21.17-.17.51.09.6.65.22,1.7.87,2.68,2.72l1.05-3.91Z"/>
        <path class="cls-11" d="m11.43,3.88s-1.34-1.41-3.84.43c-.22.16-.19.5.06.6.64.25,1.66.94,2.56,2.83l1.22-3.86Z"/>
        <path class="cls-11" d="m19.21,4.05s1.71-.92.6-3.82c-.1-.25-.44-.31-.6-.1-.41.55-1.35,1.35-3.41,1.71l3.4,2.2Z"/>
        <g>
          <path class="cls-11" d="m12.04,1.82s7.56-.11,10.19-1.32c.36-.16.76.06.78.46.06,1.2-.01,3.23-1.09,4.11L12.04,1.82Z"/>
          <path class="cls-8" d="m21.01,5.32c-.85,0-1.54.69-1.54,1.54s.69,1.54,1.54,1.54,1.54-.69,1.54-1.54-.69-1.54-1.54-1.54Z"/>
          <path class="cls-4" d="m15.97,14.21h0c-3.06,0-5.56-2.5-5.56-5.56v-2.97c0-1.87,1.53-3.39,3.39-3.39h4.54c1.87,0,3.39,1.53,3.39,3.39v2.75c0,3.18-2.6,5.77-5.77,5.77Z"/>
          <path class="cls-11" d="m10.2,9.32h0c-.83,0-1.51-.68-1.51-1.51v-2.48c0-.83.68-1.51,1.51-1.51h0c.83,0,1.51.68,1.51,1.51v2.48c0,.83-.68,1.51-1.51,1.51Z"/>
          <path class="cls-11" d="m20.69,5.56h-8.65c-1.03,0-1.87-.84-1.87-1.87h0c0-1.03.84-1.87,1.87-1.87h8.65c1.03,0,1.87.84,1.87,1.87h0c0,1.03-.84,1.87-1.87,1.87Z"/>
          <g>
            <path class="cls-4" d="m12.52,6.86c0,.85-.55,1.54-1.4,1.54s-1.68-.69-1.68-1.54.69-1.54,1.54-1.54,1.54.69,1.54,1.54Z"/>
            <path class="cls-8" d="m11.77,6.86c0,.44-.36.8-.8.8s-.8-.36-.8-.8.36-.8.8-.8.8.36.8.8Z"/>
          </g>
          <path class="cls-8" d="m17.78,10.7h0c-.62,0-1.12-.51-1.12-1.12v-1.11c0-.62.51-1.12,1.12-1.12h0c.62,0,1.12.51,1.12,1.12v1.11c0,.62-.51,1.12-1.12,1.12Z"/>
          <rect class="cls-13" x="16.44" y="2.57" width="4.99" height="1.25" rx=".63" ry=".63"/>
          <path class="cls-2" d="m20.43,3.2c0-.35-.28-.63-.63-.63s-.63.28-.63.63.28.63.63.63.63-.28.63-.63Z"/>
          <rect class="cls-13" x="12.59" y="2.57" width="2.42" height="1.25" rx=".63" ry=".63"/>
          <path class="cls-1" d="m20.82,9.32h-7.17c-1.09,0-1.97-.89-1.97-1.97h0c0-1.09.89-1.97,1.97-1.97h7.17c1.09,0,1.97.89,1.97,1.97h0c0,1.09-.89,1.97-1.97,1.97Z"/>
          <path class="cls-5" d="m14.65,8.61c-.7,0-1.27-.57-1.27-1.27s.57-1.27,1.27-1.27h6.17c.7,0,1.27.57,1.27,1.27s-.57,1.27-1.27,1.27h-6.17Z"/>
          <path class="cls-11" d="m16.81,7.98h-2.36c-.35,0-.64-.29-.64-.64h0c0-.35.29-.64.64-.64h2.36c.35,0,.64.29.64.64h0c0,.35-.29.64-.64.64Z"/>
          <path class="cls-11" d="m21.55,7.98h-2.36c-.35,0-.64-.29-.64-.64h0c0-.35.29-.64.64-.64h2.36c.35,0,.64.29.64.64h0c0,.35-.29.64-.64.64Z"/>
          <path class="cls-2" d="m16.63,7.34c0,.35-.29.64-.64.64s-.64-.29-.64-.64.29-.64.64-.64.64.29.64.64Z"/>
          <path class="cls-2" d="m21.45,7.34c0,.35-.29.64-.64.64s-.64-.29-.64-.64.29-.64.64-.64.64.29.64.64Z"/>
        </g>
        <path class="cls-11" d="m15.92,17.55c3.66,0,6.7-2.71,7.2-6.24.08-.55-.36-1.04-.91-1.04h-12.58c-.55,0-.99.49-.91,1.04.5,3.53,3.53,6.24,7.2,6.24Z"/>
        <path class="cls-2" d="m17.04,15.63c2.18,0,3.99-1.62,4.29-3.72.05-.33-.21-.62-.54-.62h-7.5c-.33,0-.59.29-.54.62.3,2.1,2.11,3.72,4.29,3.72Z"/>
        <path class="cls-6" d="m17.04,16.2c2.18,0,3.99-1.62,4.29-3.72.05-.33-.21-.62-.54-.62h-7.5c-.33,0-.59.29-.54.62.3,2.1,2.11,3.72,4.29,3.72Z"/>
        <path class="cls-11" d="m15.62,13.01c0,.25-.2.45-.45.45s-.45-.2-.45-.45.2-.45.45-.45.45.2.45.45Z"/>
        <path class="cls-11" d="m16.98,13.01c0,.25-.2.45-.45.45s-.45-.2-.45-.45.2-.45.45-.45.45.2.45.45Z"/>
        <path class="cls-11" d="m18.33,13.01c0,.25-.2.45-.45.45s-.45-.2-.45-.45.2-.45.45-.45.45.2.45.45Z"/>
        <circle class="cls-11" cx="19.24" cy="13.01" r=".45"/>
        <path class="cls-11" d="m16.98,14.38c0,.25-.2.45-.45.45s-.45-.2-.45-.45.2-.45.45-.45.45.2.45.45Z"/>
        <path class="cls-11" d="m18.33,14.38c0,.25-.2.45-.45.45s-.45-.2-.45-.45.2-.45.45-.45.45.2.45.45Z"/>
        <path class="cls-6" d="m11.3,12.09h-1.1c-.22,0-.4-.18-.4-.4h0c0-.22.18-.4.4-.4h1.1c.22,0,.4.18.4.4h0c0,.22-.18.4-.4.4Z"/>
        <path class="cls-6" d="m11.59,13.91h-.39c-.25,0-.45-.2-.45-.45h0c0-.25.2-.45.45-.45h.39c.25,0,.45.2.45.45h0c0,.25-.2.45-.45.45Z"/>
      </g>
      <g>
        <path class="cls-11" d="m21.3,9.19h0c-.53.06-.92.55-.85,1.09l.39,3.26c.06.53.55.92,1.09.85h0c.53-.06.92-.55.85-1.09l-.39-3.26c-.06-.53-.55-.92-1.09-.85Z"/>
        <path class="cls-11" d="m24.31,11.74h0c-.06-.53-.55-.92-1.09-.85l-3.26.39c-.53.06-.92.55-.85,1.09h0c.06.53.55.92,1.09.85l3.26-.39c.53-.06.92-.55.85-1.09Z"/>
        <path class="cls-3" d="m34.09,7.81l-5.11.62c-.89.11-1.53.92-1.42,1.81h0c.11.89.92,1.53,1.81,1.42l5.11-.62c.89-.11,1.53-.92,1.42-1.81h0c-.11-.89-.92-1.53-1.81-1.42Z"/>
        <path class="cls-2" d="m31.17,8.17l-.54.07c-.29.03-.49.3-.46.59h0c.03.29.3.49.59.46l.54-.07c.29-.03.49-.3.46-.59h0c-.03-.29-.3-.49-.59-.46Z"/>
        <path class="cls-2" d="m32.53,8h0c-.29.03-.49.3-.46.59h0c.03.29.3.49.59.46h0c.29-.03.49-.3.46-.59h0c-.03-.29-.3-.49-.59-.46Z"/>
        <path class="cls-11" d="m36.27,8.6l-9,1.09c-.77.09-1.32.8-1.22,1.56h0c.09.77.8,1.32,1.56,1.22l9-1.09c.77-.09,1.32-.8,1.22-1.56h0c-.09-.77-.8-1.32-1.56-1.22Z"/>
        <path class="cls-11" d="m28.72,10.59h0c-.57.07-1.1-.34-1.17-.92h0c-.07-.57.34-1.1.92-1.17h0c.57-.07,1.1.34,1.17.92h0c.07.57-.34,1.1-.92,1.17Z"/>
        <path class="cls-11" d="m35.29,9.79h0c-.57.07-1.1-.34-1.17-.92h0c-.07-.57.34-1.1.92-1.17h0c.57-.07,1.1.34,1.17.92h0c.07.57-.34,1.1-.92,1.17Z"/>
        <path class="cls-11" d="m27.52,21.99l-13.73,1.66c-1.32.16-2.54-.79-2.7-2.12l-.34-2.83c-.35-2.88,1.72-5.53,4.61-5.88l10.89-1.32c2.88-.35,5.53,1.72,5.88,4.61h0c.35,2.88-1.72,5.53-4.61,5.88Z"/>
        <path class="cls-11" d="m38.55,10.71h0c-.92.11-1.58.96-1.47,1.88l.5,4.12c.11.92.96,1.58,1.88,1.47h0c.92-.11,1.58-.96,1.47-1.88l-.5-4.12c-.11-.92-.96-1.58-1.88-1.47Z"/>
        <path class="cls-2" d="m38.83,18.04l-19.64,2.38-.61-5c-.22-1.8,1.07-3.44,2.87-3.66l15.55-1.88c.45-.05.87.27.92.72l.9,7.45Z"/>
        <path class="cls-11" d="m39.21,19.08l-19.19,2.32-.61-5c-.22-1.8,1.07-3.44,2.87-3.66l13.9-1.68c1.12-.14,2.14.66,2.28,1.78l.76,6.24Z"/>
        <path class="cls-5" d="m39.16,18.81l-14.42,1.75-.61-5c-.22-1.8,1.07-3.44,2.87-3.66l10.33-1.25c.45-.05.87.27.92.72l.9,7.45Z"/>
        <path class="cls-11" d="m36.64,17.31l-6.69.81c-1.27.15-2.18,1.32-2.03,2.58h0c.15,1.27,1.32,2.18,2.58,2.03l6.69-.81c1.27-.15,2.18-1.32,2.03-2.58h0c-.15-1.27-1.32-2.18-2.58-2.03Z"/>
        <path class="cls-11" d="m23.42,14.04h0c-1.87-.33-3.68.93-4.02,2.8l-.54,3.03c-.33,1.87.93,3.68,2.8,4.02h0c1.87.33,3.68-.93,4.02-2.8l.54-3.03c.33-1.87-.93-3.68-2.8-4.02Z"/>
        <path class="cls-11" d="m29.43,20.65l-5.82.71c-2.16.26-4.13-1.29-4.39-3.44h0c-.26-2.16,1.29-4.13,3.44-4.39l5.82-.71c2.16-.26,4.13,1.29,4.39,3.44h0c.26,2.16-1.29,4.13-3.44,4.39Z"/>
        <path class="cls-6" d="m29.32,19.34l-2.26.27c-.65.08-1.25-.39-1.33-1.04h0c-.08-.65.39-1.25,1.04-1.33l2.26-.27c.65-.08,1.25.39,1.33,1.04h0c.08.65-.39,1.25-1.04,1.33Z"/>
        <path class="cls-11" d="m22.1,14.2h0c-1.87-.33-3.68.93-4.02,2.8l-.54,3.03c-.33,1.87.93,3.68,2.8,4.02h0c1.87.33,3.68-.93,4.02-2.8l.54-3.03c.33-1.87-.93-3.68-2.8-4.02Z"/>
        <path class="cls-6" d="m21.78,15.33h0c-1.26-.23-2.51.76-2.76,2.2l-.41,2.32c-.26,1.44.57,2.79,1.83,3.02h0c1.26.23,2.51-.76,2.76-2.2l.41-2.32c.26-1.44-.57-2.79-1.83-3.02Z"/>
        <path class="cls-2" d="m18.68,20.56l.41-2.32c.26-1.44,1.5-2.43,2.76-2.2.9.16,1.57.9,1.79,1.82.01-1.24-.76-2.33-1.88-2.53-1.26-.23-2.51.76-2.76,2.2l-.41,2.32c-.07.42-.05.82.04,1.2,0-.16.01-.32.04-.49Z"/>
        <path class="cls-11" d="m22.31,17.53c-.06-.48-.49-.82-.97-.76s-.82.49-.76.97.49.82.97.76.82-.49.76-.97Z"/>
        <path class="cls-11" d="m21.54,20.73c-.05-.41-.42-.7-.83-.65-.41.05-.7.42-.65.83.05.41.42.7.83.65.41-.05.7-.42.65-.83Z"/>
        <path class="cls-2" d="m26.77,17.52h0c-.5.06-.86.52-.8,1.02h0c.06.5.52.86,1.02.8h0c.5-.06.86-.52.8-1.02h0c-.06-.5-.52-.86-1.02-.8Z"/>
        <g>
          <path class="cls-5" d="m36.25,18.44l-4.56.55c-1.72.21-2.96,1.79-2.75,3.51h0c.21,1.72,1.79,2.96,3.51,2.75l3.43-.42c1.72-.21,2.96-1.79,2.75-3.51l-.14-1.13c-.13-1.1-1.14-1.89-2.24-1.76Z"/>
          <path class="cls-1" d="m34.82,19.89l-2.53.31c-1.03.12-1.77,1.07-1.65,2.1h0c.12,1.03,1.07,1.77,2.1,1.65l2.53-.31c1.03-.12,1.77-1.07,1.65-2.1h0c-.12-1.03-1.07-1.77-2.1-1.65Z"/>
          <path class="cls-2" d="m36.4,20.19c-.08-.69-.71-1.18-1.39-1.09s-1.18.71-1.09,1.39.71,1.18,1.39,1.09c.69-.08,1.18-.71,1.09-1.39Z"/>
          <path class="cls-2" d="m32.7,22.77c-.06-.47-.49-.81-.96-.75-.47.06-.81.49-.75.96.06.47.49.81.96.75.47-.06.81-.49.75-.96Z"/>
        </g>
        <path class="cls-6" d="m28.65,14.58l-4.05.49c-.27.03-.47.28-.43.55h0c.03.27.28.47.55.43l4.05-.49c.27-.03.47-.28.43-.55h0c-.03-.27-.28-.47-.55-.43Z"/>
        <path class="cls-6" d="m13.14,16.84h0c-.84.1-1.44.87-1.34,1.71l.27,2.23c.1.84.87,1.44,1.71,1.34h0c.84-.1,1.44-.87,1.34-1.71l-.27-2.23c-.1-.84-.87-1.44-1.71-1.34Z"/>
        <path class="cls-6" d="m15.63,13.96h0c-.7.08-1.2.73-1.12,1.43h0c.08.7.73,1.2,1.43,1.12h0c.7-.08,1.2-.73,1.12-1.43h0c-.08-.7-.73-1.2-1.43-1.12Z"/>
        <path class="cls-11" d="m40.39,11.83h0c-.51.06-.87.53-.81,1.03l.19,1.53c.06.51.53.87,1.03.81h0c.51-.06.87-.53.81-1.03l-.19-1.53c-.06-.51-.53-.87-1.03-.81Z"/>
        <path class="cls-6" d="m39.78,14.81h0c-.3.04-.58-.18-.62-.49l-.21-1.76c-.04-.3.18-.58.49-.62h0c.3-.04.58.18.62.49l.21,1.76c.04.3-.18.58-.49.62Z"/>
        <path class="cls-6" d="m39.97,16.39h0c-.25.03-.43.26-.4.51h0c.03.25.26.43.51.4h0c.25-.03.43-.26.4-.51h0c-.03-.25-.26-.43-.51-.4Z"/>
        <path class="cls-2" d="m40.08,12.66h0c-.37.05-.64.39-.6.76h0c.05.37.39.64.76.6h0c.37-.05.64-.39.6-.76h0c-.05-.37-.39-.64-.76-.6Z"/>
        <g>
          <path class="cls-11" d="m30.07,14.99h0c-.12-1.03.63-1.98,1.66-2.1l3.14-.37c1.03-.12,1.98.63,2.1,1.66h0c.12,1.03-.63,1.98-1.66,2.1l-3.14.37c-1.03.12-1.98-.63-2.1-1.66Z"/>
          <path class="cls-3" d="m32.5,14.7h0c-.08-.7.43-1.35,1.13-1.43l1.04-.12c.7-.08,1.35.43,1.43,1.13h0c.08.7-.43,1.35-1.13,1.43l-1.04.12c-.7.08-1.35-.43-1.43-1.13Z"/>
          <path class="cls-2" d="m35.24,15.22c.44-.22.61-.75.39-1.19-.22-.44-.75-.61-1.19-.39-.44.22-.61.75-.39,1.19.22.44.75.61,1.19.39Z"/>
          <path class="cls-6" d="m31.61,15.18c.23-.12.32-.4.21-.63s-.4-.32-.63-.21c-.23.12-.32.4-.21.63.12.23.4.32.63.21Z"/>
        </g>
      </g>
      <g>
        <path class="cls-7" d="m17.65,21.25l-.54.66-.07.09-1.82,2.22c-.83,1.02-.68,2.54.34,3.37h0c1.02.83,2.54.68,3.37-.34l1.82-2.22.07-.09.54-.66c.83-1.02.68-2.54-.34-3.37h0c-1.02-.83-2.54-.68-3.37.34Z"/>
        <path class="cls-1" d="m18.91,19.7l-1.1,1.34c-.83,1.02-.68,2.54.34,3.37h0c1.02.83,2.54.68,3.37-.34l1.1-1.34c.83-1.02.68-2.54-.34-3.37h0c-1.02-.83-2.54-.68-3.37.34Z"/>
      </g>
      <g>
        <path class="cls-5" d="m25.94,20.31l-3.7.45c-.96.12-1.84-.57-1.96-1.53h0c-.12-.96.57-1.84,1.53-1.96l3.7-.45c.96-.12,1.84.57,1.96,1.53h0c.12.96-.57,1.84-1.53,1.96Z"/>
        <path class="cls-5" d="m22.5,17.18l-.33.04c-2.23.27-3.84,2.32-3.57,4.55h0c.27,2.23,2.32,3.84,4.55,3.57l.33-.04c2.23-.27,3.84-2.32,3.57-4.55h0c-.27-2.23-2.32-3.84-4.55-3.57Z"/>
        <path class="cls-1" d="m23.9,24.4h0c-1.39.17-2.66-.83-2.82-2.21l-.17-1.41c-.17-1.39.83-2.66,2.21-2.82h0c1.39-.17,2.66.83,2.82,2.21l.17,1.41c.17,1.39-.83,2.66-2.21,2.82Z"/>
        <path class="cls-2" d="m23.51,21.17h0c-.76.09-1.47-.46-1.56-1.22h0c-.09-.76.46-1.47,1.22-1.56h0c.76-.09,1.47.46,1.56,1.22h0c.09.76-.46,1.47-1.22,1.56Z"/>
        <path class="cls-2" d="m22,23.3h0c-.52.06-.99-.31-1.05-.82h0c-.06-.52.31-.99.82-1.05h0c.52-.06.99.31,1.05.82h0c.06.52-.31.99-.82,1.05Z"/>
      </g>
      <g>
        <path id="ArmOne-2" data-name="ArmOne" class="cls-7" d="m18.69,27.41h0c-.91.95-2.44.98-3.39.07l-8.1-7.77c-.95-.91-.98-2.44-.07-3.39h0c.91-.95,2.44-.98,3.39-.07l8.1,7.77c.95.91.98,2.44.07,3.39Z"/>
        <path class="cls-11" d="m15.93,24.72h0c-.2.21-.53.21-.74.02l-2.24-2.15c-.21-.2-.21-.53-.02-.74h0c.2-.21.53-.21.74-.02l2.24,2.15c.21.2.21.53.02.74Z"/>
        <path class="cls-2" d="m14.65,17.15c-1.83-1.75-4.72-1.69-6.48.13s-1.69,4.72.13,6.48,4.05,1.04,5.8-.78,2.37-4.08.54-5.83Z"/>
        <path class="cls-1" d="m13.41,15.53c-1.95-1.87-5.04-1.8-6.91.14s-1.8,5.04.14,6.91,4.32,1.11,6.19-.84c1.87-1.95,2.53-4.35.58-6.22Z"/>
        <path class="cls-5" d="m11.85,17.01c-1.53-1.46-3.8-1.57-5.07-.24-1.28,1.33-1.07,3.59.46,5.06s3.23,1.03,4.51-.3c1.28-1.33,1.64-3.05.11-4.52Z"/>
        <path class="cls-3" d="m16.65,23.97c-.42-.4-1.08-.39-1.47.03-.4.42-.38,1.08.03,1.47.42.4,1.08.38,1.47-.03.4-.42.38-1.08-.03-1.47Z"/>
        <g>
          <path class="cls-1" d="m10.78,21.24h0c-.14,0-.25-.11-.25-.24l-.06-2.69c0-.14.11-.25.24-.25h0c.14,0,.25.11.25.24l.06,2.69c0,.14-.11.25-.24.25Z"/>
          <path class="cls-1" d="m9.07,20.43h0c-.14,0-.25-.11-.25-.24l-.06-2.69c0-.14.11-.25.24-.25h0c.14,0,.25.11.25.24l.06,2.69c0,.14-.11.25-.24.25Z"/>
          <path class="cls-1" d="m7.92,21.57h0c-.14,0-.25-.11-.25-.24l-.06-2.69c0-.14.11-.25.24-.25h0c.14,0,.25.11.25.24l.06,2.69c0,.14-.11.25-.24.25Z"/>
        </g>
        <path class="cls-2" d="m8.96,16.89c.74.71.77,1.9.05,2.64s-1.9.77-2.64.06c-.74-.71-.77-1.9-.05-2.64.71-.74,1.9-.77,2.64-.05Z"/>
        <path class="cls-2" d="m10.98,17.37c-.25-.24-.26-.63-.02-.88s.63-.26.88-.02.26.63.02.88c-.24.25-.63.26-.88.02Z"/>
      </g>
      <g>
        <path class="cls-7" d="m8.06,46.24h0c1.96.65,4.1-.42,4.75-2.38l2.72-8.21c.65-1.96-.42-4.1-2.38-4.75h0c-1.96-.65-4.1.42-4.75,2.38l-2.72,8.21c-.65,1.96.42,4.1,2.38,4.75Z"/>
        <path class="cls-1" d="m6.16,45.61h0c1.96.65,4.1-.42,4.75-2.38l2.72-8.21c.65-1.96-.42-4.1-2.38-4.75h0c-1.96-.65-4.1.42-4.75,2.38l-2.72,8.21c-.65,1.96.42,4.1,2.38,4.75Z"/>
        <path class="cls-2" d="m5.97,44.68h0c1.48.49,3.1-.32,3.59-1.8l2.72-8.19c.49-1.48-.32-3.1-1.8-3.59h0c-1.48-.49-3.1.32-3.59,1.8l-2.72,8.19c-.49,1.48.32,3.1,1.8,3.59Z"/>
        <path class="cls-5" d="m5.14,44.4h0c1.48.49,3.1-.32,3.59-1.8l2.72-8.19c.49-1.48-.32-3.1-1.8-3.59h0c-1.48-.49-3.1.32-3.59,1.8l-2.72,8.19c-.49,1.48.32,3.1,1.8,3.59Z"/>
        <path class="cls-7" d="m10.86,35.22l2.17.72c.52.17,1.09-.11,1.26-.63h0c.17-.52-.11-1.09-.63-1.26l-2.17-.72c-.52-.17-1.09.11-1.26.63h0c-.17.52.11,1.09.63,1.26Z"/>
        <path class="cls-7" d="m8.3,42.93l2.17.72c.52.17,1.09-.11,1.26-.63h0c.17-.52-.11-1.09-.63-1.26l-2.17-.72c-.52-.17-1.09.11-1.26.63h0c-.17.52.11,1.09.63,1.26Z"/>
        <path class="cls-6" d="m10.71,43.73h0c.39.13.81-.08.94-.47l2.72-8.2c.13-.39-.08-.81-.47-.94h0c-.39-.13-.81.08-.94.47l-2.72,8.2c-.13.39.08.81.47.94Z"/>
        <path class="cls-9" d="m12.58,38.09h0c.39.13.81-.08.94-.47l.39-1.19c.13-.39-.08-.81-.47-.94h0c-.39-.13-.81.08-.94.47l-.39,1.19c-.13.39.08.81.47.94Z"/>
        <path class="cls-9" d="m11.41,41.61h0c.39.13.81-.08.94-.47l.11-.34c.13-.39-.08-.81-.47-.94h0c-.39-.13-.81.08-.94.47l-.11.34c-.13.39.08.81.47.94Z"/>
        <g>
          <path class="cls-1" d="m9.67,37.83h0c-.06-.12-.21-.17-.33-.11l-2.4,1.21c-.12.06-.17.21-.11.33h0c.06.12.21.17.33.11l2.4-1.21c.12-.06.17-.21.11-.33Z"/>
          <path class="cls-1" d="m8.16,36.7h0c-.06-.12-.21-.17-.33-.11l-2.4,1.21c-.12.06-.17.21-.11.33h0c.06.12.21.17.33.11l2.4-1.21c.12-.06.17-.21.11-.33Z"/>
          <path class="cls-1" d="m8.63,35.15h0c-.06-.12-.21-.17-.33-.11l-2.4,1.21c-.12.06-.17.21-.11.33h0c.06.12.21.17.33.11l2.4-1.21c.12-.06.17-.21.11-.33Z"/>
        </g>
        <path class="cls-2" d="m8.77,32.42c.11-.33-.07-.68-.39-.78-.32-.11-.68.07-.78.39-.11.32.07.68.39.78.32.11.68-.07.78-.39Z"/>
      </g>
    </g>
  </g>
</svg>