<?xml version="1.0" encoding="UTF-8"?>
<svg id="Layer_2" data-name="Layer 2" xmlns="http://www.w3.org/2000/svg" viewBox="0 0 42.3 57.21">
  <defs>
    <style>
      .cls-1 {
        fill: #a20025;
      }

      .cls-2 {
        fill: #fff;
      }

      .cls-3 {
        fill: #7cff00;
      }

      .cls-4 {
        fill: #ffd285;
      }

      .cls-5 {
        fill: #fd003a;
      }

      .cls-6 {
        fill: #4d4d4d;
      }

      .cls-7 {
        fill: #333;
      }

      .cls-8 {
        fill: #ff6e4c;
      }

      .cls-9 {
        fill: #999;
      }

      .cls-10 {
        fill: #434343;
      }

      .cls-11 {
        fill: #1a1a1a;
      }

      .cls-12 {
        fill: #74001b;
      }

      .cls-13 {
        fill: #666;
      }
    </style>
  </defs>
  <g id="attack">
    <g id="attack3">
      <g>
        <g>
          <path class="cls-11" d="m29.4,14.17l-.86.07h-.11s-5.13.4-5.13.4c-1.32.1-2.31,1.26-2.21,2.57h0c.1,1.32,1.26,2.31,2.57,2.21l5.13-.39h.11s.86-.07.86-.07c1.32-.1,2.31-1.26,2.21-2.57h0c-.1-1.32-1.26-2.31-2.57-2.21Z"/>
          <path class="cls-12" d="m31.39,14.01l-1.73.13c-1.32.1-2.31,1.26-2.21,2.57h0c.1,1.32,1.26,2.31,2.57,2.21l1.73-.13c1.32-.1,2.31-1.26,2.21-2.57h0c-.1-1.32-1.26-2.31-2.57-2.21Z"/>
        </g>
        <g>
          <path id="ArmOne" class="cls-11" d="m24.61,17.26h0c-.13,1.31-1.31,2.28-2.62,2.15l-11.17-1.1c-1.31-.13-2.28-1.31-2.15-2.62h0c.13-1.31,1.31-2.28,2.62-2.15l11.17,1.1c1.31.13,2.28,1.31,2.15,2.62Z"/>
          <path class="cls-6" d="m21.43,16.92h0c-.03.29-.29.5-.57.47l-3.09-.31c-.29-.03-.5-.29-.47-.57h0c.03-.29.29-.5.57-.47l3.09.31c.29.03.5.29.47.57Z"/>
          <path class="cls-2" d="m15.09,11.69c-2.52-.25-4.76,1.59-5.01,4.11-.25,2.52,1.59,4.76,4.11,5.01s3.83-1.68,4.08-4.2-.66-4.67-3.17-4.92Z"/>
          <path class="cls-1" d="m13.12,11.18c-2.69-.27-5.08,1.7-5.34,4.38-.27,2.69,1.7,5.08,4.38,5.34s4.08-1.79,4.35-4.48c.27-2.69-.7-4.98-3.39-5.25Z"/>
          <path class="cls-5" d="m12.49,12.47c-1.66-.16-3.15,1.05-3.31,2.71-.16,1.66,1.05,3.15,2.71,3.31,1.66.16,3.15-1.05,3.31-2.71.16-1.66-1.05-3.15-2.71-3.31Z"/>
          <path class="cls-11" d="m12.44,12.99c-1.66-.16-3.15,1.05-3.31,2.71-.16,1.66,1.05,3.15,2.71,3.31,1.66.16,3.15-1.05,3.31-2.71.16-1.66-1.05-3.15-2.71-3.31Z"/>
          <path class="cls-6" d="m12.33,14.09c-1.06-.1-2,.67-2.1,1.72-.1,1.06.67,2,1.72,2.1s2-.67,2.1-1.72c.1-1.06-.67-2-1.72-2.1Z"/>
          <path class="cls-11" d="m12.22,15.17c-.46-.05-.87.29-.91.75-.05.46.29.87.75.91.46.05.87-.29.91-.75.05-.46-.29-.87-.75-.91Z"/>
        </g>
      </g>
      <g>
        <g>
          <path class="cls-7" d="m25.24,32.56l1.94-1.21c.47-.29.61-.91.32-1.38h0c-.29-.47-.91-.61-1.38-.32l-1.94,1.21c-.47.29-.61.91-.32,1.38h0c.29.47.91.61,1.38.32Z"/>
          <path class="cls-7" d="m29.55,39.45l1.94-1.21c.47-.29.61-.91.32-1.38h0c-.29-.47-.91-.61-1.38-.32l-1.94,1.21c-.47.29-.61.91-.32,1.38h0c.29.47.91.61,1.38.32Z"/>
          <path class="cls-6" d="m31.7,38.1h0c.35-.22.45-.68.24-1.03l-4.58-7.32c-.22-.35-.68-.45-1.03-.24h0c-.35.22-.45.68-.24,1.03l4.58,7.32c.22.35.68.45,1.03.24Z"/>
          <path class="cls-9" d="m28.55,33.07h0c.35-.22.45-.68.24-1.03l-.66-1.06c-.22-.35-.68-.45-1.03-.24h0c-.35.22-.45.68-.24,1.03l.67,1.06c.22.35.68.45,1.03.24Z"/>
          <path class="cls-9" d="m30.52,36.21h0c.35-.22.45-.68.24-1.03l-.19-.31c-.22-.35-.68-.45-1.03-.24h0c-.35.22-.45.68-.24,1.03l.19.31c.22.35.68.45,1.03.24Z"/>
        </g>
        <path class="cls-5" d="m29.35,42.34h0c-1.32.83-3.08.42-3.91-.9l-4.58-7.31c-.83-1.32-.42-3.08.9-3.91h0c1.32-.83,3.08-.42,3.91.9l4.58,7.31c.83,1.32.42,3.08-.9,3.91Z"/>
        <path class="cls-1" d="m28.23,44.01h0c-1.75,1.1-4.08.56-5.18-1.19l-4.59-7.33c-1.1-1.75-.56-4.08,1.19-5.18h0c1.75-1.1,4.08-.56,5.18,1.19l4.59,7.33c1.1,1.75.56,4.08-1.19,5.18Z"/>
        <path class="cls-11" d="m26.94,44.82h0c-1.75,1.1-4.08.56-5.18-1.19l-4.59-7.33c-1.1-1.75-.56-4.08,1.19-5.18h0c1.75-1.1,4.08-.56,5.18,1.19l4.59,7.33c1.1,1.75.56,4.08-1.19,5.18Z"/>
        <path class="cls-6" d="m24.54,44.23h0c-.35.22-.81.11-1.03-.24l-3.36-5.37c-.22-.35-.11-.81.24-1.03h0c.35-.22.81-.11,1.03.24l3.36,5.37c.22.35.11.81-.24,1.03Z"/>
        <path class="cls-9" d="m21.84,39.92h0c-.35.22-.81.11-1.03-.24l-.67-1.06c-.22-.35-.11-.81.24-1.03h0c.35-.22.81-.11,1.03.24l.66,1.06c.22.35.11.81-.24,1.03Z"/>
        <path class="cls-9" d="m23.81,43.06h0c-.35.22-.81.11-1.03-.24l-.19-.31c-.22-.35-.11-.81.24-1.03h0c.35-.22.81-.11,1.03.24l.19.31c.22.35.11.81-.24,1.03Z"/>
        <path class="cls-6" d="m27.39,42.07h0c-.35.22-.81.11-1.03-.24l-3.21-5.13c-.22-.35-.11-.81.24-1.03h0c.35-.22.81-.11,1.03.24l3.21,5.13c.22.35.11.81-.24,1.03Z"/>
        <path class="cls-9" d="m25.61,39.22h0c-.35.22-.81.11-1.03-.24l-.66-1.06c-.22-.35-.11-.81.24-1.03h0c.35-.22.81-.11,1.03.24l.67,1.06c.22.35.11.81-.24,1.03Z"/>
        <path class="cls-9" d="m27.08,41.58h0c-.35.22-.81.11-1.03-.24l-.19-.31c-.22-.35-.11-.81.24-1.03h0c.35-.22.81-.11,1.03.24l.19.31c.22.35.11.81-.24,1.03Z"/>
        <path class="cls-2" d="m24.07,30.93c-.18-.29-.09-.67.2-.85.29-.18.67-.09.85.2s.09.67-.2.85c-.29.18-.67.09-.85-.2Z"/>
        <path class="cls-6" d="m22.24,32.76c-.71-1.13-2.2-1.47-3.32-.76-1.13.71-1.47,2.2-.76,3.32.71,1.13,2.2,1.47,3.32.76,1.13-.71,1.47-2.2.76-3.32Z"/>
        <path class="cls-11" d="m21.29,33.35c-.38-.61-1.18-.79-1.79-.41-.61.38-.79,1.18-.41,1.79.38.61,1.18.79,1.79.41.61-.38.79-1.18.41-1.79Z"/>
        <path class="cls-2" d="m29.45,39.53c-.18-.29-.09-.67.2-.85s.67-.09.85.2.09.67-.2.85c-.29.18-.67.09-.85-.2Z"/>
      </g>
      <g>
        <g id="ShinTwo">
          <path class="cls-11" d="m23.78,55.42h0c-1.26-.21-2.12-1.42-1.91-2.68l1.7-10.2c.21-1.26,1.42-2.12,2.68-1.91h0c1.26.21,2.12,1.42,1.91,2.68l-1.7,10.2c-.21,1.26-1.42,2.12-2.68,1.91Z"/>
        </g>
        <path class="cls-10" d="m26.98,43.12c.1-.62-.31-1.2-.93-1.3s-1.2.31-1.3.93c-.1.62.31,1.2.93,1.3.62.1,1.2-.31,1.3-.93Z"/>
      </g>
      <g>
        <g id="ShinTwo-2" data-name="ShinTwo">
          <path class="cls-7" d="m5.16,55.31h0c-1.22-.4-1.88-1.72-1.48-2.94l3.24-9.82c.4-1.22,1.72-1.88,2.94-1.48h0c1.22.4,1.88,1.72,1.48,2.94l-3.24,9.82c-.4,1.22-1.72,1.88-2.94,1.48Z"/>
        </g>
        <path class="cls-6" d="m5.28,53.28h0c-.28-.09-.43-.39-.34-.67l3.27-9.9c.09-.28.39-.43.67-.34h0c.28.09.43.39.34.67l-3.27,9.9c-.09.28-.39.43-.67.34Z"/>
        <path class="cls-2" d="m7.47,46.63h0c-.28-.09-.43-.39-.34-.67l.56-1.69c.09-.28.39-.43.67-.34h0c.28.09.43.39.34.67l-.56,1.69c-.09.28-.39.43-.67.34Z"/>
        <path class="cls-2" d="m5.94,51.18h0c-.29-.1-.45-.41-.35-.7l.29-.89c.1-.29.41-.45.7-.35h0c.29.1.45.41.35.7l-.29.89c-.1.29-.41.45-.7.35Z"/>
      </g>
      <g>
        <path class="cls-5" d="m28.99,56.15c0-2.9-2.35-5.06-5.25-5.06s-5.25,2.16-5.25,5.06h10.5Z"/>
        <path class="cls-1" d="m26.96,56.15c.12-.34.19-.71.19-1.09,0-1.88-1.53-3.41-3.41-3.41s-3.41,1.53-3.41,3.41c0,.38.08.75.19,1.09h6.44Z"/>
        <path class="cls-11" d="m19.56,55.06h8.37c.59,0,1.06.48,1.06,1.06v.03c0,.59-.48,1.06-1.06,1.06h-8.37c-.59,0-1.06-.48-1.06-1.06v-.03c0-.59.48-1.06,1.06-1.06Z"/>
        <circle class="cls-2" cx="25.97" cy="53.47" r="1.24"/>
        <path class="cls-2" d="m23.33,52.24c0-.35.29-.64.64-.64s.64.29.64.64-.29.64-.64.64-.64-.29-.64-.64Z"/>
        <path class="cls-6" d="m20.33,55.73h0c-.38,0-.69-.31-.69-.69h0c0-.38.31-.69.69-.69h0c.38,0,.69.31.69.69h0c0,.38-.31.69-.69.69Z"/>
        <path class="cls-6" d="m27.38,55.73h0c-.38,0-.69-.31-.69-.69h0c0-.38.31-.69.69-.69h0c.38,0,.69.31.69.69h0c0,.38-.31.69-.69.69Z"/>
        <path class="cls-6" d="m25.03,55.73h0c-.38,0-.69-.31-.69-.69h0c0-.38.31-.69.69-.69h0c.38,0,.69.31.69.69h0c0,.38-.31.69-.69.69Z"/>
        <path class="cls-6" d="m22.68,55.73h0c-.38,0-.69-.31-.69-.69h0c0-.38.31-.69.69-.69h0c.38,0,.69.31.69.69h0c0,.38-.31.69-.69.69Z"/>
      </g>
      <g>
        <path class="cls-5" d="m11.43,56.15c0-2.9-2.35-5.06-5.25-5.06s-5.25,2.16-5.25,5.06h10.5Z"/>
        <path class="cls-1" d="m9.4,56.15c.12-.34.19-.71.19-1.09,0-1.88-1.53-3.41-3.41-3.41s-3.41,1.53-3.41,3.41c0,.38.08.75.19,1.09h6.44Z"/>
        <path class="cls-11" d="m2,55.06h8.37c.59,0,1.06.48,1.06,1.06v.03c0,.59-.48,1.06-1.06,1.06H2c-.59,0-1.06-.48-1.06-1.06v-.03c0-.59.48-1.06,1.06-1.06Z"/>
        <circle class="cls-2" cx="8.41" cy="53.47" r="1.24"/>
        <path class="cls-2" d="m5.77,52.24c0-.35.29-.64.64-.64s.64.29.64.64-.29.64-.64.64-.64-.29-.64-.64Z"/>
        <path class="cls-6" d="m2.77,55.73h0c-.38,0-.69-.31-.69-.69h0c0-.38.31-.69.69-.69h0c.38,0,.69.31.69.69h0c0,.38-.31.69-.69.69Z"/>
        <path class="cls-6" d="m9.82,55.73h0c-.38,0-.69-.31-.69-.69h0c0-.38.31-.69.69-.69h0c.38,0,.69.31.69.69h0c0,.38-.31.69-.69.69Z"/>
        <path class="cls-6" d="m7.47,55.73h0c-.38,0-.69-.31-.69-.69h0c0-.38.31-.69.69-.69h0c.38,0,.69.31.69.69h0c0,.38-.31.69-.69.69Z"/>
        <path class="cls-6" d="m5.12,55.73h0c-.38,0-.69-.31-.69-.69h0c0-.38.31-.69.69-.69h0c.38,0,.69.31.69.69h0c0,.38-.31.69-.69.69Z"/>
      </g>
      <g>
        <path class="cls-11" d="m7.11,20.29c-.17,0-.33-.08-.42-.24-.12-.2-3.04-4.95-.99-7.76,1.55-2.13,5.47-2.43,11.64-.89.27.07.43.34.36.61-.07.27-.34.43-.61.36-5.66-1.41-9.32-1.23-10.59.51-1.65,2.26,1.01,6.6,1.03,6.64.15.23.07.54-.16.69-.08.05-.17.08-.26.08Z"/>
        <g>
          <g>
            <path class="cls-11" d="m3.28,29.63H1c-.55,0-1,.45-1,1h0c0,.55.45,1,1,1h2.28c.55,0,1-.45,1-1h0c0-.55-.45-1-1-1Z"/>
            <path class="cls-11" d="m3.28,21.51H1c-.55,0-1,.45-1,1h0c0,.55.45,1,1,1h2.28c.55,0,1-.45,1-1h0c0-.55-.45-1-1-1Z"/>
            <path class="cls-6" d="m.75,21.51h0c-.41,0-.75.34-.75.75v8.63c0,.41.34.75.75.75h0c.41,0,.75-.34.75-.75v-8.63c0-.41-.34-.75-.75-.75Z"/>
            <path class="cls-9" d="m.75,27.45h0c-.41,0-.75.34-.75.75v1.25c0,.41.34.75.75.75h0c.41,0,.75-.34.75-.75v-1.25c0-.41-.34-.75-.75-.75Z"/>
            <path class="cls-9" d="m.75,23.74h0c-.41,0-.75.34-.75.75v.36c0,.41.34.75.75.75h0c.41,0,.75-.34.75-.75v-.36c0-.41-.34-.75-.75-.75Z"/>
          </g>
          <path class="cls-11" d="m10.09,34.55h0c.93,0,1.7-.76,1.7-1.7v-10.71c0-2.07-1.69-3.76-3.76-3.76h0c-2.07,0-3.76,1.69-3.76,3.76v6.59c0,3.2,2.62,5.82,5.82,5.82Z"/>
          <path class="cls-2" d="m7.13,33.72h0c.79,0,1.43-.64,1.43-1.43v-10.04c0-1.56-1.28-2.84-2.84-2.84h0c-1.56,0-2.84,1.28-2.84,2.84v7.22c0,2.34,1.91,4.25,4.25,4.25Z"/>
          <path class="cls-13" d="m8.08,33.72h0c.79,0,1.43-.64,1.43-1.43v-10.04c0-1.56-1.28-2.84-2.84-2.84h0c-1.56,0-2.84,1.28-2.84,2.84v7.22c0,2.34,1.91,4.25,4.25,4.25Z"/>
          <path class="cls-2" d="m6.35,21.21c0-.34-.28-.62-.62-.62s-.62.28-.62.62.28.62.62.62.62-.28.62-.62Z"/>
          <circle class="cls-2" cx="5.6" cy="30.55" r="1.51"/>
          <circle class="cls-11" cx="5.2" cy="30.55" r="1.51"/>
          <circle class="cls-3" cx="4.98" cy="30.55" r="1.07"/>
          <path class="cls-11" d="m11.98,24.37h-5.5c-.52,0-.95-.43-.95-.95h0c0-.52.43-.95.95-.95h5.5c.52,0,.95.43.95.95h0c0,.52-.43.95-.95.95Z"/>
          <path class="cls-11" d="m11.98,28.28h-5.5c-.52,0-.95-.43-.95-.95h0c0-.52.43-.95.95-.95h5.5c.52,0,.95.43.95.95h0c0,.52-.43.95-.95.95Z"/>
          <path class="cls-6" d="m7.14,27.33c0-.31-.25-.56-.56-.56s-.56.25-.56.56.25.56.56.56.56-.25.56-.56Z"/>
          <path class="cls-6" d="m7.14,23.42c0-.31-.25-.56-.56-.56s-.56.25-.56.56.25.56.56.56.56-.25.56-.56Z"/>
          <path class="cls-9" d="m6.09,23.42c0-.31-.25-.56-.56-.56s-.56.25-.56.56.25.56.56.56.56-.25.56-.56Z"/>
          <path class="cls-9" d="m6.09,27.33c0-.31-.25-.56-.56-.56s-.56.25-.56.56.25.56.56.56.56-.25.56-.56Z"/>
        </g>
        <g>
          <path class="cls-11" d="m16.04,36.72h0c-4.6,0-8.36-3.76-8.36-8.36v-6.64c0-2.6,2.13-4.73,4.73-4.73h7.25c2.6,0,4.73,2.13,4.73,4.73v6.64c0,4.6-3.76,8.36-8.36,8.36Z"/>
          <path class="cls-6" d="m14.28,28.62h0c-.71,0-1.29-.58-1.29-1.29v-4.04c0-.71.58-1.29,1.29-1.29h0c.71,0,1.29.58,1.29,1.29v4.04c0,.71-.58,1.29-1.29,1.29Z"/>
          <path class="cls-6" d="m20.64,28.62h0c-.71,0-1.29-.58-1.29-1.29v-4.04c0-.71.58-1.29,1.29-1.29h0c.71,0,1.29.58,1.29,1.29v4.04c0,.71-.58,1.29-1.29,1.29Z"/>
          <path class="cls-1" d="m14.98,24.48h-3c-1.07,0-1.94-.87-1.94-1.94h0c0-2.22,1.81-4.03,4.03-4.03h.91c1.07,0,1.94.87,1.94,1.94v2.09c0,1.07-.87,1.94-1.94,1.94Z"/>
          <path class="cls-1" d="m22.98,24.48h-3c-1.07,0-1.94-.87-1.94-1.94v-2.09c0-1.07.87-1.94,1.94-1.94h1.57c1.85,0,3.36,1.51,3.36,3.36v.66c0,1.07-.87,1.94-1.94,1.94Z"/>
          <path class="cls-5" d="m21.64,23.54l-2.78-2.78c-.21-.21-.21-.56,0-.78h0c.21-.21.56-.21.78,0l2.78,2.78c.21.21.21.56,0,.78h0c-.21.21-.56.21-.78,0Z"/>
          <path class="cls-5" d="m22.94,21.6l-1.23-1.23c-.21-.21-.21-.56,0-.78h0c.21-.21.56-.21.78,0l1.23,1.23c.21.21.21.56,0,.78h0c-.21.21-.56.21-.78,0Z"/>
          <path class="cls-5" d="m13.83,23.54l-2.14-2.14c-.21-.21-.21-.56,0-.78h0c.21-.21.56-.21.78,0l2.14,2.14c.21.21.21.56,0,.78h0c-.21.21-.56.21-.78,0Z"/>
          <path class="cls-5" d="m15.13,21.6l-1.23-1.23c-.21-.21-.21-.56,0-.78h0c.21-.21.56-.21.78,0l1.23,1.23c.21.21.21.56,0,.78h0c-.21.21-.56.21-.78,0Z"/>
          <path class="cls-1" d="m21.96,29.08h-9.76c-.48,0-.88-.39-.88-.88h0c0-.48.39-.88.88-.88h9.76c.48,0,.88.39.88.88h0c0,.48-.39.88-.88.88Z"/>
          <path class="cls-6" d="m14,31.16h0c-.41,0-.75-.34-.75-.75v-1.95c0-.41.34-.75.75-.75h0c.41,0,.75.34.75.75v1.95c0,.41-.34.75-.75.75Z"/>
          <path class="cls-6" d="m19.84,31.16h0c-.41,0-.75-.34-.75-.75v-1.95c0-.41.34-.75.75-.75h0c.41,0,.75.34.75.75v1.95c0,.41-.34.75-.75.75Z"/>
          <path class="cls-6" d="m14.01,33.54c0,.62-.5,1.12-1.12,1.12s-1.12-.5-1.12-1.12.5-1.12,1.12-1.12,1.12.5,1.12,1.12Z"/>
          <path class="cls-6" d="m21.55,33.14c0,.4-.32.72-.72.72s-.72-.32-.72-.72.32-.72.72-.72.72.32.72.72Z"/>
          <path class="cls-2" d="m12.7,20.97c0,.36-.29.66-.66.66s-.66-.29-.66-.66.29-.66.66-.66.66.29.66.66Z"/>
          <circle class="cls-2" cx="14.33" cy="19.98" r=".65"/>
          <path class="cls-1" d="m20.3,33.31c0-1.47-1.47-2.67-3.27-2.67s-3.27,1.19-3.27,2.67,1.46,2.67,3.27,2.67,3.27-1.19,3.27-2.67Z"/>
          <path class="cls-2" d="m19.87,20.27c0,.36-.29.66-.66.66s-.66-.29-.66-.66.29-.66.66-.66.66.29.66.66Z"/>
          <path class="cls-2" d="m22.75,19.98c0,.36-.29.65-.65.65s-.65-.29-.65-.65.29-.65.65-.65.65.29.65.65Z"/>
          <path class="cls-1" d="m22.7,31.66h-12.56c-.36,0-.65-.29-.65-.65h0c0-.36.29-.65.65-.65h12.56c.36,0,.65.29.65.65h0c0,.36-.29.65-.65.65Z"/>
          <path class="cls-5" d="m19.99,31.66h-2.25c-.36,0-.65-.29-.65-.65h0c0-.36.29-.65.65-.65h2.25c.36,0,.65.29.65.65h0c0,.36-.29.65-.65.65Z"/>
          <path class="cls-5" d="m13.68,31.66h-.53c-.36,0-.65-.29-.65-.65h0c0-.36.29-.65.65-.65h.53c.36,0,.65.29.65.65h0c0,.36-.29.65-.65.65Z"/>
          <path class="cls-2" d="m20.64,31c0,.36-.29.65-.65.65s-.65-.29-.65-.65.29-.65.65-.65.65.29.65.65Z"/>
          <path class="cls-2" d="m14.51,31c0,.36-.29.65-.65.65s-.65-.29-.65-.65.29-.65.65-.65.65.29.65.65Z"/>
          <path class="cls-5" d="m18.56,34.22c0-.71-.73-1.28-1.64-1.28s-1.64.57-1.64,1.28.73,1.28,1.64,1.28,1.64-.57,1.64-1.28Z"/>
          <circle class="cls-5" cx="18.36" cy="32.92" r=".5"/>
        </g>
      </g>
      <g>
        <path class="cls-11" d="m12.95,1.96s-1.4-1.35-3.82.6c-.21.17-.17.51.09.6.65.22,1.7.87,2.68,2.72l1.05-3.91Z"/>
        <path class="cls-11" d="m11.43,3.88s-1.34-1.41-3.84.43c-.22.16-.19.5.06.6.64.25,1.66.94,2.55,2.83l1.22-3.86Z"/>
        <path class="cls-11" d="m19.21,4.05s1.71-.92.6-3.82c-.1-.25-.44-.31-.6-.1-.41.55-1.35,1.35-3.41,1.71l3.4,2.2Z"/>
        <g>
          <path class="cls-11" d="m12.04,1.82s7.56-.11,10.19-1.32c.36-.16.76.06.78.46.06,1.2-.01,3.23-1.09,4.11L12.04,1.82Z"/>
          <path class="cls-8" d="m21.01,5.32c-.85,0-1.54.69-1.54,1.54s.69,1.54,1.54,1.54,1.54-.69,1.54-1.54-.69-1.54-1.54-1.54Z"/>
          <path class="cls-4" d="m15.97,14.21h0c-3.06,0-5.56-2.5-5.56-5.56v-2.97c0-1.87,1.53-3.39,3.39-3.39h4.54c1.87,0,3.39,1.53,3.39,3.39v2.75c0,3.18-2.6,5.77-5.77,5.77Z"/>
          <path class="cls-11" d="m10.2,9.32h0c-.83,0-1.51-.68-1.51-1.51v-2.48c0-.83.68-1.51,1.51-1.51h0c.83,0,1.51.68,1.51,1.51v2.48c0,.83-.68,1.51-1.51,1.51Z"/>
          <path class="cls-11" d="m20.69,5.56h-8.65c-1.03,0-1.87-.84-1.87-1.87h0c0-1.03.84-1.87,1.87-1.87h8.65c1.03,0,1.87.84,1.87,1.87h0c0,1.03-.84,1.87-1.87,1.87Z"/>
          <g>
            <path class="cls-4" d="m12.52,6.86c0,.85-.55,1.54-1.4,1.54s-1.68-.69-1.68-1.54.69-1.54,1.54-1.54,1.54.69,1.54,1.54Z"/>
            <path class="cls-8" d="m11.77,6.86c0,.44-.36.8-.8.8s-.8-.36-.8-.8.36-.8.8-.8.8.36.8.8Z"/>
          </g>
          <path class="cls-8" d="m17.78,10.7h0c-.62,0-1.12-.51-1.12-1.12v-1.11c0-.62.51-1.12,1.12-1.12h0c.62,0,1.12.51,1.12,1.12v1.11c0,.62-.51,1.12-1.12,1.12Z"/>
          <rect class="cls-13" x="16.44" y="2.57" width="4.99" height="1.25" rx=".63" ry=".63"/>
          <path class="cls-2" d="m20.43,3.2c0-.35-.28-.63-.63-.63s-.63.28-.63.63.28.63.63.63.63-.28.63-.63Z"/>
          <rect class="cls-13" x="12.59" y="2.57" width="2.42" height="1.25" rx=".63" ry=".63"/>
          <path class="cls-1" d="m20.82,9.32h-7.17c-1.09,0-1.97-.89-1.97-1.97h0c0-1.09.89-1.97,1.97-1.97h7.17c1.09,0,1.97.89,1.97,1.97h0c0,1.09-.89,1.97-1.97,1.97Z"/>
          <path class="cls-5" d="m14.65,8.61c-.7,0-1.27-.57-1.27-1.27s.57-1.27,1.27-1.27h6.17c.7,0,1.27.57,1.27,1.27s-.57,1.27-1.27,1.27h-6.17Z"/>
          <path class="cls-11" d="m16.81,7.98h-2.36c-.35,0-.64-.29-.64-.64h0c0-.35.29-.64.64-.64h2.36c.35,0,.64.29.64.64h0c0,.35-.29.64-.64.64Z"/>
          <path class="cls-11" d="m21.55,7.98h-2.36c-.35,0-.64-.29-.64-.64h0c0-.35.29-.64.64-.64h2.36c.35,0,.64.29.64.64h0c0,.35-.29.64-.64.64Z"/>
          <path class="cls-2" d="m16.63,7.34c0,.35-.29.64-.64.64s-.64-.29-.64-.64.29-.64.64-.64.64.29.64.64Z"/>
          <path class="cls-2" d="m21.45,7.34c0,.35-.29.64-.64.64s-.64-.29-.64-.64.29-.64.64-.64.64.29.64.64Z"/>
        </g>
        <path class="cls-11" d="m15.92,17.55c3.66,0,6.7-2.71,7.2-6.24.08-.55-.36-1.04-.91-1.04h-12.58c-.55,0-.99.49-.91,1.04.5,3.53,3.53,6.24,7.2,6.24Z"/>
        <path class="cls-2" d="m17.04,15.63c2.18,0,3.99-1.62,4.29-3.72.05-.33-.21-.62-.54-.62h-7.5c-.33,0-.59.29-.54.62.3,2.1,2.11,3.72,4.29,3.72Z"/>
        <path class="cls-6" d="m17.04,16.2c2.18,0,3.99-1.62,4.29-3.72.05-.33-.21-.62-.54-.62h-7.5c-.33,0-.59.29-.54.62.3,2.1,2.11,3.72,4.29,3.72Z"/>
        <circle class="cls-11" cx="15.17" cy="13.01" r=".45"/>
        <path class="cls-11" d="m16.98,13.01c0,.25-.2.45-.45.45s-.45-.2-.45-.45.2-.45.45-.45.45.2.45.45Z"/>
        <circle class="cls-11" cx="17.88" cy="13.01" r=".45"/>
        <path class="cls-11" d="m19.69,13.01c0,.25-.2.45-.45.45s-.45-.2-.45-.45.2-.45.45-.45.45.2.45.45Z"/>
        <path class="cls-11" d="m16.98,14.38c0,.25-.2.45-.45.45s-.45-.2-.45-.45.2-.45.45-.45.45.2.45.45Z"/>
        <path class="cls-11" d="m18.33,14.38c0,.25-.2.45-.45.45s-.45-.2-.45-.45.2-.45.45-.45.45.2.45.45Z"/>
        <path class="cls-6" d="m11.3,12.09h-1.1c-.22,0-.4-.18-.4-.4h0c0-.22.18-.4.4-.4h1.1c.22,0,.4.18.4.4h0c0,.22-.18.4-.4.4Z"/>
        <path class="cls-6" d="m11.59,13.91h-.39c-.25,0-.45-.2-.45-.45h0c0-.25.2-.45.45-.45h.39c.25,0,.45.2.45.45h0c0,.25-.2.45-.45.45Z"/>
      </g>
      <g>
        <path class="cls-11" d="m21.74,8.46h0c-.53.09-.89.6-.79,1.13l.57,3.23c.09.53.6.89,1.13.79h0c.53-.09.89-.6.79-1.13l-.57-3.23c-.09-.53-.6-.89-1.13-.79Z"/>
        <path class="cls-11" d="m24.88,10.84h0c-.09-.53-.6-.89-1.13-.79l-3.23.57c-.53.09-.89.6-.79,1.13h0c.09.53.6.89,1.13.79l3.23-.57c.53-.09.89-.6.79-1.13Z"/>
        <path class="cls-3" d="m34.44,6.41l-5.07.89c-.88.15-1.47,1-1.32,1.88h0c.15.88,1,1.47,1.88,1.32l5.07-.89c.88-.15,1.47-1,1.32-1.88h0c-.15-.88-1-1.47-1.88-1.32Z"/>
        <path class="cls-2" d="m31.55,6.92l-.54.09c-.29.05-.48.32-.43.61h0c.05.29.32.48.61.43l.54-.09c.29-.05.48-.32.43-.61h0c-.05-.29-.32-.48-.61-.43Z"/>
        <path class="cls-2" d="m32.9,6.68h0c-.29.05-.48.32-.43.61h0c.05.29.32.48.61.43h0c.29-.05.48-.32.43-.61h0c-.05-.29-.32-.48-.61-.43Z"/>
        <path class="cls-11" d="m36.66,7.08l-8.93,1.56c-.76.13-1.27.86-1.14,1.62h0c.13.76.86,1.27,1.62,1.14l8.93-1.56c.76-.13,1.27-.86,1.14-1.62h0c-.13-.76-.86-1.27-1.62-1.14Z"/>
        <path class="cls-11" d="m29.22,9.46h0c-.57.1-1.12-.29-1.22-.86h0c-.1-.57.29-1.12.86-1.22h0c.57-.1,1.12.29,1.22.86h0c.1.57-.29,1.12-.86,1.22Z"/>
        <path class="cls-11" d="m35.74,8.32h0c-.57.1-1.12-.29-1.22-.86h0c-.1-.57.29-1.12.86-1.22h0c.57-.1,1.12.29,1.22.86h0c.1.57-.29,1.12-.86,1.22Z"/>
        <path class="cls-11" d="m28.63,20.91l-13.62,2.38c-1.31.23-2.58-.66-2.81-1.97l-.49-2.81c-.5-2.86,1.43-5.61,4.29-6.11l10.81-1.89c2.86-.5,5.61,1.43,6.11,4.29h0c.5,2.86-1.43,5.61-4.29,6.11Z"/>
        <path class="cls-11" d="m39.05,9.07h0c-.91.16-1.53,1.04-1.37,1.95l.72,4.09c.16.91,1.04,1.53,1.95,1.37h0c.91-.16,1.53-1.04,1.37-1.95l-.72-4.09c-.16-.91-1.04-1.53-1.95-1.37Z"/>
        <path class="cls-2" d="m39.72,16.37l-19.49,3.41-.87-4.96c-.31-1.79.88-3.5,2.67-3.81l15.43-2.7c.45-.08.88.22.96.67l1.29,7.39Z"/>
        <path class="cls-11" d="m40.15,17.39l-19.04,3.33-.87-4.96c-.31-1.79.88-3.49,2.67-3.81l13.79-2.41c1.11-.19,2.17.55,2.37,1.66l1.08,6.19Z"/>
        <path class="cls-5" d="m40.09,17.12l-14.3,2.5-.87-4.96c-.31-1.79.88-3.49,2.67-3.81l10.25-1.79c.45-.08.88.22.96.67l1.29,7.39Z"/>
        <path class="cls-11" d="m37.49,15.76l-6.63,1.16c-1.26.22-2.11,1.43-1.89,2.69h0c.22,1.26,1.43,2.11,2.69,1.89l6.64-1.16c1.26-.22,2.11-1.43,1.89-2.69h0c-.22-1.26-1.43-2.11-2.69-1.89Z"/>
        <path class="cls-11" d="m24.12,13.19h0c-1.89-.23-3.63,1.12-3.86,3.01l-.38,3.06c-.23,1.89,1.12,3.63,3.01,3.86h0c1.89.23,3.63-1.12,3.86-3.01l.38-3.06c.23-1.89-1.12-3.63-3.01-3.86Z"/>
        <path class="cls-11" d="m30.47,19.47l-5.78,1.01c-2.14.37-4.19-1.07-4.57-3.21h0c-.37-2.14,1.07-4.19,3.21-4.57l5.78-1.01c2.14-.37,4.19,1.07,4.57,3.21h0c.37,2.14-1.07,4.2-3.21,4.57Z"/>
        <path class="cls-6" d="m30.29,18.17l-2.25.39c-.65.11-1.27-.32-1.38-.97h0c-.11-.65.32-1.27.97-1.38l2.25-.39c.65-.11,1.27.32,1.38.97h0c.11.65-.32,1.27-.97,1.38Z"/>
        <path class="cls-11" d="m22.81,13.42h0c-1.89-.23-3.63,1.12-3.86,3.01l-.38,3.06c-.23,1.89,1.12,3.63,3.01,3.86h0c1.89.23,3.63-1.12,3.86-3.01l.38-3.06c.23-1.89-1.12-3.63-3.01-3.86Z"/>
        <path class="cls-6" d="m22.55,14.56h0c-1.27-.16-2.46.9-2.64,2.34l-.29,2.34c-.18,1.45.72,2.76,1.99,2.92h0c1.27.16,2.46-.9,2.64-2.34l.29-2.34c.18-1.45-.72-2.76-1.99-2.92Z"/>
        <path class="cls-2" d="m19.73,19.95l.29-2.34c.18-1.45,1.37-2.5,2.64-2.34.91.11,1.61.81,1.88,1.72-.05-1.24-.88-2.29-2.01-2.43-1.27-.16-2.46.9-2.64,2.34l-.29,2.34c-.05.42,0,.82.11,1.2,0-.16,0-.32.02-.49Z"/>
        <path class="cls-11" d="m23.19,16.74c-.08-.47-.53-.79-1.01-.71-.47.08-.79.53-.71,1.01.08.47.53.79,1.01.71s.79-.53.71-1.01Z"/>
        <path class="cls-11" d="m22.6,19.97c-.07-.41-.46-.68-.86-.61-.41.07-.68.46-.61.86.07.41.46.68.86.61s.68-.46.61-.86Z"/>
        <path class="cls-2" d="m27.65,16.49h0c-.5.09-.84.57-.75,1.07h0c.09.5.57.84,1.07.75h0c.5-.09.84-.57.75-1.07h0c-.09-.5-.57-.84-1.07-.75Z"/>
        <g>
          <path class="cls-5" d="m37.16,16.91l-4.52.79c-1.71.3-2.86,1.94-2.56,3.65h0c.3,1.71,1.94,2.86,3.65,2.56l3.4-.6c1.71-.3,2.86-1.94,2.56-3.65l-.2-1.12c-.19-1.09-1.24-1.83-2.33-1.64Z"/>
          <path class="cls-1" d="m35.81,18.43l-2.51.44c-1.02.18-1.72,1.16-1.54,2.19h0c.18,1.02,1.16,1.72,2.19,1.54l2.51-.44c1.02-.18,1.72-1.16,1.54-2.19h0c-.18-1.02-1.16-1.72-2.19-1.54Z"/>
          <path class="cls-2" d="m37.41,18.64c-.12-.68-.77-1.14-1.45-1.02-.68.12-1.14.77-1.02,1.45.12.68.77,1.14,1.45,1.02.68-.12,1.14-.77,1.02-1.45Z"/>
          <path class="cls-2" d="m33.85,21.42c-.08-.47-.53-.78-1-.7-.47.08-.78.53-.7,1s.53.78,1,.7c.47-.08.78-.53.7-1Z"/>
        </g>
        <path class="cls-6" d="m29.36,13.45l-4.02.7c-.27.05-.45.31-.4.58h0c.05.27.31.45.58.4l4.02-.7c.27-.05.45-.31.4-.58h0c-.05-.27-.31-.45-.58-.4Z"/>
        <path class="cls-6" d="m14,16.53h0c-.83.15-1.39.94-1.25,1.77l.39,2.22c.15.83.94,1.39,1.77,1.25h0c.83-.15,1.39-.94,1.25-1.77l-.39-2.22c-.15-.83-.94-1.39-1.77-1.25Z"/>
        <path class="cls-6" d="m16.33,13.52h0c-.7.12-1.16.79-1.04,1.48h0c.12.69.79,1.16,1.48,1.04h0c.69-.12,1.16-.79,1.04-1.48h0c-.12-.7-.79-1.16-1.48-1.04Z"/>
        <path class="cls-11" d="m40.94,10.09h0c-.5.09-.84.57-.75,1.07l.27,1.52c.09.5.57.84,1.07.75h0c.5-.09.84-.57.75-1.07l-.27-1.52c-.09-.5-.57-.84-1.07-.75Z"/>
        <path class="cls-6" d="m40.5,13.1h0c-.3.05-.59-.15-.64-.45l-.31-1.75c-.05-.3.15-.59.45-.64h0c.3-.05.59.15.64.45l.31,1.75c.05.3-.15.59-.45.64Z"/>
        <path class="cls-6" d="m40.77,14.66h0c-.25.04-.41.28-.37.53h0c.04.25.28.41.53.37h0c.25-.04.41-.28.37-.53h0c-.04-.25-.28-.41-.53-.37Z"/>
        <path class="cls-2" d="m40.68,10.93h0c-.37.07-.62.42-.56.79h0c.07.37.42.62.79.56h0c.37-.07.62-.42.56-.79h0c-.07-.37-.42-.62-.79-.56Z"/>
        <g>
          <path class="cls-11" d="m30.81,13.79h0c-.18-1.03.52-2.01,1.55-2.18l3.11-.53c1.03-.18,2.01.52,2.18,1.55h0c.18,1.03-.52,2.01-1.55,2.18l-3.11.53c-1.03.18-2.01-.52-2.18-1.55Z"/>
          <path class="cls-3" d="m33.22,13.37h0c-.12-.7.35-1.37,1.05-1.49l1.03-.18c.7-.12,1.37.35,1.49,1.05h0c.12.7-.35,1.37-1.05,1.49l-1.03.18c-.7.12-1.37-.35-1.49-1.05Z"/>
          <path class="cls-2" d="m35.98,13.74c.42-.24.57-.78.33-1.2-.24-.42-.78-.57-1.2-.33-.42.24-.57.78-.33,1.2.24.42.78.57,1.2.33Z"/>
          <path class="cls-6" d="m32.36,13.9c.22-.13.3-.41.17-.64-.13-.22-.41-.3-.64-.17-.22.13-.3.41-.17.64.13.22.41.3.64.17Z"/>
        </g>
      </g>
      <g>
        <path class="cls-7" d="m18.73,20.7l-.51.69-.07.09-1.7,2.32c-.78,1.06-.54,2.57.52,3.35h0c1.06.78,2.57.54,3.35-.52l1.7-2.32.07-.09.51-.69c.78-1.06.54-2.57-.52-3.35h0c-1.06-.78-2.57-.54-3.35.52Z"/>
        <path class="cls-1" d="m19.91,19.08l-1.02,1.4c-.78,1.06-.54,2.57.52,3.35h0c1.06.78,2.57.54,3.35-.52l1.02-1.4c.78-1.06.54-2.57-.52-3.35h0c-1.06-.78-2.57-.54-3.35.52Z"/>
      </g>
      <g>
        <path class="cls-5" d="m26.97,19.32l-3.67.64c-.95.17-1.87-.48-2.04-1.43h0c-.17-.95.48-1.87,1.43-2.04l3.67-.64c.95-.17,1.87.48,2.04,1.43h0c.17.95-.48,1.87-1.43,2.04Z"/>
        <path class="cls-5" d="m23.37,16.37l-.33.06c-2.22.39-3.71,2.52-3.32,4.74h0c.39,2.22,2.52,3.71,4.74,3.33l.33-.06c2.22-.39,3.71-2.52,3.32-4.74h0c-.39-2.22-2.52-3.71-4.74-3.33Z"/>
        <path class="cls-1" d="m25.15,23.5h0c-1.37.24-2.7-.69-2.94-2.06l-.25-1.4c-.24-1.37.69-2.7,2.06-2.94h0c1.37-.24,2.7.69,2.94,2.06l.25,1.4c.24,1.37-.69,2.7-2.06,2.94Z"/>
        <path class="cls-2" d="m24.59,20.3h0c-.76.13-1.49-.38-1.62-1.14h0c-.13-.76.38-1.49,1.14-1.62h0c.76-.13,1.49.38,1.62,1.14h0c.13.76-.38,1.49-1.14,1.62Z"/>
        <path class="cls-2" d="m23.19,22.51h0c-.51.09-1-.26-1.09-.77h0c-.09-.51.26-1,.77-1.09h0c.51-.09,1,.26,1.09.77h0c.09.51-.26,1-.77,1.09Z"/>
      </g>
      <g>
        <path id="ArmOne-2" data-name="ArmOne" class="cls-7" d="m20.1,26.79h0c-.86,1-2.38,1.11-3.38.25l-8.5-7.33c-1-.86-1.11-2.38-.25-3.38h0c.86-1,2.38-1.11,3.38-.25l8.5,7.33c1,.86,1.11,2.38.25,3.38Z"/>
        <path class="cls-11" d="m17.2,24.25h0c-.19.22-.52.24-.74.05l-2.35-2.03c-.22-.19-.24-.52-.05-.74h0c.19-.22.52-.24.74-.05l2.35,2.03c.22.19.24.52.05.74Z"/>
        <path class="cls-2" d="m15.53,16.76c-1.92-1.65-4.81-1.44-6.46.48s-1.44,4.81.48,6.46c1.92,1.65,4.1.83,5.75-1.09,1.65-1.92,2.15-4.2.23-5.85Z"/>
        <path class="cls-1" d="m14.2,15.21c-2.04-1.76-5.13-1.54-6.89.51-1.76,2.04-1.54,5.13.51,6.89,2.04,1.76,4.37.88,6.13-1.16s2.29-4.48.25-6.24Z"/>
        <path class="cls-5" d="m12.72,16.77c-1.6-1.38-3.88-1.37-5.08.02-1.2,1.39-.88,3.65.72,5.03,1.6,1.38,3.28.86,4.49-.54,1.2-1.39,1.47-3.13-.13-4.52Z"/>
        <path class="cls-3" d="m17.88,23.46c-.44-.38-1.09-.33-1.47.11-.38.44-.33,1.09.11,1.47.44.38,1.09.33,1.47-.11.38-.44.33-1.09-.11-1.47Z"/>
        <g>
          <path class="cls-1" d="m11.87,21.05h0c-.14.01-.26-.09-.27-.23l-.2-2.68c-.01-.14.09-.26.23-.27h0c.14-.01.26.09.27.23l.2,2.68c.01.14-.09.26-.23.27Z"/>
          <path class="cls-1" d="m10.12,20.33h0c-.14.01-.26-.09-.27-.23l-.2-2.68c0-.14.09-.26.23-.27h0c.14-.01.26.09.27.23l.2,2.68c.01.14-.09.26-.23.27Z"/>
          <path class="cls-1" d="m9.04,21.53h0c-.14,0-.26-.09-.27-.23l-.2-2.68c0-.14.09-.26.23-.27h0c.14-.01.26.09.27.23l.2,2.68c.01.14-.09.26-.23.27Z"/>
        </g>
        <path class="cls-2" d="m9.83,16.8c.78.67.87,1.85.19,2.63-.67.78-1.85.87-2.63.19-.78-.67-.87-1.85-.19-2.63.67-.78,1.85-.87,2.63-.19Z"/>
        <path class="cls-2" d="m11.87,17.17c-.26-.22-.29-.62-.06-.87.22-.26.62-.29.87-.06.26.22.29.62.06.87-.22.26-.62.29-.87.06Z"/>
      </g>
      <g>
        <path class="cls-7" d="m8.06,46.24h0c1.96.65,4.1-.42,4.75-2.38l2.72-8.21c.65-1.96-.42-4.1-2.38-4.75h0c-1.96-.65-4.1.42-4.75,2.38l-2.72,8.21c-.65,1.96.42,4.1,2.38,4.75Z"/>
        <path class="cls-1" d="m6.16,45.61h0c1.96.65,4.1-.42,4.75-2.38l2.72-8.21c.65-1.96-.42-4.1-2.38-4.75h0c-1.96-.65-4.1.42-4.75,2.38l-2.72,8.21c-.65,1.96.42,4.1,2.38,4.75Z"/>
        <path class="cls-2" d="m5.97,44.68h0c1.48.49,3.1-.32,3.59-1.8l2.72-8.19c.49-1.48-.32-3.1-1.8-3.59h0c-1.48-.49-3.1.32-3.59,1.8l-2.72,8.19c-.49,1.48.32,3.1,1.8,3.59Z"/>
        <path class="cls-5" d="m5.14,44.4h0c1.48.49,3.1-.32,3.59-1.8l2.72-8.19c.49-1.48-.32-3.1-1.8-3.59h0c-1.48-.49-3.1.32-3.59,1.8l-2.72,8.19c-.49,1.48.32,3.1,1.8,3.59Z"/>
        <path class="cls-7" d="m10.86,35.22l2.17.72c.52.17,1.09-.11,1.26-.63h0c.17-.52-.11-1.09-.63-1.26l-2.17-.72c-.52-.17-1.09.11-1.26.63h0c-.17.52.11,1.09.63,1.26Z"/>
        <path class="cls-7" d="m8.3,42.93l2.17.72c.52.17,1.09-.11,1.26-.63h0c.17-.52-.11-1.09-.63-1.26l-2.17-.72c-.52-.17-1.09.11-1.26.63h0c-.17.52.11,1.09.63,1.26Z"/>
        <path class="cls-6" d="m10.71,43.73h0c.39.13.81-.08.94-.47l2.72-8.2c.13-.39-.08-.81-.47-.94h0c-.39-.13-.81.08-.94.47l-2.72,8.2c-.13.39.08.81.47.94Z"/>
        <path class="cls-9" d="m12.58,38.09h0c.39.13.81-.08.94-.47l.39-1.19c.13-.39-.08-.81-.47-.94h0c-.39-.13-.81.08-.94.47l-.39,1.19c-.13.39.08.81.47.94Z"/>
        <path class="cls-9" d="m11.41,41.61h0c.39.13.81-.08.94-.47l.11-.34c.13-.39-.08-.81-.47-.94h0c-.39-.13-.81.08-.94.47l-.11.34c-.13.39.08.81.47.94Z"/>
        <g>
          <path class="cls-1" d="m9.67,37.83h0c-.06-.12-.21-.17-.33-.11l-2.4,1.21c-.12.06-.17.21-.11.33h0c.06.12.21.17.33.11l2.4-1.21c.12-.06.17-.21.11-.33Z"/>
          <path class="cls-1" d="m8.16,36.7h0c-.06-.12-.21-.17-.33-.11l-2.4,1.21c-.12.06-.17.21-.11.33h0c.06.12.21.17.33.11l2.4-1.21c.12-.06.17-.21.11-.33Z"/>
          <path class="cls-1" d="m8.63,35.15h0c-.06-.12-.21-.17-.33-.11l-2.4,1.21c-.12.06-.17.21-.11.33h0c.06.12.21.17.33.11l2.4-1.21c.12-.06.17-.21.11-.33Z"/>
        </g>
        <path class="cls-2" d="m8.77,32.42c.11-.33-.07-.68-.39-.78-.32-.11-.68.07-.78.39-.11.32.07.68.39.78.32.11.68-.07.78-.39Z"/>
      </g>
    </g>
  </g>
</svg>