<?xml version="1.0" encoding="UTF-8"?>
<svg id="Layer_2" data-name="Layer 2" xmlns="http://www.w3.org/2000/svg" viewBox="0 0 64.83 57.21">
  <defs>
    <style>
      .cls-1 {
        fill: #ffb800;
      }

      .cls-2 {
        fill: #a20025;
      }

      .cls-3 {
        fill: #fff;
      }

      .cls-4 {
        fill: #7cff00;
      }

      .cls-5 {
        fill: #ffd285;
      }

      .cls-6 {
        fill: #fd003a;
      }

      .cls-7 {
        fill: #4d4d4d;
      }

      .cls-8 {
        fill: #333;
      }

      .cls-9 {
        fill: #ff6e4c;
      }

      .cls-10 {
        fill: #999;
      }

      .cls-11 {
        fill: #434343;
      }

      .cls-12 {
        fill: #1a1a1a;
      }

      .cls-13 {
        fill: #74001b;
      }

      .cls-14 {
        fill: #666;
      }
    </style>
  </defs>
  <g id="attack">
    <g id="attack2">
      <g>
        <g>
          <path class="cls-12" d="m29.94,11.99l-.84.15-.11.02-5.07.92c-1.3.24-2.17,1.49-1.93,2.79h0c.24,1.3,1.49,2.17,2.79,1.93l5.07-.92.11-.02.84-.15c1.3-.24,2.17-1.49,1.93-2.79h0c-.24-1.3-1.49-2.17-2.79-1.93Z"/>
          <path class="cls-13" d="m31.91,11.63l-1.7.31c-1.3.24-2.17,1.49-1.93,2.79h0c.24,1.3,1.49,2.17,2.79,1.93l1.7-.31c1.3-.24,2.17-1.49,1.93-2.79h0c-.24-1.3-1.49-2.17-2.79-1.93Z"/>
        </g>
        <g>
          <path id="ArmOne" class="cls-12" d="m25.49,15.56h0c0,1.32-1.07,2.4-2.39,2.41l-11.22.05c-1.32,0-2.4-1.07-2.41-2.39h0c0-1.32,1.07-2.4,2.39-2.41l11.22-.05c1.32,0,2.4,1.07,2.41,2.39Z"/>
          <path class="cls-7" d="m22.29,15.54h0c0,.29-.23.52-.52.52h-3.1c-.29.01-.52-.22-.52-.51h0c0-.29.23-.52.52-.52h3.1c.29-.01.52.22.52.51Z"/>
          <path class="cls-3" d="m15.45,10.99c-2.53,0-4.57,2.07-4.56,4.6,0,2.53,2.07,4.57,4.6,4.56,2.53,0,3.63-2.06,3.62-4.59,0-2.53-1.13-4.58-3.66-4.57Z"/>
          <path class="cls-2" d="m13.44,10.69c-2.7.01-4.88,2.21-4.87,4.91.01,2.7,2.21,4.88,4.91,4.87,2.7-.01,3.88-2.2,3.87-4.9-.01-2.7-1.21-4.88-3.91-4.87Z"/>
          <path class="cls-6" d="m12.94,12.03c-1.67,0-3.02,1.37-3.01,3.04s1.37,3.02,3.04,3.01c1.67,0,3.02-1.37,3.01-3.04,0-1.67-1.37-3.02-3.04-3.01Z"/>
          <path class="cls-12" d="m12.94,12.55c-1.67,0-3.02,1.37-3.01,3.04s1.37,3.02,3.04,3.01c1.67,0,3.02-1.37,3.01-3.04,0-1.67-1.37-3.02-3.04-3.01Z"/>
          <path class="cls-7" d="m12.95,13.66c-1.06,0-1.92.87-1.91,1.93,0,1.06.87,1.92,1.93,1.91,1.06,0,1.92-.87,1.91-1.93,0-1.06-.87-1.92-1.93-1.91Z"/>
          <path class="cls-12" d="m12.95,14.75c-.46,0-.83.38-.83.84,0,.46.38.83.84.83s.83-.38.83-.84c0-.46-.38-.83-.84-.83Z"/>
        </g>
      </g>
      <g>
        <g>
          <path class="cls-8" d="m25.24,32.56l1.94-1.21c.47-.29.61-.91.32-1.38h0c-.29-.47-.91-.61-1.38-.32l-1.94,1.21c-.47.29-.61.91-.32,1.38h0c.29.47.91.61,1.38.32Z"/>
          <path class="cls-8" d="m29.55,39.45l1.94-1.21c.47-.29.61-.91.32-1.38h0c-.29-.47-.91-.61-1.38-.32l-1.94,1.21c-.47.29-.61.91-.32,1.38h0c.29.47.91.61,1.38.32Z"/>
          <path class="cls-7" d="m31.7,38.1h0c.35-.22.45-.68.24-1.03l-4.58-7.32c-.22-.35-.68-.45-1.03-.24h0c-.35.22-.45.68-.24,1.03l4.58,7.32c.22.35.68.45,1.03.24Z"/>
          <path class="cls-10" d="m28.55,33.07h0c.35-.22.45-.68.24-1.03l-.66-1.06c-.22-.35-.68-.45-1.03-.24h0c-.35.22-.45.68-.24,1.03l.67,1.06c.22.35.68.45,1.03.24Z"/>
          <path class="cls-10" d="m30.52,36.21h0c.35-.22.45-.68.24-1.03l-.19-.31c-.22-.35-.68-.45-1.03-.24h0c-.35.22-.45.68-.24,1.03l.19.31c.22.35.68.45,1.03.24Z"/>
        </g>
        <path class="cls-6" d="m29.35,42.34h0c-1.32.83-3.08.42-3.91-.9l-4.58-7.31c-.83-1.32-.42-3.08.9-3.91h0c1.32-.83,3.08-.42,3.91.9l4.58,7.31c.83,1.32.42,3.08-.9,3.91Z"/>
        <path class="cls-2" d="m28.23,44.01h0c-1.75,1.1-4.08.56-5.18-1.19l-4.59-7.33c-1.1-1.75-.56-4.08,1.19-5.18h0c1.75-1.1,4.08-.56,5.18,1.19l4.59,7.33c1.1,1.75.56,4.08-1.19,5.18Z"/>
        <path class="cls-12" d="m26.94,44.82h0c-1.75,1.1-4.08.56-5.18-1.19l-4.59-7.33c-1.1-1.75-.56-4.08,1.19-5.18h0c1.75-1.1,4.08-.56,5.18,1.19l4.59,7.33c1.1,1.75.56,4.08-1.19,5.18Z"/>
        <path class="cls-7" d="m24.54,44.23h0c-.35.22-.81.11-1.03-.24l-3.36-5.37c-.22-.35-.11-.81.24-1.03h0c.35-.22.81-.11,1.03.24l3.36,5.37c.22.35.11.81-.24,1.03Z"/>
        <path class="cls-10" d="m21.84,39.92h0c-.35.22-.81.11-1.03-.24l-.67-1.06c-.22-.35-.11-.81.24-1.03h0c.35-.22.81-.11,1.03.24l.67,1.06c.22.35.11.81-.24,1.03Z"/>
        <path class="cls-10" d="m23.81,43.06h0c-.35.22-.81.11-1.03-.24l-.19-.31c-.22-.35-.11-.81.24-1.03h0c.35-.22.81-.11,1.03.24l.19.31c.22.35.11.81-.24,1.03Z"/>
        <path class="cls-7" d="m27.39,42.07h0c-.35.22-.81.11-1.03-.24l-3.21-5.13c-.22-.35-.11-.81.24-1.03h0c.35-.22.81-.11,1.03.24l3.21,5.13c.22.35.11.81-.24,1.03Z"/>
        <path class="cls-10" d="m25.61,39.22h0c-.35.22-.81.11-1.03-.24l-.66-1.06c-.22-.35-.11-.81.24-1.03h0c.35-.22.81-.11,1.03.24l.67,1.06c.22.35.11.81-.24,1.03Z"/>
        <path class="cls-10" d="m27.08,41.58h0c-.35.22-.81.11-1.03-.24l-.19-.31c-.22-.35-.11-.81.24-1.03h0c.35-.22.81-.11,1.03.24l.19.31c.22.35.11.81-.24,1.03Z"/>
        <path class="cls-3" d="m24.07,30.93c-.18-.29-.09-.67.2-.85s.67-.09.85.2c.18.29.09.67-.2.85s-.67.09-.85-.2Z"/>
        <path class="cls-7" d="m22.24,32.76c-.71-1.13-2.2-1.47-3.32-.76-1.13.71-1.47,2.2-.76,3.32s2.2,1.47,3.32.76c1.13-.71,1.47-2.2.76-3.32Z"/>
        <path class="cls-12" d="m21.29,33.35c-.38-.61-1.18-.79-1.79-.41-.61.38-.79,1.18-.41,1.79s1.18.79,1.79.41c.61-.38.79-1.18.41-1.79Z"/>
        <path class="cls-3" d="m29.45,39.53c-.18-.29-.09-.67.2-.85s.67-.09.85.2.09.67-.2.85c-.29.18-.67.09-.85-.2Z"/>
      </g>
      <g>
        <g id="ShinTwo">
          <path class="cls-12" d="m23.78,55.42h0c-1.26-.21-2.12-1.42-1.91-2.68l1.7-10.2c.21-1.26,1.42-2.12,2.68-1.91h0c1.26.21,2.12,1.42,1.91,2.68l-1.7,10.2c-.21,1.26-1.42,2.12-2.68,1.91Z"/>
        </g>
        <path class="cls-11" d="m26.98,43.12c.1-.62-.31-1.2-.93-1.3-.62-.1-1.2.31-1.3.93-.1.62.31,1.2.93,1.3.62.1,1.2-.31,1.3-.93Z"/>
      </g>
      <g>
        <g id="ShinTwo-2" data-name="ShinTwo">
          <path class="cls-8" d="m5.16,55.31h0c-1.22-.4-1.88-1.72-1.48-2.94l3.24-9.82c.4-1.22,1.72-1.88,2.94-1.48h0c1.22.4,1.88,1.72,1.48,2.94l-3.24,9.82c-.4,1.22-1.72,1.88-2.94,1.48Z"/>
        </g>
        <path class="cls-7" d="m5.28,53.28h0c-.28-.09-.43-.39-.34-.67l3.27-9.9c.09-.28.39-.43.67-.34h0c.28.09.43.39.34.67l-3.27,9.9c-.09.28-.39.43-.67.34Z"/>
        <path class="cls-3" d="m7.47,46.63h0c-.28-.09-.43-.39-.34-.67l.56-1.69c.09-.28.39-.43.67-.34h0c.28.09.43.39.34.67l-.56,1.69c-.09.28-.39.43-.67.34Z"/>
        <path class="cls-3" d="m5.94,51.18h0c-.29-.1-.45-.41-.35-.7l.29-.89c.1-.29.41-.45.7-.35h0c.29.1.45.41.35.7l-.29.89c-.1.29-.41.45-.7.35Z"/>
      </g>
      <g>
        <path class="cls-6" d="m28.99,56.15c0-2.9-2.35-5.06-5.25-5.06s-5.25,2.16-5.25,5.06h10.5Z"/>
        <path class="cls-2" d="m26.96,56.15c.12-.34.19-.71.19-1.09,0-1.88-1.53-3.41-3.41-3.41s-3.41,1.53-3.41,3.41c0,.38.08.75.19,1.09h6.44Z"/>
        <path class="cls-12" d="m19.56,55.06h8.37c.59,0,1.06.48,1.06,1.06v.03c0,.59-.48,1.06-1.06,1.06h-8.37c-.59,0-1.06-.48-1.06-1.06v-.03c0-.59.48-1.06,1.06-1.06Z"/>
        <circle class="cls-3" cx="25.97" cy="53.47" r="1.24"/>
        <path class="cls-3" d="m23.33,52.24c0-.35.29-.64.64-.64s.64.29.64.64-.29.64-.64.64-.64-.29-.64-.64Z"/>
        <path class="cls-7" d="m20.33,55.73h0c-.38,0-.69-.31-.69-.69h0c0-.38.31-.69.69-.69h0c.38,0,.69.31.69.69h0c0,.38-.31.69-.69.69Z"/>
        <path class="cls-7" d="m27.38,55.73h0c-.38,0-.69-.31-.69-.69h0c0-.38.31-.69.69-.69h0c.38,0,.69.31.69.69h0c0,.38-.31.69-.69.69Z"/>
        <path class="cls-7" d="m25.03,55.73h0c-.38,0-.69-.31-.69-.69h0c0-.38.31-.69.69-.69h0c.38,0,.69.31.69.69h0c0,.38-.31.69-.69.69Z"/>
        <path class="cls-7" d="m22.68,55.73h0c-.38,0-.69-.31-.69-.69h0c0-.38.31-.69.69-.69h0c.38,0,.69.31.69.69h0c0,.38-.31.69-.69.69Z"/>
      </g>
      <g>
        <path class="cls-6" d="m11.43,56.15c0-2.9-2.35-5.06-5.25-5.06s-5.25,2.16-5.25,5.06h10.5Z"/>
        <path class="cls-2" d="m9.4,56.15c.12-.34.19-.71.19-1.09,0-1.88-1.53-3.41-3.41-3.41s-3.41,1.53-3.41,3.41c0,.38.08.75.19,1.09h6.44Z"/>
        <path class="cls-12" d="m2,55.06h8.37c.59,0,1.06.48,1.06,1.06v.03c0,.59-.48,1.06-1.06,1.06H2c-.59,0-1.06-.48-1.06-1.06v-.03c0-.59.48-1.06,1.06-1.06Z"/>
        <circle class="cls-3" cx="8.41" cy="53.47" r="1.24"/>
        <path class="cls-3" d="m5.77,52.24c0-.35.29-.64.64-.64s.64.29.64.64-.29.64-.64.64-.64-.29-.64-.64Z"/>
        <path class="cls-7" d="m2.77,55.73h0c-.38,0-.69-.31-.69-.69h0c0-.38.31-.69.69-.69h0c.38,0,.69.31.69.69h0c0,.38-.31.69-.69.69Z"/>
        <path class="cls-7" d="m9.82,55.73h0c-.38,0-.69-.31-.69-.69h0c0-.38.31-.69.69-.69h0c.38,0,.69.31.69.69h0c0,.38-.31.69-.69.69Z"/>
        <path class="cls-7" d="m7.47,55.73h0c-.38,0-.69-.31-.69-.69h0c0-.38.31-.69.69-.69h0c.38,0,.69.31.69.69h0c0,.38-.31.69-.69.69Z"/>
        <path class="cls-7" d="m5.12,55.73h0c-.38,0-.69-.31-.69-.69h0c0-.38.31-.69.69-.69h0c.38,0,.69.31.69.69h0c0,.38-.31.69-.69.69Z"/>
      </g>
      <g>
        <path class="cls-12" d="m7.11,20.29c-.17,0-.33-.08-.42-.24-.12-.2-3.04-4.95-.99-7.76,1.55-2.13,5.47-2.43,11.64-.89.27.07.43.34.36.61-.07.27-.34.43-.61.36-5.66-1.41-9.32-1.23-10.59.51-1.65,2.26,1.01,6.6,1.03,6.64.15.23.07.54-.16.69-.08.05-.17.08-.26.08Z"/>
        <g>
          <g>
            <path class="cls-12" d="m3.28,29.63H1c-.55,0-1,.45-1,1h0c0,.55.45,1,1,1h2.28c.55,0,1-.45,1-1h0c0-.55-.45-1-1-1Z"/>
            <path class="cls-12" d="m3.28,21.51H1c-.55,0-1,.45-1,1h0c0,.55.45,1,1,1h2.28c.55,0,1-.45,1-1h0c0-.55-.45-1-1-1Z"/>
            <path class="cls-7" d="m.75,21.51h0c-.41,0-.75.34-.75.75v8.63c0,.41.34.75.75.75h0c.41,0,.75-.34.75-.75v-8.63c0-.41-.34-.75-.75-.75Z"/>
            <path class="cls-10" d="m.75,27.45h0c-.41,0-.75.34-.75.75v1.25c0,.41.34.75.75.75h0c.41,0,.75-.34.75-.75v-1.25c0-.41-.34-.75-.75-.75Z"/>
            <path class="cls-10" d="m.75,23.74h0c-.41,0-.75.34-.75.75v.36c0,.41.34.75.75.75h0c.41,0,.75-.34.75-.75v-.36c0-.41-.34-.75-.75-.75Z"/>
          </g>
          <path class="cls-12" d="m10.09,34.55h0c.93,0,1.7-.76,1.7-1.7v-10.71c0-2.07-1.69-3.76-3.76-3.76h0c-2.07,0-3.76,1.69-3.76,3.76v6.59c0,3.2,2.62,5.82,5.82,5.82Z"/>
          <path class="cls-3" d="m7.13,33.72h0c.79,0,1.43-.64,1.43-1.43v-10.04c0-1.56-1.28-2.84-2.84-2.84h0c-1.56,0-2.84,1.28-2.84,2.84v7.22c0,2.34,1.91,4.25,4.25,4.25Z"/>
          <path class="cls-14" d="m8.08,33.72h0c.79,0,1.43-.64,1.43-1.43v-10.04c0-1.56-1.28-2.84-2.84-2.84h0c-1.56,0-2.84,1.28-2.84,2.84v7.22c0,2.34,1.91,4.25,4.25,4.25Z"/>
          <path class="cls-3" d="m6.35,21.21c0-.34-.28-.62-.62-.62s-.62.28-.62.62.28.62.62.62.62-.28.62-.62Z"/>
          <circle class="cls-3" cx="5.6" cy="30.55" r="1.51"/>
          <circle class="cls-12" cx="5.2" cy="30.55" r="1.51"/>
          <circle class="cls-4" cx="4.98" cy="30.55" r="1.07"/>
          <path class="cls-12" d="m11.98,24.37h-5.5c-.52,0-.95-.43-.95-.95h0c0-.52.43-.95.95-.95h5.5c.52,0,.95.43.95.95h0c0,.52-.43.95-.95.95Z"/>
          <path class="cls-12" d="m11.98,28.28h-5.5c-.52,0-.95-.43-.95-.95h0c0-.52.43-.95.95-.95h5.5c.52,0,.95.43.95.95h0c0,.52-.43.95-.95.95Z"/>
          <path class="cls-7" d="m7.14,27.33c0-.31-.25-.56-.56-.56s-.56.25-.56.56.25.56.56.56.56-.25.56-.56Z"/>
          <path class="cls-7" d="m7.14,23.42c0-.31-.25-.56-.56-.56s-.56.25-.56.56.25.56.56.56.56-.25.56-.56Z"/>
          <path class="cls-10" d="m6.09,23.42c0-.31-.25-.56-.56-.56s-.56.25-.56.56.25.56.56.56.56-.25.56-.56Z"/>
          <path class="cls-10" d="m6.09,27.33c0-.31-.25-.56-.56-.56s-.56.25-.56.56.25.56.56.56.56-.25.56-.56Z"/>
        </g>
        <g>
          <path class="cls-12" d="m16.04,36.72h0c-4.6,0-8.36-3.76-8.36-8.36v-6.64c0-2.6,2.13-4.73,4.73-4.73h7.25c2.6,0,4.73,2.13,4.73,4.73v6.64c0,4.6-3.76,8.36-8.36,8.36Z"/>
          <path class="cls-7" d="m14.28,28.62h0c-.71,0-1.29-.58-1.29-1.29v-4.04c0-.71.58-1.29,1.29-1.29h0c.71,0,1.29.58,1.29,1.29v4.04c0,.71-.58,1.29-1.29,1.29Z"/>
          <path class="cls-7" d="m20.64,28.62h0c-.71,0-1.29-.58-1.29-1.29v-4.04c0-.71.58-1.29,1.29-1.29h0c.71,0,1.29.58,1.29,1.29v4.04c0,.71-.58,1.29-1.29,1.29Z"/>
          <path class="cls-2" d="m14.98,24.48h-3c-1.07,0-1.94-.87-1.94-1.94h0c0-2.22,1.81-4.03,4.03-4.03h.91c1.07,0,1.94.87,1.94,1.94v2.09c0,1.07-.87,1.94-1.94,1.94Z"/>
          <path class="cls-2" d="m22.98,24.48h-3c-1.07,0-1.94-.87-1.94-1.94v-2.09c0-1.07.87-1.94,1.94-1.94h1.57c1.85,0,3.36,1.51,3.36,3.36v.66c0,1.07-.87,1.94-1.94,1.94Z"/>
          <path class="cls-6" d="m21.64,23.54l-2.78-2.78c-.21-.21-.21-.56,0-.78h0c.21-.21.56-.21.78,0l2.78,2.78c.21.21.21.56,0,.78h0c-.21.21-.56.21-.78,0Z"/>
          <path class="cls-6" d="m22.94,21.6l-1.23-1.23c-.21-.21-.21-.56,0-.78h0c.21-.21.56-.21.78,0l1.23,1.23c.21.21.21.56,0,.78h0c-.21.21-.56.21-.78,0Z"/>
          <path class="cls-6" d="m13.83,23.54l-2.14-2.14c-.21-.21-.21-.56,0-.78h0c.21-.21.56-.21.78,0l2.14,2.14c.21.21.21.56,0,.78h0c-.21.21-.56.21-.78,0Z"/>
          <path class="cls-6" d="m15.13,21.6l-1.23-1.23c-.21-.21-.21-.56,0-.78h0c.21-.21.56-.21.78,0l1.23,1.23c.21.21.21.56,0,.78h0c-.21.21-.56.21-.78,0Z"/>
          <path class="cls-2" d="m21.96,29.08h-9.76c-.48,0-.88-.39-.88-.88h0c0-.48.39-.88.88-.88h9.76c.48,0,.88.39.88.88h0c0,.48-.39.88-.88.88Z"/>
          <path class="cls-7" d="m14,31.16h0c-.41,0-.75-.34-.75-.75v-1.95c0-.41.34-.75.75-.75h0c.41,0,.75.34.75.75v1.95c0,.41-.34.75-.75.75Z"/>
          <path class="cls-7" d="m19.84,31.16h0c-.41,0-.75-.34-.75-.75v-1.95c0-.41.34-.75.75-.75h0c.41,0,.75.34.75.75v1.95c0,.41-.34.75-.75.75Z"/>
          <circle class="cls-7" cx="12.89" cy="33.54" r="1.12"/>
          <path class="cls-7" d="m21.55,33.14c0,.4-.32.72-.72.72s-.72-.32-.72-.72.32-.72.72-.72.72.32.72.72Z"/>
          <path class="cls-3" d="m12.7,20.97c0,.36-.29.66-.66.66s-.66-.29-.66-.66.29-.66.66-.66.66.29.66.66Z"/>
          <path class="cls-3" d="m14.98,19.98c0,.36-.29.65-.65.65s-.65-.29-.65-.65.29-.65.65-.65.65.29.65.65Z"/>
          <path class="cls-2" d="m20.3,33.31c0-1.47-1.46-2.67-3.27-2.67s-3.27,1.19-3.27,2.67,1.46,2.67,3.27,2.67,3.27-1.19,3.27-2.67Z"/>
          <path class="cls-3" d="m19.87,20.27c0,.36-.29.66-.66.66s-.66-.29-.66-.66.29-.66.66-.66.66.29.66.66Z"/>
          <path class="cls-3" d="m22.75,19.98c0,.36-.29.65-.65.65s-.65-.29-.65-.65.29-.65.65-.65.65.29.65.65Z"/>
          <path class="cls-2" d="m22.7,31.66h-12.56c-.36,0-.65-.29-.65-.65h0c0-.36.29-.65.65-.65h12.56c.36,0,.65.29.65.65h0c0,.36-.29.65-.65.65Z"/>
          <path class="cls-6" d="m19.99,31.66h-2.25c-.36,0-.65-.29-.65-.65h0c0-.36.29-.65.65-.65h2.25c.36,0,.65.29.65.65h0c0,.36-.29.65-.65.65Z"/>
          <path class="cls-6" d="m13.68,31.66h-.53c-.36,0-.65-.29-.65-.65h0c0-.36.29-.65.65-.65h.53c.36,0,.65.29.65.65h0c0,.36-.29.65-.65.65Z"/>
          <path class="cls-3" d="m20.64,31c0,.36-.29.65-.65.65s-.65-.29-.65-.65.29-.65.65-.65.65.29.65.65Z"/>
          <path class="cls-3" d="m14.51,31c0,.36-.29.65-.65.65s-.65-.29-.65-.65.29-.65.65-.65.65.29.65.65Z"/>
          <path class="cls-6" d="m18.56,34.22c0-.71-.73-1.28-1.64-1.28s-1.64.57-1.64,1.28.73,1.28,1.64,1.28,1.64-.57,1.64-1.28Z"/>
          <circle class="cls-6" cx="18.36" cy="32.92" r=".5"/>
        </g>
      </g>
      <g>
        <path class="cls-12" d="m12.95,1.96s-1.4-1.35-3.82.6c-.21.17-.17.51.09.6.65.22,1.7.87,2.68,2.72l1.05-3.91Z"/>
        <path class="cls-12" d="m11.43,3.88s-1.34-1.41-3.84.43c-.22.16-.19.5.06.6.64.25,1.66.94,2.55,2.83l1.22-3.86Z"/>
        <path class="cls-12" d="m19.21,4.05s1.71-.92.6-3.82c-.1-.25-.44-.31-.6-.1-.41.55-1.35,1.35-3.41,1.71l3.4,2.2Z"/>
        <g>
          <path class="cls-12" d="m12.04,1.82s7.56-.11,10.19-1.32c.36-.16.76.06.78.46.06,1.2-.01,3.23-1.09,4.11L12.04,1.82Z"/>
          <path class="cls-9" d="m21.01,5.32c-.85,0-1.54.69-1.54,1.54s.69,1.54,1.54,1.54,1.54-.69,1.54-1.54-.69-1.54-1.54-1.54Z"/>
          <path class="cls-5" d="m15.97,14.21h0c-3.06,0-5.56-2.5-5.56-5.56v-2.97c0-1.87,1.53-3.39,3.39-3.39h4.54c1.87,0,3.39,1.53,3.39,3.39v2.75c0,3.18-2.6,5.77-5.77,5.77Z"/>
          <path class="cls-12" d="m10.2,9.32h0c-.83,0-1.51-.68-1.51-1.51v-2.48c0-.83.68-1.51,1.51-1.51h0c.83,0,1.51.68,1.51,1.51v2.48c0,.83-.68,1.51-1.51,1.51Z"/>
          <path class="cls-12" d="m20.69,5.56h-8.65c-1.03,0-1.87-.84-1.87-1.87h0c0-1.03.84-1.87,1.87-1.87h8.65c1.03,0,1.87.84,1.87,1.87h0c0,1.03-.84,1.87-1.87,1.87Z"/>
          <g>
            <path class="cls-5" d="m12.52,6.86c0,.85-.55,1.54-1.4,1.54s-1.68-.69-1.68-1.54.69-1.54,1.54-1.54,1.54.69,1.54,1.54Z"/>
            <path class="cls-9" d="m11.77,6.86c0,.44-.36.8-.8.8s-.8-.36-.8-.8.36-.8.8-.8.8.36.8.8Z"/>
          </g>
          <path class="cls-9" d="m17.78,10.7h0c-.62,0-1.12-.51-1.12-1.12v-1.11c0-.62.51-1.12,1.12-1.12h0c.62,0,1.12.51,1.12,1.12v1.11c0,.62-.51,1.12-1.12,1.12Z"/>
          <rect class="cls-14" x="16.44" y="2.57" width="4.99" height="1.25" rx=".63" ry=".63"/>
          <path class="cls-3" d="m20.43,3.2c0-.35-.28-.63-.63-.63s-.63.28-.63.63.28.63.63.63.63-.28.63-.63Z"/>
          <rect class="cls-14" x="12.59" y="2.57" width="2.42" height="1.25" rx=".63" ry=".63"/>
          <path class="cls-2" d="m20.82,9.32h-7.17c-1.09,0-1.97-.89-1.97-1.97h0c0-1.09.89-1.97,1.97-1.97h7.17c1.09,0,1.97.89,1.97,1.97h0c0,1.09-.89,1.97-1.97,1.97Z"/>
          <path class="cls-6" d="m14.65,8.61c-.7,0-1.27-.57-1.27-1.27s.57-1.27,1.27-1.27h6.17c.7,0,1.27.57,1.27,1.27s-.57,1.27-1.27,1.27h-6.17Z"/>
          <path class="cls-12" d="m16.81,7.98h-2.36c-.35,0-.64-.29-.64-.64h0c0-.35.29-.64.64-.64h2.36c.35,0,.64.29.64.64h0c0,.35-.29.64-.64.64Z"/>
          <path class="cls-12" d="m21.55,7.98h-2.36c-.35,0-.64-.29-.64-.64h0c0-.35.29-.64.64-.64h2.36c.35,0,.64.29.64.64h0c0,.35-.29.64-.64.64Z"/>
          <path class="cls-3" d="m16.63,7.34c0,.35-.29.64-.64.64s-.64-.29-.64-.64.29-.64.64-.64.64.29.64.64Z"/>
          <path class="cls-3" d="m21.45,7.34c0,.35-.29.64-.64.64s-.64-.29-.64-.64.29-.64.64-.64.64.29.64.64Z"/>
        </g>
        <path class="cls-12" d="m15.92,17.55c3.66,0,6.7-2.71,7.2-6.24.08-.55-.36-1.04-.91-1.04h-12.58c-.55,0-.99.49-.91,1.04.5,3.53,3.53,6.24,7.2,6.24Z"/>
        <path class="cls-3" d="m17.04,15.63c2.18,0,3.99-1.62,4.29-3.72.05-.33-.21-.62-.54-.62h-7.5c-.33,0-.59.29-.54.62.3,2.1,2.11,3.72,4.29,3.72Z"/>
        <path class="cls-7" d="m17.04,16.2c2.18,0,3.99-1.62,4.29-3.72.05-.33-.21-.62-.54-.62h-7.5c-.33,0-.59.29-.54.62.3,2.1,2.11,3.72,4.29,3.72Z"/>
        <circle class="cls-12" cx="15.17" cy="13.01" r=".45"/>
        <path class="cls-12" d="m16.98,13.01c0,.25-.2.45-.45.45s-.45-.2-.45-.45.2-.45.45-.45.45.2.45.45Z"/>
        <path class="cls-12" d="m18.33,13.01c0,.25-.2.45-.45.45s-.45-.2-.45-.45.2-.45.45-.45.45.2.45.45Z"/>
        <path class="cls-12" d="m19.69,13.01c0,.25-.2.45-.45.45s-.45-.2-.45-.45.2-.45.45-.45.45.2.45.45Z"/>
        <path class="cls-12" d="m16.98,14.38c0,.25-.2.45-.45.45s-.45-.2-.45-.45.2-.45.45-.45.45.2.45.45Z"/>
        <path class="cls-12" d="m18.33,14.38c0,.25-.2.45-.45.45s-.45-.2-.45-.45.2-.45.45-.45.45.2.45.45Z"/>
        <path class="cls-7" d="m11.3,12.09h-1.1c-.22,0-.4-.18-.4-.4h0c0-.22.18-.4.4-.4h1.1c.22,0,.4.18.4.4h0c0,.22-.18.4-.4.4Z"/>
        <path class="cls-7" d="m11.59,13.91h-.39c-.25,0-.45-.2-.45-.45h0c0-.25.2-.45.45-.45h.39c.25,0,.45.2.45.45h0c0,.25-.2.45-.45.45Z"/>
      </g>
      <g>
        <path class="cls-12" d="m21.74,7.1h0c-.52.15-.82.69-.67,1.21l.89,3.16c.15.52.69.82,1.21.67h0c.52-.15.82-.69.67-1.21l-.89-3.16c-.15-.52-.69-.82-1.21-.67Z"/>
        <path class="cls-12" d="m25.11,9.14h0c-.15-.52-.69-.82-1.21-.67l-3.16.89c-.52.15-.82.69-.67,1.21h0c.15.52.69.82,1.21.67l3.16-.89c.52-.15.82-.69.67-1.21Z"/>
        <path class="cls-4" d="m34.16,3.76l-4.95,1.4c-.86.24-1.36,1.15-1.12,2.01h0c.24.86,1.15,1.36,2.01,1.12l4.95-1.4c.86-.24,1.36-1.15,1.12-2.01h0c-.24-.86-1.15-1.36-2.01-1.12Z"/>
        <path class="cls-3" d="m31.33,4.56l-.53.15c-.28.08-.44.37-.36.65h0c.08.28.37.44.65.36l.53-.15c.28-.08.44-.37.36-.65h0c-.08-.28-.37-.44-.65-.36Z"/>
        <path class="cls-3" d="m32.65,4.18h0c-.28.08-.44.37-.36.65h0c.08.28.37.44.65.36h0c.28-.08.44-.37.36-.65h0c-.08-.28-.37-.44-.65-.36Z"/>
        <path class="cls-12" d="m36.44,4.2l-8.73,2.47c-.74.21-1.18.99-.97,1.73h0c.21.74.99,1.18,1.73.97l8.73-2.47c.74-.21,1.18-.99.97-1.73h0c-.21-.74-.99-1.18-1.73-.97Z"/>
        <path class="cls-12" d="m29.28,7.33h0c-.56.16-1.14-.17-1.3-.73h0c-.16-.56.17-1.14.73-1.3h0c.56-.16,1.14.17,1.3.73h0c.16.56-.17,1.14-.73,1.3Z"/>
        <path class="cls-12" d="m35.65,5.52h0c-.56.16-1.14-.17-1.3-.73h0c-.16-.56.17-1.14.73-1.3h0c.56-.16,1.14.17,1.3.73h0c.16.56-.17,1.14-.73,1.3Z"/>
        <path class="cls-12" d="m29.86,18.78l-13.3,3.77c-1.28.36-2.63-.39-3-1.67l-.78-2.75c-.79-2.8.85-5.73,3.64-6.52l10.56-2.99c2.79-.79,5.73.85,6.52,3.64h0c.79,2.8-.85,5.73-3.64,6.52Z"/>
        <path class="cls-12" d="m39.02,5.93h0c-.89.25-1.42,1.19-1.16,2.08l1.13,3.99c.25.89,1.19,1.42,2.08,1.16h0c.89-.25,1.42-1.19,1.16-2.08l-1.13-3.99c-.25-.89-1.19-1.42-2.08-1.16Z"/>
        <path class="cls-3" d="m40.43,13.13l-19.03,5.39-1.37-4.85c-.5-1.75.52-3.57,2.27-4.06l15.07-4.27c.44-.12.9.13,1.02.57l2.04,7.22Z"/>
        <path class="cls-12" d="m40.96,14.09l-18.6,5.27-1.37-4.85c-.5-1.75.52-3.57,2.27-4.06l13.47-3.81c1.09-.31,2.22.32,2.53,1.41l1.71,6.05Z"/>
        <path class="cls-6" d="m40.87,13.84l-13.97,3.96-1.37-4.85c-.5-1.75.52-3.57,2.27-4.06l10.01-2.83c.44-.12.9.13,1.02.57l2.04,7.22Z"/>
        <path class="cls-12" d="m38.15,12.75l-6.48,1.84c-1.23.35-1.95,1.64-1.6,2.87h0c.35,1.23,1.64,1.95,2.87,1.6l6.48-1.84c1.23-.35,1.95-1.64,1.6-2.87h0c-.35-1.23-1.64-1.95-2.87-1.6Z"/>
        <path class="cls-12" d="m24.59,11.56h0c-1.9-.04-3.49,1.48-3.53,3.39l-.06,3.08c-.04,1.9,1.48,3.49,3.39,3.53h0c1.9.04,3.49-1.48,3.53-3.39l.06-3.08c.04-1.9-1.48-3.49-3.39-3.53Z"/>
        <path class="cls-12" d="m31.55,17.15l-5.64,1.6c-2.09.59-4.28-.63-4.87-2.72h0c-.59-2.09.63-4.28,2.72-4.87l5.64-1.6c2.09-.59,4.28.63,4.87,2.72h0c.59,2.09-.63,4.28-2.72,4.87Z"/>
        <path class="cls-7" d="m31.24,15.89l-2.19.62c-.63.18-1.3-.19-1.48-.82h0c-.18-.63.19-1.3.82-1.48l2.19-.62c.63-.18,1.3.19,1.48.82h0c.18.63-.19,1.3-.82,1.48Z"/>
        <path class="cls-12" d="m23.31,11.92h0c-1.9-.04-3.49,1.48-3.53,3.39l-.06,3.08c-.04,1.9,1.48,3.49,3.39,3.53h0c1.9.04,3.49-1.48,3.53-3.39l.06-3.08c.04-1.9-1.48-3.49-3.39-3.53Z"/>
        <path class="cls-7" d="m23.16,13.09h0c-1.28-.03-2.36,1.14-2.39,2.6l-.05,2.36c-.03,1.46,1,2.67,2.28,2.7h0c1.28.03,2.36-1.14,2.39-2.6l.05-2.36c.03-1.46-1-2.67-2.28-2.7Z"/>
        <path class="cls-3" d="m20.91,18.74l.05-2.36c.03-1.46,1.11-2.63,2.39-2.6.91.02,1.69.64,2.05,1.52-.18-1.23-1.11-2.19-2.25-2.21-1.28-.03-2.36,1.14-2.39,2.6l-.05,2.36c0,.42.08.82.23,1.18-.02-.16-.04-.32-.03-.49Z"/>
        <path class="cls-12" d="m24.02,15.18c-.13-.46-.61-.73-1.07-.6-.46.13-.73.61-.6,1.07.13.46.61.73,1.07.6.46-.13.73-.61.6-1.07Z"/>
        <path class="cls-12" d="m23.77,18.46c-.11-.4-.52-.63-.92-.51-.4.11-.63.52-.51.92.11.4.52.63.92.51.4-.11.63-.52.51-.92Z"/>
        <path class="cls-3" d="m28.43,14.48h0c-.49.14-.77.65-.63,1.14h0c.14.49.65.77,1.14.63h0c.49-.14.77-.65.63-1.14h0c-.14-.49-.65-.77-1.14-.63Z"/>
        <g>
          <path class="cls-6" d="m37.94,13.92l-4.42,1.25c-1.67.47-2.65,2.22-2.17,3.89h0c.47,1.67,2.22,2.65,3.89,2.17l3.32-.94c1.67-.47,2.65-2.22,2.17-3.89l-.31-1.09c-.3-1.07-1.42-1.69-2.49-1.39Z"/>
          <path class="cls-2" d="m36.75,15.57l-2.45.69c-1,.28-1.59,1.33-1.3,2.33h0c.28,1,1.33,1.59,2.33,1.3l2.45-.69c1-.28,1.59-1.33,1.3-2.33h0c-.28-1-1.33-1.59-2.33-1.3Z"/>
          <path class="cls-3" d="m38.36,15.62c-.19-.67-.88-1.05-1.55-.86-.67.19-1.05.88-.86,1.55.19.67.88,1.05,1.55.86s1.05-.88.86-1.55Z"/>
          <path class="cls-3" d="m35.11,18.75c-.13-.46-.61-.73-1.07-.6s-.73.61-.6,1.07c.13.46.61.73,1.07.6.46-.13.73-.61.6-1.07Z"/>
        </g>
        <path class="cls-7" d="m29.83,11.28l-3.92,1.11c-.26.07-.42.35-.34.61h0c.07.26.35.42.61.34l3.92-1.11c.26-.07.42-.35.34-.61h0c-.07-.26-.35-.42-.61-.34Z"/>
        <path class="cls-7" d="m14.86,15.92h0c-.81.23-1.29,1.08-1.06,1.89l.61,2.16c.23.81,1.08,1.29,1.89,1.06h0c.81-.23,1.29-1.08,1.06-1.89l-.61-2.16c-.23-.81-1.08-1.29-1.89-1.06Z"/>
        <path class="cls-7" d="m16.87,12.68h0c-.68.19-1.08.91-.88,1.58h0c.19.68.9,1.08,1.58.88h0c.68-.19,1.08-.9.88-1.58h0c-.19-.68-.9-1.08-1.58-.88Z"/>
        <path class="cls-12" d="m41.01,6.75h0c-.49.14-.78.65-.64,1.14l.42,1.48c.14.49.65.78,1.14.64h0c.49-.14.78-.65.64-1.14l-.42-1.48c-.14-.49-.65-.78-1.14-.64Z"/>
        <path class="cls-7" d="m40.87,9.79h0c-.29.08-.6-.09-.69-.38l-.48-1.71c-.08-.29.09-.6.38-.69h0c.29-.08.6.09.69.38l.48,1.71c.08.29-.09.6-.38.69Z"/>
        <path class="cls-7" d="m41.3,11.32h0c-.24.07-.38.32-.31.56h0c.07.24.32.38.56.32h0c.24-.07.38-.32.31-.56h0c-.07-.24-.32-.38-.56-.31Z"/>
        <path class="cls-3" d="m40.83,7.61h0c-.36.1-.58.48-.47.85h0c.1.36.48.58.85.47h0c.36-.1.58-.48.47-.85h0c-.1-.36-.48-.58-.85-.47Z"/>
        <g>
          <path class="cls-12" d="m31.3,11.47h0c-.28-1,.31-2.05,1.31-2.33l3.04-.85c1-.28,2.05.31,2.33,1.31h0c.28,1-.31,2.05-1.31,2.33l-3.04.85c-1,.28-2.05-.31-2.33-1.31Z"/>
          <path class="cls-4" d="m33.66,10.81h0c-.19-.68.21-1.4.89-1.59l1.01-.28c.68-.19,1.4.21,1.59.89h0c.19.68-.21,1.4-.89,1.59l-1.01.28c-.68.19-1.4-.21-1.59-.89Z"/>
          <path class="cls-3" d="m36.45,10.89c.4-.28.49-.84.2-1.23-.28-.4-.84-.49-1.23-.2-.4.28-.49.84-.2,1.23.28.4.84.49,1.23.2Z"/>
          <path class="cls-7" d="m32.85,11.42c.21-.15.26-.44.11-.65-.15-.21-.44-.26-.65-.11-.21.15-.26.44-.11.65.15.21.44.26.65.11Z"/>
        </g>
      </g>
      <g>
        <path class="cls-8" d="m20,19.58l-.43.74-.06.1-1.45,2.48c-.67,1.14-.28,2.62.86,3.28h0c1.14.67,2.61.28,3.28-.86l1.45-2.48.06-.1.43-.74c.67-1.14.28-2.62-.86-3.28h0c-1.14-.67-2.61-.28-3.28.86Z"/>
        <path class="cls-2" d="m21.01,17.85l-.88,1.49c-.67,1.14-.28,2.61.86,3.28h0c1.14.67,2.61.28,3.28-.86l.88-1.49c.67-1.14.28-2.61-.86-3.28h0c-1.14-.67-2.61-.28-3.28.86Z"/>
      </g>
      <g>
        <path class="cls-6" d="m28.05,17.36l-3.59,1.02c-.93.26-1.91-.28-2.17-1.21h0c-.26-.93.28-1.91,1.21-2.17l3.59-1.02c.93-.26,1.91.28,2.17,1.21h0c.26.93-.28,1.91-1.21,2.17Z"/>
        <path class="cls-6" d="m24.16,14.8l-.32.09c-2.17.61-3.44,2.89-2.82,5.05h0c.61,2.17,2.89,3.44,5.05,2.82l.32-.09c2.17-.61,3.44-2.89,2.82-5.05h0c-.61-2.17-2.89-3.44-5.05-2.82Z"/>
        <path class="cls-2" d="m26.67,21.71h0c-1.34.38-2.75-.41-3.13-1.75l-.39-1.37c-.38-1.34.41-2.75,1.75-3.13h0c1.34-.38,2.75.41,3.13,1.75l.39,1.37c.38,1.34-.41,2.75-1.75,3.13Z"/>
        <path class="cls-3" d="m25.78,18.59h0c-.74.21-1.52-.22-1.73-.97h0c-.21-.74.22-1.52.97-1.73h0c.74-.21,1.52.22,1.73.97h0c.21.74-.22,1.52-.97,1.73Z"/>
        <path class="cls-3" d="m24.62,20.92h0c-.5.14-1.02-.15-1.16-.65h0c-.14-.5.15-1.02.65-1.16h0c.5-.14,1.02.15,1.16.65h0c.14.5-.15,1.02-.65,1.16Z"/>
      </g>
      <g>
        <path class="cls-1" d="m53.73,17.76c0-.76-.62-1.39-1.39-1.39h-.94c-.76,0-1.39.62-1.39,1.39s.62,1.39,1.39,1.39h.94c.76,0,1.39-.62,1.39-1.39Z"/>
        <path class="cls-1" d="m54.01,20.96h-1.21c-.51,0-.92.41-.92.92s.41.92.92.92h1.21c.51,0,.92-.41.92-.92s-.41-.92-.92-.92Z"/>
        <path class="cls-1" d="m54.33,15.26h4.25c.51,0,.92-.41.92-.92s-.41-.92-.92-.92h-4.25c-.51,0-.92.41-.92.92s.41.92.92.92Z"/>
        <path class="cls-1" d="m63.91,13.42h-.28c-.51,0-.92.41-.92.92s.41.92.92.92h.28c.51,0,.92-.41.92-.92s-.41-.92-.92-.92Z"/>
        <path class="cls-1" d="m60.65,16.37h-.28c-.51,0-.92.41-.92.92s.41.92.92.92h.28c.51,0,.92-.41.92-.92s-.41-.92-.92-.92Z"/>
      </g>
      <g>
        <path id="ArmOne-2" data-name="ArmOne" class="cls-8" d="m21.99,25.5h0c-.75,1.08-2.26,1.35-3.34.6l-9.21-6.42c-1.08-.75-1.35-2.26-.6-3.34h0c.75-1.08,2.26-1.35,3.34-.6l9.21,6.42c1.08.75,1.35,2.26.6,3.34Z"/>
        <path class="cls-12" d="m18.84,23.27h0c-.16.24-.49.29-.73.13l-2.55-1.78c-.24-.16-.29-.49-.13-.73h0c.16-.24.49-.29.73-.13l2.55,1.78c.24.16.29.49.13.73Z"/>
        <path class="cls-3" d="m16.41,15.99c-2.07-1.45-4.93-.94-6.38,1.14-1.45,2.07-.94,4.93,1.14,6.38,2.07,1.45,4.16.4,5.61-1.67,1.45-2.07,1.71-4.39-.37-5.84Z"/>
        <path class="cls-2" d="m14.93,14.58c-2.21-1.54-5.26-1-6.8,1.21-1.54,2.21-1,5.26,1.21,6.8,2.21,1.54,4.44.43,5.98-1.78s1.82-4.69-.39-6.23Z"/>
        <path class="cls-6" d="m13.61,16.28c-1.74-1.21-4-.97-5.05.54-1.05,1.51-.5,3.72,1.23,4.93,1.74,1.21,3.35.52,4.41-.99,1.05-1.51,1.14-3.27-.59-4.48Z"/>
        <path class="cls-4" d="m19.43,22.41c-.47-.33-1.12-.21-1.45.26-.33.47-.21,1.12.26,1.45.47.33,1.12.21,1.45-.26.33-.47.21-1.12-.26-1.45Z"/>
        <g>
          <path class="cls-2" d="m13.21,20.63h0c-.13.02-.26-.07-.29-.2l-.47-2.65c-.02-.13.07-.26.2-.29h0c.13-.02.26.07.29.2l.47,2.65c.02.13-.07.26-.2.29Z"/>
          <path class="cls-2" d="m11.39,20.09h0c-.13.02-.26-.07-.29-.2l-.47-2.65c-.02-.13.07-.26.2-.29h0c.13-.02.26.07.29.2l.47,2.65c.02.13-.07.26-.2.29Z"/>
          <path class="cls-2" d="m10.44,21.4h0c-.13.02-.26-.07-.29-.2l-.47-2.65c-.02-.13.07-.26.2-.29h0c.13-.02.26.07.29.2l.47,2.65c.02.13-.07.26-.2.29Z"/>
        </g>
        <path class="cls-3" d="m10.74,16.61c.85.59,1.05,1.75.46,2.6-.59.85-1.75,1.05-2.6.46-.85-.59-1.05-1.76-.46-2.6.59-.85,1.75-1.05,2.6-.46Z"/>
        <path class="cls-3" d="m12.82,16.78c-.28-.2-.35-.58-.15-.86s.58-.35.86-.15.35.58.15.86c-.2.28-.58.35-.86.15Z"/>
      </g>
      <g>
        <path class="cls-8" d="m8.06,46.24h0c1.96.65,4.1-.42,4.75-2.38l2.72-8.21c.65-1.96-.42-4.1-2.38-4.75h0c-1.96-.65-4.1.42-4.75,2.38l-2.72,8.21c-.65,1.96.42,4.1,2.38,4.75Z"/>
        <path class="cls-2" d="m6.16,45.61h0c1.96.65,4.1-.42,4.75-2.38l2.72-8.21c.65-1.96-.42-4.1-2.38-4.75h0c-1.96-.65-4.1.42-4.75,2.38l-2.72,8.21c-.65,1.96.42,4.1,2.38,4.75Z"/>
        <path class="cls-3" d="m5.97,44.68h0c1.48.49,3.1-.32,3.59-1.8l2.72-8.19c.49-1.48-.32-3.1-1.8-3.59h0c-1.48-.49-3.1.32-3.59,1.8l-2.72,8.19c-.49,1.48.32,3.1,1.8,3.59Z"/>
        <path class="cls-6" d="m5.14,44.4h0c1.48.49,3.1-.32,3.59-1.8l2.72-8.19c.49-1.48-.32-3.1-1.8-3.59h0c-1.48-.49-3.1.32-3.59,1.8l-2.72,8.19c-.49,1.48.32,3.1,1.8,3.59Z"/>
        <path class="cls-8" d="m10.86,35.22l2.17.72c.52.17,1.09-.11,1.26-.63h0c.17-.52-.11-1.09-.63-1.26l-2.17-.72c-.52-.17-1.09.11-1.26.63h0c-.17.52.11,1.09.63,1.26Z"/>
        <path class="cls-8" d="m8.3,42.93l2.17.72c.52.17,1.09-.11,1.26-.63h0c.17-.52-.11-1.09-.63-1.26l-2.17-.72c-.52-.17-1.09.11-1.26.63h0c-.17.52.11,1.09.63,1.26Z"/>
        <path class="cls-7" d="m10.71,43.73h0c.39.13.81-.08.94-.47l2.72-8.2c.13-.39-.08-.81-.47-.94h0c-.39-.13-.81.08-.94.47l-2.72,8.2c-.13.39.08.81.47.94Z"/>
        <path class="cls-10" d="m12.58,38.09h0c.39.13.81-.08.94-.47l.39-1.19c.13-.39-.08-.81-.47-.94h0c-.39-.13-.81.08-.94.47l-.39,1.19c-.13.39.08.81.47.94Z"/>
        <path class="cls-10" d="m11.41,41.61h0c.39.13.81-.08.94-.47l.11-.34c.13-.39-.08-.81-.47-.94h0c-.39-.13-.81.08-.94.47l-.11.34c-.13.39.08.81.47.94Z"/>
        <g>
          <path class="cls-2" d="m9.67,37.83h0c-.06-.12-.21-.17-.33-.11l-2.4,1.21c-.12.06-.17.21-.11.33h0c.06.12.21.17.33.11l2.4-1.21c.12-.06.17-.21.11-.33Z"/>
          <path class="cls-2" d="m8.16,36.7h0c-.06-.12-.21-.17-.33-.11l-2.4,1.21c-.12.06-.17.21-.11.33h0c.06.12.21.17.33.11l2.4-1.21c.12-.06.17-.21.11-.33Z"/>
          <path class="cls-2" d="m8.63,35.15h0c-.06-.12-.21-.17-.33-.11l-2.4,1.21c-.12.06-.17.21-.11.33h0c.06.12.21.17.33.11l2.4-1.21c.12-.06.17-.21.11-.33Z"/>
        </g>
        <path class="cls-3" d="m8.77,32.42c.11-.33-.07-.68-.39-.78-.32-.11-.68.07-.78.39s.07.68.39.78c.32.11.68-.07.78-.39Z"/>
      </g>
    </g>
  </g>
</svg>