<?xml version="1.0" encoding="UTF-8"?>
<svg id="Layer_2" data-name="Layer 2" xmlns="http://www.w3.org/2000/svg" viewBox="0 0 42.79 57.21">
  <defs>
    <style>
      .cls-1 {
        fill: #a20025;
      }

      .cls-2 {
        fill: #fff;
      }

      .cls-3 {
        fill: #7cff00;
      }

      .cls-4 {
        fill: #ffd285;
      }

      .cls-5 {
        fill: #fd003a;
      }

      .cls-6 {
        fill: #4d4d4d;
      }

      .cls-7 {
        fill: #333;
      }

      .cls-8 {
        fill: #ff6e4c;
      }

      .cls-9 {
        fill: #999;
      }

      .cls-10 {
        fill: #434343;
      }

      .cls-11 {
        fill: #1a1a1a;
      }

      .cls-12 {
        fill: #74001b;
      }

      .cls-13 {
        fill: #666;
      }
    </style>
  </defs>
  <g id="attack">
    <g id="attack5">
      <g>
        <g>
          <path class="cls-11" d="m29.78,16.93l-.86-.05h-.11s-5.14-.28-5.14-.28c-1.32-.07-2.45.95-2.52,2.27h0c-.07,1.32.95,2.45,2.27,2.52l5.14.27h.11s.86.05.86.05c1.32.07,2.45-.95,2.52-2.27h0c.07-1.32-.95-2.45-2.27-2.52Z"/>
          <path class="cls-12" d="m31.78,17.04l-1.73-.09c-1.32-.07-2.45.95-2.52,2.27h0c-.07,1.32.95,2.45,2.27,2.52l1.73.09c1.32.07,2.45-.95,2.52-2.27h0c.07-1.32-.95-2.45-2.27-2.52Z"/>
        </g>
        <g>
          <path id="ArmOne" class="cls-11" d="m24.63,19.39h0c-.3,1.28-1.59,2.09-2.88,1.8l-10.94-2.53c-1.28-.3-2.09-1.59-1.8-2.88h0c.3-1.28,1.59-2.09,2.88-1.8l10.94,2.53c1.28.3,2.09,1.59,1.8,2.88Z"/>
          <path class="cls-6" d="m21.52,18.63h0c-.06.28-.35.46-.63.39l-3.02-.7c-.28-.06-.46-.35-.39-.63h0c.06-.28.35-.46.63-.39l3.02.7c.28.06.46.35.39.63Z"/>
          <path class="cls-2" d="m15.91,12.63c-2.46-.57-4.92.96-5.5,3.43-.57,2.46.96,4.92,3.43,5.5,2.46.57,4.01-1.17,4.58-3.64.57-2.46-.05-4.71-2.51-5.28Z"/>
          <path class="cls-1" d="m14.02,11.88c-2.63-.61-5.25,1.03-5.86,3.66-.61,2.63,1.03,5.25,3.66,5.86s4.28-1.25,4.89-3.88c.61-2.63-.05-5.03-2.68-5.64Z"/>
          <path class="cls-5" d="m13.23,13.07c-1.63-.38-3.25.64-3.63,2.26-.38,1.63.64,3.25,2.26,3.63,1.63.38,3.25-.64,3.63-2.26.38-1.63-.64-3.25-2.26-3.63Z"/>
          <path class="cls-11" d="m13.11,13.58c-1.63-.38-3.25.64-3.63,2.26-.38,1.63.64,3.25,2.26,3.63,1.63.38,3.25-.64,3.63-2.26.38-1.63-.64-3.25-2.26-3.63Z"/>
          <path class="cls-6" d="m12.86,14.65c-1.03-.24-2.06.4-2.3,1.44s.4,2.06,1.44,2.3c1.03.24,2.06-.4,2.3-1.44.24-1.03-.4-2.06-1.44-2.3Z"/>
          <path class="cls-11" d="m12.61,15.71c-.45-.1-.9.18-1,.62-.1.45.18.9.62,1,.45.1.9-.18,1-.62.1-.45-.18-.9-.62-1Z"/>
        </g>
      </g>
      <g>
        <g>
          <path class="cls-7" d="m25.24,32.56l1.94-1.21c.47-.29.61-.91.32-1.38h0c-.29-.47-.91-.61-1.38-.32l-1.94,1.21c-.47.29-.61.91-.32,1.38h0c.29.47.91.61,1.38.32Z"/>
          <path class="cls-7" d="m29.55,39.45l1.94-1.21c.47-.29.61-.91.32-1.38h0c-.29-.47-.91-.61-1.38-.32l-1.94,1.21c-.47.29-.61.91-.32,1.38h0c.29.47.91.61,1.38.32Z"/>
          <path class="cls-6" d="m31.7,38.1h0c.35-.22.45-.68.24-1.03l-4.58-7.32c-.22-.35-.68-.45-1.03-.24h0c-.35.22-.45.68-.24,1.03l4.58,7.32c.22.35.68.45,1.03.24Z"/>
          <path class="cls-9" d="m28.55,33.07h0c.35-.22.45-.68.24-1.03l-.66-1.06c-.22-.35-.68-.45-1.03-.24h0c-.35.22-.45.68-.24,1.03l.67,1.06c.22.35.68.45,1.03.24Z"/>
          <path class="cls-9" d="m30.52,36.21h0c.35-.22.45-.68.24-1.03l-.19-.31c-.22-.35-.68-.45-1.03-.24h0c-.35.22-.45.68-.24,1.03l.19.31c.22.35.68.45,1.03.24Z"/>
        </g>
        <path class="cls-5" d="m29.35,42.34h0c-1.32.83-3.08.42-3.91-.9l-4.58-7.31c-.83-1.32-.42-3.08.9-3.91h0c1.32-.83,3.08-.42,3.91.9l4.58,7.31c.83,1.32.42,3.08-.9,3.91Z"/>
        <path class="cls-1" d="m28.23,44.01h0c-1.75,1.1-4.08.56-5.18-1.19l-4.59-7.33c-1.1-1.75-.56-4.08,1.19-5.18h0c1.75-1.1,4.08-.56,5.18,1.19l4.59,7.33c1.1,1.75.56,4.08-1.19,5.18Z"/>
        <path class="cls-11" d="m26.94,44.82h0c-1.75,1.1-4.08.56-5.18-1.19l-4.59-7.33c-1.1-1.75-.56-4.08,1.19-5.18h0c1.75-1.1,4.08-.56,5.18,1.19l4.59,7.33c1.1,1.75.56,4.08-1.19,5.18Z"/>
        <path class="cls-6" d="m24.54,44.23h0c-.35.22-.81.11-1.03-.24l-3.36-5.37c-.22-.35-.11-.81.24-1.03h0c.35-.22.81-.11,1.03.24l3.36,5.37c.22.35.11.81-.24,1.03Z"/>
        <path class="cls-9" d="m21.84,39.92h0c-.35.22-.81.11-1.03-.24l-.67-1.06c-.22-.35-.11-.81.24-1.03h0c.35-.22.81-.11,1.03.24l.67,1.06c.22.35.11.81-.24,1.03Z"/>
        <path class="cls-9" d="m23.81,43.06h0c-.35.22-.81.11-1.03-.24l-.19-.31c-.22-.35-.11-.81.24-1.03h0c.35-.22.81-.11,1.03.24l.19.31c.22.35.11.81-.24,1.03Z"/>
        <path class="cls-6" d="m27.39,42.07h0c-.35.22-.81.11-1.03-.24l-3.21-5.13c-.22-.35-.11-.81.24-1.03h0c.35-.22.81-.11,1.03.24l3.21,5.13c.22.35.11.81-.24,1.03Z"/>
        <path class="cls-9" d="m25.61,39.22h0c-.35.22-.81.11-1.03-.24l-.66-1.06c-.22-.35-.11-.81.24-1.03h0c.35-.22.81-.11,1.03.24l.67,1.06c.22.35.11.81-.24,1.03Z"/>
        <path class="cls-9" d="m27.08,41.58h0c-.35.22-.81.11-1.03-.24l-.19-.31c-.22-.35-.11-.81.24-1.03h0c.35-.22.81-.11,1.03.24l.19.31c.22.35.11.81-.24,1.03Z"/>
        <path class="cls-2" d="m24.07,30.93c-.18-.29-.09-.67.2-.85s.67-.09.85.2.09.67-.2.85-.67.09-.85-.2Z"/>
        <path class="cls-6" d="m22.24,32.76c-.71-1.13-2.2-1.47-3.32-.76-1.13.71-1.47,2.2-.76,3.32s2.2,1.47,3.32.76c1.13-.71,1.47-2.2.76-3.32Z"/>
        <path class="cls-11" d="m21.29,33.35c-.38-.61-1.18-.79-1.79-.41-.61.38-.79,1.18-.41,1.79s1.18.79,1.79.41c.61-.38.79-1.18.41-1.79Z"/>
        <path class="cls-2" d="m29.45,39.53c-.18-.29-.09-.67.2-.85s.67-.09.85.2c.18.29.09.67-.2.85-.29.18-.67.09-.85-.2Z"/>
      </g>
      <g>
        <g id="ShinTwo">
          <path class="cls-11" d="m23.78,55.42h0c-1.26-.21-2.12-1.42-1.91-2.68l1.7-10.2c.21-1.26,1.42-2.12,2.68-1.91h0c1.26.21,2.12,1.42,1.91,2.68l-1.7,10.2c-.21,1.26-1.42,2.12-2.68,1.91Z"/>
        </g>
        <path class="cls-10" d="m26.98,43.12c.1-.62-.31-1.2-.93-1.3-.62-.1-1.2.31-1.3.93-.1.62.31,1.2.93,1.3.62.1,1.2-.31,1.3-.93Z"/>
      </g>
      <g>
        <g id="ShinTwo-2" data-name="ShinTwo">
          <path class="cls-7" d="m5.16,55.31h0c-1.22-.4-1.88-1.72-1.48-2.94l3.24-9.82c.4-1.22,1.72-1.88,2.94-1.48h0c1.22.4,1.88,1.72,1.48,2.94l-3.24,9.82c-.4,1.22-1.72,1.88-2.94,1.48Z"/>
        </g>
        <path class="cls-6" d="m5.28,53.28h0c-.28-.09-.43-.39-.34-.67l3.27-9.9c.09-.28.39-.43.67-.34h0c.28.09.43.39.34.67l-3.27,9.9c-.09.28-.39.43-.67.34Z"/>
        <path class="cls-2" d="m7.47,46.63h0c-.28-.09-.43-.39-.34-.67l.56-1.69c.09-.28.39-.43.67-.34h0c.28.09.43.39.34.67l-.56,1.69c-.09.28-.39.43-.67.34Z"/>
        <path class="cls-2" d="m5.94,51.18h0c-.29-.1-.45-.41-.35-.7l.29-.89c.1-.29.41-.45.7-.35h0c.29.1.45.41.35.7l-.29.89c-.1.29-.41.45-.7.35Z"/>
      </g>
      <g>
        <path class="cls-5" d="m28.99,56.15c0-2.9-2.35-5.06-5.25-5.06s-5.25,2.16-5.25,5.06h10.5Z"/>
        <path class="cls-1" d="m26.96,56.15c.12-.34.19-.71.19-1.09,0-1.88-1.53-3.41-3.41-3.41s-3.41,1.53-3.41,3.41c0,.38.08.75.19,1.09h6.44Z"/>
        <path class="cls-11" d="m19.56,55.06h8.37c.59,0,1.06.48,1.06,1.06v.03c0,.59-.48,1.06-1.06,1.06h-8.37c-.59,0-1.06-.48-1.06-1.06v-.03c0-.59.48-1.06,1.06-1.06Z"/>
        <circle class="cls-2" cx="25.97" cy="53.47" r="1.24"/>
        <path class="cls-2" d="m23.33,52.24c0-.35.29-.64.64-.64s.64.29.64.64-.29.64-.64.64-.64-.29-.64-.64Z"/>
        <path class="cls-6" d="m20.33,55.73h0c-.38,0-.69-.31-.69-.69h0c0-.38.31-.69.69-.69h0c.38,0,.69.31.69.69h0c0,.38-.31.69-.69.69Z"/>
        <path class="cls-6" d="m27.38,55.73h0c-.38,0-.69-.31-.69-.69h0c0-.38.31-.69.69-.69h0c.38,0,.69.31.69.69h0c0,.38-.31.69-.69.69Z"/>
        <path class="cls-6" d="m25.03,55.73h0c-.38,0-.69-.31-.69-.69h0c0-.38.31-.69.69-.69h0c.38,0,.69.31.69.69h0c0,.38-.31.69-.69.69Z"/>
        <path class="cls-6" d="m22.68,55.73h0c-.38,0-.69-.31-.69-.69h0c0-.38.31-.69.69-.69h0c.38,0,.69.31.69.69h0c0,.38-.31.69-.69.69Z"/>
      </g>
      <g>
        <path class="cls-5" d="m11.43,56.15c0-2.9-2.35-5.06-5.25-5.06s-5.25,2.16-5.25,5.06h10.5Z"/>
        <path class="cls-1" d="m9.4,56.15c.12-.34.19-.71.19-1.09,0-1.88-1.53-3.41-3.41-3.41s-3.41,1.53-3.41,3.41c0,.38.08.75.19,1.09h6.44Z"/>
        <path class="cls-11" d="m2,55.06h8.37c.59,0,1.06.48,1.06,1.06v.03c0,.59-.48,1.06-1.06,1.06H2c-.59,0-1.06-.48-1.06-1.06v-.03c0-.59.48-1.06,1.06-1.06Z"/>
        <circle class="cls-2" cx="8.41" cy="53.47" r="1.24"/>
        <path class="cls-2" d="m5.77,52.24c0-.35.29-.64.64-.64s.64.29.64.64-.29.64-.64.64-.64-.29-.64-.64Z"/>
        <path class="cls-6" d="m2.77,55.73h0c-.38,0-.69-.31-.69-.69h0c0-.38.31-.69.69-.69h0c.38,0,.69.31.69.69h0c0,.38-.31.69-.69.69Z"/>
        <path class="cls-6" d="m9.82,55.73h0c-.38,0-.69-.31-.69-.69h0c0-.38.31-.69.69-.69h0c.38,0,.69.31.69.69h0c0,.38-.31.69-.69.69Z"/>
        <path class="cls-6" d="m7.47,55.73h0c-.38,0-.69-.31-.69-.69h0c0-.38.31-.69.69-.69h0c.38,0,.69.31.69.69h0c0,.38-.31.69-.69.69Z"/>
        <path class="cls-6" d="m5.12,55.73h0c-.38,0-.69-.31-.69-.69h0c0-.38.31-.69.69-.69h0c.38,0,.69.31.69.69h0c0,.38-.31.69-.69.69Z"/>
      </g>
      <g>
        <path class="cls-11" d="m7.11,20.29c-.17,0-.33-.08-.42-.24-.12-.2-3.04-4.95-.99-7.76,1.55-2.13,5.47-2.43,11.64-.89.27.07.43.34.36.61-.07.27-.34.43-.61.36-5.66-1.41-9.32-1.23-10.59.51-1.65,2.26,1.01,6.6,1.03,6.64.15.23.07.54-.16.69-.08.05-.17.08-.26.08Z"/>
        <g>
          <g>
            <path class="cls-11" d="m3.28,29.63H1c-.55,0-1,.45-1,1h0c0,.55.45,1,1,1h2.28c.55,0,1-.45,1-1h0c0-.55-.45-1-1-1Z"/>
            <path class="cls-11" d="m3.28,21.51H1c-.55,0-1,.45-1,1h0c0,.55.45,1,1,1h2.28c.55,0,1-.45,1-1h0c0-.55-.45-1-1-1Z"/>
            <path class="cls-6" d="m.75,21.51h0c-.41,0-.75.34-.75.75v8.63c0,.41.34.75.75.75h0c.41,0,.75-.34.75-.75v-8.63c0-.41-.34-.75-.75-.75Z"/>
            <path class="cls-9" d="m.75,27.45h0c-.41,0-.75.34-.75.75v1.25c0,.41.34.75.75.75h0c.41,0,.75-.34.75-.75v-1.25c0-.41-.34-.75-.75-.75Z"/>
            <path class="cls-9" d="m.75,23.74h0c-.41,0-.75.34-.75.75v.36c0,.41.34.75.75.75h0c.41,0,.75-.34.75-.75v-.36c0-.41-.34-.75-.75-.75Z"/>
          </g>
          <path class="cls-11" d="m10.09,34.55h0c.93,0,1.7-.76,1.7-1.7v-10.71c0-2.07-1.69-3.76-3.76-3.76h0c-2.07,0-3.76,1.69-3.76,3.76v6.59c0,3.2,2.62,5.82,5.82,5.82Z"/>
          <path class="cls-2" d="m7.13,33.72h0c.79,0,1.43-.64,1.43-1.43v-10.04c0-1.56-1.28-2.84-2.84-2.84h0c-1.56,0-2.84,1.28-2.84,2.84v7.22c0,2.34,1.91,4.25,4.25,4.25Z"/>
          <path class="cls-13" d="m8.08,33.72h0c.79,0,1.43-.64,1.43-1.43v-10.04c0-1.56-1.28-2.84-2.84-2.84h0c-1.56,0-2.84,1.28-2.84,2.84v7.22c0,2.34,1.91,4.25,4.25,4.25Z"/>
          <path class="cls-2" d="m6.35,21.21c0-.34-.28-.62-.62-.62s-.62.28-.62.62.28.62.62.62.62-.28.62-.62Z"/>
          <circle class="cls-2" cx="5.6" cy="30.55" r="1.51"/>
          <path class="cls-11" d="m6.71,30.55c0-.83-.67-1.51-1.51-1.51s-1.51.67-1.51,1.51.67,1.51,1.51,1.51,1.51-.67,1.51-1.51Z"/>
          <circle class="cls-3" cx="4.98" cy="30.55" r="1.07"/>
          <path class="cls-11" d="m11.98,24.37h-5.5c-.52,0-.95-.43-.95-.95h0c0-.52.43-.95.95-.95h5.5c.52,0,.95.43.95.95h0c0,.52-.43.95-.95.95Z"/>
          <path class="cls-11" d="m11.98,28.28h-5.5c-.52,0-.95-.43-.95-.95h0c0-.52.43-.95.95-.95h5.5c.52,0,.95.43.95.95h0c0,.52-.43.95-.95.95Z"/>
          <path class="cls-6" d="m7.14,27.33c0-.31-.25-.56-.56-.56s-.56.25-.56.56.25.56.56.56.56-.25.56-.56Z"/>
          <path class="cls-6" d="m7.14,23.42c0-.31-.25-.56-.56-.56s-.56.25-.56.56.25.56.56.56.56-.25.56-.56Z"/>
          <path class="cls-9" d="m6.09,23.42c0-.31-.25-.56-.56-.56s-.56.25-.56.56.25.56.56.56.56-.25.56-.56Z"/>
          <path class="cls-9" d="m6.09,27.33c0-.31-.25-.56-.56-.56s-.56.25-.56.56.25.56.56.56.56-.25.56-.56Z"/>
        </g>
        <g>
          <path class="cls-11" d="m16.04,36.72h0c-4.6,0-8.36-3.76-8.36-8.36v-6.64c0-2.6,2.13-4.73,4.73-4.73h7.25c2.6,0,4.73,2.13,4.73,4.73v6.64c0,4.6-3.76,8.36-8.36,8.36Z"/>
          <path class="cls-6" d="m14.28,28.62h0c-.71,0-1.29-.58-1.29-1.29v-4.04c0-.71.58-1.29,1.29-1.29h0c.71,0,1.29.58,1.29,1.29v4.04c0,.71-.58,1.29-1.29,1.29Z"/>
          <path class="cls-6" d="m20.64,28.62h0c-.71,0-1.29-.58-1.29-1.29v-4.04c0-.71.58-1.29,1.29-1.29h0c.71,0,1.29.58,1.29,1.29v4.04c0,.71-.58,1.29-1.29,1.29Z"/>
          <path class="cls-1" d="m14.98,24.48h-3c-1.07,0-1.94-.87-1.94-1.94h0c0-2.22,1.81-4.03,4.03-4.03h.91c1.07,0,1.94.87,1.94,1.94v2.09c0,1.07-.87,1.94-1.94,1.94Z"/>
          <path class="cls-1" d="m22.98,24.48h-3c-1.07,0-1.94-.87-1.94-1.94v-2.09c0-1.07.87-1.94,1.94-1.94h1.57c1.85,0,3.36,1.51,3.36,3.36v.66c0,1.07-.87,1.94-1.94,1.94Z"/>
          <path class="cls-5" d="m21.64,23.54l-2.78-2.78c-.21-.21-.21-.56,0-.78h0c.21-.21.56-.21.78,0l2.78,2.78c.21.21.21.56,0,.78h0c-.21.21-.56.21-.78,0Z"/>
          <path class="cls-5" d="m22.94,21.6l-1.23-1.23c-.21-.21-.21-.56,0-.78h0c.21-.21.56-.21.78,0l1.23,1.23c.21.21.21.56,0,.78h0c-.21.21-.56.21-.78,0Z"/>
          <path class="cls-5" d="m13.83,23.54l-2.14-2.14c-.21-.21-.21-.56,0-.78h0c.21-.21.56-.21.78,0l2.14,2.14c.21.21.21.56,0,.78h0c-.21.21-.56.21-.78,0Z"/>
          <path class="cls-5" d="m15.13,21.6l-1.23-1.23c-.21-.21-.21-.56,0-.78h0c.21-.21.56-.21.78,0l1.23,1.23c.21.21.21.56,0,.78h0c-.21.21-.56.21-.78,0Z"/>
          <path class="cls-1" d="m21.96,29.08h-9.76c-.48,0-.88-.39-.88-.88h0c0-.48.39-.88.88-.88h9.76c.48,0,.88.39.88.88h0c0,.48-.39.88-.88.88Z"/>
          <path class="cls-6" d="m14,31.16h0c-.41,0-.75-.34-.75-.75v-1.95c0-.41.34-.75.75-.75h0c.41,0,.75.34.75.75v1.95c0,.41-.34.75-.75.75Z"/>
          <path class="cls-6" d="m19.84,31.16h0c-.41,0-.75-.34-.75-.75v-1.95c0-.41.34-.75.75-.75h0c.41,0,.75.34.75.75v1.95c0,.41-.34.75-.75.75Z"/>
          <circle class="cls-6" cx="12.89" cy="33.54" r="1.12"/>
          <path class="cls-6" d="m21.55,33.14c0,.4-.32.72-.72.72s-.72-.32-.72-.72.32-.72.72-.72.72.32.72.72Z"/>
          <path class="cls-2" d="m12.7,20.97c0,.36-.29.66-.66.66s-.66-.29-.66-.66.29-.66.66-.66.66.29.66.66Z"/>
          <path class="cls-2" d="m14.98,19.98c0,.36-.29.65-.65.65s-.65-.29-.65-.65.29-.65.65-.65.65.29.65.65Z"/>
          <path class="cls-1" d="m20.3,33.31c0-1.47-1.46-2.67-3.27-2.67s-3.27,1.19-3.27,2.67,1.47,2.67,3.27,2.67,3.27-1.19,3.27-2.67Z"/>
          <path class="cls-2" d="m19.87,20.27c0,.36-.29.66-.66.66s-.66-.29-.66-.66.29-.66.66-.66.66.29.66.66Z"/>
          <path class="cls-2" d="m22.75,19.98c0,.36-.29.65-.65.65s-.65-.29-.65-.65.29-.65.65-.65.65.29.65.65Z"/>
          <path class="cls-1" d="m22.7,31.66h-12.56c-.36,0-.65-.29-.65-.65h0c0-.36.29-.65.65-.65h12.56c.36,0,.65.29.65.65h0c0,.36-.29.65-.65.65Z"/>
          <path class="cls-5" d="m19.99,31.66h-2.25c-.36,0-.65-.29-.65-.65h0c0-.36.29-.65.65-.65h2.25c.36,0,.65.29.65.65h0c0,.36-.29.65-.65.65Z"/>
          <path class="cls-5" d="m13.68,31.66h-.53c-.36,0-.65-.29-.65-.65h0c0-.36.29-.65.65-.65h.53c.36,0,.65.29.65.65h0c0,.36-.29.65-.65.65Z"/>
          <path class="cls-2" d="m20.64,31c0,.36-.29.65-.65.65s-.65-.29-.65-.65.29-.65.65-.65.65.29.65.65Z"/>
          <path class="cls-2" d="m14.51,31c0,.36-.29.65-.65.65s-.65-.29-.65-.65.29-.65.65-.65.65.29.65.65Z"/>
          <path class="cls-5" d="m18.56,34.22c0-.71-.73-1.28-1.64-1.28s-1.64.57-1.64,1.28.73,1.28,1.64,1.28,1.64-.57,1.64-1.28Z"/>
          <circle class="cls-5" cx="18.36" cy="32.92" r=".5"/>
        </g>
      </g>
      <g>
        <path class="cls-11" d="m12.95,1.96s-1.4-1.35-3.82.6c-.21.17-.17.51.09.6.65.22,1.7.87,2.68,2.72l1.05-3.91Z"/>
        <path class="cls-11" d="m11.43,3.88s-1.34-1.41-3.84.43c-.22.16-.19.5.06.6.64.25,1.66.94,2.55,2.83l1.22-3.86Z"/>
        <path class="cls-11" d="m19.21,4.05s1.71-.92.6-3.82c-.1-.25-.44-.31-.6-.1-.41.55-1.35,1.35-3.41,1.71l3.4,2.2Z"/>
        <g>
          <path class="cls-11" d="m12.04,1.82s7.56-.11,10.19-1.32c.36-.16.76.06.78.46.06,1.2-.01,3.23-1.09,4.11L12.04,1.82Z"/>
          <path class="cls-8" d="m21.01,5.32c-.85,0-1.54.69-1.54,1.54s.69,1.54,1.54,1.54,1.54-.69,1.54-1.54-.69-1.54-1.54-1.54Z"/>
          <path class="cls-4" d="m15.97,14.21h0c-3.06,0-5.56-2.5-5.56-5.56v-2.97c0-1.87,1.53-3.39,3.39-3.39h4.54c1.87,0,3.39,1.53,3.39,3.39v2.75c0,3.18-2.6,5.77-5.77,5.77Z"/>
          <path class="cls-11" d="m10.2,9.32h0c-.83,0-1.51-.68-1.51-1.51v-2.48c0-.83.68-1.51,1.51-1.51h0c.83,0,1.51.68,1.51,1.51v2.48c0,.83-.68,1.51-1.51,1.51Z"/>
          <path class="cls-11" d="m20.69,5.56h-8.65c-1.03,0-1.87-.84-1.87-1.87h0c0-1.03.84-1.87,1.87-1.87h8.65c1.03,0,1.87.84,1.87,1.87h0c0,1.03-.84,1.87-1.87,1.87Z"/>
          <g>
            <path class="cls-4" d="m12.52,6.86c0,.85-.55,1.54-1.4,1.54s-1.68-.69-1.68-1.54.69-1.54,1.54-1.54,1.54.69,1.54,1.54Z"/>
            <path class="cls-8" d="m11.77,6.86c0,.44-.36.8-.8.8s-.8-.36-.8-.8.36-.8.8-.8.8.36.8.8Z"/>
          </g>
          <path class="cls-8" d="m17.78,10.7h0c-.62,0-1.12-.51-1.12-1.12v-1.11c0-.62.51-1.12,1.12-1.12h0c.62,0,1.12.51,1.12,1.12v1.11c0,.62-.51,1.12-1.12,1.12Z"/>
          <rect class="cls-13" x="16.44" y="2.57" width="4.99" height="1.25" rx=".63" ry=".63"/>
          <path class="cls-2" d="m20.43,3.2c0-.35-.28-.63-.63-.63s-.63.28-.63.63.28.63.63.63.63-.28.63-.63Z"/>
          <rect class="cls-13" x="12.59" y="2.57" width="2.42" height="1.25" rx=".63" ry=".63"/>
          <path class="cls-1" d="m20.82,9.32h-7.17c-1.09,0-1.97-.89-1.97-1.97h0c0-1.09.89-1.97,1.97-1.97h7.17c1.09,0,1.97.89,1.97,1.97h0c0,1.09-.89,1.97-1.97,1.97Z"/>
          <path class="cls-5" d="m14.65,8.61c-.7,0-1.27-.57-1.27-1.27s.57-1.27,1.27-1.27h6.17c.7,0,1.27.57,1.27,1.27s-.57,1.27-1.27,1.27h-6.17Z"/>
          <path class="cls-11" d="m16.81,7.98h-2.36c-.35,0-.64-.29-.64-.64h0c0-.35.29-.64.64-.64h2.36c.35,0,.64.29.64.64h0c0,.35-.29.64-.64.64Z"/>
          <path class="cls-11" d="m21.55,7.98h-2.36c-.35,0-.64-.29-.64-.64h0c0-.35.29-.64.64-.64h2.36c.35,0,.64.29.64.64h0c0,.35-.29.64-.64.64Z"/>
          <path class="cls-2" d="m16.63,7.34c0,.35-.29.64-.64.64s-.64-.29-.64-.64.29-.64.64-.64.64.29.64.64Z"/>
          <path class="cls-2" d="m21.45,7.34c0,.35-.29.64-.64.64s-.64-.29-.64-.64.29-.64.64-.64.64.29.64.64Z"/>
        </g>
        <path class="cls-11" d="m15.92,17.55c3.66,0,6.7-2.71,7.2-6.24.08-.55-.36-1.04-.91-1.04h-12.58c-.55,0-.99.49-.91,1.04.5,3.53,3.53,6.24,7.2,6.24Z"/>
        <path class="cls-2" d="m17.04,15.63c2.18,0,3.99-1.62,4.29-3.72.05-.33-.21-.62-.54-.62h-7.5c-.33,0-.59.29-.54.62.3,2.1,2.11,3.72,4.29,3.72Z"/>
        <path class="cls-6" d="m17.04,16.2c2.18,0,3.99-1.62,4.29-3.72.05-.33-.21-.62-.54-.62h-7.5c-.33,0-.59.29-.54.62.3,2.1,2.11,3.72,4.29,3.72Z"/>
        <circle class="cls-11" cx="15.17" cy="13.01" r=".45"/>
        <path class="cls-11" d="m16.98,13.01c0,.25-.2.45-.45.45s-.45-.2-.45-.45.2-.45.45-.45.45.2.45.45Z"/>
        <path class="cls-11" d="m18.33,13.01c0,.25-.2.45-.45.45s-.45-.2-.45-.45.2-.45.45-.45.45.2.45.45Z"/>
        <circle class="cls-11" cx="19.24" cy="13.01" r=".45"/>
        <path class="cls-11" d="m16.98,14.38c0,.25-.2.45-.45.45s-.45-.2-.45-.45.2-.45.45-.45.45.2.45.45Z"/>
        <path class="cls-11" d="m18.33,14.38c0,.25-.2.45-.45.45s-.45-.2-.45-.45.2-.45.45-.45.45.2.45.45Z"/>
        <path class="cls-6" d="m11.3,12.09h-1.1c-.22,0-.4-.18-.4-.4h0c0-.22.18-.4.4-.4h1.1c.22,0,.4.18.4.4h0c0,.22-.18.4-.4.4Z"/>
        <path class="cls-6" d="m11.59,13.91h-.39c-.25,0-.45-.2-.45-.45h0c0-.25.2-.45.45-.45h.39c.25,0,.45.2.45.45h0c0,.25-.2.45-.45.45Z"/>
      </g>
      <g>
        <path class="cls-11" d="m22.92,10.29h0c-.54.02-.96.48-.93,1.02l.14,3.28c.02.54.48.96,1.02.93h0c.54-.02.96-.48.93-1.02l-.14-3.28c-.02-.54-.48-.96-1.02-.93Z"/>
        <path class="cls-11" d="m25.73,13.05h0c-.02-.54-.48-.96-1.02-.93l-3.28.14c-.54.02-.96.48-.93,1.02h0c.02.54.48.96,1.02.93l3.28-.14c.54-.02.96-.48.93-1.02Z"/>
        <path class="cls-3" d="m35.78,9.89l-5.14.23c-.89.04-1.59.8-1.55,1.7h0c.04.89.8,1.59,1.7,1.55l5.14-.23c.89-.04,1.59-.8,1.55-1.7h0c-.04-.89-.8-1.59-1.7-1.55Z"/>
        <path class="cls-2" d="m32.85,10.02l-.55.02c-.29.01-.52.26-.5.55h0c.01.29.26.52.55.5l.55-.02c.29-.01.52-.26.5-.55h0c-.01-.29-.26-.52-.55-.5Z"/>
        <path class="cls-2" d="m34.21,9.96h0c-.29.01-.52.26-.5.55h0c.01.29.26.52.55.5h0c.29-.01.52-.26.5-.55h0c-.01-.29-.26-.52-.55-.5Z"/>
        <path class="cls-11" d="m37.9,10.84l-9.06.4c-.77.03-1.37.69-1.34,1.46h0c.03.77.69,1.37,1.46,1.34l9.06-.4c.77-.03,1.37-.69,1.34-1.46h0c-.03-.77-.69-1.37-1.46-1.34Z"/>
        <path class="cls-11" d="m30.21,12.24h0c-.58.03-1.07-.43-1.1-1.01h0c-.03-.58.43-1.07,1.01-1.1h0c.58-.03,1.07.43,1.1,1.01h0c.03.58-.43,1.07-1.01,1.1Z"/>
        <path class="cls-11" d="m36.82,11.95h0c-.58.03-1.07-.43-1.1-1.01h0c-.03-.58.43-1.07,1.01-1.1h0c.58-.03,1.07.43,1.1,1.01h0c.03.58-.43,1.07-1.01,1.1Z"/>
        <path class="cls-11" d="m28.15,23.52l-13.81.61c-1.33.06-2.47-.98-2.53-2.32l-.13-2.85c-.13-2.9,2.14-5.38,5.04-5.51l10.96-.48c2.9-.13,5.38,2.14,5.51,5.04h0c.13,2.9-2.14,5.38-5.04,5.51Z"/>
        <path class="cls-11" d="m40.01,13.12h0c-.93.04-1.65.83-1.61,1.76l.18,4.14c.04.93.83,1.65,1.76,1.61h0c.93-.04,1.65-.83,1.61-1.76l-.18-4.14c-.04-.93-.83-1.65-1.76-1.61Z"/>
        <path class="cls-2" d="m39.73,20.45l-19.76.87-.22-5.04c-.08-1.82,1.33-3.35,3.14-3.43l15.65-.69c.46-.02.84.33.86.79l.33,7.5Z"/>
        <path class="cls-11" d="m40.03,21.51l-19.31.85-.22-5.04c-.08-1.82,1.33-3.35,3.14-3.43l13.98-.62c1.13-.05,2.08.82,2.13,1.95l.28,6.28Z"/>
        <path class="cls-5" d="m40,21.24l-14.51.64-.22-5.04c-.08-1.82,1.33-3.35,3.14-3.43l10.39-.46c.46-.02.84.33.86.79l.33,7.5Z"/>
        <path class="cls-11" d="m37.6,19.56l-6.73.3c-1.28.06-2.27,1.15-2.22,2.42h0c.06,1.28,1.15,2.27,2.42,2.22l6.73-.3c1.28-.06,2.27-1.15,2.22-2.42h0c-.06-1.28-1.15-2.27-2.42-2.22Z"/>
        <path class="cls-11" d="m24.67,15.28h0c-1.84-.48-3.74.64-4.22,2.49l-.77,2.98c-.48,1.84.64,3.74,2.49,4.22h0c1.84.48,3.74-.64,4.22-2.49l.77-2.98c.48-1.84-.64-3.74-2.49-4.22Z"/>
        <path class="cls-11" d="m30.16,22.33l-5.86.26c-2.17.1-4.02-1.6-4.12-3.77h0c-.1-2.17,1.6-4.02,3.77-4.12l5.86-.26c2.17-.1,4.02,1.6,4.12,3.77h0c.1,2.17-1.6,4.02-3.77,4.12Z"/>
        <path class="cls-6" d="m30.15,21.02l-2.28.1c-.66.03-1.22-.48-1.25-1.14h0c-.03-.66.48-1.22,1.14-1.25l2.28-.1c.66-.03,1.22.48,1.25,1.14h0c.03.66-.48,1.22-1.14,1.25Z"/>
        <path class="cls-11" d="m23.34,15.34h0c-1.84-.48-3.74.64-4.22,2.49l-.77,2.98c-.48,1.84.64,3.74,2.49,4.22h0c1.84.48,3.74-.64,4.22-2.49l.77-2.98c.48-1.84-.64-3.74-2.49-4.22Z"/>
        <path class="cls-6" d="m22.93,16.44h0c-1.24-.32-2.56.57-2.92,1.98l-.59,2.28c-.36,1.41.35,2.83,1.6,3.15h0c1.24.32,2.56-.57,2.92-1.98l.59-2.28c.36-1.41-.35-2.83-1.6-3.15Z"/>
        <path class="cls-2" d="m19.44,21.43l.59-2.28c.36-1.41,1.68-2.3,2.92-1.98.88.23,1.49,1.01,1.65,1.95.11-1.24-.58-2.38-1.68-2.67-1.24-.32-2.56.57-2.92,1.98l-.59,2.28c-.11.41-.11.82-.05,1.2.01-.16.04-.32.08-.48Z"/>
        <path class="cls-11" d="m23.29,18.68c-.02-.48-.43-.85-.91-.83-.48.02-.85.43-.83.91.02.48.43.85.91.83.48-.02.85-.43.83-.91Z"/>
        <path class="cls-11" d="m22.28,21.81c-.02-.41-.37-.73-.78-.71-.41.02-.73.37-.71.78.02.41.37.73.78.71.41-.02.73-.37.71-.78Z"/>
        <path class="cls-2" d="m27.74,19.01h0c-.51.02-.9.45-.88.96h0c.02.51.45.9.96.88h0c.51-.02.9-.45.88-.96h0c-.02-.51-.45-.9-.96-.88Z"/>
        <g>
          <path class="cls-5" d="m37.12,20.65l-4.59.2c-1.73.08-3.09,1.56-3.01,3.29h0c.08,1.73,1.56,3.09,3.29,3.01l3.45-.15c1.73-.08,3.09-1.56,3.01-3.29l-.05-1.14c-.05-1.11-.99-1.97-2.1-1.92Z"/>
          <path class="cls-1" d="m35.59,21.98l-2.54.11c-1.04.05-1.85.93-1.8,1.97h0c.05,1.04.93,1.85,1.97,1.8l2.54-.11c1.04-.05,1.85-.93,1.8-1.97h0c-.05-1.04-.93-1.85-1.97-1.8Z"/>
          <path class="cls-2" d="m37.14,22.4c-.03-.69-.62-1.23-1.31-1.2-.69.03-1.23.62-1.2,1.31.03.69.62,1.23,1.31,1.2.69-.03,1.23-.62,1.2-1.31Z"/>
          <path class="cls-2" d="m33.25,24.7c-.02-.48-.42-.85-.9-.83-.48.02-.85.42-.83.9.02.48.42.85.9.83.48-.02.85-.42.83-.9Z"/>
        </g>
        <path class="cls-6" d="m29.84,16.22l-4.07.18c-.27.01-.49.25-.48.52h0c.01.27.25.49.52.48l4.07-.18c.27-.01.49-.25.48-.52h0c-.01-.27-.25-.49-.52-.48Z"/>
        <path class="cls-6" d="m14.21,17.29h0c-.84.04-1.5.76-1.46,1.6l.1,2.25c.04.84.76,1.5,1.6,1.46h0c.84-.04,1.5-.76,1.46-1.6l-.1-2.25c-.04-.84-.76-1.5-1.6-1.46Z"/>
        <path class="cls-6" d="m16.9,14.6h0c-.7.03-1.26.63-1.22,1.34h0c.03.7.63,1.26,1.34,1.23h0c.7-.03,1.26-.63,1.22-1.34h0c-.03-.7-.63-1.26-1.34-1.23Z"/>
        <path class="cls-11" d="m41.75,14.38h0c-.51.02-.91.46-.89.97l.07,1.54c.02.51.46.91.97.89h0c.51-.02.91-.46.89-.97l-.07-1.54c-.02-.51-.46-.91-.97-.89Z"/>
        <path class="cls-6" d="m40.92,17.3h0c-.31.01-.57-.23-.58-.53l-.08-1.77c-.01-.31.23-.57.53-.58h0c.31-.01.57.23.58.53l.08,1.77c.01.31-.23.57-.53.58Z"/>
        <path class="cls-6" d="m40.99,18.89h0c-.25.01-.45.23-.44.48h0c.01.25.23.45.48.44h0c.25-.01.45-.23.44-.48h0c-.01-.25-.23-.45-.48-.44Z"/>
        <path class="cls-2" d="m41.39,15.18h0c-.38.02-.67.34-.66.72h0c.02.38.34.67.72.66h0c.38-.02.67-.34.66-.72h0c-.02-.38-.34-.67-.72-.66Z"/>
        <g>
          <path class="cls-11" d="m31.22,16.74h0c-.04-1.04.77-1.92,1.81-1.97l3.16-.13c1.04-.04,1.92.77,1.97,1.81h0c.04,1.04-.77,1.92-1.81,1.97l-3.16.13c-1.04.04-1.92-.77-1.97-1.81Z"/>
          <path class="cls-3" d="m33.67,16.64h0c-.03-.71.53-1.31,1.24-1.34l1.04-.04c.71-.03,1.31.53,1.34,1.24h0c.03.71-.53,1.31-1.24,1.34l-1.04.04c-.71.03-1.31-.53-1.34-1.24Z"/>
          <path class="cls-2" d="m36.36,17.36c.45-.19.67-.7.48-1.15s-.7-.67-1.15-.48-.67.7-.48,1.15.7.67,1.15.48Z"/>
          <path class="cls-6" d="m32.75,17.05c.24-.1.35-.37.25-.61-.1-.24-.37-.35-.61-.25-.24.1-.35.37-.25.61s.37.35.61.25Z"/>
        </g>
      </g>
      <g>
        <path class="cls-7" d="m18.36,22.03l-.59.62-.08.08-1.98,2.08c-.91.96-.87,2.48.08,3.39h0c.96.91,2.48.87,3.39-.08l1.98-2.08.08-.08.59-.62c.91-.96.87-2.48-.08-3.39h0c-.96-.91-2.48-.87-3.39.08Z"/>
        <path class="cls-1" d="m19.74,20.58l-1.2,1.25c-.91.96-.87,2.48.08,3.39h0c.96.91,2.48.87,3.39-.08l1.2-1.25c.91-.96.87-2.48-.08-3.39h0c-.96-.91-2.48-.87-3.39.08Z"/>
      </g>
      <g>
        <path class="cls-5" d="m26.7,21.73l-3.73.16c-.97.04-1.79-.71-1.83-1.68h0c-.04-.97.71-1.79,1.68-1.83l3.73-.16c.97-.04,1.79.71,1.83,1.68h0c.04.97-.71,1.79-1.68,1.83Z"/>
        <path class="cls-5" d="m23.51,18.34h-.33c-2.25.11-4.01,2.03-3.91,4.28h0c.1,2.25,2.02,4.01,4.27,3.91h.33c2.25-.11,4.01-2.03,3.91-4.28h0c-.1-2.25-2.02-4.01-4.27-3.91Z"/>
        <path class="cls-1" d="m24.36,25.65h0c-1.39.06-2.58-1.03-2.65-2.42l-.06-1.42c-.06-1.39,1.03-2.58,2.42-2.65h0c1.39-.06,2.58,1.03,2.65,2.42l.06,1.42c.06,1.39-1.03,2.58-2.42,2.65Z"/>
        <path class="cls-2" d="m24.22,22.4h0c-.77.03-1.43-.57-1.46-1.34h0c-.03-.77.57-1.43,1.34-1.46h0c.77-.03,1.43.57,1.46,1.34h0c.03.77-.57,1.43-1.34,1.46Z"/>
        <path class="cls-2" d="m22.54,24.4h0c-.52.02-.96-.38-.98-.9h0c-.02-.52.38-.96.9-.98h0c.52-.02.96.38.98.9h0c.02.52-.38.96-.9.98Z"/>
      </g>
      <g>
        <path id="ArmOne-2" data-name="ArmOne" class="cls-7" d="m18.93,28.26h0c-.98.88-2.51.8-3.39-.19l-7.49-8.36c-.88-.98-.8-2.51.19-3.39h0c.98-.88,2.51-.8,3.39.19l7.49,8.36c.88.98.8,2.51-.19,3.39Z"/>
        <path class="cls-11" d="m16.38,25.36h0c-.21.19-.55.17-.74-.04l-2.07-2.31c-.19-.21-.17-.55.04-.74h0c.21-.19.55-.17.74.04l2.07,2.31c.19.21.17.55-.04.74Z"/>
        <path class="cls-2" d="m15.69,17.72c-1.69-1.89-4.58-2.05-6.47-.36-1.89,1.69-2.05,4.58-.36,6.47,1.69,1.89,3.96,1.35,5.84-.34,1.89-1.69,2.67-3.88.98-5.77Z"/>
        <path class="cls-1" d="m14.57,16.01c-1.8-2.01-4.89-2.18-6.9-.38s-2.18,4.89-.38,6.9c1.8,2.01,4.22,1.44,6.23-.36,2.01-1.8,2.85-4.14,1.05-6.15Z"/>
        <path class="cls-5" d="m12.9,17.36c-1.41-1.58-3.67-1.86-5.04-.63-1.37,1.23-1.34,3.5.07,5.08,1.41,1.58,3.14,1.28,4.52.05,1.37-1.23,1.86-2.92.45-4.49Z"/>
        <path class="cls-3" d="m17.16,24.66c-.38-.43-1.04-.47-1.47-.08-.43.38-.47,1.04-.08,1.47.38.43,1.04.47,1.47.08.43-.38.47-1.04.08-1.47Z"/>
        <g>
          <path class="cls-1" d="m11.51,21.5h0c-.14,0-.24-.13-.23-.26l.15-2.68c0-.14.13-.24.26-.23h0c.14,0,.24.13.23.26l-.15,2.68c0,.14-.13.24-.26.23Z"/>
          <path class="cls-1" d="m9.87,20.56h0c-.14,0-.24-.13-.23-.26l.15-2.68c0-.14.13-.24.26-.23h0c.14,0,.24.13.23.26l-.15,2.68c0,.14-.13.24-.26.23Z"/>
          <path class="cls-1" d="m8.64,21.61h0c-.14,0-.24-.13-.23-.26l.15-2.68c0-.14.13-.24.26-.23h0c.14,0,.24.13.23.26l-.15,2.68c0,.14-.13.24-.26.23Z"/>
        </g>
        <path class="cls-2" d="m10.03,17.02c.69.77.62,1.95-.15,2.64-.77.69-1.95.62-2.64-.15-.69-.77-.62-1.95.15-2.64.77-.69,1.95-.62,2.64.15Z"/>
        <path class="cls-2" d="m12.01,17.66c-.23-.26-.21-.65.05-.88.26-.23.65-.21.88.05.23.26.21.65-.05.88-.26.23-.65.21-.88-.05Z"/>
      </g>
      <g>
        <path class="cls-7" d="m8.06,46.24h0c1.96.65,4.1-.42,4.75-2.38l2.72-8.21c.65-1.96-.42-4.1-2.38-4.75h0c-1.96-.65-4.1.42-4.75,2.38l-2.72,8.21c-.65,1.96.42,4.1,2.38,4.75Z"/>
        <path class="cls-1" d="m6.16,45.61h0c1.96.65,4.1-.42,4.75-2.38l2.72-8.21c.65-1.96-.42-4.1-2.38-4.75h0c-1.96-.65-4.1.42-4.75,2.38l-2.72,8.21c-.65,1.96.42,4.1,2.38,4.75Z"/>
        <path class="cls-2" d="m5.97,44.68h0c1.48.49,3.1-.32,3.59-1.8l2.72-8.19c.49-1.48-.32-3.1-1.8-3.59h0c-1.48-.49-3.1.32-3.59,1.8l-2.72,8.19c-.49,1.48.32,3.1,1.8,3.59Z"/>
        <path class="cls-5" d="m5.14,44.4h0c1.48.49,3.1-.32,3.59-1.8l2.72-8.19c.49-1.48-.32-3.1-1.8-3.59h0c-1.48-.49-3.1.32-3.59,1.8l-2.72,8.19c-.49,1.48.32,3.1,1.8,3.59Z"/>
        <path class="cls-7" d="m10.86,35.22l2.17.72c.52.17,1.09-.11,1.26-.63h0c.17-.52-.11-1.09-.63-1.26l-2.17-.72c-.52-.17-1.09.11-1.26.63h0c-.17.52.11,1.09.63,1.26Z"/>
        <path class="cls-7" d="m8.3,42.93l2.17.72c.52.17,1.09-.11,1.26-.63h0c.17-.52-.11-1.09-.63-1.26l-2.17-.72c-.52-.17-1.09.11-1.26.63h0c-.17.52.11,1.09.63,1.26Z"/>
        <path class="cls-6" d="m10.71,43.73h0c.39.13.81-.08.94-.47l2.72-8.2c.13-.39-.08-.81-.47-.94h0c-.39-.13-.81.08-.94.47l-2.72,8.2c-.13.39.08.81.47.94Z"/>
        <path class="cls-9" d="m12.58,38.09h0c.39.13.81-.08.94-.47l.39-1.19c.13-.39-.08-.81-.47-.94h0c-.39-.13-.81.08-.94.47l-.39,1.19c-.13.39.08.81.47.94Z"/>
        <path class="cls-9" d="m11.41,41.61h0c.39.13.81-.08.94-.47l.11-.34c.13-.39-.08-.81-.47-.94h0c-.39-.13-.81.08-.94.47l-.11.34c-.13.39.08.81.47.94Z"/>
        <g>
          <path class="cls-1" d="m9.67,37.83h0c-.06-.12-.21-.17-.33-.11l-2.4,1.21c-.12.06-.17.21-.11.33h0c.06.12.21.17.33.11l2.4-1.21c.12-.06.17-.21.11-.33Z"/>
          <path class="cls-1" d="m8.16,36.7h0c-.06-.12-.21-.17-.33-.11l-2.4,1.21c-.12.06-.17.21-.11.33h0c.06.12.21.17.33.11l2.4-1.21c.12-.06.17-.21.11-.33Z"/>
          <path class="cls-1" d="m8.63,35.15h0c-.06-.12-.21-.17-.33-.11l-2.4,1.21c-.12.06-.17.21-.11.33h0c.06.12.21.17.33.11l2.4-1.21c.12-.06.17-.21.11-.33Z"/>
        </g>
        <path class="cls-2" d="m8.77,32.42c.11-.33-.07-.68-.39-.78-.32-.11-.68.07-.78.39s.07.68.39.78c.32.11.68-.07.78-.39Z"/>
      </g>
    </g>
  </g>
</svg>